<svg id="icoRefNum" data-name="Layer 1" xmlns="http://www.w3.org/2000/svg" viewBox="0 0 104 104"><defs><style>.cls-1{fill:#000576;}.cls-1,.cls-2,.cls-4,.cls-5{stroke:#fff;}.cls-1,.cls-4,.cls-5{stroke-miterlimit:10;}.cls-1,.cls-2,.cls-5{stroke-width:1.5px;}.cls-2,.cls-5{fill:none;}.cls-2{stroke-linecap:round;stroke-linejoin:round;}.cls-3,.cls-4{fill:#fff;}.cls-4{stroke-width:0.5px;}</style></defs><title>id-converter-186</title><path class="cls-1" d="M52,2h0a50,50,0,0,1,50,50h0a50,50,0,0,1-50,50h0A50,50,0,0,1,2,52H2A50,50,0,0,1,52,2Z"/><path class="cls-2" d="M25.1,58.9l-.2,15.3a2.9,2.9,0,0,0,2.9,2.9H85.3a2.9,2.9,0,0,0,2.9-2.9v-36a2.9,2.9,0,0,0-2.9-2.9H39.9"/><path class="cls-3" d="M12.2,36.9l2-2a.52.52,0,0,1,.9.3l.7,2.8.7,2.8a.59.59,0,0,1-.7.7L13,40.7l-2.8-.8A.5.5,0,0,1,10,39Z"/><path class="cls-3" d="M39.3,51.9l2,2.1a.52.52,0,0,1-.3.9l-2.8.7-2.8.7a.59.59,0,0,1-.7-.7l.8-2.8.8-2.8a.53.53,0,0,1,.9-.2Z"/><path class="cls-2" d="M37.3,54.8A14.71,14.71,0,0,0,17.9,32.7"/><path class="cls-2" d="M13.7,38.7C9.1,50.1,20.3,62,31.9,58.2"/><path class="cls-4" d="M22.1,42.8V41.7h3l.8-3.7H27l-.8,3.7h3.9l.8-3.7H32l-.8,3.7H33v1.1H31l-.7,3.4H33v1.1H30L29.2,51H28.1l.8-3.7H25L24.2,51H23.1l.8-3.7H22.1V46.2h2.1l.7-3.4Zm7.8,0H26l-.7,3.4h3.9Z"/><line class="cls-2" x1="59.6" y1="50.2" x2="44.4" y2="50.2"/><line class="cls-2" x1="59.6" y1="56.3" x2="44.4" y2="56.3"/><line class="cls-2" x1="59.6" y1="62.3" x2="44.4" y2="62.3"/><circle class="cls-5" cx="74.2" cy="53.1" r="4.5"/><path class="cls-2" d="M65.9,63.1a9,9,0,0,1,16.5-.3"/></svg>