<svg id="Layer_1" data-name="Layer 1" xmlns="http://www.w3.org/2000/svg" viewBox="0 0 104 104"><defs><style>.cls-1{fill:#000576;}.cls-2{fill:none;stroke-width:0.5px;}.cls-2,.cls-4{stroke:#fff;stroke-miterlimit:10;}.cls-3,.cls-4{fill:#fff;}.cls-4{stroke-width:0.25px;}</style></defs><rect class="cls-1" x="2" y="2" width="100" height="100" rx="50"/><polyline class="cls-2" points="41.2 53.99 35.79 53.81 35.79 80.38 26.73 74.08 26.73 38.02 48.43 23.62 48.43 29.68"/><path class="cls-2" d="M48.2,50.65s-1,1.55-4.58,1.37a9.62,9.62,0,0,0,4.58,8.75,9.19,9.19,0,0,0,4.53-8.69S49.57,52.38,48.2,50.65Z"/><polyline class="cls-2" points="43.62 52.02 46.36 54.4 49.93 54.4 52.73 52.08"/><path class="cls-2" d="M52.74,53.36l1.42-.69-1-.71c2,.12,4-2,4-2H55.7c2.39-.72,4-3.58,4-3.58H58.44a8.3,8.3,0,0,0,2.15-5.71c-1,1.55-3.81,2.74-3.81,2.74-.48,4.4-4.88,6.43-4.88,6.43-1.53.86-2.22.23-2.43-.1a.48.48,0,0,1-.07-.26V48.3A1.65,1.65,0,0,0,49,47.16c-.87-.91-1.77.07-2.07.48a.63.63,0,0,1-.28.2,1.25,1.25,0,0,0-.67.55h1.19v1.23c0,1.27-2.26.43-2.26.43a8.52,8.52,0,0,1-5.36-6.66,10.08,10.08,0,0,1-3.81-2.74c.48,4.64,2.27,5.71,2.27,5.71H36.54c.83,1.79,4.16,3.58,4.16,3.58H39.16A5.34,5.34,0,0,0,43,52l-.84.71,1.5.79"/><path class="cls-2" d="M36.3,41.24s.35-4.16,1.9-5.71c.12-.12.84,0,.84,0"/><path class="cls-2" d="M37.14,42.08s-.24-5.85,4.16-8.85a.34.34,0,0,1,.26,0c.22,0,.61.16.69.33"/><path class="cls-2" d="M38,42.66A10.61,10.61,0,0,1,44.74,32.2h0a.85.85,0,0,1,.94.47"/><path class="cls-2" d="M38.68,43s-1-8.21,7.5-10.48c0,0,2.12-.58,2.36.61"/><path class="cls-2" d="M60.11,41.2S60,37,58.5,35.46c-.12-.12-.83,0-.83,0"/><path class="cls-2" d="M59.39,41.89s.09-5.7-3.8-8.67a.3.3,0,0,0-.26,0,1.66,1.66,0,0,0-.79.45"/><path class="cls-2" d="M58.59,42.44a11.49,11.49,0,0,0-6.22-10.26l-.13,0a.8.8,0,0,0-.89.48"/><path class="cls-2" d="M57.73,42.91s.29-8.06-6.85-10.4c0,0-2.12-.59-2.36.61"/><path class="cls-2" d="M56.78,43.39A8.75,8.75,0,0,0,41,36.9a8.93,8.93,0,0,0-1.46,6.49"/><line class="cls-2" x1="49.93" y1="54.4" x2="49.93" y2="59.47"/><line class="cls-2" x1="46.36" y1="54.4" x2="46.36" y2="59.37"/><rect class="cls-3" x="40.23" y="62.22" width="39.77" height="15.74"/><line class="cls-4" x1="40.23" y1="79.09" x2="80" y2="79.09"/><path class="cls-1" d="M62.89,75.44h.61v.61a.39.39,0,0,1-.13.31.44.44,0,0,1-.28.1h-.41a.38.38,0,0,1-.28-.12.38.38,0,0,1-.12-.29V75a.4.4,0,0,1,.12-.29.36.36,0,0,1,.28-.12h.41c.26,0,.39.14.41.41h-.21c0-.14-.08-.2-.2-.2h-.2a.2.2,0,0,0-.15.06.18.18,0,0,0-.06.14v1a.21.21,0,0,0,.21.21.2.2,0,0,0,.2-.21v-.4h-.2Z"/><path class="cls-1" d="M64.31,75h.41a.41.41,0,0,1,.4.4v.61a.4.4,0,0,1-.12.29.38.38,0,0,1-.28.12h-.41a.4.4,0,0,1-.29-.12.38.38,0,0,1-.12-.29v-.61a.38.38,0,0,1,.12-.28A.4.4,0,0,1,64.31,75Zm0,.4v.61a.2.2,0,0,0,.06.15.2.2,0,0,0,.14.06.21.21,0,0,0,.21-.21v-.61a.2.2,0,0,0-.06-.14.2.2,0,0,0-.15-.06.21.21,0,0,0-.2.2Z"/><path class="cls-1" d="M66.34,75h.4v.73a.63.63,0,0,1-.2.48.67.67,0,0,1-.49.21h-.52V75h.4v1.22h.2a.21.21,0,0,0,.21-.21Z"/><path class="cls-1" d="M68.37,75.85h-.81v.2a.2.2,0,0,0,.06.15.17.17,0,0,0,.14.06H68a.19.19,0,0,0,.21-.21h.2c0,.27-.17.41-.41.41h-.4a.41.41,0,0,1-.41-.41v-.61a.38.38,0,0,1,.12-.28.4.4,0,0,1,.29-.12H68a.4.4,0,0,1,.29.12.38.38,0,0,1,.12.28Zm-.81-.2H68v-.21a.21.21,0,0,0-.2-.2.18.18,0,0,0-.14.06.2.2,0,0,0-.06.14Z"/><path class="cls-1" d="M69.18,76.46h-.41V75h.41v.4a.59.59,0,0,1,.12-.3.39.39,0,0,1,.29-.1h.2v.4h-.41a.2.2,0,0,0-.14.06.2.2,0,0,0-.06.15Z"/><path class="cls-1" d="M70,76.46V75h.41v.2a.26.26,0,0,1,.06-.15.16.16,0,0,1,.14,0h.2a.38.38,0,0,1,.29.12.38.38,0,0,1,.12.28v1H70.8v-1a.2.2,0,0,0-.06-.14.19.19,0,0,0-.28,0,.2.2,0,0,0-.06.14v1Z"/><path class="cls-1" d="M72.83,76.46h-.4v-1a.2.2,0,0,0-.06-.14.2.2,0,0,0-.15-.06.21.21,0,0,0-.2.2v1h-.4V75H72v.2a.26.26,0,0,1,.06-.15.19.19,0,0,1,.14,0h.21a.34.34,0,0,1,.3.14.35.35,0,0,1,.13-.11A.48.48,0,0,1,73,75h.2a.4.4,0,0,1,.29.12.38.38,0,0,1,.12.28v1h-.41v-1a.21.21,0,0,0-.2-.2.2.2,0,0,0-.15.06.2.2,0,0,0-.06.14Z"/><path class="cls-1" d="M75.27,75.85h-.81v.2a.2.2,0,0,0,.06.15.18.18,0,0,0,.14.06h.21a.18.18,0,0,0,.2-.21h.2c0,.27-.17.41-.4.41h-.41a.4.4,0,0,1-.29-.12.38.38,0,0,1-.12-.29v-.61a.38.38,0,0,1,.12-.28.4.4,0,0,1,.29-.12h.41a.41.41,0,0,1,.4.4Zm-.81-.2h.41v-.21a.21.21,0,0,0-.07-.14.18.18,0,0,0-.14-.06.21.21,0,0,0-.2.2Z"/><path class="cls-1" d="M75.68,76.46V75h.4v.2a.21.21,0,0,1,.07-.15.16.16,0,0,1,.14,0h.2a.4.4,0,0,1,.29.12.41.41,0,0,1,.11.28v1h-.4v-1a.21.21,0,0,0-.2-.2.2.2,0,0,0-.15.06.2.2,0,0,0-.06.14v1Z"/><path class="cls-1" d="M77.5,74.63h.41V75h.2v.2h-.2v.81a.18.18,0,0,0,.06.15.22.22,0,0,0,.12.06h0v.2h-.2a.4.4,0,0,1-.29-.12.38.38,0,0,1-.12-.29v-.81h-.2V75h.2Z"/><path class="cls-1" d="M45.77,71.78h-.71A1.73,1.73,0,0,1,43.63,71a2.84,2.84,0,0,1-.6-1.73,3.46,3.46,0,0,1,.1-.87,2.51,2.51,0,0,1,.33-.8,1.48,1.48,0,0,1,.68-.6,2.5,2.5,0,0,1,1.11-.22h2.34v3.94h1.2v1.09H46.5v-.73Zm.73-3.94H45.25c-.75,0-1.13.47-1.13,1.4a1.64,1.64,0,0,0,.33,1,.94.94,0,0,0,.8.46H46.5ZM45,65.92l-.77-.77.77-.78.78.78Zm1.56,0-.78-.77.78-.78.77.78Z"/><path class="cls-1" d="M49.89,70V68.41c0-1.11.59-1.66,1.77-1.66h2.78V70.1c0,1.12-.53,1.68-1.6,1.68H51.66a1.91,1.91,0,0,1-1.32-.41,1.74,1.74,0,0,1-1.15.41h-.51V70.69h.51a.76.76,0,0,0,.5-.19A.59.59,0,0,0,49.89,70Zm3.46-2.2h-1.6a1,1,0,0,0-.58.14.74.74,0,0,0-.18.59V70a.74.74,0,0,0,.18.59,1,1,0,0,0,.58.14h.82a1,1,0,0,0,.59-.14.71.71,0,0,0,.19-.59Z"/><path class="cls-1" d="M58.14,74.47l-1.25-.64c1.24-.44,1.87-1.11,1.87-2v0H57.31A1.74,1.74,0,0,1,55.88,71a2.89,2.89,0,0,1-.59-1.73,3.46,3.46,0,0,1,.1-.87,2.74,2.74,0,0,1,.32-.8,1.51,1.51,0,0,1,.69-.6,2.47,2.47,0,0,1,1.11-.22h2.34v3.94h1v1.09h-1v0A2.93,2.93,0,0,1,58.14,74.47Zm.62-6.63H57.51c-.76,0-1.13.47-1.13,1.4a1.69,1.69,0,0,0,.32,1,1,1,0,0,0,.81.46h1.25Z"/><path class="cls-1" d="M63.91,71.78H60.83V70.69h3.08a.75.75,0,0,0,.61-.28,1.12,1.12,0,0,0,.26-.69v-.1a1.47,1.47,0,0,0-.53-1.05,3.47,3.47,0,0,0-1.6-.79l-.74-.23-.34-.85,4.77-2.32v1.11L63.4,66.86A3.77,3.77,0,0,1,65.26,68a2.5,2.5,0,0,1,.61,1.58v.1a1.12,1.12,0,0,0,.26.69.74.74,0,0,0,.61.28h.64v1.09h-.64a1.77,1.77,0,0,1-1.41-.6A1.81,1.81,0,0,1,63.91,71.78Z"/><path class="cls-1" d="M73.88,71.78h-6.6V70.69h4.36a7.46,7.46,0,0,1-.54-1.53,2.52,2.52,0,0,0-.26-.66,1.73,1.73,0,0,0-.3-.4,1.15,1.15,0,0,0-.4-.2,2,2,0,0,0-.43-.07l-.5,0h-.82c0-.12.12-.29.2-.51s.14-.41.19-.55h.79a3.64,3.64,0,0,1,.77.08,4,4,0,0,1,.58.19,1.45,1.45,0,0,1,.44.32l.31.36a2.35,2.35,0,0,1,.22.45c.08.21.13.35.16.45s.07.24.12.46a5.18,5.18,0,0,0,.45,1.21.74.74,0,0,0,.65.42h.61Z"/><path class="cls-1" d="M74.83,64.76l1.09-.39V70.1c0,1.12-.59,1.68-1.76,1.68h-.4V70.69h.31a.92.92,0,0,0,.57-.15.76.76,0,0,0,.19-.58Z"/><path class="cls-1" d="M76.89,64.76,78,64.37v7.08l-1.09.4Z"/></svg>