<svg id="Layer_1" data-name="Layer 1" xmlns="http://www.w3.org/2000/svg" viewBox="0 0 16.76 16.56"><defs><style>.cls-1{fill:none;stroke:#fff;stroke-miterlimit:10;stroke-width:0.25px;}.cls-2{fill:#fff;}</style></defs><title>android</title><circle class="cls-1" cx="8.36" cy="8.35" r="8.07"/><path class="cls-2" d="M5.29,11.21a.64.64,0,0,0,.64.64h.43v1.87a.64.64,0,0,0,.64.64h.27a.64.64,0,0,0,.64-.64V11.85h.91v1.87a.63.63,0,0,0,.64.64h.26a.63.63,0,0,0,.64-.64V11.85h.38a.64.64,0,0,0,.64-.64V6.3H5.29Z"/><rect class="cls-2" x="11.86" y="6.3" width="1.55" height="5.02" rx="0.64"/><rect class="cls-2" x="3.32" y="6.3" width="1.55" height="5.02" rx="0.64"/><path class="cls-2" d="M5.29,5.8h6.09a3,3,0,0,0-1.23-2.42l.69-.69a.17.17,0,0,0,0-.23l-.08-.07a.15.15,0,0,0-.23,0l-.75.75A3.06,3.06,0,0,0,7,3.11l-.72-.72a.14.14,0,0,0-.22,0l-.08.07a.17.17,0,0,0,0,.23l.65.64A3.05,3.05,0,0,0,5.29,5.8ZM9.62,4.22a.38.38,0,0,1,0,.75.38.38,0,1,1,0-.75Zm-2.51,0a.38.38,0,0,1,0,.75.38.38,0,1,1,0-.75Z"/></svg>