<svg id="Layer_1" data-name="Layer 1" xmlns="http://www.w3.org/2000/svg" viewBox="0 0 104 104">
	<defs>
		<style>.cls-1{fill:#000576;}</style>
	</defs>
	<path class="cls-1" d="M53.71.5h0a24,24,0,0,1,3.17.21l1.24.17C78.3,3.52,92.33,14.3,100,33.09A53.57,53.57,0,0,1,102.51,43a42.8,42.8,0,0,1,.79,8.15h0a44.45,44.45,0,0,1-.39,5.15h0A48.31,48.31,0,0,1,86.29,88.15C70.47,102,48.87,104.72,29.94,95.5A4.28,4.28,0,0,0,27.17,95C18.33,97.76,9.52,100.65.7,103.5a21.2,21.2,0,0,1,.52-2.66C3.72,93.42,6.22,86,8.8,78.6a4.58,4.58,0,0,0-.36-3.79A48,48,0,0,1,2.17,51.7,50,50,0,0,1,36.4,3.28a62.7,62.7,0,0,1,8-1.89A49.7,49.7,0,0,1,53.71.5ZM12.94,91.14c5.13-1.62,9.81-3.17,14.54-4.52a4.78,4.78,0,0,1,3.33.34,43.64,43.64,0,0,0,30.63,5.11C82.81,88,98.17,66.45,94.94,45A42.72,42.72,0,0,0,46.66,8.84,42.19,42.19,0,0,0,17.27,74a3.38,3.38,0,0,1,.39,3.36C16.1,81.76,14.61,86.22,12.94,91.14Z"/>
	<path class="cls-1" d="M28.14,39.27a13.65,13.65,0,0,1,2.52-8c1.94-3,4.69-4,8.05-3.32a2.87,2.87,0,0,1,1.81,1.44,80.85,80.85,0,0,1,4.08,9.9c.35,1.12-.47,2.92-1.28,4-2.86,3.92-2.92,3.84,0,7.82A33.18,33.18,0,0,0,57.66,62.46c1.5.63,2.58.54,3.58-.79s2.15-2.4,3-3.74A2.42,2.42,0,0,1,67.77,57c3.1,1.46,6.23,2.85,9.23,4.49A3.25,3.25,0,0,1,78.3,64a9.83,9.83,0,0,1-8.42,9.67,20.43,20.43,0,0,1-7.83-.24c-14.06-3.25-23.69-12.3-31-24.27A17.87,17.87,0,0,1,28.14,39.27Z"/>
</svg>