<?xml version="1.0" encoding="utf-8"?>
<!-- Generator: Adobe Illustrator 23.0.3, SVG Export Plug-In . SVG Version: 6.00 Build 0)  -->
<svg version="1.1" id="Layer_1" xmlns="http://www.w3.org/2000/svg" xmlns:xlink="http://www.w3.org/1999/xlink" x="0px" y="0px"
	 viewBox="0 0 103 103" style="enable-background:new 0 0 103 103;" xml:space="preserve">
<style type="text/css">
	.st0{fill:#FFFFFF;}
	.st1{fill:none;stroke:#FFFFFF;stroke-width:0.5;stroke-miterlimit:10;}
	.st2{fill:none;stroke:#FFFFFF;stroke-miterlimit:10;}
</style>
<title>Eform-ICON</title>
<path class="st0" d="M48.9,53.2V42.4h5.2c2.5,0,2.8,1,2.8,3.3v0.7c0,2.1-0.3,3.1-3,3.1h-3.3v3.7L48.9,53.2z M55.3,45.7
	c0-1.2-0.1-2-1.4-2h-3.2v4.6h3.2c1.4,0,1.5-0.8,1.5-1.8V45.7z"/>
<path class="st0" d="M58.1,53.2V42.4H63c3,0,3.8,1.2,3.8,4.8v1.4c0,3.5-0.8,4.7-3.8,4.7L58.1,53.2z M65.1,47.1
	c0-2.2-0.4-3.4-2.2-3.4h-3V52h3c1.7,0,2.2-1,2.2-3.3V47.1z"/>
<path class="st0" d="M70,48.6v4.6h-1.7V42.4h7.3v1.3H70v3.7h5.2v1.2L70,48.6z"/>
<path class="st1" d="M64.4,51"/>
<path class="st1" d="M-120.9,62.1"/>
<path class="st1" d="M55.4,64.8"/>
<g>
	<path class="st1" d="M105.1,70.7"/>
	<polygon class="st2" points="77.1,73.6 77.1,85.8 24.8,85.8 24.8,21.2 37,21.2 37,26.1 64.9,26.1 64.9,21.2 77.1,21.2 77.1,30.7 	
		"/>
</g>
<path class="st2" d="M67.5,40.2v-8.6H31.9v35.7h35.7V54.9"/>
<rect x="32" y="70.5" class="st2" width="35.7" height="3.7"/>
<rect x="32" y="77.1" class="st2" width="35.7" height="3.7"/>
<line class="st1" x1="37.2" y1="40.8" x2="47.6" y2="40.8"/>
<line class="st1" x1="37.2" y1="43" x2="45.9" y2="43"/>
<circle class="st2" cx="51.8" cy="51.5" r="50"/>
</svg>
