<svg id="Layer_1" data-name="Layer 1" xmlns="http://www.w3.org/2000/svg" viewBox="0 0 16.91 16.57"><defs><style>.cls-1{fill:none;stroke:#fff;stroke-miterlimit:10;stroke-width:0.25px;}.cls-2{fill:#fff;}</style></defs><title>apple-icon-01</title><circle class="cls-1" cx="8.43" cy="8.38" r="8.07"/><g id="AoiAE7.tif"><path class="cls-2" d="M10.66,1.77a2.43,2.43,0,0,1-.53,1.72,2.16,2.16,0,0,1-1.44.86,2.42,2.42,0,0,1-.27,0,3.53,3.53,0,0,1,0-.46,2.51,2.51,0,0,1,2.1-2.1l0,0Z"/><path class="cls-2" d="M12.7,5.59A2.48,2.48,0,0,0,13,10l-.18.47a6.69,6.69,0,0,1-1.26,2,1.47,1.47,0,0,1-1.79.38,4.23,4.23,0,0,0-.68-.24,2,2,0,0,0-1.28.11l-.57.22a1.32,1.32,0,0,1-1.45-.42A6.87,6.87,0,0,1,4.18,9.76a5.85,5.85,0,0,1-.29-2.42A3.14,3.14,0,0,1,5.14,5a2.31,2.31,0,0,1,1.79-.48,6.83,6.83,0,0,1,1,.28l.25.1a1.08,1.08,0,0,0,.81,0c.32-.12.64-.24,1-.34a2.59,2.59,0,0,1,1.69.15A2.39,2.39,0,0,1,12.7,5.59Z"/></g></svg>