<svg id="Layer_1" data-name="Layer 1" xmlns="http://www.w3.org/2000/svg" viewBox="0 0 220 220">
  <defs>
    <style>.cls-1{fill:none;stroke-width:2.5px;}.cls-1,.cls-6{stroke:#001a63;stroke-miterlimit:10;}.cls-2,.cls-4{fill:#001a63;}.cls-2{fill-rule:evenodd;}.cls-3,.cls-6{fill:#dbdbdb;}.cls-5{fill:#fff;}.cls-6{stroke-width:0.1px;}.cls-7{fill:#000576;}</style>
  </defs>
  <path class="cls-1" d="M109.28,217.21c-49.38,0-89.4-40.41-89.4-90.27A90.41,90.41,0,0,1,47.54,61.65L24.38,43.32a108.29,108.29,0,1,0,168.85-1.17"/>
  <path class="cls-1" d="M194.76,44.47s22.47,25.76,21.87,70.39c-.08,5.92-3.19,24-4.44,27.73-4.81,14.52-15.25,43.61-56.65,65.41"/>
  <path id="SVGID" class="cls-1" d="M19.88,127.55"/>
  <path id="SVGID-2" data-name="SVGID" class="cls-1" d="M19.88,127.55c0,49.81,40,90.18,89.4,90.18"/>
  <path class="cls-1" d="M218,110.45A108.42,108.42,0,1,1,109.58,2,108.46,108.46,0,0,1,218,110.45Z"/>
  <path class="cls-1" d="M114.62,218.82C49.12,222-5.3,164.33,1.61,99.06A108.46,108.46,0,0,1,25.33,42.15"/>
  <path class="cls-1" d="M69.45,207.78a89,89,0,0,0,45.16,9.27"/>
  <path class="cls-1" d="M23.8,44.47S1.33,70.23,1.93,114.86c.08,5.92,3.19,24,4.44,27.73C11.18,157.11,21.62,186.2,63,208c0,0-54.47-30.52-56.22-87.08,0,0-1.86-27.51,13-54.06Z"/>
  <path class="cls-1" d="M109.39,217.73c-33.3,3.36-53.49-15-53.49-15C14.14,174,13.79,130.55,13.79,130.55,11.37,95.26,27.07,73.18,27.07,73.18l20.7-11.27"/>
  <line class="cls-1" x1="19.83" y1="66.16" x2="26.9" y2="73.41"/>
  <path class="cls-1" d="M109.28,217.21c49.38,0,89.4-40.41,89.4-90.27A90.44,90.44,0,0,0,171,61.65l23.15-18.33A108.29,108.29,0,1,1,25.33,42.15"/>
  <path class="cls-1" d="M194.76,44.47s22.47,25.76,21.87,70.39c-.08,5.92-3.19,24-4.44,27.73-4.81,14.52-15.25,43.61-56.65,65.41,0,0,54.47-30.52,56.22-87.08,0,0,1.86-27.51-13-54.06Z"/>
  <path class="cls-1" d="M109.17,217.73c33.3,3.36,53.49-15,53.49-15,41.76-28.72,42.11-72.14,42.11-72.14,2.42-35.29-13.28-57.37-13.28-57.37l-20.7-11.27"/>
  <line class="cls-1" x1="198.73" y1="66.16" x2="191.66" y2="73.41"/>
  <path class="cls-2" d="M156.65,168.36V163.1l2.92,2.64-2.76,2.8-.16-.18Zm0-8.13V156.9l1.7,1.31-1.7,2Zm0-8.53V151l.33.23-.33.46Zm0-13.88v-1l.55.8-.55.18Zm0-3.29V131.8l.51.13,1.5,1.81-2,.79Zm0-3.73v-2.7l3.23.59-.54,2.77-2.69-.66Zm0-4v-2.62l4,.46-.34,2.8-3.62-.64Zm0-3.63V120.6l4.27.24-.16,2.82-4.11-.48Zm0-3.84v-2.6l4.2-.22,0,2.86-4.22,0Zm0-3.72V113l4-.5.22,2.86-4.25.27Zm0-3.84v-2.67l3.54-.61.37,2.84-3.91.44Zm0-4v-2.75l2.57-.64.57,2.82-3.14.57Zm0-3.77v-2.7l1.9.77-1.5,1.83-.4.1Zm0-5.29V98l.42.13-.42.61Zm0-14.32v-.24l.13.17-.13.07Zm0-6V75.53l1.44,1.74-1.44,1.14Zm0-6.37V67l2.61,2.69L156.65,72Zm4.87,55.55,5,.88.39-3.13-5-.58-.35,2.83Zm.48-3.88,5.06.59.2-3.15-5.08-.27-.18,2.83Zm6.22.63,4.14.52.2-3.47-4.14-.2-.2,3.15Zm-6.79-16,5-.86.4,3.16-5,.57-.37-2.87Zm.52,4.06,5-.63.24,3.19-5.06.33-.22-2.89Zm6.19-.68,4.11-.57.28,3.54-4.15.22-.24-3.19Zm-6,4.8,5.08-.28,0,3.19-5.08,0,0-2.87Zm6.23-.24,4.15-.28,0,3.52-4.15-.05,0-3.19Zm5.45-.28,4.62-.31,0,4-4.62-.07ZM156.65,67V72l-.81.75-1.46-1.5v-2.2l2.12-2.29.15.15Zm0,8.58v2.88l-1.85,1.44-.42-.51V75.92l1.46-1.36.81,1Zm0,8.66v.24L154.38,86V82.16l.55-.42,1.72,2.45Zm0,13.82v.74l-.86,1.28-1.41.49v-3l.37-.17,1.9.64Zm0,3.33V104l-2.18.54-.09-.31v-2.4l1.88-.67.39.14Zm0,3.72v2.75l-1.39.25-.49-2.54,1.88-.46Zm0,4v2.67l-.66.07-.33-2.56,1-.18Zm0,3.88v2.63l-.31,0-.2-2.58.51-.07Zm0,3.75v2.6h-.37l0-2.58.39,0Zm0,3.86v2.58l-.46-.05.15-2.55.31,0Zm0,3.59v2.62l-.92-.15.32-2.54.6.07Zm0,3.91v2.7l-1.79-.44.49-2.49,1.3.23Zm0,3.7v2.73l-.28.09-2-.71v-2l.19-.66,2.08.51Zm0,5v1l-1.76.57-.51-.24v-2.92l1.54.54.73,1.07Zm0,14.17v.69l-1.48,2.11-.79-.61v-3.71l2.27,1.52Zm0,5.89v3.33l-.53.64-1.74-1.57v-2.84l.68-.81,1.59,1.25Zm0,6.2v5.26l-2.27-2.42V164.4l1.74-1.77.53.47Zm-2.27-.56v-1.43l.75.68-.75.75Zm0-20.82v-2.05l1,1.83-1,.22Zm0-15.24V124l.68.07-.31,2.51-.37-.07Zm0-3.48v-2.49l1,0-.17,2.53-.8-.09Zm0-3.7v-2.51l.9,0v2.54Zm0-3.57v-2.52l.75-.09.2,2.56-1,0Zm0-3.73v-2.57l.29-.05.33,2.55-.62.07Zm0-16.24V94l.8.19-.8,1.55Zm0-21.69v-.92l.48.5Zm0-5v2.2l-.8-.83V70l.8-.88Zm0,4.06v.92l-.8.74V72.33l.8.82Zm0,2.77v3.42l-.8-1v-1.7l.8-.75Zm0,6.24V86l-.8.55V82.78l.8-.62Zm0,11.86v1.74l-.24.48-.56.25V93.84l.8.18Zm0,3.52v3l-.8.29V97.92l.8-.38Zm0,4.33v2.4l-.62-2.18.62-.22Zm0,7.56V112l-.8.09v-2.51l.8-.15Zm0,3.78v2.52l-.8.06v-2.48l.8-.1Zm0,3.58v2.51l-.8,0v-2.43l.8-.06Zm0,3.72V123l-.8-.09v-2.44l.8,0Zm0,3.46v2.51l-.8-.13v-2.47l.8.09Zm0,8v2l-.51-.18.51-1.78Zm0,3.28v2.92l-.8-.36V135l.8.28Zm0,4.44v2.05l-.8.19v-2.73l.71.31.09.18Zm0,9.82v3.71l-.8-.6V149l.8.53Zm0,7v2.84l-.8-.74v-1.15l.8-.95Zm0,4.65v1.43l-.8.8v-3l.8.73Zm0,3.29v1.54l-.75-.78.75-.76Zm-.8-8.78v-1.08l.55.42-.55.66Zm0-10.8v-.94l.42.24-.42.7Zm0-13.69v-.08h0l0,.08Zm0-1v-2.55l.78.15-.47,2.47-.31-.07Zm0-21.8v-2.58l.2-.06.49,2.53-.69.11Zm0-16.62v-.55l.24.4-.24.15Zm0-10.89v-.63l.33.37Zm0-10.84v.49l-.24-.23.24-.26Zm0,2.36v2.48l-1.79,1.66-.4-.4V72.2l1-1.08,1.19,1.21Zm0,4.34v1.7l-.81-1,.81-.73Zm0,3.51-1.72-2.08-.47.42v4l2.19-1.75v-.63Zm0,2.6v3.74l-1,.69-1.16-1.64v-1.1l2.19-1.69Zm0,8.37v.55l-2.19,1.24v-3.2l1-.64,1.21,2.05Zm0,2.69v2.65l-2,.88-.21-.44V94.54l1.49-.87.7.17Zm0,4.08v2.89l-.37.13-.93-2.42,1.3-.6Zm0,7.82v2.58l-2.19.4v-2.45l2.19-.53Zm0,3.84v2.51l-2.19.24V110l2.19-.39Zm0,3.73v2.48l-2.19.13v-2.33l2.19-.28Zm0,3.54v2.43l-2.19,0V117l2.19-.11Zm0,3.62v2.44l-2.19-.26v-2.3l2.19.12Zm0,3.41v2.47l-2.19-.4v-2.33l2.19.26Zm0,3.69v2.55l-2.19-.53v-2.42l2.19.4Zm0,3.48v.08l-.68,2.34-1.51-.51v-2.51l2.19.6Zm0,3.9v2.84l-1.17-.55.93-2.38.24.09Zm0,4.23v2.73l-.53.11-1.66-.94v-2l.36-.71,1.83.8Zm0,4.7v.94l-1,1.72-1.16-.75v-3.13l2.19,1.22Zm0,5.08v3.64l-2.19-1.67v-.62l1.37-1.9.82.55Zm0,5.58v1.08l-1.47,1.75-.72-.64V152.8l2.19,1.74Zm0,2.87v1.15l-.55-.49.55-.66Zm0,3v3l-.9.92-1.29-1.38v-3.24l.66-.65,1.53,1.39Zm-2.19-12.25v-.6l.29.2-.29.4Zm0-11.27v-2.68l1,.37-.91,2.36-.09,0Zm0-31.47v-2.56l1.4-.48.71,2.45-2.11.59Zm0-3.81V99l.87,2.27-.87.33Zm0-13.62v-.22l.1.15Zm0-15.76v3.87l-.66-.68V72.92l.66-.72Zm0,6.32v4l-.66.54v-4l.66-.6Zm0,6v1.1l-.5-.72.5-.38Zm0,3.27V88l-.66.44V86.79l.66.95Zm0,2v3.2l-.66.37V90.16l.66-.42Zm0,4.8v2.39l-.66-1.35V94.9l.66-.36Zm0,4.44v2.6l-.66.24V99.15l.62-.28,0,.11Zm0,3.85v2.56l-.66.18v-2.52l.66-.22Zm0,3.44v2.45l-.66.13v-2.42l.66-.16Zm0,3.7v2.36l-.33,0-.3-2.28.63-.11Zm0,3.62v2.33h0l-.19-2.31.19,0Zm0,3.37v2.3h-.06l0-2.3Zm0,3.39v2.3l-.15,0,.15-2.28Zm0,3.27V126l-.55-.09.27-2.27.28,0Zm0,3.55v2.42l-.66-.17v-2.36l.66.11Zm0,3.28V133l-.66-.22v-2.47l.66.18Zm0,3.73v2.68l-.66-.28v-2.64l.66.24Zm0,4.91v2l-.66-.36v-.28l.66-1.35Zm0,3.57v3.13l-.66-.42v-3.1l.66.39Zm0,4.87v.6l-.66.93v-2l.66.44Zm0,2.78v.62l-.3-.22.3-.4Zm0,2.49v3.93l-.66-.59v-3.86l.66.52Zm0,6.84v3.24l-.66-.71v-1.86l.66-.67Zm-.66,6v-.25l.12.14-.12.11Zm0-6.94v-.87l.45.41-.45.46Zm0-20.48v-.25l.11,0-.11.22Zm0-60.77V77l.2.19-.2.19Zm0-7.25v-.26l.12.11Zm0-.26v.26l-.22.24v-.7l.22.2Zm0,3v2.47l-.22-.24v-2l.22-.25Zm0,4.12v.38l-.22.22V76.8l.22.24Zm0,2.08v4l-.22.16V79.32l.22-.2Zm0,7.67V88.4l-.22.15V86.48l.22.31Zm0,3.37v3.15l-.22.13V90.31l.22-.15Zm0,4.74v.68l-.22-.46V95l.22-.13Zm0,4.25v2.67l-.22.09V99.24l.22-.09Zm0,3.9v2.52l-.22.06v-2.51l.22-.07Zm0,3.38v2.42l-.22,0v-2.4l.22-.06Zm0,20.63v2.36l-.22,0V127l.22,0Zm0,3.21v2.47l-.22-.08v-2.45l.22.06Zm0,3.67v2.64l-.22-.11v-2.62l.22.09Zm0,4v.25l-.22.46v-.83l.22.12Zm0,2.5v.28l-.11-.06.11-.22Zm0,1.83v3.1l-.22-.15v-3.07l.22.12Zm0,4.82v2l-.22.33v-2.45l.22.15Zm0,5.19v3.86l-.22-.2v-3.83l.22.17Zm0,5.52v.87l-.22.23v-1.3l.22.2Zm0,2.51v1.86l-.22-.24v-1.39l.22-.23Zm0,5.05v.25l-.22.19v-.7l.22.26Zm-.22-67.49v-.5l.18.4Zm0-28.16v.7l-1.79,2V68.14l1.79,1.57Zm0,3.46v2l-.95-1,.95-1Zm0,3.63L148.72,75V79.3l1.79-1.66V76.8Zm0,2.52v3.94l-.59.48-1.2-1.45V81l1.79-1.63Zm0,7.16v2.07l-1.79,1.23V86.43l1.13-.88.66.93Zm0,3.83v3.13l-.7.4L148.72,92v-.47l1.79-1.17Zm0,4.72v.09l0-.07,0,0Zm0,2.34v.5l-1.79.84V95.94l.86-.47.93,1.9Zm0,1.87v2.67l-1.79.66V100l1.79-.79Zm0,3.88v2.51l-.84.22-.64-2.22,1.48-.51Zm0,3.37v2.4h-.13l-.46-2.27.59-.14Zm0,20.52v2.36l-.5-.13.44-2.23Zm0,3.2v2.45l-1.37-.45.62-2.2.75.2Zm0,3.64v2.62l-1.79-.79v-2.49l1.79.66Zm0,4v.83l-.79,1.59-1-.55V137l1.79.84Zm0,4.33v3.07l-1.79-1.15V144l1.26-2.12.53.29Zm0,4.79v2.45l-.46.63-1.33-1v-3.28l1.79,1.21Zm0,5.17v3.83l-1.79-1.59v-.86l1.4-1.68.39.3Zm0,5.49v1.3L149,160.47l-.26-.28v-4.25l1.79,1.66Zm0,2.94v1.39l-.68-.71.68-.68Zm0,4.56v.7l-1.79,1.59v-4.31l1.79,2Zm-1.79-13.55v-.82l.4.33-.4.49Zm0-9.52.38-.64-.38-.22V142Zm0-12.41v0h0v0Zm0-.49v-2.56l.65.13-.47,2.47-.18,0Zm0-3.44V123.2l1.29.15-.3,2.51-1-.17Zm0-3.15v-2.45l1.55.09-.15,2.52-1.4-.16Zm0-3.18V116.9l1.48-.07v2.55l-1.49,0Zm0-3.17v-2.47l1.37-.19.18,2.57-1.55.09Zm0-3.44v-2.53l.91-.16.33,2.54-1.24.15Zm0-3.42v-2.61l.09,0,.49,2.53-.58.11Zm0-14.9v-.52l.21.39-.21.13Zm0-9.78v-.4l.2.25Zm0-16.51v4.28l-.63.7-1.4-1.25V69.81l1.57-2.07.46.4Zm0,6.83V79.3l-1.52,1.41-.51-.51V77.07l2-2.12,0,0Zm0,6v1.34l-.64-.77.64-.57Zm0,3.3v.4l-2,1.61v-3.6l.4-.35,1.63,1.94Zm0,2.18v3.35l-1,.69-1-1.39V88l2-1.55Zm0,5V92l-.22-.34.22-.13Zm0,2.43v.52l-2,1.15V92.71l.95-.61,1.08,1.81Zm0,2v2.77l-1.63.75-.4-.83V97l2-1.1Zm0,4.09v2.54l-.19.06-.82-2.16,1-.44Zm0,6.69v2.61l-2,.34v-2.45l2-.5Zm0,3.5v2.53l-2,.22v-2.4l2-.35Zm0,3.5v2.47l-2,.12V114l2-.26Zm0,3.18v2.46l-2,0V117l2-.11Zm0,3.19v2.45l-2-.24V120l2,.09Zm0,3.11v2.49l-2-.37V123l2,.22Zm0,3.37v2.56l-2-.49V126.2l2,.37Zm0,3-2-.54v2.53L148,132l.7-2.4v0Zm0,3.59v2.49l-.9-.38.82-2.13.08,0Zm0,3.79v2.71l-2-1.1v-1.22l.53-1.08,1.5.69Zm0,4.19V142l-.91,1.53-1.12-.72V140l2,1.13Zm0,2.81v.09l0,0,0-.07Zm0,1.75V149l-2-1.54v-.68l1.17-1.63.86.57Zm0,5v.82l-1.41,1.67-.62-.55v-3.53l2,1.59Zm0,2.76v.86l-.42-.36.42-.5Zm0,2.45v4.25l-2-2.09v-2.6l.75-.72,1.28,1.16Zm0,7.14v4.31l-.46.4-1.57-2.07v-2.07l1.4-1.24.63.67Zm-2-1v-1.29l.64.74-.64.55Zm0-17.05v-.66l.33.23-.33.43Zm0-10v-2.67l.95.35-.91,2.34,0,0Zm0-28.24,1.94-.53-.72-2.45-1.22.4v2.58Zm0-3.35v-2.49l.84,2.18-.84.31Zm0-12.34V90.8l.15.2-.15.09Zm0-16.4v-1.3l.64.57Zm0-4.88v2.06l-.46-.4V70.41l.46-.6Zm0,3.58v1.3l-.46.52V73l.46.4Zm0,3.68V80.2l-.46-.47V77.55l.46-.48Zm0,5.59v3.6l-.46.37V83.08l.46-.42Zm0,5.32v1.1l-.46-.66v-.09l.46-.35Zm0,2.82v.29l-.46.31V90.16l.46.64Zm0,1.91v2.87l-.46.25V93l.46-.31Zm0,4.33v1.59l-.46-.93v-.4l.46-.26Zm0,3.9v2.49l-.46.16v-2.7l.39-.17.07.22Zm0,3.26v2.58l-.46.13v-2.55l.46-.16Zm0,3v2.45l-.46.1v-2.44l.46-.11Zm0,3.35V113l-.46,0v-2.36l.46-.09Zm0,3.41v2.33l-.31,0-.15-1.72V114l.46,0Zm0,3v2.33h-.38l0-2.31.4,0Zm0,3v2.3l-.46,0V122l.13-2,.33,0Zm0,3v2.34l-.46-.07v-2.32l.46,0Zm0,3.22v2.44l-.46-.11v-2.4l.46.07Zm0,2.86v2.53l-.46-.17v-2.49l.46.13Zm0,3.29V135l-.46-.2v-2.63l.46.16Zm0,5v1.22l-.46-.23v-.08l.46-.91Zm0,2.67v2.8l-.46-.29v-2.77l.46.26Zm0,4.37v.66l-.46.65v-1.6l.46.29Zm0,2.38v.68l-.31-.24.31-.44Zm0,2.35v3.53l-.46-.4v-3.48l.46.35Zm0,6.36v2.6l-.46-.47V156l.46-.48Zm0,5.33v1.29l-.46.42v-2.23l.46.52Zm0,2.82v2.07l-.46-.62v-1l.46-.41Zm-.46-9.46v-.47l.26.22-.26.25Zm0-18.42v-.07l0,0,0,.05Zm0-54.19v0l0,0Zm0-11.17v1.06l-.12-.11v-.78l.12-.17Zm0,2.58v2.22l-.12.14V72.88l.12.11Zm0,4.56v2.18l-.12-.13V77.7l.12-.15Zm0,4v0l-.12.12v-.29l.12.13Zm0,1.54v3.55l-.12.11V83.19l.12-.11Zm0,5.25v.09l0,0,0,0Zm0,1.83V91.4l-.12.1V90l.12.18Zm0,2.86v2.81l-.12.08V93.09l.12-.07Zm0,4.28v.4l-.12-.25v-.08l.12-.07Zm0,3.59v2.7l-.12.06V101l.12-.07Zm0,3.47v2.55l-.12,0V104.4l.12,0Zm0,3v2.44h-.12v-2.41l.12,0Zm0,3.33V113l-.12,0v-2.36l.12,0Zm0,3.37v.58l0-.58Zm0,8v.26h0V122Zm0,.94v2.32l-.12,0v-2.3l.11,0Zm0,3.2v2.4l-.12,0v-2.38l.12,0Zm0,2.8v2.49l-.12,0v-2.49l.12,0Zm0,3.26v2.63l-.12,0v-2.64l.12.06Zm0,3.51v.07l-.12.26v-.38l.12,0Zm0,2.58v0Zm0,1.5v2.77l-.12-.08v-2.76l.12.07Zm0,4.34v1.6l-.12.18V144l.12.09Zm0,4.67v3.48l-.12-.13v-3.46l.12.11Zm0,4.93v.47l-.12.13v-.73l.12.13Zm0,2.26v1.65l-.12-.13v-1.39l.12-.13Zm0,4.33v2.23l-.12.11v-2.49l.12.15Zm0,3.75v1l-.12-.17v-.76l.12-.11Zm-.12-64V100l0,.07Zm0-29.49v.78l-.15-.14v-.45l.15-.19Zm0,2.3v2.47l-.15.18V72.75l.15.13Zm0,4.82v1.9l-.15-.15V77.84l.15-.14Zm0,3.71v.29l-.15.15v-.6l.15.16Zm0,1.78v3.55l-.15.11V83.32l.15-.13Zm0,6.79V91.5l-.15.11V89.76l.15.22Zm0,3.11v2.82L146,96V93.2l.15-.11Zm0,4.28v.08l0-.06,0,0Zm0,2.6v.1l-.15.05v-.44l.15.29Zm0,1v2.69l-.15.06V101l.15-.06Zm0,3.44V107l-.15,0v-2.52l.15-.06Zm0,3v2.41l-.15,0V107.4l.15,0Zm0,3.31V113h-.05l-.1-.88V110.7l.15,0Zm0,12.32v2.21l-.15,0v-1l.15-1.21Zm0,3.11v2.38l-.15,0v-2.38l.15,0Zm0,2.78v2.49l-.15,0v-2.47l.15,0Zm0,3.24v2.64l-.15-.06v-2.63l.15,0Zm0,3.52V136l-.15.29v-.75l.15.08Zm0,4.06v2.76l-.15-.11v-2.72l.15.07Zm0,4.32v1.87l-.15.21v-2.19l.15.11Zm0,4.65v3.46L146,152v-3.44l.15.11Zm0,4.91v.73l-.15.16v-1l.15.13Zm0,2.52v1.39l-.15-.16v-1.08l.15-.15Zm0,4v2.49l-.15.12V160l.15.17Zm0,4v.76l-.15-.2v-.44ZM146,70.77v.45l-.2-.17.2-.28Zm0,2v2.78l-1.37,1.58v-4.7l.4-.52,1,.86Zm0,5.09v1.61l-.77-.78.77-.83Zm0,3.41v.6l-1.37,1.28V79.84L146,81.25Zm0,2.07v3.53l-.64.53-.73-.9V84.56L146,83.32Zm0,6.44v1.85l-1.37.93v-3l.78-.6.59.84Zm0,3.44V96l-.48.28-.89-1.52v-.65L146,93.2Zm0,6.48v.44l-1.37.66V98l.42-.24,1,1.94Zm0,1.34v2.69l-1.37.49v-2.58L146,101Zm0,3.44V107l-1.12.3-.25-.92v-1.43l1.37-.47Zm0,2.94v2.42l-.51.09-.46-2.29,1-.22Zm0,3.3v1.46l-.18-1.43.18,0Zm0,13.51v1h-.11l.11-1Zm0,1.86v2.38l-.88-.22.42-2.23.46.07Zm0,2.79v2.47l-1.37-.46v-1.1l.35-1.19,1,.28Zm0,3.22v2.63l-1.37-.6v-2.54l1.37.51Zm0,3.49v.75l-.82,1.67-.55-.31v-2.75l1.37.64Zm0,4.07v2.72l-1.37-.88v-.29l1-1.75.33.2Zm0,4.28v2.19l-.4.57-1-.73V143l1.37.91Zm0,4.65V152l-1.37-1.23V149.3l.91-1.09.46.36Zm0,4.89v1l-1.37,1.39v-3.69l1.37,1.28Zm0,2.8v1.08l-.53-.55.53-.53Zm0,3.73v2.78l-1,.86-.4-.53v-4.68L146,160Zm0,4.3v.44l-.2-.25.2-.19Zm-1.37-16.53v-.25l.11.11-.11.14Zm0-8.74v-.3l.11.07Zm0-66.61v4.7l-.15.16V72.61l.15-.2Zm0,7.43v3.29l-.15.13V79.69l.15.15Zm0,4.72v1.92l-.15-.17V84.69l.15-.13Zm0,5v3l-.15.09v-3l.15-.11Zm0,4.57v.65l-.15-.24v-.31l.15-.1Zm0,3.89v2.8l-.15.07v-2.8l.15-.07Zm0,3.64v2.58l-.15,0v-2.56l.15-.07Zm0,3.31v1.43l-.15-.49V105l.15,0Zm0,24.84v1.1l-.15-.05v-.54l.15-.51Zm0,1.8v2.54l-.15-.07v-2.51l.15,0Zm0,3.36v2.75l-.15-.09v-2.71l.15.05Zm0,3.79v.3l-.15.23v-.6l.15.07Zm0,2.47v.29l-.13-.09.13-.2Zm0,1.82V146l-.15-.11v-2.92l.15.09Zm0,4.5v.25l-.15.17v-.53l.15.11Zm0,1.79v1.48l-.15-.13v-1.16l.15-.19Zm0,2.88v3.69l-.07.07-.08-.07v-3.82l.15.13Zm0,6.24v4.68l-.15-.18v-4.67l.15.17ZM144.44,97v-.3l.13.22-.13.08Zm0-8.95v-.17l.08.09Zm0-15.43v4.66l-.16.17V72.79l.16-.18Zm0,7.08v3.57l-.16.14V79.53l.16.16Zm0,5v1.62l-.16-.17V84.83l.16-.14Zm0,3.18V88l-.16.11v-.46l.16.18Zm0,1.76v3l-.16.11v-3l.16-.11Zm0,4.56v.31l-.13-.22.13-.09Zm0,2.5V97l-.16.07v-.62l.16.25Zm0,1.36v2.8l-.16.05V98.14l.16-.09Zm0,3.64v2.56l-.16.06v-2.54l.16-.08Zm0,3.28v.9l-.16-.54V105l.16,0Zm0,25.31v.54l-.15,0,.15-.5Zm0,1.25V134l-.16-.06v-2.51l.16.06Zm0,3.35v2.71l-.16-.08V134.8l.16.08Zm0,3.77v.6l-.16.26v-.95l.16.09Zm0,4.27v2.92l-.16-.11v-2.92l.16.11Zm0,4.48v.53l-.16.18v-.82l.16.11Zm0,2.09v1.16l-.16-.12v-.88l.16-.16Zm0,2.56v3.82l-.16-.16V151.9l.16.15Zm0,6.2v4.67l-.16-.2v-4.65Zm-.16-85.46v4.65l-.28.33-1.38-1.25V75l1.66-2.16Zm0,6.74V83.4l-1.37,1.3-.29-.29V81.27l1.66-1.76v0Zm0,5.3v1.31l-.61-.76.61-.55Zm0,2.86L142.89,86l-.27.23v3.24l1.66-1.33v-.46Zm0,2v3l-.73.49-.93-1.33V91l1.66-1.3Zm0,6.7v.62l-1.66,1V95.14l.65-.44,1,1.74Zm0,1.7v2.76l-1.66.81V99.05l1.66-.91Zm0,3.63v2.54l-.42.17-.85-2.17,1.27-.54Zm0,3.25v.31l-.07-.27.07,0Zm0,26.45V134l-1.15-.51.82-2.13.33.13Zm0,3.33v2.71l-1.66-.91v-2.36l.09-.19,1.57.75Zm0,3.76v.95l-.86,1.47-.8-.54v-2.82l1.66.94Zm0,4.25v2.92l-1.66-1.28V144l1.07-1.54.59.39Zm0,4.48v.82l-1.19,1.43-.47-.42V146l1.66,1.32Zm0,2.36v.88l-.4-.37.4-.51Zm0,2.25v3.81L142.62,154v-2.66l.49-.49,1.17,1.08Zm0,6.17v4.65l-1.66-2.16V159l1.38-1.24.28.31Zm-1.66,7.47,1.51-1.21-1.51-1.9v3.11Zm0-8.2V156.2l.54.64-.54.5Zm0-15.31v-.47l.21.15-.21.32Zm0-48v-.16l.07.11-.07,0Zm0-14.7V78.19l.54.5-.54.61Zm0-6.2,1.51-1.92L142.62,70Zm0-3.13V73.1l-.79,1V69.35l.79.62Zm0,5v1.57l-.74-.64.74-.93Zm0,3.24V79.3l-.79.9V77.51l.79.68Zm0,3.08v3.14l-.79-.8V82.09l.79-.82Zm0,5v3.24l-.79.62V87l.79-.72Zm0,4.8v.86l-.41-.55.41-.31Zm0,2.8V94l-.79.54v-1.8l.79,1.1Zm0,1.3V98l-.79.46V95.65l.79-.51Zm0,3.91v2.66h0l-.77-1.54V99.5l.79-.45Zm0,35.19v2.36l-.79-.42v-.37l.79-1.57Zm0,3.38v2.82l-.79-.49v-2.76l.79.43Zm0,3.94V142l-.79,1.09V141l.79.53Zm0,2.4v.49l-.24-.18.24-.31Zm0,2v3.15l-.79-.68v-3.09l.79.62Zm0,5.34V154l-.79-.81v-1l.79-.8Zm0,4.89v1.14l-.79.67v-2.69l.79.88Zm0,2.8v1.56l-.74-.93.74-.63Zm0,3.43v3.11l-.79.62v-4.7l.79,1Zm-.79-11.74v-1l.53.47-.53.53Zm0-65V85l.33.32Zm0-16.31v4.72L141,75.15l-.53-.44V71l1.25-1.75.14.11Zm0,8.16V80.2l-1.39,1.59V77.62l.62-.81.77.7Zm0,4.58v1.52l-.73-.76.73-.76Zm0,3-1.39-1.43V87l1.39-1.3V85Zm0,1.92V90.1l-.42.35-1-1.17V88.2L141.83,87Zm0,5.78v1.8l-1.39.93v-3l.77-.59.62.88Zm0,2.91v2.82l-.68.37-.71-1.21V96.55l1.39-.9Zm0,3.85v.67l-.26-.55.26-.12Zm0,36.31v.37l-.14-.07.14-.3Zm0,1.38V140l-1.39-.9v-.77l.84-1.41.55.32Zm0,3.84v2.09l-.45.64-.94-.7v-2.95l1.39.92Zm0,4.32v3.09l-1.39-1.24v-.7l1.13-1.36.26.21Zm0,4.34-1.39-1.28v3.42l.15.14,1.24-1.28v-1Zm0,2.42v1l-.51-.53.51-.52Zm0,3.21V158l-.77.68-.62-.79v-4.17l1.39,1.59Zm0,6.14v4.7l-.14.13-1.25-1.77V160.8l.53-.42.86,1.08Zm-1.39-16.7v-.64l.33.26-.33.38Zm0-53.39V91l.17.2Zm0-20.38v3.72l-1-.77V72.39l1-1.4Zm0,6.63v4.17l-.29.32-.68-.59V78.87l1-1.25Zm0,6V87l-1,.91V84.49l.9-1,.07.08Zm0,4.59v1.08l-.51-.6.51-.48Zm0,2.84v.33l-1,.77V89.87l1,1.17Zm0,1.41v3l-1,.66V93.2l1-.75Zm0,4.1v1.08l-.45-.77.45-.31Zm0,41.73v.77l-.33-.22.33-.55Zm0,1.83v2.95l-1-.75v-2.65l.1-.13.87.58Zm0,4v.64l-1,1.16v-2.57l1,.77Zm0,2.38v.7l-.33-.3.33-.4Zm0,1.91v3.42l-1-1v-3.29l1,.88Zm0,5.32v4.17l-1-1.24V154l.68-.61.29.33Zm0,7.07v3.72l-1-1.38v-1.55l1-.79Zm-1-.83v-1.44l.71.88-.71.56Zm0-7.28v0Zm0-69.84h0Zm0-5.85V75.53l.71.57Zm-1.22,70.07.44-.42-.44-.41v.83Zm1.22-74.68v1.55l-.71-.56.71-1Zm0,3.14V77l-1.22,1.52v-4l1.22,1Zm0,3.34v2.65l-1.22-1.08,1.22-1.57Zm0,4h0l-1.22,1.38V81.76l1.22,1.08Zm0,1.65v3.38l-.23.22-1-1v-1.3l1.22-1.28Zm0,5.38v2.27l-1.22,1V89.92l.73-.66.49.61Zm0,3.33v2.93l0,0-1.18-1.67v-.33l1.22-1Zm0,46.46v2.65l-1.22-.92h0l1.22-1.72Zm0,3.69v2.57l-.32.4-.9-.81V142.4l1.22.95Zm0,4.18v3.29l-1.22-1.28v-.88l1.17-1.19.05.06Zm0,5.14v0l-1.22,1.08v-2.49l1.22,1.39Zm0,1.34v2.65l-1.22-1.57,1.22-1.08Zm0,4.52V160l-1.22,1v-4l1.22,1.54Zm0,3.06v1.55l-.71-1,.71-.55Zm-1.22-72.42v-.51l.26.27Zm-2,58.56.7.71,1.33-1.37v-.83l-2-1.86v3.35Zm2-73.17v4l-.92,1.17-1.11-.9V76.87L138,74.36l.26.2Zm0,7.2v2.47l-1.37,1.57-.66-.58V83l1.37-1.78.66.59Zm0,4-.63.66.63.64v-1.3Zm0,2.89v.51l-2,1.88V87.61l.51-.51,1.52,1.56Zm0,1.26-2,1.83v.35l1.32,1.57.71-.56V89.92Zm0,4.23v.33l-.15-.22.15-.11Zm0,47.23h0Zm0,1v3.11l-2-1.81v0l1.46-1.74.57.46Zm0,6.26v.88l-.43-.44.43-.44Zm0,2.62v2.49l-.66.58-1.37-1.77v-2.29l.66-.57,1.37,1.56Zm0,5.71v4l-.26.2-1.77-2.51v-1.94l1.11-.87.92,1.15Zm-2,5.2.62-.42-.62-.9v1.32Zm0-6.74v-1l.48.61-.48.36Zm0-6.62v0h0l0,0Zm0-62.11v0h0l0,0Zm0-5.69v-1l.48.38-.48.59Zm0-6.39.62-.88-.62-.44Zm-.13,73,.13.13v-3.35l-.13-.11v3.33Zm.13-74.28v1.32l-.13.18V73.23l.13.09Zm0,3.55v1.92l-.13-.09V77l.13-.17Zm0,3.19v1l-.13.16V80l.13.09Zm0,2.89v2.27l-.13-.11v-2l.13-.16Zm0,3.75v0l-.13.15v-.28l.13.11Zm0,.91v3.44l-.13.12V87.76l.13-.15Zm0,4.14v.35l-.13-.15v-.09l.13-.11Zm0,51.93v0h0v0Zm0,5.13v0l-.13.11v-.28l.13.15Zm0,1.48v2.29l-.13-.17v-2l.13-.11Zm0,4.19v1l-.13.11v-1.22l.13.14Zm0,2.23v1.94l-.13-.17v-1.66l.13-.11Zm0,4.16v1.32l-.13.09v-1.59Zm-2-15.27,1.89,2v-3.33l-.29-.28-1.6,1.61Zm1.89-72.37v1.59l-1.86,2.69-1.31-.92V74.86l1.62-2.69,1.55,1.06Zm0,3.81-.73,1.06.73.6V77Zm0,2.93v1.22l-1.86,2.34-1.31-1.06v-1l1.82-2.62,1.35,1.1Zm0,3.14-.91,1.19.91.81v-2Zm0,3.48v.28l-2.43,2.76-.74-.66v-2l1.44-1.87,1.73,1.54Zm0,1.17L134,90l1.61,1.65.45-.44V87.76Zm0,4.1V92l0,0,0,0Zm0,56.8v.28l-1.73,1.53-1.44-1.86v-2.05l.74-.68,2.43,2.78Zm0,1.74-.91.82.91,1.19v-2Zm0,3.94v1.22l-1.35,1.08-1.82-2.6v-1l1.31-1.07,1.86,2.35Zm0,2.48v1.66l-.73-1.07.73-.59Zm0,3.87L134.23,158l-1.31.93v1.74l1.62,2.69,1.55-1.08v-1.59Zm-3.17-3,.72-.51-.72-1.08v1.59Zm0-6.09.7-.57-.7-.92v1.49Zm0-66.25.7-.91-.7-.59v1.5Zm0-6,.72-1.08-.72-.51V79.4Zm0-6.56.7-1.26-.7-.36v1.62Zm0-8.47V62.32a8.6,8.6,0,0,0,0-6.13v-2C134.72,56.81,135.11,60.47,132.92,64.37Zm0-10.18v2c-.15-.33-.32-.66-.5-1V53.55l.5.64Zm0,8.13v2.05c-.17.26-.32.53-.5.79V63.45c.18-.38.35-.75.5-1.13Zm0,8.9v1.62l-.5.85V71l.5.24Zm0,3.64v1.73l-.5-.32v-.63l.5-.78Zm0,3V79.4l-.5.69V77.46l.5.35Zm0,3.68v1l-.46-.36.46-.62Zm0,2.39v1.5l-.5.61V83.5l.5.38Zm0,3v2l-.5-.44v-1l.5-.62Zm0,59.64v2.05l-.5-.63v-1l.5-.42Zm0,3.58v1.49l-.5.38v-2.47l.5.6Zm0,2.92v1l-.46-.64.46-.34Zm0,3.07v1.59l-.5.33v-2.62l.5.7Zm0,2.8v1.74l-.5-.79v-.62l.5-.33Zm-.5,5.57v-2.77l.27.44-.22,2.35Zm0-110.95v1.67a7.75,7.75,0,0,0-2.23-2.44V51.65a8.91,8.91,0,0,1,2.23,1.9Zm0,9.9v1.71a17.89,17.89,0,0,1-2.23,2.74V66.75a15.47,15.47,0,0,0,2.23-3.3Zm0,7.53v2.71l-1.09,1.94L130.19,75v-2.9l.84-1.82,1.39.72Zm0,4.66v.63l-.26-.19.26-.44Zm0,1.82v2.63l-1,1.49-1.2-.85V79.19l1.41-2.3.82.57Zm0,6V86l-1.22,1.54-1-.81V85l1.48-2.13.75.61Zm0,4v1l-.45-.4.45-.59Zm0,59.44v1l-.45-.58.45-.42Zm0,2.56V152l-.75.61-1.48-2.11v-1.7l1-.81,1.22,1.54Zm0,5.89v2.62l-.82.59-1.41-2.31V154.8l1.2-.85,1,1.48Zm0,3.83v.62l-.26-.43.26-.19Zm0,2.47v2.77l-2.15-1-.08-.14v-2.88l1.14-.62,1.09,1.83Zm-2.23-2.34.6-.35-.6-1v1.39Zm0-5.95.66-.46-.66-.95v1.41Zm0-69.94.66-1-.66-.45V83.5Zm0-6,.6-1.06-.6-.35v1.41Zm0-14.85V60.6a1.45,1.45,0,0,1,.29,0,1.09,1.09,0,1,1,0,2.18.75.75,0,0,1-.29-.06Zm0-3.78V57.25a1.16,1.16,0,0,1,.8-.33,1.15,1.15,0,1,1-.8,2Zm0-3.7a.83.83,0,0,0,.09-.44.86.86,0,0,0-.09-.46Zm0-3.55v1.13a8.85,8.85,0,0,0-1.06-.65v-1a8.18,8.18,0,0,1,1.06.55Zm0,2.65v.9a1.12,1.12,0,0,1-1,.69h0V53.61h0a1.12,1.12,0,0,1,1,.69Zm0,3V58.9a1.18,1.18,0,0,1-.35-.83,1.09,1.09,0,0,1,.35-.82Zm0,3.35v2.08a1.08,1.08,0,0,1,0-2.08Zm0,6.15V67.9a13,13,0,0,1-1.06,1V67.87c.39-.37.73-.76,1.06-1.12Zm0,5.33V75l-1.06-.6v0l1.06-2.28Zm0,4v1.41l-1.06,1.85V75.52l1.06.6Zm0,3.07-.66,1.09.66.45V79.19Zm0,2.9V83.5L129.13,85V81.36l1.06.73Zm0,2.93-.77,1.08.77.62V85Zm0,63.79v1.7l-.77-1.1.77-.6Zm0,3.22-1.06-1.54v3.68l1.06-.73V152Zm0,2.77v1.53l-.66-1.08.66-.45Zm0,3.2-1.06-1.86V160l1.06-.6V158Zm0,2.52v2.88l-1.06-2.24h0l1.06-.63Zm-1.06,3.55v0Zm0-92.69V70.13l.75-.38-.75,1.63Zm0-5.38V63.93a1.12,1.12,0,0,1,0,2.07Zm0-7.1v-.75A4.68,4.68,0,0,1,129.13,58.9Zm0-7.8v1a9.44,9.44,0,0,0-1.22-.54v-1a10.53,10.53,0,0,1,1.22.46Zm0,2.51v2.28a1.14,1.14,0,0,1,0-2.28Zm0,4.54v.75a9.35,9.35,0,0,1-1.22,3.44V60.27a3.15,3.15,0,0,0,0-2.78V56.13a2.62,2.62,0,0,1,1.22,2Zm0,5.78V66a1.16,1.16,0,0,1-.42.07,1.08,1.08,0,0,1-.8-.35V64.21a1.1,1.1,0,0,1,.8-.37,1.17,1.17,0,0,1,.42.09Zm0,3.94v1.06c-.38.35-.8.69-1.22,1V69a16.44,16.44,0,0,0,1.22-1.11Zm0,2.26v1.25L128,73.94l0,0V70.77l1.22-.64Zm0,4.23v0h0l0,0Zm0,1.16v3.86l-.31.53-.91-.53V76.71l.71-1.47.51.28Zm0,5.84V85l-.49.71-.73-.51V82.6l.89-1.48.33.24Zm0,69.13v3.68l-.33.24-.89-1.48v-2.65l.73-.5.49.71Zm0,5.65V160l-.51.3-.71-1.47v-2.69l.91-.51.31.52Zm0,5h0Zm0,2.87v0l-.38,2.2-.84-.44V161.6l0,0,1.17,2.45Zm-1.22-9.15.45-.28-.45-.82v1.1Zm0-73.13.45-.8-.45-.28Zm0-31.1v1l-.35-.11v-.92l.35.08Zm0,5.49v1.36a2,2,0,0,0-.35-.37V56l.35.18Zm0,4.14v2.07l-.35.57V61.07a5,5,0,0,0,.35-.8Zm0,3.94v1.51a1.07,1.07,0,0,1-.32-.76,1,1,0,0,1,.32-.75Zm0,4.77v1a2.27,2.27,0,0,1-.35.26v-1c.13-.09.24-.19.35-.28Zm0,1.79v3.15l-.35-.16V71l.35-.19Zm0,5.94v2.67l-.35-.19V77.37l.35-.66Zm0,4v1.08l-.35.59V80.48l.35.18Zm0,1.94v2.64l-.35-.22V83.13l.35-.53Zm0,67.68v2.65l-.35-.55v-1.87l.35-.23Zm0,3.49v1.1l-.35.18V153.2l.35.57Zm0,2.36v2.69l-.35-.66v-1.83l.35-.2Zm0,5.47v4.23l-.35-.16v-3.92Zm-.35-111v.92l-.37-.11v-.89a2,2,0,0,1,.37.08Zm0,5.39v1.17a3.47,3.47,0,0,0-.37-.26V55.8a2,2,0,0,1,.37.15Zm0,5.12v1.84c-.11.2-.24.4-.37.6V61.83c.13-.26.26-.52.37-.76Zm0,8.19v1a2.63,2.63,0,0,1-.37.29v-1a2.76,2.76,0,0,0,.37-.31Zm0,1.7v2.8l-.37-.16V71.16l.37-.2Zm0,6.41v1.82l-.37-.21v-.84l.37-.77Zm0,3.11v1.85l-.37.66V80.26l.37.22Zm0,2.65V85l-.37-.28v-1l.37-.64Zm0,67.38v1.87l-.37-.63v-1l.37-.26Zm0,2.69v1.85l-.37.22v-2.75l.37.68Zm0,3.13v1.83l-.37-.77v-.84l.37-.22Zm0,5.42v3.92l-.37-.19v-3.55l.37-.18Zm-.37-.92V160l.31.7-.31.14Zm0-85.3v-.84l.31.15Zm0-25.05v.89A11.54,11.54,0,0,0,125,51v-.78a8.67,8.67,0,0,1,2.22.22Zm0,5.32v1.06a4.65,4.65,0,0,0-2.22-.4v-1a7.11,7.11,0,0,1,2.22.36Zm0,6v1.68a36.12,36.12,0,0,1-2.22,3V65.14a26.15,26.15,0,0,0,2.22-3.31Zm0,7.74v1c-.53.4-1.09.79-1.7,1.19L125,72.88v-2.4c.21.1.41.17.63.26.57-.39,1.1-.77,1.59-1.17Zm0,1.59-1.13.58-.4,1.16,1.53.7V71.16Zm0,3.53v.84l-1.35,2.9L125,78V74.51l.27-.72,2,.9Zm0,3.45-.32.65.32.19v-.84Zm0,2.12V83l-.76,1.33L125,83.5V82.18l1.22-2.49,1,.57Zm0,3.51-.42.7.42.27v-1Zm0,67v1l-.42-.69.42-.29Zm0,1.75-.76-1.31L125,152v1.32l1.22,2.47,1-.55v-2.75Zm0,4v.84l-.32-.66.32-.18Zm0,3.44-1.35-2.91-.87.41V161l.27.69,2-.88V160Zm0,1.94v3.55l-.58-.29-1-2.58,1.53-.68ZM125,167v-2.6l.44,1.14L125,167Zm0-10.74v-1.32l.51,1.1-.51.22Zm0-75.69.51-1.08-.51-.24v1.32Zm0-12.12v-.57a.88.88,0,1,1,.83,1.17.87.87,0,0,1-.83-.6Zm0-14.57v-1.1a1.13,1.13,0,0,1,1-.6,1.16,1.16,0,0,1,1.15,1.15A1.18,1.18,0,0,1,126,54.49,1.16,1.16,0,0,1,125,53.88Zm0-3.62V51c-.35,0-.7,0-1.07,0v-.73a6.55,6.55,0,0,1,1.07-.07Zm0,2.52v1.1a1,1,0,0,1-.15-.55,1.06,1.06,0,0,1,.15-.55Zm0,2.66c-.21,0-.43,0-.65,0a10.86,10.86,0,0,0-.42-2.57v6.5a13.91,13.91,0,0,0,.42-2.89c.22,0,.44,0,.65,0v-1Zm0,9.7v1.33c-.34.41-.68.81-1.07,1.23V66.44c.39-.46.73-.9,1.07-1.3Zm0,2.74v.57a.67.67,0,0,1-.06-.28.75.75,0,0,1,.06-.29Zm0,2.6v2.4l-1.07,2.31V72.11a2,2,0,0,1,.41.2,5.34,5.34,0,0,1,.4-.8l-.81-.33V70.1l1.07.38Zm0,4-1.07,2.67v.37L125,78V74.51Zm0,4.74v1.32l-1.07,2.27V78.77l1.07.48Zm0,2.93-.51,1,.51.29V82.18ZM125,152v1.32l-.51-1L125,152Zm0,2.91-1.07-2.25v4l1.07-.47v-1.32Zm0,2.55V161l-1.07-2.67V158l1.07-.47Zm0,6.91V167l-.23.72-.84-.54v-4.06l.5-.16.57,1.44Zm-1.07-2.32v-.39l.14.35Zm0-111.75v.73l-.56.06a17.35,17.35,0,0,1,.56,1.77v6.5a21.1,21.1,0,0,1-1.12,3.46V60.18a13.56,13.56,0,0,0,0-7.78V50.09c.07.13.14.26.2.39a7.34,7.34,0,0,1,.92-.15Zm0,16.11V67.7c-.34.4-.73.81-1.12,1.23V67.74c.39-.44.78-.88,1.12-1.3Zm0,3.66v1.08c-.36-.16-.74-.31-1.12-.44v-1c.38.12.76.25,1.12.4Zm0,2v3.08l-1,2.19a.3.3,0,0,1-.12,0V72l.39,0a1.9,1.9,0,0,1,.73.14Zm0,5.07-.12.31.12.06v-.37Zm0,1.59v4.07l-.09.2-1-.48v-3l.41-1.08.71.32Zm0,73.92v4l-.71.33-.41-1.06v-3l1-.47.09.2Zm0,5.27v.39l-.12-.34.12,0Zm0,3.73v.39l-1.12.4v-3.9l1.12,3.11Zm0,1.43v4.06l-1.12-.72h0v-2.93Zm-1.12-113V52.4c-.14-.44-.3-.86-.48-1.28-.07-.15-.15-.28-.22-.41V49c.23.33.47.68.7,1.06Zm0,10.09v2.67c-.23.51-.45,1-.7,1.54V62.23c.27-.7.51-1.37.7-2Zm0,7.56v1.19c-.19.19-.37.38-.55.58l.55.19v1l-.7-.26v-2c.23-.28.47-.54.7-.79Zm0,4.26v5.35l-.7-.23v-.78a1.55,1.55,0,0,0,.23.07,4.43,4.43,0,0,0,.28-.53,1.49,1.49,0,0,1-.51-.24V72.3a1.77,1.77,0,0,1,.7-.3Zm0,7.53v3l-.7-.3v-1l.7-1.77Zm0,73.43v3l-.7-1.77v-1l.7-.31Zm0,5.62v3.9l-.7.24v-4.21l.6-.2.1.27Zm0,4.95v2.93l-.7-2.49v-.19l.7-.25Zm-.7-6.19v-1l.31.88-.31.11Zm0-78.18v-1l.31.11-.31.86Zm0-24.2v0Zm0-5.93v1.68a9.57,9.57,0,0,0-1.24-1.66V47.69A8.87,8.87,0,0,1,122.08,49Zm0,5.79V55A1.15,1.15,0,0,1,120.92,56h-.08V53.73h.08a1.15,1.15,0,0,1,1.16,1.09Zm0,7.41v2.16c-.39.77-.79,1.55-1.24,2.32V64.83a25.55,25.55,0,0,0,1.24-2.6Zm0,6.3v2c-.4-.14-.82-.29-1.24-.42v-1l.58.17c.22-.26.44-.49.66-.71Zm0,3.77v3.34a2,2,0,0,1,0-3.34Zm0,4v.78l-1.24-.37V75.9c.42.15.82.27,1.24.44Zm0,1.85v1l-1,2.82-.21-.08V77.75l1.24.44Zm0,3.11-.31.81.31.15v-1Zm0,72v1l-.31-.81.31-.15Zm0,3.08-1-2.82-.21.07v4.16l1.24-.42v-1Zm0,2.16v4.21l-.4.15-.84-2.83V159l1.24-.44Zm0,5.27V164l-.06-.17.06,0Zm-1.24,5.05v-3.2l.76,3-.76.2Zm0-108.78V57.74a1.16,1.16,0,0,1,0,2.31Zm0-8.29v-.59a1,1,0,0,1,0,.29A1,1,0,0,1,120.84,51.76Zm0-4.07v1.36a5,5,0,0,0-.66-.64V47.18c.22.15.44.33.66.51Zm0,3.48v.59a1.13,1.13,0,0,1-.66.77V50.4a1.18,1.18,0,0,1,.66.77Zm0,2.56V56a1.25,1.25,0,0,1-.66-.29V54a1.18,1.18,0,0,1,.66-.3Zm0,4v2.31a1.16,1.16,0,0,1-.66-.22V58a1.16,1.16,0,0,1,.66-.22Zm0,7.09v1.88l-.66,1.12V66c.22-.4.46-.79.66-1.19Zm0,4.24v1c-.22-.06-.44-.12-.66-.2v-1l.66.18Zm0,6.83v.85l-.66-.19v-.88l.66.22Zm0,1.85V81.9l-.66-.23V77.53l.66.22Zm0,75.85v4.16l-.66.24v-4.16l.66-.24Zm0,5.35V160l-.29-1,.29-.09Zm0,6.68v3.2l-.66.17v-4.72l.29-.08.37,1.43Zm-.66-2.38v-.13l0,.13Zm0-90.48V71.69a2.33,2.33,0,0,1,.07.53,2.51,2.51,0,0,1-.07.55Zm0-8.56V62.32a1.07,1.07,0,0,1,.55,1A1.08,1.08,0,0,1,120.18,64.21Zm0-17v1.23a7.44,7.44,0,0,0-1.19-.79v-1.1a10.78,10.78,0,0,1,1.19.66Zm0,3.22v2.13a1.38,1.38,0,0,1-.44.09,1.16,1.16,0,0,1-.75-.28V50.58a1.2,1.2,0,0,1,.75-.27,1.38,1.38,0,0,1,.44.09Zm0,3.63v1.72a1.14,1.14,0,0,1-.39-.86,1.13,1.13,0,0,1,.39-.86Zm0,3.93v1.87a1.15,1.15,0,0,1,0-1.87Zm0,4.36v1.89a1,1,0,0,1-.52.12,1.11,1.11,0,0,1-.67-.23V62.45a1,1,0,0,1,.67-.26,1.33,1.33,0,0,1,.52.13Zm0,3.7v1.81c-.18.31-.39.6-.57.9l.57.16v1L119,69.53V67.87c.42-.63.8-1.25,1.19-1.85Zm0,5.67v1.08A2.11,2.11,0,0,1,119,74.09V70.37a2.06,2.06,0,0,1,1.19,1.32Zm0,4v.88L119,76.23v-.9l1.19.35Zm0,1.85v4.14l-1.19-.4V81l1-3.54.15.06Zm0,76.31V158l-.15.05-1-3.53v-.26l1.19-.42Zm0,9.28v.13l-1.19.31v-4.08l.24,0,1,3.69Zm0,1.16V169l-1.19.31v-4.72l1.19-.31ZM119,158.35v-.3l.07.28-.07,0Zm0-80.75.11-.4-.11,0v.44Zm0-20V56.26C119,56.7,119,57.14,119,57.6Zm0-11.08v1.1a5.32,5.32,0,0,0-1-.44v-1a6.7,6.7,0,0,1,1,.36Zm0,4.06v1.76a1.11,1.11,0,0,1-.4-.88,1.16,1.16,0,0,1,.4-.88Zm0,5.68V57.6a18.4,18.4,0,0,1-1,5.21V59.26a10.52,10.52,0,0,0,0-5V52.51a7.52,7.52,0,0,1,1,3.75Zm0,6.19a1,1,0,0,0-.38.82,1.09,1.09,0,0,0,.38.83V62.45Zm0,5.42v1.66c-.35-.09-.69-.18-1-.25v-1c.22,0,.42.11.62.14l.42-.58Zm0,2.5v3.72a2.13,2.13,0,0,1-.75.15l-.29,0v-4a1.52,1.52,0,0,1,.29,0,1.76,1.76,0,0,1,.75.14Zm0,5v.9c-.35-.07-.69-.16-1-.24V75c.35.09.69.18,1,.29Zm0,1.83v.44l-.9,3.37-.14,0v-4l1,.25ZM119,81v.26l-.07,0L119,81Zm0,73.25v.26l-.07-.24.07,0Zm0,3.79v.3l-1,.25v-4l.14,0,.9,3.5Zm0,1.43v4.08l-1,.28v-4.09l1-.27Zm0,5.11v4.72l-.09,0-.88-4.48,1-.26Zm-1,11.31v-4l.69,3.84-.69.11Zm0-108.44V65.69h0a.89.89,0,0,1,.89.89.88.88,0,0,1-.89.88Zm0-21.3v1a8,8,0,0,0-1.22-.29v-1a9.41,9.41,0,0,1,1.22.26Zm0,6.35v1.72a3.78,3.78,0,0,0-1.22-1.94v-1A3.68,3.68,0,0,1,118,52.51Zm0,6.75v3.55a15.35,15.35,0,0,1-1.22,2.78V63.44A24.09,24.09,0,0,0,118,59.26Zm0,6.43v1.77a.87.87,0,0,1-.88-.88.89.89,0,0,1,.88-.89Zm0,2.62v1L116.73,69v-1c.4.07.82.16,1.22.26Zm0,1.94v4a1.94,1.94,0,0,1-1.22-.7v-2.6a1.91,1.91,0,0,1,1.22-.67ZM118,75V76c-.4-.11-.82-.18-1.22-.27v-1L118,75Zm0,1.87v4l-1.22-.33v-4l1.22.33Zm0,77.66v4l-1.22.33v-4l1.22-.33Zm0,5.18v4.09l-.18,0L117,160l.91-.24Zm0,12.2v4l-1.22.22V171l1-.19L118,172Zm-1.22-2.24v-4.63l.78,4.49-.78.14Zm0-119.47V48h0a1.14,1.14,0,0,1,1.13,1.13,1.15,1.15,0,0,1-1.13,1.16Zm0-4.34v1a11,11,0,0,0-2.45,0v-1a11.14,11.14,0,0,1,2.45,0Zm0,2.05v2.29a1.15,1.15,0,0,1-1.16-1.16A1.14,1.14,0,0,1,116.73,48Zm0,3.33v1a3.64,3.64,0,0,0-2.14-.75l-.31,0v-.82l.31,0a4.12,4.12,0,0,1,2.14.55Zm0,12.16v2.15a10.36,10.36,0,0,1-1.61,2.18c.53.07,1.06.17,1.61.28v1c-.83-.16-1.63-.31-2.45-.42v-1c.14-.19.29-.37.36-.45a14.2,14.2,0,0,0,2.09-3.67Zm0,7.48v2.6a1.94,1.94,0,0,1,0-2.6Zm0,3.81v1c-.83-.17-1.65-.31-2.45-.44v-1c.8.12,1.62.29,2.45.47Zm0,1.85v4l-.83-.2.77-3.85.06,0Zm0,78.32v4l-.1,0-.73-3.83.83-.22Zm0,10.18v4.63l-2,.35-.47-4.1v-.48l2.43-.42,0,0Zm0,5.9v5.14l-1.18.22-.58-5.06,1.76-.3Zm-2.45,10.74V179.8l.18,1.9-.18,0Zm0-17.24v-4l1.53-.28.69,3.9-2.22.39Zm0-5.15v-4l.76-.13.7,3.85-1.46.25Zm0-79.18v-4l1.46.26-.7,3.84-.76-.14Zm0-7.25V69.33a2,2,0,0,1,0,3.57Zm0-27v1c-.39,0-.79.09-1.19.17v-1c.4-.08.8-.13,1.19-.17Zm0,4.85v.82l-.59.06a2.63,2.63,0,0,0-.6.18V51a4.93,4.93,0,0,1,1.19-.2Zm0,16.81v1c-.41,0-.79-.11-1.19-.15v-.89l1.1.11s0-.06.09-.09Zm0,1.77V72.9a1.92,1.92,0,0,1-.92.22,1.23,1.23,0,0,1-.27,0v-4h.27a2.19,2.19,0,0,1,.92.22Zm0,4.93v1l-1.19-.17v-1c.38.06.78.11,1.19.19Zm0,1.93v4l-1.19-.2V77.6l.18-1.59,1,.18Zm0,79.17v4l-1,.19-.18-1.6v-2.34l1.19-.22Zm0,5.11v4l-.24.05-.46-3.95.7-.11Zm0,5V166l-.06-.46.06,0Zm0,14.32v1.92l-1.19.13v-4.18l1-.09.22,2.22Zm-1.19-3.28v-5.1l.36,0,.48,5.05-.84.09Zm0-6.35V167.7l.22,2.43-.22,0Zm0-120.08v-2.3a1.14,1.14,0,0,1,1.13,1.15A1.15,1.15,0,0,1,113.09,50.09Zm0-4v1c-.44.07-.88.16-1.33.27l-.48-.4V45.7l.7.59a9.07,9.07,0,0,1,1.11-.22Zm0,1.72v2.3a1.16,1.16,0,0,1-1.15-1.15,1.14,1.14,0,0,1,1.15-1.15Zm0,3.16v.86a3.79,3.79,0,0,0-1.81,1.38V52a4.14,4.14,0,0,1,1.81-1Zm0,16.59v.89c-.61-.07-1.21-.12-1.81-.16V64.83c.27,1,.56,1.87.81,2.52l0,.1,1,.09Zm0,1.58v4a2,2,0,0,1-1.74-2,2.07,2.07,0,0,1,1.74-2Zm0,4.95v1l-1.81-.18v-1c.6,0,1.2.11,1.81.18Zm0,3.53V80l-.28-.06.28-2.29Zm0,78v2.34l-.28-2.28.28-.06Zm0,12.12v2.47l-1.81.16v-4.61l1.61-.15.2,2.13Zm0,3.72v5.1l-1.81.17V171.6l1.81-.18Zm0,6.25v4.18l-1.81.16v-4.17l1.81-.17Zm-1.81-12.94v-4l1.12-.09.36,3.94-1.48.14Zm0-5.1v-3.92l.75-.07.37,3.89-1.12.1Zm0-79.9V75.79l1.26.13-.29,3.9-1-.09Zm0-38.39V38.49l.6.67Zm0-2.85v2.85l-1,3.53,1,.83v1.19L109.11,45l1.6-5.8-2.54-2.57V35l3.11,3.46Zm0,13.47v1.23c-2,2.69-1,8,0,11.64v3.44c-.33,0-.64-.06-1-.08v0c-.71,0-1.42-.06-2.14-.06v-.83c1,0,2.07,0,3.09.07-2.52-6.88-2.65-12.92,0-15.43Zm0,21.93v1c-1-.07-2.06-.12-3.11-.12v-1c1,0,2.07,0,3.11.13Zm0,1.9v3.94L110,79.6l.06-3.92,1.22.11Zm0,79.92v3.92l-1.37.14-.13-3.91,1.5-.15Zm0,5v4l-1,.1-.12-4,1.13-.11Zm0,5v4.61l-.75.08-.16-4.6.91-.09Zm0,5.88v5.09l-.46.05-.16-5.09.62-.05Zm0,6.24V182l-.24,0-.09-4.15.33,0ZM108.17,188v-4.63l1.12,0,.13,4.63-1.25,0Zm0-6v-4.15l1.06,0,.11,4.15-1.17,0Zm0-5.31v-5.08h1.08l.06,5.09-1.14,0Zm0-6.33v-4.59h1.08l.06,4.61-1.14,0Zm0-5.6v-4l1.08,0,.06,4-1.14,0Zm0-5.07v-3.93h1.19l.08,3.94-1.27,0Zm0-80V75.83l1.27,0-.08,3.92Zm0-7v-4a2,2,0,0,1,1.89,2,2,2,0,0,1-1.89,2Zm0-6.83a1.18,1.18,0,0,0,1.12-1.18,1.22,1.22,0,0,0-1.12-1.2v2.38Zm0-4.24a.92.92,0,0,0,0-1.84V61.7Zm0-3.66a.79.79,0,0,0,.68-.77.75.75,0,0,0-.68-.77V58Zm0-4.16a1.16,1.16,0,0,0,1.06-1.15,1.15,1.15,0,0,0-1.06-1.14v2.29Zm0-3.44a2.06,2.06,0,0,0,0-4.12Zm0-15.41v1.62l-.14-.16-2.54,2.73L107.1,45l-1.83,1.56V45.41l.66-.54-.66-2.3V38.08L108,34.92v-.06l.14.17Zm0,11.29h-.09a2.06,2.06,0,0,0,0,4.12h.09V46.32Zm0,5.27v2.29h-.09A1.15,1.15,0,0,1,107,52.73a1.17,1.17,0,0,1,1.13-1.16s.08,0,.09,0Zm0,4.91V58h-.09a.76.76,0,0,1-.74-.77.75.75,0,0,1,.74-.77Zm0,3.36V61.7h-.09a.92.92,0,0,1,0-1.84Zm0,3.7v2.38l-.09,0a1.2,1.2,0,0,1,0-2.4Zm0,3.76v.83h-.09c-.93,0-1.86,0-2.81.08v-.86c1,0,2-.05,2.9-.05Zm0,1.44v4h-.11a2,2,0,0,1,0-4Zm0,5v1c-1,0-1.92,0-2.9.11v-1c1-.1,2-.13,2.9-.15Zm0,2.07v3.91l-1,0L107,75.85l1.22,0Zm0,79.94v3.93l-1.22,0,.18-3.91Zm0,5v4l-1.35,0,.18-3.95Zm0,5v4.59l-1.62,0,.2-4.61,1.42,0Zm0,5.84v5.08h-2l.24-5.09,1.71,0Zm0,6.24V182h-2.24l.22-4.18,2,0Zm0,5.47V188l-2.61,0,.26-4.63,2.35,0Zm-2.9-11.26v-.42h0l0,.42Zm0-1.68v-4.63l.48.05-.3,4.6-.18,0Zm0-5.62v-4l.86.07-.26,4-.6-.06Zm0-5.1v-3.94l1.37.13-.24,3.91-1.13-.1Zm0-79.87V75.86l1.13-.1.24,3.91-1.37.13Zm0-13.34c2.08-6.19,2.19-11.57,0-14.14v1.41c1.33,2.48.8,6.52,0,9.78Zm0-28.38v4.49l-1-3.41,1-1.08Zm0,7.33v1.17l-.82.71a17.08,17.08,0,0,0-2.34-.42v-.95a18.21,18.21,0,0,1,2.12.37l1-.88Zm0,6.91v1.41a4,4,0,0,0-2.76-2.1l-.4,0v-.82a4.53,4.53,0,0,1,3.16,1.55Zm0,11.19v2.95a8.62,8.62,0,0,1-.33.93,1.83,1.83,0,0,0,.33,0v.86c-1.06.08-2.12.17-3.16.31v-.89c.66-.09,1.31-.15,2-.2l0-.1c.33-.93.76-2.29,1.15-3.84Zm0,10.4v1c-1.06.06-2.1.18-3.16.34v-1c1.06-.18,2.12-.31,3.16-.4Zm0,2V79.8l-.88.09-.48-3.9,1.36-.13Zm0,79.87v3.94l-1.36-.14.48-3.89.88.09Zm0,5.05v4l-1.88-.18.49-3.94,1.39.13Zm0,5v4.63l-2.58-.26.55-4.56,2,.19Zm0,5.89v.42l-.29,4.67-2.87-.27v-1.82l.4-3.27,2.76.27Zm-3.16,10.15v-4.18l2.7.26-.22,4.15-2.48-.23Zm0-17.28v-4.05l.6.11-.55,3.95Zm0-5.17v-4l1.49.28-.54,3.88-1-.17Zm0-79.19v-4l1-.16.54,3.88-1.49.27Zm0-7.17V69.26a1.94,1.94,0,0,1,.73-.15,2,2,0,0,1,0,4,1.93,1.93,0,0,1-.73-.13Zm0-23.52V48.41a1.12,1.12,0,0,1,1-.62,1.15,1.15,0,0,1,1.16,1.15,1.17,1.17,0,0,1-1.16,1.15A1.12,1.12,0,0,1,102.11,49.47Zm0-3.55v.95a9.43,9.43,0,0,0-3.57.22v-1a10.72,10.72,0,0,1,3.57-.15Zm0,2.49v1.06a1.12,1.12,0,0,1-.13-.53,1,1,0,0,1,.13-.53Zm0,2.36v.82l-.49-.05a3.44,3.44,0,0,0-3.08,1.9V52.09a3.83,3.83,0,0,1,3.08-1.36l.49,0Zm0,16.88v.89c-1.21.17-2.38.39-3.57.65v-.94c.87-.2,1.7-.35,2.55-.48a12.82,12.82,0,0,1-2.55-4.13v-3a18,18,0,0,0,3,6.49c.09.09.29.35.46.54Zm0,1.61V73a2,2,0,0,1,0-3.73Zm0,5v1c-1.19.19-2.38.42-3.57.7v-.9c1.21-.31,2.4-.55,3.57-.75Zm0,1.86v4l-.73.13-.77-3.84,1.5-.28Zm0,79.19v4l-1.5-.27.77-3.85.73.13Zm0,5.11v4.05l-2.41-.43.78-3.9,1.63.28Zm0,14.18v1.82l-.22,0,.22-1.78Zm0,3v4.18l-.94-.1.55-4.12.39,0ZM98.54,176v-5.16l2.53.43-.72,5.06L98.54,176Zm0-12.82v-3.38l.72.18-.72,3.2Zm0-4.54v-4l2,.51L99.68,159l-1.14-.3Zm0-77.73V76.85l1.14-.29.84,3.85-2,.51Zm0-6.78V70.3a2,2,0,0,1,0,3.84Zm0-6.73a.87.87,0,0,0,.59-.83.9.9,0,0,0-.59-.84v1.67Zm0-17.65V48.42a1.19,1.19,0,0,1,.94-.47,1.14,1.14,0,0,1,1.15,1.13,1.15,1.15,0,0,1-2.09.68ZM102,165.5l-.66,4.56-2.74-.49.92-4.51ZM98.54,46.07v1a6.26,6.26,0,0,0-1.14.44V46.45a8,8,0,0,1,1.14-.38Zm0,2.35v1.34a1.29,1.29,0,0,1-.2-.68,1.28,1.28,0,0,1,.2-.66Zm0,3.67v1.35c-.89,1.78-.67,4.54,0,7.18v3a19.59,19.59,0,0,1-1.14-4.28V54.78a5.94,5.94,0,0,1,1.14-2.69Zm0,13.65v1.67a.75.75,0,0,1-.31,0,.85.85,0,0,1-.83-.64v-.48a.87.87,0,0,1,.83-.65,1.34,1.34,0,0,1,.31,0Zm0,2.51v.94c-.38.09-.76.18-1.14.29V68.12a3.29,3.29,0,0,0,.23.33l.91-.2Zm0,2v3.84a1.86,1.86,0,0,1-.58.1,1.74,1.74,0,0,1-.56-.1V70.3a2,2,0,0,1,.56-.07,2.2,2.2,0,0,1,.58.07Zm0,4.76V76l-1.14.31v-.92l1.14-.29Zm0,1.79v4.07l-.2,0-.94-3.35v-.46l1.14-.31Zm0,77.76v4l-1.14-.3v-.46l.94-3.34.2.06Zm0,5.2v3.38l-.14.7-1-.28V159.5l1.14.31Zm0,11V176l-1.14-.21v-.52l.89-4.49.25.06Zm-1.14-2.7v-3.51l.72.21-.72,3.3Zm0-13.46.1-.41-.1,0v.45Zm0-73.4.1-.06-.1-.41v.47Zm0-17.38a1.17,1.17,0,0,0,0-1.28v1.28Zm0-11.77a1.19,1.19,0,0,0,0-1.35Zm0-5.69v1.08a6.32,6.32,0,0,0-1.38.88V47.18a7,7,0,0,1,1.38-.73Zm0,4.34v1.35a1.18,1.18,0,0,1-.94.48,1.38,1.38,0,0,1-.44-.09V50.4a1.38,1.38,0,0,1,.44-.09,1.16,1.16,0,0,1,.94.48Zm0,4v4.58a13,13,0,0,1,0-4.58Zm0,7.85v1.28a1.09,1.09,0,0,1-.86.42,1,1,0,0,1-.52-.12V62.32a1.33,1.33,0,0,1,.52-.13,1.11,1.11,0,0,1,.86.44Zm0,3.71v.48a.64.64,0,0,1,0-.24.71.71,0,0,1,0-.24Zm0,1.78c-.5-.71-1-1.41-1.38-2.1v1.81c.19.31.39.6.57.9l-.57.16v1c.46-.15.92-.27,1.38-.38V68.12Zm0,2.18v3.84A2,2,0,0,1,96,72.77V71.69A2.11,2.11,0,0,1,97.4,70.3Zm0,5v.92c-.46.11-.92.25-1.38.38v-.91l1.38-.39Zm0,1.81v.46l-.14-.42.14,0Zm0,3.66-1-3.35L96,77.6v4.16l1.38-.47v-.47Zm0,73.42v.45l-1,3.36-.37-.13v-4.15l1.38.47Zm0,3.65-.14.44.14,0v-.46Zm0,1.61v4.11L96,163.25v-.17l1-3.65.34.07Zm0,5.14v3.51l-.26,1.18L96,169.05v-4.76l1.38.35Zm0,10.64v.52h-.12l.12-.51ZM96,59.83V58a1.15,1.15,0,0,1,0,1.87Zm0-4.08V54a1.13,1.13,0,0,1,.39.86A1.14,1.14,0,0,1,96,55.75Zm0-8.57v1.23a9,9,0,0,0-1.68,1.94V48.74A8.16,8.16,0,0,1,96,47.18Zm0,3.22v2.13a1.17,1.17,0,0,1-.69-1.07A1.15,1.15,0,0,1,96,50.4ZM96,54v1.72a1.09,1.09,0,0,1-.75.29,1.17,1.17,0,0,1-.93-.46V54.19a1.2,1.2,0,0,1,.93-.46A1.06,1.06,0,0,1,96,54ZM96,58v1.87a1.16,1.16,0,0,1-.66.22,1.2,1.2,0,0,1-1-.61V58.35A1.14,1.14,0,0,1,96,58Zm0,4.36v1.89a1.11,1.11,0,0,1-.55-.94,1.08,1.08,0,0,1,.55-1ZM96,66a31.28,31.28,0,0,1-1.68-3.24v2.07c.52,1,1.08,2,1.68,3V66Zm0,2.87v1c-.55.16-1.11.35-1.68.53V68.76l.44.48L96,68.89Zm0,2.8v1.08a2.51,2.51,0,0,1-.07-.55,2.33,2.33,0,0,1,.07-.53Zm0,4v.91l-1.68.55v-.93c.57-.19,1.13-.37,1.68-.53Zm0,1.86v4.16l-.64.22-1-2.82v-1L96,77.6Zm0,76.17v4.15l-1.68-.58v-1l1-2.82.64.24Zm0,9.31v.17h0l0-.17Zm0,1.21v4.76l-1.59-.42,1.27-4.42.32.08ZM94.34,164v-.19l.06,0-.06.17Zm0-1.25v-4.21l1.54.53-1.14,3.83-.4-.15Zm0-8.49.33-.81-.33-.15v1Zm0-72,.33-.15-.33-.81v1Zm0-6.78v-3a2,2,0,0,1,0,3Zm0-26.74v1.61c-.14.23-.29.49-.43.77a9.87,9.87,0,0,0-.48,1.28V50.09a9.64,9.64,0,0,1,.91-1.35Zm0,5.45v1.39a1.27,1.27,0,0,1-.21-.69,1.31,1.31,0,0,1,.21-.7Zm0,4.16v1.09a1.21,1.21,0,0,1,0-1.09Zm0,4.43v2.07c-.32-.66-.64-1.34-.91-2V60.18a21.8,21.8,0,0,0,.91,2.6Zm0,6v1.63l-.91.33v-1l.55-.19-.55-.58V67.74c.29.34.6.68.91,1Zm0,3.7v3a1.74,1.74,0,0,1-.73.4,4.43,4.43,0,0,0,.28.53l.45-.14v.93l-.71.26-.2-.41V72a2.07,2.07,0,0,1,.91.46Zm0,5.73v1L94,78.3l.31-.11Zm0,3.11-.91-2.36v3.73l.91-.41v-1Zm0,72v1l-.91,2.36v-3.74l.91.42Zm0,3.08-.31.88.31.11v-1Zm0,2.16v4.21l-.91-.33v-3.18l.33-.9.58.2Zm0,5.27V164l-.69,2.49-.22.14v-3.15ZM93.43,50.09V52.4a13.47,13.47,0,0,0,0,7.78v2.67a18.92,18.92,0,0,1-.91-2.58V52.1c.11-.32.22-.66.34-1l-.34,0v-.73a6.27,6.27,0,0,1,.71.13,3.6,3.6,0,0,1,.2-.39Zm0,17.65v1.19l-.91-1V66.71c.29.33.58.68.91,1Zm0,2v1l-.91.37V70l.91-.3Zm0,2.3v5l-.91-1.77V72A2.76,2.76,0,0,1,93,72l.4,0Zm0,6.94v3.73l-.82.37-.09-.2V78.77l.71-.32.2.49Zm0,73.91v3.74l-.2.47-.71-.33v-4l.09-.2.82.36Zm0,6.36v3.18l-.91-.31v-.39l.91-2.48Zm0,4.24v3.15l-.91.58v-4.06l.91.33Zm-.91-5.1V158l.12,0-.12.34Zm0-80.8v-.37l.12.31Zm0-27.2v.73c-.36,0-.7,0-1,0v-.78c.35,0,.69.05,1,.09Zm0,1.75v8.17a15.67,15.67,0,0,1-.64-3.77l-.41,0v-1a3,3,0,0,1,.41,0,12.09,12.09,0,0,1,.64-3.36Zm0,14.61V68c-.37-.42-.72-.81-1-1.21V65.43c.31.4.68.82,1,1.28Zm0,3.29v1.09c-.36.13-.68.27-1,.42a5.34,5.34,0,0,1,.4.8,2.78,2.78,0,0,1,.63-.29v3.26l-1-2.07V70.39l1-.39Zm0,7.18-1-2.67V78l1-.48v-.37Zm0,1.59v4.07l-1-2.27V79.25l1-.48Zm0,73.92v4l-1-.47v-1.32l1-2.25Zm0,5.27v.39l-1,2.67v-3.53l1,.47Zm0,3.73v.39l-.14,0,.14-.35Zm0,1.43v4.06l-.85.54-.2-.72v-2.6L92,163l.5.16Zm-1-9.77.5-1-.5-.29v1.32Zm0-69.85.5-.29-.5-1Zm0-33.24V51a6.27,6.27,0,0,0-1.07.08v-.85Zm0,5.18v1a6.25,6.25,0,0,0-1.07,0v-1c.32,0,.69-.05,1.07-.05Zm0,10v1.32c-.38-.44-.75-.88-1.07-1.3V64c.32.46.67.94,1.07,1.43Zm0,5v2.82l-.76-1.5a2.7,2.7,0,0,0-.31-.2v-.9l.2.13.87-.35Zm0,4.12V78l-.87.4-.2-.4V74.16l.78-.37.29.72Zm0,4.74v1.32L91,79.49l.51-.24Zm0,2.93L90.4,80V84.1l1.07-.6V82.18Zm0,69.85v1.32l-1.07,2.14v-4.06l1.07.6Zm0,2.91L91,156l.51.22v-1.32Zm0,2.55V161l-.29.69-.78-.35V157.5l.2-.42.87.41Zm0,6.91V167L91,165.54l.45-1.14Zm-1.07-.79v-1.17l.36.17-.36,1Zm0-90.55.36-.16L90.4,72v1.06Zm0-4V67.28a.89.89,0,1,1,0,1.77Zm0-14.58V52.2a1.14,1.14,0,0,1,1,1.13A1.19,1.19,0,0,1,90.4,54.47Zm0-4.2v.85a7.4,7.4,0,0,0-1.16.2v-.9c.39-.07.77-.11,1.16-.15Zm0,1.93v2.27l-.17,0a1.18,1.18,0,0,1-1-.59V52.75a1.19,1.19,0,0,1,1-.57.5.5,0,0,1,.17,0Zm0,3.29v1a3.88,3.88,0,0,0-1.16.27v-1a7.41,7.41,0,0,1,1.16-.24Zm0,8.51v1.45c-.42-.57-.81-1.1-1.16-1.59V62.23A18.93,18.93,0,0,0,90.4,64Zm0,3.28v1.77a.89.89,0,0,1,0-1.77Zm0,3.33v.9l-1.16-.81v-1c.37.29.75.57,1.16.86Zm0,1.39-.11-.26-1.05-.52V73.6l1.16-.54V72Zm0,2.16V78l-1.16-2.5v-.84l1.16-.53Zm0,5.86V84.1l-.39.22L89.24,83V80.26l1-.57.17.33Zm0,71.41v4.06l-.17.33-1-.55v-2.75l.77-1.31.39.22Zm0,6.07v3.86l-1.16-.53V160l1.16-2.49Zm0,4.94v1.17l-.57,1.58-.59.29v-3.55l1.16.51Zm-1.16-5.05v-.84l.33.18-.33.66Zm0-5.64.43-.69-.43-.29v1Zm0-67,.43-.27-.43-.7v1Zm0-5.76v-.84l.33.65Zm0-28.56v.9l-.38.09v-.9l.38-.09Zm0,2.33V53.9a1,1,0,0,1-.16-.57,1.06,1.06,0,0,1,.16-.58Zm0,3v1a2.69,2.69,0,0,0-.38.2V55.86a3.43,3.43,0,0,1,.38-.13Zm0,6.5v1.63c-.12-.2-.25-.41-.38-.59V61.53c.11.24.24.46.38.7Zm0,7.52v1l-.38-.29v-1l.38.29Zm0,1.47V73.6l-.38.16V71l.38.2Zm0,3.47v.84l-.32-.69.32-.15Zm0,3.45V79l-.38.21V77.37l.38.77Zm0,2.12V83l-.38-.66V80.48l.38-.22Zm0,3.51v1l-.38.28V83.13l.38.64Zm0,67v1l-.38.63v-1.87l.38.26Zm0,1.75v2.75l-.38-.22V153.2l.38-.68Zm0,4v.84l-.38.77v-1.83l.38.22Zm0,3.44v.84l-.32-.14.32-.7Zm0,1.94v3.55l-.38.19v-3.92ZM88.86,50.51v.9l-.57.18v-1c.19-.06.39-.09.57-.13Zm0,5.35V57a2.11,2.11,0,0,0-.57.54V56.13a5.94,5.94,0,0,1,.57-.27Zm0,5.67v1.74c-.2-.33-.38-.64-.57-.93V60.27a9.73,9.73,0,0,0,.57,1.26Zm0,7.93v1c-.18-.15-.38-.29-.57-.44V69c.19.16.39.31.57.48Zm0,1.56v2.74l-.38.18-.19-.34V70.74l.57.28Zm0,6.35v1.82l-.57.32V76.23l.57,1.14Zm0,3.11v1.85l-.57-1v-.57l.57-.31Zm0,2.65-.57-.91V85.4l.57-.38V83.13Zm0,67.38v1.87l-.57.93v-3.18l.57.38Zm0,2.69-.57,1v.57l.57.31V153.2Zm0,3.13v1.83l-.57,1.12V156l.57.33Zm0,5.42v3.92l-.57.29v-4l.19-.36.38.18Zm-.57-96V64.21a1,1,0,0,1,.32.75A1.07,1.07,0,0,1,88.29,65.72Zm0-15.08v1a7.6,7.6,0,0,0-1,.42V51a8.94,8.94,0,0,1,1-.37Zm0,5.49v1.36a3.18,3.18,0,0,0,0,2.78v2.07a12.48,12.48,0,0,1-1-2.31V57.27a2.56,2.56,0,0,1,1-1.14Zm0,8.08v1.51a1.08,1.08,0,0,1-.8.35h-.18V63.86l.18,0a1.1,1.1,0,0,1,.8.37Zm0,4.77v1c-.34-.27-.67-.55-1-.85v-1c.31.32.64.61,1,.9Zm0,1.76V73.6l-1-2.09V70.23l1,.51Zm0,5.49v3.28l-.69.4-.29-.53V75.52l.49-.28.49,1Zm0,4.56v.57l-.23-.42.23-.15Zm0,1.43-.65-1.1-.33.24V85l.49.71.49-.35V82.22Zm0,67.91v3.18l-.65,1.1-.33-.24v-3.68l.49-.71.49.35Zm0,4-.23.42.23.15v-.57Zm0,1.83v3.28l-.49,1-.49-.3v-3.85l.29-.52.69.38Zm0,5.93v4l-.6.31-.38-2.2v0l1-2.09Zm-1-.77h0Zm0-86.78v0Zm0-18.5V53.63a1.13,1.13,0,0,1,.89,1.13A1.14,1.14,0,0,1,87.31,55.88Zm0-4.87v1a11.21,11.21,0,0,0-1.08.61v-1.1A6.68,6.68,0,0,1,87.31,51Zm0,2.62v2.25h-.26a1.15,1.15,0,0,1-.82-.34V54a1.24,1.24,0,0,1,1.08-.32Zm0,3.64V60a3.82,3.82,0,0,1,0-2.76Zm0,6.59v2.21a1.12,1.12,0,0,1,0-2.21Zm0,4.22v1c-.39-.32-.73-.65-1.08-1V67c.33.36.69.71,1.08,1.07Zm0,2.15v1.28l-.82-1.69.82.41Zm0,4.13v0l-1.08.6v-2.7l1.08,2.08Zm0,1.16v3.86l-1.08-1.85V76.12l1.08-.6Zm0,5.84V85L86.23,83.5V82.09l1.08-.73Zm0,69.13v3.68l-1.08-.73V152l1.08-1.54Zm0,5.65V160l-1.08-.6V158l1.08-1.86Zm0,5h0l-1.08,2.24v-2.88l1.08.63Zm0,2.87v0l0,0,0,0Zm-1.08-7.69.66-1.08-.66-.45v1.53Zm0-5.82.77-1.1-.77-.6v1.7Zm0-63.79L87,86.1,86.23,85v1.7Zm0-6,.66-.45-.66-1.09v1.54Zm0-18.14v-1.9a1.07,1.07,0,0,1,.57,1,1,1,0,0,1-.57,1Zm0-4V57.54a1.12,1.12,0,0,1,.13.53A1,1,0,0,1,86.23,58.59Zm0-7.07v1.1A8.16,8.16,0,0,0,84,54.85V53.29a9.16,9.16,0,0,1,2.23-1.77Zm0,2.43a1.15,1.15,0,0,0-.31.81,1.14,1.14,0,0,0,.31.79V54Zm0,3.59v1.05a1.15,1.15,0,1,1,0-1.05Zm0,3.15v1.9a1,1,0,0,1-.51.15,1.09,1.09,0,1,1,0-2.18,1,1,0,0,1,.51.13Zm0,6.32v1.13A20.59,20.59,0,0,1,84,65.5V63.91A17.06,17.06,0,0,0,86.23,67Zm0,5.27V75l-1.11.65L84,73.74V71.09l1.28-.66,1,1.85Zm0,3.84v1.41l-.6-1.06.6-.35Zm0,3.07-1.39-2.3-.84.57v2.63l1,1.49,1.21-.85V79.19Zm0,2.9V83.5l-.66-1,.66-.45Zm0,2.93-1.48-2.13L84,83.5V86l1.23,1.54,1-.81V85Zm0,63.79v1.7l-1.48,2.11L84,152v-2.47L85.23,148l1,.81Zm0,3.22-.66.95.66.46V152Zm0,2.77v1.53l-1.39,2.31-.84-.59v-2.62L85,154l1.21.85Zm0,3.2-.6,1,.6.35V158Zm0,2.52v2.88l-.06.14-2.17,1v-2.77l1.12-1.83,1.11.62ZM84,159.88v-.62l.28.19-.28.43ZM84,148v-1l.46.42L84,148Zm0-59.45v-1l.46.59-.46.4Zm0-12.26v-.63l.28.44Zm0-23v1.56c-.16.27-.33.55-.47.85V53.88c.14-.2.31-.4.47-.59Zm0,10.62V65.5c-.16-.25-.33-.49-.47-.74V62.91c.14.32.29.65.47,1Zm0,7.18v2.65l-.47-.82v-1.6l.47-.23Zm0,4.55v.63l-.47.32V74.86l.47.78Zm0,1.82v2.63l-.47-.69V77.81l.47-.35Zm0,6V86l-.47-.61v-1.5L84,83.5Zm0,4v1l-.47.44v-2l.47.62ZM84,147v1l-.47.63v-2.05L84,147Zm0,2.56V152l-.47-.38v-1.48l.47-.61Zm0,5.89v2.62l-.47-.33v-1.59l.47-.7Zm0,3.83v.62l-.47.79v-1.74l.47.33Zm0,2.47v2.77l-.06,0-.19-2.35.25-.44ZM83.53,154v-1l.44.34-.44.64Zm0-71.57v-1l.44.62Zm0-28.59V55.7a8.39,8.39,0,0,0,0,7.21v1.85c-2.54-4.2-2.09-8.17,0-10.88Zm0,17.44v1.6l-.74-1.23.74-.37Zm0,3.54-1.65-2.69-1.55,1.06v1.59l1.86,2.69,1.34-.92V74.86Zm0,3V79.4l-.75-1.08.75-.51Zm0,3.68L81.7,78.87,80.33,80v1.22l1.86,2.34,1.34-1.06v-1Zm0,2.39v1.5l-.74-.91.74-.59Zm0,3-1.45-1.87-1.75,1.54v.28l2.43,2.76.77-.66v-2Zm0,59.64v2.05l-1.45,1.86-1.75-1.53v-.28l2.43-2.78.77.68Zm0,3.59-.74.91.74.57v-1.48Zm0,2.91v1l-1.83,2.6-1.37-1.08v-1.22L82.19,152l1.34,1.07Zm0,3.07-.75,1.08.75.51v-1.59Zm0,2.8v1.74l-1.65,2.69-1.55-1.08v-1.59L82.19,158l1.34.93Zm-3.2-.45.75-1.07-.75-.59v1.66Zm0-6.07.91-1.19-.91-.82v2Zm0-4.81,1.9-2L80.64,144l-.31.28v3.33Zm0-55.65v-.09l0,0,0,0Zm0-.78v-3.4L82.41,90l-1.62,1.65-.46-.44Zm0-6.06v-2l.91,1.19-.91.81Zm0-6.41V77l.75,1.06Zm0-5.47v1.59l-.13-.18V73.32l.13-.09Zm0,3.81V78.7l-.13.09V76.87l.13.17Zm0,2.93v1.22L80.2,81v-1l.13-.09Zm0,3.14v2l-.13.11V83l.13.16Zm0,3.48v.28l-.13-.15v0l.13-.11Zm0,1.18v3.4l-.13-.12V87.61l.13.16Zm0,4.09V92l-.13.15v-.35l.13.11Zm0,52.41v3.33l-.13.13v-3.35l.13-.11Zm0,4.39v.28l-.13-.11v0l.13-.15Zm0,1.74v2l-.13.17v-2.29l.13.11Zm0,3.94v1.22l-.13-.11v-1l.13-.14Zm0,2.48v1.66l-.13.17v-1.94l.13.11Zm0,3.87v1.59l-.13-.09v-1.32l.13-.18Zm-.13-17v0l0,0Zm0-70.38v1.32l-.62-.88.62-.44Zm0,3.55-1.75-2.51-.28.2v4l.93,1.17,1.1-.9V76.87Zm0,3.19v1l-.48-.59.48-.38Zm0,2.89v2.27l-.65.58-1.38-1.57V81.76l.66-.59L80.2,83Zm0,3.75v0Zm0,.91v3.44l-2-1.88v-.51l1.54-1.56.49.51Zm0,4.14-2-1.83v3.19l.73.56,1.3-1.57v-.35Zm0,51.93v0l-2,1.81V142.4l.57-.46,1.46,1.74Zm0,.7-2,1.86v.83l1.36,1.37.67-.71v-3.35Zm0,4.43v0Zm0,1.48v2.29l-1.37,1.77-.66-.58v-2.49l1.38-1.56.65.57Zm0,4.19v1l-.48-.36.48-.61Zm0,2.23v1.94l-1.75,2.51-.28-.2v-4l.93-1.15,1.1.87Zm0,4.16-.62.9.62.42v-1.32Zm-2-11.33v-.88l.44.44-.44.44Zm0-8.15h0Zm0-46.91v-.33l.15.11-.15.22Zm0-7.41.62-.64-.62-.66Zm0-12.51v4L77,77V75.53l1.22-1Zm0,7.2v2.47L77,82.85h0l1.22-1.08Zm0,4v1.3l-1,1L77,87.87V84.49l1.22,1.28Zm0,2.89v.51l-.26-.24.26-.27Zm0,1.26v3.19l-1.22-1V89.87l.51-.61.71.66Zm0,4.23v.33L77,96.15l0,0V93.2l1.22,1Zm0,47.23h0l-1.22.92v-2.65l1.22,1.72Zm0,1v3.11l-.89.81-.33-.4v-2.57l1.22-.95Zm0,3.84-.42.41.42.42v-.83Zm0,2.42v.88L77,150.82v-3.29l0-.06,1.17,1.19Zm0,2.62v2.49L77,152.69v0l1.22-1.39Zm0,5.71v4L77,160v-1.44L78.17,157ZM77,163.14v-1.55l.71.55-.71,1Zm0-6.48V154l1.22,1.08L77,156.66Zm0-75.14V78.87l1.22,1.57L77,81.52Zm0-7.58V72.39l.71,1Zm0-1.55v1.55l-1,.77V71l1,1.4Zm0,3.14V77l-.69-.9.69-.57Zm0,3.34v2.65l-.68.59L76,81.79V77.62l1,1.25Zm0,4h0Zm0,1.65v3.38L76,87V83.61l.07-.08.9,1Zm0,5.38v2.27l-1-.77V91l1-1.17Zm0,3.33v2.93l-1-.66v-3l1,.75Zm0,46.46v2.65l-1,.75v-2.95l.88-.58.09.13Zm0,3.69v2.57l-1-1.16v-.64l1-.77Zm0,4.18v3.29l-1,1v-3.42l1-.88Zm0,5.14v0h0v0ZM77,154v2.65l-1,1.24v-4.17l.29-.33L77,154Zm0,4.52V160l-.69-.56.69-.88Zm0,3.06v1.55l-1,1.38V160.8l1,.79ZM76,147.2v-.7l.33.4-.33.3Zm0-8.15v-.77l.33.55-.33.22Zm0-41.42V96.55l.48.31-.48.77Zm0-8.35V88.2l.51.48ZM76,71v3.72l-.53.44-.86-1.08V69.35l.16-.11L76,71Zm0,6.63v4.17L74.59,80.2V77.51l.77-.69.62.8Zm0,6V87l-1.39-1.3V85L76,83.61Zm0,4.59L74.59,87V90.1l.44.35,1-1.17V88.2ZM76,91v.33l-.16-.13L76,91Zm0,1.41v3l-1.39-.93v-1.8l.62-.88.77.59Zm0,4.1v1.08l-.71,1.21-.68-.37V95.65l1.39.9Zm0,41.73v.77l-1.39.9v-2.76l.56-.32.83,1.41Zm0,1.83v2.95l-.93.7-.46-.64V141l1.39-.92Zm0,4v.64l-.33-.38.33-.26Zm0,2.38v.7l-1.39,1.24v-3.09l.26-.21L76,146.5Zm0,1.91-1.39,1.28v1L75.85,152l.13-.14v-3.42Zm0,5.32v4.17l-.62.79-.77-.68v-2.69L76,153.73Zm0,7.07v3.72l-1.23,1.77-.16-.13v-4.7l.86-1.08.53.42Zm-1.39-7.64v-1l.53.52-.53.53Zm0-17v-.37l.14.3-.14.07Zm0-36V99.5l.28.12-.28.55Zm0-16.56.73-.76-.73-.76Zm0-14.26v4.72l-.77-1V70l.77-.62Zm0,8.16V80.2l-.77-.9V78.19l.77-.68Zm0,4.58v1.52l-.77.8V81.27l.77.82Zm0,3v.62l-.31-.3.31-.32Zm0,1.92V90.1l-.77-.62V86.24l.77.72Zm0,5.78v1.8L73.82,94v-.16l.77-1.1Zm0,2.91v2.82L73.82,98V95.14l.77.51Zm0,3.85v.67l-.75,1.54h0V99.05l.77.45Zm0,36.31v.37l-.77.42v-2.36l.77,1.57Zm0,1.38V140l-.77.49v-2.82l.77-.43Zm0,3.84v2.09L73.82,142v-.47l.77-.53Zm0,4.32v3.09l-.77.68V146l.77-.62Zm0,4.34v1l-.51-.53.51-.47Zm0,2.42v1l-.77.81v-2.66l.77.8Zm0,3.21V158l-.77-.67V156.2l.77-.88Zm0,6.14v4.7l-.77-.62v-3.11l.77-1Zm-.77-.9V159l.72.64-.72.93Zm0-16.11V144l.22.31-.22.18Zm0-52.55V91l.39.31-.39.55Zm0-15.38V75l.72.93Zm0-6.55V73.1l-1.51-1.92L73.82,70Zm0,5-1.68-2.16v4.65l.28.33,1.4-1.25V75Zm0,3.24V79.3l-.57-.61.57-.5Zm0,3.08v3.14l-.29.29-1.39-1.3V79.53l0,0,1.66,1.76Zm0,5v3.24l-1.68-1.33v-.46L73.55,86l.27.23Zm0,4.8v.86l-.93,1.33-.75-.49v-3L73.82,91Zm0,2.8V94l-.07,0,.07-.11Zm0,1.3V98l-1.68-1v-.62l1-1.74.65.44Zm0,3.91v2.66l-1.68-.81V98.14l1.68.91Zm0,35.19v2.36l-1.68.91V134.8l1.59-.75.09.19Zm0,3.38v2.82L73,141l-.88-1.47v-.95l1.68-.94Zm0,3.94V142l-.23-.32.23-.15Zm0,2.4v.49l-1.68,1.28v-2.92l.59-.39L73.82,144Zm0,2v3.15l-.47.42-1.21-1.43v-.82L73.82,146Zm0,5.34V154l-1.68,1.74V151.9l1.19-1.08.49.49Zm0,4.89v1.14l-.57-.5.57-.64Zm0,2.79v1.57l-1.68,2.16v-4.65l.28-.31,1.4,1.23Zm0,3.44-1.51,1.9,1.51,1.21v-3.11Zm-1.68-11.9v-.88l.42.51-.42.37Zm0-16.55v-2.51l.33-.13.82,2.13-1.15.51Zm0-28.65V105l.08,0-.08.27Zm0-1v-2.54l1.26.54-.84,2.17-.42-.17Zm0-18.17.62-.76-.62-.55Zm0-13.35v4.65L72,77.27V72.59l.14.2Zm0,6.74V83.4L72,83.26V79.69l.14-.16Zm0,5.3v1.31l-.14.17V84.69l.14.14Zm0,2.86v.46L72,88v-.17l.14-.18Zm0,2v3L72,92.63v-3l.14.11Zm0,6.7v.62L72,97v-.3l.14-.25Zm0,1.7v2.76l-.14-.05v-2.8l.14.09Zm0,3.63v2.54l-.14-.06v-2.56l.14.08Zm0,3.25v.31l-.14.54V105l.14,0Zm0,26.45V134L72,134v-2.51l.14-.06Zm0,3.33v2.71l-.14.08v-2.71l.14-.08Zm0,3.76v.95l-.14-.26v-.6l.14-.09Zm0,4.25v2.92l-.14.11v-2.92l.14-.11Zm0,4.48v.82l-.14-.18v-.53l.14-.11Zm0,2.36v.88l-.14.12v-1.16l.14.16Zm0,2.25v3.81l-.14.16v-3.82l.14-.15Zm0,6.17v4.65l-.14.2v-4.67l.14-.18ZM72,130.82v-.54l.13.5-.13,0ZM72,94.5v-.31l.13.09Zm0-21.91v4.68l-.15-.16v-4.7l.15.18Zm0,7.1v3.57l-.15-.13V79.84l.15-.15Zm0,5v1.62l-.15.17V84.56l.15.13Zm0,3.18V88L71.91,88l.09-.09Zm0,1.76v3l-.15-.09v-3l.15.11Zm0,4.56v.31l-.15.24v-.65l.15.1Zm0,2.5V97l-.15-.08.15-.22Zm0,1.36v2.8l-.15-.07V98l.15.07Zm0,3.64v2.56l-.15,0v-2.58l.15.07ZM72,105v.9l-.15.49v-1.43l.15,0Zm0,25.31v.54l-.15.05v-1.1l.15.51Zm0,1.25V134l-.15.07v-2.54l.15,0Zm0,3.35v2.71l-.15.09v-2.75l.15-.05Zm0,3.77v.6l-.15-.23v-.3l.15-.07Zm0,4.27v2.92l-.15.11V143l.15-.09Zm0,4.48v.53l-.15-.17v-.25l.15-.11Zm0,2.09v1.16l-.15.13V149.3l.15.19Zm0,2.56v3.82l-.08.07-.07-.07v-3.69l.15-.13Zm0,6.2v4.67l-.15.18v-4.68l.15-.17Zm-.15-16.76v-.3l.13.2Zm0-69.08v4.7l-1.39-1.58V72.75l1-.86.42.52Zm0,7.43v3.29l-1.39-1.28v-.6l1.39-1.41Zm0,4.72v1.92l-.73.9-.66-.53V83.32l1.39,1.24Zm0,5v3l-1.39-.93V89.76l.61-.84.78.6Zm0,4.57v.65l-.91,1.52L70.46,96V93.2l1.39.89Zm0,3.89v2.8l-1.39-.66v-.44l1-1.94.44.24Zm0,3.64v2.58l-1.39-.49V101l1.39.6Zm0,3.31v1.43l-.27.92-1.12-.3v-2.52l1.39.47Zm0,24.84v1.1l-1.39.46v-2.47l1-.28.35,1.19Zm0,1.8v2.54l-1.39.6v-2.63l1.39-.51Zm0,3.36v2.75l-.57.31-.82-1.67v-.75l1.39-.64Zm0,3.79v.3l-.13-.23.13-.07Zm0,2.47v.3l-1.39.87v-2.72l.35-.2,1,1.75Zm0,1.82V146l-1,.73-.42-.57v-2.19l1.39-.91Zm0,4.5v.25l-.13-.14.13-.11Zm0,1.79v1.48L70.46,152v-3.44l.46-.36.93,1.09Zm0,2.88v3.69l-1.39-1.39v-1l1.39-1.28Zm0,6.24v4.68l-.42.53-1-.86V160l1.39-1.57Zm-1.39,6.31v-.44l.2.19-.2.25Zm0-7.39v-1.08l.53.53-.53.55Zm0-28.89v-2.38l.46-.07.44,2.23-.9.22Zm0-3.26v-1l.13,1Zm0-13V110.7l.18,0-.18,1.43Zm0-2.34V107.4l1,.22L71,109.91l-.53-.09Zm0-30.37V77.84l.77.83-.77.78Zm0-8.23v-.45l.2.28Zm0-.45v.45l-.14.14v-.78l.14.19Zm0,2v2.78l-.14-.18V72.88l.14-.13Zm0,5.09v1.61l-.14.15V77.7l.14.14Zm0,3.41v.6l-.14-.15v-.29l.14-.16Zm0,2.07v3.53l-.14-.11V83.19l.14.13Zm0,6.44v1.85l-.14-.11V90l.14-.22Zm0,3.44V96l-.14-.07V93.09l.14.11Zm0,6.48v.44l-.14-.05V100l.14-.29Zm0,1.34v2.69l-.14-.06V101l.14.06Zm0,3.44V107l-.14,0V104.4l.14.06Zm0,2.94v2.42l-.14,0v-2.41l.14,0Zm0,3.3v1.46l-.11.88h0v-2.36l.14,0Zm0,13.51v1l-.14,0V123l.14,1.21Zm0,1.86v2.38l-.14,0v-2.38l.14,0Zm0,2.79v2.47l-.14,0v-2.49l.14,0Zm0,3.22v2.63l-.14.06v-2.64l.14,0Zm0,3.49v.75l-.14-.29v-.38l.14-.08Zm0,4.07v2.72l-.14.11v-2.76l.14-.07Zm0,4.28v2.19l-.14-.21V144l.14-.11Zm0,4.65V152l-.14.13v-3.46l.14-.11Zm0,4.89v1l-.14-.16v-.73l.14-.13Zm0,2.8v1.08l-.14.16v-1.39l.14.15Zm0,3.73v2.78l-.14-.12v-2.49l.14-.17Zm0,4.3v.44l-.14.2v-.76l.14.12Zm-.14-66.84v-.08l0,0Zm0-26.87v.78l-.13.11V70.41l.13.17Zm0,2.3v2.47l-.13-.14V73l.13-.11Zm0,4.82v1.9l-.13.13V77.55l.13.15Zm0,3.71v.29l-.13-.12v0l.13-.13Zm0,1.78v3.55l-.13-.11V83.08l.13.11Zm0,6.79V91.5l-.13-.1V90.16l.13-.18Zm0,3.11v2.82l-.13-.08V93l.13.07Zm0,4.28v.08l-.13.25v-.4l.13.07Zm0,2.6v.1l0,0,0-.07Zm0,1v2.69l-.13-.06v-2.7l.13.07Zm0,3.44V107l-.13,0v-2.55l.13,0Zm0,3v2.41h-.13v-2.44l.13,0Zm0,3.31V113l-.13,0v-2.36l.13,0Zm0,12.32v2.21l-.13,0v-2.32l.13,0V123Zm0,3.11v2.38l-.13,0v-2.4l.13,0Zm0,2.78v2.49l-.13,0v-2.49l.13,0Zm0,3.24v2.64l-.13,0v-2.63l.13-.06Zm0,3.52V136l-.13-.26v-.07l.13,0Zm0,4.06v2.76l-.13.08v-2.77l.13-.07Zm0,4.32v1.87l-.13-.18v-1.6l.13-.09Zm0,4.65v3.46l-.13.13v-3.48l.13-.11Zm0,4.91v.73l-.13-.13v-.47l.13-.13Zm0,2.52v1.39l-.13.13V156l.13.13Zm0,4v2.49l-.13-.11v-2.23l.13-.15Zm0,4v.76l-.13.19v-1.06l.13.11Zm-.13-25.81v-.08l0,.06,0,0Zm0-16.11V122l0,.26Zm0-7.64V114h0l0,.58Zm0-26.19v-.09l0,0Zm0-18v1.06l-.46.4V69.81l.46.6Zm0,2.58v2.22l-.46-.52v-1.3l.46-.4Zm0,4.56v2.18l-.46.47V77.07l.46.48Zm0,4v0l0,0,0,0Zm0,1.54v3.55l-.46-.37v-3.6l.46.42Zm0,5.25v.09l-.46.66V88l.46.35Zm0,1.83V91.4l-.46-.31V90.8l.46-.64Zm0,2.86v2.81l-.46-.25V92.71l.46.31Zm0,4.28v.4l-.46.93V97l.46.26Zm0,3.59v2.7l-.46-.16v-2.49l.09-.22.37.17Zm0,3.47v2.55l-.46-.13V104.2l.46.16Zm0,3v2.44l-.46-.1v-2.45l.46.11Zm0,3.33V113l-.46,0v-2.4l.46.09Zm0,3.37v.58l-.13,1.72-.33,0V114l.46,0Zm0,8v.26l-.46,0V120l.33,0,.13,2Zm0,.94v2.32l-.46.07V123l.46,0Zm0,3.2v2.4l-.46.11V126.2l.46-.07Zm0,2.8v2.49l-.46.17v-2.53l.46-.13Zm0,3.26v2.63l-.46.2v-2.67l.46-.16Zm0,3.51v.07l0-.05,0,0Zm0,2.58v.08l-.46.23v-1.22l.46.91Zm0,1.5v2.77l-.46.29V140l.46-.26Zm0,4.34v1.6l-.46-.65v-.66l.46-.29Zm0,4.67v3.48l-.46.4v-3.53l.46-.35Zm0,4.93v.47l-.26-.25.26-.22Zm0,2.26v1.65l-.46.47v-2.6l.46.48Zm0,4.33v2.23l-.46-.42v-1.29l.46-.52Zm0,3.75v1.06l-.46.6v-2.07l.46.41Zm-.46-16.59v-.68l.31.44-.31.24Zm0-28.13V117l.42,0,0,2.31Zm0-49.53v2.06l-1.41,1.25-.6-.7V68.14l.44-.4,1.57,2.07Zm0,3.58v1.3L69.09,74l.64-.57Zm0,3.68V80.2l-.51.51-1.5-1.41V75l2,2.12Zm0,5.59v3.6l-2-1.61v-.4l1.61-1.94.4.35Zm0,5.32v1.1l-1,1.39-1-.69V86.43l2,1.55Zm0,2.82v.29L69.58,91l.15-.2Zm0,1.91v2.87l-2-1.15v-.52l1.06-1.81,1,.61Zm0,4.33v1.59l-.4.83-1.61-.75V95.94l2,1.1Zm0,3.9v2.49l-.84-.31.84-2.18Zm0,3.26v2.58l-1.94-.53.72-2.45,1.22.4Zm0,3-2-.5v2.61l2,.34v-2.45Zm0,3.35V113l-2-.22v-2.53l2,.35Zm0,3.41v2.33l-2-.12v-2.47l2,.26Zm0,3v2.33l-2,0V116.9l2,.11Zm0,3v2.3l-2,.24v-2.45l2-.09Zm0,3v2.34l-2,.37V123.2l2-.22Zm0,3.22v2.44l-2,.49v-2.56l2-.37Zm0,2.86-2,.54v0l.69,2.4,1.32-.43v-2.53Zm0,3.29V135l0,0-.91-2.34,1-.35Zm0,5v1.22l-2,1.1V137l1.48-.69.53,1.08Zm0,2.67v2.8l-1.12.72L67.72,142v-.86l2-1.13Zm0,4.37v.66l-.31-.43.31-.23Zm0,2.38v.68l-2,1.54v-3.28l.86-.57,1.15,1.63Zm0,2.35v3.53l-.62.55-1.39-1.67v-.82l2-1.59Zm0,6.36v2.6l-2,2.09v-4.25L69,154.78l.73.72Zm0,5.33v1.29l-.64-.55.64-.74Zm0,2.82v2.07l-1.57,2.07-.44-.4v-4.31l.6-.67,1.41,1.24Zm-2-9.3v-.86l.41.5-.41.36Zm0-10.28V144l0,.07,0,0Zm0-8.39v-2.49l0,0,.83,2.13-.88.38Zm0-33.11V100l1,.44-.84,2.16-.17-.06Zm0-10.62v-.47l.2.13-.2.34Zm0-9.66V81l.64.57Zm0-14.15v4.28l-1.79-2v-.7l1.79-1.57Zm0,6.83V79.3l-1.79-1.66V76.8L67.72,75Zm0,6v1.34l-1.2,1.45-.59-.48V79.32L67.72,81Zm0,3.3v.4l-.2-.15.2-.25Zm0,2.18v3.35l-1.79-1.23V86.48l.64-.93,1.15.88Zm0,5V92l-1.11,1.89-.68-.4V90.31l1.79,1.17Zm0,2.43v.52l-.24-.13.24-.39Zm0,2v2.77l-1.79-.84v-.5l.93-1.9.86.47Zm0,4.09v2.54l-1.79-.66V99.24l1.79.79Zm0,6.69v2.61l-.58-.11.49-2.53.09,0Zm0,3.5v2.53l-1.26-.15.33-2.54.93.16Zm0,3.5v2.47l-1.57-.09.2-2.57,1.37.19Zm0,3.18v2.46l-1.5,0,0-2.55,1.48.07Zm0,3.19v2.45l-1.41.16-.16-2.52,1.57-.09Zm0,3.11v2.49l-1,.17-.32-2.51,1.32-.15Zm0,3.37v2.56l-.18,0-.48-2.47.66-.13Zm0,3v0Zm0,3.59v2.49l-1.79.79v-2.62l1.79-.66Zm0,3.79v2.71l-1,.55-.79-1.59v-.83l1.79-.84Zm0,4.19V142l-.38-.64.38-.22Zm0,2.81-1.28-2.12-.51.29v3.07l1.79-1.15V144Zm0,1.75V149l-1.35,1-.44-.63v-2.45l1.79-1.21Zm0,5v.82l-.42-.49.42-.33Zm0,2.76v.86l-1.79,1.59v-3.83l.37-.3,1.42,1.68Zm0,2.45v4.25l-.25.28-1.54-1.57v-1.3l1.79-1.66Zm0,7.14v4.31l-1.79-1.59v-.7l1.79-2Zm-1.79-1.15v-1.39l.68.68-.68.71Zm0-29.27v-2.45l.73-.2.64,2.2-1.37.45Zm0-3.29V127H66l.41,2.23-.47.13Zm0-20.48v-2.4l.57.15-.44,2.26Zm0-3.26v-2.51l1.46.51-.64,2.22-.82-.22Zm0-10.51V95l0,0,0,.07Zm0-20,.93-1-.93-1Zm0-5.44v.7l-.24-.24v-.26l.24-.2Zm0,3.46v2l-.24.24V72.92l.24.25Zm0,3.63v.84l-.24-.22V77l.24-.24Zm0,2.52v3.94l-.24-.16v-4l.24.2Zm0,7.16v2.07l-.24-.15V86.79l.24-.31Zm0,3.83v3.13l-.24-.13V90.16l.24.15Zm0,4.72v.09l-.24.46V94.9l.24.13Zm0,2.34v.5l-.2-.1.2-.4Zm0,1.87v2.67l-.24-.09V99.15l.24.09Zm0,3.88v2.51l-.24-.06v-2.52l.24.07Zm0,3.37v2.4l-.24,0v-2.42l.24.06Zm0,20.52v2.36l-.24,0v-2.36l.24,0Zm0,3.2v2.45l-.24.08v-2.47l.24-.06Zm0,3.64v2.62l-.24.11v-2.64l.24-.09Zm0,4v.83l-.24-.46v-.25l.24-.12Zm0,4.33v3.07l-.24.15v-3.1l.24-.12Zm0,4.79v2.45l-.24-.33v-2l.24-.15Zm0,5.17v3.83l-.24.2v-3.86l.24-.17Zm0,5.49v1.3l-.24-.23v-.87l.24-.2Zm0,2.94v1.39l-.24.24v-1.86l.24.23Zm0,4.56v.7l-.24-.19v-.25l.24-.26Zm-.24-24.38v-.28l.11.22Zm0-70.81v.26L65.58,70l.11-.11Zm0,3v2.47l-.65.68V72.2l.65.72Zm0,4.12v.38l-.18-.19.18-.19Zm0,2.08v4L65,82.56v-4l.65.6Zm0,7.67V88.4L65,88v-.22l.65-.95Zm0,3.37v3.15L65,92.94v-3.2l.65.42Zm0,4.74v.68L65,96.93V94.54l.65.36Zm0,4.25v2.67l-.65-.24V99l0-.11.62.28Zm0,3.9v2.52l-.65-.18v-2.56l.65.22Zm0,3.38v2.42l-.65-.13v-2.45l.65.16Zm0,20.63v2.36l-.65.17v-2.42l.65-.11Zm0,3.21v2.47L65,133v-2.51l.65-.18Zm0,3.67v2.64l-.65.28v-2.68l.65-.24Zm0,4v.25L65.6,138l.09,0Zm0,2.5v.28l-.65.36v-2l.65,1.35Zm0,1.83v3.1l-.65.42v-3.13l.65-.39Zm0,4.82v2l-.65-.93v-.6l.65-.44Zm0,5.19v3.86l-.65.59V152.8l.65-.52Zm0,5.52v.87l-.43-.46.43-.41Zm0,2.51v1.86l-.65.71v-3.24l.65.67Zm0,5.05v.25l-.11-.11.11-.14ZM65,150.93v-.62l.29.4-.29.22Zm0-25v-2.33l.27,0,.29,2.27L65,126Zm0-3.3v-2.3h0l.12,2.28-.14,0Zm0-3.39V117h.09l0,2.3Zm0-3.34v-2.33l.2,0-.18,2.31Zm0-3.59V110l.62.11-.28,2.28-.34,0Zm0-26.76v-1.1l.49.38ZM65,72.2v3.87l-.38.4-1.82-1.66V72.33L64,71.12l1,1.08Zm0,6.32v4l-2.2-1.75v-.63l1.72-2.08.48.42Zm0,6v1.1l-1.16,1.64-1-.69V82.78L65,84.47Zm0,3.27V88l-.1-.07.1-.15Zm0,2v3.2l-2.2-1.24v-.55l1.23-2.05,1,.64Zm0,4.8v2.39l-.23.44-2-.88V93.84l.71-.17,1.49.87ZM65,99v2.6l-.88-.33L65,99Zm0,3.85v2.56l-2.12-.59.71-2.45,1.41.48Zm0,3.44v2.45l-2.2-.4v-2.58l2.2.53Zm0,3.7v2.36l-2.2-.24v-2.51L65,110Zm0,3.62v2.33l-2.2-.13v-2.48l2.2.28ZM65,117v2.3l-2.2,0v-2.43L65,117Zm0,3.39v2.3l-2.2.26v-2.44l2.2-.12Zm0,3.27V126l-2.2.4v-2.47l2.2-.26Zm0,3.55v2.42l-2.2.53v-2.55l2.2-.4Zm0,3.28V133l-1.52.51-.68-2.34v-.08l2.2-.6Zm0,3.73v2.68l-.1,0L64,134.55l1-.37Zm0,4.91v2l-1.65.94-.55-.11v-2.73l1.85-.8.35.71Zm0,3.57v3.13l-1.17.75-1-1.72v-.94l2.2-1.22Zm0,4.87v.6l-.3-.4.3-.2Zm0,2.78v.62l-2.2,1.67V149l.85-.55,1.35,1.9Zm0,2.49v3.93l-.72.64-1.48-1.75v-1.08L65,152.8Zm0,6.84v3.24l-1.3,1.38-.9-.92v-3L64.4,159l.64.65Zm-2.2-1.08v-1.15l.55.66-.55.49Zm0-20.77V135l.26-.09.91,2.38-1.17.55Zm0-37V97.92l1.3.6-.93,2.42-.37-.13Zm0-22.44.81-1-.81-.73v1.7Zm0-7.91V70l.24.26Zm0-.49v.49l-.8.83v-2.2l.8.88Zm0,2.36v2.48l-.8-.74v-.92l.8-.82Zm0,4.34v1.7l-.8,1V75.92l.8.75Zm0,3.51v.63l-.31-.26.31-.37Zm0,2.6v3.74L62,86V82.16l.8.62Zm0,8.37v.55l-.24-.15.24-.4Zm0,2.69v2.65l-.55-.25L62,95.76V94l.8-.18Zm0,4.08v2.89l-.8-.29v-3l.8.38Zm0,7.82v2.58l-.69-.11.49-2.53.2.06Zm0,3.84v2.51L62,112v-2.57l.8.15Zm0,3.73v2.48l-.8-.06v-2.52l.8.1Zm0,3.54v2.43l-.8,0v-2.51l.8.06Zm0,3.62v2.44L62,123v-2.49l.8,0Zm0,3.41v2.47l-.8.13V124l.8-.09Zm0,3.69v2.55l-.29.07-.47-2.47.76-.15Zm0,3.48v.08l0-.08Zm0,3.9v2.84l-.8.36v-2.92l.8-.28Zm0,4.23v2.73l-.8-.19v-2.05l.11-.18.69-.31Zm0,4.7v.94l-.4-.7.4-.24Zm0,5.08v3.64l-.8.6v-3.71l.8-.53Zm0,5.58v1.08l-.55-.66.55-.42Zm0,2.87v1.15l-.8.74v-2.84l.8.95Zm0,3v3l-.8-.8v-1.43l.8-.73Zm-.8,5.56V164.4l.75.76-.75.78Zm0-32v-2l.53,1.78-.53.18Zm0-29.64v-2.4l.64.22Zm0-35.18v2.2l-1.46,1.5L59.77,72V67l.15-.15L62,69.09Zm0,4.06v.92l-.46-.42.46-.5Zm0,2.77v3.42l-.42.51-1.85-1.44V75.53l.81-1L62,75.92Zm0,6.24V86l-2.27-1.54v-.24l1.72-2.45.55.42ZM62,94v1.74l-.79-1.55L62,94Zm0,3.52v3L60.65,100l-.88-1.28V98l1.9-.64.37.17Zm0,4.33v2.4l-.08.31L59.77,104v-2.7l.41-.14,1.86.67Zm0,7.56V112l-.6-.07.31-2.55.29.05Zm0,3.78v2.52l-.95,0,.2-2.56.75.09Zm0,3.58v2.51h-.9l0-2.54.88,0Zm0,3.72V123l-.81.09-.14-2.53.95,0ZM62,124v2.51l-.37.07L61.36,124,62,124Zm0,8v2l-2,.71-.28-.09V131.8l2.09-.51L62,132Zm0,3.28v2.92l-.51.24-1.76-.57v-1l.75-1.07,1.52-.54Zm0,4.44v2.05l-.95-.22.95-1.83Zm0,9.82v3.71l-.77.61-1.5-2.11V151L62,149.49Zm0,7v2.84l-1.72,1.57-.55-.64V156.9l1.61-1.25.66.81Zm0,4.65v1.43l-.73-.75.73-.68Zm0,3.29v1.54l-2.27,2.42V163.1l.53-.47L62,164.4Zm-2.27-33.6v-2.7l1.32-.23.47,2.49-1.79.44Zm0-4v-2.62l.61-.07.31,2.54-.92.15Zm0-3.63V120.6l.31,0,.17,2.55-.48.05Zm0-3.84v-2.6l.41,0,0,2.58Zm0-3.72V113l.53.07-.2,2.58-.33,0Zm0-3.84v-2.67l1,.18-.31,2.56-.68-.07Zm0-4v-2.75l1.9.46-.51,2.54Zm0-40.86V72l-2.61-2.4L59.77,67Zm0,8.58v2.88l-1.44-1.14,1.44-1.74Zm0,8.66v.24l-.11-.07.11-.17Zm0,13.82v.74l-.4-.61.4-.13Zm0,3.33V104l-.4-.1-1.48-1.83,1.88-.77Zm0,3.72v2.75l-3.12-.57.54-2.82,2.58.64Zm0,4v2.67l-3.88-.44.35-2.84,3.53.61Zm0,3.88v2.63l-4.25-.27.22-2.86,4,.5Zm0,3.75v2.6l-4.22,0,0-2.86,4.18.22Zm0,3.86v2.58l-4.09.48-.18-2.82,4.27-.24Zm0,3.59v2.62l-3.61.64-.35-2.8,4-.46Zm0,3.91v2.7l-2.69.66-.52-2.77,3.21-.59Zm0,3.7v2.73l-2-.79,1.52-1.81.49-.13Zm0,5v1l-.54-.18.54-.8Zm0,14.17v.69l-.32-.46.32-.23Zm0,5.89v3.33l-1.69-2,1.69-1.31Zm0,6.2v5.26l-.16.18-2.74-2.8,2.9-2.64Zm-4.86-35.51-5,.88-.38-3.13,5.06-.58.34,2.83Zm-.49-3.88-5.06.59-.18-3.15,5.08-.27.16,2.83Zm-6.21.63-4.13.52-.22-3.47,4.16-.2.19,3.15Zm6.78-16-5-.86-.4,3.16,5.06.57.35-2.87Zm-.5,4.06-5-.63L49.19,115l5.08.33.22-2.89Zm-6.19-.68-4.13-.57-.28,3.54,4.15.22.26-3.19Zm6,4.8-5.07-.28,0,3.19,5.08,0v-2.87Zm-6.2-.24L44,116l0,3.52,4.15-.05,0-3.19ZM42.65,116,38,115.71l0,4,4.63-.07Z"/>
  <path class="cls-3" d="M108.22,80.84a36.87,36.87,0,1,0,36.88,36.87,36.87,36.87,0,0,0-36.88-36.87m0,59a22.13,22.13,0,1,1,22.13-22.12,22.12,22.12,0,0,1-22.13,22.12"/>
  <path class="cls-4" d="M126.94,114H89.32v-7.91h37.62Zm-37.24-.37h36.87v-7.16H89.7Z"/>
  <rect class="cls-5" x="89.51" y="113.94" width="37.25" height="7.54"/>
  <path class="cls-4" d="M126.94,129.29H89.32v-7.91h37.62Zm-37.24-.38h36.87v-7.16H89.7Z"/>
  <rect class="cls-3" x="89.51" y="106.32" width="37.25" height="7.54"/>
  <path class="cls-4" d="M126.94,121.67H89.32v-7.91h37.62Zm-37.24-.38h36.87v-7.16H89.7Z"/>
  <rect class="cls-3" x="89.51" y="121.56" width="37.25" height="7.54"/>
  <polygon class="cls-6" points="89.51 106.32 96.96 113.78 96.96 121.42 89.51 129.1 89.51 106.32"/>
  <path class="cls-3" d="M89.32,129.56V105.87l7.83,7.83v7.79Zm.38-22.79v21.87l7.08-7.3v-7.49Z"/>
  <polygon class="cls-4" points="83.01 116.68 83.17 119.03 80.22 119.23 83.32 121.1 83.51 123.86 79.88 121.47 74.38 124.75 74.18 121.93 77.71 119.96 76.92 119.45 74.03 119.65 73.86 117.29 83.01 116.68"/>
  <path class="cls-4" d="M83.6,124.07l.88,2.19-5.11,2c-.84.33-1.52.73-1.15,1.64s1,.78,2,.42l5.11-2,.88,2.2-4.83,1.85c-2.74,1-4.34.51-5.22-1.71s-.28-3.61,2.66-4.75Z"/>
  <polygon class="cls-4" points="86.06 139.26 86.08 139.27 90.92 136.28 92.43 138.01 84.28 142.5 82.74 140.74 86.24 136.71 86.22 136.69 81.63 139.47 80.1 137.7 85.88 130.5 87.39 132.23 83.62 136.46 83.63 136.47 88.51 133.52 89.8 134.99 86.06 139.26"/>
  <path class="cls-4" d="M87.24,145.09l7-6.38,2.1,1.24-2.48,9-2-1.21.38-1.16-2-1.21-.86.88Zm6.59-3.44L91.5,144l1.3.77Z"/>
  <polygon class="cls-4" points="95.93 149.64 98.89 141.12 101.17 141.89 98.21 150.4 95.93 149.64"/>
  <polygon class="cls-4" points="101.61 142.21 108.28 143.02 107.99 145.37 105.84 145.1 105 151.69 102.62 151.4 103.46 144.81 101.31 144.55 101.61 142.21"/>
  <path class="cls-4" d="M113.85,151.46l-2.35-8.69,3.41-.89a2.82,2.82,0,0,1,3.82,2.14c.5,1.88-.08,3.29-2.12,3.83l-1.17.31.73,2.7Zm2-5.59a.88.88,0,0,0,.66-1.25c-.22-.81-1-.73-1.49-.6l-.66.17.52,1.93Z"/>
  <path class="cls-4" d="M126.61,141.13c1.62,2.61,1.09,4.94-.76,6.05s-4.21.46-5.83-2.16c-1.49-2.41-1.13-4.78.82-5.94,2.24-1.33,4.51,0,5.77,2m-4.52,2.69c.61,1,1.61,2.06,2.6,1.48s.65-1.68-.14-3c-.64-1-1.68-1.95-2.56-1.38s-.5,1.88.1,2.85"/>
  <polygon class="cls-4" points="131.13 143.11 124.44 136.96 126.09 135.24 131.21 139.96 133.47 137.6 135.03 139.03 131.13 143.11"/>
  <polygon class="cls-4" points="136.27 137.17 128.51 132.38 129.79 130.38 137.55 135.18 136.27 137.17"/>
  <path class="cls-4" d="M135.23,126.63c-.92-.25-1.6,0-1.85.7s.39,1.55,2.05,2.14c1.21.43,2.43.63,2.84-.5.27-.72-.24-1.27-1-1.66l.79-2.13c2.15,1,3,2.71,2.38,4.5-.83,2.24-3.07,3-5.88,2s-4-3.09-3.29-5c.77-2.07,2.5-2.76,4.78-2.16Z"/>
  <polygon class="cls-4" points="141.83 123.65 132.69 123.02 133.11 117.16 135.25 117.31 134.99 120.81 136.3 120.9 136.51 117.94 138.65 118.09 138.44 121.05 139.87 121.15 140.14 117.51 142.27 117.66 141.83 123.65"/>
  <path class="cls-4" d="M87.71,99.84l-.69.75a.88.88,0,0,1-.68.29,1.28,1.28,0,0,1-.77-.17c.15.47.22.69.38,1.15a29.69,29.69,0,0,0-2.77,3.94,2,2,0,0,1-1.08.92,1.54,1.54,0,0,1-1.31-.07,4.06,4.06,0,0,1-1.15-1.05c-.52-.6-.71-1-.56-1.29a1.88,1.88,0,0,1,.14-.24l.14.09a3.54,3.54,0,0,0,.86,1.1,1,1,0,0,0,.89,0,1.64,1.64,0,0,0,.78-.63,31.82,31.82,0,0,1,3-4.17,5.67,5.67,0,0,1-.86-1,5.57,5.57,0,0,1-.13-1.78l.62.58a4,4,0,0,1,.35.42,3.26,3.26,0,0,0,.35.43.6.6,0,0,0,1-.05l.34-.36,1.2,1.21M81.47,98a4.45,4.45,0,0,1,.12.87,2.18,2.18,0,0,1,0,.8,11.15,11.15,0,0,1-1.59.94c0,.48,0,.71.05,1.17a7.14,7.14,0,0,1-1.57,1.11,2.54,2.54,0,0,1-.16-.83,3.4,3.4,0,0,1-.08-.87,8.93,8.93,0,0,1,.83-.49,3.09,3.09,0,0,0,.67-.47,3.54,3.54,0,0,0,0-.63q0-.33,0-.69c.67-.39,1-.57,1.66-.91"/>
  <path class="cls-4" d="M88,97.14l1.11,1.29c-.74.69-1.1,1.06-1.8,1.82L86.1,99.07A26.92,26.92,0,0,1,88,97.14"/>
  <path class="cls-4" d="M91,93.79A20,20,0,0,1,92,96a25.86,25.86,0,0,0-3.34,2.82l-1.14-1.27a27.14,27.14,0,0,1,2.9-2.51,5.3,5.3,0,0,0-1.81-.79c-.07-.73-.1-1.1-.14-1.84A3.6,3.6,0,0,1,91,93.79m-.74,6.5A2.84,2.84,0,0,1,90.13,99c.15-.17,1.09-.1,1.18-.17s.07-.21.08-.49a1.75,1.75,0,0,1,.06-.51c.53,0,.8-.06,1.32-.07a5.41,5.41,0,0,1,0,1.36c-.48,0-.72.06-1.21.11a4,4,0,0,1,0,.94,2.7,2.7,0,0,1-1.26.15"/>
  <path class="cls-4" d="M97.05,93.08l-1,.47a7.81,7.81,0,0,1-.13,2,2.22,2.22,0,0,1-.8,1.54,3.58,3.58,0,0,1-1.25.43,3,3,0,0,1-1.38,0l-.08-.12a.24.24,0,0,1,.07-.12,2.52,2.52,0,0,1,.58-.26,3,3,0,0,0,.56-.24,3.34,3.34,0,0,0,1-1.2,12.74,12.74,0,0,0,.63-1.5,8.27,8.27,0,0,0-1.22.4A1,1,0,0,1,92.89,94a4.29,4.29,0,0,1-.42-2c0-1,.19-1.66.61-1.89.66-.37,1.51.22,2.49,1.74l.81-.39.67,1.6m-2.6-.75c0-.12-.48-.37-.5-.38-.23-.11-.43-.19-.57-.12a.64.64,0,0,0-.18.35c-.06.19-.06.32,0,.37l0,.06c.17.18.62.15,1-.06a.65.65,0,0,0,.24-.22"/>
  <path class="cls-4" d="M101.62,91.43l-1.11.32c-.5-.29-.75-.44-1.27-.71-.1.49-.14.73-.22,1.22a21.35,21.35,0,0,0-2.47,1.06l-.69-1.59a22,22,0,0,1,2.55-1.09,22.61,22.61,0,0,0-3.06-1.28,5.76,5.76,0,0,1-.26-2.44c.86-1.62,4.54-2.64,4.56-2.62a7.55,7.55,0,0,1-.06,1.77A29.46,29.46,0,0,0,96.28,88c.76.37,1.5.78,2.2,1.2,1,.58,1.67.84,2.09.72l.65-.18.4,1.69"/>
  <path class="cls-4" d="M103.69,85c-.42.72-.62,1.08-1,1.8.22.83.33,1.24.54,2.08a4.14,4.14,0,0,1,0,1,4.5,4.5,0,0,1-.08,1,.94.94,0,0,1-.19.2c-.72.15-1.08.23-1.79.43-.17-.67-.26-1-.42-1.68.59-.17.89-.25,1.49-.38a.33.33,0,0,0,0-.17,13.94,13.94,0,0,0-.54-1.68,6.24,6.24,0,0,0-.69-1.56c-.11-.09-.56-.24-.6-.35-.15-.42.49-1.65.79-2.09l.11.05a1.68,1.68,0,0,0,.2.5,2.63,2.63,0,0,0,1,.47,11.12,11.12,0,0,0,1.13.37"/>
  <path class="cls-4" d="M106.9,88a4.69,4.69,0,0,1-.65,2.75c-.41-2-.63-3-1.12-5a14.25,14.25,0,0,1,1-2.18A25.18,25.18,0,0,1,106.9,88"/>
  <path class="cls-4" d="M115.48,84.09a5.1,5.1,0,0,1-.59.49c-.32.25-.51.37-.58.36s-.85-.83-1.26-.87c-.06,0-.57.51-.83.54a4,4,0,0,1-1.32-.8s.82-1,1.08-1,1.21.81,1.21.81.31-.18,1-.52c.53.38.79.57,1.3,1m1.12,7.62c-.55-.17-.83-.24-1.38-.38a.81.81,0,0,1-.55-.75c0-.33-.06-1-.08-1a3.59,3.59,0,0,0-.56.65c-.25.33-.44.48-.56.42a25.19,25.19,0,0,0-2.45-.83,8.08,8.08,0,0,1,.74-1.86,2.19,2.19,0,0,1,.94-.8,12.8,12.8,0,0,0,1.83-.7,3.43,3.43,0,0,0-.08-.49c.49-.58.74-.86,1.26-1.41l.07.06c0,.39,0,1.2,0,2.43,0,1.06-.05,1.83,0,2.29,0,.26.23.43.59.53l.72.21-.45,1.68m-2-3c0-.57,0-.86,0-1.43a2.87,2.87,0,0,1-.8.64,4.14,4.14,0,0,0-.63.32c.59.17.88.26,1.46.47"/>
  <path class="cls-4" d="M118.76,90.61l-.55,1.65a21.73,21.73,0,0,0-2.2-.72c.17-.67.25-1,.42-1.69.94.27,1.41.42,2.33.76"/>
  <path class="cls-4" d="M120.42,91.28c-.26.65-.38,1-.64,1.61a23.18,23.18,0,0,0-2.17-.85c.2-.67.31-1,.51-1.66.93.32,1.39.5,2.3.9"/>
  <path class="cls-4" d="M127.4,94.79c-.73.6-1.09.91-1.8,1.53a24.52,24.52,0,0,0-6.34-3.65c.25-.65.37-1,.61-1.62.33.13.49.21.82.35s.49.09.59-.14.27-.8.54-1.76a13.07,13.07,0,0,0,.4-1.7.66.66,0,0,0-.1-.29.38.38,0,0,1,0-.35,1.45,1.45,0,0,1,.69-.59,4.2,4.2,0,0,1,.91-.34,13.82,13.82,0,0,1,1.05,2.37,6.55,6.55,0,0,1-.75.52.92.92,0,0,1-.82.21l-.06,0a2.77,2.77,0,0,0-.13.34,2.05,2.05,0,0,1-.11.33c-.1.21-1,1.31-1,1.31a20.65,20.65,0,0,1,2.45,0,6.17,6.17,0,0,1,2.37.58,2,2,0,0,1,.69,1.34,2.69,2.69,0,0,1,0,1.53m-1.54-.43a1.72,1.72,0,0,0-.12-.93,1.38,1.38,0,0,0-.52-.78,4.23,4.23,0,0,0-2.9-.46,26.69,26.69,0,0,1,3.54,2.17"/>
  <path class="cls-4" d="M130.82,101.29c-.29-.36-.45-.53-.75-.87a1.68,1.68,0,0,1-.29-.59l-.12,0c-.61.15-1.24.37-1.82.54a1.81,1.81,0,0,1-1.72-.24,4.22,4.22,0,0,1-.79-1.41,6.09,6.09,0,0,1-.5-1.67l.12-.17s.07,0,.07,0,0,.16.2.54a2,2,0,0,0,.53.82,4.26,4.26,0,0,0,1.93.54c1,.14,1.61.12,1.86-.15a1.66,1.66,0,0,0,.24-1c0-.5.06-.77.07-.78a2.45,2.45,0,0,1,.77-.25,8.46,8.46,0,0,1,.93-.18,11.05,11.05,0,0,1-.26,1.75,2.17,2.17,0,0,0,.6,1.66l.21.24-1.28,1.13"/>
  <path class="cls-4" d="M132.67,103.69c-.33-.48-.5-.71-.85-1.16.1-.09.27-.35.25-.39a1.08,1.08,0,0,0-.35,0,.55.55,0,0,1-.35-.13c-.35-.45-.53-.66-.9-1.08l1.25-1.16c.5.58.75.87,1.22,1.48a1.52,1.52,0,0,0,.76-.32c.12-.1.41-.11.89,0a2.4,2.4,0,0,1,.95.29l-.28.26a7.73,7.73,0,0,1-1.72.61c.21.28.31.42.51.71l-1.38,1"/>
  <path class="cls-4" d="M139.52,104.12a4.21,4.21,0,0,1-.81-.22,2,2,0,0,1-.73-.33c0-.07,0-1.33-.29-1.73-.08-.1-.78-.19-1.05-.4a3.47,3.47,0,0,1-.39-1.73,3,3,0,0,1,.82.13,1.72,1.72,0,0,1,.72.26,9.76,9.76,0,0,1,.3,1.59,1.76,1.76,0,0,0,.53.28l.62.26c.13.76.18,1.14.28,1.89m-2.7,2.34a2.63,2.63,0,0,1-1.06.28l-1.1.09c-.51-.91-.78-1.35-1.34-2.19a.75.75,0,0,0,.1-.3,2.78,2.78,0,0,0-.35-.08c-.31-.46-.47-.68-.79-1.12l1.36-1c.38.53.57.8,1,1.35a1.61,1.61,0,0,1,.61-.24,2.41,2.41,0,0,1,1.92.48l-.09.05a3.49,3.49,0,0,1-.9.22,2.93,2.93,0,0,0-1,.28.11.11,0,0,0,0,.09c.27.43.4.65.66,1.09a.11.11,0,0,0,.11,0,1.45,1.45,0,0,0,.21-.16,1.46,1.46,0,0,1,.22-.17,1.74,1.74,0,0,1,1,.08,4.47,4.47,0,0,1,1.06.42l-1.65.85m2.89-4.49a3.12,3.12,0,0,1-.71-.29,2.13,2.13,0,0,1-.6-.36,2.28,2.28,0,0,1-.09-.71,1.6,1.6,0,0,1,0-.67,1.59,1.59,0,0,1,.68.17,2.15,2.15,0,0,1,.68.32,4,4,0,0,1,0,1.54"/>
  <path class="cls-7" d="M40.93,44l-.87-.18.16.85-1.63-.44L38.33,43l.89.21-.16-.89,1.63.4Zm2.23,5.54-.26.25a1.5,1.5,0,0,1-.31.19,1.16,1.16,0,0,1-.91-.13A4,4,0,0,1,40.57,49a8.24,8.24,0,0,1-1.09-1.48A8.39,8.39,0,0,1,38.7,46a7.56,7.56,0,0,0,.86,1.06,2.71,2.71,0,0,0,1.23.84.6.6,0,0,0,.44,0,1.19,1.19,0,0,0,.46-.31l2.54-2.39a4.83,4.83,0,0,0-1.41-.81l-.74-2A5.79,5.79,0,0,1,43.2,43a6.82,6.82,0,0,1,1,.87,10.2,10.2,0,0,1,1.23,1.69c.16.27.29.48.37.63s.19.34.33.57Z"/>
  <path class="cls-7" d="M45.9,38.11,45.64,38c.11.31.23.66.34,1.07s.21.84.29,1.27L47.4,41l.19.1.32.19a1.7,1.7,0,0,1,.39.3,5,5,0,0,1,.54.88l.15.28.61,1.16-2.34,2-1.51-2.16,0-.32-.11-1c0-.15-.05-.32-.07-.48s-.06-.28-.11-.52l0-.16-.24-.08-.66-.24-.88-.26,0,.12c0,.18,0,.27,0,.31a.12.12,0,0,1-.13,0,1.83,1.83,0,0,1-.39-.17,6.35,6.35,0,0,1-.79-.43,2,2,0,0,1-.38-.32,5,5,0,0,1-.53-.89,6.27,6.27,0,0,1-.34-.85c0-.15,0-.23,0-.27s.18,0,.38,0,.61.22,1,.4.8.35,1.07.49c.45.23.85.45,1.22.63l.18.1a4.89,4.89,0,0,0-.14-.47c0-.12-.13-.35-.26-.67s-.17-.41-.21-.5-.12-.2-.21-.36a1.31,1.31,0,0,1-.31-.11.93.93,0,0,1-.21-.19,1.16,1.16,0,0,1-.23-.6l-.07-.38-.15-1,.19.29a1.39,1.39,0,0,0,.77.43l1.26.28Zm.58,3.49,0,.12.08.61c0,.14,0,.28,0,.41s0,.25,0,.39l1.13-.94Z"/>
  <polygon class="cls-7" points="58.64 28.1 59.45 28.48 59.52 27.17 58.02 26.4 57.98 27.3 57.16 26.89 57.12 28.16 58.6 28.96 58.64 28.1"/>
  <path class="cls-7" d="M59.05,34.15l0,0a4.62,4.62,0,0,0-.38-.82,3.33,3.33,0,0,0-.85-.87,4.24,4.24,0,0,0-1.18-.6,1.73,1.73,0,0,0-.54-.11.68.68,0,0,0-.39.09.49.49,0,0,0-.19.24,3.94,3.94,0,0,0-.17.54c-.09.39-.17.75-.23,1.06s-.1.57-.14.79l-.31,2.18,0,.22,0,.18h0l-2.72-2.23.32,1.68,1.47,1.23-3.08,2.23a.21.21,0,0,1-.17,0,.72.72,0,0,1-.18-.17,3.37,3.37,0,0,1-.33-.4l-4.24-5.52L46,36.13l4.06,5.29.2.25.29.38c.33.42.64.52,1,.28l.25-.18,3.34-2.46-.19-.92.68.57,7.51-4.7c-.11-.42-.25-.87-.4-1.33a11,11,0,0,0-.79-1.93,6.76,6.76,0,0,0-.8-1.09,5.2,5.2,0,0,0-.94-.85l.27,2.09a4.92,4.92,0,0,1,1.18,1.12m-5.9,2.62.17-.78a3.86,3.86,0,0,1,.15-.55.5.5,0,0,1,.18-.22,1,1,0,0,1,.92.06,4.38,4.38,0,0,1,1.2.81l-2.78,1.77A7.5,7.5,0,0,1,55.74,35.27Z"/>
  <path class="cls-7" d="M64.76,26.09,64.52,26a10.83,10.83,0,0,1,.1,1.12c0,.42,0,.86,0,1.3l1,.81.16.14.27.26a1.78,1.78,0,0,1,.33.38,4.71,4.71,0,0,1,.33,1l.08.3.35,1.26-2.7,1.4-1-2.43,0-.32.11-1c0-.14,0-.32,0-.48s0-.29,0-.53V29l-.22-.13-.59-.38L62,28v.12c0,.17,0,.27-.08.3a.11.11,0,0,1-.12,0,2.24,2.24,0,0,1-.35-.25,6.71,6.71,0,0,1-.68-.59,1.57,1.57,0,0,1-.29-.4,5,5,0,0,1-.33-1,5.28,5.28,0,0,1-.15-.9c0-.15,0-.24.07-.26s.19,0,.37.1.55.35.94.61.69.52.93.72l1.06.88.15.12q0-.3,0-.48c0-.13-.06-.37-.12-.71s-.08-.44-.1-.53a3.13,3.13,0,0,0-.12-.4,1.72,1.72,0,0,1-.28-.18.86.86,0,0,1-.17-.23,1.23,1.23,0,0,1-.09-.63v-.39l.07-1,.13.32a1.3,1.3,0,0,0,.65.59l1.18.54Zm-.19,3.53v.12l-.06.61c0,.15,0,.28-.05.41s0,.25-.08.38l1.31-.67Z"/>
  <path class="cls-7" d="M66.9,24.27l0,.46.07.17L67.5,26c.11.2.24.48.41.82s.29.57.35.71A12.62,12.62,0,0,1,69.18,30a7.4,7.4,0,0,1,.11,2.19L69,31.43c-.12-.28-.23-.52-.34-.74s-.23-.47-.42-.85-.31-.66-.41-.84l-1.23-2.4-1-1.85-.16-.3V21.81Z"/>
  <path class="cls-7" d="M72.09,30.2a3.65,3.65,0,0,1-.61.21.93.93,0,0,1-.42-.05,1.53,1.53,0,0,1-.55-.41,2.54,2.54,0,0,1-.47-.73,8.83,8.83,0,0,1-.59-2.43c0-.21,0-.43,0-.64s0-.43,0-.63c0-.52.12-.82.32-.91s.56.07,1,.5a9,9,0,0,1,.73.84,10.5,10.5,0,0,1,.78,1.18,13.55,13.55,0,0,1,.67,1.3,10.58,10.58,0,0,1,.68,2.3A8.74,8.74,0,0,1,73.7,33c0,.48-.18.77-.38.86s-.42,0-.79-.27a4.94,4.94,0,0,1-.57-.45c-.17-.14-.42-.4-.74-.73l-.14-.14h.11a1.66,1.66,0,0,0,.66-.1,1.19,1.19,0,0,0,.67-.85,2.56,2.56,0,0,0,.11-.6,3.89,3.89,0,0,0,0-.71Zm-1.65-3.61c-.12.05-.18.18-.19.38a1.47,1.47,0,0,0,.12.67c.15.34.34.46.58.36l.24-.11.35-.14C71.06,26.87,70.69,26.48,70.44,26.59Z"/>
  <polygon class="cls-7" points="76.55 21.71 77.27 22.24 77.58 20.97 76.25 19.93 76.04 20.81 75.31 20.25 75.05 21.49 76.36 22.55 76.55 21.71"/>
  <path class="cls-7" d="M80.77,25.48a11.16,11.16,0,0,0-.43-2.05,6.89,6.89,0,0,0-.58-1.2,4.77,4.77,0,0,0-.77-1l-.12,2.1a5,5,0,0,1,.95,1.32l-3.3,1.14a1.35,1.35,0,0,1-.54.1.65.65,0,0,1-.4-.17,2.84,2.84,0,0,1-.79-1.28,9.23,9.23,0,0,1-.35-1.31,8.41,8.41,0,0,0,.07,1.75,8.92,8.92,0,0,0,.4,1.8,3.73,3.73,0,0,0,.66,1.22,1.19,1.19,0,0,0,.78.49,1,1,0,0,0,.36-.05l.34-.11,3.86-1.35c0-.26,0-.48-.06-.65S80.81,25.79,80.77,25.48Z"/>
  <path class="cls-7" d="M82.72,23.74s-.09,0-.14-.1a.65.65,0,0,1-.11-.22c0-.07-.08-.25-.15-.5l-1.95-6.68-.5,2.32L81.73,25l.1.3.13.45c.15.52.41.73.79.62l.29-.09,2.41-.68.11-1.08,2.8,1.21c0-.41.06-.77.08-1.05s0-.78,0-1.11a5.75,5.75,0,0,0-.07-1.24A6.9,6.9,0,0,0,88,21.14a12.58,12.58,0,0,0-.69-1.29,3.3,3.3,0,0,0-.66-.8.68.68,0,0,0-.55-.21c-.17,0-.3.25-.41.61s-.17.54-.23.79-.13.75-.25,1.54L85,22.92l0,.23m.94-.84,0-.12.08-.38a3,3,0,0,1,.14-.47,1.43,1.43,0,0,1,.11-.31l0-.06s0,0,.08,0,.41.14.67.57a5.75,5.75,0,0,1,.6,1.54Z"/>
  <path class="cls-7" d="M91.7,21.65a9,9,0,0,0-1-2.37c-.4-.65-.75-1-1-.91s-.38.31-.51.82a5.49,5.49,0,0,0-.12.61c0,.21-.07.44-.09.64A8.57,8.57,0,0,0,89,23a2.66,2.66,0,0,0,.31.81,1.48,1.48,0,0,0,.44.52,1.09,1.09,0,0,0,.4.13,2.76,2.76,0,0,0,.65-.07l.54-.11a5.19,5.19,0,0,1-.11.7,3.13,3.13,0,0,1-.24.56,1.24,1.24,0,0,1-.84.7,2,2,0,0,1-.67,0l-.11,0,.11.17c.24.38.43.69.57.86a4.37,4.37,0,0,0,.46.56c.31.33.55.47.72.44s.4-.3.56-.78a9,9,0,0,0,.31-1.55,9.64,9.64,0,0,0,0-1.7v-.05l1-.2,1.07-.17.13-.63c.07.28.19.45.35.5a1.13,1.13,0,0,0,.45,0L99.34,23l.28-.8.31.73,2.51-.26,1.83-.08.16-.37,1.27,1.38.71-2.12-.85-.93-.3-.32-.13-.22a1.82,1.82,0,0,1-.12-.32,3.65,3.65,0,0,1-.07-.52c0-.21,0-.44-.07-.66l-.05-.52-.25-2.64.18.13.35-1.82-.88-.6a1.16,1.16,0,0,1-.39-.37,1.36,1.36,0,0,1-.11-.53l-.4,1.3c-.07.22-.11.34-.12.39a1.2,1.2,0,0,0,0,.31.52.52,0,0,0,.34.47l.48,5.5-1.42.07v0l-.32,0h-.06l-1.8.19.07-.26c.16-.5.26-.88.32-1.12s.1-.47.13-.72a3,3,0,0,0,0-.67,2.06,2.06,0,0,0-.47-1.22,1,1,0,0,0-1-.38,3.53,3.53,0,0,0-.7.16,5.91,5.91,0,0,0-.84.34l-.42,2.54h.07a.88.88,0,0,1,.5.12,1.46,1.46,0,0,1,.44.38,2.26,2.26,0,0,1,.23.38,4.65,4.65,0,0,1,.21.6L95.54,21a.28.28,0,0,1-.25-.05.66.66,0,0,1-.1-.33l-.1-.6-1-6.79-.79,2.29.88,5.7m-3.69.66-.25.06c-.26,0-.42-.11-.5-.48a1.72,1.72,0,0,1,0-.68q.09-.28.27-.33c.27-.05.55.41.83,1.36Z"/>
  <path class="cls-7" d="M108.39,15l-.21.42v.18l.07,1.2c0,.23,0,.54,0,.92s0,.64,0,.79a11.92,11.92,0,0,1-.17,2.62,6.9,6.9,0,0,1-.79,2.05c0-.23,0-.49,0-.78s0-.58,0-.82,0-.52,0-1,0-.73,0-.93L107.14,17,107,14.87l0-.33,1.08-2.42Z"/>
  <path class="cls-7" d="M110.7,22.48a2.87,2.87,0,0,1-.64-.05,1,1,0,0,1-.37-.22,1.41,1.41,0,0,1-.33-.59,2.8,2.8,0,0,1-.13-.86,8.77,8.77,0,0,1,.45-2.46c.07-.2.14-.41.22-.61s.16-.39.25-.57c.22-.47.44-.7.66-.7s.48.3.71.86a7.9,7.9,0,0,1,.33,1.07,12.56,12.56,0,0,1,.23,1.39,13.11,13.11,0,0,1,.08,1.47,10.35,10.35,0,0,1-.31,2.37,8.59,8.59,0,0,1-.81,2.1c-.24.42-.48.63-.7.63s-.38-.19-.61-.57a5.89,5.89,0,0,1-.34-.65c-.09-.2-.22-.53-.38-1l-.07-.18.11,0a2,2,0,0,0,.64.18,1.21,1.21,0,0,0,1-.51,3.08,3.08,0,0,0,.35-.5,4.23,4.23,0,0,0,.25-.67Zm0-4c-.13,0-.24.09-.34.27a1.43,1.43,0,0,0-.15.66c0,.38.12.56.38.57h.64C111.11,19,110.94,18.53,110.67,18.52Z"/>
  <polygon class="cls-7" points="118.71 25.19 118.28 24.4 117.46 25.42 118.23 26.93 118.79 26.22 119.21 27.03 119.98 26.01 119.25 24.49 118.71 25.19"/>
  <path class="cls-7" d="M123.31,23.49l.22,0a.7.7,0,0,0,.32,0,.31.31,0,0,0,.2-.13l.29-.32a1.54,1.54,0,0,1,1.34-.62,2.18,2.18,0,0,1,.51.14,6.17,6.17,0,0,1,.57.29l1.18-2.14a2.16,2.16,0,0,1-.68-.22,2.81,2.81,0,0,1-.56-.35,4.41,4.41,0,0,1-.6-.55l-.68-.77-.56-.71a1.27,1.27,0,0,0-.6-.5c-.15,0-.35.09-.58.37l-.48.61c-.12.15-.21.3-.29.4l-.29.43a1,1,0,0,1,.37-.05.78.78,0,0,1,.42.22,6.5,6.5,0,0,1,.52.65,6,6,0,0,0,.44.61c.08.09.21.19.37.33l-8.57-1a.17.17,0,0,1-.1-.14,1.71,1.71,0,0,1,0-.25c0-.07,0-.26,0-.51l.45-7-1.27,2L114.82,21v.32l0,.47c0,.53.14.82.53.84l.3,0,1.64.11,1.36.14.4-.71.07.75"/>
  <polyline class="cls-7" points="119.99 21.54 119.83 18.06 118.83 19.46 118.9 21.43"/>
  <polygon class="cls-7" points="123.45 25.76 124.15 27.27 124.98 26.3 124.29 24.75 123.45 25.76"/>
  <polygon class="cls-7" points="143.71 20.87 143.31 19.24 142.29 20.06 142.71 21.69 143.71 20.87"/>
  <polygon class="cls-7" points="154.38 23.8 153.61 24.29 153.5 23.37 152.42 24.07 152.6 25.75 153.33 25.29 153.48 26.17 154.59 25.49 154.38 23.8"/>
  <path class="cls-7" d="M131.08,22.44a8.91,8.91,0,0,0,0-2.57c-.11-.76-.3-1.18-.57-1.23s-.47.13-.78.54a4.8,4.8,0,0,0-.36.52,6.26,6.26,0,0,0-.34.55,8.37,8.37,0,0,0-.94,2.32,2.77,2.77,0,0,0-.05.86,1.6,1.6,0,0,0,.21.66,1,1,0,0,0,.31.28,2.25,2.25,0,0,0,.62.18l.53.12a3.92,3.92,0,0,1-.38.61,2.55,2.55,0,0,1-.44.41,1.2,1.2,0,0,1-1,.31,2.18,2.18,0,0,1-.59-.3l-.1-.07,0,.19c.07.46.13.81.18,1a5.84,5.84,0,0,0,.2.7c.15.43.32.65.49.69s.49-.12.82-.5a8,8,0,0,0,.9-1.3,9.36,9.36,0,0,0,.71-1.54v0l3.09.76.24-.44c.1-.18.24-.44.4-.79l.45-1a4.32,4.32,0,0,0,.23-.54c.06-.16.11-.35.17-.58l0-.11.08-.39.1-.5.55-2.58.15.17.83-1.56-.65-.81-.15-.22A.7.7,0,0,1,136,16a1.93,1.93,0,0,1,0-.26c0-.07,0-.17.07-.32l-.77,1.11-.17.24a1,1,0,0,0-.2.39.54.54,0,0,0,.11.53l0,0-1.14,5.39m-3.71-.89-.36-.08-.26-.05c-.25-.06-.34-.26-.26-.64a1.44,1.44,0,0,1,.29-.61c.13-.15.25-.22.38-.2S130.31,21.25,130.19,22.24Z"/>
  <path class="cls-7" d="M158.27,25.2l-.1-.24a.77.77,0,0,1,0-.31,2.33,2.33,0,0,1,.06-.25,1.61,1.61,0,0,1,.15-.29l-1,.9-.22.2a1.07,1.07,0,0,0-.28.33.55.55,0,0,0,0,.54l0,.05-2.32,5-2.47-1.25.7-2.42-1.42,1-.27,1-3.19-1.33v-.41l0-.29,0-.5-.37-4.15,2.72-.1,1.4-1.79-4.13.09-1.33,1.78-.11.15-.11.15-.1.16a.84.84,0,0,0-.05.48l0,.15.13.88.26-.23.19,3-4.34-1.8.43-2.48-1.31,1.13-.16,1-1.33-.46h0s-1.38-.46-1.39-.42a9.11,9.11,0,0,0,.23-2.56c-.05-.76-.22-1.19-.47-1.27s-.49.09-.83.48c-.14.15-.27.32-.4.49s-.26.35-.38.52a8.81,8.81,0,0,0-1.12,2.24,2.78,2.78,0,0,0-.11.86,1.48,1.48,0,0,0,.15.67,1.25,1.25,0,0,0,.29.31,2.72,2.72,0,0,0,.61.22l.52.16a4.69,4.69,0,0,1-.42.58,3.35,3.35,0,0,1-.47.38,1.24,1.24,0,0,1-1.07.22,1.86,1.86,0,0,1-.57-.35l-.09-.07,0,.19c0,.46.06.82.1,1a4.54,4.54,0,0,0,.15.71c.11.43.26.67.43.72s.49-.08.85-.43a8.29,8.29,0,0,0,1-1.22,10.25,10.25,0,0,0,.82-1.49l0,0,1.09.33,1.49.52.56-.6-.11.75,5.61,2.16.43-.53.08.74L150,31.6l.62-.53-.2.74,3.32,1.67.33-.38c.13-.16.33-.38.56-.69l.66-.82a4.69,4.69,0,0,0,.35-.47c.08-.15.18-.32.29-.54l.05-.09.16-.36.22-.48,1.12-2.38.1.2,1.17-1.33Zm-20.84-1.07-.36-.11-.25-.08c-.25-.07-.32-.28-.21-.65a1.44,1.44,0,0,1,.33-.58c.14-.15.27-.21.39-.17S137.62,23.15,137.43,24.13Z"/>
  <path class="cls-7" d="M159.92,28.29l-.39.26-.09.16-.55,1.07c-.1.2-.25.47-.43.8l-.37.7a12,12,0,0,1-1.47,2.19,7.07,7.07,0,0,1-1.71,1.36c.12-.19.26-.41.4-.66s.29-.5.41-.72.25-.45.45-.83.35-.64.44-.82l1.23-2.4.94-1.86.15-.3,2.15-1.54Z"/>
  <path class="cls-7" d="M163.68,35.72a10.58,10.58,0,0,1-.9,1.78,14,14,0,0,1-1.48,1.87l-.74.8a5,5,0,0,1-1.52.27,1.87,1.87,0,0,1-1.11-.25,1.37,1.37,0,0,1-.53-1.38,4.49,4.49,0,0,1,.76-2.11,18.57,18.57,0,0,1,2.91-3.3c-.6.78-1.08,1.44-1.43,2a4.22,4.22,0,0,0-.71,1.75,1.1,1.1,0,0,0,.45,1.08,1.5,1.5,0,0,0,.93.17,3.58,3.58,0,0,0,1.27-.39,11.27,11.27,0,0,0,.69-1.62,8.17,8.17,0,0,0,.39-1.53l1.59-1A10.76,10.76,0,0,1,163.68,35.72Zm-1.09-2.42,0-1.68,1.17-.57v1.68Z"/>
  <path class="cls-7" d="M166.13,41.25l-1.2-.84,0,0a10.39,10.39,0,0,1-1.25,1.15,7.88,7.88,0,0,1-1.34.85c-.45.22-.77.26-.95.14s-.21-.37-.18-.82a6.58,6.58,0,0,1,.08-.72c0-.22.12-.57.23-1l0-.19.06.1a1.88,1.88,0,0,0,.43.5,1.21,1.21,0,0,0,1.08.13,3.25,3.25,0,0,0,.57-.22,4.33,4.33,0,0,0,.59-.41l-.45-.31a2.6,2.6,0,0,1-.5-.41,1,1,0,0,1-.18-.38,1.44,1.44,0,0,1,.06-.69,2.52,2.52,0,0,1,.38-.77,8.46,8.46,0,0,1,1.77-1.78c.16-.13.34-.26.52-.38s.35-.23.53-.33c.45-.27.76-.33.94-.2s.24.61,0,1.35a8.74,8.74,0,0,1-1,2.36,14.05,14.05,0,0,1,1.19.83Zm-.1-4.91c-.11-.08-.24-.06-.43,0a1.56,1.56,0,0,0-.5.46c-.22.31-.21.53,0,.68l.21.15.31.22C166.11,37,166.25,36.49,166,36.34Z"/>
  <path class="cls-7" d="M165.72,41l1.5-2,1.41,1.07.46-.89,1.59-.66-1.18,2.22,1.06.82-1.5,2-1.59-1.22.34-.68-.72.39Zm6.43-3.76a2.69,2.69,0,0,0-.37-.16l-.37-.06a1.65,1.65,0,0,0-.54.05,3.74,3.74,0,0,0-.7.28,5.2,5.2,0,0,1,.54-.53,2.35,2.35,0,0,1,.55-.35c-.15-.25-.08-.56.2-.94a3.22,3.22,0,0,1,.74-.62,2.71,2.71,0,0,1,.9-.43.78.78,0,0,1,.61.14c.22.17.27.34.14.51a2.44,2.44,0,0,1-.36.3l-.4.29a1,1,0,0,0-.1-.21.42.42,0,0,0-.15-.19.71.71,0,0,0-.74,0,1.42,1.42,0,0,0,.08.6,1,1,0,0,0,.31.46.86.86,0,0,0,.49.15Z"/>
  <path class="cls-7" d="M171.41,45.46l.38-.8-.84.42-2.24-1.85,1.57-1.9,2.21,1.82.82-1.74,1.54-.74-1.47,3.21.09.08-1.57,1.9-.09-.07Z"/>
  <path class="cls-7" d="M174.47,44.86l.9-1.7,1.56-.68-1.59,3.16.75.67a5.15,5.15,0,0,0,.69-1.47l1.9-.91a5.55,5.55,0,0,1-.52,1.17,7.2,7.2,0,0,1-.79,1.1,6.29,6.29,0,0,1-.76.72l-.82.62-.7.52-.43.28-1.36-1.22.41-.77-.86.37L171.6,45.6l1.63-1.86ZM178,41.74l.12-.88-.83.23.29-1.66,1.22-.36-.14.9.88-.24-.27,1.67Zm1.32-2.49.24-1.67,1.25-.37-.26,1.65Z"/>
  <path class="cls-7" d="M70.42,196.29l-3.2-2.13.56-1.37-1.22.57-3-2.69,2-1.62a1.33,1.33,0,0,1,1-.29l2.7.25.15-.39,2.22-.3L69.78,193l2,1.32Zm-1.61-6.08L66.5,190l1.74,1.57Zm3.7-3.19-.31-1.09-1.07.17-.47-2,1.54-.27.3,1.1,1.1-.16.52,2Z"/>
  <path class="cls-7" d="M70.31,196.15,71.44,194l2.68,1.42.19-1,2-.62-.53,2.49,2,1.07-1.14,2.15-3-1.6.13-.76-.84.38ZM72,198.71l.42,1,1-.28.68,2-1.51.42-.4-1.06-1.09.28-.72-2Z"/>
  <path class="cls-7" d="M76.45,199.41l.94-2.24,2.79,1.18.11-1,1.93-.79-.31,2.53L84,200l-1,2.24-3.16-1.33.07-.77-.81.46Zm5.92-4.36-.93-1.89,1.51-.55.89,1.89Z"/>
  <path class="cls-7" d="M85.84,200.56l.19-.16,1.06-.77,1.42-1c.26-.16.55-.31.88-.47a1.41,1.41,0,0,1,1-.18,1.33,1.33,0,0,1,.69.56,3,3,0,0,1,.46,1.1,8.49,8.49,0,0,1,.17,1.51,4.1,4.1,0,0,1-.1,1.24,3.07,3.07,0,0,1-.73,1c-.23.26-.51.54-.82.85l-.83.78-3.42-3-.89.78-2.06-.64.72-2.32Zm4.24.19c-.1-.52-.31-.84-.62-.94l-.15,0-.08,0a1.71,1.71,0,0,0-.4.16,3.49,3.49,0,0,0-.52.28l-.37.24-.11.07L90,202.41A3.55,3.55,0,0,0,90.08,200.75Z"/>
  <path class="cls-7" d="M97.39,194.35l-.65-.07a2.49,2.49,0,0,0-.54,0,3.34,3.34,0,0,0-.82.18,3.13,3.13,0,0,0-.79.47,2.37,2.37,0,0,1,.87-1.16.81.81,0,0,1-.47-1,2.34,2.34,0,0,1,.58-.82,2.55,2.55,0,0,1,1-.65,1.81,1.81,0,0,1,1,0c.46.12.66.28.61.48A1.65,1.65,0,0,1,98,192l-.12.16-.34.4a2,2,0,0,0-.32-.21,1.74,1.74,0,0,0-.38-.14,1.27,1.27,0,0,0-.55,0,1.49,1.49,0,0,0-.54.17,2,2,0,0,0,.59.6,2.78,2.78,0,0,0,.84.38l.35.06a3,3,0,0,0,.48,0Z"/>
  <path class="cls-7" d="M100.67,199.8l-.22-.27a9.32,9.32,0,0,1-.89.87c-.38.31-.77.64-1.2.94l.61,1.29.1.21.14.38a1,1,0,0,1,.1.51,2.86,2.86,0,0,1-.43.94l-.17.27L98,206.09l-5.1-1,.85-2.46.34-.21,1.09-.64c.16-.09.32-.21.49-.31s.27-.21.51-.38l.16-.11-.18-.25-.49-.7-.71-.89-.12.08c-.17.12-.29.17-.39.15a.25.25,0,0,1-.16-.1,2.71,2.71,0,0,1-.25-.43,5.18,5.18,0,0,1-.4-.92.94.94,0,0,1,0-.49,3.18,3.18,0,0,1,.45-.94,4.68,4.68,0,0,1,.64-.75.42.42,0,0,1,.35-.13.82.82,0,0,1,.41.34,11.5,11.5,0,0,1,.75,1.11c.28.48.5.87.65,1.19.24.5.45,1,.66,1.39l.1.2a4.11,4.11,0,0,0,.4-.36c.09-.11.27-.3.5-.59s.3-.37.36-.46a1.53,1.53,0,0,0,.19-.37,1.53,1.53,0,0,1-.22-.33.52.52,0,0,1,0-.28c0-.16.18-.33.46-.53l.38-.26,1-.66-.12.33a1.07,1.07,0,0,0,.38.89l1.14,1.24Zm-3.56,2.39-.12.08-.65.4-.46.25-.46.21,2.47.47Z"/>
  <path class="cls-7" d="M104.87,199.47l-.41.36,0,.18,0,1.19c0,.22,0,.52-.06.9s0,.63,0,.78a7.49,7.49,0,0,1-.63,2.53,6.15,6.15,0,0,1-1.61,1.84c0-.23.08-.48.12-.76s.07-.56.1-.8,0-.51.06-.93.06-.72.07-.91l.1-2.66.08-2.06v-.33l2.15-2.15Z"/>
  <path class="cls-7" d="M118.17,207l-3.85.11-.33-1.45-.67,1.17-4-.47.74-2.49a1.26,1.26,0,0,1,.61-.8l2.36-1.36-.1-.4,1.63-1.53,1.15,4.86,2.39-.07Zm-3.66-8.78-.89-.71-.76.76-1.56-1.37,1.1-1.11.88.72.81-.77,1.6,1.37Zm-1.18,4.74-2,1.18,2.33.28Z"/>
  <path class="cls-7" d="M128.46,205.42l-3,.45-.47,1.66-4.47-1.74-.42.9-2,.31-.37-2.4,2.73-.42a4.62,4.62,0,0,1,.25-1,5.69,5.69,0,0,1,.52-1,3.39,3.39,0,0,1,1.13-1.13,4.1,4.1,0,0,1,1.56-.59,1.58,1.58,0,0,1,1,.11.69.69,0,0,1,.25.22,2,2,0,0,1,.13.48l.08.43.27,1.78,2.44-.38Zm-4.2-2.14,0-.25c-.06-.4-.36-.57-.87-.49a1.89,1.89,0,0,0-.87.32,2.47,2.47,0,0,0-.68.8l2.68,1.08Z"/>
  <path class="cls-7" d="M141.23,199l.73,2.32-13.34,4.22-.73-2.32,2.31-.73.67-.86L129,197.13c-.33,0-.52-.12-.6-.36a1.12,1.12,0,0,1,.07-.64l.44-1.54a1.2,1.2,0,0,0,.31.57,2.29,2.29,0,0,0,.77.18l.53,0,.91.07-.18,1.84-.36,0,.6,1.5.14.44a3,3,0,0,1,.13,1.28l.29-.35.3-.37q.34-.42.72-.84l1-1.11a4.11,4.11,0,0,1,.59-.56,1.32,1.32,0,0,1,.44-.26,2.08,2.08,0,0,1,.64-.06,3.16,3.16,0,0,1,.78.15,4.59,4.59,0,0,1,1.41.73,2.15,2.15,0,0,1,.77,1,1.85,1.85,0,0,1,.09.46c0,.19,0,.33,0,.44v0Zm-5.11.25a2,2,0,0,0-1.37-.13,2.65,2.65,0,0,0-1,.8l-.76.82a7.27,7.27,0,0,0-.48.6l-.43.56,5.35-1.7A3.3,3.3,0,0,0,136.12,199.23Zm-1.75-3.52-1.93-.84.77-1.39,1.93.85Z"/>
  <path class="cls-7" d="M141.93,193.18l-2-.6.6-1.48,2,.62Zm2.07,1.75a3.7,3.7,0,0,1,.78,1.1,6.27,6.27,0,0,1,.43,2,14.34,14.34,0,0,1,.06,1.44l-3.47,1.59-1-2.21,3-1.38a3.54,3.54,0,0,0-1.37-1.06l.46-2.32A4,4,0,0,1,144,194.93Z"/>
  <path class="cls-7" d="M144.68,187c-.24.15-.41.27-.54.37a2.28,2.28,0,0,0-.4.37,3,3,0,0,0-.5.66,3.66,3.66,0,0,0-.3.87,2.32,2.32,0,0,1-.08-1.44.81.81,0,0,1-1-.46,2,2,0,0,1-.1-1,2.58,2.58,0,0,1,.31-1.12,1.8,1.8,0,0,1,.76-.67q.65-.31.78,0a1.86,1.86,0,0,1,0,.28v.72a2.84,2.84,0,0,0-.38.05,1.74,1.74,0,0,0-.38.14,1.45,1.45,0,0,0-.44.34,1.26,1.26,0,0,0-.29.48,1.86,1.86,0,0,0,.83.07,2.71,2.71,0,0,0,.88-.26,1.81,1.81,0,0,0,.31-.18,2.37,2.37,0,0,0,.35-.33Z"/>
  <path class="cls-7" d="M150.7,189l-.34-.07a10.46,10.46,0,0,1-.11,1.24c-.09.48-.18,1-.32,1.49l1.31.59.21.1.36.2a.92.92,0,0,1,.4.32,3,3,0,0,1,.28,1l0,.32.22,1.32-4.5,2.58-.95-2.43.12-.38.41-1.19c.07-.17.12-.37.18-.56s.06-.33.14-.62l.05-.18-.3-.07-.82-.22-1.12-.23,0,.15c-.06.2-.11.32-.2.37a.25.25,0,0,1-.19,0,2.54,2.54,0,0,1-.47-.16,5.31,5.31,0,0,1-.9-.44,1,1,0,0,1-.35-.35,2.85,2.85,0,0,1-.27-1,4.1,4.1,0,0,1,0-1,.39.39,0,0,1,.17-.32.91.91,0,0,1,.54,0c.33.07.77.21,1.29.37a12.82,12.82,0,0,1,1.27.49l1.4.63.21.09c0-.23.06-.41.07-.54s0-.41,0-.78,0-.47,0-.57a2.62,2.62,0,0,0-.1-.41,2,2,0,0,1-.39-.11.55.55,0,0,1-.2-.2,1,1,0,0,1,0-.7l.12-.45.35-1.16.12.33a1.06,1.06,0,0,0,.86.44l1.68.2Zm-1.17,4.12,0,.14-.24.72c-.06.18-.12.33-.18.49s-.14.3-.22.47l2.18-1.25Z"/>
  <path class="cls-7" d="M153.7,186l-.07.54.1.15.73.94c.14.17.31.42.54.72s.38.5.46.63a7,7,0,0,1,1.16,2.33,5.75,5.75,0,0,1,0,2.44l-.39-.65c-.16-.26-.31-.48-.45-.68l-.55-.75c-.25-.33-.42-.58-.55-.73l-1.64-2.1-1.27-1.61-.22-.26.25-3Z"/>
</svg>