<svg id="Layer_1" data-name="Layer 1" xmlns="http://www.w3.org/2000/svg" viewBox="0 0 17 17"><defs><style>.cls-1{fill:#fff;}.cls-2{fill:none;stroke:#fff;stroke-miterlimit:10;stroke-width:0.25px;}</style></defs><title>icons</title><path class="cls-1" d="M14.75,5.42A1.55,1.55,0,0,0,13.3,4.14a63.37,63.37,0,0,0-9.14,0A1.54,1.54,0,0,0,2.68,5.43a8.74,8.74,0,0,0-.19,1.44,18.82,18.82,0,0,0,.17,4.56,1.54,1.54,0,0,0,1.57,1.36c1.48.08,3,.14,4.46.2s3-.12,4.45-.2a1.56,1.56,0,0,0,1.66-1.52c.11-1.47.13-2.95.14-4.42A6.31,6.31,0,0,0,14.75,5.42ZM11.17,8.83C10,9.58,8.8,10.33,7.6,11.06c-.34.21-.65,0-.66-.44,0-.71,0-1.41,0-2.12s0-1.41,0-2.12c0-.54.32-.72.77-.44l3.43,2.14A.41.41,0,0,1,11.17,8.83Z"/><circle class="cls-2" cx="8.69" cy="8.48" r="8.07"/></svg>