<svg id="Layer_1" data-name="Layer 1" xmlns="http://www.w3.org/2000/svg" viewBox="0 0 101.5 101.5"><defs><style>.cls-1{fill:#000576;stroke:#fff;stroke-miterlimit:10;stroke-width:1.5px;}.cls-2{fill:#fff;}</style></defs><title>new-services</title><rect class="cls-1" x="0.75" y="0.76" width="100" height="100" rx="50"/><path class="cls-2" d="M56.58,37.48l0,1.5H55.08V37.5Z"/><path class="cls-2" d="M55.58,35.48l0,1.5H54.08V35.5Z"/><path class="cls-2" d="M54.58,37.48l0,1.5H53.08V37.5Z"/><path class="cls-2" d="M80.84,30.75h-2v-.61h.35c0-1.28.43-1.93,1.28-1.93h.32v.61q-1,0-1,.69v.63h1Z"/><path class="cls-2" d="M57.76,39.65a22.68,22.68,0,0,1-.37,4.74c-.41.77-1.32,1.15-2.73,1.15H50.73V43.48A2.32,2.32,0,0,1,53,41.2V39.68a3.84,3.84,0,0,0-3.78,3.8V47h6.23a3.61,3.61,0,0,0,2.67-1.12,3.65,3.65,0,0,0,1.11-2.66V39.68l-.1,0Z"/><path class="cls-2" d="M77.52,39.68H71.87v1.49H76v2.08a2.18,2.18,0,0,1-.68,1.62,2.2,2.2,0,0,1-1.61.67H67.46a3.59,3.59,0,0,0,.8-2.29V39.68H61.14V42.5h1.49V41.17h4.14v2.08a2.29,2.29,0,0,1-2.29,2.29H61.14V47h12.6a3.25,3.25,0,0,0,3.2-1.76,9,9,0,0,0,.61-3.76c0-.24,0-.55,0-.94Z"/><rect class="cls-2" x="79.12" y="32.18" width="1.49" height="14.85"/><path class="cls-2" d="M67,55.93H65.84l-2.28-4.62v4.62H62.41V49h1.15l2.28,4.61V49H67Z"/><path class="cls-2" d="M71.18,54.87a.92.92,0,0,1-.36.75,2,2,0,0,1-1.18.31,1.82,1.82,0,0,1-1.24-.34A1.7,1.7,0,0,1,68,54.26V52.07a1.74,1.74,0,0,1,.43-1.34,1.82,1.82,0,0,1,1.24-.34,1.91,1.91,0,0,1,1.18.32.89.89,0,0,1,.36.74v1.9h-2v1.53c0,.25.16.38.46.38a.47.47,0,0,0,.34-.12.39.39,0,0,0,.13-.27v-.74h1.09Zm-1.09-2.2V51.45a.39.39,0,0,0-.13-.27.47.47,0,0,0-.34-.12c-.3,0-.46.13-.46.37v1.24Z"/><path class="cls-2" d="M66.49,64.22a1.12,1.12,0,0,1-.48.94,2.73,2.73,0,0,1-1.69.43c-1.31,0-2-.46-2-1.38V63h1.21v1.18a.57.57,0,0,0,.22.43.73.73,0,0,0,.52.21.92.92,0,0,0,.57-.18.52.52,0,0,0,.24-.45V63c0-.41-.19-.62-.57-.64h-.22A3,3,0,0,1,62.87,62a1.08,1.08,0,0,1-.52-.86V59.82a1.15,1.15,0,0,1,.56-1,2.83,2.83,0,0,1,1.52-.36,3.75,3.75,0,0,1,1.33.18,1,1,0,0,1,.67,1v1.21H65.25V59.69c0-.31-.25-.46-.74-.46s-.79.16-.79.49V61a.56.56,0,0,0,.58.64h.21A3.14,3.14,0,0,1,66,62a1.12,1.12,0,0,1,.52.88Z"/><path class="cls-2" d="M70.6,64.58a.92.92,0,0,1-.36.75,1.94,1.94,0,0,1-1.17.31,1.85,1.85,0,0,1-1.25-.34A1.7,1.7,0,0,1,67.39,64V61.78a1.74,1.74,0,0,1,.43-1.34,1.85,1.85,0,0,1,1.25-.34,1.81,1.81,0,0,1,1.17.33.86.86,0,0,1,.36.73v1.9h-2V64.6c0,.24.15.37.45.37a.5.5,0,0,0,.35-.12.37.37,0,0,0,.12-.27v-.74H70.6Zm-1.09-2.2V61.16a.37.37,0,0,0-.12-.27.5.5,0,0,0-.35-.12c-.3,0-.45.13-.45.37v1.24Z"/><path class="cls-2" d="M73.37,61.17v.3h1.1v-.55a.7.7,0,0,0-.47-.73,2.27,2.27,0,0,0-.87-.11,1.43,1.43,0,0,0-.72.15v-.07H71.26v5.37h1.17V60.81h.66C73.28,60.81,73.37,60.93,73.37,61.17Z"/><path class="cls-2" d="M77.66,60.15v4.36a.58.58,0,0,1-.17.41.57.57,0,0,1-.41.17h-.57V60.15H75.36v5.51h1.48a2,2,0,0,0,2-2V60.15Z"/><path class="cls-2" d="M81.26,65.53H80V60.16h1.22Z"/><path class="cls-2" d="M85.44,64.58a.92.92,0,0,1-.36.75,2,2,0,0,1-1.18.31,1.82,1.82,0,0,1-1.24-.34A1.7,1.7,0,0,1,82.23,64V61.78a1.74,1.74,0,0,1,.43-1.34,2.35,2.35,0,0,1,2.42,0,.86.86,0,0,1,.36.73v.74H84.35v-.74a.35.35,0,0,0-.13-.27.47.47,0,0,0-.34-.12c-.3,0-.45.13-.45.37V64.6c0,.24.15.37.45.37a.47.47,0,0,0,.34-.12.35.35,0,0,0,.13-.27v-.74h1.09Z"/><path class="cls-2" d="M89.36,64.58a.92.92,0,0,1-.36.75,2,2,0,0,1-1.18.31,1.82,1.82,0,0,1-1.24-.34A1.7,1.7,0,0,1,86.14,64V61.78a1.74,1.74,0,0,1,.44-1.34,1.82,1.82,0,0,1,1.24-.34,1.84,1.84,0,0,1,1.18.33.86.86,0,0,1,.36.73v1.9h-2V64.6c0,.24.15.37.46.37a.47.47,0,0,0,.34-.12.39.39,0,0,0,.13-.27v-.74h1.09Zm-1.09-2.2V61.16a.39.39,0,0,0-.13-.27.47.47,0,0,0-.34-.12c-.31,0-.46.13-.46.37v1.24Z"/><path class="cls-2" d="M91.78,63.11h-.11c-.89,0-1.4-.29-1.52-.86h0c0-.43,0-.68,0-.76a1.45,1.45,0,0,1,.49-1.11,1.93,1.93,0,0,1,1.17-.29,1.85,1.85,0,0,1,1.19.33.87.87,0,0,1,.34.73v.74H92.26v-.74a.36.36,0,0,0-.14-.27.47.47,0,0,0-.34-.12c-.31,0-.46.13-.46.37v.93c0,.25.12.38.36.38h.12a1.87,1.87,0,0,1,1.17.31.83.83,0,0,1,.36.71V64a1.7,1.7,0,0,1-.43,1.33,1.79,1.79,0,0,1-1.23.34,2,2,0,0,1-1.19-.31.93.93,0,0,1-.34-.75v-.74h1.07v.74a.36.36,0,0,0,.14.27.46.46,0,0,0,.33.12c.31,0,.47-.13.47-.37V63.49A.34.34,0,0,0,91.78,63.11Z"/><path class="cls-2" d="M76.16,50.42v4.47a.5.5,0,0,1-.16.36.49.49,0,0,1-.36.15h-.53v-5h-1v4.47a.49.49,0,0,1-.15.36.51.51,0,0,1-.37.15H73v-5H72v5.51h1.35a1.53,1.53,0,0,0,.74-.17v.17h1.35a1.79,1.79,0,0,0,1.78-1.79V50.42Z"/><path class="cls-2" d="M81.4,57.36l0,1.5H79.9V57.38Z"/><path class="cls-2" d="M15.46,62.69c-.4.77-1.31,1.16-2.73,1.16H8.8V61.79a2.34,2.34,0,0,1,2.29-2.29V58a3.62,3.62,0,0,0-2.65,1.12,3.66,3.66,0,0,0-1.13,2.68v3.55h6.24a3.82,3.82,0,0,0,3.78-3.78V57.82H15.84A22.53,22.53,0,0,1,15.46,62.69Z"/><path class="cls-2" d="M23.82,59.18v1.18a5.36,5.36,0,0,1-.4,2.39,2.06,2.06,0,0,1-2,1.1h-.71V50.6H19.22V65.34h2.67v0a3.73,3.73,0,0,0,1.93-.77v.8h3.34a3.81,3.81,0,0,0,3.78-3.78V58H23.82Zm1.49.3h4.14v2.08a2.36,2.36,0,0,1-2.29,2.29H25.31Z"/><path class="cls-2" d="M54.15,61.56a2.23,2.23,0,0,1-.67,1.6,5.08,5.08,0,0,1-2.62.69H49.69a3.67,3.67,0,0,0,.8-2.29V58H43.58v1.49H49v2.08a2.22,2.22,0,0,1-.66,1.6,2.12,2.12,0,0,1-1.59.69h-7.6a3.67,3.67,0,0,0,.8-2.29V58H32.83v2.92h1.49V59.48h4.14v2.08a2.32,2.32,0,0,1-2.29,2.29H32.83v1.49h19a3.81,3.81,0,0,0,3.78-3.78v-11H54.15Z"/><rect class="cls-2" x="57.57" y="48.49" width="1.49" height="16.85"/><polygon class="cls-2" points="49.97 54.67 48.48 54.68 48.48 56.17 49.96 56.17 49.97 54.67"/><polygon class="cls-2" points="15.4 54.53 13.9 54.55 13.9 56.03 15.39 56.03 15.4 54.53"/><polygon class="cls-2" points="13.4 54.53 11.9 54.55 11.9 56.03 13.39 56.03 13.4 54.53"/></svg>