<?xml version="1.0" encoding="utf-8"?>
<svg id="Layer_1" data-name="Layer 1" viewBox="0 0 52 50" xmlns="http://www.w3.org/2000/svg">
  <defs>
    <style>.cls-1{fill:none;stroke-width:0.5px;}.cls-1,.cls-6{stroke:#001a63;stroke-miterlimit:10;}.cls-2,.cls-4{fill:#001a63;}.cls-2{fill-rule:evenodd;}.cls-3,.cls-6{fill:#dbdbdb;}.cls-5{fill:#fff;}.cls-6{stroke-width:0.1px;}</style>
  </defs>
  <title>Media-icon</title>
  <path class="cls-1" d="M25.68,48A20,20,0,0,1,12,13.61l-5.11-4a23.93,23.93,0,1,0,37.3-.26"/>
  <path class="cls-1" d="M44.56,9.81s5,5.7,4.83,15.56a37.35,37.35,0,0,1-1,6.12C47.35,34.7,45,41.13,35.9,46"/>
  <path class="cls-1" d="M5.92,28.17"/>
  <path class="cls-1" d="M5.92,28.17A19.84,19.84,0,0,0,25.68,48.09"/>
  <path class="cls-1" d="M49.7,24.39a24,24,0,1,1-24-24A24,24,0,0,1,49.7,24.39Z"/>
  <path class="cls-1" d="M26.86,48.34a24.16,24.16,0,0,1-25-26.46A23.9,23.9,0,0,1,7.13,9.3"/>
  <path class="cls-1" d="M16.87,45.9a19.83,19.83,0,0,0,10,2.05"/>
  <path class="cls-1" d="M6.79,9.81s-5,5.7-4.83,15.56a37.35,37.35,0,0,0,1,6.12C4,34.7,6.31,41.13,15.45,46c0,0-12-6.75-12.42-19.24a23.83,23.83,0,0,1,2.87-12Z"/>
  <path class="cls-1" d="M25.7,48.09a16,16,0,0,1-11.82-3.32,21,21,0,0,1-9.3-15.94A20.74,20.74,0,0,1,7.51,16.16l4.57-2.49"/>
  <line class="cls-1" x1="5.91" y1="14.61" x2="7.47" y2="16.21"/>
  <path class="cls-1" d="M25.68,48A20,20,0,0,0,39.32,13.61l5.11-4A23.93,23.93,0,1,1,7.13,9.3"/>
  <path class="cls-1" d="M44.56,9.81s5,5.7,4.83,15.56a37.35,37.35,0,0,1-1,6.12C47.35,34.7,45,41.13,35.9,46c0,0,12-6.75,12.42-19.24a23.83,23.83,0,0,0-2.87-12Z"/>
  <path class="cls-1" d="M25.65,48.09a16,16,0,0,0,11.82-3.32,21,21,0,0,0,9.3-15.94,20.74,20.74,0,0,0-2.93-12.67l-4.57-2.49"/>
  <line class="cls-1" x1="45.44" y1="14.61" x2="43.88" y2="16.21"/>
  <path class="cls-2" d="M36.14,37.19V36l.65.58-.61.62,0,0Zm0-1.8v-.74l.38.3-.38.44Zm0-1.88v-.16l.07.06-.07.1Zm0-3.07v-.22l.12.18-.12,0Zm0-.73v-.6l.11,0,.34.4-.45.17Zm0-.82v-.6l.72.13-.13.61-.59-.14Zm0-.88v-.58l.88.1-.08.62-.8-.14Zm0-.81v-.56l1,.05,0,.62-.91-.11Zm0-.84v-.58l.93-.05v.63Zm0-.82V25l.89-.11,0,.63-.94.07Zm0-.85V24.1l.78-.14.09.63-.87.1Zm0-.88V23.2l.57-.14.13.62-.7.13Zm0-.83v-.6l.42.17-.33.4-.09,0Zm0-1.17v-.17l.09,0-.09.14Zm0-3.17v-.05l0,0Zm0-1.33v-.63l.32.38-.32.25Zm0-1.4V14.78l.58.6-.58.53Zm1.08,12.27,1.11.19.08-.69-1.11-.13-.08.63Zm.1-.86,1.12.13.05-.69-1.13-.06,0,.62Zm1.38.14.91.12,0-.77-.92,0,0,.7Zm-1.5-3.53,1.1-.19.09.7-1.11.12-.08-.63Zm.11.9,1.12-.14,0,.7-1.12.08,0-.64Zm1.37-.15.91-.13.06.78-.92.05,0-.7Zm-1.34,1.06,1.13-.06v.7H37.35v-.63Zm1.38-.06.92-.06v.78h-.92v-.71Zm1.2-.06,1-.06v.87h-1ZM36.14,14.78v1.13l-.18.16-.32-.33v-.49l.47-.5,0,0Zm0,1.9v.63l-.41.32-.09-.11v-.76l.32-.3.18.22Zm0,1.91v.05l-.5.34v-.84l.12-.09.38.54Zm0,3.05v.17l-.19.28-.31.11v-.66l.08,0,.42.14Zm0,.74V23l-.48.12,0-.07V22.5l.42-.15.08,0Zm0,.82v.61l-.31.05-.1-.56.41-.1Zm0,.9v.59H36l-.08-.56.22,0Zm0,.85v.59h-.07L36,25l.11,0Zm0,.83v.58h-.08v-.57Zm0,.86v.56H36l0-.56Zm0,.79V28l-.2,0,.07-.56.13,0Zm0,.86v.6l-.39-.1.1-.55.29.05Zm0,.82v.6l-.06,0-.44-.15v-.44l0-.14.46.11Zm0,1.11v.22l-.39.13-.11-.06v-.64L36,30l.16.23Zm0,3.13v.16l-.33.46-.17-.13V33l.5.33Zm0,1.3v.74l-.12.14-.38-.35v-.62l.15-.18.35.27Zm0,1.38v1.16l-.5-.54v-.34l.38-.39.12.11Zm-.5-.13v-.32l.17.15-.17.17Zm0-4.6v-.45l.21.4-.21.05Zm0-3.37v-.55l.15,0-.07.55-.08,0Zm0-.76v-.56l.21,0,0,.56-.18,0Zm0-.82v-.56h.2v.56Zm0-.79V25l.17,0,0,.57Zm0-.83v-.56h.07l.07.56Zm0-3.58v-.39l.18,0-.18.35Zm0-4.8v-.2l.11.11Zm0-1.1v.49l-.18-.18v-.11l.18-.2Zm0,.9v.2l-.18.17V16l.18.18Zm0,.61v.76l-.18-.22v-.37l.18-.17Zm0,1.38V19l-.18.12v-.82l.18-.14Zm0,2.62v.39l0,.1-.13.06v-.59l.18,0Zm0,.78v.66l-.18.06v-.64l.18-.08Zm0,1V23l-.14-.48.14-.05Zm0,1.67v.56l-.18,0V24.2l.18,0Zm0,.83v.56h-.18V25l.18,0Zm0,.79v.56h-.18v-.53l.18,0Zm0,.82v.56l-.18,0v-.54Zm0,.77v.55l-.18,0v-.54l.18,0Zm0,1.76v.44l-.11,0,.11-.4Zm0,.73v.64l-.18-.08v-.62l.18.06Zm0,1v.45l-.18,0v-.6l.16.07,0,0Zm0,2.17v.82l-.18-.14v-.8l.18.12Zm0,1.54v.62L35.46,35v-.25l.18-.21Zm0,1v.32l-.18.18v-.66l.18.16Zm0,.73v.34l-.17-.17.17-.17Zm-.18-1.94v-.24l.12.1-.12.14Zm0-2.38v-.21l.1,0-.1.16Zm0-3v0h0v0Zm0-.22v-.56l.18,0-.11.54Zm0-4.82v-.57h0l.11.56-.16,0Zm0-3.67v-.12l.06.09-.06,0Zm0-2.41v-.13l.08.08Zm0-2.39v.11l-.05-.05.05-.06Zm0,.52v.55l-.39.36L35,16.8v-.86l.22-.24.26.27Zm0,1v.37l-.17-.21.17-.16Zm0,.78-.38-.47-.1.1v.89l.48-.39v-.13Zm0,.57v.82l-.22.16L35,18.89v-.24l.48-.37Zm0,1.85v.12l-.48.27v-.7l.22-.15.26.46Zm0,.59v.59L35,21.5,35,21.41v-.53l.33-.19.15,0Zm0,.9v.64l-.08,0-.2-.53.28-.14Zm0,1.73v.57L35,24v-.54l.48-.12Zm0,.85v.55l-.48.06v-.52l.48-.09Zm0,.82v.55l-.48,0v-.51l.48-.07Zm0,.79v.53H35v-.51l.48,0Zm0,.8v.54L35,27.09v-.51l.48,0Zm0,.75v.54L35,27.82V27.3l.48.06Zm0,.82v.56L35,28.62v-.53l.48.09Zm0,.76v0l-.15.52L35,29.37v-.56l.48.13Zm0,.87v.62l-.26-.12.21-.52.05,0Zm0,.93v.6l-.11,0L35,31.16v-.44l.08-.16.4.18Zm0,1V32l-.22.38L35,32.2v-.69l.48.27Zm0,1.12v.8L35,33.34V33.2l.3-.42.18.12Zm0,1.23v.24l-.32.39L35,34.62v-.87l.48.38Zm0,.64V35l-.12-.11.12-.14Zm0,.65v.66l-.19.2L35,36v-.72l.14-.14.34.3ZM35,32.72v-.14l.06.05-.06.09Zm0-2.49v-.59l.22.08-.2.52Zm0-7v-.56l.31-.11.16.54-.47.13Zm0-.84v-.57l.19.5-.19.07Zm0-3v0l0,0Zm0-3.48v.86l-.15-.15V16.1l.15-.16Zm0,1.4v.89l-.15.12v-.88l.15-.13Zm0,1.31v.24l-.11-.15.11-.09Zm0,.73v0l-.15.1v-.35l.15.21Zm0,.44v.7l-.15.09v-.7l.15-.09Zm0,1.06v.53l-.15-.3V21l.15-.08Zm0,1v.57l-.15.06V21.9l.14-.07v0Zm0,.85v.56l-.15,0v-.55l.15-.05Zm0,.76V24l-.15,0V23.5l.15,0Zm0,.82v.52h-.07l-.07-.51.14,0Zm0,.8v.51h0l0-.51Zm0,.74v.51h0v-.51Zm0,.75v.51h0l0-.5Zm0,.72v.52l-.12,0,.06-.51Zm0,.79v.53l-.15,0v-.52l.15,0Zm0,.72v.56l-.15-.05v-.55l.15,0Zm0,.83v.59l-.15-.06v-.59l.15.06Zm0,1.08v.44l-.15-.08V31l.15-.3Zm0,.79v.69l-.15-.09v-.69l.15.09Zm0,1.07v.14l-.15.2v-.43l.15.09Zm0,.62v.14l-.07-.05L35,33.2Zm0,.55v.87l-.15-.13v-.85l.15.11Zm0,1.51V36l-.15-.16v-.41l.15-.15Zm-.15,1.32v-.06l0,0,0,0Zm0-1.53v-.2l.1.1-.1.1Zm0-4.53v-.06h0l0,.05Zm0-13.43V17l.05,0-.05,0Zm0-1.6v-.05l0,0Zm0-.05v.05l0,.06v-.16l0,0Zm0,.66v.55l0-.06v-.43l0-.06Zm0,.91v.08l0,.05V17l0,.05Zm0,.46v.88l0,0v-.87l0,0Zm0,1.7v.35l0,0V19.1l0,.07Zm0,.74v.7l0,0v-.69l0,0Zm0,1.05v.15l0-.1v0l0,0Zm0,.94v.59l0,0v-.59l0,0Zm0,.86v.55l0,0v-.56Zm0,.74V24h0v-.53l0,0Zm0,4.56v.52h0v-.52Zm0,.71v.55l0,0v-.54Zm0,.81v.59l0,0v-.58l0,0Zm0,.88v.06l0,.1v-.18l0,0Zm0,.56v.06h0l0-.05Zm0,.4v.69l0,0V31.4l0,0Zm0,1.07v.43l0,.08v-.55l0,0Zm0,1.15v.85l0-.05V33.6l0,0Zm0,1.21v.2l0,.05v-.29l0,0Zm0,.56v.41l0,0v-.31l0-.05Zm0,1.11v.06l0,0v-.15l0,.05Zm0-14.91V21.5l0,.09Zm0-6.22v.16l-.39.44V15l.39.35Zm0,.77v.43l-.21-.21.21-.22Zm0,.8-.39-.41v1l.39-.37V17Zm0,.55v.87l-.12.11-.27-.32v-.29l.39-.37Zm0,1.59v.45l-.39.27v-.74l.25-.19.14.21Zm0,.84v.69l-.15.09-.24-.41V20.2l.39-.26Zm0,1v0Zm0,.51v.11l-.39.19v-.61l.19-.11.2.42Zm0,.42v.59l-.39.14v-.56l.39-.17Zm0,.85v.56l-.18.05-.14-.49.32-.12Zm0,.75v.53h0l-.1-.5.12,0Zm0,4.53v.52l-.1,0,.09-.49Zm0,.71v.54l-.3-.1.14-.49.16.05Zm0,.8v.58L34.39,30v-.55l.39.14Zm0,.88v.18l-.17.35-.22-.12v-.6l.39.19Zm0,1v.68l-.39-.26v0l.28-.47.11.07Zm0,1.05V33l-.1.13-.29-.22v-.72l.39.26Zm0,1.15v.84l-.39-.35V33.9l.31-.37.08.07Zm0,1.21v.29l-.33.34-.06-.06v-.94l.39.37Zm0,.65v.31l-.15-.16.15-.15Zm0,1v.15l-.39.35V36l.39.45Zm-.39-3v-.18l.09.08-.09.1Zm0-2.1.08-.14-.08-.05v.19Zm0-2.74h0Zm0-.11V28l.14,0-.1.55Zm0-.76v-.55l.29,0-.07.56-.22,0Zm0-.7v-.54l.34,0,0,.56-.31,0Zm0-.7v-.54l.33,0v.56Zm0-.7v-.55l.3,0,0,.57-.34,0Zm0-.76v-.56l.2,0,.07.56-.27,0Zm0-.76v-.57h0l.11.56-.13,0Zm0-3.29v-.11l0,.08,0,0Zm0-2.16V18.6l0,.06Zm0-3.65v1l-.14.15-.31-.27v-.46l.35-.45.1.08Zm0,1.51v1l-.34.31-.11-.11V17l.44-.47Zm0,1.33v.29L34.25,18l.14-.12Zm0,.72v.09l-.45.36v-.8l.09-.08.36.43Zm0,.48v.74l-.23.16-.22-.31v-.24l.45-.35Zm0,1.12v.11l0-.08,0,0Zm0,.54v.11l-.45.26v-.64l.21-.13.24.4Zm0,.45v.61L34,22l-.09-.18v-.35l.45-.24Zm0,.9v.56h0l-.18-.47.22-.1Zm0,1.48v.57l-.45.08v-.54l.45-.11Zm0,.77v.56l-.45.05v-.53l.45-.08Zm0,.77v.55l-.45,0v-.52l.45-.06Zm0,.71v.54h-.45v-.52l.45,0Zm0,.7v.54l-.45,0V26.5l.45,0Zm0,.69v.55l-.45-.08v-.52l.45.05Zm0,.74v.57l-.45-.11v-.54l.45.08Zm0,.67-.45-.12v.56l.3.1.15-.53Zm0,.8V30l-.2-.09.18-.47Zm0,.83v.6l-.45-.24v-.27l.12-.24.33.15Zm0,.93v.19l-.2.34-.25-.16v-.62l.45.25Zm0,.62v0h0v0Zm0,.39v.72l-.45-.34v-.15l.26-.36.19.13Zm0,1.1v.18l-.31.37-.14-.12v-.78l.45.35Zm0,.61v.19L34.3,34l.09-.11Zm0,.54v.94l-.45-.46v-.57l.17-.16.28.25Zm0,1.58V37l-.1.09-.35-.46v-.45l.31-.28.14.15Zm-.45-.21v-.29l.14.17-.14.12Zm0-3.77V31.9L34,32l-.07.09Zm0-2.22v-.59l.21.08-.2.52Zm0-6.24.43-.12-.16-.54-.27.09v.57Zm0-.74v-.55l.19.48-.19.07Zm0-2.72v-.07l0,.05,0,0Zm0-3.63V16.2l.14.13Zm0-1.08v.46l-.1-.09v-.23l.1-.14Zm0,.79v.29l-.1.12v-.49l.1.08Zm0,.82v.69l-.1-.11v-.48l.1-.1Zm0,1.23v.8l-.1.08v-.79l.1-.09Zm0,1.18v.24l-.1-.14v0l.1-.07Zm0,.62v.07l-.1.06v-.27l.1.14Zm0,.42v.64l-.1.05v-.62l.1-.07Zm0,1v.35l-.1-.2v-.09l.1-.06Zm0,.86v.55l-.1,0v-.6l.08,0,0,.05Zm0,.72v.57l-.1,0v-.56l.1,0Zm0,.67v.54l-.1,0V23.7l.1,0Zm0,.74V25h-.1v-.52l.1,0Zm0,.75v.52h-.07l0-.38v-.13Zm0,.67v.52h-.08v-.51Zm0,.66V27h-.1v-.06l0-.44Zm0,.66v.52l-.1,0v-.51Zm0,.71v.54l-.1,0v-.53Zm0,.63v.56l-.1,0v-.55l.1,0Zm0,.73v.59l-.1,0v-.59l.1,0Zm0,1.11v.27l-.1-.05v0l.1-.2Zm0,.59v.62l-.1-.07v-.61l.1.06Zm0,1V32l-.1.14v-.35l.1.07Zm0,.52v.15l-.07,0,.07-.1Zm0,.52v.78l-.1-.09v-.77l.1.08Zm0,1.41v.57l-.1-.1v-.37l.1-.1Zm0,1.17v.29l-.1.09v-.49l.1.11Zm0,.63v.45l-.1-.13v-.23l.1-.09Zm-.1-2.09V34l.06,0-.06.06Zm0-4.07v0h0Zm0-12h0Zm0-2.46v.23l0,0v-.18l0,0Zm0,.57v.49l0,0v-.55l0,0Zm0,1v.48l0,0v-.42l0,0Zm0,.88h0l0,0V18l0,0Zm0,.34v.79l0,0v-.78l0,0Zm0,1.16v0Zm0,.41v.27l0,0v-.33l0,0Zm0,.63v.62l0,0v-.62l0,0Zm0,.95v.09l0-.06v0Zm0,.79v.6h0V22.3l0,0Zm0,.77v.56h0v-.56Zm0,.65v.54h0v-.54Zm0,.74V25h0v-.52Zm0,.74v0Zm0,1.76V27h0v-.06Zm0,.21v.51h0v-.5Zm0,.71v.53h0v-.53Zm0,.61V29h0v-.55Zm0,.72v.59h0v-.59Zm0,.78v0l0,.05V30Zm0,.57v0h0Zm0,.33v.61h0v-.61Zm0,1v.35l0,0v-.41l0,0Zm0,1v.77l0,0v-.76l0,0Zm0,1.09v.11l0,0v-.17l0,0Zm0,.5v.37l0,0v-.31l0,0Zm0,1v.49l0,0v-.55l0,0Zm0,.83v.23l0,0v-.17l0,0Zm0-14.14v0h0Zm0-6.52v.18l0,0v-.09l0-.05Zm0,.51v.55l0,0v-.62l0,0Zm0,1.07v.42l0,0v-.35l0,0Zm0,.82V18l0,0v-.13l0,0Zm0,.39v.78l0,0V18.4l0,0Zm0,1.5v.33l0,0v-.41l0,.05Zm0,.69v.62l0,0v-.62l0,0Zm0,.94v0h0Zm0,.58v0h0V22l0,.07Zm0,.22v.59h0v-.59Zm0,.76v.56h0v-.56Zm0,.65v.54h0v-.53Zm0,.73V25h0l0-.19v-.32Zm0,2.73v.48h0v-.22l0-.26Zm0,.68v.53h0v-.53Zm0,.62V29h0v-.55Zm0,.71v.59l0,0v-.58Zm0,.78V30l0,.07v-.17l0,0Zm0,.9v.61l0,0v-.6l0,0Zm0,.95v.41l0,.05v-.48l0,0Zm0,1v.76l0,0v-.75l0,0Zm0,1.08v.17l0,0v-.23l0,0Zm0,.56v.31l0,0v-.24l0,0Zm0,.89v.55l0,0v-.61l0,0Zm0,.89v.17l0,0v-.1Zm0-20.63v.09l0,0,0-.06Zm0,.43v.62l-.3.35V16l.09-.12.21.19Zm0,1.13v.35l-.17-.17.17-.18Zm0,.75v.13l-.3.29v-.73l.3.31Zm0,.46v.78l-.14.11-.16-.19v-.43l.3-.27Zm0,1.42v.41l-.3.2v-.66l.17-.14.13.19Zm0,.76v.62l-.11.06-.19-.34v-.14l.3-.2Zm0,1.43v.1l-.3.14v-.61l.09-.06.21.43Zm0,.3v.59l-.3.11v-.57l.3-.13Zm0,.76v.56l-.25.06-.05-.2v-.32l.3-.1Zm0,.65v.53l-.11,0-.1-.5.21-.05Zm0,.73v.32l0-.31Zm0,3v.22h0l0-.22Zm0,.41v.53l-.19-.05.09-.49Zm0,.62V29l-.3-.11v-.24l.07-.26.23.06Zm0,.71v.58l-.3-.13v-.56l.3.11Zm0,.77v.17l-.18.37-.12-.07V29.8l.3.14Zm0,.9v.6l-.3-.19v-.07l.23-.38.07,0Zm0,.95v.48l-.09.13-.21-.16v-.65l.3.2Zm0,1v.75l-.3-.27V33l.2-.25.1.09Zm0,1.07v.23l-.3.31v-.82l.3.28Zm0,.62v.24l-.12-.12.12-.12Zm0,.83V36l-.21.19L33.48,36V35l.3.35Zm0,.95v.1l0-.06,0,0Zm-.3-3.65v-.06l0,0,0,0Zm0-1.94v-.06h0Zm0-14.71v1l0,0V16l0,0Zm0,1.64v.73l0,0V17.6l0,0Zm0,1v.43l0,0V18.7l0,0Zm0,1.1v.66l0,0v-.67l0,0Zm0,1v.14l0-.05V20.8l0,0Zm0,.86v.61l0,0v-.62Zm0,.8V23h0v-.56l0,0Zm0,.73v.32l0-.11v-.2Zm0,5.49v.24h0v-.12l0-.11Zm0,.4v.56l0,0v-.55Zm0,.74v.61l0,0v-.6Zm0,.84v.06l0,.06v-.14l0,0Zm0,.54v.07l0,0,0-.05Zm0,.41v.65l0,0v-.64l0,0Zm0,1v.06l0,0v-.11l0,0Zm0,.4v.32l0,0V33l0,0Zm0,.63v.82h0v-.85l0,0Zm0,1.38v1l0,0V35l0,0Zm0-13.57v-.07l0,0,0,0Zm0-2v0l0,0Zm0-3.41v1l0,0v-1l0,0Zm0,1.57v.78l0,0v-.86l0,0Zm0,1.1v.36l0,0v-.29l0,0Zm0,.7v0l0,0v-.1l0,0Zm0,.39v.67l0,0v-.66l0,0Zm0,1v.07l0-.05,0,0Zm0,.55v.07h0V21.3l0,.05Zm0,.3v.62h0v-.61l0,0Zm0,.81V23l0,0v-.57Zm0,.72v.2l0-.12v-.07Zm0,5.59v.12h0l0-.11Zm0,.28v.55h0V29Zm0,.74v.6l0,0v-.6l0,0Zm0,.83v.14l0,0V30.6l0,0Zm0,.95v.64l0,0v-.65l0,0Zm0,1v.11l0,0v-.18l0,0Zm0,.46v.26l0,0v-.2l0,0Zm0,.56v.85l0,0v-.84l0,0Zm0,1.37v1l0-.05v-1Zm0-18.88v1l-.06.07L33,16.9v-.35l.37-.48Zm0,1.49v.86l-.3.28L33,18.64v-.7l.37-.38Zm0,1.17V19l-.14-.17.14-.12Zm0,.63L33.1,19,33,19v.72l.37-.3v-.1Zm0,.46v.66l-.16.11-.21-.3V20.1l.37-.28Zm0,1.48v.13l-.37.21V21l.15-.1.22.39Zm0,.37v.61l-.37.18v-.59l.37-.2Zm0,.8V23l-.09,0-.19-.48.28-.12Zm0,.72v.07l0-.06Zm0,5.85v.55l-.26-.11.19-.47.07,0Zm0,.73v.6l-.37-.2v-.52l0,0,.35.16Zm0,.83v.21l-.19.33L33,31V30.4l.37.2Zm0,.94v.65L33,31.9v-.1l.24-.34.13.08Zm0,1v.18l-.26.32L33,32.94v-.7l.37.29Zm0,.52v.2l-.09-.08.09-.12Zm0,.5v.84L33,34v-.59l.11-.11.26.24Zm0,1.36v1L33,35.46v-.34l.31-.27.06.06ZM33,36.56l.34-.26L33,35.88v.68Zm0-1.81V34.5l.12.14-.12.11Zm0-3.38v-.1l.05,0-.05.07Zm0-10.61v0l0,0Zm0-3.25v-.25l.12.11-.12.14Zm0-1.37.34-.42L33,15.45Zm0-.69v.69l-.17.21v-1l.17.14Zm0,1.1v.35l-.16-.15.16-.2Zm0,.71v.25l-.17.2v-.6l.17.15Zm0,.68v.7l-.17-.18v-.33l.17-.19ZM33,19v.72l-.17.14v-.7L33,19Zm0,1.06v.19L33,20.17,33,20.1Zm0,.62v0l-.17.12v-.4l.17.24ZM33,21v.63l-.17.11v-.63L33,21Zm0,.86v.59h0l-.17-.34V22l.17-.1Zm0,7.78v.52l-.17-.09V30l.17-.35Zm0,.75V31l-.17-.11V30.3l.17.1Zm0,.87v.1l-.17.24v-.46l.17.12Zm0,.53v.1l0,0,0-.06Zm0,.44v.7l-.17-.15V32.1l.17.14Zm0,1.18V34l-.17-.18V33.6l.17-.18Zm0,1.08v.25l-.17.15v-.59l.17.19Zm0,.62v.34l-.16-.2.16-.14Zm0,.76v.68l-.17.14v-1l.17.22Zm-.17-2.6v-.22l.11.11-.11.11Zm0-14.37v-.13l.07.07Zm0-3.6v1l-.19.24-.12-.09v-.83l.28-.38,0,0Zm0,1.8v.6l-.31.35v-.92L32.7,17l.17.15Zm0,1v.33l-.16-.16.16-.17Zm0,.65-.31-.32v.74l.31-.29v-.13Zm0,.42v.7l-.1.07-.21-.25v-.24l.31-.28Zm0,1.28v.4l-.31.2v-.67l.17-.12.14.19Zm0,.64v.63l-.15.08-.16-.27v-.24l.31-.2Zm0,.85v.15L32.81,22l.06,0Zm0,8v.08l0,0,0-.06Zm0,.3v.61l-.31-.2v-.17l.19-.31.12.07Zm0,.85v.46l-.1.14-.21-.15V31l.31.2Zm0,1v.69l-.31-.28v-.15l.25-.3.06,0Zm0,1-.31-.28v.75l0,0,.28-.29v-.22Zm0,.54v.23l-.12-.12.12-.11Zm0,.71v.59l-.17.15-.14-.17V34l.31.35Zm0,1.35v1l0,0-.28-.39v-.82l.12-.1.19.24ZM32.56,32v-.14l.07.06-.07.08Zm0-11.79V20.1l0,0Zm0-4.51v.83l-.21-.17V16l.21-.31Zm0,1.47v.92l-.06.07L32.35,18v-.59l.21-.27Zm0,1.32v.74l-.21.2v-.74l.19-.21Zm0,1v.24l-.11-.14.11-.1Zm0,.62v.08l-.21.17v-.51l.21.26Zm0,.31v.67l-.21.15v-.65l.21-.17Zm0,.91v.24l-.1-.17.1-.07Zm0,9.22v.17l-.07-.05.07-.12Zm0,.41v.65l-.21-.17v-.58l0,0,.19.13Zm0,.88V32l-.21.26v-.57l.21.17Zm0,.53v.15l-.07-.06.07-.09Zm0,.42v.75l-.21-.22v-.73l.21.2Zm0,1.18v.92l-.21-.28V34l.15-.14.06.08Zm0,1.56v.82L32.35,36v-.34l.21-.17Zm-.21-.19V35l.15.2-.15.12Zm0-1.6h0Zm0-15.43h0Zm0-1.3v-.32l.15.12Zm-.27,15.48.09-.09-.09-.09v.18ZM32.35,16v.35l-.16-.13.16-.22Zm0,.7V17l-.27.34v-.88l.27.22Zm0,.73V18l-.27-.24.27-.35Zm0,.88h0l-.27.3v-.55l.27.24Zm0,.37v.74l-.06.05-.21-.22v-.29l.27-.28Zm0,1.18v.51l-.27.21v-.7l.16-.15.11.13Zm0,.74v.65h0l-.26-.37v-.07l.27-.21Zm0,10.27v.58l-.27-.2h0l.27-.38Zm0,.81v.57l-.08.09-.19-.18v-.69l.27.21Zm0,.92v.73L32.08,33v-.2l.25-.26Zm0,1.14h0l-.27.23v-.55l.27.31Zm0,.3v.58l-.27-.35.27-.23Zm0,1v.32l-.27.22v-.87l.27.33Zm0,.68V36l-.16-.22.16-.12Zm-.27-16v-.11l.05.06Zm-.45,12.94.15.16.3-.31V32.3l-.45-.41v.74Zm.45-16.17v.88l-.21.26-.24-.2V17l.39-.55.06,0Zm0,1.59v.55l-.31.35-.14-.13v-.5l.3-.4.15.13Zm0,.89-.14.14.14.15v-.29Zm0,.64v.11l-.45.42v-.76l.11-.12.34.35Zm0,.28-.45.4v.08l.29.35.16-.13v-.7Zm0,.93v.07l0,0,0,0Zm0,10.44Zm0,.22v.69l-.45-.4h0l.32-.38.13.1Zm0,1.38V33l-.1-.1.1-.1Zm0,.58V34l-.15.13-.3-.39v-.5l.14-.13.31.34Zm0,1.27v.87L32,35.6,31.63,35v-.43l.24-.19.21.26Zm-.45,1.14.13-.09-.13-.2v.29Zm0-1.48v-.22l.1.13-.1.09Zm0-1.47Zm0-13.72h0Zm0-1.26v-.21l.1.08-.1.13Zm0-1.41.13-.19-.13-.1Zm0,16.12,0,0v-.74l0,0v.74Zm0-16.41v.29l0,0v-.35l0,0Zm0,.78v.43l0,0V17l0,0Zm0,.71v.21l0,0v-.27l0,0Zm0,.64v.5l0,0v-.44l0,0Zm0,.82h0l0,0v-.06l0,0Zm0,.21v.76l0,0v-.75l0,0Zm0,.91v.08l0,0v0l0,0Zm0,11.47h0Zm0,1.14h0l0,0v-.07l0,0Zm0,.33v.5l0,0v-.44l0,0Zm0,.92v.22l0,0v-.27l0,0Zm0,.49V35l0,0v-.36l0,0Zm0,.92v.29l0,0v-.35Zm-.45-3.37.42.44v-.74l-.06-.06-.36.36Zm.42-16v.35l-.41.59-.29-.2v-.38l.36-.6.34.24Zm0,.84-.16.23.16.14V17Zm0,.65v.27l-.41.52-.29-.24V18l.4-.58.3.25Zm0,.69-.2.27.2.17v-.44Zm0,.77v.06l-.54.61-.16-.14v-.46l.32-.41.38.34Zm0,.26-.46.48.36.37.1-.1v-.75Zm0,.91v0Zm0,12.54v.07l-.38.33-.32-.41v-.45l.16-.15.54.61Zm0,.39-.2.18.2.26v-.44Zm0,.87v.27l-.3.24L30.9,34v-.21l.29-.24.41.52Zm0,.55V35l-.16-.23.16-.13Zm0,.85-.41-.59-.29.2v.39l.36.59.34-.24v-.35Zm-.7-.65.16-.12-.16-.24v.36Zm0-1.35.15-.12-.15-.21v.33Zm0-14.64.15-.2-.15-.13v.33Zm0-1.32.16-.24-.16-.11v.35Zm0-1.45.15-.28-.15-.08v.36Zm0-1.87v-.45a2,2,0,0,0,0-1.36V12A2.07,2.07,0,0,1,30.9,14.21Zm0-2.25v.44l-.11-.21v-.37a1.34,1.34,0,0,0,.11.14Zm0,1.8v.45c0,.06-.07.12-.11.17V14c0-.09.07-.17.11-.25Zm0,2v.36l-.11.19v-.6l.11.05Zm0,.81v.38l-.11-.07V16.7l.11-.17Zm0,.65v.35l-.11.16V17.1l.11.08Zm0,.81v.22l-.1-.08.1-.14Zm0,.53v.33l-.11.14v-.55l.11.08Zm0,.67v.46l-.11-.1v-.22l.11-.14Zm0,13.18v.45l-.11-.13v-.23l.11-.09Zm0,.79v.33l-.11.08V33l.11.13Zm0,.65V34l-.1-.14.1-.07Zm0,.67v.36l-.11.07v-.58l.11.15Zm0,.62v.39l-.11-.18v-.13l.11-.08Zm-.11,1.23v-.61l.06.1-.05.52Zm0-24.51v.37a1.8,1.8,0,0,0-.49-.54V11.4a2.18,2.18,0,0,1,.49.42Zm0,2.19v.37a3.85,3.85,0,0,1-.49.61v-.25a3.73,3.73,0,0,0,.49-.73Zm0,1.66v.6l-.24.43-.25-.14v-.65l.18-.4.31.16Zm0,1v.14l-.06,0,.06-.1Zm0,.4v.59l-.23.32-.26-.18v-.34l.31-.51.18.12Zm0,1.34V19l-.27.34-.22-.18v-.38l.32-.47.17.14Zm0,.89v.22l-.1-.09.1-.13Zm0,13.13v.23l-.1-.13.1-.1Zm0,.57v.54l-.17.14-.32-.47v-.37l.22-.18.27.34Zm0,1.3v.58l-.18.13-.31-.51v-.34l.26-.19.23.33Zm0,.85v.13l-.06-.09.06,0Zm0,.54v.61l-.48-.21v-.66l.25-.14.24.4Zm-.49-.51.13-.08-.13-.23v.31Zm0-1.32.14-.1-.14-.21v.31Zm0-15.45.14-.21-.14-.1v.31Zm0-1.32.13-.24-.13-.07v.31Zm0-3.28v-.46h.06a.24.24,0,1,1,0,.48Zm0-.84v-.36a.23.23,0,0,1,.17-.08.26.26,0,0,1,.25.26.25.25,0,0,1-.25.25A.22.22,0,0,1,30.3,13Zm0-.82a.24.24,0,0,0,0-.09.25.25,0,0,0,0-.1Zm0-.78v.25l-.24-.14v-.23l.24.12Zm0,.59v.19a.25.25,0,0,1-.23.16h0v-.51h0a.25.25,0,0,1,.23.16Zm0,.65V13a.25.25,0,0,1-.08-.18.23.23,0,0,1,.08-.18Zm0,.74v.46a.24.24,0,0,1,0-.46Zm0,1.36V15a2.61,2.61,0,0,1-.24.23V15l.24-.24Zm0,1.17v.65l-.24-.14h0l.24-.51Zm0,.9v.31l-.24.41v-.86l.24.14Zm0,.68-.15.24.15.1v-.34Zm0,.64v.31l-.24.34V18l.24.17Zm0,.64-.17.24.17.14v-.38Zm0,14.1v.37L30.13,33l.17-.13Zm0,.71-.24-.34v.81l.24-.16v-.31Zm0,.61v.34l-.15-.24.15-.1Zm0,.71-.24-.41v.85l.24-.13V34.9Zm0,.56v.63l-.24-.49h0l.24-.13Zm-.24.78h0Zm0-20.48v-.28l.17-.08-.17.36Zm0-1.19v-.46a.25.25,0,0,1,.15.23.24.24,0,0,1-.15.23Zm0-1.57v-.16A.43.43,0,0,1,30.06,13Zm0-1.72v.23l-.27-.12v-.21l.27.1Zm0,.55v.51a.26.26,0,0,1,0-.51Zm0,1V13a2.06,2.06,0,0,1-.27.76V13.3a.67.67,0,0,0,0-.61v-.3a.57.57,0,0,1,.27.45Zm0,1.27v.46l-.09,0a.25.25,0,0,1-.18-.08v-.34a.3.3,0,0,1,.18-.08l.09,0Zm0,.87v.24l-.27.23v-.22a2.16,2.16,0,0,0,.27-.25Zm0,.5v.28l-.26.57h0v-.69l.27-.15Zm0,.94Zm0,.25v.86l-.07.11-.2-.11v-.59l.16-.33.11.06Zm0,1.29v.82l-.11.15-.16-.11v-.58l.2-.33.07.05Zm0,15.28v.81L30,34.1l-.2-.32v-.59l.16-.11.11.16Zm0,1.25v.85L30,35.4l-.16-.32v-.6l.2-.11.07.12Zm0,1.1h0Zm0,.64h0l-.08.49-.19-.1v-.94h0l.26.54Zm-.27-2,.1-.06-.1-.19v.25Zm0-16.16.1-.18-.1-.06Zm0-6.87v.21l-.08,0v-.2l.08,0Zm0,1.21v.3l-.08-.08v-.26l.08,0Zm0,.91v.46l-.08.13v-.41a.71.71,0,0,0,.08-.18Zm0,.87v.34a.24.24,0,0,1-.07-.17.28.28,0,0,1,.07-.17Zm0,1.06v.22l-.08.06v-.22l.08-.06Zm0,.4v.69l-.08,0v-.62l.08,0Zm0,1.31v.59l-.08,0v-.41l.08-.14Zm0,.87v.24l-.08.13v-.41l.08,0Zm0,.43v.58l-.08-.05v-.41l.08-.12Zm0,15v.59l-.08-.12v-.42l.08-.05Zm0,.77v.25l-.08,0v-.41l.08.12Zm0,.52v.6l-.08-.15v-.4l.08-.05Zm0,1.21v.94l-.08,0v-.86Zm-.08-24.53v.2l-.08,0v-.2l.08,0Zm0,1.19v.26l-.08-.06v-.23l.08,0Zm0,1.13v.41l-.08.13v-.37a1.3,1.3,0,0,0,.08-.17Zm0,1.81v.22l-.08.06v-.21l.08-.07Zm0,.38v.62l-.08,0v-.54l.08,0Zm0,1.41v.41l-.08,0v-.19l.08-.17Zm0,.69v.41l-.08.14v-.6l.08.05Zm0,.59v.41l-.08-.06V18.5l.08-.14Zm0,14.88v.42l-.08-.14V33.3l.08-.06Zm0,.6v.41l-.08,0v-.61l.08.15Zm0,.69v.4l-.08-.17v-.18l.08,0Zm0,1.2v.86l-.08,0v-.78l.08,0Zm-.08-.21v-.18l.07.15-.07,0Zm0-18.84v-.19l.07,0Zm0-5.54v.2a1.93,1.93,0,0,0-.49-.07v-.18a2,2,0,0,1,.49.05Zm0,1.18v.23a1.13,1.13,0,0,0-.49-.09v-.22a1.4,1.4,0,0,1,.49.08Zm0,1.33V14c-.13.2-.3.42-.49.66v-.3a4.42,4.42,0,0,0,.49-.73Zm0,1.71v.21c-.11.09-.24.17-.37.26l-.12.26v-.53l.14.06.35-.26Zm0,.35-.25.13-.09.26.34.15v-.54Zm0,.78v.19l-.3.64-.19-.09v-.78l.06-.16.43.2Zm0,.76-.07.15.07,0v-.19Zm0,.47v.6l-.17.3-.32-.18v-.29l.27-.55.22.12Zm0,.78-.09.15.09.06V18.5Zm0,14.8v.22l-.09-.15.09-.07Zm0,.39-.17-.29-.32.18v.29l.27.55.22-.12v-.61Zm0,.89v.18l-.07-.14.07,0Zm0,.76-.3-.64-.19.08v.79l.06.15.43-.2v-.18Zm0,.43v.78l-.13-.06-.21-.57.34-.15Zm-.49,1.12v-.58l.1.25-.1.33Zm0-2.38v-.29l.11.24-.11,0Zm0-16.72.11-.24-.11-.05v.29Zm0-2.68V15a.2.2,0,0,1,.19-.14.2.2,0,0,1,0,.4.2.2,0,0,1-.19-.14Zm0-3.22v-.24a.26.26,0,0,1,.22-.13.26.26,0,0,1,.26.25.26.26,0,0,1-.26.26A.27.27,0,0,1,29.14,11.89Zm0-.8v.18h-.23v-.16l.23,0Zm0,.56v.24a.21.21,0,0,1,0-.12.27.27,0,0,1,0-.12Zm0,.59H29a2.82,2.82,0,0,0-.09-.57v1.44a3.52,3.52,0,0,0,.09-.64h.14v-.22Zm0,2.14v.3l-.23.27v-.28l.23-.29Zm0,.61v.12a.18.18,0,0,1,0-.12Zm0,.57v.53l-.23.51v-.68L29,16a1.28,1.28,0,0,1,.08-.18l-.17-.07v-.24l.23.08Zm0,.89-.23.59v.08l.23.11v-.78Zm0,1.05v.29l-.23.5v-.9l.23.11Zm0,.65-.11.22.11.07v-.29Zm0,15.43v.29L29,33.64l.11-.06Zm0,.64-.23-.49v.89l.23-.11v-.29Zm0,.56v.79L28.91,35v-.09l.23-.11Zm0,1.53v.58l-.05.16-.18-.12V36L29,36l.12.32Zm-.23-.51v-.09l0,.08Zm0-24.69v.16h-.13c0,.13.09.26.13.39v1.44a5.75,5.75,0,0,1-.25.77v-.6a2.93,2.93,0,0,0,0-1.71v-.51a.59.59,0,0,1,0,.08,1.52,1.52,0,0,1,.21,0Zm0,3.56V15l-.25.27V15l.25-.29Zm0,.81v.24l-.25-.1v-.23a2.5,2.5,0,0,1,.25.09Zm0,.44v.68l-.22.49h0V15.9h.09a.45.45,0,0,1,.16,0Zm0,1.12,0,.07h0V17Zm0,.35v.9l0,.05-.23-.11v-.67l.09-.24.16.07Zm0,16.34v.89l-.16.07-.09-.23v-.68l.23-.1,0,0Zm0,1.16V35l0-.08Zm0,.82v.09l-.25.09V35l.25.68Zm0,.32v.9l-.25-.16h0v-.65Zm-.25-25v.51c0-.1-.07-.19-.11-.29a.41.41,0,0,0-.05-.09v-.37a1.43,1.43,0,0,1,.16.24Zm0,2.22v.6c-.05.11-.1.22-.16.33v-.47c.06-.16.12-.31.16-.46Zm0,1.68v.26l-.12.13.12,0v.23l-.16-.06v-.43l.16-.17Zm0,.94v1.18l-.16,0v-.17h.06l.06-.12a.31.31,0,0,1-.12-.05V16a.44.44,0,0,1,.16-.06Zm0,1.66v.67l-.16-.07V18l.16-.39Zm0,16.22v.68l-.16-.4v-.21l.16-.07Zm0,1.25v.86l-.16,0V35l.14,0,0,.06Zm0,1.09v.65l-.16-.55v0l.16-.06Zm-.16-1.37v-.22l.07.2-.07,0Zm0-17.27v-.22l.07,0-.07.19Zm0-5.35v0Zm0-1.31v.37a1.69,1.69,0,0,0-.27-.36v-.3a1.5,1.5,0,0,1,.27.29Zm0,1.28v0a.24.24,0,0,1-.25.24h0v-.51h0a.25.25,0,0,1,.25.24Zm0,1.64v.47c-.08.17-.17.35-.27.52v-.42a4.89,4.89,0,0,0,.27-.57Zm0,1.39v.43l-.27-.09v-.22l.13,0,.14-.16Zm0,.83v.74a.44.44,0,0,1-.2-.37.45.45,0,0,1,.2-.37Zm0,.9V17L28.23,17v-.19l.27.1Zm0,.4v.22l-.22.62h-.05v-.92l.27.09Zm0,.69-.07.18.07,0V18Zm0,15.9v.21l-.07-.17.07,0Zm0,.68-.22-.62-.05,0v.92l.27-.1v-.22Zm0,.48v.93l-.09,0-.18-.62v-.24l.27-.1Zm0,1.17v0Zm-.27,1.11v-.71l.17.67-.17,0Zm0-24v-.51a.25.25,0,0,1,.25.25.26.26,0,0,1-.25.26Zm0-1.84v-.13a.2.2,0,0,1,0,.07A.13.13,0,0,1,28.23,11.42Zm0-.89v.3l-.15-.15v-.27l.15.12Zm0,.76v.13a.22.22,0,0,1-.15.17v-.47a.28.28,0,0,1,.15.17Zm0,.57v.51a.34.34,0,0,1-.15-.06v-.38a.26.26,0,0,1,.15-.07Zm0,.89v.51a.27.27,0,0,1-.15,0V12.8a.27.27,0,0,1,.15-.05Zm0,1.56v.42l-.15.25v-.41l.15-.26Zm0,.94v.22l-.15-.05v-.21l.15,0Zm0,1.51V17l-.15-.05v-.19l.15.05Zm0,.41v.92L28.08,18v-.91l.15.05Zm0,16.76v.92l-.15,0V34l.15,0Zm0,1.18v.24l-.07-.22.07,0Zm0,1.47v.71l-.15,0v-1h.07l.08.31Zm-.15-.52v0Zm0-20v-.24a.37.37,0,0,1,0,.24Zm0-1.9v-.41a.22.22,0,0,1,.12.21A.21.21,0,0,1,28.08,14.17Zm0-3.76v.27l-.26-.17v-.24l.26.14Zm0,.71v.47a.15.15,0,0,1-.09,0,.24.24,0,0,1-.17-.06v-.38A.24.24,0,0,1,28,11.1l.09,0Zm0,.81v.38a.27.27,0,0,1-.08-.19.24.24,0,0,1,.08-.19Zm0,.87v.41A.27.27,0,0,1,28,13a.25.25,0,0,1,.1-.2Zm0,1v.41a.2.2,0,0,1-.11,0,.25.25,0,0,1-.15,0v-.36a.22.22,0,0,1,.26,0Zm0,.81V15l-.12.19.12,0v.21l-.26-.07V15c.09-.13.18-.27.26-.41Zm0,1.26v.24a.44.44,0,0,1-.26.29v-.82a.44.44,0,0,1,.26.29Zm0,.88v.19l-.26-.07v-.2l.26.08Zm0,.41V18l-.26-.09v-.05l.23-.78Zm0,16.86v.92h0l-.23-.78v-.06l.26-.09Zm0,2.05v0l-.26.07v-.91h.05l.21.82Zm0,.25v1l-.26.07v-1l.26-.07ZM27.82,35v-.07l0,.06Zm0-17.85,0-.08h0v.09Zm0-4.42v-.29A1.41,1.41,0,0,1,27.82,12.71Zm0-2.44v.24l-.23-.1v-.22l.23.08Zm0,.9v.38a.25.25,0,0,1,0-.38Zm0,1.25v.29a4,4,0,0,1-.23,1.16v-.79a2.31,2.31,0,0,0,0-1.11v-.38a1.62,1.62,0,0,1,.23.83Zm0,1.37a.24.24,0,0,0,0,.36v-.36Zm0,1.19v.37l-.23-.06v-.21l.14,0,.09-.13Zm0,.56v.82a.45.45,0,0,1-.16,0h-.07v-.88h.07a.3.3,0,0,1,.16,0Zm0,1.09v.2l-.23,0v-.21l.23.06Zm0,.41v.09l-.2.75h0V17l.23.06Zm0,.85v.05h0v-.05Zm0,16.18v0Zm0,.84V35l-.23.05v-.89h0l.2.77Zm0,.31v.91l-.23.06v-.9l.23-.07Zm0,1.13v1h0l-.19-1,.21-.06Zm-.23,2.5V38l.15.85-.15,0Zm0-24V14.5h0a.2.2,0,0,1,.2.2.19.19,0,0,1-.2.19Zm0-4.7v.22a1.18,1.18,0,0,0-.27-.06v-.22a1.18,1.18,0,0,1,.27.06Zm0,1.4V12a.8.8,0,0,0-.27-.43v-.22a.78.78,0,0,1,.27.27Zm0,1.49v.79a2.82,2.82,0,0,1-.27.61V14a5.18,5.18,0,0,0,.27-.92Zm0,1.42v.39a.19.19,0,0,1-.19-.19.2.2,0,0,1,.19-.2Zm0,.58v.21l-.27-.06V15l.27.06Zm0,.43v.88a.47.47,0,0,1-.27-.16v-.57a.46.46,0,0,1,.27-.15Zm0,1.06v.21a2.61,2.61,0,0,0-.27-.06V16.5l.27.07Zm0,.41v.89l-.27-.07v-.89l.27.07Zm0,17.16V35l-.27.07v-.89l.27-.07Zm0,1.15v.9h0l-.16-.86.2-.05Zm0,2.69v.87l-.27,0V37.77l.23-.05,0,.26Zm-.27-.49v-1l.17,1-.17,0Zm0-26.4v-.51h0a.26.26,0,0,1,0,.51Zm0-1v.22a1.94,1.94,0,0,0-.54,0v-.21a2.44,2.44,0,0,1,.54,0Zm0,.45v.51a.26.26,0,0,1,0-.51Zm0,.74v.22a.76.76,0,0,0-.47-.16h-.07V11.2h.07a.89.89,0,0,1,.47.12Zm0,2.68v.48A2.71,2.71,0,0,1,27,15l.35.06v.21l-.54-.09v-.23a.38.38,0,0,1,.08-.09,3.31,3.31,0,0,0,.46-.82Zm0,1.66v.57a.39.39,0,0,1-.11-.28.44.44,0,0,1,.11-.29Zm0,.84v.22l-.54-.1V16.4a5.12,5.12,0,0,1,.54.1Zm0,.41v.89l-.18-.05.17-.85Zm0,17.3v.89h0l-.16-.85.18,0Zm0,2.25v1l-.44.07-.1-.9v-.11l.54-.09Zm0,1.31V38.9l-.26.05-.13-1.12.39-.06Zm-.54,2.37v-.43l0,.42Zm0-3.81v-.89l.34-.06.15.86-.49.09Zm0-1.14v-.87l.17,0,.15.85-.32,0Zm0-17.49v-.88l.32.06-.15.85-.17,0Zm0-1.6v-.79a.44.44,0,0,1,.24.39A.47.47,0,0,1,26.78,16.1Zm0-6v.21l-.26,0v-.21l.26,0Zm0,1.07v.18l-.13,0a.28.28,0,0,0-.13,0v-.19a1.09,1.09,0,0,1,.26-.05Zm0,3.71v.23l-.26,0v-.2l.24,0,0,0Zm0,.4v.79a.45.45,0,0,1-.2,0h-.06v-.88h.06a.46.46,0,0,1,.2.05Zm0,1.09v.22l-.26,0v-.23l.26,0Zm0,.42v.88l-.26-.05v-.52l0-.35.22,0Zm0,17.5v.87l-.22,0,0-.35v-.52l.26,0Zm0,1.12v.89h-.05l-.1-.87.15,0Zm0,1.11v0Zm0,3.16v.43l-.26,0v-.92l.21,0,.05.49ZM26.52,39V37.86h.08L26.7,39l-.18,0Zm0-1.4V37l.05.54Zm0-26.53v-.51a.25.25,0,0,1,.25.25A.26.26,0,0,1,26.52,11.06Zm0-.89v.21l-.3.06-.1-.09v-.26l.15.13a1.23,1.23,0,0,1,.25-.05Zm0,.38v.51a.26.26,0,0,1-.26-.26.26.26,0,0,1,.26-.25Zm0,.7v.19a.78.78,0,0,0-.4.3v-.27a.83.83,0,0,1,.4-.22Zm0,3.66v.2l-.4,0v-.76a5.35,5.35,0,0,0,.18.56v0l.22,0Zm0,.35v.88a.44.44,0,0,1-.39-.44.45.45,0,0,1,.39-.44Zm0,1.09v.23l-.4,0v-.23l.4,0Zm0,.78v.52h-.06l.06-.51Zm0,17.23v.52l-.06-.5.06,0Zm0,2.68v.55l-.4,0v-1l.35,0,.05.47Zm0,.82V39l-.4,0V37.9l.4,0Zm0,1.39v.92l-.4,0v-.92l.4,0Zm-.4-2.86V35.5l.24,0,.09.87-.33,0Zm0-1.13v-.87h.16l.08.86-.24,0Zm0-17.66v-.87l.28,0-.07.86-.21,0Zm0-8.48V8.49l.13.15Zm0-.63v.63l-.22.78.22.19v.26l-.48-.41L26,8.65l-.56-.56V7.73l.69.76Zm0,3v.27a3.4,3.4,0,0,0,0,2.57v.76h-.69v-.19l.68,0c-.55-1.52-.58-2.86,0-3.41Zm0,4.84v.23l-.69,0v-.23c.23,0,.46,0,.69,0Zm0,.42v.87l-.28,0v-.87l.27,0Zm0,17.66v.87l-.31,0,0-.87.33,0Zm0,1.11v.89l-.22,0,0-.88.25,0Zm0,1.1v1l-.17,0,0-1,.2,0Zm0,1.3V39H26l0-1.13Zm0,1.38v.92h-.06l0-.92Zm-.69,2.24v-1h.25l0,1Zm0-1.32v-.91h.24l0,.92Zm0-1.17V37.91h.24V39Zm0-1.4v-1h.24v1Zm0-1.24v-.87h.24v.88Zm0-1.12V34.4h.26l0,.87Zm0-17.66v-.87h.28l0,.86Zm0-1.54v-.89a.45.45,0,0,1,.42.45.44.44,0,0,1-.42.44Zm0-1.51a.26.26,0,0,0,.25-.26.28.28,0,0,0-.25-.27v.53Zm0-.94a.2.2,0,0,0,.18-.2.18.18,0,0,0-.18-.2v.4Zm0-.81a.17.17,0,0,0,0-.34v.34Zm0-.92a.25.25,0,0,0,0-.5v.5Zm0-.76a.46.46,0,0,0,.44-.45.47.47,0,0,0-.44-.46Zm0-3.4v.36l0,0-.56.6.35,1.29-.4.34V10l.14-.12-.14-.51v-1l.61-.7h0l0,0Zm0,2.49h0a.46.46,0,0,0-.45.46.45.45,0,0,0,.45.45h0v-.91Zm0,1.17v.5h0a.25.25,0,0,1-.25-.25.26.26,0,0,1,.25-.26Zm0,1.08v.34h0a.17.17,0,0,1-.16-.17.16.16,0,0,1,.16-.17Zm0,.75v.4h0a.21.21,0,0,1-.2-.2.2.2,0,0,1,.2-.2Zm0,.81v.53h0a.27.27,0,0,1,0-.53Zm0,.83v.19h-.64v-.19Zm0,.32v.89h0a.45.45,0,0,1,0-.89Zm0,1.11v.23c-.21,0-.42,0-.64,0v-.22l.64,0Zm0,.45v.87H25.2l0-.86Zm0,17.66v.87h-.27l0-.87Zm0,1.12v.87h-.3l0-.87Zm0,1.1v1h-.36l.05-1Zm0,1.29V39H25l.05-1.13Zm0,1.38v.91h-.5l.05-.92Zm0,1.2v1h-.58l.06-1ZM24.79,38v-.1h0V38Zm0-.37v-1h.1l-.06,1Zm0-1.25v-.88l.19,0-.06.88-.13,0Zm0-1.12V34.4l.3,0-.05.87-.25,0Zm0-17.65v-.87l.25,0,.05.86-.3,0Zm0-3c.46-1.37.48-2.55,0-3.12v.31a3.39,3.39,0,0,1,0,2.16Zm0-6.27v1l-.21-.75.21-.24Zm0,1.62v.26l-.18.16a3.64,3.64,0,0,0-.52-.1v-.21l.47.09.23-.2Zm0,1.53v.31a.86.86,0,0,0-.61-.46h-.09v-.18a1,1,0,0,1,.7.34Zm0,2.47v.65c0,.07-.05.14-.07.21h.07v.19l-.7.07v-.2l.44,0v0c.07-.21.16-.51.25-.85Zm0,2.3v.22c-.23,0-.47,0-.7.08v-.21c.23,0,.47-.07.7-.09Zm0,.43v.87l-.19,0-.11-.86.3,0Zm0,17.65v.87l-.3,0,.11-.86.19,0Zm0,1.11v.88l-.42,0,.11-.87.31,0Zm0,1.1v1l-.57-.06.12-1,.45,0Zm0,1.3V38l-.06,1L24.09,39v-.4l.09-.73.61.06Zm-.7,2.25v-.93l.6.06-.05.92-.55-.05Zm0-3.82v-.9l.13,0-.12.87Zm0-1.14v-.88l.33.06-.12.85-.21,0Zm0-17.5v-.88l.21,0,.12.86-.33.06Zm0-1.58v-.83a.45.45,0,0,1,.16,0,.44.44,0,0,1,.44.44.46.46,0,0,1-.6.42Zm0-5.2v-.24a.25.25,0,0,1,.22-.13.26.26,0,0,1,.26.25.26.26,0,0,1-.26.26A.26.26,0,0,1,24.09,10.92Zm0-.79v.21a2.26,2.26,0,0,0-.79.05v-.22a2.27,2.27,0,0,1,.79,0Zm0,.55v.24a.26.26,0,0,1,0-.24Zm0,.53v.18H24a.75.75,0,0,0-.68.42v-.3a.84.84,0,0,1,.68-.3Zm0,3.72v.2l-.79.14v-.2c.19-.05.38-.08.56-.11a3,3,0,0,1-.56-.91v-.67A4.21,4.21,0,0,0,24,14.82l.1.11Zm0,.36v.83a.45.45,0,0,1,0-.83Zm0,1.12v.21l-.79.15v-.2a7.9,7.9,0,0,1,.79-.16Zm0,.41v.88l-.16,0-.17-.85.33-.06Zm0,17.5v.88l-.33-.06.17-.85.16,0Zm0,1.12v.9l-.53-.1.17-.86.36.06Zm0,3.14V39H24l.05-.39Zm0,.65v.93l-.21,0,.13-.91Zm-.79-.35V37.74l.56.09L23.7,39l-.4-.07Zm0-2.83V35.3l.16,0-.16.71Zm0-1v-.89l.44.11-.19.85L23.3,35Zm0-17.17V17l.25-.07.19.85-.44.12Zm0-1.5v-.85a.44.44,0,0,1,0,.85Zm0-1.49a.18.18,0,0,0,.13-.18.21.21,0,0,0-.13-.19v.37Zm0-3.9v-.29a.25.25,0,0,1,.21-.11.26.26,0,0,1,0,.51A.25.25,0,0,1,23.3,11Zm.76,25.58-.15,1-.6-.11.2-1ZM23.3,10.17v.22l-.25.1v-.24l.25-.08Zm0,.52V11a.33.33,0,0,1,0-.15.33.33,0,0,1,0-.14Zm0,.81v.3a2.49,2.49,0,0,0,0,1.58v.67a4.91,4.91,0,0,1-.25-1v-1a1.32,1.32,0,0,1,.25-.59Zm0,3v.37h-.07a.19.19,0,0,1-.18-.14v-.1a.2.2,0,0,1,.18-.15Zm0,.56v.2l-.25.07V15l.05.07.2,0Zm0,.45v.85l-.13,0-.12,0v-.85h.25Zm0,1.05v.2l-.25.07v-.2l.25-.07Zm0,.4v.9h0l-.21-.74V17L23.3,17Zm0,17.18V35L23.05,35v-.11l.21-.73Zm0,1.15v.75l0,.15-.22-.06v-.91l.25.07Zm0,2.44v1.14l-.25-.05v-.11l.2-1,.05,0Zm-.25-.6v-.77l.16,0-.16.73Zm0-3,0-.09h0v.1Zm0-16.22h0l0-.09V18Zm0-3.84a.26.26,0,0,0,0-.28v.28Zm0-2.6a.25.25,0,0,0,0-.3Zm0-1.26v.24a1.17,1.17,0,0,0-.3.19v-.27a1.43,1.43,0,0,1,.3-.16Zm0,1v.3a.27.27,0,0,1-.21.1.15.15,0,0,1-.09,0v-.47l.09,0a.27.27,0,0,1,.21.11Zm0,.88v1a2.85,2.85,0,0,1,0-1Zm0,1.74v.28a.22.22,0,0,1-.19.09.2.2,0,0,1-.11,0v-.41a.2.2,0,0,1,.11,0,.23.23,0,0,1,.19.1Zm0,.82v.1a.13.13,0,0,1,0-.1Zm0,.39c-.11-.16-.21-.31-.3-.47V15l.12.19-.12,0v.21l.3-.08V15Zm0,.48v.85a.43.43,0,0,1-.3-.3v-.24a.45.45,0,0,1,.3-.31Zm0,1.12v.2l-.3.08v-.2l.3-.08Zm0,.4v.1l0-.09Zm0,.81-.22-.74-.08,0v.92l.3-.1v-.1Zm0,16.22v.1l-.22.74-.08,0V34l.3.11Zm0,.8,0,.1h0v-.11Zm0,.36v.91l-.3-.08v0l.23-.81.07,0Zm0,1.14v.77L23,37.4l-.24-.06V36.29l.3.08Zm0,2.35v.11h0l0-.11Zm-.3-25.51V12.8a.25.25,0,0,1,.1.2.27.27,0,0,1-.1.21Zm0-.9v-.38a.24.24,0,0,1,.08.19A.27.27,0,0,1,22.75,12.31Zm0-1.9v.27a2.29,2.29,0,0,0-.38.43v-.35a1.78,1.78,0,0,1,.38-.35Zm0,.71v.47a.25.25,0,0,1-.16-.23.27.27,0,0,1,.16-.24Zm0,.81v.38a.25.25,0,0,1-.17.06.28.28,0,0,1-.21-.1V12a.28.28,0,0,1,.21-.1.26.26,0,0,1,.17.07Zm0,.87v.41a.27.27,0,0,1-.15,0,.27.27,0,0,1-.23-.14v-.24a.26.26,0,0,1,.23-.13.27.27,0,0,1,.15.05Zm0,1v.41a.21.21,0,0,1-.12-.2.22.22,0,0,1,.12-.21Zm0,.81a5.41,5.41,0,0,1-.38-.71v.46c.12.22.24.44.38.66v-.41Zm0,.64v.21l-.38.12v-.36l.1.11.28-.08Zm0,.62v.24a.37.37,0,0,1,0-.24Zm0,.89v.2l-.38.13v-.21l.38-.12Zm0,.41v.92l-.15.05-.23-.62v-.22l.38-.13Zm0,16.83v.92l-.38-.13v-.22l.23-.62.15.05Zm0,2.06v0h0v0Zm0,.27v1.05l-.35-.09.27-1,.08,0Zm-.38-.07v0h0l0,0Zm0-.28V35l.34.12-.25.84-.09,0Zm0-1.88.08-.17-.08,0v.21Zm0-15.9.08,0L22.37,18v.21Zm0-1.49V16a.42.42,0,0,1,.16.33A.46.46,0,0,1,22.37,16.67Zm0-5.91v.35l-.09.17c0,.1-.08.19-.11.29v-.51a2.23,2.23,0,0,1,.2-.3Zm0,1.2v.31a.32.32,0,0,1,0-.31Zm0,.92v.24a.37.37,0,0,1,0-.12.5.5,0,0,1,0-.12Zm0,1v.46l-.2-.44v-.6c.06.2.12.38.2.58Zm0,1.32v.36l-.2.07v-.22l.12,0-.12-.13V15a2.09,2.09,0,0,1,.2.22Zm0,.82v.67a.3.3,0,0,1-.16.08l.06.12.1,0v.21l-.15.05,0-.09V15.9a.35.35,0,0,1,.2.1Zm0,1.26v.22l-.06-.19.06,0Zm0,.69-.2-.52v.82l.2-.09V18Zm0,15.9v.21l-.2.53v-.83l.2.09Zm0,.68-.06.2.06,0v-.22Zm0,.48v.93l-.2-.07v-.7l.08-.2.12,0Zm0,1.17v0l-.15.55,0,0v-.7Zm-.2-25.12v.51a3,3,0,0,0,0,1.71v.6a4.43,4.43,0,0,1-.2-.58V11.5c0-.07.05-.14.08-.22H22v-.16l.16,0,0-.08Zm0,3.9v.26L22,15v-.27c.07.07.13.15.2.23Zm0,.43v.22l-.2.09v-.24l.2-.07Zm0,.51V17l-.2-.39V15.9h.2Zm0,1.53v.82l-.18.09,0-.05v-.9l.16-.07,0,.11Zm0,16.33v.83l0,.1L22,34.62v-.89l0,0,.18.08Zm0,1.41v.7L22,35.8v-.09l.2-.54Zm0,.93v.7l-.2.13V36l.2.07ZM22,35v-.09h0L22,35Zm0-17.86V17l0,.07Zm0-6v.16h-.23v-.18l.23,0Zm0,.39v1.8a3.35,3.35,0,0,1-.14-.83h-.09v-.22h.09A2.76,2.76,0,0,1,22,11.5Zm0,3.23V15c-.08-.09-.16-.17-.23-.26v-.29l.23.28Zm0,.73v.24a1.45,1.45,0,0,0-.22.09,1.28,1.28,0,0,1,.08.18L22,15.9v.72l-.23-.46v-.62l.23-.08ZM22,17l-.23-.59v.78l.23-.11V17Zm0,.35v.9l-.23-.5V17.5l.23-.11Zm0,16.34v.89l-.23-.11v-.29l.23-.49Zm0,1.16V35l-.23.59v-.79l.23.11Zm0,.82v.09h0l0-.08ZM22,36v.9l-.18.12-.05-.16v-.58l.12-.32L22,36Zm-.23-2.16.11-.23-.11-.06v.29Zm0-15.43.11-.07-.11-.22Zm0-7.35v.18H21.5V11.1Zm0,1.15v.22H21.5v-.22Zm0,2.21v.29l-.24-.29v-.32l.24.32Zm0,1.09v.62l-.17-.33-.07,0v-.2l.05,0,.19-.08Zm0,.91v.78l-.19.09-.05-.09v-.86l.18-.08.06.16Zm0,1.05v.29l-.11-.24.11-.05Zm0,.65-.24-.48v.9l.24-.13v-.29Zm0,15.43v.29l-.24.47v-.89l.24.13Zm0,.64-.11.24.11,0v-.29Zm0,.56v.79l-.06.15-.18-.08v-.85l.05-.09.19.08Zm0,1.53v.58l-.1-.33.1-.25Zm-.24-.17v-.26l.08,0-.08.22Zm0-20,.08,0-.08-.2v.23Zm0-.88v-.4a.2.2,0,0,1,0,.4Zm0-3.23v-.5a.25.25,0,0,1,0,.5Zm0-.92v.18l-.25.05v-.2a1.07,1.07,0,0,1,.25,0Zm0,.42V12h0a.26.26,0,0,1-.22-.13v-.26a.25.25,0,0,1,.22-.12Zm0,.73v.22a.92.92,0,0,0-.25.06V12.3l.25-.05Zm0,1.88v.32l-.25-.35v-.36c.07.12.15.25.25.39Zm0,.72v.4a.2.2,0,0,1,0-.4Zm0,.74v.2l-.25-.18V15.4l.25.19Zm0,.31,0-.06-.23-.12v.53l.25-.12V15.9Zm0,.47v.86l-.25-.55v-.19l.25-.12Zm0,1.3v.9l-.08.05-.17-.3v-.6l.22-.12,0,.07Zm0,15.78v.89l0,.08-.22-.12v-.61l.17-.29.08.05Zm0,1.34v.85l-.25-.12v-.18l.25-.55Zm0,1.09v.26l-.12.35-.13.06v-.78l.25.11Zm-.25-1.12v-.18l.07,0-.07.14Zm0-1.24.09-.15-.09-.07v.22Zm0-14.81.09-.06-.09-.15v.21Zm0-1.27v-.19l.07.15Zm0-6.31v.2l-.09,0v-.2l.09,0Zm0,.51v.26a.23.23,0,0,1,0-.26Zm0,.66v.23l-.09,0v-.24l.09,0Zm0,1.44v.36L21.16,14v-.39l.09.16Zm0,1.66v.21l-.09-.06v-.21l.09.06Zm0,.32v.53l-.09,0v-.61l.09,0Zm0,.77v.19l-.07-.16.07,0Zm0,.76v.19l-.09,0v-.41l.09.17Zm0,.47v.6l-.09-.14v-.41l.09-.05Zm0,.78v.21l-.09.06v-.41l.09.14Zm0,14.8v.22l-.09.14v-.42l.09.06Zm0,.39v.61l-.09,0v-.41l.09-.15Zm0,.89v.18l-.09.17v-.4l.09,0Zm0,.76v.18l-.07,0,.07-.15Zm0,.43v.78l-.09,0v-.86Zm-.09-24.62v.2l-.12,0v-.21l.12,0Zm0,1.18v.24a.68.68,0,0,0-.12.12v-.3l.12-.06Zm0,1.25V14L21,13.76V13.3a1.69,1.69,0,0,0,.12.28Zm0,1.76v.21l-.12-.1v-.22l.12.11Zm0,.34v.61l-.08,0,0-.08v-.63l.12.06Zm0,1.4v.41l-.12.07v-.73l.12.25Zm0,.69v.41L21,18v-.12l.12-.07Zm0,.59L21,18.15v.71l.12-.09v-.41Zm0,14.88v.42l-.12.2v-.7l.12.08Zm0,.6-.12.21v.13l.12.07v-.41Zm0,.69v.4l-.12.25v-.72l.12.07Zm0,1.2v.86l-.12.07v-.89l0-.08.08,0ZM21,14.51v-.34a.28.28,0,0,1,.07.17A.24.24,0,0,1,21,14.51Zm0-3.33v.21a1,1,0,0,0-.22.09v-.22l.22-.08Zm0,1.21v.3a.67.67,0,0,0,0,.61v.46a2.71,2.71,0,0,1-.22-.51v-.61a.65.65,0,0,1,.22-.25Zm0,1.78v.34a.25.25,0,0,1-.18.08h0V14.1h0a.3.3,0,0,1,.18.08Zm0,1.06v.22l-.22-.19V15a2.09,2.09,0,0,0,.22.2Zm0,.39v.63l-.22-.46v-.28l.22.11Zm0,1.21v.73l-.15.08-.07-.11v-.86l.11-.06.11.22Zm0,1V18L21,17.87l.05,0Zm0,.31-.15-.24-.07.05v.82l.11.15.11-.07v-.71Zm0,15v.7l-.15.24-.07-.05v-.81l.11-.16.11.08Zm0,.89-.05.1.05,0v-.13Zm0,.41v.72l-.11.22-.11-.06v-.85l.07-.12.15.09Zm0,1.31v.89l-.13.07-.09-.49h0l.22-.46Zm-.22-.17h0Zm0-19.18Zm0-4.09v-.49a.25.25,0,0,1,.2.25A.25.25,0,0,1,20.82,12.33Zm0-1.07v.22l-.24.13v-.24l.24-.11Zm0,.58v.49h-.06a.27.27,0,0,1-.18-.08v-.35a.27.27,0,0,1,.18-.08Zm0,.8v.61a.85.85,0,0,1,0-.61Zm0,1.46v.49a.24.24,0,0,1-.2-.25.24.24,0,0,1,.2-.24Zm0,.93v.23L20.58,15v-.25l.24.24Zm0,.48v.28l-.18-.37.18.09Zm0,.91h0l-.24.14V16l.24.46Zm0,.25v.86l-.24-.41v-.31l.24-.14Zm0,1.29v.82l-.24-.34v-.31l.24-.17Zm0,15.28v.81l-.24-.16v-.31l.24-.34Zm0,1.25v.85l-.24-.13V34.9l.24-.41Zm0,1.1h0l-.24.49v-.63l.24.13Zm0,.64h0Zm-.24-1.7.15-.24-.15-.1v.34Zm0-1.29.17-.24-.17-.13v.37Zm0-14.09.17-.14-.17-.24v.38Zm0-1.32.15-.1-.15-.24v.34Zm0-4V13.4a.23.23,0,0,1,0,.42Zm0-.89V12.7a.27.27,0,0,1,0,.12A.2.2,0,0,1,20.58,12.93Zm0-1.56v.24a1.94,1.94,0,0,0-.49.5v-.35a2.34,2.34,0,0,1,.49-.39Zm0,.54a.27.27,0,0,0-.07.18.26.26,0,0,0,.07.17v-.35Zm0,.79v.23a.25.25,0,0,1-.47-.11.26.26,0,0,1,.25-.26.25.25,0,0,1,.22.14Zm0,.7v.42a.2.2,0,0,1-.11,0,.24.24,0,1,1,0-.48.2.2,0,0,1,.11,0Zm0,1.39V15a4.2,4.2,0,0,1-.49-.58v-.35a4,4,0,0,0,.49.68Zm0,1.17v.6l-.24.14-.25-.42V15.7l.28-.15.21.41Zm0,.85v.31l-.13-.24.13-.07Zm0,.68-.3-.51-.19.12v.59l.23.32.26-.18v-.34Zm0,.64v.31l-.14-.21.14-.1Zm0,.64-.32-.47-.17.14V19l.27.34.22-.18v-.38Zm0,14.1v.37l-.32.47-.17-.14V33l.27-.34.22.18Zm0,.71-.14.21.14.1v-.31Zm0,.61v.34l-.3.51-.19-.13v-.58l.23-.33.26.19Zm0,.71-.13.23.13.08V34.9Zm0,.56v.66l-.48.21v-.61l.25-.4.24.14Zm-.49-.15v-.13l.06,0-.06.09Zm0-2.62v-.23l.1.1-.1.13Zm0-13.14v-.22l.1.13-.1.09Zm0-2.71V16.7l.06.1Zm0-5.08v.35a1.62,1.62,0,0,0-.1.18v-.4a1.13,1.13,0,0,1,.1-.13Zm0,2.35v.35a1.4,1.4,0,0,1-.1-.16v-.41l.1.22Zm0,1.59v.58L20,16.1v-.35l.1-.05Zm0,1v.14l-.1.07v-.38l.1.17Zm0,.4v.59l-.1-.16v-.35l.1-.08Zm0,1.34V19l-.1-.14v-.33l.1-.08Zm0,.89v.22l-.1.1v-.46l.1.14Zm0,13.13v.23l-.1.13v-.45l.1.09Zm0,.57v.54l-.1-.08v-.33l.1-.13Zm0,1.3v.58l-.1-.07v-.36l.1-.15Zm0,.85v.13l-.1.18V35.1l.1.08Zm0,.54v.61h0l0-.52.06-.1ZM20,34v-.21l.09.07L20,34Zm0-15.81V18l.09.14Zm0-6.32v.4a1.83,1.83,0,0,0,0,1.6v.41a2.06,2.06,0,0,1,0-2.41Zm0,3.86v.35l-.17-.27.17-.08Zm0,.78-.37-.6-.34.24v.35l.41.59.3-.2v-.38Zm0,.65v.35l-.17-.24.17-.11ZM20,18l-.41-.58-.3.25v.27l.41.52.3-.24V18Zm0,.53v.33l-.17-.2.17-.13Zm0,.67-.32-.41-.39.34v.06l.54.61.17-.14v-.46Zm0,13.18v.45l-.32.41-.39-.33v-.07l.54-.61.17.15Zm0,.79-.17.21.17.12v-.33Zm0,.65V34l-.41.58-.3-.24v-.27l.41-.52.3.24Zm0,.67-.17.24.17.12v-.36Zm0,.62v.39l-.37.59-.34-.24v-.35l.41-.59.3.2Zm-.71-.1.16-.23-.16-.13V35Zm0-1.34.2-.26-.2-.18v.44Zm0-1.06.42-.44-.35-.36-.07.06v.74Zm0-12.29v0h0v0Zm0-.18v-.75l.46.48-.36.37-.1-.1Zm0-1.34v-.44l.2.27-.2.17Zm0-1.41V17l.16.23Zm0-1.21v.35l0,0v-.29l0,0Zm0,.84v.37l0,0V17l0,0Zm0,.65v.27l0,0v-.21l0,0Zm0,.69v.44l0,0v-.5l0,0Zm0,.77v.06l0,0h0l0,0Zm0,.26v.75l0,0v-.76l0,0Zm0,.91v0l0,0v-.08l0,0Zm0,11.57v.74l0,0v-.74l0,0Zm0,1v.07l0,0h0l0,0Zm0,.39v.44l0,0v-.5l0,0Zm0,.87v.27l0,0v-.22l0,0Zm0,.55V35l0,0v-.43l0,0Zm0,.85v.35l0,0v-.29l0,0Zm0-3.75h0Zm0-15.55v.29l-.14-.19.14-.1Zm0,.78-.39-.55-.06,0v.88l.21.26.24-.2V17Zm0,.71v.21l-.1-.13.1-.08Zm0,.64v.5l-.14.13-.31-.35v-.55l.15-.13.3.4Zm0,.82h0Zm0,.21v.76l-.45-.42v-.11l.34-.35.11.12Zm0,.91-.45-.4v.7l.16.13.29-.35v-.08Zm0,11.47h0l-.45.4v-.69l.13-.1.32.38Zm0,.16-.45.41v.18l.3.31.15-.16v-.74Zm0,1Zm0,.33v.5l-.3.39L18.8,34v-.55l.31-.34.14.13Zm0,.92v.22l-.1-.09.1-.13Zm0,.49V35l-.39.56-.06-.05v-.87l.21-.26.24.19Zm0,.92-.14.2.14.09v-.29ZM18.8,33v-.2l.1.1-.1.1Zm0-1.8Zm0-10.37v-.07l0,0,0,0Zm0-1.63.14-.15-.14-.14Zm0-2.77v.88L18.53,17v-.32l.27-.22Zm0,1.59v.55l-.27-.3h0l.27-.24Zm0,.89v.29l-.22.22,0-.05v-.74l.27.28Zm0,.64v.11l-.05-.05.05-.06Zm0,.28v.7l-.27-.21v-.51l.11-.13.16.15Zm0,.93v.07l-.26.37h0v-.65l.27.21Zm0,10.44h0l-.27.2v-.58l.27.38Zm0,.22v.69l-.2.18-.07-.09v-.57l.27-.21Zm0,.85-.09.09.09.09V32.3Zm0,.53V33l-.27.28v-.73h0l.26.26Zm0,.58V34l-.27-.23h0l.27-.31Zm0,1.27v.87l-.27-.22V35l.27-.33ZM18.53,36v-.34l.16.12-.16.22Zm0-1.43V34l.27.23-.27.35Zm0-16.6v-.59l.27.35-.27.24Zm0-1.67V16l.16.22Zm0-.35v.35l-.21.17v-.83l.21.31Zm0,.7V17l-.15-.2.15-.12Zm0,.73V18l-.15.13-.06-.07v-.92l.21.27Zm0,.88h0Zm0,.37v.74l-.21-.2v-.74h0l.2.21Zm0,1.18v.51l-.21-.17V20.1l.21-.26Zm0,.74v.65l-.21-.15v-.67l.21.17Zm0,10.27v.58l-.21.17V31l.19-.13,0,0Zm0,.81v.57L18.32,32v-.14l.21-.17Zm0,.92v.73l-.21.22v-.75l.21-.2Zm0,1.14h0Zm0,.3v.58l-.21.28V34l.06-.08.15.14Zm0,1v.32l-.15-.12.15-.2Zm0,.68V36l-.21.31v-.82l.21.17Zm-.21-3.18v-.15l.07.09-.07.06Zm0-1.8v-.17l.07.12-.07.05Zm0-9.15v-.24l.1.07-.1.17Zm0-1.84v-.24l.11.1Zm0-4v.83l-.12.09L18,16.35v-1l0,0,.27.38Zm0,1.47v.92L18,17.71v-.6l.17-.15.14.18Zm0,1.32v.74L18,18.91v-.13l.31-.32Zm0,1L18,19.2v.7l.1.07.21-.25v-.24Zm0,.62v.08l0,0,0,0Zm0,.31v.67l-.31-.2v-.4l.14-.19.17.12Zm0,.91v.24l-.16.27L18,21.75v-.63l.31.2Zm0,9.22v.17l-.31.2V30.3l.13-.07.18.31Zm0,.41v.65l-.21.15-.1-.14v-.46l.31-.2Zm0,.88V32l-.08-.08.08-.06Zm0,.53v.15l-.31.28V32.1l.06,0,.25.3Zm0,.42-.31.28v.22l.28.29,0,0v-.75Zm0,1.18v.92l-.14.17L18,34.9v-.59l.31-.35Zm0,1.56v.82l-.27.39,0,0v-1l.19-.24.12.1ZM18,33.83V33.6l.12.11-.12.12Zm0-3.75V30l0,.06,0,0Zm0-8V22l.06,0-.06.12Zm0-3.66.16-.16L18,18.13Zm0-3.15v1l-.17-.21v-.69l.17-.14Zm0,1.8v.6l-.17-.2v-.25l.17-.15Zm0,1v.33l-.17.18v-.7l.17.19Zm0,.65v.13l-.07-.06.07-.07Zm0,.42v.7l-.17-.14V19l.17.16Zm0,1.28v.4l-.17-.12v0l.17-.24Zm0,.64v.63l-.17-.11V21l.17.11ZM18,22v.15l-.16.34h0v-.59L18,22Zm0,8v.08l-.17.09v-.52L18,30Zm0,.3v.61l-.17.11V30.4l.17-.1Zm0,.85v.46l-.17-.24v-.1l.17-.12Zm0,1v.69l-.17.15v-.7L18,32.1Zm0,1v.22l-.11-.11.11-.11Zm0,.54v.23l-.17.18v-.59l.17.18Zm0,.71v.59l-.17-.15V34.5l.17-.19Zm0,1.35v1l-.17-.14v-.68l.17-.22Zm-.17-.2v-.34l.16.14-.16.2Zm0-3.56v-.1l.05.06-.05,0Zm0-11.61V20.1l.09.07-.09.12Zm0-3.39v-.35l.16.2Zm0-1.45v.69l-.33-.42.33-.27Zm0,1.1-.37-.48v1l.06.07.31-.27v-.35Zm0,.71v.25l-.12-.14.12-.11Zm0,.68v.7l-.06.06-.31-.28v-.86h0l.37.38Zm0,1.1v.72l-.37-.3v-.1l.31-.37.06.05Zm0,1.06v.19l-.2.3-.17-.11v-.66l.37.28Zm0,.62v0h0v0Zm0,.29v.63l-.37-.21V21.3l.23-.39.14.1Zm0,.86v.59l-.37-.18v-.61l.37.2Zm0,7.78v.52l-.37.2v-.6l.35-.16,0,0Zm0,.75V31l-.18.12-.19-.33V30.6l.37-.2Zm0,.87v.1l-.05-.07.05,0Zm0,.53v.1l-.37.29v-.65l.13-.08.24.34Zm0,.44v.7l-.1.09-.27-.32v-.18l.37-.29Zm0,1.18V34l-.37.38v-.84l.26-.24.11.11Zm0,1.08v.25l-.12-.11.12-.14Zm0,.62v.34l-.37.48v-1l.06-.06.31.27Zm0,.76-.33.42.33.26v-.68Zm-.37-2.63v-.2l.09.12-.09.08Zm0-3.66V29l.07,0,.18.47-.25.11Zm0-6.33v-.07h0l0,.06Zm0-.22v-.57l.28.12-.19.48-.09,0Zm0-4,.14-.17-.14-.12Zm0-2.95v1l0,0V16l0,0Zm0,1.49v.86l0,0V17.6l0,0Zm0,1.17V19l0,0V18.7l0,0Zm0,.63v.1l0,0v0l0,0Zm0,.46v.66l0,0v-.67l0,0Zm0,1.48v.13h0v-.07l0-.05Zm0,.37v.61h0v-.62l0,0Zm0,.8V23l0,0v-.56Zm0,.72v.07l0,.12v-.2Zm0,5.85v.55h0v-.55Zm0,.73v.6l0,0v-.6l0,0Zm0,.83v.21l0,0v-.14l0,0Zm0,.94v.65l0,0v-.64l0,0Zm0,1v.18l0,0v-.11l0,0Zm0,.52v.2l0,0V33l0,0Zm0,.5v.84l0,0v-.85l0,0Zm0,1.36v1l0,.05V35l0,0Zm0-6v-.12l0,.11Zm0-8V20.8l0,0Zm0-4.84v1l0,0V16l0,0Zm0,1.57v.78l0,0v-.73l0,0Zm0,1.1v.36l0,0v-.43l0,0Zm0,.7v0l0,0,0,0Zm0,.39v.67l0,0v-.66l0,0Zm0,1v.07l0,.05v-.14l0,0Zm0,.55v.07l0,0,0,0Zm0,.3v.62l0,0v-.61Zm0,.81V23h0v-.57l0,0Zm0,.72v.2l0,.11v-.32Zm0,5.59v.12h0v-.24l0,.11Zm0,.28v.55l0,0v-.56Zm0,.74v.6l0,0V29.8Zm0,.83v.14l0-.06v-.06l0,0Zm0,.95v.64l0,0v-.65l0,0Zm0,1v.11l0,0v-.06l0,0Zm0,.46v.26l0,0V33l0,0Zm0,.56v.85h0v-.82l0,0Zm0,1.37v1l0,0V35l0,0Zm0-3.7v-.07l0,.05Zm0-15.26v1l-.31-.35v-.62l.21-.19.1.12Zm0,1.64v.73l-.31-.29v-.13l.31-.31Zm0,1v.43l-.17.19-.14-.11V18.4l.31.27Zm0,1.1v.66l-.31-.2v-.41l.13-.19.18.14Zm0,1v.14l-.21.34-.1-.06v-.62l.31.2Zm0,.86v.61l-.31-.14V22l.21-.43.1.06Zm0,.8V23l-.31-.11v-.59l.31.13Zm0,.73v.32l-.06.2-.25-.06v-.56l.31.1Zm0,5.49v.24L17.1,29v-.55l.23-.06.08.26Zm0,.4v.56l-.31.13v-.58l.31-.11Zm0,.74v.61l-.13.07-.18-.37v-.17l.31-.14Zm0,.84v.06l0-.05Zm0,.54v.07l-.31.19v-.6l.08,0,.23.38Zm0,.41v.65l-.22.16-.09-.13v-.48l.31-.2Zm0,1v.06l0,0,0,0Zm0,.4v.32l-.31.27v-.75l.1-.09.21.25Zm0,.63v.82l-.31-.31v-.23l.31-.28Zm0,1.38v1l-.1.11L17.1,36v-.61l.31-.35Zm-.31,1.4v-.1l0,0,0,.06Zm0-1.64v-.24l.12.12-.12.12Zm0-6.38v-.53h.1l.1.49-.2.05Zm0-.72v-.22l0,.22Zm0-2.88v-.32h0l0,.31Zm0-.52v-.53l.21.05-.09.5-.12,0Zm0-6.71v-.35l.17.18-.17.17Zm0-1.82v-.09l0,.06Zm0-.09v.09l0,0v-.18l0,.05Zm0,.43v.62l0,0v-.55l0,0Zm0,1.13v.35l0,0v-.42l0,0Zm0,.75v.13l0,0V18l0,0Zm0,.46v.78l0,0v-.78l0,0Zm0,1.42v.41l0,0v-.33l0-.05Zm0,.76v.62l0,0v-.62l0,0Zm0,1.43v.1h0v0l0-.07Zm0,.3v.59h0V22.3Zm0,.76v.56h0v-.56Zm0,.65v.53h0v-.54Zm0,.73v.32l0,.19h0v-.52Zm0,3v.22h0v-.48l0,.26Zm0,.41v.53h0v-.53Zm0,.62V29h0v-.55Zm0,.71v.58l0,0v-.59Zm0,.77v.17l0-.07V30l0,0Zm0,.9v.6l0,0v-.61l0,0Zm0,.95v.48l0-.05v-.41l0,0Zm0,1v.75l0,0v-.76l0,0Zm0,1.07v.23l0,0v-.17l0,0Zm0,.62v.24l0,0v-.31l0,0Zm0,.83V36l0,0v-.55l0,0Zm0,.95v.1l0,0v-.17l0,0Zm0-14.77v0h0Zm0-5.94v.18l0,0v-.23l0,0Zm0,.51v.55l0,0v-.49l0,0Zm0,1.07v.42l0,0v-.48l0,0Zm0,.82V18l0,0h0l0,0Zm0,.39v.78l0,0v-.79l0,0Zm0,1.5v.33l0,0v-.27l0,0Zm0,.69v.62l0,0v-.62l0,0Zm0,.94v0l0,.06v-.09Zm0,.58v0h0Zm0,.22v.59h0v-.6l0,0Zm0,.76v.56h0v-.56Zm0,.65v.54h0V23.7Zm0,.73V25h0v-.52Zm0,2.73v.48h0v-.51h0v0Zm0,.68v.53h0v-.53Zm0,.62V29h0v-.55Zm0,.71v.59h0v-.59Zm0,.78V30L17,30v0Zm0,.9v.61h0v-.61Zm0,.95v.41l0,0v-.35l0,0Zm0,1v.76l0,0v-.77l0,0Zm0,1.08v.17l0,0V34l0,0Zm0,.56v.31l0,0v-.37l0,0Zm0,.89v.55l0,0v-.49l0,0Zm0,.89v.17l0,0v-.23l0,0Zm0-5.7v0h0ZM17,27v0Zm0-1.69v-.13h0v.13Zm0-5.78v0h0Zm0-4v.23l-.1.09v-.46l.1.14Zm0,.57v.49l-.1-.12V16.2l.1-.08Zm0,1v.48l-.1.11V17l.1.1ZM17,18h0Zm0,.34v.79l-.1-.08v-.8l.1.09Zm0,1.16v0l-.1.14v-.24l.1.07Zm0,.41v.27l-.1-.06v-.07l.1-.14Zm0,.63v.62l-.1-.05v-.64l.1.07Zm0,.95v.09l-.1.2v-.35l.1.06Zm0,.79v.6l-.1,0v-.55l0-.05.08,0Zm0,.77v.56l-.1,0V23l.1,0Zm0,.65v.54l-.1,0v-.54l.1,0Zm0,.74V25h-.1v-.53l.1,0Zm0,.74v.13l0,.38h-.07v-.52Zm0,1.76V27h-.1V26.5H17l0,.44Zm0,.21v.51l-.1,0v-.52Zm0,.71v.53l-.1,0v-.54Zm0,.61V29l-.1,0V28.5l.1,0Zm0,.72v.59l-.1,0v-.59l.1,0ZM17,30v0h0Zm0,.57v0l-.1.05v-.27l.1.2Zm0,.33v.61l-.1.07v-.62l.1-.06Zm0,1v.35l-.1-.14V31.9l.1-.07Zm0,1v.77l-.1.09v-.78l.1-.08ZM17,34v.11L17,34,17,34Zm0,.5v.37l-.1.1v-.57l.1.1Zm0,1v.49l-.1-.09v-.29l.1-.11Zm0,.83v.23l-.1.13v-.45l.1.09Zm-.1-3.67v-.15l.07.1-.07,0Zm0-6.21v-.52H17v.51Zm0-10.95v.46l-.31.27L16.49,16V15l.1-.08.35.45Zm0,.79v.29l-.14-.16.14-.13Zm0,.82v.69l-.12.11-.33-.31v-1h0l.45.47Zm0,1.23v.8l-.45-.36V18.6l.36-.43.09.08Zm0,1.18v.24l-.22.31-.23-.16v-.74l.45.35Zm0,.62v.07l0,0,0-.05Zm0,.42v.64l-.45-.26v-.11l.24-.4.21.13Zm0,1v.35l-.09.18-.36-.16v-.61l.45.24Zm0,.86v.55l-.19-.07.19-.48Zm0,.72v.57l-.43-.12.16-.54.27.09Zm0,.67-.45-.11v.57l.45.08v-.54Zm0,.74V25l-.45-.05v-.56l.45.08Zm0,.75v.52l-.45,0v-.55l.45.06Zm0,.67v.52h-.45v-.54l.45,0Zm0,.66V27l-.45,0v-.54l.45,0Zm0,.66v.52l-.45.08v-.55l.45-.05Zm0,.71v.54l-.45.11V28l.45-.08Zm0,.63-.45.12h0l.16.53.29-.1V28.5Zm0,.73v.59h0l-.2-.52.21-.08Zm0,1.11v.27l-.45.24v-.6l.33-.15.12.24Zm0,.59v.62l-.25.16-.2-.34v-.19l.45-.25Zm0,1V32L16.87,32l.07-.05Zm0,.52v.15l-.45.34v-.72l.19-.13.26.36Zm0,.52v.78l-.14.12-.31-.37v-.18l.45-.35Zm0,1.41v.57l-.45.46v-.94l.29-.25.16.16Zm0,1.17v.29l-.14-.12.14-.17Zm0,.63v.45l-.35.46-.1-.09V36l.14-.15.31.28Zm-.45-2.06V33.9l.09.11-.09.08Zm0-2.27v0Zm0-1.85v-.55h0l.18.47-.2.09Zm0-7.32v-.56l.23.1-.19.47Zm0-2.34V20.2l.05,0-.05.08Zm0-2.14v-.29l.14.12Zm0-3.13v1l-.39-.44v-.16l.39-.35Zm0,1.51v1l-.39-.37V17l.39-.41Zm0,1.33v.29l-.26.32-.13-.11v-.87l.39.37Zm0,.72v.09l0,0,0-.06Zm0,.48v.74l-.39-.27V19.1l.14-.21.25.19Zm0,1.12v.11l-.24.41-.15-.09v-.69l.39.26Zm0,.54v.11l0,0,0-.08Zm0,.45v.61l-.39-.19V21.5l.2-.42.19.11Zm0,.9v.56l-.39-.14v-.59l.39.17Zm0,1.48v.57l-.13,0,.11-.56Zm0,.77v.56l-.28,0,.08-.56.2,0Zm0,.77v.55l-.34,0,0-.57.3,0Zm0,.71v.54h-.33V25.8l.32,0Zm0,.7v.54l-.31,0,0-.56.34,0Zm0,.69v.55l-.22,0-.07-.56.29,0Zm0,.74v.57h0l-.1-.55.14,0Zm0,.67h0Zm0,.8V30l-.39.17v-.58l.39-.14Zm0,.83v.6l-.22.12-.17-.35v-.18l.39-.19Zm0,.93v.19l-.08-.14.08-.05Zm0,.62-.28-.47-.11.07v.68l.39-.26v0Zm0,.39v.72l-.3.22L16.1,33v-.55l.39-.26Zm0,1.1v.18l-.09-.1.09-.08Zm0,.61v.19l-.39.35V33.6l.08-.07.31.37Zm0,.54v.94l0,.06-.34-.34v-.29l.39-.37Zm0,1.58V37l-.39-.35v-.15l.39-.45Zm-.39-.25v-.31l.15.15-.15.16Zm0-6.47v-.54l.16-.05.14.49-.3.1Zm0-.73v-.52h0l.09.49-.1,0Zm0-4.52v-.53l.12,0-.09.5Zm0-.72v-.56l.32.12-.14.49-.18-.05Zm0-2.32v0h0v0Zm0-4.42.2-.21-.2-.22Zm0-1.2v.16L16,15.49v-.05l.06,0Zm0,.77v.43l-.06.06V16.1l.06.06Zm0,.8v.18L16,17.09V17L16.1,17Zm0,.55v.87l-.06,0v-.88l.06,0Zm0,1.59v.45l-.06,0v-.35l.06-.07Zm0,.84v.69l-.06,0v-.7l.06,0Zm0,1v0l-.06.1V21l.06,0Zm0,.51v.11l-.05,0,.05-.09Zm0,.42v.59l-.06,0V21.9l.06,0Zm0,.85v.56l-.06,0v-.55Zm0,.75v.53H16V23.5l.06,0Zm0,4.53v.52H16v-.52Zm0,.71v.54l-.06,0v-.55Zm0,.8v.58l-.06,0v-.59l.06,0Zm0,.88v.18l-.06-.1v-.06l.06,0Zm0,1v.68l-.06,0v-.69l.06,0Zm0,1.05V33L16,32.92v-.43l.06,0Zm0,1.15v.84l-.06.05v-.85l.06,0Zm0,1.21v.29L16,35.05v-.2l.06,0Zm0,.65v.31l-.06,0v-.41l.06.05Zm0,1v.15l-.06,0v-.06l.06-.05ZM16,31.08V31l0,.05Zm0-15.64v.05l0,0,0,0Zm0,.66v.55l-.14.15v-.86l.14.16ZM16,17v.08l0,0,0,0Zm0,.46v.88l-.14-.12v-.89l.14.13Zm0,1.7v.35l-.14-.1v0l.14-.21Zm0,.74v.7l-.14-.09v-.7l.14.09ZM16,21v.15l-.14.3v-.53L16,21Zm0,.94v.59l-.14-.06v-.6l.13.07Zm0,.86v.55l-.14,0v-.56l.14.05Zm0,.74V24l-.14,0v-.54l.14,0Zm0,4.56v.52l-.14,0v-.53l.14,0Zm0,.71v.55l-.14.05v-.56l.14,0Zm0,.81v.59l-.14.06v-.59l.14-.06Zm0,.88v0ZM16,31v.06l-.14.08v-.44L16,31Zm0,.4v.69l-.14.09v-.69l.14-.09Zm0,1.07v.43l-.14-.2v-.14l.14-.09Zm0,1.15v.85l-.14.13v-.87l.14-.11Zm0,1.21v.2L16,35l.09-.1Zm0,.56v.41L15.9,36v-.72l.14.15Zm0,1.11v.06l0,0,0,0Zm-.14-3.18V33.2l.06.09-.06.05Zm0-5.52V27.3H16l.07.51-.13,0Zm0-.73v-.51h0l0,.5Zm0-.75v-.51h0v.51Zm0-.74v-.51h0l0,.51Zm0-.79v-.52l.14,0-.06.51Zm0-5.92v-.24l.11.09Zm0-3v.86l-.08.08-.4-.36V16l.26-.27.22.24Zm0,1.4v.89l-.48-.39v-.13l.38-.47.1.1Zm0,1.31v.24l-.25.37-.23-.16v-.82l.48.37Zm0,.73v0h0l0,0Zm0,.44v.7l-.48-.27v-.12l.27-.46.21.15Zm0,1.06v.53l-.05.09-.43-.19v-.59l.15,0,.33.19Zm0,1v.57l-.19-.07.19-.5Zm0,.85v.56l-.47-.13.16-.54.31.11Zm0,.76V24l-.48-.09v-.57l.48.12Zm0,.82v.52l-.48-.06V24.2l.48.09Zm0,.8v.51l-.48,0V25l.48.07Zm0,.74v.51h-.48v-.53l.48,0Zm0,.75v.51l-.48.06v-.54l.48,0Zm0,.72v.52l-.48.08v-.54l.48-.06Zm0,.79v.53l-.48.12v-.56l.48-.09Zm0,.72v.56l-.34.11L15.42,29v0l.48-.13Zm0,.83v.59h0l-.2-.52.22-.08Zm0,1.08v.44l-.36.21-.12,0v-.6l.4-.18.08.16Zm0,.79v.69l-.26.17L15.42,32v-.21l.48-.27Zm0,1.07v.14l-.07-.09.07-.05Zm0,.62v.14l-.48.36v-.8l.18-.12.3.42Zm0,.55v.87l-.16.14-.32-.39v-.24l.48-.38Zm0,1.51V36l-.29.3-.19-.2v-.66l.34-.3.14.14ZM15.42,35v-.25l.12.14-.12.11Zm0-4.59v-.62l.05,0,.2.52-.25.12Zm0-8.17v-.64l.28.14-.2.53-.08,0Zm0-5,.17-.21-.17-.16v.37Zm0-1.74v-.11l.05.06Zm0-.11v.11l-.18.18v-.49l.18.2Zm0,.52v.55l-.18-.17v-.2l.18-.18Zm0,1v.37l-.18.22v-.76l.18.17Zm0,.78v.13l-.07-.05.07-.08Zm0,.57v.82L15.24,19v-.84l.18.14Zm0,1.85v.12l-.06,0,.06-.09Zm0,.59v.59l-.13-.06,0-.1v-.39l.18,0Zm0,.9v.64l-.18-.06v-.66l.18.08Zm0,1.73v.57l-.16,0,.11-.56Zm0,.85v.55l-.18,0v-.56l.18,0Zm0,.82v.55h-.18V25l.18,0Zm0,.79v.53h-.18v-.56l.18,0Zm0,.8v.54l-.18,0v-.56Zm0,.75v.54l-.18,0v-.55l.18,0Zm0,.82v.56h-.07l-.1-.54.17,0Zm0,.76v0Zm0,.87v.62l-.18.08v-.64l.18-.06Zm0,.93v.6l-.18,0v-.45l0,0,.16-.07Zm0,1V32l-.09-.16.09,0Zm0,1.12v.8l-.18.14V33l.18-.12Zm0,1.23v.24l-.13-.14.13-.1Zm0,.64V35l-.18.16v-.62l.18.21Zm0,.65v.66l-.18-.18v-.32l.18-.16Zm-.18,1.23v-.34l.16.17-.16.17Zm0-7.07v-.44l.12.4-.12,0Zm0-6.55V22.5l.14.05Zm0-7.78v.49l-.33.33-.17-.16V14.78l0,0,.47.5Zm0,.9v.2l-.1-.09.1-.11Zm0,.61v.76l-.1.11-.4-.32v-.63l.17-.22.33.3Zm0,1.38V19l-.5-.34v-.05l.38-.54.12.09Zm0,2.62v.39l-.18-.35.18,0Zm0,.78v.66l-.31-.11-.19-.28v-.17l.42-.14.08,0Zm0,1V23l0,.07L14.74,23v-.6l.09,0,.41.15Zm0,1.67v.56H15.1l.07-.56Zm0,.83v.56H15l0-.57.17,0Zm0,.79v.56H15v-.56Zm0,.82v.56l-.18,0,0-.56.21,0Zm0,.77v.55l-.08,0-.07-.55.15,0Zm0,1.76v.44l-.44.15-.06,0v-.6L15.2,29l0,.14Zm0,.73v.64l-.12.06-.38-.13v-.22L14.9,30l.34-.12Zm0,1v.45L15,31.25l.21-.4Zm0,2.17v.82l-.17.13-.33-.46v-.16l.5-.33Zm0,1.54v.62l-.38.35-.12-.14v-.74l.35-.27.15.18Zm0,1v.32l-.16-.17.16-.15Zm0,.73v.34l-.5.54V36l.11-.11.39.39Zm-.5-7.42v-.6l.29-.05.1.55-.39.1Zm0-.88v-.58l.13,0,.07.56-.2,0Zm0-.81v-.56h.07l0,.56Zm0-.84v-.58h.09v.57Zm0-.82V25l.11,0,0,.57Zm0-.85V24.1l.22,0-.07.56Zm0-.88V23.2l.42.1-.12.56Zm0-9v1.13l-.58-.53.58-.6Zm0,1.9v.63l-.32-.25.32-.38Zm0,1.91v.05h0l0,0Zm0,3.05v.17l-.09-.14.09,0Zm0,.74V23l-.09,0-.33-.4.42-.17Zm0,.82v.61l-.69-.13.12-.62.57.14Zm0,.9v.59l-.86-.1L14,24l.78.14Zm0,.85v.59l-.94-.07,0-.63.89.11Zm0,.83v.58H13.8v-.63l.93.05Zm0,.86v.56l-.91.11,0-.62,1-.05Zm0,.79V28l-.8.14-.08-.62.88-.1Zm0,.86v.6l-.6.14L14,28.42l.71-.13Zm0,.82v.6l-.45-.17.34-.4.11,0Zm0,1.11v.22l-.12,0,.12-.18Zm0,3.13v.16l-.08-.1.08-.06Zm0,1.3v.74L14.36,35l.38-.3Zm0,1.38v1.16l0,0-.6-.62.64-.58Zm-1.08-7.85-1.11.19-.08-.69,1.12-.13.07.63Zm-.11-.86-1.11.13,0-.69,1.12-.06,0,.62Zm-1.37.14-.91.12,0-.77.92,0,0,.7Zm1.5-3.53-1.11-.19-.08.7,1.11.12.08-.63Zm-.11.9-1.11-.14-.06.7,1.12.08.05-.64Zm-1.37-.15-.91-.13-.06.78.92.05,0-.7Zm1.33,1.06-1.12-.06v.7h1.12v-.63Zm-1.37-.06-.92-.06v.78h.91v-.71ZM11,25.62l-1-.06v.87h1Z"/>
  <path class="cls-3" d="M25.44,17.85A8.15,8.15,0,1,0,33.59,26a8.14,8.14,0,0,0-8.15-8.15m0,13A4.89,4.89,0,1,1,30.33,26a4.88,4.88,0,0,1-4.89,4.88"/>
  <path class="cls-4" d="M29.58,25.19H21.27V23.44h8.31Zm-8.23-.09h8.14V23.52H21.35Z"/>
  <rect class="cls-5" x="21.31" y="25.16" width="8.23" height="1.66"/>
  <path class="cls-4" d="M29.58,28.55H21.27V26.81h8.31Zm-8.23-.08h8.14V26.89H21.35Z"/>
  <rect class="cls-3" x="21.31" y="23.48" width="8.23" height="1.67"/>
  <path class="cls-4" d="M29.58,26.87H21.27V25.12h8.31Zm-8.23-.08h8.14V25.2H21.35Z"/>
  <rect class="cls-3" x="21.31" y="26.85" width="8.23" height="1.67"/>
  <polygon class="cls-6" points="21.31 23.48 22.95 25.13 22.95 26.82 21.31 28.51 21.31 23.48"/>
  <path class="cls-3" d="M21.27,28.61V23.38L23,25.11v1.72Zm.08-5v4.83l1.56-1.61V25.14Z"/>
  <polygon class="cls-4" points="19.87 25.77 19.91 26.29 19.25 26.33 19.94 26.75 19.98 27.36 19.18 26.83 17.96 27.55 17.92 26.93 18.7 26.49 18.53 26.38 17.89 26.42 17.85 25.9 19.87 25.77"/>
  <path class="cls-4" d="M20,27.4l.2.49-1.13.43c-.19.07-.34.16-.26.36s.23.17.44.09l1.13-.43.19.49-1.07.4c-.6.24-.95.12-1.15-.37s-.06-.8.59-1.05Z"/>
  <polygon class="cls-4" points="20.55 30.76 20.55 30.76 21.62 30.1 21.95 30.48 20.15 31.47 19.81 31.08 20.58 30.19 20.58 30.19 19.57 30.8 19.23 30.41 20.5 28.82 20.84 29.2 20.01 30.14 20.01 30.14 21.09 29.49 21.37 29.82 20.55 30.76"/>
  <path class="cls-4" d="M20.81,32.05l1.54-1.41.46.27-.55,2-.45-.27.09-.26-.46-.27-.19.2Zm1.45-.77-.51.53L22,32Z"/>
  <polygon class="cls-4" points="22.73 33.05 23.38 31.17 23.88 31.34 23.23 33.22 22.73 33.05"/>
  <polygon class="cls-4" points="23.98 31.41 25.46 31.59 25.39 32.11 24.92 32.05 24.73 33.5 24.2 33.44 24.39 31.98 23.91 31.93 23.98 31.41"/>
  <path class="cls-4" d="M26.68,33.45l-.52-1.92.76-.19a.69.69,0,0,1,.38,1.32l-.26.06.16.6Zm.45-1.23c.12,0,.19-.11.14-.28s-.22-.16-.32-.13l-.15,0,.12.42Z"/>
  <path class="cls-4" d="M29.5,31.17c.36.58.25,1.09-.16,1.34s-.93.1-1.29-.48a.88.88,0,0,1,.18-1.31.92.92,0,0,1,1.27.45m-1,.59c.13.22.35.46.57.33s.14-.37,0-.65-.37-.43-.57-.3-.11.41,0,.62"/>
  <polygon class="cls-4" points="30.5 31.61 29.02 30.25 29.39 29.87 30.52 30.91 31.02 30.39 31.37 30.71 30.5 31.61"/>
  <polygon class="cls-4" points="31.64 30.3 29.92 29.24 30.21 28.8 31.92 29.86 31.64 30.3"/>
  <path class="cls-4" d="M31.41,28a.3.3,0,0,0-.41.15c-.06.17.09.35.45.48s.54.13.63-.12,0-.28-.23-.36l.17-.47a.77.77,0,0,1,.53,1c-.18.5-.68.66-1.3.44s-.88-.68-.72-1.1a.78.78,0,0,1,1-.48Z"/>
  <polygon class="cls-4" points="32.87 27.31 30.85 27.17 30.94 25.88 31.41 25.91 31.36 26.68 31.65 26.7 31.69 26.05 32.16 26.08 32.12 26.73 32.44 26.76 32.49 25.95 32.97 25.98 32.87 27.31"/>
  <path class="cls-4" d="M20.91,22.05l-.15.16a.21.21,0,0,1-.15.07.29.29,0,0,1-.17,0l.08.25a7.2,7.2,0,0,0-.61.88.47.47,0,0,1-.24.2.36.36,0,0,1-.29,0,.82.82,0,0,1-.25-.23C19,23.19,19,23.09,19,23L19,23l0,0c.08.14.14.22.19.24a.21.21,0,0,0,.19,0,.34.34,0,0,0,.17-.14,8,8,0,0,1,.66-.92,1.1,1.1,0,0,1-.19-.23,1.36,1.36,0,0,1,0-.4l.14.13a.49.49,0,0,1,.08.1l.07.09a.14.14,0,0,0,.22,0l.07-.08.27.27m-1.38-.41a1.19,1.19,0,0,1,0,.37,2.76,2.76,0,0,1-.36.21,2.17,2.17,0,0,1,0,.26,1.55,1.55,0,0,1-.34.24.59.59,0,0,1,0-.18c0-.06,0-.17,0-.19s.09-.06.18-.11a.45.45,0,0,0,.15-.11,1.16,1.16,0,0,1,0-.13v-.16l.37-.2"/>
  <path class="cls-4" d="M21,21.45a3.36,3.36,0,0,1,.24.29c-.16.15-.24.23-.4.4a3.31,3.31,0,0,0-.27-.26,5.81,5.81,0,0,1,.43-.43"/>
  <path class="cls-4" d="M21.63,20.71a5,5,0,0,1,.24.5,4.77,4.77,0,0,0-.74.62l-.25-.28a5.7,5.7,0,0,1,.64-.56,1.34,1.34,0,0,0-.4-.17c0-.16,0-.24,0-.41a.76.76,0,0,1,.54.3m-.16,1.44a.74.74,0,0,1,0-.29s.25,0,.26,0,0-.05,0-.11a.42.42,0,0,1,0-.11l.29,0a1.47,1.47,0,0,1,0,.3l-.27,0s0,.18,0,.2a.58.58,0,0,1-.28,0"/>
  <path class="cls-4" d="M23,20.55l-.21.11a1.53,1.53,0,0,1,0,.43c0,.17-.09.29-.18.34a.84.84,0,0,1-.28.09.62.62,0,0,1-.3,0l0,0,0,0a.4.4,0,0,1,.13-.06.48.48,0,0,0,.12-.05.84.84,0,0,0,.21-.26,3.1,3.1,0,0,0,.14-.34s-.25.09-.27.09a.2.2,0,0,1-.24-.09,1,1,0,0,1-.1-.44c0-.22,0-.37.14-.42s.33.05.55.39l.18-.09c.05.14.08.21.14.35m-.57-.16s-.11-.08-.11-.09-.1,0-.13,0a.14.14,0,0,0,0,.08s0,.07,0,.08h0s.14,0,.23,0l0-.05"/>
  <path class="cls-4" d="M24,20.19l-.24.07-.28-.16-.05.27c-.22.09-.33.13-.55.24l-.15-.35c.22-.11.34-.16.56-.25a5.86,5.86,0,0,0-.67-.28,1.22,1.22,0,0,1-.06-.54c.19-.35,1-.58,1-.58a2.12,2.12,0,0,1,0,.4,7.63,7.63,0,0,0-.73.42,4.67,4.67,0,0,1,.49.27.76.76,0,0,0,.46.16l.14,0c0,.15.06.22.09.37"/>
  <path class="cls-4" d="M24.44,18.77c-.09.16-.14.24-.22.4s.07.28.12.46a1.11,1.11,0,0,1,0,.23.67.67,0,0,1,0,.21s0,0,0,.05l-.4.09c0-.14-.05-.22-.09-.37l.33-.08s0,0,0,0a2.35,2.35,0,0,0-.12-.37,1.12,1.12,0,0,0-.15-.34s-.12-.06-.13-.08.11-.37.17-.46h0a.36.36,0,0,0,0,.11.77.77,0,0,0,.22.1,1.17,1.17,0,0,0,.25.08"/>
  <path class="cls-4" d="M25.15,19.43A1.08,1.08,0,0,1,25,20c-.09-.45-.14-.67-.25-1.11a3.14,3.14,0,0,1,.23-.48,5.37,5.37,0,0,1,.16,1"/>
  <path class="cls-4" d="M27.05,18.57l-.13.11-.13.08s-.19-.19-.28-.2-.13.12-.18.12a1,1,0,0,1-.3-.17s.18-.22.24-.22.27.18.27.18l.22-.12.29.22m.24,1.68-.3-.08a.18.18,0,0,1-.12-.17c0-.07,0-.23,0-.23a1.46,1.46,0,0,0-.12.14c-.06.08-.1.11-.13.1a4.93,4.93,0,0,0-.54-.19,2.48,2.48,0,0,1,.16-.41.51.51,0,0,1,.21-.17,2.92,2.92,0,0,0,.41-.16.75.75,0,0,1,0-.11c.11-.12.16-.19.28-.31h0a4.56,4.56,0,0,1,0,.54c0,.24,0,.41,0,.51s0,.09.13.11l.16.05-.1.37m-.44-.66c0-.13,0-.19,0-.31a1,1,0,0,1-.18.14.59.59,0,0,0-.14.07l.33.1"/>
  <path class="cls-4" d="M27.77,20c-.05.14-.07.22-.12.36l-.49-.16.1-.37a5.08,5.08,0,0,1,.51.17"/>
  <path class="cls-4" d="M28.14,20.16c-.06.14-.09.21-.14.35l-.49-.19c0-.14.07-.22.12-.36a5.38,5.38,0,0,1,.51.2"/>
  <path class="cls-4" d="M29.68,20.93l-.4.34a5.48,5.48,0,0,0-1.4-.81c.05-.14.08-.21.14-.35l.18.07c.06,0,.1,0,.13,0a3.35,3.35,0,0,0,.12-.39c.05-.21.08-.34.08-.37a.11.11,0,0,0,0-.07.08.08,0,0,1,0-.07.33.33,0,0,1,.15-.13l.2-.08a3.56,3.56,0,0,1,.24.52s-.12.08-.17.12a.23.23,0,0,1-.18.05h0a.34.34,0,0,0,0,.08l0,.07s-.21.29-.21.29a2.86,2.86,0,0,1,.54,0,1.34,1.34,0,0,1,.53.13.47.47,0,0,1,.15.3.58.58,0,0,1,0,.33m-.34-.09a.41.41,0,0,0,0-.21.32.32,0,0,0-.11-.17.93.93,0,0,0-.64-.1,5.85,5.85,0,0,1,.78.48"/>
  <path class="cls-4" d="M30.44,22.37l-.17-.19a.53.53,0,0,1-.06-.13h0a3.79,3.79,0,0,0-.4.12.42.42,0,0,1-.38-.05,1.14,1.14,0,0,1-.18-.31,1.74,1.74,0,0,1-.11-.37l0,0h0a.67.67,0,0,0,.05.12.37.37,0,0,0,.11.18,1,1,0,0,0,.43.12c.22,0,.36,0,.41,0a.37.37,0,0,0,.06-.21,1.15,1.15,0,0,1,0-.17l.17-.06.2,0s0,.27-.05.39a.44.44,0,0,0,.13.36l0,.06-.28.25"/>
  <path class="cls-4" d="M30.84,22.9l-.18-.26s.06-.07.05-.08l-.08,0-.07,0-.2-.24.27-.26c.11.13.17.19.27.33a.33.33,0,0,0,.17-.07.29.29,0,0,1,.2,0,.59.59,0,0,1,.21.06l-.07.06a1.37,1.37,0,0,1-.37.13.91.91,0,0,0,.11.16l-.31.22"/>
  <path class="cls-4" d="M32.36,23l-.18,0c-.1,0-.15-.06-.16-.08s0-.29-.07-.38-.17,0-.23-.09a.75.75,0,0,1-.08-.38l.17,0c.1,0,.16,0,.17.06a2.81,2.81,0,0,1,.06.35l.12.06.13.06c0,.16.05.25.07.41m-.6.52a.44.44,0,0,1-.23.06l-.25,0a5.55,5.55,0,0,0-.29-.48A.25.25,0,0,0,31,23l-.08,0-.17-.24.3-.23.21.3a.27.27,0,0,1,.13-.05.56.56,0,0,1,.43.1h0a.51.51,0,0,1-.2.05.68.68,0,0,0-.21.06v0l.15.25h0l.05,0,.05,0s.11,0,.23,0l.24.09-.37.19m.64-1-.16-.07a.25.25,0,0,1-.13-.08.61.61,0,0,1,0-.15.42.42,0,0,1,0-.15s.06,0,.15,0a.51.51,0,0,1,.15.07,1,1,0,0,1,0,.34"/>
  <polygon class="cls-4" points="13.5 6.41 12.88 6.33 12.8 6.66 12.46 6.62 12.36 7.07 12.97 7.16 13.04 6.85 13.38 6.88 13.5 6.41"/>
  <polygon class="cls-4" points="17.23 8.49 16.9 8.41 16.72 8.86 17.32 9.03 17.45 8.71 17.78 8.8 17.94 8.36 17.35 8.19 17.23 8.49"/>
  <path class="cls-4" d="M14.72,8.3l-1.07-1-.17.65.09.08-.38.72a.41.41,0,0,0,0,.31l.22.74,1.09-.53,0-.4.31.31,2-1.18.05-.27.16.16.78-.38.47-.18,0-.21a.21.21,0,0,0,.19.1l.22-.07,2.57-.8.11,0a.32.32,0,0,0,.15,0,.16.16,0,0,0,.08-.06l.1-.13a1,1,0,0,1,.56-.37l.27,0h.31l.28-.75a2.23,2.23,0,0,1-.36,0h-.32l-.37-.06-.43-.1-.37-.1a.89.89,0,0,0-.37,0,.39.39,0,0,0-.23.19L20.54,5l-.09.15s-.05.09-.08.16a.68.68,0,0,1,.17-.07.45.45,0,0,1,.23,0,2,2,0,0,1,.35.09l.3.09a1.06,1.06,0,0,0,.22,0l-2.79.8-.07,0c-.06,0-.1,0-.12,0s-.05,0-.07-.08l-.06-.17L17.8,4.2l-.32.8.61,1.58L17,7.06l-.52-.56-.2.59.21.22m-3,1.58.32-.62.32.31Z"/>
  <polygon class="cls-4" points="21.82 3.83 21.27 3.52 21 3.92 21.55 4.21 21.82 3.83"/>
  <path class="cls-4" d="M24.14,4.42c0-.11,0-.2,0-.26l-.06-.35V3.75l.1-.13-.21-.81-.5.75,0,.1.1.61.13.78q0,.09,0,.27a2.51,2.51,0,0,1,0,.27,1.79,1.79,0,0,1,0,.24,2,2,0,0,1,0,.23,1.58,1.58,0,0,0,.36-.63,2.09,2.09,0,0,0,0-.78S24.16,4.53,24.14,4.42Z"/>
  <path class="cls-4" d="M28.65,5.91l.08-.14a2.6,2.6,0,0,0,.12-.24L29,5.24a.64.64,0,0,0,.06-.16s0-.11,0-.18V4.6l0-.77.09,0,.27-.48-.41-.23L29,3.11A.18.18,0,0,1,28.9,3a.24.24,0,0,1,0-.08V2.85l-.28.34-.06.08a.15.15,0,0,0-.06.11c0,.07,0,.12.1.16h0l-.06,1.62-2-.15L25.8,3.78l-.31.55.41.7H25a.23.23,0,0,1-.1-.07.24.24,0,0,1-.09-.15l0,.06a1.56,1.56,0,0,0-.12.34,1,1,0,0,0,0,.24c0,.14.05.23.14.27a.31.31,0,0,0,.18,0H26l.14-.23.13.22"/>
  <path class="cls-4" d="M29.83,3.82l-.07.61-.09.79a2,2,0,0,0,0,.27,2.24,2.24,0,0,1-.05.27c0,.07,0,.15,0,.24l-.06.22A1.73,1.73,0,0,0,30,5.71,2,2,0,0,0,30.26,5a1.58,1.58,0,0,1,0-.23c0-.11,0-.19,0-.26l0-.35V4.07L30.51,4l0-.85-.69.59Z"/>
  <polygon class="cls-4" points="32.86 4.17 33.04 4.46 33.49 4.26 33.16 3.72 32.86 3.85 32.68 3.56 32.26 3.77 32.57 4.31 32.86 4.17"/>
  <path class="cls-4" d="M33.1,6.33a2.21,2.21,0,0,0,.18-.3.6.6,0,0,0,0-.29A1.83,1.83,0,0,0,32.79,5a.67.67,0,0,0-.29-.21.16.16,0,0,0-.15,0,1,1,0,0,0-.2.21,4,4,0,0,0-.39.56,2.38,2.38,0,0,0-.24.49.49.49,0,0,0,0,.36.33.33,0,0,0,.11.12l.22.08.84.27C32.87,6.66,33,6.48,33.1,6.33Zm-.88-.4c-.1,0-.13-.09-.1-.2a.36.36,0,0,1,0-.09.77.77,0,0,1,.09-.13l.06-.09a.13.13,0,0,1,.12,0,.42.42,0,0,1,.24.26.86.86,0,0,1,.08.45L32.29,6Z"/>
  <path class="cls-4" d="M33.76,6.31a.88.88,0,0,1,.05.15s0,.11,0,.19,0,.14,0,.2a1.15,1.15,0,0,1,0,.2l0,0a2.31,2.31,0,0,1-.26.2,1.09,1.09,0,0,1-.26.1.85.85,0,0,1-.57,0,.56.56,0,0,1-.15-.08.76.76,0,0,1-.17-.13,2.15,2.15,0,0,0,.18.64.55.55,0,0,0,.24.3.52.52,0,0,0,.3,0,1.35,1.35,0,0,0,.38-.19A2.7,2.7,0,0,0,34,7.5a2,2,0,0,0,.3-.47,1.26,1.26,0,0,0,.08-.43A3.66,3.66,0,0,0,34.31,6Z"/>
  <path class="cls-4" d="M35.67,6.8l.09-.21a1.6,1.6,0,0,0,.11-.25L36,6l0,0,.16-.06.24-.81-.83.39,0,.09-.22.57-.3.74-.11.25c0,.11-.08.2-.11.25l-.1.22a1.36,1.36,0,0,0-.11.2,1.87,1.87,0,0,0,.63-.36A2.08,2.08,0,0,0,35.67,6.8Z"/>
  <polygon class="cls-4" points="37.25 6.64 37.04 6.05 36.58 6.17 36.8 6.75 37.25 6.64"/>
  <path class="cls-4" d="M36.8,7.8a2.76,2.76,0,0,0,0-.58l-.57.22,0,.15s0,.12,0,.19,0,.15,0,.21a1.56,1.56,0,0,1,0,.2l-.05,0a1.3,1.3,0,0,1-.28.17,1,1,0,0,1-.83,0L35,8.27l-.16-.15a2.65,2.65,0,0,0,.11.66.49.49,0,0,0,.2.32.47.47,0,0,0,.3,0,1.6,1.6,0,0,0,.4-.14,2.48,2.48,0,0,0,.49-.35,1.59,1.59,0,0,0,.35-.42A1.23,1.23,0,0,0,36.8,7.8Z"/>
  <path class="cls-4" d="M38.42,7.68a.46.46,0,0,0-.39,0l-.2.08a1.11,1.11,0,0,0-.19.09,1.61,1.61,0,0,0-.58.49.49.49,0,0,0-.07.25.47.47,0,0,0,0,.24l.12.15a2.62,2.62,0,0,0,.27.19l.24.16a1.44,1.44,0,0,1-.21.09.75.75,0,0,1-.23,0,.83.83,0,0,1-.5-.14,2.06,2.06,0,0,1-.25-.22l0,0V9.1a3.33,3.33,0,0,0,0,.35c0,.07,0,.16,0,.25a.51.51,0,0,0,.18.32.49.49,0,0,0,.39,0,1.8,1.8,0,0,0,.68-.3,1.7,1.7,0,0,0,.5-.5,2.36,2.36,0,0,0,.19-.39,2,2,0,0,0,.12-.41,1.4,1.4,0,0,0,0-.35A.49.49,0,0,0,38.42,7.68Zm-.39,1-.16-.11-.11-.07c-.12-.07-.14-.16-.08-.25a.27.27,0,0,1,.17-.12.19.19,0,0,1,.18,0C38.15,8.24,38.15,8.42,38,8.69Z"/>
</svg>