<svg id="Layer_1" data-name="Layer 1" xmlns="http://www.w3.org/2000/svg" viewBox="0 0 103 103"><defs><style>.cls-1{fill:none;stroke:#fff;stroke-miterlimit:10;}.cls-2{fill:#fff;}</style></defs><title>Payment</title><rect class="cls-1" x="1.01" y="1.26" width="100" height="100" rx="50"/><path class="cls-2" d="M63.55,70.16l-6.06-7v7H55.27V56.25h2.22v6.06l5.84-6.06h2.75L59.59,62.5l6.73,7.66Z"/><path class="cls-2" d="M67.49,70.16v-2.5H69.4v2.5Z"/><path class="cls-2" d="M71.42,70.16V56.25h6.32c3.81,0,4.91,1.59,4.91,6.06v1.78c0,4.47-1.1,6.07-4.91,6.07Zm9-8c0-2.89-.46-4.36-2.89-4.36H73.62V68.58h3.94c2.25,0,2.89-1.3,2.89-4.2Z"/><rect class="cls-1" x="15.44" y="27.78" width="71.3" height="46.97"/><line class="cls-1" x1="22.53" y1="56.6" x2="39.12" y2="56.6"/><line class="cls-1" x1="32.8" y1="62.13" x2="38.33" y2="62.13"/><line class="cls-1" x1="22.53" y1="67.66" x2="38.33" y2="67.66"/><line class="cls-1" x1="15.29" y1="36.28" x2="86.4" y2="36.28"/><line class="cls-1" x1="15.29" y1="47.83" x2="86.4" y2="47.83"/></svg>