<svg id="Layer_1" data-name="Layer 1" xmlns="http://www.w3.org/2000/svg" xmlns:xlink="http://www.w3.org/1999/xlink" viewBox="0 0 103 103"><defs><style>.cls-1,.cls-2,.cls-3,.cls-4,.cls-6,.cls-7{fill:none;}.cls-2,.cls-3,.cls-4,.cls-6,.cls-7{stroke:#fff;stroke-miterlimit:10;}.cls-2{stroke-width:1.5px;}.cls-3{stroke-width:0.5px;}.cls-5{clip-path:url(#clip-path);}.cls-6{stroke-width:0.1px;}.cls-7{stroke-width:0.25px;}.cls-8{fill:#fff;}</style><clipPath id="clip-path"><path class="cls-1" d="M41.08,44.18A10.37,10.37,0,1,1,51.45,54.72,10.37,10.37,0,0,1,41.08,44.18h0m-1.66,0A12,12,0,1,0,51.45,32a12.12,12.12,0,0,0-12,12.23"/></clipPath></defs><title>Traffic-Locations-1px</title><path class="cls-2" d="M51.29,1.82h0a50,50,0,0,1,50,50h0a50,50,0,0,1-50,50h0a50,50,0,0,1-50-50h0A50,50,0,0,1,51.29,1.82Z"/><path class="cls-2" d="M25.9,42.14a26.34,26.34,0,0,1,.39-4.86,25.45,25.45,0,0,1,50.5,4.53h0a21.61,21.61,0,0,1-3.5,11.75l-22,33.72L29.83,54.22A27.16,27.16,0,0,1,25.9,42.14Z"/><path class="cls-3" d="M51.45,32a12.23,12.23,0,1,0,12,12.46v-.23A12.14,12.14,0,0,0,51.45,32m0,22.77A10.54,10.54,0,1,1,61.82,44.06v.12A10.45,10.45,0,0,1,51.46,54.72h0"/><path class="cls-3" d="M51.45,56.52A12.35,12.35,0,1,1,63.61,44v.2A12.27,12.27,0,0,1,51.45,56.52m0-24.44A12.1,12.1,0,1,0,63.36,44.37v-.19a12,12,0,0,0-11.9-12.1h0m0,22.76A10.67,10.67,0,1,1,62,44.05v.13A10.59,10.59,0,0,1,51.5,54.84m0-21.08A10.42,10.42,0,1,0,61.7,44.4v-.22A10.34,10.34,0,0,0,51.45,33.76"/><path class="cls-3" d="M53.39,41.06a.38.38,0,0,1,.32.39v3.18a.4.4,0,0,1-.22.37.45.45,0,0,1,.22.42V49H49.29V45.42A.46.46,0,0,1,49.5,45a.42.42,0,0,1-.21-.37V41.45a.37.37,0,0,1,.31-.39.44.44,0,0,1-.31-.46V37.05h4.42V40.6A.43.43,0,0,1,53.39,41.06Z"/><path class="cls-3" d="M53.39,41.06a.38.38,0,0,1,.32.39v3.18a.4.4,0,0,1-.22.37.45.45,0,0,1,.22.42V49H49.29V45.42A.46.46,0,0,1,49.5,45a.42.42,0,0,1-.21-.37V41.45a.37.37,0,0,1,.31-.39.44.44,0,0,1-.31-.46V37.05h4.42V40.6a.43.43,0,0,1-.32.46"/><path class="cls-3" d="M51.45,40.79a1.33,1.33,0,1,1,1.33-1.33,1.34,1.34,0,0,1-1.33,1.33m0-2.65a1.32,1.32,0,1,0,1.32,1.32h0a1.33,1.33,0,0,0-1.32-1.32"/><path class="cls-3" d="M51.45,40.79a1.33,1.33,0,1,0-1.32-1.34h0a1.34,1.34,0,0,0,1.32,1.33"/><path class="cls-3" d="M51.45,44.48a1.33,1.33,0,1,1,1.33-1.33,1.34,1.34,0,0,1-1.33,1.33h0m0-2.65a1.32,1.32,0,1,0,1.32,1.32h0a1.33,1.33,0,0,0-1.32-1.32"/><path class="cls-3" d="M51.45,44.48a1.33,1.33,0,1,0-1.32-1.34h0a1.34,1.34,0,0,0,1.32,1.33"/><path class="cls-3" d="M51.45,48.2a1.33,1.33,0,1,1,1.33-1.33,1.34,1.34,0,0,1-1.33,1.33m0-2.65a1.32,1.32,0,1,0,1.32,1.32h0a1.33,1.33,0,0,0-1.32-1.32"/><path class="cls-3" d="M51.45,48.2a1.33,1.33,0,1,0-1.32-1.34h0a1.34,1.34,0,0,0,1.32,1.33"/><path class="cls-3" d="M52.6,50.34H50.2V49.05h2.37v1.26h0m-2.4,0H52.6v-1.1H50.17Z"/><rect class="cls-3" x="50.17" y="49.24" width="2.43" height="1.11"/><path class="cls-3" d="M52.38,54.77H50.65V50.38h1.7v4.36h0m-1.74,0h1.77v-4.4H50.61Z"/><rect class="cls-3" x="50.61" y="50.34" width="1.77" height="4.43"/><path class="cls-3" d="M52.6,36.83H50.2V36h2.37v.82h0m-2.18-.22H52.6V36H50.39Z"/><rect class="cls-4" x="50.17" y="35.95" width="2.43" height="0.66"/><rect class="cls-3" x="50.17" y="36.61" width="2.43" height="0.44"/><path class="cls-3" d="M41.44,44.51c.74.57,1.47,1.17,2.21,1.74v-.86h.92c.29,0,.27.34.27.68v4.2h1.64V44.7c0-.78-.63-1.14-1.42-1.2H43.64v-.85l-2.21,1.88"/><path class="cls-3" d="M61.79,44.51c-.74.57-1.47,1.17-2.21,1.74v-.86h-.92c-.29,0-.27.34-.27.68v4.2H56.76V44.7c0-.78.64-1.14,1.42-1.2h1.43v-.85l2.21,1.88"/><path class="cls-3" d="M51.45,32a12.23,12.23,0,1,0,12,12.46v-.23A12.14,12.14,0,0,0,51.45,32m0,22.77A10.54,10.54,0,1,1,61.82,44.06v.12A10.45,10.45,0,0,1,51.46,54.72h0"/><g class="cls-5"><path class="cls-3" d="M51.45,56.42a12,12,0,0,1-8.51-3.59,12.1,12.1,0,0,1-2.59-3.89,12.58,12.58,0,0,1,0-9.53,12.1,12.1,0,0,1,2.59-3.89,11.77,11.77,0,0,1,13.2-2.58A12.11,12.11,0,0,1,60,35.52a12.24,12.24,0,0,1,2.58,3.89,12.4,12.4,0,0,1,0,9.53A12.24,12.24,0,0,1,60,52.83a12,12,0,0,1-8.52,3.59m0-24.45a12.21,12.21,0,1,0,12,12.42v-.21A12.13,12.13,0,0,0,51.45,32"/><path class="cls-3" d="M51.45,32a12.23,12.23,0,1,0,12,12.46v-.23A12.14,12.14,0,0,0,51.45,32m0,22.77A10.54,10.54,0,1,1,61.82,44.06v.12A10.45,10.45,0,0,1,51.46,54.72h0"/><path class="cls-3" d="M51.45,64.31a19.31,19.31,0,0,1-7.71-1.58,19.62,19.62,0,0,1-6.29-4.32A20,20,0,0,1,33.2,52a20.46,20.46,0,0,1,0-15.67,20.11,20.11,0,0,1,4.25-6.4,19.6,19.6,0,0,1,27.72-.28l.28.28a20.11,20.11,0,0,1,4.25,6.4A20.55,20.55,0,0,1,69.7,52,20.1,20.1,0,0,1,59.15,62.72a19.27,19.27,0,0,1-7.71,1.58m0-40.23A20.1,20.1,0,1,0,71.22,44.49v-.32a20,20,0,0,0-19.78-20.1"/><rect class="cls-3" x="39.63" y="51.95" width="9.3" height="2.75" transform="translate(-24.8 59.03) rotate(-55.01)"/><rect class="cls-3" x="45.71" y="53.46" width="9.3" height="2.75" transform="translate(-7.24 102.01) rotate(-86.75)"/><rect class="cls-3" x="48.27" y="30.33" width="9.3" height="2.62" transform="translate(15.16 80.38) rotate(-83.11)"/><path class="cls-3" d="M53.69,36.44h0l-2.62-.31h0l1.12-9.25h0l2.62.32h0Zm-2.61-.35,2.58.31,1.11-9.2-2.57-.31Z"/><rect class="cls-3" x="45.59" y="28" width="2.62" height="9.3" transform="translate(-8.92 20.41) rotate(-22.48)"/><path class="cls-3" d="M47.45,37.47h0l-3.56-8.61h0l2.44-1h0l3.56,8.61h0Zm-3.51-8.6,3.53,8.56,2.4-1-3.54-8.56Z"/><rect class="cls-3" x="40.62" y="31.77" width="2.63" height="9.3" transform="translate(-13.05 44.29) rotate(-49.12)"/><path class="cls-3" d="M44.59,40.48h0l-7-6.1,1.75-2h0l7,6.1Zm-7-6.12,7,6.07,1.7-2-7-6.07Z"/><rect class="cls-3" x="38.23" y="37.74" width="2.63" height="9.29" transform="translate(-8.02 75.51) rotate(-81.84)"/><path class="cls-3" d="M44,44.36h0L34.74,43l.37-2.64h0l9.22,1.32h0ZM34.78,43l9.16,1.31.37-2.56-9.17-1.32Z"/><rect class="cls-3" x="53.9" y="33.68" width="9.3" height="2.63" transform="translate(-7.58 51.71) rotate(-45.05)"/><path class="cls-3" d="M56.2,39.24h0l-1.86-1.87,6.58-6.61h0l1.87,1.87Zm-1.84-1.88,1.84,1.83,6.54-6.56L60.9,30.8Z"/><rect class="cls-3" x="57.16" y="38.89" width="9.29" height="2.63" transform="translate(-9.31 20.74) rotate(-17.74)"/><path class="cls-3" d="M57.77,42.89,57,40.36h0l8.86-2.84.81,2.54h0ZM57,40.38l.79,2.47L66.61,40l-.79-2.46Z"/><rect class="cls-3" x="54.49" y="48.96" width="2.75" height="9.3" transform="translate(-13.27 18.75) rotate(-17.06)"/><rect class="cls-3" x="58.41" y="45.85" width="2.76" height="9.29" transform="matrix(0.51, -0.86, 0.86, 0.51, -14.19, 76)"/><rect class="cls-3" x="60.8" y="41.07" width="2.76" height="9.29" transform="translate(9.14 101.78) rotate(-82.91)"/><rect class="cls-3" x="35.99" y="46.89" width="9.29" height="2.76" transform="translate(-14.55 17.68) rotate(-20.91)"/></g><path class="cls-3" d="M41.08,44.18A10.37,10.37,0,1,1,51.45,54.72,10.37,10.37,0,0,1,41.08,44.18h0m-1.66,0A12,12,0,1,0,51.45,32a12.12,12.12,0,0,0-12,12.23"/><path class="cls-6" d="M51.45,57.35A13.2,13.2,0,1,1,64.39,43.89v.27A13.09,13.09,0,0,1,51.45,57.35m0-26.17A13,13,0,1,0,64.17,44.46v-.28a12.86,12.86,0,0,0-12.72-13h0"/><path class="cls-6" d="M51.45,58a13.87,13.87,0,1,1,13.6-14.14v.28A13.75,13.75,0,0,1,51.45,58m0-27.51A13.65,13.65,0,1,0,64.83,44.41v-.25A13.53,13.53,0,0,0,51.45,30.51"/><path class="cls-6" d="M65.87,40.43a6.59,6.59,0,0,1-.71-.12.23.23,0,0,0-.21.1.21.21,0,0,0,0,.24,3.81,3.81,0,0,0,1.13,1.2,4.83,4.83,0,0,0-.88-.37.24.24,0,0,0-.23.06.31.31,0,0,0,0,.23A2.09,2.09,0,0,0,65.86,43l-.4-.1a.21.21,0,0,0-.22.07.22.22,0,0,0,0,.22,4.68,4.68,0,0,0,1.88,2.06h.22a.25.25,0,0,0,.11-.12h.21c1.51-.7,1.86-1.47,2-2.2a.21.21,0,0,0-.15-.26.25.25,0,0,0-.17,0,3.72,3.72,0,0,1-.79.28h0a2.49,2.49,0,0,0,1-2,.23.23,0,0,0-.11-.2.24.24,0,0,0-.23,0l-.46.27c-.7.37-1.53.83-1.41,1.76a3.82,3.82,0,0,0-1-.88,3.17,3.17,0,0,0,.78.28h0a.2.2,0,0,0,.15-.06.24.24,0,0,0,.07-.18v-.13h.08a.26.26,0,0,0,.18-.09,4.33,4.33,0,0,1,.84-.87l.15-.13a1.63,1.63,0,0,0,.56-1.65A.25.25,0,0,0,69,39a.26.26,0,0,0-.21,0l-.49.37-.11.08a4.09,4.09,0,0,0,.49-2,.21.21,0,0,0-.13-.21.23.23,0,0,0-.25,0c-.12.13-.24.24-.36.36s-.41.39-.61.61a2.09,2.09,0,0,0-.3.47,4.08,4.08,0,0,0-1.35-2.57.2.2,0,0,0-.23-.06.23.23,0,0,0-.15.19,3.43,3.43,0,0,0,1,2.84.61.61,0,0,1,.07.1,5.82,5.82,0,0,0-1.15-.48c-.24-.07-.48-.15-.74-.25a.22.22,0,0,0-.23,0,.24.24,0,0,0-.06.23,2.43,2.43,0,0,0,1.61,1.64m1.55,3.69h0a2.3,2.3,0,0,0-.82-.79l.32.1.37.12h.06a.18.18,0,0,1,.3.06h0a2.52,2.52,0,0,0-.21.54m-.88-3.45h.11l.27.09H67a.24.24,0,0,0,.14,0,.2.2,0,0,0,.08-.19v-.14h.11a1.71,1.71,0,0,0-.18.77,1.41,1.41,0,0,0-.58-.53m.35-1.13v.1l-.06-.08h.06"/><path class="cls-6" d="M69.8,44.84a.25.25,0,0,0-.07-.23.21.21,0,0,0-.24,0,4.45,4.45,0,0,1-1.06.37,1.46,1.46,0,0,0-1,.87h0c-.12-.32-.51-.47-.93-.63a3.38,3.38,0,0,1-.74-.36.24.24,0,0,0-.26,0,.22.22,0,0,0-.08.25,3.78,3.78,0,0,0,1,1.49,2.56,2.56,0,0,1-.9-.42.2.2,0,0,0-.23,0,.22.22,0,0,0-.13.2c0,.93.78,1.48,1.52,2h.2v.08a.21.21,0,0,0,.11.2.21.21,0,0,0,.11,0,2.61,2.61,0,0,0-.42.62c0-.77-.54-1.16-1.1-1.56l-.39-.29a.2.2,0,0,0-.23,0,.21.21,0,0,0-.12.21,3.36,3.36,0,0,0,.48,1.74l-.4-.34a.21.21,0,0,0-.31,0,.16.16,0,0,0,0,.07,3.19,3.19,0,0,0,.63,2.51q.08.15.15.27a.22.22,0,0,0,.19.12h0a.28.28,0,0,0,.2-.13.87.87,0,0,1,.07-.17h.72a2.48,2.48,0,0,0,2.33-1.32.21.21,0,0,0-.06-.3.23.23,0,0,0-.14,0,2.81,2.81,0,0,1-1-.13l.22-.07a3,3,0,0,0,1.53-1.54.21.21,0,0,0,0-.19.26.26,0,0,0-.16-.13,3.43,3.43,0,0,0-.56-.08.85.85,0,0,0,.25-.17,2.15,2.15,0,0,0,.65-1.24.2.2,0,0,0-.06-.21.2.2,0,0,0-.21,0l-.53.12a2.47,2.47,0,0,0,1-1.6m-2.71,2.51a.09.09,0,0,0,0-.07A.78.78,0,0,0,67,47a.21.21,0,0,0,.11,0h.09a.24.24,0,0,0,.09-.08.24.24,0,0,0,.1.1h.08a1.7,1.7,0,0,0-.33.42v-.1M65.83,50c.11.09.23.17.35.25h.19a.18.18,0,0,0,.11-.1h.06a2.73,2.73,0,0,0-.55.67,1.33,1.33,0,0,0-.2-.89"/><path class="cls-6" d="M67.61,51.87h-.23a2.65,2.65,0,0,0-.74-.11,2.18,2.18,0,0,0-.51,0,1.94,1.94,0,0,0-1,.66c.17-.5,0-.77-.67-1.65l-.26-.35a.22.22,0,0,0-.2-.08.2.2,0,0,0-.18.12,3.2,3.2,0,0,0,0,2.28,6.34,6.34,0,0,0-.41-.6L63.27,52a.22.22,0,0,0-.18-.1H63a.24.24,0,0,0-.18.09,2.36,2.36,0,0,0-.32,1.81c0,.56.1,1,.14,1.51a.19.19,0,0,0,.15.19,2,2,0,0,0-.43.33,1.91,1.91,0,0,0,.15-.58,2.26,2.26,0,0,0-.63-1.67.38.38,0,0,0-.17-.08.21.21,0,0,0-.17.08,1.76,1.76,0,0,0-.44,1.11,3.35,3.35,0,0,0,.14.83,2.33,2.33,0,0,1,.11.91.22.22,0,0,0,.11.21l-.18.08a.66.66,0,0,0,0-.55,3.38,3.38,0,0,1-.38-1.36.23.23,0,0,0-.13-.18.22.22,0,0,0-.22,0,2.31,2.31,0,0,0-.72,1.67,1.61,1.61,0,0,0-.18-.52.2.2,0,0,0-.13-.12.19.19,0,0,0-.18,0,1.46,1.46,0,0,0-.65,1.08V56.5a.23.23,0,0,0-.2-.19h0c-.29,0-.67.23-1.31,1.76v-.66a.23.23,0,0,0-.1-.17.21.21,0,0,0-.19,0,2.24,2.24,0,0,0-1.25,1.31v-.49a.22.22,0,0,0-.06-.17.28.28,0,0,0-.18-.06c-.92.1-1.2,1.52-1.34,2.2h0l-.42-.36-.4-.35a.23.23,0,0,0-.31,0l-.11.11v-.06a.22.22,0,0,0-.2-.14l-1.11.22h-1.1a.21.21,0,0,0-.2.13v.06l-.11-.1a.22.22,0,0,0-.3,0l-.41.35-.42.37h0c-.14-.69-.42-2.11-1.34-2.21a.27.27,0,0,0-.17.06.21.21,0,0,0-.07.18v.48A2.24,2.24,0,0,0,46,57.44a.21.21,0,0,0-.19,0,.23.23,0,0,0-.1.17,3.75,3.75,0,0,0,0,.67c-.65-1.54-1-1.77-1.32-1.77h0a.21.21,0,0,0-.2.19V57a1.52,1.52,0,0,0-.66-1.09.17.17,0,0,0-.17,0,.24.24,0,0,0-.14.12c-.07.18-.13.35-.18.52a2.33,2.33,0,0,0-.72-1.68.22.22,0,0,0-.22,0A.23.23,0,0,0,42,55a3.42,3.42,0,0,1-.38,1.37.64.64,0,0,0,0,.54l-.18-.08a.22.22,0,0,0,.11-.21,2.33,2.33,0,0,1,.11-.91,3.35,3.35,0,0,0,.14-.83,1.76,1.76,0,0,0-.44-1.11.21.21,0,0,0-.17-.08.22.22,0,0,0-.17.07,2.28,2.28,0,0,0-.63,1.68,1.91,1.91,0,0,0,.15.58,2.73,2.73,0,0,0-.43-.33.23.23,0,0,0,.15-.19A13.63,13.63,0,0,1,40.37,54,2.41,2.41,0,0,0,40,52.2a.26.26,0,0,0-.18-.09h-.18a.22.22,0,0,0-.17.09l-.11.15a5.72,5.72,0,0,0-.39.57,3,3,0,0,0,0-2.17.21.21,0,0,0-.17-.12.2.2,0,0,0-.19.08l-.25.34c-.63.83-.8,1.09-.64,1.56a1.85,1.85,0,0,0-1-.62,1.83,1.83,0,0,0-.47-.05,2.83,2.83,0,0,0-.71.1l-.23.05a.24.24,0,0,0-.15.13.18.18,0,0,0,0,.2v.06a2,2,0,0,0,1.56,1.11h.2l.45,0h0a8.79,8.79,0,0,0-1.14.11h-.27a.21.21,0,0,0-.17.13.18.18,0,0,0,0,.2,2.12,2.12,0,0,0,1.71,1.06h.28a3,3,0,0,1,1.4.13l.07.08h0a.22.22,0,0,0,.19-.12l.06.1.11.16a2,2,0,0,0-.84-.18,2.87,2.87,0,0,0-1.52.5.22.22,0,0,0-.1.18.27.27,0,0,0,.08.19A2.88,2.88,0,0,0,39,56.9h.06a3.33,3.33,0,0,0,.54-.07,3.08,3.08,0,0,0-.92.59.21.21,0,0,0-.08.16.2.2,0,0,0,.07.16,2.23,2.23,0,0,0,1.51.7h.1a2.38,2.38,0,0,0,.7-.11l-.36.25-.27.19a.25.25,0,0,0-.09.19.22.22,0,0,0,.1.18,2.49,2.49,0,0,0,1.43.41H42a1.41,1.41,0,0,0,.64-.19l.15-.07L42,59.9a.22.22,0,0,0-.1.18.18.18,0,0,0,.12.17,2.51,2.51,0,0,0,1.08.28h.06a6.73,6.73,0,0,0,1.38-.38h0a3.75,3.75,0,0,0-.72,1,.23.23,0,0,0,0,.2.25.25,0,0,0,.16.12c.24.05.48.11.71.18h0A2.16,2.16,0,0,0,46,61.2a3.42,3.42,0,0,0-.51.69.22.22,0,0,0,0,.22.23.23,0,0,0,.18.12h.5a2.69,2.69,0,0,0,2.27-1.36.21.21,0,0,0,0-.19V60.6h.19a.21.21,0,0,0,.17-.08h0a.21.21,0,0,0,.09.15l.33.24a2.12,2.12,0,0,0,1.23.56h0a1.62,1.62,0,0,0,.83-.26.21.21,0,0,0,.11-.16.17.17,0,0,0,0-.1h0a.17.17,0,0,0,0,.1.18.18,0,0,0,.1.16,1.66,1.66,0,0,0,.84.26,2.06,2.06,0,0,0,1.22-.56l.33-.24a.21.21,0,0,0,.09-.15h0a.21.21,0,0,0,.16.08h.18a.11.11,0,0,0,0,.08.21.21,0,0,0,0,.19,2.69,2.69,0,0,0,2.28,1.36h.5a.26.26,0,0,0,.17-.12.22.22,0,0,0,0-.22,3.9,3.9,0,0,0-.52-.69,2.21,2.21,0,0,0,1.36.44,3.35,3.35,0,0,0,.71-.07.2.2,0,0,0,.16-.12.18.18,0,0,0,0-.2,3.61,3.61,0,0,0-.68-1h0a3,3,0,0,0,1.39.43,2.77,2.77,0,0,0,1.19-.31.21.21,0,0,0,.13-.19.21.21,0,0,0-.11-.2L60,59.43l.17.08a1.57,1.57,0,0,0,.7.2h0a2.58,2.58,0,0,0,1.47-.43.22.22,0,0,0,.1-.18.23.23,0,0,0-.09-.19,2.83,2.83,0,0,1-.28-.2l-.37-.26a2.18,2.18,0,0,0,.72.12h.1a2.28,2.28,0,0,0,1.55-.72.28.28,0,0,0,.07-.17.25.25,0,0,0-.08-.16,3.47,3.47,0,0,0-1-.6,5.35,5.35,0,0,0,.56.07h0a2.9,2.9,0,0,0,1.78-.71.2.2,0,0,0,.08-.19.21.21,0,0,0-.1-.17,2.69,2.69,0,0,0-1.5-.5,2.12,2.12,0,0,0-.83.17l.11-.15.06-.1h0a.21.21,0,0,0,.17.08h.06a3.32,3.32,0,0,1,1.5-.1h.28a2.22,2.22,0,0,0,1.79-1.11.28.28,0,0,0,0-.22.21.21,0,0,0-.17-.13h-.29a7.87,7.87,0,0,0-1.19-.12h0l.46-.06h.21a2.18,2.18,0,0,0,1.63-1.17v-.06a.26.26,0,0,0,0-.21.21.21,0,0,0-.17-.13m-29.44,1.6v0a.19.19,0,0,0,.18.13h0a.22.22,0,0,0,.18-.1c.06-.09.11-.18.16-.27a1.2,1.2,0,0,0,0,.65,1.79,1.79,0,0,0-.72-.38H38M42.48,58h.22a.22.22,0,0,0,.1-.09h0a1.65,1.65,0,0,0,.22.36,2.09,2.09,0,0,0-.64-.21.2.2,0,0,0,.06-.14h0m1.93,1.06a2.29,2.29,0,0,0-.64,0h0a.11.11,0,0,0,0-.08h.35v-.08a.84.84,0,0,0,.23.23M41,56.71h-.43a.22.22,0,0,0,.18-.14h0a2.09,2.09,0,0,0,.22.2m4.77,2.78H46a.24.24,0,0,0,.14,0,.36.36,0,0,0,.07-.1,1.26,1.26,0,0,0,.22.24,2.07,2.07,0,0,0-.5-.06h-.18a.14.14,0,0,0,0-.09h0m1.9.79H47.5V60.2a.17.17,0,0,0,0-.1.23.23,0,0,0,.12-.06h0a1.1,1.1,0,0,0,.28.29h-.31m14.47-3.77h0a.22.22,0,0,0,.18.14h0a3.09,3.09,0,0,0-.43,0,2.09,2.09,0,0,0,.22-.2m-2.27,1.33h0a.2.2,0,0,0,.09.09h.23a.14.14,0,0,0,0,.09h0a2.43,2.43,0,0,0-.64.22,1.31,1.31,0,0,0,.21-.36m-1.31.94h.34v.08h0a2.29,2.29,0,0,0-.64,0,2.5,2.5,0,0,0,.23-.23v.08M55.17,60h0a.22.22,0,0,0,.13.06.17.17,0,0,0,0,.1v.08h-.1a1.61,1.61,0,0,0-.31,0,1.28,1.28,0,0,0,.28-.29M57,59.59a2.22,2.22,0,0,0-.51.06,1.31,1.31,0,0,0,.23-.24.21.21,0,0,0,.06.1.27.27,0,0,0,.15.05h.22a.14.14,0,0,0,0,.09H57m7-5.56a1.34,1.34,0,0,0,0-.63l.15.26a.23.23,0,0,0,.19.1h0a.21.21,0,0,0,.19-.13v0h.07a1.93,1.93,0,0,0-.71.37"/><path class="cls-6" d="M35.19,45.13h.22a.23.23,0,0,0,.1.12h.23a4.66,4.66,0,0,0,1.87-2.06.22.22,0,0,0,0-.22.21.21,0,0,0-.22-.07L37,43a2.09,2.09,0,0,0,.93-1.21.21.21,0,0,0-.13-.28.22.22,0,0,0-.14,0,5.38,5.38,0,0,0-.89.37,3.84,3.84,0,0,0,1.14-1.2.21.21,0,0,0,0-.24.23.23,0,0,0-.21-.1c-.24,0-.48.07-.71.12a2.4,2.4,0,0,0,1.6-1.64.22.22,0,0,0-.14-.28.17.17,0,0,0-.14,0c-.26.1-.51.18-.74.25a6.87,6.87,0,0,0-1.16.47l.08-.09a3.45,3.45,0,0,0,1-2.84.23.23,0,0,0-.15-.19.2.2,0,0,0-.23.06,4.08,4.08,0,0,0-1.35,2.57,2.34,2.34,0,0,0-.3-.47c-.2-.22-.41-.42-.61-.61s-.25-.23-.37-.36a.21.21,0,0,0-.24,0,.2.2,0,0,0-.13.21,4.09,4.09,0,0,0,.49,2l-.11-.08L34,39.06a.26.26,0,0,0-.21,0,.25.25,0,0,0-.14.16,1.63,1.63,0,0,0,.56,1.65l.15.13a5.76,5.76,0,0,1,.84.87.24.24,0,0,0,.18.09h.07v.13a.2.2,0,0,0,.07.18.2.2,0,0,0,.15.06h0a3.17,3.17,0,0,0,.78-.28,3.82,3.82,0,0,0-1,.88c.12-.93-.72-1.39-1.41-1.76l-.46-.27a.24.24,0,0,0-.23,0,.23.23,0,0,0-.11.2,2.49,2.49,0,0,0,1,2h-.06a3.63,3.63,0,0,1-.78-.28.21.21,0,0,0-.24,0,.24.24,0,0,0-.09.22,3,3,0,0,0,2,2.2m.8-5.57-.07.08a.17.17,0,0,0,0-.1H36m-.47.87h.1v.14a.25.25,0,0,0,.09.19.24.24,0,0,0,.14,0h.07l.27-.09h.1a1.48,1.48,0,0,0-.58.53,1.58,1.58,0,0,0-.17-.77m-.11,3.65h0a1.81,1.81,0,0,0-.22-.54h0a.22.22,0,0,0,.16-.12.25.25,0,0,0,.14.06h.07L36,43.5l.32-.1a2.51,2.51,0,0,0-.83.79"/><path class="cls-6" d="M36.3,51.79H37a.87.87,0,0,0,.07.17.26.26,0,0,0,.19.13h0a.24.24,0,0,0,.2-.12l.15-.27a3.18,3.18,0,0,0,.62-2.51.2.2,0,0,0-.14-.14.23.23,0,0,0-.2,0l-.4.34A3.47,3.47,0,0,0,38,47.61a.24.24,0,0,0-.36-.21l-.39.29c-.55.4-1.08.79-1.09,1.56a2.61,2.61,0,0,0-.42-.62h.11a.23.23,0,0,0,.11-.2v-.08h.17c.74-.53,1.5-1.08,1.51-2a.19.19,0,0,0-.12-.2.21.21,0,0,0-.24,0,2.43,2.43,0,0,1-.89.42,3.78,3.78,0,0,0,1-1.49.2.2,0,0,0-.07-.25.23.23,0,0,0-.27,0,3.3,3.3,0,0,1-.73.36c-.42.16-.82.31-.94.63h0a1.43,1.43,0,0,0-1-.87,4.45,4.45,0,0,1-1.06-.37.22.22,0,0,0-.3.08.2.2,0,0,0,0,.17,2.49,2.49,0,0,0,1,1.6l-.53-.12a.26.26,0,0,0-.21,0,.26.26,0,0,0-.06.21,2.27,2.27,0,0,0,.65,1.24,1.06,1.06,0,0,0,.26.17,2.82,2.82,0,0,0-.57.09.2.2,0,0,0-.15.12.21.21,0,0,0,0,.19,3,3,0,0,0,1.53,1.54l.22.07a2.6,2.6,0,0,1-1,.13.21.21,0,0,0-.2.11.2.2,0,0,0,0,.23,2.44,2.44,0,0,0,2.32,1.32m-.06-1.6h0a.29.29,0,0,0,.12.1h.07a.24.24,0,0,0,.12,0c.12-.08.24-.16.35-.25a1.33,1.33,0,0,0-.2.89,2.73,2.73,0,0,0-.55-.67M35.67,47h.2a1,1,0,0,0-.13.3.09.09,0,0,0,0,.07v.1A1.45,1.45,0,0,0,35.4,47h.08a.24.24,0,0,0,.1-.1.24.24,0,0,0,.09.08"/><path class="cls-6" d="M65.54,36.32c-.16,1.4.49,2,1.27,3a3.52,3.52,0,0,0-1.27-3"/><path class="cls-6" d="M67,40.59c-.12-1.32-1.11-1.34-2.52-1.87C64.9,40,65.77,40.18,67,40.59"/><path class="cls-6" d="M68.48,37.46c-.32.32-.66.61-1,1a1.65,1.65,0,0,0-.27,1.8,3.07,3.07,0,0,0,1.23-2.76"/><path class="cls-6" d="M67.43,41.7a5.91,5.91,0,0,1,1-1,1.4,1.4,0,0,0,.49-1.44L68,40a1.49,1.49,0,0,0-.52,1.71"/><path class="cls-6" d="M65.13,40.53a3.08,3.08,0,0,0,2,1.52c-.08-1.14-.9-1.37-2-1.52"/><path class="cls-6" d="M67.68,43.36c.72-.66,1.54-1,1.6-2.33-.89.56-2.25.95-1.6,2.33"/><path class="cls-6" d="M65.13,41.7c.41,1.17,1.16,1.26,2.2,1.59a3.67,3.67,0,0,0-2.2-1.59"/><path class="cls-6" d="M67.53,44.93c1.43-.66,1.74-1.35,1.89-2a4.37,4.37,0,0,1-1,.34c-.74.21-.87,1-.91,1.7"/><path class="cls-6" d="M67.21,44.2a2.61,2.61,0,0,0-1.8-1.11A4.4,4.4,0,0,0,67.2,45v-.84"/><path class="cls-6" d="M67.44,46.82a9.69,9.69,0,0,1,1.23-.56,2.23,2.23,0,0,0,.92-1.48,5.45,5.45,0,0,1-1.11.4c-.67.16-1,.7-1,1.64"/><path class="cls-6" d="M67.18,45.85c-.15-.39-1.09-.5-1.6-.88a3.63,3.63,0,0,0,1.48,1.82l.12-.94"/><path class="cls-6" d="M66.87,47.36a.8.8,0,0,0-.54-.6,2.55,2.55,0,0,1-1-.47c0,.82.74,1.34,1.45,1.85a2.28,2.28,0,0,0,.08-.78"/><path class="cls-6" d="M67.07,48.44A2.16,2.16,0,0,1,68,48a1.44,1.44,0,0,0,.77-.3,2,2,0,0,0,.58-1.12c-.28.07-.56.14-.83.19A1.66,1.66,0,0,0,67,48.49"/><path class="cls-6" d="M65,47.6A2.64,2.64,0,0,0,66.29,50c.48-1.42-.37-1.72-1.26-2.42"/><path class="cls-6" d="M67.41,48.63A2.38,2.38,0,0,0,66.65,50c.27-.17.71-.09,1.15-.25a2.79,2.79,0,0,0,1.41-1.44,2,2,0,0,0-1.8.34"/><path class="cls-6" d="M67.51,50.19c-.31-.1-.89-.18-1.59,1.35a2.44,2.44,0,0,0,2.73-1.19,3.15,3.15,0,0,1-1.14-.16"/><path class="cls-6" d="M64.75,49.19c-.32.87.39,1.92.76,2.6.61-1.32.31-1.73-.76-2.6"/><path class="cls-6" d="M64,50.66a3.43,3.43,0,0,0,.36,2.94c.77-1.64.91-1.25-.36-2.94"/><path class="cls-6" d="M66.19,52.08a2.07,2.07,0,0,0-1.37,1.44,8.64,8.64,0,0,1,1.24-.19c.79-.1,1.06-.52,1.51-1.14a2.81,2.81,0,0,0-1.38-.11"/><path class="cls-6" d="M63.54,55.14A3.44,3.44,0,0,1,65,55a2,2,0,0,0,1.86-1c-1.36-.19-2.64-.52-3.36,1.13"/><path class="cls-6" d="M62.94,55.44a10,10,0,0,0,.79-1.24c.35-.74-.23-1.41-.64-2a2.16,2.16,0,0,0-.29,1.68c.05.51.1,1,.14,1.54"/><path class="cls-6" d="M62.3,56.44a11,11,0,0,0,1.4.23A2.56,2.56,0,0,0,65.38,56a2.15,2.15,0,0,0-3,.35l-.06.08"/><path class="cls-6" d="M61.64,56.62a1.78,1.78,0,0,0,.41-2.48,1.93,1.93,0,0,0-.27-.3,1.6,1.6,0,0,0-.39,1c0,.61.33,1.14.25,1.79"/><path class="cls-6" d="M61.05,57a.47.47,0,0,0,.07-.53,3.54,3.54,0,0,1-.4-1.46c-.53.4-.73,1.37-.69,2.72L61,57"/><path class="cls-6" d="M60.41,57.84a1.73,1.73,0,0,1,1,.16,2,2,0,0,0,1.08.24,2,2,0,0,0,1.4-.65c-1.11-1-2.27-1-3.52.25"/><path class="cls-6" d="M59.07,58.81c.33.11.64.17,1,.29a2.23,2.23,0,0,0,.87.28A2.35,2.35,0,0,0,62.25,59c-.26-.18-.51-.37-.77-.54a2,2,0,0,0-2.41.36"/><path class="cls-6" d="M59.46,56.05a1.36,1.36,0,0,0-.55,1c-.11.66-.13,1.19-.25,1.61,1.17-.47,1.28-1.44.8-2.56"/><path class="cls-6" d="M58.42,58.27a4.15,4.15,0,0,0,0-1.57c-.36,0-.86.8-1.53,2.64.55-.28,1.37-.42,1.54-1.07"/><path class="cls-6" d="M57.31,59.49c1.43.41,1.88,1.33,3.48.58-.4-.24-.8-.48-1.19-.74a2.39,2.39,0,0,0-2.29.16"/><path class="cls-6" d="M55.52,60.19c1.6.51,1.47,1.35,3.27,1.05-.71-1.38-1.59-1.82-3.27-1.05"/><path class="cls-6" d="M56.85,57.61c-.88.3-1.29,1.46-1.5,2.29,1-.25,1.57-.69,1.5-2.29"/><path class="cls-6" d="M55.1,59.65a4.93,4.93,0,0,0,.24-1.43c-.79.08-1.06,1.5-1.18,2.1a1,1,0,0,0,.94-.67"/><path class="cls-6" d="M54.53,60.65a2.4,2.4,0,0,0,2.56,1.24c-.53-.9-1.46-1.75-2.56-1.24"/><path class="cls-6" d="M51.63,60.93c.94.55,1.37,0,2.14-.53l-.85-.73-1.29,1.26"/><polygon class="cls-6" points="51.41 59.64 50.38 59.42 51.41 60.64 52.44 59.64 51.41 59.64"/><path class="cls-6" d="M37.28,36.32a3.49,3.49,0,0,0-1.27,3c.78-1,1.42-1.62,1.27-3"/><path class="cls-6" d="M38.34,38.72c-1.41.53-2.4.55-2.51,1.87,1.22-.41,2.09-.6,2.51-1.87"/><path class="cls-6" d="M35.56,40.22a1.65,1.65,0,0,0-.26-1.8c-.31-.35-.65-.64-1-1a3.08,3.08,0,0,0,1.22,2.76"/><path class="cls-6" d="M34.36,40.67a5.91,5.91,0,0,1,1,1,1.49,1.49,0,0,0-.5-1.67l-1-.76a1.42,1.42,0,0,0,.49,1.44"/><path class="cls-6" d="M37.68,40.53c-1.12.15-1.93.38-2,1.52a3.08,3.08,0,0,0,2-1.52"/><path class="cls-6" d="M35.14,43.36c.65-1.38-.71-1.77-1.61-2.33.07,1.33.89,1.67,1.61,2.33"/><path class="cls-6" d="M37.68,41.7a3.74,3.74,0,0,0-2.2,1.59c1-.33,1.8-.42,2.2-1.59"/><path class="cls-6" d="M35.29,44.93c0-.73-.18-1.49-.91-1.7a3.94,3.94,0,0,1-1-.34c.14.69.46,1.38,1.89,2"/><path class="cls-6" d="M37.41,43.09A2.63,2.63,0,0,0,35.6,44.2V45a4.47,4.47,0,0,0,1.8-1.95"/><path class="cls-6" d="M34.15,46.26a9.69,9.69,0,0,1,1.23.56c0-.94-.37-1.48-1-1.64a4.91,4.91,0,0,1-1.11-.4,2.2,2.2,0,0,0,.92,1.48"/><path class="cls-6" d="M37.24,45c-.52.38-1.45.49-1.6.88l.12.94A3.68,3.68,0,0,0,37.24,45"/><path class="cls-6" d="M37.47,46.29a2.49,2.49,0,0,1-1,.47.82.82,0,0,0-.54.6,3,3,0,0,0,.08.78c.72-.51,1.44-1,1.45-1.85"/><path class="cls-6" d="M34,47.65a1.41,1.41,0,0,0,.76.3,2.34,2.34,0,0,1,1,.49,1.67,1.67,0,0,0-1.48-1.72,3.55,3.55,0,0,1-.83-.19A2,2,0,0,0,34,47.65"/><path class="cls-6" d="M37.79,47.6c-.9.7-1.74,1-1.27,2.42a2.64,2.64,0,0,0,1.27-2.42"/><path class="cls-6" d="M35,49.73c.44.16.87.08,1.15.25a2.31,2.31,0,0,0-.77-1.35,1.92,1.92,0,0,0-1.79-.34A2.79,2.79,0,0,0,35,49.73"/><path class="cls-6" d="M36.89,51.54c-.69-1.53-1.28-1.45-1.58-1.35a3.2,3.2,0,0,1-1.15.16,2.45,2.45,0,0,0,2.73,1.19"/><path class="cls-6" d="M38.07,49.19c-1.07.87-1.37,1.28-.77,2.6.37-.68,1.08-1.73.77-2.6"/><path class="cls-6" d="M38.45,53.6a3.39,3.39,0,0,0,.35-2.94c-1.26,1.69-1.13,1.3-.35,2.94"/><path class="cls-6" d="M38,53.52a2.07,2.07,0,0,0-1.37-1.44,2.81,2.81,0,0,0-1.38.11,2.12,2.12,0,0,0,1.51,1.14,8.64,8.64,0,0,1,1.24.19"/><path class="cls-6" d="M37.78,55a3.46,3.46,0,0,1,1.5.13c-.73-1.65-2-1.32-3.36-1.13a2,2,0,0,0,1.86,1"/><path class="cls-6" d="M39.08,54.2a12.37,12.37,0,0,0,.79,1.24A14.05,14.05,0,0,1,40,53.9a2.25,2.25,0,0,0-.29-1.68c-.41.57-1,1.24-.65,2"/><path class="cls-6" d="M40.52,56.44a2.16,2.16,0,0,0-3-.5l-.08.06a2.6,2.6,0,0,0,1.69.66,11,11,0,0,0,1.4-.23"/><path class="cls-6" d="M41.18,56.62c-.08-.65.25-1.18.25-1.79a1.56,1.56,0,0,0-.4-1,1.78,1.78,0,0,0-.15,2.51,1.93,1.93,0,0,0,.3.27"/><path class="cls-6" d="M42.79,57.69c0-1.35-.16-2.32-.69-2.72a3.55,3.55,0,0,1-.41,1.46.49.49,0,0,0,.08.53l1,.73"/><path class="cls-6" d="M42.4,57.84c-1.25-1.26-2.41-1.21-3.52-.25a2.07,2.07,0,0,0,2.48.41,1.73,1.73,0,0,1,1-.16"/><path class="cls-6" d="M43.75,58.81a2,2,0,0,0-2.41-.36c-.27.17-.52.36-.77.54a2.31,2.31,0,0,0,1.35.39,2.23,2.23,0,0,0,.87-.28c.31-.12.63-.18,1-.29"/><path class="cls-6" d="M44.16,58.61A14.56,14.56,0,0,1,43.91,57a1.3,1.3,0,0,0-.56-1c-.47,1.13-.37,2.09.81,2.56"/><path class="cls-6" d="M45.94,59.34c-.68-1.84-1.18-2.67-1.53-2.64a4.15,4.15,0,0,0,0,1.57c.18.65,1,.79,1.55,1.07"/><path class="cls-6" d="M43.22,59.33c-.39.26-.79.5-1.2.74,1.61.75,2.06-.17,3.48-.58a2.37,2.37,0,0,0-2.28-.16"/><path class="cls-6" d="M44,61.24c1.8.3,1.67-.54,3.26-1.05-1.67-.77-2.55-.33-3.26,1.05"/><path class="cls-6" d="M47.47,59.9c-.21-.83-.62-2-1.51-2.29-.06,1.6.49,2,1.51,2.29"/><path class="cls-6" d="M47.48,58.22a4.93,4.93,0,0,0,.24,1.43,1,1,0,0,0,.93.67c-.12-.6-.38-2-1.17-2.1"/><path class="cls-6" d="M45.73,61.89a2.4,2.4,0,0,0,2.55-1.23c-1.09-.52-2,.33-2.55,1.23"/><path class="cls-6" d="M49.05,60.4c.76.53,1.2,1.08,2.13.53l-1.29-1.26-.84.73"/><path class="cls-7" d="M70.2,26.18l-5.14,4.26a20.13,20.13,0,1,1-28.45.92c.25-.27.51-.53.78-.79l-5.22-4.12a24.39,24.39,0,1,0,38-.27"/><path class="cls-7" d="M70.55,26.7s5.06,5.81,4.92,15.86a40,40,0,0,1-1,6.24C73.39,52.07,71,58.62,61.71,63.54c0,0,12.27-6.88,12.66-19.62a24.25,24.25,0,0,0-2.92-12.17Z"/><path class="cls-7" d="M65.64,31.12c5.87,5.56,6,14,6,14A19.7,19.7,0,0,1,68.7,55.79a20.36,20.36,0,0,1-17.44,9.9,16.36,16.36,0,0,0,12-3.39A21.42,21.42,0,0,0,72.8,46.09a21.16,21.16,0,0,0-3-12.92l-4.66-2.54Z"/><path class="cls-3" d="M31.16,45.42A20.14,20.14,0,1,0,51.29,25.11,20.14,20.14,0,0,0,31.16,45.42h0"/><path class="cls-7" d="M71.43,45.42A20.14,20.14,0,1,1,51.29,25.11,20.36,20.36,0,0,1,71.43,45.42Z"/><path class="cls-3" d="M75.78,41.56A24.42,24.42,0,1,1,51.36,17.13,24.42,24.42,0,0,1,75.78,41.56Z"/><line class="cls-7" x1="71.44" y1="31.59" x2="69.85" y2="33.22"/><path class="cls-3" d="M52.5,66A24.4,24.4,0,0,1,32.39,26.18"/><path class="cls-3" d="M42.32,63.48a20,20,0,0,0,10.17,2.09"/><path class="cls-7" d="M32,26.7s-5,5.81-4.88,15.86a38.81,38.81,0,0,0,1,6.24c1.09,3.27,3.44,9.82,12.76,14.74,0,0-12.26-6.88-12.66-19.62a24.25,24.25,0,0,1,2.92-12.17Z"/><path class="cls-7" d="M51.32,65.73a16.36,16.36,0,0,1-12-3.39,21.39,21.39,0,0,1-9.48-16.25,21.14,21.14,0,0,1,3-12.92l4.66-2.54"/><line class="cls-7" x1="31.15" y1="31.59" x2="32.74" y2="33.22"/><path class="cls-8" d="M43.91,21.37a1.59,1.59,0,0,1,.26.54,2.49,2.49,0,0,1,0,.77,2.76,2.76,0,0,1-.15.81,2.73,2.73,0,0,1-.27.54.75.75,0,0,1-.33.25.77.77,0,0,1-.51-.13,3.63,3.63,0,0,1-.73-.56h.29a1,1,0,0,0,.25,0,1.19,1.19,0,0,0,.65-.45,1.55,1.55,0,0,0,.2-.32,2.18,2.18,0,0,0,.11-.44v-.07l-.19-.22-.2-.19a1.07,1.07,0,0,0-.19-.18.83.83,0,0,0-.18-.13l.36-.77A4.14,4.14,0,0,1,43.91,21.37Z"/><path class="cls-8" d="M45.83,22.16l-.46.05H45.1a.63.63,0,0,1-.28-.2.71.71,0,0,1-.15-.33,2.14,2.14,0,0,1,.14-1,.82.82,0,0,1,.1-.27l.14-.26a.63.63,0,0,1,.41-.35A.68.68,0,0,1,46,20a2.31,2.31,0,0,1,.31.39,3.14,3.14,0,0,1,.42,1.1,2.41,2.41,0,0,1,0,1,2.83,2.83,0,0,1-.41.94.56.56,0,0,1-.75.28.54.54,0,0,1-.16-.1l-.29-.22L44.76,23h0a1.77,1.77,0,0,0,.46,0,1.12,1.12,0,0,0,.64-.32,1.16,1.16,0,0,0,.2-.24,1.08,1.08,0,0,0,.13-.29Zm-.32-1.58a.26.26,0,0,0-.21.14.35.35,0,0,0-.06.28c0,.16.13.22.31.19h.18l.26-.05C45.86,20.73,45.7,20.54,45.51,20.58Z"/><path class="cls-8" d="M48.58,20.92h0a3,3,0,0,0-.18-.36c-.06-.11-.15-.23-.24-.37v-.07l-.52.68a.75.75,0,0,1,.15.16c0,.05.1.12.16.21l.15.24c0,.08.1.16.14.24v.07a1.59,1.59,0,0,1-.21.41,1.07,1.07,0,0,1-.25.27,1.65,1.65,0,0,1-.36.22.88.88,0,0,1-.36.1h-.25a1.36,1.36,0,0,1-.29-.06,3.64,3.64,0,0,0,.6.7.75.75,0,0,0,.47.23q.31,0,.66-.51A3.65,3.65,0,0,0,48.7,22h0l2.84.05.28-.3L53.37,23l.4-.6,3,.87.14-.16a2.17,2.17,0,0,0,.24-.29l.27-.35a.57.57,0,0,0,.13-.21l.1-.23h0v-.16l.05-.2.28-1,.1.09.51-.57-.48-.43L58,19.46a.29.29,0,0,1-.08-.14v-.24l-.49.38-.1.08a.35.35,0,0,0-.12.15.21.21,0,0,0,.09.24h0l-.55,2.18L54,21.32l.11-.74V20.4a.67.67,0,0,0,0-.2.19.19,0,0,0-.07-.12.6.6,0,0,0-.38-.17,1.61,1.61,0,0,0-.69,0,1.23,1.23,0,0,0-.59.3,1.88,1.88,0,0,0-.34.35,1.83,1.83,0,0,0-.23.38m1.62.12-.1.6L52.48,21a1,1,0,0,1,.37-.23.86.86,0,0,1,.39,0c.21,0,.31.14.28.3Z"/><path class="cls-8" d="M59.83,21.12l-.21.09v.07l-.17.46a1.75,1.75,0,0,1-.13.35c0,.15-.1.24-.12.3a2.69,2.69,0,0,1-.57.91,2.37,2.37,0,0,1-.87.53l.14-.29c.06-.11.1-.21.14-.3l.15-.36.14-.35.38-1,.29-.81v-.13L60.13,20Z"/><path class="cls-8" d="M39.76,32.29a1.39,1.39,0,0,1,.27.21,1.69,1.69,0,0,1,.23.36,1.73,1.73,0,0,1,.14.44,1.71,1.71,0,0,1,0,.32.37.37,0,0,1-.09.2.43.43,0,0,1-.27.06,2.68,2.68,0,0,1-.49-.11l.13-.07a.41.41,0,0,0,.11-.07.59.59,0,0,0,.18-.37.74.74,0,0,0,0-.21l-.06-.24h0l-.15-.06-.14,0h-.26v-.46A2.73,2.73,0,0,1,39.76,32.29Z"/><path class="cls-8" d="M40.87,32.21l-.2.14h-.32a.48.48,0,0,1-.16-.12,1.36,1.36,0,0,1-.23-.54v-.32A.3.3,0,0,1,40,31.1a.32.32,0,0,1,.33,0l.25.11a1.31,1.31,0,0,1,.27.19,2.72,2.72,0,0,1,.24.24,1.7,1.7,0,0,1,.33,1,.29.29,0,0,1-.24.33.28.28,0,0,1-.13,0H40.9l-.25-.08h0a.88.88,0,0,0,.21-.12.58.58,0,0,0,.2-.31.53.53,0,0,0,0-.35Zm-.59-.69a.14.14,0,0,0-.06.12.3.3,0,0,0,.05.16.13.13,0,0,0,.18,0l0,0,.07-.06.11-.09C40.48,31.5,40.36,31.46,40.28,31.52Z"/><path class="cls-8" d="M42,30.71l-.22.16h0a.76.76,0,0,0-.19-.12l-.21-.11h-.05v.47h.12l.13.06.14.07.13.08h0a1.13,1.13,0,0,1,0,.26.67.67,0,0,1,0,.2,1.24,1.24,0,0,1-.1.2.44.44,0,0,1-.13.14l-.12.06h-.14a1.66,1.66,0,0,0,.47.17.45.45,0,0,0,.28,0c.09-.06.14-.2.14-.42a2.34,2.34,0,0,0-.12-.64h0l.56-.37v-.23l1.06,0v-.39l.79-.38v-.16a.14.14,0,0,0,.14.08.47.47,0,0,0,.15-.06L46,29.42v-.58a.33.33,0,0,0,0-.14v-.13h0v-.2l-.24-.55h.08v-.43h-.62v-.05a.09.09,0,0,1,0-.07l-.07.33v.08a.17.17,0,0,0,0,.1.13.13,0,0,0,.12.08h0l.5,1.16-.47.15h-.14l-.23.1h0a.11.11,0,0,1-.08,0s0,0-.05-.07l-.06-.12L44,27.64l-.19.62.52,1.21-.83.38-.2-.36,0-.09-.07-.1h-.06a.42.42,0,0,0-.22.05.78.78,0,0,0-.27.24.81.81,0,0,0-.14.33v.51m.23-.21a.57.57,0,0,1,.07-.22.32.32,0,0,1,.15-.13c.1-.06.18,0,.22,0v.05l.16.3Z"/><polygon class="cls-8" points="47.63 26.69 47.85 26.82 48.06 26.52 47.66 26.27 47.52 26.48 47.3 26.34 47.11 26.63 47.5 26.89 47.63 26.69"/><path class="cls-8" d="M48.36,28.25l-.44-1.07-.29.41v.08l-.45.4a.3.3,0,0,0-.1.2l-.06.6h.87l.1-.3.13.32,1.08-.17.12-.24.93.34.1-.24a1.06,1.06,0,0,0,.09-.25A.72.72,0,0,0,50.5,28a.84.84,0,0,0-.08-.27,1.82,1.82,0,0,0-.16-.31.7.7,0,0,0-.18-.2.22.22,0,0,0-.19-.06c-.06,0-.12,0-.19.13l-.14.17a1.38,1.38,0,0,1-.2.35l-.14.26v.05m-1.82.16.38-.34.12.32ZM49.63,28h0l0-.08.08-.11.07-.07h0c.08,0,.14,0,.21.14a.94.94,0,0,1,.11.37Z"/><path class="cls-8" d="M51.28,28h0a0,0,0,0,1,0-.05.24.24,0,0,1,0-.12V26.24l-.41.48v1.71c0,.12.07.18.22.18h.11l1.46.06.15-.17.07.19,1.66.24.07-.1.1-.18.12-.22v-.49l.07-.6H55l.23-.36L55,26.8l-.06-.05a.09.09,0,0,1,0-.07v-.13l-.23.25v.05a.14.14,0,0,0,0,.09.12.12,0,0,0,.06.13h0l-.14,1.25L54,28.25l-.9-.12v-.05l.18-.24.09-.15a.38.38,0,0,0,0-.15.37.37,0,0,0-.1-.3A.55.55,0,0,0,53,27.1H52.8a1.71,1.71,0,0,0-.32,0l-.3.54h0a.64.64,0,0,1,.18.06.35.35,0,0,1,.13.11l.07.09v.15"/><path class="cls-8" d="M56,27.49l-.11.07h0v.65a1.62,1.62,0,0,1-.23.56,1.49,1.49,0,0,1-.41.38l.06-.17a.23.23,0,0,1,0-.18c0-.05,0-.12,0-.22v-.2l.12-.61.09-.47v-.07l.53-.43Z"/><path class="cls-8" d="M56.77,29.55a.46.46,0,0,1-.16-.07.23.23,0,0,1-.07-.1.45.45,0,0,1,0-.28,2.64,2.64,0,0,1,.2-.37,2.59,2.59,0,0,1,.32-.42.54.54,0,0,1,.15-.15.13.13,0,0,1,.12,0,.55.55,0,0,1,.2.17,1.92,1.92,0,0,1,.18.31,1.12,1.12,0,0,1,.1.31.41.41,0,0,1,0,.22,1,1,0,0,1-.15.24c-.08.11-.19.24-.31.38Zm.64-.7a.36.36,0,0,0-.17-.21.11.11,0,0,0-.08,0l-.06.07-.07.1v.07c0,.08,0,.13.06.16h0l.32.12A.81.81,0,0,0,57.41,28.85Zm.34-.91-.12-.23-.22.1-.19-.42.32-.15.11.23.23-.1.2.42Z"/><path class="cls-8" d="M58.57,29.62a.89.89,0,0,1-.08.32,1.48,1.48,0,0,1-.25.35,1.67,1.67,0,0,1-.34.31,1.11,1.11,0,0,1-.29.14.41.41,0,0,1-.22,0,.46.46,0,0,1-.16-.23,2.1,2.1,0,0,1-.09-.5.52.52,0,0,0,.11.1l.11.07a.61.61,0,0,0,.42,0l.19-.07a1,1,0,0,0,.2-.15h0v-.58l.41-.21A2.26,2.26,0,0,1,58.57,29.62Z"/><path class="cls-8" d="M59.93,29.1h-.11l-.12.25-.09.19-.08.17a1.9,1.9,0,0,1-.35.49,1.54,1.54,0,0,1-.49.26l.1-.15.09-.17L59,30c0-.09.08-.15.1-.19l.25-.56.2-.44v-.07l.63-.28Z"/><path class="cls-8" d="M60.32,30.35a.85.85,0,0,0-.15-.3l.4-.27a.83.83,0,0,1,.08.12.17.17,0,0,0,.05.12.73.73,0,0,1-.05.66l-.11.15-.18.16-.21.16-.06.05-.77-.48.4-.42.58.36A.65.65,0,0,0,60.32,30.35Z"/><path class="cls-8" d="M60.48,32.42h0a.21.21,0,0,0-.11,0h-.1a.81.81,0,0,0-.38,0,.52.52,0,0,1,.27-.19.18.18,0,0,1,0-.25.49.49,0,0,1,.18-.14.72.72,0,0,1,.25-.07.31.31,0,0,1,.21.07c.09.06.12.1.09.14h0l-.1.06V32a.13.13,0,0,0-.07-.06.22.22,0,0,0-.11-.05.15.15,0,0,0-.13,0,.35.35,0,0,0,.08.16.32.32,0,0,0,.14.14h.17Z"/><path class="cls-8" d="M62.62,31.11V31l-.27.1-.33.08v.47a.21.21,0,0,1,0,.11.65.65,0,0,1-.18.15h-.06l-.26.18-.9-.68.43-.43h.64v-.51H61.6a.21.21,0,0,1,0-.11v-.23a.17.17,0,0,1,0-.1.74.74,0,0,1,.19-.16.72.72,0,0,1,.2-.09h0a.21.21,0,0,1,0,.11v.3a1.61,1.61,0,0,1,0,.31v.4h.11l.16-.07.12-.06.08-.06v-.15a.26.26,0,0,1,.15-.07H63l-.06.06a.28.28,0,0,0,0,.22L63,31Zm-.95.16h-.4l.44.33Z"/><path class="cls-8" d="M63.49,31.65h-.12l-.17.22a1,1,0,0,1-.13.16l-.11.14a1.77,1.77,0,0,1-.46.4,1.29,1.29,0,0,1-.54.15l.13-.13.12-.14a1.15,1.15,0,0,0,.14-.17l.14-.16.38-.49.29-.37v-.07l.67-.13Z"/></svg>