<svg xmlns="http://www.w3.org/2000/svg" viewBox="0 0 104 104"><defs><style>.cls-1,.cls-5{fill:#000576;}.cls-2{fill:none;stroke-width:0.5px;}.cls-2,.cls-4{stroke:#fff;stroke-miterlimit:10;}.cls-3,.cls-4{fill:#fff;}.cls-4{stroke-width:0.25px;}.cls-5{font-size:2.63px;font-family:Krungthep;}</style></defs><g id="Layer_1" data-name="Layer 1"><rect class="cls-1" x="2.46" y="2.24" width="100" height="100" rx="50"/><polyline class="cls-2" points="50 66 50 48.5 31.28 48.31 31.28 77 21.5 70.19 21.5 37.87 40.64 20 40.64 77"/><rect class="cls-3" x="46" y="56.79" width="40" height="17"/><line class="cls-4" x1="46" y1="75" x2="86" y2="75"/><text class="cls-5" transform="translate(67.43 72.16)">Companies</text></g><g id="Layer_2" data-name="Layer 2"><rect class="cls-1" x="51.22" y="59.9" width="1.18" height="1.18" transform="translate(-27.6 54.35) rotate(-45)"/><rect class="cls-1" x="52.88" y="59.9" width="1.18" height="1.18" transform="translate(-27.11 55.53) rotate(-45)"/><path class="cls-1" d="M55.73,65.65a.79.79,0,0,1-.2.63,1,1,0,0,1-.62.15H50.35a1,1,0,0,1-.61-.16.74.74,0,0,1-.21-.62V62.21l-1.17.42v3.18c0,1.2.63,1.79,1.89,1.79H55c1.27,0,1.9-.59,1.9-1.79v-3.6l-1.17.42Z"/><path class="cls-1" d="M65.52,65.29a2.7,2.7,0,0,0-.66-1.7,4,4,0,0,0-2-1.26l3-1.39V59.75l-5,2.41.36.91.79.24a4.56,4.56,0,0,1,1.73.9,1.51,1.51,0,0,1,.56,1.08,1.29,1.29,0,0,1-.25.82.81.81,0,0,1-.68.32H59.84a1,1,0,0,1-.61-.16.74.74,0,0,1-.21-.62v-6l-1.17.42v5.73c0,1.2.63,1.79,1.89,1.79h3.68A1.93,1.93,0,0,0,65,67,2.49,2.49,0,0,0,65.52,65.29Z"/><rect class="cls-1" x="72.32" y="59.9" width="1.18" height="1.18" transform="translate(-21.42 69.27) rotate(-45)"/><rect class="cls-1" x="73.98" y="59.9" width="1.18" height="1.18" transform="translate(-20.93 70.45) rotate(-45)"/><rect class="cls-1" x="73.15" y="58.5" width="1.18" height="1.18" transform="translate(-20.19 69.45) rotate(-45)"/><path class="cls-1" d="M79.25,65.65a.74.74,0,0,1-.21.62,1,1,0,0,1-.61.16h-.52a.72.72,0,0,1-.53-.2.61.61,0,0,1-.22-.48V62.21L76,62.63v3.12a.62.62,0,0,1-.23.48.75.75,0,0,1-.53.2h-.15a.76.76,0,0,1-.54-.2.61.61,0,0,1-.22-.48V62.21l-1.17.42v3.12a.59.59,0,0,1-.23.48.72.72,0,0,1-.52.2h-.16a.73.73,0,0,1-.53-.2.61.61,0,0,1-.22-.48V62.21l-1.17.42v3.12a.62.62,0,0,1-.23.48.75.75,0,0,1-.53.2h-.91V62.3L67.6,63.37v4A1.62,1.62,0,0,1,66,69h0L64.88,70H66a2.56,2.56,0,0,0,1.84-.75,2.5,2.5,0,0,0,.78-1.69h1a1.89,1.89,0,0,0,1.34-.54,1.84,1.84,0,0,0,1.34.54h.16a1.91,1.91,0,0,0,1.34-.54,1.82,1.82,0,0,0,1.34.54h.15a1.89,1.89,0,0,0,1.34-.54,1.82,1.82,0,0,0,1.34.54h.62c1.26,0,1.89-.59,1.89-1.79V59.66l-1.17.42Z"/><polygon class="cls-1" points="81.46 60.08 81.46 67.68 82.63 67.25 82.63 59.66 81.46 60.08"/></g></svg>