<svg id="Layer_1" data-name="Layer 1" xmlns="http://www.w3.org/2000/svg" xmlns:xlink="http://www.w3.org/1999/xlink" viewBox="0 0 104 104"><defs><style>.cls-1,.cls-3,.cls-5{fill:none;stroke:#fff;stroke-miterlimit:10;}.cls-1{stroke-width:0.25px;}.cls-2{fill:#000576;}.cls-4,.cls-7{fill:#fff;}.cls-5{stroke-width:0.5px;}.cls-6{clip-path:url(#clip-path);}.cls-7{fill-rule:evenodd;}</style><clipPath id="clip-path"><path class="cls-1" d="M60.17,57.62A6.83,6.83,0,1,1,67,64.56a6.83,6.83,0,0,1-6.85-6.94v0m-1.08,0a7.91,7.91,0,1,0,7.91-8,7.91,7.91,0,0,0-7.91,8h0"/></clipPath></defs><title>new-services</title><rect class="cls-2" x="2.16" y="1.82" width="100" height="100" rx="50"/><rect class="cls-3" x="17.63" y="29.07" width="69.06" height="45.5" rx="3.13"/><line class="cls-3" x1="44.75" y1="58.99" x2="36.68" y2="58.99"/><line class="cls-3" x1="44.75" y1="61.35" x2="40.16" y2="61.35"/><line class="cls-3" x1="44.8" y1="64.35" x2="38.44" y2="64.35"/><line class="cls-3" x1="44.75" y1="67.5" x2="29.44" y2="67.5"/><line class="cls-3" x1="17.48" y1="37.31" x2="86.36" y2="37.31"/><path class="cls-4" d="M34.24,54.7l1.61,1.73a9.61,9.61,0,1,1,3.75-7.6h2.74l-4.21,4.58-4.07-4.54h3c.52-2.06-1.5-5.36-3.93-6.52A7.29,7.29,0,1,0,34.24,54.7Z"/><path class="cls-1" d="M67,49.58a8,8,0,1,0,7.91,8.18v-.13A8,8,0,0,0,67,49.58h0m0,15a6.94,6.94,0,1,1,6.8-7.07v.13A6.89,6.89,0,0,1,67,64.56"/><path class="cls-5" d="M68.27,55.57a.24.24,0,0,1,.21.26v2.09a.27.27,0,0,1-.14.24.31.31,0,0,1,.14.28v2.37H65.57V58.44a.3.3,0,0,1,.15-.28.25.25,0,0,1-.15-.24V55.84a.24.24,0,0,1,.21-.26c-.12,0-.21-.14-.21-.31V52.94h2.91v2.33A.27.27,0,0,1,68.27,55.57Z"/><path class="cls-1" d="M67,55.4a.88.88,0,1,1,0-1.76.87.87,0,0,1,.9.85h0a.86.86,0,0,1-.84.89h0m0-1.75a.89.89,0,0,0-.9.85.87.87,0,0,0,1.74,0v0a.87.87,0,0,0-.84-.85"/><path class="cls-1" d="M67,57.85a.88.88,0,1,1,.87-.89v0a.87.87,0,0,1-.87.87m0-1.74a.87.87,0,1,0,.86.87h0a.86.86,0,0,0-.84-.9h0"/><path class="cls-1" d="M67,60.27a.88.88,0,1,1,.87-.88h0a.88.88,0,0,1-.87.88m0-1.75a.87.87,0,1,0,0,1.74.86.86,0,0,0,.87-.86h0a.86.86,0,0,0-.86-.87"/><rect class="cls-1" x="66.15" y="60.95" width="1.6" height="0.73"/><path class="cls-1" d="M67.59,64.56m-1.12,0h0V61.7h1.12m0,2.86V61.68H66.45"/><path class="cls-5" d="M67.76,52.79H66.17v-.54h1.57v.54h0m-1.44-.15h1.46V52.2H66.3Z"/><rect class="cls-3" x="66.15" y="52.21" width="1.6" height="0.44"/><path class="cls-4" d="M61.41,57.85,62.86,59v-.56h.61c.19,0,.18.22.18.45v2.76h1.07V58c0-.5-.42-.75-.93-.78h-.94v-.56l-1.44,1.23"/><path class="cls-4" d="M72.8,57.85,71.34,59v-.56h-.63c-.19,0-.18.22-.17.45v2.76H69.46V58c0-.5.42-.75.93-.78h.94v-.56l1.46,1.23"/><g class="cls-6"><path class="cls-1" d="M67,65.68a7.85,7.85,0,0,1-5.61-2.36,8.16,8.16,0,0,1,0-11.39,7.93,7.93,0,0,1,2.52-1.73A7.79,7.79,0,0,1,74.3,54.5a8.21,8.21,0,0,1,0,6.27,8,8,0,0,1-1.7,2.55A7.78,7.78,0,0,1,67,65.68m0-16.1a8,8,0,1,0,7.9,8.19v-.14a8,8,0,0,0-7.9-8"/><path class="cls-1" d="M67,49.58a8,8,0,1,0,7.91,8.18v-.13A8,8,0,0,0,67,49.58h0m0,15a6.94,6.94,0,1,1,6.8-7.07v.13A6.89,6.89,0,0,1,67,64.56"/><path class="cls-1" d="M67,70.87a12.86,12.86,0,0,1-5.08-1,13.18,13.18,0,0,1-6.93-7,13.56,13.56,0,0,1,0-10.3,13.29,13.29,0,0,1,2.79-4.2,12.84,12.84,0,0,1,18.43,0A13.13,13.13,0,0,1,79,52.48,13.56,13.56,0,0,1,79,62.8a13.25,13.25,0,0,1-6.94,7,12.91,12.91,0,0,1-5,1m0-26.43A13.22,13.22,0,1,0,79.94,57.36,13.23,13.23,0,0,0,67,44.44"/><rect class="cls-1" x="59.22" y="62.75" width="6.12" height="1.81" transform="matrix(0.57, -0.82, 0.82, 0.57, -25.58, 78.18)"/><rect class="cls-1" x="63.22" y="63.73" width="6.12" height="1.81" transform="translate(-2 127.14) rotate(-86.75)"/><rect class="cls-1" x="64.91" y="48.52" width="6.12" height="1.72" transform="translate(10.79 110.93) rotate(-83.11)"/><path class="cls-1" d="M68.47,52.53h0l-1.73-.21h0l.74-6.08h0l1.73.21h0Zm-1.71-.23,1.69.2.73-6-1.69-.22Z"/><rect class="cls-1" x="63.14" y="46.98" width="1.72" height="6.12" transform="translate(-14.27 28.28) rotate(-22.48)"/><path class="cls-1" d="M64.37,53.22h0L62,47.55h0l1.6-.67h0L66,52.54h0Zm-2.31-5.67,2.32,5.61L66,52.48l-2.32-5.63Z"/><rect class="cls-1" x="59.87" y="49.46" width="1.73" height="6.12" transform="translate(-18.72 64.07) rotate(-49.12)"/><path class="cls-1" d="M62.48,55.17h0l-4.63-4L59,49.8h0l4.63,4Zm-4.61-4,4.61,4,1.11-1.3-4.62-4Z"/><rect class="cls-1" x="58.3" y="53.38" width="1.73" height="6.12" transform="translate(-5.1 106.99) rotate(-81.84)"/><path class="cls-1" d="M62.08,57.74h0l-6-.86.21-1.71h0l6,.87h0Zm-6-.88,6,.86L62.32,56l-6-.86Z"/><rect class="cls-1" x="68.61" y="50.72" width="6.12" height="1.73" transform="translate(-15.47 65.86) rotate(-45.05)"/><path class="cls-1" d="M70.12,54.38h0l-1.24-1.22,4.34-4.36h0L74.45,50Zm-1.21-1.22,1.21,1.2L74.4,50l-1.21-1.21Z"/><rect class="cls-1" x="70.76" y="54.15" width="6.12" height="1.73" transform="translate(-13.25 25.11) rotate(-17.74)"/><path class="cls-1" d="M71.16,56.78l-.54-1.67h0l5.83-1.86L77,54.91h0Zm-.51-1.65.52,1.62L77,54.89l-.52-1.62Z"/><rect class="cls-1" x="68.99" y="60.76" width="1.81" height="6.12" transform="translate(-15.65 23.31) rotate(-17.06)"/><rect class="cls-1" x="71.58" y="58.72" width="1.81" height="6.12" transform="translate(-17.69 92.42) rotate(-59.21)"/><rect class="cls-1" x="73.15" y="55.58" width="1.81" height="6.12" transform="translate(6.72 124.89) rotate(-82.91)"/><rect class="cls-1" x="56.83" y="59.41" width="6.12" height="1.81" transform="translate(-17.58 25.34) rotate(-20.91)"/></g><path class="cls-1" d="M60.17,57.62A6.83,6.83,0,1,1,67,64.56a6.83,6.83,0,0,1-6.85-6.94v0m-1.08,0a7.91,7.91,0,1,0,7.91-8,7.91,7.91,0,0,0-7.91,8h0"/><path class="cls-1" d="M67,66.29a8.68,8.68,0,1,1,8.44-8.44A8.68,8.68,0,0,1,67,66.29m0-17.21a8.54,8.54,0,1,0,8.29,8.29A8.54,8.54,0,0,0,67,49.08"/><path class="cls-4" d="M67,66.73a9.14,9.14,0,1,1,9.12-9.15A9.14,9.14,0,0,1,67,66.73m0-18.11a9,9,0,1,0,8.73,8.76A9,9,0,0,0,67,48.59"/><path class="cls-1" d="M79.33,45.78,76,48.58a13.24,13.24,0,1,1-18.24.1L54.32,46a16,16,0,1,0,25-.18"/><path class="cls-1" d="M73.73,70.36s8-4.52,8.33-12.91a15.93,15.93,0,0,0-1.92-8l-.58-3.32"/><path class="cls-1" d="M66.88,71.8a10.71,10.71,0,0,0,7.92-2.23A14.08,14.08,0,0,0,81,58.88a13.81,13.81,0,0,0-2-8.49L76,48.71"/><path class="cls-1" d="M53.65,58.44A13.25,13.25,0,1,0,66.89,45.11,13.24,13.24,0,0,0,53.65,58.44"/><path class="cls-1" d="M83,55.9A16.1,16.1,0,1,1,66.9,39.81h0A16.1,16.1,0,0,1,83,55.9Z"/><line class="cls-1" x1="80.15" y1="49.34" x2="79.1" y2="50.42"/><path class="cls-1" d="M61,70.32a13.08,13.08,0,0,0,6.71,1.34"/><path class="cls-1" d="M60.05,70.36s-8-4.52-8.33-12.91a15.93,15.93,0,0,1,1.89-8l.62-3.32"/><path class="cls-1" d="M66.91,71.8A10.76,10.76,0,0,1,59,69.57a14.09,14.09,0,0,1-6.23-10.69,13.89,13.89,0,0,1,2-8.49l3.07-1.68"/><line class="cls-1" x1="53.64" y1="49.34" x2="54.69" y2="50.42"/><path class="cls-4" d="M62,42.62a1.23,1.23,0,0,1,.16.35,1.47,1.47,0,0,1,0,.51,1.84,1.84,0,0,1-.1.53,1.22,1.22,0,0,1-.18.36.37.37,0,0,1-.21.16.46.46,0,0,1-.34-.08,2.8,2.8,0,0,1-.48-.37h.19a.43.43,0,0,0,.16,0,.86.86,0,0,0,.56-.51,1.38,1.38,0,0,0,.08-.29v-.07l-.11-.11-.16-.16-.12-.12-.12-.08.24-.51A3.59,3.59,0,0,1,62,42.62Z"/><path class="cls-4" d="M63.3,43.14l-.31,0h-.17a.46.46,0,0,1-.18-.13.37.37,0,0,1-.1-.22,1.3,1.3,0,0,1,.09-.67.64.64,0,0,1,.06-.18l.09-.17a.41.41,0,0,1,.28-.23.43.43,0,0,1,.36.17,1.64,1.64,0,0,1,.21.25,2.4,2.4,0,0,1,.28.73,1.83,1.83,0,0,1-.3,1.27.49.49,0,0,1-.29.22.46.46,0,0,1-.33-.15,1.24,1.24,0,0,1-.18-.14l-.22-.22,0-.05h0a1.6,1.6,0,0,0,.31,0,.77.77,0,0,0,.42-.21,1,1,0,0,0,.13-.16.69.69,0,0,0,.1-.19Zm-.21-1a.17.17,0,0,0-.14.09.26.26,0,0,0,0,.19c0,.1.08.14.21.12h.28C63.32,42.2,63.22,42.08,63.09,42.1Z"/><path class="cls-4" d="M65.11,42.32h0c0-.09-.06-.18-.1-.27l-.16-.24-.06-.06-.34.45a.52.52,0,0,1,.1.11l.1.14a.91.91,0,0,1,.11.16l.09.16v0c0,.09-.09.18-.14.27a1,1,0,0,1-.17.18.79.79,0,0,1-.23.14.53.53,0,0,1-.24.06h-.36a2.21,2.21,0,0,0,.4.46.46.46,0,0,0,.31.15c.14,0,.29-.12.43-.33a2.68,2.68,0,0,0,.3-.72H67l.19-.2,1,.82.26-.39,2,.57.1-.11.16-.19.17-.23a1.13,1.13,0,0,0,.1-.13.2.2,0,0,1,.06-.16h0v-.1l0-.14.18-.67.07.06.35-.4-.31-.28-.08-.07a.41.41,0,0,1,0-.09v-.16L71,41.4l-.08.05a.27.27,0,0,0-.08.1.13.13,0,0,0,.07.15h0l-.35,1.4-1.82-.52.08-.49V42a.33.33,0,0,0,0-.14.29.29,0,0,0,0-.09.52.52,0,0,0-.26-.1.9.9,0,0,0-.46,0,.93.93,0,0,0-.38.2,2.5,2.5,0,0,0-.23.23,1.88,1.88,0,0,0-.14.24m1.07.11-.06.39-.61-.48a.72.72,0,0,1,.24-.14.57.57,0,0,1,.26,0,.16.16,0,0,1,.18.2Z"/><path class="cls-4" d="M72.51,42.43l-.13.08v.05l-.1.3a.84.84,0,0,1-.1.23,1.22,1.22,0,0,0-.07.2,2,2,0,0,1-.38.6,1.52,1.52,0,0,1-.57.35l.1-.19.09-.2a1.28,1.28,0,0,1,.09-.24,1.26,1.26,0,0,0,.09-.23l.25-.67.19-.52V42.1l.74-.37Z"/><path class="cls-4" d="M59.31,49.8a.75.75,0,0,1,.17.14,1.88,1.88,0,0,1,.16.23,1.4,1.4,0,0,1,.09.29.74.74,0,0,1,0,.21.24.24,0,0,1,0,.14.31.31,0,0,1-.19,0,1.25,1.25,0,0,1-.32-.08l.09,0,.07,0a.37.37,0,0,0,.12-.24.33.33,0,0,0,0-.14.32.32,0,0,0,0-.16h0l-.09,0-.09,0h-.17v-.3A1.17,1.17,0,0,1,59.31,49.8Z"/><path class="cls-4" d="M60,49.75l-.13.09-.08,0H59.7a.31.31,0,0,1-.11-.08.82.82,0,0,1-.15-.36v-.21a.25.25,0,0,1,.06-.18.22.22,0,0,1,.22,0l.16.07a1.18,1.18,0,0,1,.18.13,1.1,1.1,0,0,1,.32.48.92.92,0,0,1,0,.37.22.22,0,0,1-.07.17.25.25,0,0,1-.17,0h-.13l-.16-.05h0l.14-.08a.39.39,0,0,0,.13-.2v-.23Zm-.39-.45a.12.12,0,0,0,0,.08.13.13,0,0,0,0,.1s.07,0,.11,0h0l.06,0,.06-.06C59.78,49.29,59.7,49.25,59.64,49.3Z"/><path class="cls-4" d="M60.76,48.77l-.15.1h0l-.12-.08-.14-.07h0V49h.07l.09,0,.09,0,.09.06h0a.48.48,0,0,1,0,.17.29.29,0,0,1,0,.13.31.31,0,0,1-.06.13l-.09.09-.08,0-.12.08a1.17,1.17,0,0,0,.31.12h.18a.34.34,0,0,0,.1-.28,1.49,1.49,0,0,0-.08-.42h0l.37-.25v-.15h.67v-.25l.52-.25v-.11a.12.12,0,0,0,.1,0h.11L63.4,48v-.56h0v0l0-.07-.15-.37h0v-.27h-.33v-.05l0,.22v.05a.09.09,0,0,0,0,.07A.1.1,0,0,0,63,47h0l.32.76-.3.11h-.1l-.15.06h-.09s0,0,0,0l0-.08-.41-1-.12.41.28.71-.54.26L61.65,48l0-.06a.21.21,0,0,0,0-.06h0a.22.22,0,0,0-.14,0,.55.55,0,0,0-.18.16.43.43,0,0,0-.09.22.48.48,0,0,0,0,.17.43.43,0,0,0,0,.16m.14-.14a.88.88,0,0,1,.05-.15.39.39,0,0,1,.1-.08.1.1,0,0,1,.14,0h0l.1.22Z"/><polygon class="cls-4" points="64.48 46.12 64.63 46.21 64.77 46.01 64.5 45.84 64.41 45.98 64.27 45.89 64.14 46.08 64.4 46.25 64.48 46.12"/><path class="cls-4" d="M65,47.12l-.28-.67-.2.27v.05l-.29.26a.19.19,0,0,0-.07.14l0,.39h.58l.06-.19.09.21.71-.11.07-.16.62.23.06-.16.06-.17a.39.39,0,0,0,0-.18,1.05,1.05,0,0,0-.05-.19.78.78,0,0,0-.11-.2.37.37,0,0,0-.12-.13.13.13,0,0,0-.12,0,.2.2,0,0,0-.12.08.47.47,0,0,0-.09.12,1.76,1.76,0,0,0-.14.23l-.1.17v0m-1.18.07.24-.22.09.21ZM65.8,47h0l0-.06.06-.07,0,0h0a.13.13,0,0,1,.14.09.51.51,0,0,1,.07.24Z"/><path class="cls-4" d="M66.88,47h0V45.83l-.27.32v1.12c0,.08,0,.12.14.12h.07l1,0,.09-.11.05.12L69,47.6l0-.06.08-.13.07-.14a.3.3,0,0,0,0-.08V47l0-.4,0,0,.15-.24-.18-.13h0a.08.08,0,0,1,0,0v-.09l-.15.17v0s0,0,0,.06a.07.07,0,0,0,0,.08h0l-.09.83-.3-.13L68.11,47v0l.12-.16.06-.1v-.1a.23.23,0,0,0-.07-.19.35.35,0,0,0-.22-.1h-.38l-.2.36h.12a.28.28,0,0,1,.09.07.16.16,0,0,1,0,.07V47"/><path class="cls-4" d="M70,46.64l-.07,0h0l0,.18v.25a1.2,1.2,0,0,1-.15.37,1.07,1.07,0,0,1-.27.25v-.12a.53.53,0,0,0,0-.12.26.26,0,0,1,0-.13v-.14l.08-.4.06-.31v-.05l.35-.28Z"/><path class="cls-4" d="M70.49,48l-.12,0s0,0,0-.06a.28.28,0,0,1,0-.18,1.19,1.19,0,0,1,.13-.25,2.78,2.78,0,0,1,.21-.27.32.32,0,0,1,.1-.1.06.06,0,0,1,.08,0,.28.28,0,0,1,.13.11.72.72,0,0,1,.12.21,1.18,1.18,0,0,1,.07.2.38.38,0,0,1,0,.15l-.1.15c0,.07-.13.16-.21.25Zm.43-.46a.26.26,0,0,0-.11-.14h-.06l0,.05,0,.07v0a.07.07,0,0,0,0,.09h0l.21.08A.69.69,0,0,0,70.92,47.54Zm.22-.6-.1-.15-.14.07-.13-.28.21-.1.08.15.15-.07.13.28Z"/><path class="cls-4" d="M71.71,48a.43.43,0,0,1-.06.22,1.15,1.15,0,0,1-.39.43.61.61,0,0,1-.18.09.2.2,0,0,1-.15,0,.23.23,0,0,1-.1-.15.87.87,0,0,1-.06-.32l.07.06.08,0a.39.39,0,0,0,.26,0,.28.28,0,0,0,.13,0l.13-.1h0V48a.08.08,0,0,0,0-.07l.27-.14A1.4,1.4,0,0,1,71.71,48Z"/><path class="cls-4" d="M72.58,47.7l-.08,0h0l-.12.18a.23.23,0,0,1-.06.12c0,.06,0,.09,0,.11a1.12,1.12,0,0,1-.24.33.92.92,0,0,1-.32.18l.06-.11.06-.1a.54.54,0,0,1,.07-.13l.06-.13.17-.37.13-.28v0l.41-.19Z"/><path class="cls-4" d="M72.83,48.53a.54.54,0,0,0-.1-.2l.26-.18.06.08v.08a.47.47,0,0,1,0,.43.39.39,0,0,1-.08.1l-.11.11-.14.11h0l-.52-.32.26-.27.39.23A.32.32,0,0,0,72.83,48.53Z"/><path class="cls-4" d="M72.94,49.89h0a.09.09,0,0,0-.07,0h-.06a.57.57,0,0,0-.26,0,.46.46,0,0,1,.18-.13.12.12,0,0,1,0-.16.47.47,0,0,1,.12-.09.34.34,0,0,1,.17,0,.23.23,0,0,1,.14,0c.06,0,.07.07.06.1h0l-.07,0v0h0a.13.13,0,0,0-.08,0H73a.3.3,0,0,0,0,.1.47.47,0,0,0,.1.1h.11Z"/><path class="cls-4" d="M74.35,49v0l-.18.06-.22.05v.31a.09.09,0,0,1,0,.07.29.29,0,0,1-.12.1h0l-.17.12L73,49.25l.28-.29h.42v-.33h-.06v-.22a.11.11,0,0,1,0-.08l.12-.1.14-.06h0a.11.11,0,0,1,0,.08v.66h.08l.1,0,.08,0,.05,0v-.1a.15.15,0,0,1,.09,0h.25l0,0a.17.17,0,0,0,0,.14l.06.24Zm-.62.11h-.27l.29.21Z"/><path class="cls-4" d="M74.92,49.38h-.08l-.11.14-.09.11-.08.09a1.2,1.2,0,0,1-.29.26.88.88,0,0,1-.36.1L74,50l.09-.09.09-.11.09-.11.25-.31.19-.25v0l.45-.1Z"/><path class="cls-7" d="M77.15,52c-.11,1,.34,1.41.89,2.13A2.47,2.47,0,0,0,77.15,52Z"/><path class="cls-7" d="M78.17,55c-.08-.92-.78-.94-1.77-1.31C76.69,54.58,77.31,54.72,78.17,55Z"/><path class="cls-7" d="M79,53.24c-.17.18-.36.33-.52.52a.9.9,0,0,0-.15,1A1.67,1.67,0,0,0,79,53.24Z"/><path class="cls-7" d="M78.48,55.79a4.15,4.15,0,0,1,.72-.73,1,1,0,0,0,.34-1l-.69.53A1.06,1.06,0,0,0,78.48,55.79Z"/><path class="cls-7" d="M76.86,55A2.16,2.16,0,0,0,78.28,56C78.23,55.23,77.65,55.07,76.86,55Z"/><path class="cls-7" d="M78.65,57c.51-.47,1.09-.71,1.14-1.64C79.15,55.71,78.2,56,78.65,57Z"/><path class="cls-7" d="M76.86,55.79c.29.82.82.88,1.55,1.12A2.58,2.58,0,0,0,76.86,55.79Z"/><path class="cls-7" d="M78.55,58.06c1-.46,1.23-1,1.33-1.44a2.26,2.26,0,0,1-.69.24C78.67,57,78.58,57.55,78.55,58.06Z"/><path class="cls-7" d="M78.33,57.55a1.84,1.84,0,0,0-1.27-.78,3.1,3.1,0,0,0,1.26,1.37C78.33,58,78.33,57.73,78.33,57.55Z"/><path class="cls-7" d="M78.49,59.39a6.66,6.66,0,0,1,.86-.39A1.55,1.55,0,0,0,80,58a4,4,0,0,1-.78.28C78.75,58.35,78.49,58.73,78.49,59.39Z"/><path class="cls-7" d="M78.3,58.71c-.1-.27-.76-.35-1.12-.62a2.46,2.46,0,0,0,1,1.28C78.24,59.15,78.27,58.93,78.3,58.71Z"/><path class="cls-7" d="M78.09,59.77a.59.59,0,0,0-.38-.42A1.8,1.8,0,0,1,77,59c0,.58.52.94,1,1.3A1.69,1.69,0,0,0,78.09,59.77Z"/><path class="cls-7" d="M78.23,60.53a1.63,1.63,0,0,1,.67-.34,1,1,0,0,0,.54-.21,1.37,1.37,0,0,0,.41-.79l-.58.13A1.17,1.17,0,0,0,78.23,60.53Z"/><path class="cls-7" d="M76.79,59.94a1.86,1.86,0,0,0,.89,1.71C78,60.65,77.42,60.44,76.79,59.94Z"/><path class="cls-7" d="M78.47,60.67a1.63,1.63,0,0,0-.54.95c.19-.12.5-.07.81-.18a2,2,0,0,0,1-1A1.32,1.32,0,0,0,78.47,60.67Z"/><path class="cls-7" d="M78.53,61.76c-.21-.06-.62-.12-1.11,1a1.73,1.73,0,0,0,1.92-.84A2,2,0,0,1,78.53,61.76Z"/><path class="cls-7" d="M76.59,61.06c-.22.62.28,1.35.54,1.83C77.56,62,77.34,61.68,76.59,61.06Z"/><path class="cls-7" d="M76.07,62.1a2.4,2.4,0,0,0,.25,2.07C76.87,63,77,63.29,76.07,62.1Z"/><path class="cls-7" d="M77.6,63.1a1.42,1.42,0,0,0-1,1,4.37,4.37,0,0,1,.87-.13c.56-.07.75-.37,1.07-.81A2,2,0,0,0,77.6,63.1Z"/><path class="cls-7" d="M75.74,65.25a2.42,2.42,0,0,1,1.06-.09,1.36,1.36,0,0,0,1.3-.71C77.15,64.32,76.25,64.09,75.74,65.25Z"/><path class="cls-7" d="M75.32,65.46a8.61,8.61,0,0,0,.56-.87c.24-.52-.17-1-.46-1.4a1.54,1.54,0,0,0-.2,1.19C75.25,64.74,75.29,65.1,75.32,65.46Z"/><path class="cls-7" d="M74.86,66.17a8.17,8.17,0,0,0,1,.16A1.85,1.85,0,0,0,77,65.86,1.53,1.53,0,0,0,74.86,66.17Z"/><path class="cls-7" d="M74.4,66.29a1.24,1.24,0,0,0,.1-2,1.09,1.09,0,0,0-.28.69A10.33,10.33,0,0,1,74.4,66.29Z"/><path class="cls-7" d="M74,66.53a.34.34,0,0,0,.06-.37,2.58,2.58,0,0,1-.29-1c-.37.29-.51,1-.48,1.92Z"/><path class="cls-7" d="M73.53,67.15a1.17,1.17,0,0,1,.74.12,1.5,1.5,0,0,0,.76.17A1.42,1.42,0,0,0,76,67,1.61,1.61,0,0,0,73.53,67.15Z"/><path class="cls-7" d="M72.59,67.84c.23.07.45.11.68.2a1.63,1.63,0,0,0,.61.2,1.7,1.7,0,0,0,1-.28l-.54-.38A1.38,1.38,0,0,0,72.59,67.84Z"/><path class="cls-7" d="M72.87,65.89a.92.92,0,0,0-.39.67c-.08.47-.1.84-.18,1.13C73.13,67.36,73.2,66.68,72.87,65.89Z"/><path class="cls-7" d="M72.13,67.46a2.77,2.77,0,0,0,0-1.11c-.25,0-.6.56-1.07,1.86C71.44,68,72,67.91,72.13,67.46Z"/><path class="cls-7" d="M71.35,68.31c1,.29,1.32.94,2.45.41L73,68.2A1.7,1.7,0,0,0,71.35,68.31Z"/><path class="cls-7" d="M70.09,68.81c1.12.35,1,.94,2.3.73C71.89,68.57,71.27,68.27,70.09,68.81Z"/><path class="cls-7" d="M71,67c-.63.21-.91,1-1.06,1.61C70.68,68.43,71.07,68.11,71,67Z"/><path class="cls-7" d="M69.79,68.43a3.7,3.7,0,0,0,.17-1c-.56.06-.75,1.06-.83,1.48A.68.68,0,0,0,69.79,68.43Z"/><path class="cls-7" d="M69.39,69.13a1.69,1.69,0,0,0,1.8.87C70.82,69.37,70.16,68.77,69.39,69.13Z"/><path class="cls-7" d="M67.35,69.33c.66.39,1,0,1.5-.38l-.59-.51C68,68.73,67.65,69,67.35,69.33Z"/><polygon class="cls-7" points="67.19 68.41 66.47 68.42 67.19 69.13 67.92 68.42 67.19 68.41"/><path class="cls-7" d="M57.23,52a2.47,2.47,0,0,0-.89,2.13C56.89,53.41,57.34,53,57.23,52Z"/><path class="cls-7" d="M58,53.69c-1,.37-1.69.39-1.77,1.31C57.07,54.72,57.69,54.58,58,53.69Z"/><path class="cls-7" d="M56,54.75a1.16,1.16,0,0,0-.18-1.27c-.22-.25-.46-.45-.68-.68A2.22,2.22,0,0,0,56,54.75Z"/><path class="cls-7" d="M55.18,55.06a4.15,4.15,0,0,1,.72.73,1.06,1.06,0,0,0-.37-1.21l-.69-.53A1,1,0,0,0,55.18,55.06Z"/><path class="cls-7" d="M57.52,55c-.79.1-1.37.26-1.42,1.06A2.16,2.16,0,0,0,57.52,55Z"/><path class="cls-7" d="M55.73,57c.45-1-.5-1.25-1.14-1.64C54.64,56.25,55.22,56.49,55.73,57Z"/><path class="cls-7" d="M57.52,55.79A2.58,2.58,0,0,0,56,56.91C56.7,56.67,57.23,56.61,57.52,55.79Z"/><path class="cls-7" d="M55.83,58.06c0-.51-.12-1-.64-1.2a2.26,2.26,0,0,1-.69-.24C54.6,57.11,54.83,57.6,55.83,58.06Z"/><path class="cls-7" d="M57.32,56.77a1.84,1.84,0,0,0-1.27.78c0,.18,0,.41,0,.59A3.1,3.1,0,0,0,57.32,56.77Z"/><path class="cls-7" d="M55,59a7.34,7.34,0,0,1,.86.39c0-.66-.26-1-.73-1.15a4,4,0,0,1-.78-.28A1.55,1.55,0,0,0,55,59Z"/><path class="cls-7" d="M57.2,58.09c-.36.27-1,.35-1.12.62s.06.44.08.66A2.46,2.46,0,0,0,57.2,58.09Z"/><path class="cls-7" d="M57.37,59a1.8,1.8,0,0,1-.7.33.59.59,0,0,0-.38.42,1.69,1.69,0,0,0,.06.55C56.85,60,57.36,59.6,57.37,59Z"/><path class="cls-7" d="M54.94,60a1,1,0,0,0,.54.21,1.63,1.63,0,0,1,.67.34,1.17,1.17,0,0,0-1-1.21l-.58-.13A1.37,1.37,0,0,0,54.94,60Z"/><path class="cls-7" d="M57.59,59.94c-.63.5-1.22.71-.89,1.71A1.86,1.86,0,0,0,57.59,59.94Z"/><path class="cls-7" d="M55.64,61.44c.31.11.62.06.81.18a1.63,1.63,0,0,0-.54-.95,1.32,1.32,0,0,0-1.26-.24A2,2,0,0,0,55.64,61.44Z"/><path class="cls-7" d="M57,62.72c-.49-1.08-.9-1-1.11-1a2,2,0,0,1-.81.12A1.73,1.73,0,0,0,57,62.72Z"/><path class="cls-7" d="M57.79,61.06c-.75.62-1,.9-.54,1.83C57.51,62.41,58,61.68,57.79,61.06Z"/><path class="cls-7" d="M58.06,64.17a2.4,2.4,0,0,0,.25-2.07C57.42,63.29,57.51,63,58.06,64.17Z"/><path class="cls-7" d="M57.74,64.11a1.42,1.42,0,0,0-1-1,2,2,0,0,0-1,.07c.32.44.51.74,1.07.81A4.37,4.37,0,0,1,57.74,64.11Z"/><path class="cls-7" d="M57.58,65.16a2.42,2.42,0,0,1,1.06.09c-.51-1.16-1.41-.93-2.36-.8A1.36,1.36,0,0,0,57.58,65.16Z"/><path class="cls-7" d="M58.5,64.59a8.61,8.61,0,0,0,.56.87c0-.36.07-.72.1-1.08a1.54,1.54,0,0,0-.2-1.19C58.67,63.59,58.26,64.07,58.5,64.59Z"/><path class="cls-7" d="M59.52,66.17a1.53,1.53,0,0,0-2.18-.31,1.85,1.85,0,0,0,1.19.47A8.17,8.17,0,0,0,59.52,66.17Z"/><path class="cls-7" d="M60,66.29A10.33,10.33,0,0,1,60.16,65a1.09,1.09,0,0,0-.28-.69A1.24,1.24,0,0,0,60,66.29Z"/><path class="cls-7" d="M61.11,67.05c0-1-.11-1.63-.48-1.92a2.58,2.58,0,0,1-.29,1,.34.34,0,0,0,.06.37Z"/><path class="cls-7" d="M60.85,67.15A1.62,1.62,0,0,0,58.36,67a1.47,1.47,0,0,0,1,.46,1.5,1.5,0,0,0,.76-.17A1.17,1.17,0,0,1,60.85,67.15Z"/><path class="cls-7" d="M61.79,67.84a1.38,1.38,0,0,0-1.7-.26l-.54.38a1.7,1.7,0,0,0,1,.28,1.63,1.63,0,0,0,.61-.2C61.34,68,61.56,67.91,61.79,67.84Z"/><path class="cls-7" d="M62.08,67.69C62,67.4,62,67,61.9,66.56a.92.92,0,0,0-.39-.67C61.18,66.68,61.25,67.36,62.08,67.69Z"/><path class="cls-7" d="M63.33,68.21c-.47-1.3-.82-1.88-1.07-1.86a2.77,2.77,0,0,0,0,1.11C62.37,67.91,62.94,68,63.33,68.21Z"/><path class="cls-7" d="M61.42,68.2l-.84.52c1.13.53,1.44-.12,2.45-.41A1.7,1.7,0,0,0,61.42,68.2Z"/><path class="cls-7" d="M62,69.54c1.27.21,1.18-.38,2.3-.73C63.11,68.27,62.49,68.57,62,69.54Z"/><path class="cls-7" d="M64.41,68.6C64.26,68,64,67.2,63.35,67,63.31,68.11,63.7,68.43,64.41,68.6Z"/><path class="cls-7" d="M64.42,67.42a3.7,3.7,0,0,0,.17,1,.68.68,0,0,0,.66.47C65.16,68.48,65,67.48,64.42,67.42Z"/><path class="cls-7" d="M63.19,70a1.69,1.69,0,0,0,1.8-.87C64.22,68.77,63.56,69.37,63.19,70Z"/><path class="cls-7" d="M65.53,69c.54.38.84.77,1.5.38-.3-.3-.6-.6-.91-.89Z"/></svg>