<?xml version="1.0" encoding="utf-8"?>
<!-- Generator: Adobe Illustrator 25.4.1, SVG Export Plug-In . SVG Version: 6.00 Build 0)  -->
<svg version="1.1" id="Layer_1" xmlns="http://www.w3.org/2000/svg" xmlns:xlink="http://www.w3.org/1999/xlink" x="0px" y="0px"
	 viewBox="0 0 648.65 735.69" style="enable-background:new 0 0 648.65 735.69;" xml:space="preserve">
<style type="text/css">
	.st0{fill:#26276C;}
	.st1{fill-rule:evenodd;clip-rule:evenodd;fill:#26276C;}
	.st2{fill:#FFFFFF;}
	.st3{fill-rule:evenodd;clip-rule:evenodd;fill:#FFFFFF;}
</style>
<g>
	<g>
		<path class="st0" d="M474.57,293.73c-4.47,0-8.15,3.16-8.91,7.31h-66.53V206.3c2.16-0.51,4.01-1.75,5.3-3.43
			c16.51,12.3,29.92,28.65,38.56,47.92c-2.93,1.96-4.86,5.24-4.86,8.98c0,5.99,4.96,10.86,11.09,10.86c6.13,0,11.1-4.86,11.1-10.86
			c0-6.01-4.97-10.86-11.1-10.86c-0.69,0-1.35,0.08-1.99,0.2c-9.13-20.41-23.42-37.67-41.03-50.54c0.05-0.39,0.11-0.77,0.11-1.17
			c0-1.75-0.53-3.37-1.39-4.77l101.62-99.46l-3.23-2.9l-101.5,99.33c-1.42-0.85-3.08-1.37-4.86-1.37c-1.78,0-3.41,0.51-4.82,1.35
			c-18.9-10.39-40.56-16.2-63.31-16.2c-23.87,0-46.5,6.44-66.03,17.8c-1.71-1.8-4.13-2.95-6.84-2.95c-1.79,0-3.44,0.52-4.86,1.37
			L149,89.72l-3.37,2.77l102.34,100.15c-0.87,1.4-1.4,3.02-1.4,4.77c0,1.49,0.39,2.88,1.04,4.11
			c-15.85,12.53-28.77,28.71-37.22,47.64c-0.76-0.17-1.53-0.25-2.34-0.25c-6.12,0-11.09,4.85-11.09,10.86
			c0,5.99,4.97,10.86,11.09,10.86c6.13,0,11.1-4.86,11.1-10.86c0-3.62-1.83-6.8-4.61-8.77c8.17-18.32,20.67-33.98,36.03-46.08
			c0.95,0.65,2.01,1.1,3.16,1.38v95.59h-61.16c-0.76-4.17-4.45-7.32-8.91-7.32c-5.02,0-9.07,3.97-9.07,8.88
			c0,4.9,4.05,8.88,9.07,8.88c4.46,0,8.16-3.16,8.91-7.31h61.16v110.49c-16.81-12.4-30.46-28.95-39.19-48.52
			c2.78-1.97,4.61-5.15,4.61-8.77c0-6-4.97-10.85-11.1-10.85c-6.12,0-11.09,4.85-11.09,10.85c0,6,4.97,10.86,11.09,10.86
			c0.81,0,1.58-0.1,2.34-0.26c9.52,21.32,24.68,39.16,43.35,52.2v78.43h4.38v-75.42c20.52,13.11,44.91,20.56,70.68,20.56
			c23.82,0,46.44-6.43,65.94-17.75v72.61h4.38v-75.21c20.86-13.23,37.76-32.29,48.09-55.38c0.65,0.12,1.31,0.21,1.99,0.21
			c6.13,0,11.1-4.86,11.1-10.86c0-6-4.97-10.85-11.1-10.85c-6.13,0-11.09,4.85-11.09,10.85c0,3.73,1.93,7.02,4.86,8.98
			c-9.54,21.27-24.92,38.93-43.85,51.58v-114.6h66.53c0.76,4.15,4.44,7.31,8.91,7.31c5.01,0,9.07-3.97,9.07-8.88
			C483.64,297.7,479.58,293.73,474.57,293.73 M394.74,421.59l-0.39,0.24c-18.81,11.37-40.76,17.95-63.94,18.23v-51.56
			c5.37-0.76,9.49-5.24,9.49-10.7c0-5.99-4.97-10.85-11.1-10.85c-6.12,0-11.09,4.86-11.09,10.85c0,5.46,4.14,9.94,9.5,10.7v51.56
			c-25.33-0.31-49.19-8.1-69.08-21.49V305.01h21.79c0.43,0,0.83-0.17,1.13-0.46l24.04-23.48h39.76c0.76,4.15,4.44,7.32,8.91,7.32
			c5.02,0,9.07-3.97,9.07-8.88c0-4.91-4.06-8.88-9.07-8.88c-4.46,0-8.15,3.16-8.91,7.31h-40.43c-0.43,0-0.83,0.17-1.13,0.46
			l-24.04,23.49h-21.13V206.3c4.11-0.97,7.18-4.57,7.18-8.89c0-0.79-0.14-1.55-0.33-2.28c18.43-10.74,39.75-16.93,62.23-17.21v51.56
			c-5.36,0.76-9.5,5.24-9.5,10.7c0,5.99,4.97,10.85,11.09,10.85c6.13,0,11.1-4.86,11.1-10.85c0-5.46-4.13-9.94-9.49-10.7v-51.56
			c20.93,0.26,40.83,5.7,58.36,15.1c-0.74,1.31-1.19,2.79-1.19,4.39c0,4.32,3.07,7.92,7.17,8.89v94.75h-16.42
			c-0.42,0-0.83,0.17-1.13,0.46l-24.04,23.48h-39.76c-0.76-4.16-4.44-7.31-8.9-7.31c-5.02,0-9.08,3.97-9.08,8.88
			c0,4.91,4.06,8.88,9.08,8.88c4.46,0,8.15-3.16,8.9-7.31h40.43c0.42,0,0.83-0.17,1.12-0.46l24.05-23.47h15.75V421.59z"/>
		<path class="st1" d="M130.48,379.9c-1.22-2.69-3.5-4.63-6.41-5.52c-2.9-0.9-5.79-0.6-8.39,0.9l-4.58,2.54
			c-4.72,2.69-6.55,8.36-4.27,13.28c46.66,99.83,116.35,183.7,214.4,239.07c1.68,1.04,3.36,1.49,5.18,1.49
			c1.83,0,3.66-0.44,5.34-1.49c97.9-55.37,167.59-139.24,214.41-239.07c2.29-4.93,0.3-10.6-4.43-13.28l-4.43-2.54
			c-2.74-1.49-5.64-1.79-8.54-0.9c-2.9,0.9-5.03,2.84-6.39,5.52c-41.79,89.69-104.16,167.88-190.32,220.27
			c-1.82,1.05-3.66,1.5-5.64,1.5c-1.82,0-3.8-0.45-5.49-1.5C234.63,547.78,172.27,469.58,130.48,379.9"/>
		<path class="st1" d="M514.46,332.74l22.88,12.83l12.35,7.02c2.75,1.49,5.8,1.8,8.84,0.75c2.9-1.05,5.19-3.14,6.25-5.97
			c20.59-53.12,37.06-114.16,48.03-184.46l0.16-1.34c0.61-3.73-0.76-7.16-3.66-9.56l-1.67-1.49c-18.91-15.23-36.91-29.7-54.75-43.43
			c-4.12-3.13-10.06-2.83-13.88,0.9l-3.81,3.73c-2.13,2.1-3.2,4.77-3.05,7.91c0.16,2.98,1.52,5.52,4.12,7.46
			c14.48,11.19,29.28,22.98,44.69,35.37c2.89,2.39,4.27,5.97,3.65,9.7c-8.53,50.59-19.97,96.11-33.85,136.99
			c-1.07,3.14-3.2,5.23-6.25,6.43c-3.04,1.19-6.09,0.6-9-0.75c-16.01-6.42-13.26-1.94-7.77-18.66
			c12.04-36.85,21.5-74.46,28.51-112.22l0.15-1.49c0.77-3.73-0.6-7.31-3.65-9.7l-1.07-1.05c-12.21-9.7-24.1-19.1-35.99-28.05
			c-4.11-3.29-10.07-2.84-13.87,0.74l-3.66,3.73c-2.29,2.08-3.2,4.77-3.05,7.9c0.16,3.14,1.52,5.67,4.11,7.47
			c8.24,6.26,16.47,12.69,24.86,19.4c3.04,2.39,4.41,6.11,3.66,10c-6.86,34.47-15.85,68.79-27.45,102.22
			c-1.83,5.52-3.82,11.04-5.8,16.41c-1.83,4.78,0.15,10,4.57,12.54L514.46,332.74z"/>
		<path class="st1" d="M116.75,127.1c-14.64,11.19-29.43,22.98-44.83,35.36c-2.9,2.39-4.27,5.97-3.66,9.71
			c8.54,50.58,20.13,96.1,34.01,136.99c0.91,3.14,3.05,5.23,6.25,6.43c3.05,1.19,6.1,1.04,9-0.76c14.33-8.8,12.81-3.13,7.78-18.65
			c-12.2-36.7-21.66-74.47-28.52-112.22l-0.3-1.49c-0.76-3.73,0.61-7.31,3.66-9.7l1.23-1.05c12.04-9.7,23.94-19.09,35.83-28.05
			c4.11-3.28,10.06-2.84,13.87,0.75l3.66,3.73c2.29,2.09,3.35,4.77,3.05,7.91c-0.15,3.14-1.52,5.67-3.96,7.46
			c-8.23,6.27-16.62,12.69-25.01,19.4c-3.05,2.39-4.43,6.11-3.66,9.99c7.02,34.48,16.01,68.8,27.45,102.23
			c1.83,5.52,3.81,11.04,5.79,16.41c1.83,4.78-0.15,10-4.57,12.53l-15.4,8.66l-22.72,12.83l-12.5,7.02c-2.74,1.49-5.8,1.8-8.69,0.75
			c-3.05-1.05-5.19-3.14-6.41-5.97C67.5,294.24,51.03,233.2,40.05,162.91l-0.15-1.34c-0.62-3.73,0.76-7.16,3.66-9.56l1.83-1.49
			c18.91-15.22,36.75-29.7,54.59-43.43c4.12-3.14,10.22-2.84,13.88,0.9l3.82,3.73c2.13,2.09,3.2,4.77,3.05,7.9
			C120.57,122.62,119.2,125.15,116.75,127.1"/>
		<path class="st1" d="M326.43,80.83c0.76,0,1.38,0.16,2.14,0.3c49.4,9.85,91.19,28.5,132.37,55.36c4.26,2.69,9.75,2.23,13.26-1.34
			l12.67-12.39l20.58-20.15l8.08-8.06c2.3-2.23,3.36-5.07,3.06-8.21c-0.31-3.13-1.83-5.66-4.43-7.46
			c-3.97-2.68-7.77-5.23-11.73-7.76C453.01,38.9,400.24,15.03,329.48,3.08c-0.6-0.15-1.07-0.15-1.67-0.15h-1.38h-1.21
			c-0.77,0-1.23,0-1.83,0.15C252.62,15.03,199.87,38.9,150.46,71.13c-3.97,2.53-7.78,5.08-11.59,7.76c-2.74,1.8-4.27,4.33-4.57,7.46
			c-0.3,3.14,0.76,5.97,3.05,8.21l8.08,8.06l20.59,20.15l12.65,12.39c3.51,3.57,9.15,4.03,13.27,1.34
			c41.17-26.86,83.11-45.52,132.36-55.36C325.06,80.99,325.82,80.83,326.43,80.83 M326.43,28.75c0.62,0,1.22,0.15,1.83,0.3
			c53.99,9.4,99.43,27.31,143.8,53.87c2.9,1.64,4.58,4.33,5.03,7.46c0.3,3.29-0.76,6.27-3.04,8.51l-3.51,3.43
			c-3.5,3.43-8.69,4.03-12.96,1.49c-39.96-23.73-81.12-39.84-127.64-48.65c-0.76-0.15-1.37-0.3-1.99-0.3h-1.52h-1.37
			c-0.76,0-1.37,0.15-2.13,0.3c-46.36,8.81-87.68,24.92-127.64,48.65c-4.27,2.54-9.45,1.94-12.96-1.49l-3.51-3.43
			c-2.29-2.24-3.35-5.22-2.9-8.51c0.3-3.13,2.13-5.82,4.88-7.46c44.38-26.56,89.82-44.48,143.81-53.87
			C325.22,28.9,325.82,28.75,326.43,28.75"/>
		<path class="st1" d="M326.43,571.51c2.14,0,4.12-0.74,5.95-1.94l1.52-0.9c60.55-40.44,106.75-94.02,141.66-154.75
			c0.31-0.6,0.62-1.2,1.07-1.8c2.75-4.93,1.07-11.19-3.96-13.88l-4.58-2.53c-2.43-1.49-5.19-1.79-7.94-1.05
			c-2.9,0.75-5.03,2.39-6.4,4.93c-0.46,0.6-0.76,1.19-1.06,1.79c-30.35,52.68-69.54,99.54-120.02,136.4
			c-1.83,1.34-3.96,2.09-6.25,2.09c-2.13,0-4.42-0.75-6.25-2.09c-50.32-36.86-89.67-83.72-120.01-136.4
			c-0.3-0.6-0.61-1.19-0.91-1.79c-1.53-2.54-3.66-4.18-6.41-4.93c-2.9-0.74-5.64-0.44-8.08,1.05l-4.58,2.53
			c-4.88,2.69-6.7,8.95-3.81,13.88c0.3,0.6,0.61,1.19,0.91,1.8c35.07,60.73,81.28,114.31,141.67,154.75l1.52,0.9
			C322.32,570.77,324.45,571.51,326.43,571.51"/>
		<path class="st0" d="M269.94,198.03c0,7.45-6.18,13.5-13.8,13.5c-7.62,0-13.8-6.04-13.8-13.5c0-7.46,6.18-13.5,13.8-13.5
			C263.76,184.52,269.94,190.57,269.94,198.03"/>
		<path class="st0" d="M411,198.03c0,7.45-6.18,13.5-13.8,13.5c-7.62,0-13.8-6.04-13.8-13.5c0-7.46,6.18-13.5,13.8-13.5
			C404.82,184.52,411,190.57,411,198.03"/>
	</g>
	<g>
		<g>
			<g>
				<path class="st0" d="M28.56,606.2c-0.34,0.44-0.59,0.82-0.76,1.15c-0.17,0.33-0.25,0.64-0.23,0.93
					c0.02,0.29,0.13,0.58,0.35,0.86c0.21,0.28,0.55,0.59,1,0.94c0.63,0.48,0.95,0.72,1.58,1.2c0.41,0.31,0.71,0.58,0.91,0.8
					c0.2,0.23,0.31,0.44,0.34,0.63c0.03,0.19-0.01,0.38-0.11,0.57c-0.1,0.18-0.24,0.39-0.42,0.63c-0.39,0.52-0.58,0.78-0.97,1.29
					c-0.24,0.32-0.45,0.56-0.63,0.71c-0.18,0.15-0.38,0.23-0.59,0.23c-0.21,0-0.43-0.07-0.68-0.21c-0.25-0.14-0.55-0.34-0.9-0.61
					c-1.04-0.79-1.56-1.18-2.6-1.97c-1-0.77-1.82-1.5-2.44-2.19c-0.62-0.69-1.1-1.34-1.44-1.94c-0.34-0.61-0.56-1.18-0.65-1.72
					c-0.1-0.54-0.11-1.04-0.04-1.52c-1.27-0.34-2.41-0.78-3.43-1.32c-1.02-0.54-2.01-1.21-2.98-2c-0.97-0.79-1.86-1.71-2.66-2.75
					c-0.81-1.04-1.42-2.13-1.83-3.26c-0.41-1.13-0.56-2.27-0.45-3.42c0.11-1.15,0.6-2.22,1.46-3.23c0.76-0.89,1.66-1.51,2.69-1.88
					c1.03-0.37,2.14-0.54,3.33-0.52c1.19,0.02,2.42,0.17,3.69,0.47c1.27,0.3,2.53,0.67,3.77,1.13c1.25,0.45,2.45,0.95,3.6,1.49
					c1.16,0.54,2.21,1.04,3.15,1.52c0.65-0.82,0.97-1.23,1.62-2.04c2.15,1.71,3.24,2.56,5.41,4.23
					C34.02,599.11,32.2,601.47,28.56,606.2z M27.72,595.86c-1.39-0.75-2.69-1.37-3.89-1.87c-1.21-0.49-2.32-0.84-3.32-1.04
					c-1-0.2-1.89-0.22-2.65-0.06c-0.76,0.16-1.38,0.52-1.85,1.09c-0.38,0.46-0.6,0.94-0.64,1.45c-0.04,0.5,0.02,1,0.21,1.48
					s0.47,0.95,0.84,1.39c0.37,0.45,0.78,0.85,1.23,1.21c0.82,0.66,1.68,1.21,2.6,1.62c0.92,0.42,1.79,0.7,2.61,0.84
					C24.8,599.54,25.77,598.31,27.72,595.86z M29.54,580.25c0.26-0.32,0.58-0.56,0.94-0.72c0.36-0.16,0.74-0.25,1.15-0.26
					c0.41-0.01,0.82,0.05,1.22,0.18c0.41,0.13,0.8,0.35,1.16,0.65c0.37,0.3,0.66,0.63,0.87,1c0.22,0.37,0.36,0.76,0.43,1.16
					c0.07,0.4,0.06,0.8-0.02,1.18c-0.08,0.39-0.26,0.74-0.52,1.07c-0.26,0.32-0.57,0.57-0.93,0.74c-0.36,0.17-0.74,0.26-1.15,0.27
					c-0.41,0.02-0.82-0.04-1.23-0.18c-0.41-0.14-0.8-0.35-1.18-0.66c-0.37-0.3-0.67-0.64-0.88-1.02c-0.22-0.38-0.36-0.77-0.43-1.17
					c-0.07-0.4-0.06-0.8,0.03-1.18C29.1,580.93,29.28,580.57,29.54,580.25z M35.69,585.23c0.26-0.33,0.57-0.57,0.92-0.74
					c0.36-0.17,0.74-0.26,1.15-0.29c0.41-0.02,0.81,0.03,1.22,0.16c0.41,0.13,0.8,0.34,1.17,0.63c0.37,0.29,0.67,0.62,0.89,0.99
					c0.22,0.37,0.37,0.75,0.45,1.15c0.08,0.4,0.07,0.79,0,1.18c-0.08,0.39-0.24,0.74-0.5,1.07c-0.25,0.33-0.56,0.58-0.91,0.75
					c-0.36,0.17-0.74,0.27-1.15,0.3c-0.41,0.02-0.82-0.03-1.23-0.15c-0.41-0.13-0.81-0.34-1.18-0.63c-0.37-0.29-0.67-0.63-0.9-1
					c-0.22-0.37-0.37-0.76-0.45-1.16c-0.07-0.4-0.07-0.8,0.01-1.18C35.26,585.91,35.43,585.56,35.69,585.23z"/>
				<path class="st0" d="M42.79,617.15c-0.16,0.23-0.33,0.44-0.51,0.64c-0.18,0.2-0.36,0.4-0.54,0.59c0.55,0.77,1.2,1.52,1.96,2.24
					c0.75,0.72,1.59,1.4,2.5,2.03c0.07,0.05,0.11,0.07,0.18,0.12c0.42,0.29,0.73,0.55,0.94,0.76c0.21,0.22,0.33,0.42,0.36,0.61
					c0.03,0.19,0,0.38-0.09,0.57c-0.1,0.19-0.23,0.4-0.39,0.64c-0.37,0.53-0.55,0.8-0.91,1.33c-0.23,0.33-0.43,0.57-0.6,0.73
					c-0.18,0.16-0.37,0.24-0.57,0.25c-0.21,0.01-0.43-0.05-0.68-0.18c-0.25-0.13-0.56-0.31-0.92-0.57c-0.1-0.07-0.15-0.1-0.25-0.17
					c-1.51-1.05-2.7-2.1-3.56-3.14c-0.86-1.03-1.53-2.07-2-3.12c-0.86,0.1-1.79,0-2.77-0.29c-0.98-0.29-2.03-0.85-3.15-1.68
					c-1.81-1.33-2.71-2.01-4.5-3.37c-0.36-0.27-0.63-0.5-0.83-0.7c-0.2-0.2-0.33-0.4-0.38-0.6c-0.06-0.2-0.04-0.41,0.06-0.63
					c0.1-0.22,0.26-0.49,0.51-0.8c0.39-0.51,0.59-0.77,0.98-1.29c0.18-0.23,0.34-0.42,0.49-0.57c0.15-0.15,0.32-0.24,0.51-0.26
					c0.19-0.03,0.42,0.02,0.69,0.15c0.26,0.12,0.61,0.35,1.03,0.67c0.99,0.75,1.49,1.13,2.49,1.87c0.49,0.36,0.93,0.63,1.34,0.8
					c0.41,0.17,0.8,0.23,1.16,0.18c0.36-0.05,0.73-0.21,1.08-0.48c0.36-0.27,0.73-0.67,1.11-1.19c2.49-3.39,3.73-5.08,6.22-8.47
					c2.24,1.65,3.36,2.46,5.62,4.07C46.73,611.62,45.41,613.46,42.79,617.15z M24.9,621.7c0.25-0.33,0.55-0.58,0.92-0.76
					c0.36-0.17,0.76-0.27,1.18-0.29c0.42-0.02,0.85,0.04,1.29,0.17c0.44,0.13,0.86,0.35,1.26,0.65c0.41,0.3,0.74,0.64,0.99,1.02
					c0.26,0.38,0.44,0.77,0.54,1.18c0.11,0.41,0.13,0.81,0.07,1.21c-0.06,0.4-0.21,0.76-0.45,1.1c-0.24,0.34-0.55,0.59-0.91,0.77
					c-0.36,0.18-0.75,0.28-1.18,0.3c-0.43,0.02-0.86-0.03-1.3-0.16c-0.44-0.13-0.87-0.35-1.28-0.65c-0.41-0.3-0.74-0.65-1-1.03
					c-0.26-0.38-0.44-0.78-0.54-1.2c-0.1-0.41-0.12-0.82-0.06-1.22C24.49,622.39,24.65,622.03,24.9,621.7z M31.71,626.71
					c0.24-0.34,0.54-0.59,0.9-0.77c0.36-0.18,0.75-0.28,1.17-0.31c0.42-0.03,0.85,0.02,1.29,0.15c0.44,0.12,0.86,0.33,1.27,0.62
					c0.41,0.29,0.74,0.62,1,1c0.26,0.37,0.45,0.76,0.56,1.17c0.11,0.41,0.14,0.81,0.09,1.21c-0.05,0.4-0.19,0.77-0.43,1.11
					c-0.24,0.34-0.54,0.6-0.89,0.78c-0.36,0.18-0.75,0.29-1.17,0.32c-0.42,0.03-0.86-0.02-1.3-0.14c-0.44-0.13-0.87-0.33-1.29-0.63
					c-0.41-0.3-0.75-0.63-1.02-1.01c-0.26-0.38-0.45-0.77-0.56-1.18c-0.11-0.41-0.14-0.82-0.08-1.21
					C31.31,627.41,31.46,627.05,31.71,626.71z"/>
				<path class="st0" d="M43.34,626.83c-0.36-0.25-0.65-0.47-0.85-0.66c-0.2-0.19-0.34-0.38-0.41-0.58
					c-0.07-0.2-0.05-0.41,0.03-0.63c0.09-0.22,0.25-0.5,0.48-0.82c0.37-0.53,0.56-0.79,0.93-1.32c0.17-0.24,0.32-0.44,0.46-0.59
					c0.14-0.15,0.31-0.25,0.5-0.28c0.19-0.04,0.42,0,0.69,0.11c0.27,0.11,0.62,0.32,1.05,0.62c2.3,1.6,3.46,2.39,5.78,3.95
					c3.1-4.61,4.65-6.91,7.74-11.52c2.29,1.54,3.44,2.3,5.74,3.8c-4.13,6.35-6.2,9.52-10.33,15.87
					C50.39,631.68,48.03,630.09,43.34,626.83z M64.54,607.87c0.23-0.35,0.52-0.62,0.86-0.81c0.34-0.2,0.71-0.32,1.11-0.38
					c0.4-0.06,0.81-0.04,1.22,0.05c0.41,0.09,0.82,0.27,1.2,0.52c0.39,0.26,0.7,0.56,0.95,0.91c0.25,0.35,0.42,0.72,0.53,1.11
					c0.1,0.39,0.13,0.78,0.08,1.17c-0.05,0.39-0.19,0.76-0.41,1.11c-0.23,0.35-0.51,0.62-0.85,0.83c-0.34,0.2-0.71,0.33-1.11,0.39
					c-0.4,0.06-0.81,0.04-1.23-0.05c-0.42-0.09-0.83-0.27-1.22-0.53c-0.39-0.26-0.71-0.57-0.96-0.92c-0.25-0.35-0.42-0.72-0.53-1.12
					c-0.1-0.39-0.13-0.79-0.08-1.18C64.17,608.58,64.31,608.21,64.54,607.87z"/>
				<path class="st0" d="M63.03,645.84c1.45,0.71,2.86,1.28,4.22,1.72c1.36,0.43,2.64,0.73,3.82,0.89c1.19,0.16,2.27,0.18,3.25,0.06
					c0.98-0.12,1.8-0.37,2.47-0.77c-0.66-0.24-1.34-0.53-2.03-0.86c-0.69-0.33-1.27-0.64-1.72-0.91c-1.97-1.16-3.48-2.41-4.55-3.73
					c-1.07-1.32-1.79-2.62-2.17-3.92c-0.38-1.29-0.46-2.53-0.27-3.7c0.2-1.17,0.58-2.2,1.14-3.09c0.8-1.28,1.82-2.29,3.05-3.03
					c1.23-0.75,2.57-1.22,4.03-1.42c1.45-0.2,2.96-0.14,4.52,0.19c1.56,0.32,3.08,0.92,4.58,1.81c0.66,0.39,1.33,0.85,1.99,1.38
					c0.66,0.53,1.27,1.13,1.81,1.81c0.54,0.68,1,1.43,1.36,2.26c0.37,0.83,0.59,1.74,0.67,2.73c0.08,0.99-0.02,2.06-0.29,3.22
					c-0.27,1.15-0.77,2.39-1.51,3.71c-0.77,1.37-1.15,2.06-1.92,3.43c-1.28,2.29-2.78,3.96-4.51,5.01c-1.73,1.05-3.67,1.62-5.8,1.7
					c-2.13,0.08-4.44-0.26-6.92-1.04c-2.48-0.78-5.08-1.86-7.8-3.24c0.8-1.82,1.21-2.72,2.01-4.54
					C62.69,645.63,62.8,645.7,63.03,645.84z M76.18,642.17c0.28,0.17,0.58,0.32,0.9,0.48c0.32,0.15,0.63,0.29,0.95,0.42
					c0.31,0.13,0.61,0.24,0.9,0.34c0.29,0.1,0.54,0.16,0.75,0.19c0.39-0.67,0.58-1.01,0.97-1.68c0.79-1.37,1.31-2.56,1.56-3.57
					c0.24-1.01,0.3-1.87,0.18-2.59c-0.12-0.72-0.39-1.32-0.81-1.8c-0.42-0.48-0.89-0.87-1.42-1.19c-0.58-0.34-1.2-0.57-1.85-0.67
					c-0.66-0.11-1.31-0.09-1.95,0.04c-0.64,0.13-1.25,0.39-1.81,0.78c-0.57,0.39-1.05,0.9-1.44,1.55c-0.38,0.63-0.62,1.28-0.72,1.96
					c-0.09,0.67-0.02,1.34,0.22,1.99c0.24,0.66,0.65,1.3,1.23,1.94C74.42,640.98,75.2,641.59,76.18,642.17z"/>
				<path class="st0" d="M83.5,656.95c1.52,0.54,2.82,0.87,3.87,0.99c1.06,0.12,1.97,0.04,2.72-0.23c0.75-0.27,1.4-0.72,1.95-1.34
					c0.55-0.62,1.07-1.41,1.58-2.36c2.99-5.63,4.49-8.44,7.48-14.07c2.4,1.28,3.61,1.91,6.02,3.15c-2.53,4.94-3.8,7.41-6.33,12.35
					c1.92,0.99,2.89,1.47,4.82,2.44c0.45,0.22,0.79,0.43,1.02,0.61c0.23,0.18,0.37,0.37,0.43,0.55s0.06,0.37-0.01,0.57
					c-0.07,0.2-0.17,0.43-0.3,0.69c-0.29,0.58-0.43,0.87-0.71,1.45c-0.18,0.36-0.34,0.63-0.49,0.81c-0.15,0.18-0.33,0.29-0.53,0.33
					c-0.2,0.04-0.43,0.01-0.69-0.07c-0.26-0.09-0.58-0.23-0.97-0.42c-2.09-1.04-3.13-1.57-5.21-2.64c-0.93,1.18-1.94,2.1-3.03,2.75
					c-1.09,0.65-2.29,1.06-3.62,1.21c-1.33,0.16-2.78,0.08-4.37-0.22c-1.58-0.31-3.34-0.84-5.27-1.6
					C82.5,659.92,82.83,658.93,83.5,656.95z"/>
				<path class="st0" d="M118.45,661.24c-0.12,0.25-0.24,0.49-0.38,0.73c-0.14,0.23-0.28,0.46-0.42,0.68
					c0.66,0.65,1.42,1.25,2.27,1.81c0.85,0.56,1.77,1.06,2.76,1.51c0.08,0.04,0.12,0.05,0.2,0.09c0.45,0.21,0.8,0.39,1.03,0.57
					c0.24,0.17,0.39,0.35,0.45,0.53c0.07,0.18,0.07,0.37,0.01,0.57c-0.06,0.2-0.15,0.43-0.27,0.7c-0.26,0.59-0.39,0.89-0.66,1.48
					c-0.16,0.37-0.32,0.64-0.46,0.83c-0.14,0.19-0.31,0.31-0.51,0.35c-0.2,0.05-0.43,0.03-0.69-0.04c-0.26-0.07-0.59-0.2-0.98-0.38
					c-0.11-0.05-0.16-0.07-0.27-0.12c-1.64-0.74-2.97-1.54-3.97-2.39c-1.01-0.85-1.83-1.74-2.46-2.66
					c-0.82,0.26-1.72,0.35-2.72,0.25c-1-0.1-2.1-0.44-3.32-1.03c-1.97-0.96-2.95-1.44-4.91-2.42c-0.39-0.19-0.69-0.37-0.92-0.53
					c-0.23-0.16-0.38-0.33-0.47-0.51c-0.09-0.18-0.11-0.39-0.05-0.62c0.06-0.23,0.17-0.52,0.36-0.88c0.29-0.58,0.44-0.87,0.73-1.44
					c0.13-0.26,0.26-0.48,0.37-0.65c0.12-0.17,0.27-0.29,0.45-0.36c0.18-0.06,0.41-0.06,0.69,0.01c0.27,0.07,0.64,0.22,1.11,0.45
					c1.09,0.54,1.63,0.81,2.72,1.35c0.53,0.26,1.01,0.43,1.43,0.52c0.42,0.09,0.81,0.07,1.15-0.04c0.34-0.12,0.67-0.34,0.97-0.67
					c0.3-0.33,0.59-0.79,0.87-1.37c1.83-3.79,2.74-5.68,4.57-9.46c2.44,1.18,3.66,1.76,6.11,2.9
					C121.32,655.08,120.36,657.14,118.45,661.24z M117.28,638.47c0.18-0.37,0.43-0.68,0.74-0.92c0.31-0.24,0.66-0.42,1.04-0.53
					c0.39-0.11,0.79-0.15,1.2-0.12c0.42,0.03,0.83,0.15,1.24,0.35c0.41,0.2,0.76,0.45,1.04,0.76c0.28,0.31,0.5,0.65,0.65,1.02
					c0.15,0.37,0.23,0.75,0.23,1.15c0,0.39-0.09,0.78-0.27,1.15c-0.18,0.38-0.42,0.69-0.73,0.93c-0.31,0.25-0.65,0.43-1.04,0.54
					c-0.39,0.11-0.79,0.16-1.21,0.12c-0.42-0.03-0.84-0.15-1.26-0.35c-0.42-0.2-0.77-0.46-1.06-0.77c-0.29-0.31-0.5-0.65-0.65-1.03
					c-0.15-0.37-0.22-0.76-0.22-1.15C117,639.22,117.09,638.84,117.28,638.47z M124.17,641.8c0.18-0.38,0.42-0.69,0.72-0.94
					c0.3-0.25,0.65-0.43,1.03-0.55c0.38-0.12,0.78-0.16,1.2-0.14c0.42,0.02,0.83,0.13,1.25,0.33c0.41,0.19,0.76,0.44,1.05,0.74
					c0.29,0.3,0.51,0.64,0.67,1.01c0.16,0.37,0.24,0.75,0.25,1.14c0.01,0.39-0.07,0.78-0.25,1.16c-0.17,0.38-0.41,0.69-0.71,0.95
					c-0.3,0.25-0.65,0.44-1.03,0.56c-0.38,0.12-0.79,0.17-1.21,0.14c-0.42-0.02-0.84-0.13-1.26-0.33c-0.42-0.19-0.77-0.45-1.07-0.75
					c-0.29-0.31-0.51-0.64-0.67-1.02c-0.16-0.37-0.24-0.75-0.24-1.15C123.91,642.56,124,642.18,124.17,641.8z"/>
				<path class="st0" d="M120.63,670.6c-0.39-0.18-0.71-0.34-0.94-0.49c-0.23-0.15-0.39-0.31-0.49-0.49
					c-0.1-0.18-0.12-0.38-0.07-0.62c0.05-0.23,0.15-0.53,0.32-0.89c0.27-0.59,0.4-0.88,0.67-1.47c0.12-0.27,0.24-0.49,0.35-0.67
					c0.11-0.18,0.26-0.3,0.44-0.37c0.18-0.07,0.41-0.08,0.68-0.02c0.28,0.06,0.65,0.19,1.12,0.41c2.97,1.34,4.46,2,7.45,3.28
					c0.98,0.42,1.81,0.7,2.5,0.84c0.68,0.14,1.26,0.17,1.73,0.09c0.47-0.08,0.84-0.26,1.12-0.53c0.28-0.28,0.5-0.62,0.68-1.03
					c0.25-0.6,0.29-1.29,0.13-2.09c-0.16-0.79-0.51-1.69-1.03-2.68c-0.52-0.99-1.21-2.08-2.07-3.27c-0.86-1.19-1.84-2.49-2.95-3.89
					c6.84-4.32,10.19-6.54,16.77-11.09c1.33,1.77,2,2.65,3.36,4.41c-4.66,3.37-7.02,5.02-11.81,8.28c0.9,1.37,1.67,2.63,2.29,3.78
					c0.62,1.16,1.09,2.25,1.39,3.28c0.31,1.03,0.45,2.02,0.43,2.95c-0.02,0.94-0.21,1.87-0.59,2.8c-0.21,0.53-0.46,1.02-0.76,1.46
					c0.69,0.74,1.53,1.41,2.52,2.01c0.98,0.6,2.06,1.12,3.22,1.56c0.08,0.03,0.12,0.05,0.2,0.08c0.46,0.18,0.82,0.35,1.06,0.51
					c0.24,0.16,0.4,0.33,0.48,0.5c0.07,0.18,0.09,0.37,0.04,0.57c-0.05,0.2-0.13,0.44-0.23,0.72c-0.23,0.6-0.34,0.91-0.57,1.51
					c-0.14,0.37-0.28,0.66-0.41,0.86c-0.13,0.2-0.3,0.32-0.49,0.38c-0.19,0.06-0.42,0.06-0.69,0c-0.26-0.06-0.6-0.17-1-0.32
					c-0.11-0.04-0.17-0.06-0.28-0.11c-1.94-0.75-3.48-1.61-4.61-2.56c-1.13-0.96-2.02-1.97-2.67-3.03
					c-1.14,0.38-2.46,0.51-3.97,0.37c-1.5-0.14-3.24-0.63-5.19-1.46C125.49,672.77,123.87,672.06,120.63,670.6z"/>
				<path class="st0" d="M145.26,680.89c-0.4-0.15-0.72-0.3-0.96-0.43c-0.24-0.13-0.41-0.29-0.51-0.46
					c-0.11-0.17-0.14-0.38-0.11-0.61c0.03-0.23,0.12-0.54,0.27-0.91c0.23-0.6,0.35-0.9,0.59-1.51c0.11-0.27,0.21-0.5,0.31-0.68
					c0.1-0.18,0.24-0.32,0.41-0.4c0.17-0.08,0.4-0.1,0.68-0.06c0.28,0.04,0.66,0.16,1.14,0.34c2.36,0.91,3.55,1.36,5.92,2.24
					c3.91-10.55,5.87-15.83,9.79-26.38c2.44,0.9,3.66,1.35,6.11,2.21c-4.44,12.52-6.66,18.77-11.1,31.29
					C152.76,683.74,150.25,682.81,145.26,680.89z"/>
				<path class="st0" d="M204.23,665.16c-3.4,12.84-5.1,19.25-8.51,32.08c-12.71-3.36-19.02-5.26-31.52-9.5
					c0.65-1.92,0.98-2.87,1.63-4.79c4.5,1.52,6.76,2.26,11.28,3.67c2.42-7.76,3.63-11.64,6.05-19.41c2.52,0.78,3.78,1.17,6.3,1.91
					c-2.31,7.8-3.46,11.69-5.77,19.49c2.68,0.79,4.02,1.18,6.71,1.93c3.04-10.84,4.56-16.25,7.6-27.09
					C200.49,664.16,201.74,664.5,204.23,665.16z M181.37,699.81c-0.26-0.13-0.61-0.28-1.04-0.45c-0.43-0.18-0.79-0.31-1.08-0.39
					c-0.55-0.17-1.03-0.2-1.44-0.11c-0.41,0.1-0.68,0.39-0.84,0.89c-0.15,0.5-0.03,1.02,0.37,1.55c0.4,0.53,1.14,0.96,2.22,1.28
					c0.61,0.18,0.91,0.27,1.52,0.45c-0.31,1.07-0.47,1.61-0.79,2.68c-3.91-1.14-5.86-1.73-9.76-2.96c0.34-1.07,0.5-1.6,0.84-2.67
					c1.02,0.32,1.53,0.48,2.55,0.79c-0.19-0.38-0.33-0.82-0.43-1.32c-0.1-0.5-0.08-0.98,0.07-1.45c0.14-0.44,0.37-0.84,0.7-1.2
					c0.33-0.36,0.76-0.64,1.29-0.83c0.53-0.2,1.16-0.3,1.88-0.29c0.72,0,1.54,0.14,2.45,0.41c0.4,0.12,0.82,0.26,1.27,0.41
					c0.45,0.16,0.96,0.37,1.54,0.63C182.16,698.26,181.89,698.78,181.37,699.81z"/>
				<path class="st0" d="M211.01,666.92c2.51,0.62,3.76,0.92,6.28,1.51c-3.02,12.93-4.53,19.39-7.55,32.32
					c-2.7-0.63-4.04-0.95-6.74-1.62C206.21,686.25,207.81,679.81,211.01,666.92z"/>
				<path class="st0" d="M249.56,708.53c-1.03-0.15-2.01-0.39-2.94-0.72c-0.93-0.33-1.78-0.7-2.55-1.11
					c-0.78-0.41-1.47-0.85-2.08-1.31c-0.61-0.46-1.13-0.9-1.56-1.33c-0.68-0.02-1.37,0.04-2.08,0.17c-0.71,0.14-1.38,0.4-1.99,0.78
					c-0.61,0.38-1.16,0.93-1.62,1.63c-0.47,0.7-0.8,1.61-1,2.73c-0.14,0.77-0.23,1.64-0.26,2.6s-0.02,2,0.06,3.11
					c0.08,1.11,0.22,2.27,0.43,3.49c0.21,1.22,0.48,2.46,0.82,3.72c-2.74,0.28-4.12,0.41-6.88,0.65c-0.26-1.21-0.49-2.5-0.68-3.89
					c-0.19-1.38-0.33-2.74-0.42-4.07c-0.09-1.33-0.12-2.57-0.11-3.74c0.02-1.17,0.1-2.13,0.25-2.9c0.24-1.24,0.6-2.32,1.08-3.25
					c0.48-0.93,1.02-1.73,1.64-2.4c0.61-0.67,1.28-1.24,2.01-1.69c0.73-0.45,1.46-0.83,2.19-1.12c0.73-0.3,1.45-0.53,2.17-0.71
					c0.71-0.18,1.37-0.32,1.98-0.44c0.8-1.53,1.63-2.84,2.5-3.93c0.87-1.09,1.74-2,2.61-2.74c0.87-0.74,1.73-1.32,2.59-1.74
					c0.86-0.42,1.68-0.74,2.47-0.93c0.79-0.2,1.54-0.3,2.26-0.32c0.72-0.02,1.36,0.02,1.93,0.1c1.3,0.19,2.44,0.51,3.44,0.97
					c1,0.46,1.87,1,2.61,1.63c0.74,0.63,1.36,1.32,1.86,2.07c0.5,0.75,0.89,1.53,1.18,2.31c0.29,0.79,0.48,1.57,0.57,2.34
					c0.09,0.77,0.09,1.49,0.01,2.14c-0.13,1.07-0.42,2.07-0.87,2.99c0.84,0.49,1.78,0.89,2.83,1.19c1.05,0.3,2.15,0.52,3.29,0.64
					c0.08,0.01,0.12,0.01,0.21,0.02c0.49,0.05,0.87,0.13,1.14,0.22c0.27,0.09,0.47,0.21,0.58,0.36c0.12,0.15,0.18,0.33,0.18,0.54
					c0,0.21-0.01,0.46-0.04,0.75c-0.07,0.64-0.1,0.96-0.17,1.61c-0.04,0.4-0.1,0.71-0.18,0.93c-0.08,0.22-0.2,0.39-0.37,0.49
					c-0.17,0.11-0.39,0.16-0.66,0.17c-0.27,0.01-0.61-0.01-1.03-0.05c-0.12-0.01-0.17-0.02-0.29-0.03
					c-2.04-0.23-3.72-0.66-5.04-1.29c-1.32-0.63-2.42-1.38-3.3-2.24c-1.03,0.71-2.27,1.22-3.71,1.54
					C253.15,708.79,251.47,708.81,249.56,708.53z M255.79,699.99c0.07-0.5,0.04-1.08-0.09-1.73c-0.13-0.65-0.37-1.27-0.72-1.87
					c-0.35-0.6-0.82-1.13-1.41-1.59c-0.59-0.46-1.3-0.75-2.15-0.87c-0.85-0.12-1.66-0.02-2.43,0.32c-0.78,0.34-1.5,0.83-2.17,1.48
					c-0.67,0.64-1.28,1.4-1.83,2.28c-0.55,0.88-1.02,1.79-1.41,2.74c0.19,0.23,0.5,0.49,0.94,0.76c0.43,0.27,0.93,0.53,1.5,0.79
					c0.56,0.25,1.16,0.48,1.78,0.67c0.63,0.2,1.23,0.34,1.8,0.42c0.85,0.13,1.63,0.18,2.34,0.17c0.71-0.02,1.33-0.14,1.87-0.38
					c0.54-0.24,0.97-0.61,1.31-1.13C255.44,701.55,255.67,700.86,255.79,699.99z"/>
				<path class="st0" d="M266.73,710.48c-0.42-0.05-0.76-0.1-1.02-0.17c-0.26-0.07-0.46-0.17-0.6-0.31
					c-0.14-0.14-0.23-0.33-0.26-0.56c-0.03-0.24-0.02-0.55,0.03-0.95c0.07-0.64,0.11-0.96,0.18-1.61c0.03-0.29,0.07-0.54,0.13-0.74
					c0.05-0.2,0.15-0.37,0.29-0.49c0.15-0.12,0.36-0.2,0.63-0.23c0.28-0.03,0.67-0.02,1.17,0.04c2.67,0.3,4.01,0.43,6.68,0.69
					c0.54-5.53,0.8-8.29,1.34-13.82c2.64,0.25,3.96,0.37,6.6,0.59c-0.62,7.55-0.93,11.32-1.56,18.87
					C274.89,711.34,272.17,711.08,266.73,710.48z M285.26,682.9c-0.42-0.12-0.88-0.25-1.38-0.36c-0.5-0.12-0.94-0.19-1.32-0.22
					c-0.74-0.06-1.33,0.03-1.76,0.29c-0.43,0.26-0.67,0.69-0.73,1.3c-0.02,0.29,0.02,0.59,0.13,0.9s0.31,0.61,0.59,0.89
					c0.28,0.28,0.64,0.52,1.07,0.72c0.44,0.2,0.97,0.32,1.58,0.37c0.89,0.07,1.34,0.11,2.23,0.17c-0.11,1.46-0.17,2.18-0.27,3.64
					c-5.16-0.39-7.74-0.62-12.9-1.15c0.15-1.45,0.23-2.18,0.38-3.63c1.21,0.12,1.82,0.19,3.03,0.3c-0.31-0.45-0.55-0.99-0.73-1.61
					c-0.17-0.63-0.23-1.23-0.17-1.82c0.06-0.64,0.26-1.24,0.59-1.78c0.33-0.54,0.79-1,1.38-1.39c0.59-0.38,1.33-0.66,2.22-0.84
					c0.88-0.17,1.92-0.21,3.1-0.11c0.46,0.04,0.99,0.1,1.6,0.18c0.6,0.08,1.36,0.23,2.27,0.46
					C285.8,680.69,285.62,681.42,285.26,682.9z"/>
				<path class="st0" d="M289.5,679.22c2.56,0.17,3.84,0.25,6.41,0.39c-0.72,13.26-1.07,19.89-1.79,33.14
					c-2.75-0.15-4.13-0.23-6.88-0.42C288.15,699.09,288.6,692.47,289.5,679.22z"/>
				<path class="st0" d="M297.19,717.3c1.56-0.19,2.83-0.47,3.81-0.83c0.98-0.36,1.74-0.83,2.28-1.41c0.54-0.57,0.92-1.26,1.13-2.06
					s0.34-1.74,0.37-2.82c0.21-6.37,0.31-9.56,0.51-15.93c2.65,0.09,3.97,0.12,6.62,0.17c-0.1,5.55-0.15,8.33-0.25,13.88
					c2.11,0.04,3.16,0.05,5.27,0.07c0.49,0,0.87,0.04,1.15,0.1c0.28,0.06,0.48,0.16,0.62,0.3c0.13,0.14,0.21,0.31,0.23,0.52
					c0.02,0.21,0.04,0.46,0.04,0.75c0,0.65,0,0.97,0,1.62c0,0.4-0.03,0.72-0.08,0.95c-0.05,0.23-0.16,0.41-0.32,0.53
					c-0.16,0.12-0.37,0.2-0.64,0.24c-0.26,0.04-0.61,0.05-1.03,0.05c-2.28-0.02-3.42-0.03-5.7-0.07c-0.31,1.47-0.8,2.74-1.47,3.81
					c-0.67,1.06-1.56,1.96-2.65,2.69c-1.09,0.73-2.4,1.3-3.92,1.73c-1.52,0.43-3.28,0.73-5.29,0.9
					C297.59,720.4,297.46,719.37,297.19,717.3z"/>
				<path class="st0" d="M320.7,694.4c1.19-0.32,2.37-0.61,3.56-0.86c1.18-0.25,2.52-0.38,4.01-0.41c1.47-0.02,2.78,0.14,3.92,0.51
					c1.15,0.36,2.13,0.88,2.97,1.56c0.84,0.67,1.53,1.49,2.07,2.44c0.54,0.95,0.94,2.01,1.18,3.15c0.2,0.94,0.39,1.85,0.59,2.72
					c0.2,0.86,0.41,1.62,0.65,2.29c0.24,0.66,0.51,1.19,0.81,1.57c0.3,0.39,0.66,0.57,1.08,0.55c0.99-0.04,1.48-0.07,2.46-0.11
					c0.49-0.02,0.88-0.01,1.16,0.03c0.28,0.05,0.49,0.14,0.63,0.27c0.14,0.13,0.23,0.3,0.26,0.51c0.04,0.21,0.07,0.46,0.08,0.75
					c0.03,0.65,0.05,0.97,0.09,1.61c0.02,0.4,0.01,0.72-0.03,0.95c-0.04,0.23-0.14,0.42-0.29,0.55c-0.15,0.13-0.36,0.22-0.62,0.28
					c-0.26,0.05-0.61,0.09-1.03,0.11c-11.02,0.54-16.54,0.65-27.57,0.57c-0.42,0-0.77-0.03-1.03-0.07
					c-0.26-0.04-0.48-0.12-0.63-0.25c-0.16-0.12-0.26-0.3-0.31-0.53s-0.07-0.55-0.07-0.95c0.01-0.65,0.01-0.97,0.02-1.62
					c0-0.29,0.02-0.54,0.05-0.75c0.03-0.21,0.11-0.38,0.24-0.52c0.13-0.14,0.34-0.24,0.61-0.29c0.27-0.06,0.66-0.09,1.17-0.08
					c6.9,0.05,10.35,0.02,17.25-0.18c-0.24-0.41-0.47-0.89-0.69-1.44c-0.22-0.55-0.4-1.12-0.52-1.7c-0.17-0.85-0.35-1.72-0.57-2.57
					c-0.22-0.86-0.54-1.62-0.95-2.3c-0.41-0.68-0.95-1.22-1.6-1.64c-0.66-0.42-1.52-0.62-2.58-0.6c-0.36,0.01-0.8,0.03-1.31,0.09
					c-0.51,0.05-1.06,0.13-1.63,0.22c-0.57,0.1-1.16,0.22-1.75,0.38c-0.6,0.16-1.15,0.33-1.67,0.53
					C320.7,697.26,320.7,696.3,320.7,694.4z M325.84,720.03c-0.01-0.42,0.08-0.8,0.25-1.16c0.17-0.36,0.41-0.67,0.73-0.94
					c0.31-0.27,0.67-0.49,1.07-0.65c0.41-0.16,0.85-0.25,1.33-0.25c0.48-0.01,0.93,0.06,1.34,0.21c0.41,0.15,0.78,0.35,1.09,0.61
					c0.32,0.26,0.57,0.57,0.76,0.92c0.19,0.35,0.29,0.73,0.3,1.15c0.01,0.42-0.07,0.8-0.24,1.16c-0.17,0.36-0.41,0.68-0.72,0.95
					c-0.31,0.28-0.67,0.5-1.08,0.66c-0.41,0.16-0.86,0.25-1.35,0.26c-0.49,0.01-0.94-0.06-1.35-0.21c-0.42-0.15-0.78-0.35-1.1-0.62
					c-0.32-0.27-0.57-0.57-0.75-0.93C325.94,720.83,325.85,720.45,325.84,720.03z"/>
				<path class="st0" d="M344.04,712.86c-0.42,0.02-0.77,0.02-1.03-0.01c-0.27-0.03-0.48-0.1-0.65-0.21
					c-0.16-0.12-0.28-0.29-0.34-0.52c-0.06-0.23-0.1-0.54-0.12-0.94c-0.03-0.65-0.04-0.97-0.07-1.62c-0.01-0.29-0.01-0.54,0-0.75
					c0.02-0.21,0.09-0.38,0.21-0.53c0.12-0.14,0.32-0.25,0.59-0.33c0.27-0.07,0.66-0.12,1.16-0.15c2.49-0.12,3.74-0.19,6.23-0.34
					c-0.69-11.23-1.04-16.85-1.74-28.08c2.56-0.16,3.84-0.25,6.41-0.44c1.01,13.24,1.51,19.86,2.52,33.09
					C351.95,712.44,349.31,712.6,344.04,712.86z"/>
				<path class="st0" d="M361.1,678.43c2.56-0.23,3.84-0.35,6.39-0.62c1.38,13.21,2.07,19.81,3.46,33.01
					c-2.74,0.29-4.12,0.42-6.86,0.67C362.89,698.27,362.29,691.66,361.1,678.43z"/>
				<path class="st0" d="M410.73,696.92c0.11,0.54,0.22,0.99,0.35,1.33c0.13,0.34,0.3,0.61,0.53,0.79c0.22,0.18,0.5,0.29,0.84,0.32
					c0.33,0.03,0.77-0.01,1.3-0.11c0.74-0.15,1.12-0.22,1.86-0.37c0.48-0.1,0.87-0.14,1.15-0.14c0.29,0,0.51,0.06,0.67,0.17
					c0.16,0.11,0.27,0.26,0.34,0.46c0.07,0.2,0.13,0.44,0.19,0.73c0.13,0.63,0.2,0.95,0.33,1.58c0.08,0.39,0.12,0.71,0.11,0.94
					c-0.01,0.24-0.08,0.43-0.21,0.58c-0.13,0.15-0.32,0.27-0.58,0.36c-0.25,0.09-0.59,0.18-1.01,0.26c-1.22,0.25-1.83,0.37-3.05,0.6
					c-1.18,0.23-2.22,0.34-3.1,0.35c-0.88,0-1.65-0.08-2.3-0.23c-0.65-0.16-1.2-0.38-1.64-0.66c-0.45-0.29-0.82-0.62-1.12-0.98
					c-1.03,0.72-2.07,1.27-3.09,1.67c-1.02,0.39-2.12,0.69-3.29,0.88c-1.17,0.19-2.38,0.24-3.62,0.15c-1.25-0.09-2.4-0.37-3.46-0.81
					c-1.06-0.45-1.97-1.1-2.72-1.95c-0.75-0.85-1.22-1.93-1.4-3.24c-0.16-1.16-0.06-2.24,0.32-3.25c0.38-1.01,0.94-1.95,1.69-2.83
					c0.74-0.87,1.62-1.68,2.62-2.43c1-0.75,2.05-1.43,3.15-2.05c1.1-0.62,2.2-1.18,3.31-1.68c1.1-0.5,2.12-0.94,3.05-1.33
					c-0.18-1.03-0.27-1.54-0.46-2.57c2.57-0.46,3.86-0.69,6.43-1.19C409.04,688.13,409.6,691.06,410.73,696.92z M402.76,690.64
					c-1.4,0.53-2.66,1.08-3.76,1.65c-1.11,0.57-2.04,1.16-2.81,1.78c-0.76,0.62-1.32,1.26-1.68,1.93s-0.48,1.37-0.37,2.1
					c0.09,0.59,0.3,1.07,0.64,1.44c0.33,0.37,0.73,0.65,1.19,0.83c0.46,0.18,0.97,0.29,1.52,0.3c0.55,0.02,1.1-0.01,1.63-0.1
					c0.98-0.16,1.91-0.44,2.78-0.84c0.87-0.4,1.61-0.86,2.23-1.37C403.58,695.27,403.31,693.72,402.76,690.64z M392.69,678.87
					c-0.07-0.41-0.04-0.8,0.06-1.18s0.28-0.72,0.53-1.03c0.24-0.31,0.54-0.58,0.89-0.79c0.35-0.21,0.75-0.36,1.19-0.43
					c0.44-0.07,0.86-0.07,1.26,0.02c0.4,0.09,0.77,0.24,1.1,0.46c0.33,0.22,0.61,0.48,0.84,0.8c0.22,0.32,0.37,0.69,0.44,1.1
					c0.07,0.41,0.05,0.8-0.05,1.18c-0.1,0.38-0.28,0.72-0.52,1.04c-0.24,0.32-0.54,0.58-0.89,0.8c-0.35,0.22-0.75,0.36-1.2,0.44
					c-0.45,0.07-0.87,0.07-1.28-0.02c-0.41-0.09-0.78-0.24-1.11-0.46c-0.33-0.22-0.61-0.49-0.83-0.81
					C392.9,679.65,392.76,679.28,392.69,678.87z M400.09,677.63c-0.07-0.41-0.06-0.8,0.04-1.18c0.1-0.38,0.27-0.72,0.51-1.04
					c0.24-0.32,0.53-0.58,0.88-0.8c0.35-0.22,0.74-0.37,1.18-0.45c0.44-0.08,0.86-0.08,1.26,0c0.4,0.08,0.77,0.23,1.11,0.44
					c0.34,0.21,0.62,0.47,0.85,0.79c0.23,0.32,0.38,0.68,0.46,1.09c0.08,0.41,0.07,0.8-0.03,1.18c-0.1,0.38-0.27,0.73-0.5,1.05
					c-0.24,0.32-0.53,0.59-0.88,0.81c-0.35,0.22-0.75,0.37-1.2,0.46c-0.45,0.08-0.87,0.08-1.28,0c-0.41-0.08-0.78-0.23-1.11-0.45
					c-0.34-0.21-0.62-0.48-0.84-0.8C400.31,678.4,400.16,678.04,400.09,677.63z"/>
				<path class="st0" d="M416.45,684.44c1.1-0.56,2.21-1.09,3.32-1.57c1.11-0.49,2.4-0.89,3.86-1.22c1.44-0.33,2.76-0.43,3.97-0.31
					c1.2,0.12,2.28,0.42,3.25,0.91c0.96,0.49,1.81,1.14,2.54,1.96c0.72,0.82,1.34,1.77,1.81,2.84c0.39,0.88,0.76,1.73,1.13,2.54
					c0.37,0.8,0.74,1.51,1.11,2.1c0.37,0.6,0.74,1.06,1.12,1.37c0.38,0.32,0.77,0.42,1.18,0.32c0.96-0.25,1.44-0.37,2.4-0.62
					c0.48-0.12,0.86-0.19,1.15-0.21c0.29-0.01,0.51,0.03,0.68,0.13c0.16,0.1,0.28,0.25,0.36,0.44c0.08,0.19,0.16,0.43,0.23,0.72
					c0.17,0.62,0.25,0.94,0.42,1.56c0.1,0.39,0.16,0.7,0.17,0.94c0.01,0.24-0.05,0.44-0.17,0.6c-0.12,0.16-0.31,0.29-0.56,0.4
					c-0.25,0.11-0.58,0.21-0.99,0.32c-10.75,2.81-16.15,4.05-27.01,6.24c-0.42,0.08-0.76,0.13-1.03,0.15
					c-0.27,0.01-0.49-0.02-0.67-0.11c-0.18-0.09-0.32-0.24-0.41-0.46c-0.1-0.22-0.18-0.52-0.26-0.91c-0.13-0.63-0.19-0.95-0.31-1.59
					c-0.06-0.29-0.09-0.53-0.11-0.74c-0.01-0.21,0.03-0.39,0.13-0.56c0.1-0.16,0.28-0.3,0.53-0.41c0.26-0.11,0.63-0.22,1.13-0.32
					c6.79-1.37,10.18-2.11,16.93-3.72c-0.32-0.35-0.64-0.77-0.98-1.26c-0.33-0.49-0.62-1.01-0.86-1.55c-0.34-0.8-0.7-1.61-1.09-2.4
					c-0.39-0.79-0.86-1.48-1.4-2.06c-0.54-0.58-1.18-1-1.92-1.28c-0.73-0.27-1.62-0.29-2.66-0.06c-0.35,0.08-0.77,0.2-1.27,0.35
					c-0.49,0.16-1.01,0.34-1.55,0.55c-0.54,0.21-1.09,0.46-1.65,0.73c-0.56,0.28-1.07,0.57-1.53,0.87
					C417.03,687.23,416.84,686.3,416.45,684.44z"/>
				<path class="st0" d="M447.18,686.45c-0.37-1.35-0.44-2.69-0.2-4.02c0.24-1.33,0.74-2.57,1.5-3.72c0.75-1.15,1.75-2.17,2.97-3.07
					c1.23-0.9,2.65-1.58,4.25-2.07c1.59-0.48,3.07-0.71,4.46-0.67c1.39,0.03,2.64,0.31,3.77,0.84c1.13,0.53,2.12,1.29,2.97,2.3
					c0.85,1.01,1.52,2.24,2,3.71c1.25,3.79,1.87,5.69,3.11,9.48c-11.4,3.74-17.15,5.43-28.71,8.44c-0.41,0.11-0.76,0.18-1.05,0.21
					c-0.29,0.03-0.52,0.01-0.72-0.07c-0.19-0.08-0.35-0.22-0.48-0.43c-0.13-0.21-0.24-0.5-0.34-0.89c-0.16-0.63-0.24-0.94-0.4-1.57
					c-0.07-0.28-0.11-0.53-0.12-0.74c-0.01-0.21,0.04-0.4,0.14-0.57c0.1-0.17,0.28-0.32,0.55-0.45c0.26-0.13,0.64-0.26,1.14-0.39
					c3.14-0.82,4.7-1.24,7.83-2.11c-0.54-0.44-1.06-1.04-1.57-1.79S447.42,687.31,447.18,686.45z M463.88,686.52
					c-0.47-1.52-0.71-2.28-1.18-3.79c-0.33-1.07-0.74-1.93-1.21-2.57c-0.47-0.64-0.98-1.12-1.52-1.43c-0.54-0.31-1.1-0.47-1.69-0.5
					c-0.59-0.02-1.16,0.05-1.72,0.22c-0.63,0.19-1.19,0.48-1.67,0.89c-0.49,0.4-0.87,0.87-1.15,1.41c-0.28,0.54-0.46,1.14-0.53,1.79
					c-0.07,0.66,0,1.34,0.2,2.05c0.2,0.7,0.52,1.29,0.96,1.79c0.44,0.5,0.97,0.88,1.59,1.15c0.62,0.27,1.32,0.4,2.11,0.41
					c0.78,0.01,1.63-0.13,2.54-0.4C461.91,687.13,462.57,686.93,463.88,686.52z M450.51,667c-0.12-0.4-0.15-0.79-0.08-1.18
					c0.06-0.39,0.19-0.75,0.4-1.09c0.2-0.34,0.47-0.64,0.79-0.9c0.32-0.26,0.7-0.45,1.13-0.58c0.43-0.13,0.85-0.18,1.27-0.14
					c0.41,0.03,0.8,0.14,1.16,0.31c0.36,0.17,0.67,0.4,0.94,0.69c0.26,0.29,0.46,0.63,0.58,1.03c0.12,0.4,0.16,0.79,0.1,1.18
					c-0.06,0.39-0.19,0.76-0.39,1.1c-0.2,0.34-0.47,0.65-0.79,0.91c-0.33,0.26-0.71,0.46-1.15,0.59c-0.44,0.13-0.86,0.18-1.28,0.15
					c-0.42-0.04-0.81-0.14-1.17-0.31c-0.36-0.17-0.67-0.41-0.93-0.7C450.82,667.74,450.63,667.4,450.51,667z"/>
				<path class="st0" d="M467.33,655.82c2.46-0.84,3.68-1.27,6.13-2.15c3.27,9.12,4.91,13.68,8.19,22.81
					c0.26,0.72,0.54,1.3,0.83,1.73c0.3,0.43,0.61,0.73,0.95,0.92c0.34,0.19,0.72,0.27,1.13,0.24c0.41-0.03,0.87-0.13,1.37-0.31
					c0.49-0.18,0.73-0.27,1.22-0.45c0.46-0.17,0.84-0.28,1.13-0.32c0.29-0.04,0.52-0.02,0.69,0.06c0.17,0.08,0.31,0.22,0.41,0.4
					c0.1,0.19,0.2,0.42,0.3,0.69c0.23,0.61,0.34,0.91,0.57,1.51c0.14,0.38,0.23,0.68,0.26,0.92c0.03,0.24-0.01,0.44-0.12,0.61
					c-0.11,0.17-0.28,0.32-0.52,0.45c-0.24,0.13-0.56,0.27-0.96,0.42c-1.13,0.42-1.69,0.62-2.82,1.03
					c-1.41,0.51-2.69,0.77-3.81,0.77c-1.13,0.01-2.12-0.2-2.99-0.6c-0.87-0.41-1.61-1.01-2.22-1.8c-0.61-0.79-1.1-1.73-1.47-2.81
					C472.29,670.29,470.64,665.47,467.33,655.82z"/>
				<path class="st0" d="M488.8,683.38c-0.4,0.15-0.74,0.25-1,0.31c-0.27,0.06-0.5,0.05-0.69-0.01c-0.19-0.06-0.35-0.19-0.48-0.39
					c-0.13-0.2-0.26-0.49-0.4-0.86c-0.22-0.61-0.33-0.91-0.55-1.52c-0.1-0.27-0.17-0.51-0.22-0.72c-0.04-0.21-0.03-0.39,0.05-0.57
					c0.08-0.17,0.23-0.34,0.47-0.49c0.24-0.15,0.6-0.32,1.08-0.49c3.04-1.12,4.56-1.7,7.58-2.87c0.99-0.39,1.78-0.77,2.36-1.15
					c0.59-0.38,1.01-0.76,1.29-1.15c0.27-0.38,0.41-0.77,0.42-1.16c0.01-0.39-0.07-0.79-0.24-1.21c-0.24-0.6-0.7-1.13-1.37-1.58
					c-0.67-0.45-1.54-0.85-2.61-1.19c-1.07-0.34-2.32-0.63-3.76-0.89c-1.44-0.25-3.04-0.49-4.81-0.71
					c1.83-7.87,2.66-11.8,4.16-19.65c2.19,0.33,3.29,0.49,5.49,0.79c-0.97,5.67-1.49,8.5-2.62,14.18c1.6,0.34,3.03,0.7,4.29,1.09
					c1.26,0.39,2.35,0.84,3.29,1.36c0.94,0.52,1.74,1.12,2.38,1.8c0.65,0.68,1.16,1.48,1.55,2.41c0.22,0.53,0.38,1.05,0.48,1.58
					c1.02,0.04,2.09-0.07,3.21-0.34c1.12-0.27,2.26-0.65,3.4-1.14c0.08-0.03,0.12-0.05,0.2-0.09c0.46-0.2,0.83-0.33,1.11-0.38
					c0.29-0.06,0.52-0.05,0.7,0.02c0.18,0.07,0.32,0.2,0.43,0.38c0.11,0.18,0.22,0.4,0.34,0.67c0.26,0.59,0.39,0.89,0.65,1.48
					c0.16,0.37,0.26,0.67,0.31,0.9c0.04,0.23,0.01,0.44-0.08,0.62c-0.1,0.18-0.26,0.34-0.5,0.48c-0.23,0.14-0.55,0.3-0.94,0.47
					c-0.11,0.05-0.16,0.07-0.27,0.12c-1.92,0.83-3.62,1.3-5.1,1.41c-1.48,0.11-2.82,0.01-4.03-0.29c-0.54,1.07-1.4,2.09-2.57,3.04
					c-1.17,0.95-2.74,1.82-4.71,2.59C493.77,681.53,492.12,682.16,488.8,683.38z"/>
				<path class="st0" d="M530.93,665.81c-1.16,0.55-2.23,0.96-3.21,1.22c-0.98,0.26-1.9,0.42-2.76,0.49
					c-0.85,0.07-1.63,0.05-2.34-0.04c-0.7-0.09-1.35-0.21-1.95-0.34c-0.64,2.4-2.36,4.24-5.17,5.47c-0.78,0.34-1.17,0.51-1.95,0.85
					c-0.4,0.17-0.73,0.29-0.99,0.36c-0.26,0.07-0.49,0.08-0.69,0.03c-0.2-0.05-0.36-0.17-0.5-0.36c-0.14-0.19-0.29-0.47-0.45-0.84
					c-0.26-0.59-0.38-0.89-0.64-1.49c-0.12-0.27-0.2-0.5-0.26-0.71c-0.06-0.2-0.05-0.39,0.02-0.57c0.07-0.18,0.22-0.35,0.44-0.52
					c0.23-0.17,0.58-0.35,1.06-0.56c0.47-0.2,0.71-0.31,1.17-0.51c0.8-0.35,1.42-0.84,1.86-1.47c0.44-0.63,0.62-1.4,0.56-2.29
					c-0.23-2.65-0.16-4.9,0.21-6.77c0.37-1.87,0.9-3.42,1.61-4.67c0.71-1.25,1.5-2.24,2.39-2.98c0.89-0.74,1.74-1.3,2.56-1.69
					c1.16-0.55,2.27-0.93,3.36-1.12c1.08-0.2,2.12-0.25,3.1-0.17c0.98,0.08,1.9,0.28,2.76,0.61c0.86,0.33,1.64,0.74,2.36,1.23
					s1.34,1.05,1.89,1.68c0.55,0.63,0.99,1.28,1.33,1.95c0.55,1.07,0.86,2.21,0.93,3.42c0.07,1.21-0.12,2.41-0.57,3.6
					c-0.45,1.19-1.18,2.32-2.19,3.4C533.86,664.11,532.54,665.04,530.93,665.81z M530.91,655.44c-0.24-0.48-0.6-0.96-1.08-1.41
					c-0.48-0.46-1.05-0.83-1.69-1.11c-0.65-0.28-1.36-0.44-2.12-0.47c-0.77-0.03-1.54,0.14-2.33,0.52c-0.76,0.36-1.36,0.9-1.81,1.61
					c-0.45,0.71-0.77,1.52-0.96,2.43c-0.19,0.9-0.27,1.88-0.25,2.92c0.02,1.04,0.14,2.06,0.35,3.07c0.29,0.08,0.7,0.12,1.23,0.12
					c0.53-0.01,1.1-0.06,1.73-0.15c0.62-0.1,1.25-0.23,1.89-0.41c0.64-0.17,1.22-0.39,1.76-0.64c0.79-0.38,1.47-0.79,2.05-1.25
					c0.57-0.46,1.02-0.95,1.32-1.49c0.31-0.54,0.46-1.11,0.45-1.73S531.26,656.16,530.91,655.44z"/>
				<path class="st0" d="M566.03,646.84c-1.53,0.89-3,1.49-4.42,1.77c-1.42,0.29-2.73,0.33-3.93,0.11c-1.2-0.22-2.27-0.66-3.22-1.34
					c-0.94-0.67-1.7-1.53-2.27-2.57c-0.63-1.13-1.06-2.26-1.3-3.38c-0.24-1.12-0.32-2.2-0.26-3.23c0.07-1.03,0.26-2.03,0.6-2.97
					c0.33-0.95,0.75-1.82,1.26-2.63c0.51-0.81,1.08-1.52,1.73-2.16c0.64-0.63,1.33-1.16,2.05-1.59c1.13-0.66,2.38-1.13,3.77-1.39
					c1.38-0.26,2.78-0.25,4.19,0.03c1.41,0.28,2.79,0.88,4.14,1.8c1.35,0.91,2.55,2.21,3.6,3.9c0.58,0.94,0.94,1.99,1.05,3.14
					c0.11,1.15-0.02,2.31-0.4,3.49c-0.38,1.17-1.02,2.31-1.92,3.41c-0.91,1.1-2.06,2.07-3.48,2.91
					C566.74,646.42,566.5,646.56,566.03,646.84z M546.09,626.45c-0.21-0.36-0.32-0.74-0.34-1.13c-0.03-0.39,0.02-0.78,0.15-1.16
					c0.13-0.38,0.32-0.74,0.59-1.07c0.26-0.33,0.6-0.61,1-0.84c0.4-0.23,0.81-0.38,1.22-0.44c0.42-0.06,0.82-0.05,1.22,0.03
					c0.39,0.08,0.76,0.23,1.08,0.45c0.32,0.22,0.59,0.51,0.8,0.87c0.21,0.36,0.33,0.73,0.36,1.13c0.03,0.39-0.02,0.78-0.14,1.17
					c-0.13,0.38-0.32,0.74-0.59,1.08c-0.27,0.33-0.6,0.62-1.01,0.85c-0.4,0.23-0.82,0.38-1.24,0.44c-0.42,0.06-0.83,0.05-1.22-0.03
					c-0.4-0.08-0.76-0.24-1.08-0.46C546.56,627.1,546.29,626.81,546.09,626.45z M557.4,641.01c0.73,1.27,1.66,1.99,2.8,2.15
					s2.38-0.15,3.7-0.93c0.2-0.12,0.3-0.17,0.49-0.29c0.62-0.37,1.11-0.79,1.46-1.27c0.35-0.48,0.57-0.97,0.67-1.49
					c0.1-0.52,0.09-1.04-0.03-1.58c-0.12-0.54-0.34-1.06-0.64-1.56c-0.55-0.91-1.15-1.64-1.81-2.19c-0.66-0.55-1.32-0.93-1.99-1.17
					c-0.66-0.23-1.3-0.33-1.91-0.29c-0.61,0.04-1.14,0.19-1.58,0.45c-0.55,0.32-1.01,0.75-1.4,1.28c-0.39,0.53-0.65,1.15-0.8,1.85
					c-0.14,0.71-0.14,1.48,0.01,2.33C556.51,639.16,556.85,640.06,557.4,641.01z M552.79,622.58c-0.21-0.36-0.33-0.73-0.36-1.13
					c-0.03-0.39,0.01-0.78,0.13-1.17c0.12-0.38,0.31-0.74,0.57-1.08c0.26-0.33,0.59-0.62,0.98-0.86c0.4-0.24,0.8-0.39,1.22-0.46
					c0.42-0.07,0.82-0.07,1.22,0.01c0.4,0.07,0.76,0.22,1.09,0.43c0.33,0.21,0.6,0.5,0.82,0.85c0.22,0.36,0.34,0.73,0.38,1.12
					c0.04,0.39-0.01,0.78-0.13,1.17c-0.12,0.39-0.31,0.75-0.57,1.09c-0.26,0.34-0.59,0.63-1,0.87c-0.4,0.24-0.81,0.4-1.23,0.47
					c-0.42,0.07-0.83,0.07-1.23-0.01c-0.4-0.08-0.76-0.22-1.09-0.44C553.27,623.22,553,622.94,552.79,622.58z"/>
				<path class="st0" d="M580.77,643.05c1.22-1.08,2.15-2.06,2.77-2.93c0.63-0.87,1.01-1.71,1.15-2.51c0.14-0.8,0.07-1.59-0.2-2.37
					c-0.28-0.78-0.71-1.63-1.3-2.53c-3.47-5.35-5.2-8.02-8.67-13.37c2.31-1.5,3.46-2.26,5.75-3.79c3.28,4.9,4.92,7.35,8.2,12.25
					c1.24,1.86,2.09,3.59,2.55,5.2c0.46,1.61,0.51,3.18,0.16,4.71c-0.35,1.53-1.1,3.04-2.26,4.54c-1.15,1.5-2.71,3.07-4.67,4.68
					C582.86,645.38,582.16,644.6,580.77,643.05z"/>
				<path class="st0" d="M577.9,599.95c2.21-1.53,3.3-2.3,5.49-3.86c7.71,10.81,11.56,16.22,19.27,27.03
					c-2.35,1.68-3.53,2.51-5.89,4.14C589.22,616.33,585.44,610.87,577.9,599.95z"/>
				<path class="st0" d="M606.45,620.35c-1.19-1.64-1.79-2.45-2.98-4.09c3.41-2.49,5.11-3.75,8.48-6.32
					c0.88-0.67,1.55-1.27,2.01-1.81c0.46-0.53,0.76-1.01,0.89-1.44c0.13-0.43,0.14-0.82,0.03-1.18c-0.12-0.36-0.3-0.7-0.56-1.03
					c-0.45-0.58-1.16-1.05-2.1-1.41c-0.95-0.36-2.03-0.62-3.25-0.8c-1.22-0.18-2.52-0.29-3.9-0.33c-1.38-0.04-2.73-0.04-4.05,0.01
					c0.59-2.57,0.88-3.86,1.44-6.42c4.25-0.14,7.84,0.11,10.74,0.8c2.9,0.69,5.03,1.84,6.35,3.49c0.7,0.88,1.2,1.84,1.49,2.9
					c0.29,1.06,0.29,2.2-0.02,3.41c-0.3,1.21-0.94,2.49-1.92,3.82c-0.98,1.33-2.38,2.7-4.2,4.09
					C611.54,616.61,609.85,617.87,606.45,620.35z"/>
				<path class="st0" d="M639.61,602.26c-0.26,0.16-0.59,0.38-0.99,0.66c-0.4,0.28-0.72,0.52-0.97,0.73
					c-0.46,0.39-0.78,0.79-0.93,1.19c-0.16,0.4-0.07,0.81,0.27,1.21c0.34,0.4,0.84,0.57,1.53,0.51c0.68-0.06,1.48-0.47,2.39-1.24
					c0.51-0.43,0.76-0.65,1.27-1.08c0.73,0.85,1.09,1.28,1.82,2.12c-3.27,2.79-4.92,4.17-8.23,6.88c-0.71-0.87-1.06-1.3-1.77-2.16
					c0.87-0.71,1.3-1.07,2.17-1.78c-0.43-0.04-0.89-0.16-1.37-0.34c-0.48-0.18-0.88-0.46-1.19-0.84c-0.29-0.36-0.5-0.77-0.61-1.25
					c-0.11-0.48-0.09-1,0.05-1.57c0.14-0.57,0.43-1.16,0.85-1.79c0.42-0.63,1.02-1.26,1.79-1.9c0.33-0.28,0.7-0.57,1.09-0.88
					c0.4-0.3,0.88-0.64,1.44-1C638.76,600.74,639.04,601.25,639.61,602.26z M608.46,576.83c2.1-1.73,3.15-2.61,5.23-4.37
					c8.59,10.12,12.89,15.18,21.49,25.3c-2.23,1.9-3.35,2.84-5.61,4.7C621.12,592.2,616.9,587.08,608.46,576.83z"/>
			</g>
		</g>
	</g>
</g>
</svg>
