<svg id="Layer_1" data-name="Layer 1" xmlns="http://www.w3.org/2000/svg" xmlns:xlink="http://www.w3.org/1999/xlink" viewBox="0 0 104 104"><defs><style>.cls-1,.cls-3,.cls-5{fill:none;stroke:#fff;stroke-miterlimit:10;}.cls-2{fill:#fff;}.cls-3{stroke-width:0.5px;}.cls-4{clip-path:url(#clip-path);}.cls-5{stroke-width:0.1px;}</style><clipPath id="clip-path"><path class="cls-1" d="M61.21,58A6.79,6.79,0,1,1,68,64.88,6.78,6.78,0,0,1,61.21,58v0m-1.09,0A7.88,7.88,0,1,0,68,50a8,8,0,0,0-7.88,8h0"/></clipPath></defs><title>renew</title><rect class="cls-1" x="2.16" y="1.82" width="100" height="100" rx="50"/><rect class="cls-1" x="17.63" y="29.07" width="69.06" height="45.5" rx="3.13"/><line class="cls-1" x1="44.75" y1="58.99" x2="36.68" y2="58.99"/><line class="cls-1" x1="44.75" y1="61.35" x2="40.16" y2="61.35"/><line class="cls-1" x1="44.8" y1="64.35" x2="38.44" y2="64.35"/><line class="cls-1" x1="44.75" y1="67.5" x2="29.44" y2="67.5"/><line class="cls-1" x1="17.48" y1="37.31" x2="86.36" y2="37.31"/><path class="cls-2" d="M34.24,54.7l1.61,1.73a9.61,9.61,0,1,1,3.75-7.6h2.74l-4.21,4.58-4.07-4.54h3c.52-2.06-1.5-5.36-3.93-6.52A7.29,7.29,0,1,0,34.24,54.7Z"/><path class="cls-3" d="M80.48,45.93l-3.37,2.79A13.18,13.18,0,1,1,59,48.8l-3.42-2.7a16,16,0,1,0,24.9-.17"/><path class="cls-3" d="M80.71,46.27a16.29,16.29,0,0,1,3.22,10.38,26.18,26.18,0,0,1-.65,4.09c-.71,2.14-2.25,6.43-8.36,9.65,0,0,8-4.51,8.29-12.85a15.84,15.84,0,0,0-1.91-8Z"/><path class="cls-3" d="M77.49,49.16c3.85,3.64,3.94,9.19,3.94,9.19a12.85,12.85,0,0,1-1.93,7,13.3,13.3,0,0,1-11.41,6.48A10.63,10.63,0,0,0,76,69.6,14,14,0,0,0,82.18,59a13.85,13.85,0,0,0-2-8.46l-3-1.66Z"/><path class="cls-3" d="M54.92,58.52A13.19,13.19,0,1,0,68.1,45.22a13.24,13.24,0,0,0-13.18,13.3"/><path class="cls-3" d="M81.29,58.52A13.19,13.19,0,1,1,68.1,45.22,13.32,13.32,0,0,1,81.29,58.52Z"/><path class="cls-3" d="M84.13,56a16,16,0,1,1-16-16A16,16,0,0,1,84.13,56Z"/><line class="cls-3" x1="81.29" y1="49.47" x2="80.25" y2="50.54"/><path class="cls-3" d="M68.89,72A16,16,0,0,1,55.72,45.93"/><path class="cls-3" d="M62.23,70.35a13,13,0,0,0,6.66,1.37"/><path class="cls-3" d="M55.5,46.27a16.26,16.26,0,0,0-3.23,10.38,25,25,0,0,0,.66,4.09c.7,2.14,2.24,6.43,8.35,9.65,0,0-8-4.51-8.29-12.85a15.84,15.84,0,0,1,1.91-8Z"/><path class="cls-3" d="M68.12,71.82a10.66,10.66,0,0,1-7.89-2.22A14,14,0,0,1,54,59a13.85,13.85,0,0,1,2-8.46L59,48.84"/><line class="cls-3" x1="54.91" y1="49.47" x2="55.95" y2="50.54"/><path class="cls-3" d="M68,50a8,8,0,1,0,7.87,8.14.57.57,0,0,0,0-.13A8,8,0,0,0,68,50h0m0,14.9a6.9,6.9,0,1,1,6.77-7V58A6.85,6.85,0,0,1,68,64.88"/><path class="cls-3" d="M68,66.07A8.09,8.09,0,1,1,76,57.83.76.76,0,0,1,76,58,8,8,0,0,1,68,66.07h0m0-16a7.93,7.93,0,1,0,7.77,8.07.61.61,0,0,0,0-.14A7.87,7.87,0,0,0,68,50.06M68,65a7,7,0,1,1,6.87-7.08V58A6.92,6.92,0,0,1,68,65m0-13.8a6.82,6.82,0,1,0,6.67,7V58A6.77,6.77,0,0,0,68,51.16"/><path class="cls-3" d="M69.27,55.94a.23.23,0,0,1,.2.26v2.08a.25.25,0,0,1-.14.24.29.29,0,0,1,.14.28v2.35H66.58V58.8a.3.3,0,0,1,.15-.28.25.25,0,0,1-.15-.24V56.21a.24.24,0,0,1,.21-.26c-.12,0-.21-.14-.21-.3V53.32h2.89v2.32C69.47,55.8,69.39,55.93,69.27,55.94Z"/><path class="cls-1" d="M69.27,55.94a.23.23,0,0,1,.2.26v2.08a.25.25,0,0,1-.14.24.29.29,0,0,1,.14.28v2.35H66.58V58.8a.3.3,0,0,1,.15-.28.25.25,0,0,1-.15-.24V56.21a.24.24,0,0,1,.21-.26c-.12,0-.21-.14-.21-.3V53.32h2.89v2.32c0,.16-.08.29-.2.3"/><path class="cls-3" d="M68,55.77a.88.88,0,1,1,.85-.9h0a.88.88,0,0,1-.84.9h0M68,54a.87.87,0,1,0,.84.9v-.06A.87.87,0,0,0,68,54"/><path class="cls-3" d="M68,55.77a.88.88,0,1,0-.89-.9.88.88,0,0,0,.89.9h0"/><path class="cls-3" d="M68,58.21a.88.88,0,1,1,0-1.75.89.89,0,0,1,.88.87h0a.87.87,0,0,1-.87.87m0-1.74a.87.87,0,1,0,.86.88h0a.86.86,0,0,0-.84-.89h0"/><path class="cls-3" d="M68,58.21a.87.87,0,1,0-.87-.87h0a.87.87,0,0,0,.87.87"/><path class="cls-3" d="M68,60.62a.88.88,0,1,1,.87-.88h0a.87.87,0,0,1-.87.87m0-1.74a.87.87,0,1,0,.86.87h0a.86.86,0,0,0-.86-.86"/><path class="cls-3" d="M68,60.62a.88.88,0,1,0-.87-.88h0a.87.87,0,0,0,.87.87"/><path class="cls-3" d="M68.75,62H67.18v-.85h1.55V62h0m-1.57,0h1.59v-.7H67.16Z"/><rect class="cls-3" x="67.16" y="61.3" width="1.6" height="0.73"/><path class="cls-3" d="M68.61,64.92H67.47V62h1.12v2.84h0m-1.14,0h1.16V62H67.45Z"/><rect class="cls-3" x="67.45" y="62.02" width="1.16" height="2.9"/><path class="cls-3" d="M68.75,53.18H67.18v-.54h1.55v.53h0M67.31,53h1.44v-.43H67.31Z"/><rect class="cls-1" x="67.16" y="52.6" width="1.6" height="0.43"/><rect class="cls-3" x="67.16" y="53.03" width="1.6" height="0.29"/><path class="cls-3" d="M61.44,58.21c.49.37,1,.76,1.45,1.13v-.56h.6c.19,0,.18.23.18.45V62h1.07V58.32c0-.5-.42-.74-.93-.78h-.94V57l-1.42,1.23"/><path class="cls-3" d="M74.77,58.21c-.49.37-1,.76-1.45,1.13v-.56h-.63c-.19,0-.18.23-.17.45V62H71.44V58.32c0-.5.42-.74.93-.78h.94V57l1.45,1.23"/><path class="cls-3" d="M68,50a8,8,0,1,0,7.87,8.14.57.57,0,0,0,0-.13A8,8,0,0,0,68,50h0m0,14.9a6.9,6.9,0,1,1,6.77-7V58A6.85,6.85,0,0,1,68,64.88"/><g class="cls-4"><path class="cls-3" d="M68,66a7.82,7.82,0,0,1-5.58-2.35,8.09,8.09,0,0,1,0-11.33,7.83,7.83,0,0,1,11.19,0,8.27,8.27,0,0,1,1.64,8.79,8,8,0,0,1-1.7,2.55A7.78,7.78,0,0,1,68,66m0-16a8,8,0,1,0,7.86,8.16V58A7.93,7.93,0,0,0,68,50"/><path class="cls-3" d="M68,50a8,8,0,1,0,7.87,8.14.57.57,0,0,0,0-.13A8,8,0,0,0,68,50h0m0,14.9a6.9,6.9,0,1,1,6.77-7V58A6.85,6.85,0,0,1,68,64.88"/><path class="cls-3" d="M68,71.16a12.5,12.5,0,0,1-5-1,13.1,13.1,0,0,1-6.9-7,13.48,13.48,0,0,1,0-10.25,12.91,12.91,0,0,1,23.9,0,13.44,13.44,0,0,1,0,10.27,13.22,13.22,0,0,1-2.78,4.19,12.93,12.93,0,0,1-4.12,2.82,12.59,12.59,0,0,1-5,1m0-26.3A13.16,13.16,0,1,0,80.88,57.72,13.16,13.16,0,0,0,68,44.86"/><rect class="cls-3" x="60.26" y="63.08" width="6.09" height="1.8" transform="translate(-25.41 79.16) rotate(-55.01)"/><rect class="cls-3" x="64.24" y="64.06" width="6.09" height="1.8" transform="translate(-1.38 128.45) rotate(-86.75)"/><rect class="cls-3" x="65.92" y="48.92" width="6.09" height="1.72" transform="translate(11.27 112.27) rotate(-83.11)"/><path class="cls-3" d="M69.46,52.92h0l-1.71-.21h0l.73-6.05h0l1.72.2h0Zm-1.7-.23,1.68.2.73-6-1.68-.22Z"/><rect class="cls-3" x="64.16" y="47.39" width="1.72" height="6.09" transform="translate(-14.34 28.69) rotate(-22.48)"/><path class="cls-3" d="M65.38,53.6h0L63.05,48h0l1.6-.67h0L67,52.93h0ZM63.08,48l2.32,5.58L67,52.87l-2.32-5.61Z"/><rect class="cls-3" x="60.91" y="49.86" width="1.72" height="6.09" transform="translate(-18.66 64.98) rotate(-49.12)"/><path class="cls-3" d="M63.5,55.54h0l-4.6-4L60,50.2h0l4.61,4Zm-4.58-4,4.58,4,1.11-1.29-4.6-4Z"/><rect class="cls-3" x="59.34" y="53.77" width="1.72" height="6.09" transform="matrix(0.14, -0.99, 0.99, 0.14, -4.58, 108.34)"/><path class="cls-3" d="M63.1,58.1h0l-6-.86.21-1.7h0l6,.87h0Zm-6-.88,6,.86.25-1.68-6-.86Z"/><rect class="cls-3" x="69.6" y="51.11" width="6.09" height="1.72" transform="translate(-15.46 66.67) rotate(-45.05)"/><path class="cls-3" d="M71.1,54.75h0l-1.22-1.21,4.31-4.33h0l1.23,1.22Zm-1.2-1.21,1.2,1.19,4.26-4.3-1.2-1.2Z"/><rect class="cls-3" x="71.74" y="54.53" width="6.09" height="1.72" transform="translate(-13.32 25.42) rotate(-17.74)"/><path class="cls-3" d="M72.14,57.14l-.54-1.65h0l5.81-1.86.53,1.66h0Zm-.51-1.64.52,1.62,5.77-1.85-.52-1.62Z"/><rect class="cls-3" x="69.99" y="61.11" width="1.8" height="6.09" transform="translate(-15.7 23.62) rotate(-17.06)"/><rect class="cls-3" x="72.56" y="59.07" width="1.8" height="6.09" transform="translate(-17.5 93.42) rotate(-59.21)"/><rect class="cls-3" x="74.12" y="55.95" width="1.8" height="6.09" transform="translate(7.22 126.17) rotate(-82.91)"/><rect class="cls-3" x="57.88" y="59.76" width="6.09" height="1.8" transform="translate(-17.64 25.74) rotate(-20.91)"/></g><path class="cls-1" d="M61.21,58A6.79,6.79,0,1,1,68,64.88,6.78,6.78,0,0,1,61.21,58v0m-1.09,0A7.88,7.88,0,1,0,68,50a8,8,0,0,0-7.88,8h0"/><path class="cls-3" d="M61.21,58A6.79,6.79,0,1,1,68,64.88,6.78,6.78,0,0,1,61.21,58v0m-1.09,0A7.88,7.88,0,1,0,68,50a8,8,0,0,0-7.88,8h0"/><path class="cls-5" d="M68,66.61a8.64,8.64,0,1,1,8.4-8.4,8.65,8.65,0,0,1-8.4,8.4m0-17.13a8.5,8.5,0,1,0,8.25,8.26A8.49,8.49,0,0,0,68,49.48"/><path class="cls-5" d="M68,67.05a9.09,9.09,0,1,1,9.08-9.11A9.09,9.09,0,0,1,68,67.05m0-18a8.95,8.95,0,1,0,8.69,8.71A8.94,8.94,0,0,0,68,49"/><path class="cls-5" d="M77.44,55.54,77,55.46a.13.13,0,0,0-.14.07.11.11,0,0,0,0,.15,2.53,2.53,0,0,0,.74.79,3.23,3.23,0,0,0-.58-.24.14.14,0,0,0-.15,0,.17.17,0,0,0,0,.14,1.41,1.41,0,0,0,.61.8l-.26-.07a.16.16,0,0,0-.14,0,.14.14,0,0,0,0,.15,3,3,0,0,0,1.23,1.33.14.14,0,0,0,.15,0,.16.16,0,0,0,.07-.07h.14A2,2,0,0,0,80,57.16a.16.16,0,0,0,0-.15.15.15,0,0,0-.16,0,2.23,2.23,0,0,1-.51.19h0a1.65,1.65,0,0,0,.67-1.28.16.16,0,0,0-.08-.13.12.12,0,0,0-.14,0l-.3.17c-.46.25-1,.55-.93,1.16a2.22,2.22,0,0,0-.64-.58,2.47,2.47,0,0,0,.52.18h0a.16.16,0,0,0,.09,0,.15.15,0,0,0,0-.12v-.09h.05a.14.14,0,0,0,.11-.06,3.71,3.71,0,0,1,.55-.57l.1-.08a1.06,1.06,0,0,0,.37-1.08.13.13,0,0,0-.09-.1.12.12,0,0,0-.14,0l-.32.24-.07.06a2.71,2.71,0,0,0,.32-1.34.13.13,0,0,0-.12-.15.15.15,0,0,0-.13,0l-.24.24a4.89,4.89,0,0,0-.39.4,1.1,1.1,0,0,0-.2.31,2.68,2.68,0,0,0-.89-1.69.14.14,0,0,0-.15,0,.17.17,0,0,0-.1.12,2.29,2.29,0,0,0,.67,1.87l0,.06a3.37,3.37,0,0,0-.76-.31l-.48-.17a.15.15,0,0,0-.18.09.17.17,0,0,0,0,.1,1.6,1.6,0,0,0,1,1.12m1,2.42h0a1.42,1.42,0,0,0-.54-.52l.21.06.24.08h0a.18.18,0,0,0,.09,0,.16.16,0,0,0,.1.08h0a1.42,1.42,0,0,0-.14.36m-.58-2.27H78l.17.06h.05l.09,0a.16.16,0,0,0,.06-.13v-.08h.06a1.18,1.18,0,0,0-.11.5,1,1,0,0,0-.38-.35m.22-.73V55l0-.06h0"/><path class="cls-5" d="M80,58.42a.14.14,0,0,0,0-.15.15.15,0,0,0-.16,0,3.18,3.18,0,0,1-.67.25,1,1,0,0,0-.67.56v0c-.08-.21-.34-.31-.61-.41a2.12,2.12,0,0,1-.48-.23.15.15,0,0,0-.18,0,.14.14,0,0,0,0,.17,2.5,2.5,0,0,0,.66,1,1.42,1.42,0,0,1-.58-.28.15.15,0,0,0-.16,0,.16.16,0,0,0-.08.13c0,.61.51,1,1,1.34h.12v0a.16.16,0,0,0,.08.13h.07a1.65,1.65,0,0,0-.28.41c0-.51-.35-.76-.71-1l-.26-.2a.14.14,0,0,0-.15,0,.16.16,0,0,0-.08.14,2.3,2.3,0,0,0,.31,1.14l-.26-.22a.09.09,0,0,0-.12,0,.12.12,0,0,0-.1.08A2.09,2.09,0,0,0,77,62.88l.1.18a.14.14,0,0,0,.12.07h0a.13.13,0,0,0,.13-.08l0-.11a.11.11,0,0,0,.08,0h.39a1.61,1.61,0,0,0,1.52-.83.15.15,0,0,0,0-.16.17.17,0,0,0-.14-.07,1.65,1.65,0,0,1-.66-.09l.14,0a2,2,0,0,0,1-1,.15.15,0,0,0,0-.13.12.12,0,0,0-.1-.08,1.49,1.49,0,0,0-.36,0,.83.83,0,0,0,.16-.12,1.33,1.33,0,0,0,.46-.83.11.11,0,0,0,0-.13.14.14,0,0,0-.14,0l-.34.09a1.62,1.62,0,0,0,.66-1.06m-1.77,1.65v0c0-.07-.06-.14-.09-.2h.14a.34.34,0,0,0,.06-.06.13.13,0,0,0,.06.07h0a1,1,0,0,0-.22.28V60m-.82,1.72a1.88,1.88,0,0,0,.23.16h.12a.12.12,0,0,0,.07-.07h0a1.92,1.92,0,0,0-.36.44.85.85,0,0,0-.13-.58"/><path class="cls-5" d="M78.58,63l-.15,0a1.66,1.66,0,0,0-.49-.07,1.24,1.24,0,0,0-.33,0,1.22,1.22,0,0,0-.67.42c.11-.32,0-.5-.44-1.08l-.17-.23a.15.15,0,0,0-.25,0,2.15,2.15,0,0,0,0,1.5,3.94,3.94,0,0,0-.26-.4l-.08-.1a.14.14,0,0,0-.11-.06h-.07a.13.13,0,0,0-.11.06,1.53,1.53,0,0,0-.22,1.18c0,.36.07.66.1,1a.14.14,0,0,0,.1.12,1.18,1.18,0,0,0-.28.22,1.32,1.32,0,0,0,.1-.39,1.52,1.52,0,0,0-.42-1.09.19.19,0,0,0-.14,0,.11.11,0,0,0-.1.06,1.07,1.07,0,0,0-.26.74,1.91,1.91,0,0,0,.08.54,1.55,1.55,0,0,1,.08.6.13.13,0,0,0,.07.14l-.12,0a.45.45,0,0,0,0-.36,2.16,2.16,0,0,1-.25-.89.16.16,0,0,0-.08-.12.14.14,0,0,0-.15,0,1.62,1.62,0,0,0-.47,1.1.88.88,0,0,0-.12-.33.14.14,0,0,0-.08-.09h-.12a1,1,0,0,0-.44.7V66a.14.14,0,0,0-.13-.12h0c-.2,0-.44.16-.86,1.16a3.23,3.23,0,0,0,0-.44.14.14,0,0,0-.06-.11.15.15,0,0,0-.13,0,1.44,1.44,0,0,0-.86.85v-.31a.13.13,0,0,0,0-.11.09.09,0,0,0-.11,0c-.6.06-.79,1-.87,1.44h0l-.31-.24-.26-.23a.15.15,0,0,0-.2,0l-.07.07v0a.14.14,0,0,0-.13-.09L68,68h-.7a.14.14,0,0,0-.13.09v0L67.05,68a.15.15,0,0,0-.2,0l-.26.22-.28.25h0c-.09-.45-.27-1.39-.88-1.45a.15.15,0,0,0-.11,0,.13.13,0,0,0,0,.12v.31a1.43,1.43,0,0,0-.82-.85.15.15,0,0,0-.13,0,.11.11,0,0,0-.06.11,3.09,3.09,0,0,0,0,.43c-.42-1-.67-1.15-.86-1.15h0a.15.15,0,0,0-.14.13v.18a1,1,0,0,0-.42-.71.13.13,0,0,0-.12,0,.11.11,0,0,0-.08.08,2,2,0,0,0-.12.34A1.53,1.53,0,0,0,62,65a.12.12,0,0,0-.14,0,.13.13,0,0,0-.08.12,2.22,2.22,0,0,1-.26.9.45.45,0,0,0,0,.36l-.12-.06a.13.13,0,0,0,.07-.14,2.05,2.05,0,0,1,.07-.6,2,2,0,0,0,.1-.54,1.22,1.22,0,0,0-.3-.75.15.15,0,0,0-.22,0,1.46,1.46,0,0,0-.45,1.1,1,1,0,0,0,.1.38,1.19,1.19,0,0,0-.29-.21.15.15,0,0,0,.1-.13,7.51,7.51,0,0,1,.1-1,1.54,1.54,0,0,0-.22-1.18.13.13,0,0,0-.11-.06h-.12a.14.14,0,0,0-.12.06l-.06.1a2.45,2.45,0,0,0-.26.37,1.93,1.93,0,0,0,0-1.42.12.12,0,0,0-.18,0l0,0-.16.21c-.41.55-.53.72-.42,1a1.21,1.21,0,0,0-.67-.41,1.65,1.65,0,0,0-.31,0,1.77,1.77,0,0,0-.46.08H57.4a.13.13,0,0,0-.11.08.15.15,0,0,0,0,.13v0a1.36,1.36,0,0,0,1,.73h.13l.3,0h0a3.72,3.72,0,0,0-.74.08h-.18a.15.15,0,0,0-.11.08.17.17,0,0,0,0,.14,1.37,1.37,0,0,0,1.11.66h0a.54.54,0,0,0,.18,0,2,2,0,0,1,.92.09l0,0h0a.17.17,0,0,0,.13-.07l0,.06.07.1a1.46,1.46,0,0,0-.55-.11,1.81,1.81,0,0,0-1,.33.14.14,0,0,0-.06.12.13.13,0,0,0,.06.12,1.82,1.82,0,0,0,1.18.47h0l.35,0a2.1,2.1,0,0,0-.6.38.14.14,0,0,0-.05.11.13.13,0,0,0,0,.1,1.44,1.44,0,0,0,1,.46h.06a1.5,1.5,0,0,0,.47-.08l-.24.17-.17.13a.12.12,0,0,0-.07.12.19.19,0,0,0,.07.12,1.63,1.63,0,0,0,.93.27h.08a1,1,0,0,0,.41-.12l.1,0-.54.34a.11.11,0,0,0-.06.12.13.13,0,0,0,.08.11,1.73,1.73,0,0,0,.71.18h0a4.09,4.09,0,0,0,.91-.25h0a2.45,2.45,0,0,0-.47.67.15.15,0,0,0,0,.13.15.15,0,0,0,.11.07,1.65,1.65,0,0,1,.46.12h0a1.43,1.43,0,0,0,.89-.28,3,3,0,0,0-.34.45.17.17,0,0,0,0,.14.15.15,0,0,0,.12.08h.32A1.76,1.76,0,0,0,66,68.94a.15.15,0,0,0,0-.13v0h.12a.16.16,0,0,0,.11-.05h0a.15.15,0,0,0,.06.09l.21.16a1.38,1.38,0,0,0,.81.37h0a1.14,1.14,0,0,0,.54-.17.21.21,0,0,0,.08-.11V69h0v.06a.15.15,0,0,0,.07.11,1.15,1.15,0,0,0,.55.17,1.42,1.42,0,0,0,.78-.37l.22-.16a.17.17,0,0,0,.06-.1h0a.16.16,0,0,0,.11,0h.12v0a.15.15,0,0,0,0,.13,1.77,1.77,0,0,0,1.49.89h.33a.15.15,0,0,0,.11-.08.17.17,0,0,0,0-.14,2.56,2.56,0,0,0-.33-.46,1.35,1.35,0,0,0,.88.29,3.57,3.57,0,0,0,.47,0,.15.15,0,0,0,.11-.08.15.15,0,0,0,0-.13,2.39,2.39,0,0,0-.45-.67h0a1.9,1.9,0,0,0,.9.28,1.92,1.92,0,0,0,.79-.2.18.18,0,0,0,.09-.13.16.16,0,0,0-.08-.13l-.6-.36.12,0a.92.92,0,0,0,.46.14h0a1.66,1.66,0,0,0,1-.28.15.15,0,0,0,.07-.12.12.12,0,0,0-.07-.12l-.18-.14-.24-.16a1.59,1.59,0,0,0,.48.07h.06a1.52,1.52,0,0,0,1-.47.15.15,0,0,0,0-.11.16.16,0,0,0-.05-.11,2.2,2.2,0,0,0-.62-.38l.36,0h0a1.87,1.87,0,0,0,1.17-.47.15.15,0,0,0,0-.12.11.11,0,0,0-.06-.11,1.75,1.75,0,0,0-1-.33,1.46,1.46,0,0,0-.55.11l.07-.1,0-.07h0a.16.16,0,0,0,.11,0h0a2,2,0,0,1,.92-.09.54.54,0,0,0,.18,0,1.42,1.42,0,0,0,1.17-.72.12.12,0,0,0,0-.14.14.14,0,0,0-.11-.09h-.19a5.38,5.38,0,0,0-.69-.07h0l.3,0h.14a1.44,1.44,0,0,0,1.07-.76v0a.17.17,0,0,0,0-.14.12.12,0,0,0-.1-.09M59.3,64.22v0l0,0a.15.15,0,0,0,.12.08h0a.13.13,0,0,0,.12-.06.81.81,0,0,0,.1-.18,1,1,0,0,0,0,.42,1.33,1.33,0,0,0-.47-.25l0,0M62.2,67h.15a.12.12,0,0,0,.06-.06h0a1.38,1.38,0,0,0,.14.24,1.53,1.53,0,0,0-.41-.14.17.17,0,0,0,0-.1h0m1.27.67a1.48,1.48,0,0,0-.42,0h0V67.5l.07,0h0a.16.16,0,0,0,.21,0l0,0,0,0s.1.11.15.15m-2.41-1.44a1.31,1.31,0,0,0-.28,0h0a.16.16,0,0,0,.12-.09h0l.14.13m3.13,1.81h.07a.09.09,0,0,0,.07,0,.11.11,0,0,0,.09,0,.07.07,0,0,0,0-.06,1.21,1.21,0,0,0,.16.16,1.32,1.32,0,0,0-.34,0h-.11v0h0m1.24.52h-.08v-.11a.2.2,0,0,0,.08,0h0a.81.81,0,0,0,.18.19h-.2m9.47-2.47h0a.16.16,0,0,0,.11.1h0a1.31,1.31,0,0,0-.28,0l.14-.14M73.39,67h0l.06.06h.15v.09a1.48,1.48,0,0,0-.42.14,1.09,1.09,0,0,0,.14-.23m-.7.52a.09.09,0,0,0,.07,0h.06l.07,0a.06.06,0,0,0,0,.06h0a1.48,1.48,0,0,0-.42,0,.71.71,0,0,0,.15-.15v0m-2.12.88h0a.12.12,0,0,0,.08,0v.12h-.08a.67.67,0,0,0-.2,0,.7.7,0,0,0,.18-.2M71.58,68a1.84,1.84,0,0,0-.33,0,1.06,1.06,0,0,0,.15-.15.08.08,0,0,0,0,.06.11.11,0,0,0,.09,0,.09.09,0,0,0,.07,0h.07v.06h-.11m4.62-3.6a.75.75,0,0,0,0-.42l.1.18a.16.16,0,0,0,.12.06h0a.14.14,0,0,0,.12-.08l0-.06s0,0,0,0a.14.14,0,0,0,.14,0,1.4,1.4,0,0,0-.47.24"/><path class="cls-5" d="M57.34,58.61h.14a.12.12,0,0,0,.07.07h.14a2.93,2.93,0,0,0,1.23-1.33.14.14,0,0,0,0-.15.12.12,0,0,0-.14,0l-.26.06a1.42,1.42,0,0,0,.61-.79.16.16,0,0,0,0-.15.17.17,0,0,0-.16-.07,3.23,3.23,0,0,0-.58.24,2.57,2.57,0,0,0,.75-.79.15.15,0,0,0,0-.2.16.16,0,0,0-.1,0,1.44,1.44,0,0,0-.46.08,1.62,1.62,0,0,0,1.06-1.07.18.18,0,0,0,0-.16.15.15,0,0,0-.16,0,4.59,4.59,0,0,1-.48.17,3.49,3.49,0,0,0-.75.31l0-.06a2.28,2.28,0,0,0,.66-1.87.15.15,0,0,0-.1-.12.12.12,0,0,0-.14,0,2.68,2.68,0,0,0-.89,1.68,1.21,1.21,0,0,0-.2-.3,3.78,3.78,0,0,0-.4-.4l-.24-.24a.14.14,0,0,0-.19,0,.11.11,0,0,0,0,.12A2.71,2.71,0,0,0,57,55l-.05-.08-.32-.24a.12.12,0,0,0-.14,0,.12.12,0,0,0-.09.1,1.06,1.06,0,0,0,.36,1.08l.1.08a3.35,3.35,0,0,1,.56.57.13.13,0,0,0,.11.06h.05v.09a.14.14,0,0,0,0,.12.17.17,0,0,0,.1,0h0a1.84,1.84,0,0,0,.51-.19,2.57,2.57,0,0,0-.64.59c.07-.61-.47-.91-.92-1.16l-.31-.17a.12.12,0,0,0-.14,0,.16.16,0,0,0-.08.13,1.65,1.65,0,0,0,.67,1.28h0a2.23,2.23,0,0,1-.51-.19.15.15,0,0,0-.16,0,.14.14,0,0,0-.06.15c.1.48.33,1,1.34,1.44M57.89,55l0,0a.06.06,0,0,0,0-.06h0m-.31.57h.07v.09a.21.21,0,0,0,0,.13.17.17,0,0,0,.1,0h.05l.17-.06h.07a1.06,1.06,0,0,0-.38.35.94.94,0,0,0-.11-.5M57.52,58h0a1.42,1.42,0,0,0-.14-.36h0a.16.16,0,0,0,.1-.08.18.18,0,0,0,.09,0h0l.24-.08.21-.06a1.49,1.49,0,0,0-.54.52"/><path class="cls-5" d="M58.08,63h.48l0,.11a.18.18,0,0,0,.13.08h0a.16.16,0,0,0,.13-.08,1,1,0,0,1,.1-.17,2.14,2.14,0,0,0,.38-1.7.12.12,0,0,0-.1-.08.09.09,0,0,0-.12,0l-.26.22a2.3,2.3,0,0,0,.34-1.14.14.14,0,0,0-.08-.13.15.15,0,0,0-.16,0l-.25.19c-.37.26-.71.52-.71,1a1.64,1.64,0,0,0-.29-.4h.08a.15.15,0,0,0,.07-.14v0H58c.49-.35,1-.71,1-1.34a.11.11,0,0,0-.08-.13.14.14,0,0,0-.15,0,1.53,1.53,0,0,1-.59.28,2.46,2.46,0,0,0,.67-1,.14.14,0,0,0,0-.16.15.15,0,0,0-.18,0,2.09,2.09,0,0,1-.48.22c-.27.11-.53.21-.61.42v0a1,1,0,0,0-.67-.57,2.68,2.68,0,0,1-.67-.24.15.15,0,0,0-.16,0,.12.12,0,0,0,0,.14,1.6,1.6,0,0,0,.66,1l-.34-.08a.16.16,0,0,0-.18.12v.05a1.51,1.51,0,0,0,.42.82l.17.11a1.59,1.59,0,0,0-.37.06.11.11,0,0,0-.1.08.13.13,0,0,0,0,.12,2,2,0,0,0,1,1l.15,0a1.87,1.87,0,0,1-.67.09.15.15,0,0,0-.13.07.14.14,0,0,0,0,.15,1.61,1.61,0,0,0,1.52.87m0-1h0a.12.12,0,0,0,.08.06h.12a1.19,1.19,0,0,0,.23-.16.86.86,0,0,0-.13.58,2.17,2.17,0,0,0-.36-.44m-.38-2.09h.14c0,.07-.07.13-.09.2v.11a1.18,1.18,0,0,0-.22-.28.06.06,0,0,0,.06,0,.12.12,0,0,0,.06-.06s0,0,.06,0"/><path class="cls-5" d="M77.22,52.87c-.1.91.32,1.34.83,2a2.27,2.27,0,0,0-.83-2"/><path class="cls-5" d="M78.17,55.63c-.07-.86-.72-.87-1.65-1.22.28.84.85,1,1.65,1.22"/><path class="cls-5" d="M79.15,53.58c-.21.22-.43.41-.63.63a1.07,1.07,0,0,0-.17,1.18,2,2,0,0,0,.8-1.81"/><path class="cls-5" d="M78.46,56.36a4.25,4.25,0,0,1,.67-.67.93.93,0,0,0,.32-.94l-.67.5a1,1,0,0,0-.35,1.12"/><path class="cls-5" d="M77,55.6a2,2,0,0,0,1.33,1c-.05-.74-.59-.9-1.33-1"/><path class="cls-5" d="M78.62,57.45c.48-.43,1-.67,1-1.52-.58.36-1.47.62-1,1.52"/><path class="cls-5" d="M77,56.36c.26.78.76.83,1.44,1a2.47,2.47,0,0,0-1.44-1"/><path class="cls-5" d="M78.53,58.48c.93-.44,1.14-.88,1.23-1.34a2.29,2.29,0,0,1-.67.22c-.48.14-.56.67-.59,1.12"/><path class="cls-5" d="M78.32,58a1.72,1.72,0,0,0-1.18-.72,2.93,2.93,0,0,0,1.17,1.27V58"/><path class="cls-5" d="M78.47,59.71c.26-.13.52-.25.8-.36a1.43,1.43,0,0,0,.6-1,3.1,3.1,0,0,1-.72.26c-.44.1-.67.46-.67,1.07"/><path class="cls-5" d="M78.29,59.08c-.09-.26-.71-.32-1-.58a2.32,2.32,0,0,0,1,1.19,4.22,4.22,0,0,1,.07-.61"/><path class="cls-5" d="M78.1,60.07a.53.53,0,0,0-.36-.39,1.51,1.51,0,0,1-.66-.32c0,.55.48.89.94,1.22a1.78,1.78,0,0,0,.06-.51"/><path class="cls-5" d="M78.22,60.78a1.4,1.4,0,0,1,.63-.32.82.82,0,0,0,.5-.2,1.26,1.26,0,0,0,.38-.74,5.29,5.29,0,0,1-.54.13,1.09,1.09,0,0,0-1,1.13"/><path class="cls-5" d="M76.89,60.21a1.73,1.73,0,0,0,.83,1.59c.31-.92-.25-1.11-.83-1.59"/><path class="cls-5" d="M78.45,60.88a1.53,1.53,0,0,0-.5.89c.18-.12.46-.06.75-.17a1.83,1.83,0,0,0,.92-.94,1.24,1.24,0,0,0-1.17.22"/><path class="cls-5" d="M78.51,61.92c-.2-.06-.58-.11-1,.89A1.6,1.6,0,0,0,79.26,62a2.13,2.13,0,0,1-.75-.11"/><path class="cls-5" d="M76.7,61.27c-.21.57.26,1.25.5,1.7.4-.86.2-1.13-.5-1.7"/><path class="cls-5" d="M76.22,62.21a2.23,2.23,0,0,0,.24,1.93c.5-1.07.59-.82-.24-1.93"/><path class="cls-5" d="M77.64,63.16a1.36,1.36,0,0,0-.89.94,5.66,5.66,0,0,1,.81-.12c.52-.06.7-.34,1-.74a1.87,1.87,0,0,0-.91-.08"/><path class="cls-5" d="M75.91,65.16a2.22,2.22,0,0,1,1-.08,1.24,1.24,0,0,0,1.21-.67c-.89-.13-1.72-.34-2.2.74"/><path class="cls-5" d="M75.52,65.36a6.25,6.25,0,0,0,.51-.82c.22-.48-.16-.92-.43-1.29a1.42,1.42,0,0,0-.18,1.1c0,.33.06.67.09,1"/><path class="cls-5" d="M75.1,66a9.28,9.28,0,0,0,.92.15,1.68,1.68,0,0,0,1.1-.44,1.42,1.42,0,0,0-2,.25l0,0"/><path class="cls-5" d="M74.69,66.13A1.15,1.15,0,0,0,75,64.51a1.54,1.54,0,0,0-.17-.19,1.07,1.07,0,0,0-.26.66c0,.4.22.75.16,1.17"/><path class="cls-5" d="M74.28,66.35a.29.29,0,0,0,0-.34,2.29,2.29,0,0,1-.26-1c-.35.27-.48.9-.46,1.78l.67-.48"/><path class="cls-5" d="M73.87,66.93a1.08,1.08,0,0,1,.66.1,1.28,1.28,0,0,0,.71.16,1.3,1.3,0,0,0,.92-.42,1.51,1.51,0,0,0-2.31.16"/><path class="cls-5" d="M72.29,68.27c.23.07.45.11.67.2a1.61,1.61,0,0,0,.61.19,1.54,1.54,0,0,0,.93-.27L74,68a1.36,1.36,0,0,0-1.68.26"/><path class="cls-5" d="M73.25,65.76a.83.83,0,0,0-.37.62,9.23,9.23,0,0,1-.19,1.05c.77-.3.84-.94.53-1.67"/><path class="cls-5" d="M72.57,67.21a2.5,2.5,0,0,0,0-1c-.24,0-.57.52-1,1.72.37-.18.91-.27,1-.66"/><path class="cls-5" d="M71.07,68.76c1,.27,1.31.92,2.42.4l-.8-.52a1.64,1.64,0,0,0-1.59.12"/><path class="cls-5" d="M69.85,69.24c1.12.35,1,.93,2.28.71-.5-1-1.11-1.26-2.28-.71"/><path class="cls-5" d="M71.54,66.78c-.58.19-.85,1-1,1.49.67-.15,1-.44,1-1.49"/><path class="cls-5" d="M69.54,68.87a3.73,3.73,0,0,0,.16-1c-.55.06-.71,1-.82,1.46a.68.68,0,0,0,.66-.46"/><path class="cls-5" d="M69.15,69.56a1.66,1.66,0,0,0,1.77.83c-.37-.62-1-1.22-1.78-.85"/><path class="cls-5" d="M67.12,69.75c.65.39.95,0,1.49-.36L68,68.88l-.9.87"/><polygon class="cls-5" points="66.97 68.86 66.25 68.71 66.97 69.55 67.68 68.86 66.97 68.86"/><path class="cls-5" d="M58.72,52.87a2.27,2.27,0,0,0-.83,2c.51-.66.93-1.06.83-2"/><path class="cls-5" d="M59.42,54.41c-.92.35-1.57.36-1.65,1.22.8-.26,1.37-.38,1.65-1.22"/><path class="cls-5" d="M57.59,55.39a1,1,0,0,0-.17-1.18c-.2-.23-.42-.42-.63-.63a2,2,0,0,0,.8,1.81"/><path class="cls-5" d="M56.81,55.69a3.75,3.75,0,0,1,.66.66,1,1,0,0,0-.34-1.11l-.67-.5a.93.93,0,0,0,.32.94"/><path class="cls-5" d="M59,55.6c-.73.09-1.27.25-1.33,1a2,2,0,0,0,1.33-1"/><path class="cls-5" d="M57.34,57.45c.42-.9-.47-1.16-1.05-1.52,0,.87.58,1.09,1.05,1.52"/><path class="cls-5" d="M59,56.36a2.47,2.47,0,0,0-1.44,1c.67-.22,1.18-.27,1.44-1"/><path class="cls-5" d="M57.41,58.48c0-.48-.11-1-.59-1.12a2.29,2.29,0,0,1-.67-.22c.1.46.3.9,1.24,1.34"/><path class="cls-5" d="M58.8,57.28a1.74,1.74,0,0,0-1.18.72v.55a3,3,0,0,0,1.18-1.27"/><path class="cls-5" d="M56.67,59.35c.28.11.54.23.8.36,0-.61-.24-1-.66-1.07a3.18,3.18,0,0,1-.73-.26,1.46,1.46,0,0,0,.59,1"/><path class="cls-5" d="M58.68,58.5c-.34.26-1,.32-1,.58s.06.41.08.61a2.28,2.28,0,0,0,1-1.19"/><path class="cls-5" d="M58.85,59.36a1.54,1.54,0,0,1-.67.32.5.5,0,0,0-.35.39,1.48,1.48,0,0,0,.05.51c.46-.33.94-.67.95-1.22"/><path class="cls-5" d="M56.59,60.26a.82.82,0,0,0,.5.2,1.32,1.32,0,0,1,.62.32,1.08,1.08,0,0,0-1-1.13,5.29,5.29,0,0,1-.54-.13,1.26,1.26,0,0,0,.38.74"/><path class="cls-5" d="M59.06,60.21c-.59.46-1.14.67-.84,1.59a1.75,1.75,0,0,0,.84-1.59"/><path class="cls-5" d="M57.24,61.62c.29.11.57.05.76.17a1.55,1.55,0,0,0-.51-.91,1.24,1.24,0,0,0-1.17-.22,1.83,1.83,0,0,0,.92.94"/><path class="cls-5" d="M58.47,62.81c-.46-1-.84-1-1-.89a2.16,2.16,0,0,1-.76.11,1.61,1.61,0,0,0,1.79.78"/><path class="cls-5" d="M59.24,61.27c-.7.57-.9.84-.5,1.7.24-.45.7-1.13.5-1.7"/><path class="cls-5" d="M59.48,64.16a2.24,2.24,0,0,0,.24-1.95c-.83,1.11-.74.86-.24,1.93"/><path class="cls-5" d="M59.19,64.1a1.36,1.36,0,0,0-.89-.94,1.87,1.87,0,0,0-.91.08c.29.4.47.66,1,.74a5.66,5.66,0,0,1,.81.12"/><path class="cls-5" d="M59,65.08a2.22,2.22,0,0,1,1,.08c-.47-1.08-1.33-.86-2.2-.74a1.24,1.24,0,0,0,1.21.67"/><path class="cls-5" d="M59.9,64.54a6.31,6.31,0,0,0,.52.82c0-.34.06-.67.09-1a1.42,1.42,0,0,0-.19-1.1c-.26.37-.66.81-.42,1.29"/><path class="cls-5" d="M60.84,66a1.41,1.41,0,0,0-2-.31l0,0a1.66,1.66,0,0,0,1.1.44c.3,0,.61-.08.91-.15"/><path class="cls-5" d="M61.27,66.13c-.05-.42.17-.77.17-1.17a1.07,1.07,0,0,0-.26-.66,1.16,1.16,0,0,0-.1,1.64,1.54,1.54,0,0,0,.19.17"/><path class="cls-5" d="M62.33,66.83c0-.88-.11-1.51-.46-1.78a2.29,2.29,0,0,1-.26,1,.29.29,0,0,0,0,.34l.67.48"/><path class="cls-5" d="M62.07,66.93a1.5,1.5,0,0,0-2.3-.16,1.3,1.3,0,0,0,.92.42,1.23,1.23,0,0,0,.7-.16,1.11,1.11,0,0,1,.67-.1"/><path class="cls-5" d="M61.64,68.27A1.36,1.36,0,0,0,59.93,68l-.53.37a1.55,1.55,0,0,0,.93.28,1.57,1.57,0,0,0,.61-.2c.22-.09.44-.12.67-.2"/><path class="cls-5" d="M63.22,67.43c-.07-.27-.09-.62-.16-1.05a.83.83,0,0,0-.37-.62c-.3.73-.24,1.33.53,1.67"/><path class="cls-5" d="M64.39,67.91c-.44-1.2-.77-1.74-1-1.72a2.2,2.2,0,0,0,0,1c.1.43.67.52,1,.67"/><path class="cls-5" d="M61.27,68.64c-.27.18-.55.35-.83.52,1.12.52,1.42-.13,2.42-.4a1.64,1.64,0,0,0-1.59-.12"/><path class="cls-5" d="M61.83,70c1.25.2,1.17-.38,2.27-.71-1.16-.54-1.77-.24-2.27.71"/><path class="cls-5" d="M65.39,68.27c-.14-.54-.41-1.3-1-1.49,0,1,.32,1.33,1,1.49"/><path class="cls-5" d="M64.23,67.87a3.74,3.74,0,0,0,.17,1,.7.7,0,0,0,.65.46c-.08-.42-.26-1.42-.82-1.46"/><path class="cls-5" d="M63,70.39a1.66,1.66,0,0,0,1.78-.85c-.76-.37-1.42.23-1.78.85"/><path class="cls-5" d="M65.32,69.39c.54.36.84.75,1.49.36l-.9-.87-.59.51"/><path class="cls-2" d="M61.75,42.24a1.33,1.33,0,0,1,.18.38,1.94,1.94,0,0,1,0,.54,2.14,2.14,0,0,1-.11.56,1.3,1.3,0,0,1-.19.37.41.41,0,0,1-.22.17.51.51,0,0,1-.36-.08,3.14,3.14,0,0,1-.51-.39H61a1,1,0,0,0,.59-.54,2.81,2.81,0,0,0,.08-.31v-.07l-.12-.12-.16-.17a.81.81,0,0,0-.14-.12l-.12-.09.26-.54A3.87,3.87,0,0,1,61.75,42.24Z"/><path class="cls-2" d="M63.08,42.79l-.32,0a.54.54,0,0,1-.18,0,.36.36,0,0,1-.19-.13.45.45,0,0,1-.11-.23,1.34,1.34,0,0,1,.1-.71.49.49,0,0,1,.07-.19,1.51,1.51,0,0,1,.09-.18.45.45,0,0,1,.29-.25.5.5,0,0,1,.39.18,1.39,1.39,0,0,1,.21.27,2.21,2.21,0,0,1,.3.77,1.88,1.88,0,0,1-.32,1.34.54.54,0,0,1-.3.24.51.51,0,0,1-.35-.17.9.9,0,0,1-.19-.15l-.24-.23,0,0h.38a.77.77,0,0,0,.44-.22,1.15,1.15,0,0,0,.14-.17.75.75,0,0,0,.1-.2Zm-.22-1.1a.18.18,0,0,0-.14.1.35.35,0,0,0,0,.2c0,.1.09.15.22.12h.31C63.11,41.8,63,41.67,62.86,41.69Z"/><path class="cls-2" d="M65,41.92h0a1.62,1.62,0,0,0-.11-.28,2.26,2.26,0,0,0-.17-.26l-.06-.05-.36.47a.63.63,0,0,1,.11.12l.11.15.11.16.09.17v0a1.55,1.55,0,0,1-.14.29,1.07,1.07,0,0,1-.18.19,1.28,1.28,0,0,1-.25.15,1,1,0,0,1-.25.07h-.38a2.73,2.73,0,0,0,.42.48.57.57,0,0,0,.33.16c.15,0,.3-.13.45-.35a2.47,2.47,0,0,0,.32-.77h2l.2-.2,1.08.86.27-.41,2.13.6.11-.11.16-.21.18-.24a.71.71,0,0,0,.1-.14.19.19,0,0,1,.07-.16h0v-.11l0-.15.19-.71.08.07.37-.42L71.65,41,71.57,41a.21.21,0,0,1-.06-.1v-.16l-.33.26L71.1,41a.16.16,0,0,0-.08.1.14.14,0,0,0,.07.16h0l-.37,1.48L68.8,42.2l.08-.52v-.12a.33.33,0,0,0,0-.14.16.16,0,0,0,0-.09.45.45,0,0,0-.26-.12,1.35,1.35,0,0,0-.49,0,1.25,1.25,0,0,0-.41.22,1.75,1.75,0,0,0-.23.24,2.26,2.26,0,0,0-.16.26m1.14.11-.07.42L67.73,42A.64.64,0,0,1,68,41.8a.42.42,0,0,1,.27,0,.18.18,0,0,1,.2.21Z"/><path class="cls-2" d="M72.82,42l-.13.09v0l-.11.32a1,1,0,0,1-.1.24,1,1,0,0,0-.08.21,2,2,0,0,1-.4.64,1.75,1.75,0,0,1-.6.36l.1-.2.1-.21a1.12,1.12,0,0,1,.1-.25,1.28,1.28,0,0,0,.09-.24l.26-.71.21-.55V41.7l.78-.4Z"/><path class="cls-2" d="M60.34,50.2a.59.59,0,0,1,.18.13,1.2,1.2,0,0,1,.15.24,2.47,2.47,0,0,1,.1.29.74.74,0,0,1,0,.21.31.31,0,0,1-.06.13.28.28,0,0,1-.18,0,1.14,1.14,0,0,1-.32-.07l.09,0,.07-.05a.39.39,0,0,0,.12-.25.28.28,0,0,0,0-.13.47.47,0,0,0,0-.16h0l-.09,0-.1,0H60.1v-.3A1,1,0,0,1,60.34,50.2Z"/><path class="cls-2" d="M61.07,50.15l-.13.09-.09,0h-.12a.21.21,0,0,1-.11-.08.83.83,0,0,1-.14-.35v-.21a.21.21,0,0,1,.06-.18.26.26,0,0,1,.21,0,.53.53,0,0,1,.17.08.66.66,0,0,1,.17.12,1.21,1.21,0,0,1,.16.16.88.88,0,0,1,.16.32.9.9,0,0,1,.05.36.24.24,0,0,1-.07.18.22.22,0,0,1-.16,0H61.1l-.17-.06h0a.39.39,0,0,0,.14-.08.41.41,0,0,0,.14-.2v-.22Zm-.39-.45a.09.09,0,0,0,0,.08.17.17,0,0,0,0,.1.08.08,0,0,0,.11,0l0,0,.05,0,.07-.06C60.82,49.69,60.73,49.65,60.68,49.7Z"/><path class="cls-2" d="M61.79,49.17l-.14.1h0l-.12-.08-.14-.07h0v.3h.08l.08,0,.1,0,.08.05h0a.49.49,0,0,1,0,.17.29.29,0,0,1,0,.13.31.31,0,0,1-.06.13.26.26,0,0,1-.09.09l-.07,0-.12.08a1.08,1.08,0,0,0,.3.11h.18a.31.31,0,0,0,.1-.27,1.56,1.56,0,0,0-.08-.42h0l.37-.25v-.14h.67V49l.52-.24v-.11a.11.11,0,0,0,.09.05h.11l.81-.31V47.8h0v0l0-.07-.15-.36h0V47H64v0l-.05.22v.11a.1.1,0,0,0,.08.05h0l.32.76-.3.11h-.1l-.14.06h-.1l0-.05,0-.08-.4-1-.13.41.29.71-.54.26-.14-.24,0-.06s0-.05,0-.06h-.05a.18.18,0,0,0-.14,0,.44.44,0,0,0-.17.16.4.4,0,0,0-.09.21.54.54,0,0,0,0,.18.43.43,0,0,0,0,.16m.14-.14a.66.66,0,0,1,.05-.15.28.28,0,0,1,.1-.09.1.1,0,0,1,.14,0h0l.1.22Z"/><polygon class="cls-2" points="65.5 46.54 65.64 46.62 65.78 46.43 65.52 46.26 65.42 46.4 65.28 46.31 65.16 46.5 65.41 46.67 65.5 46.54"/><path class="cls-2" d="M66,47.53l-.28-.67-.19.27v0l-.3.26a.2.2,0,0,0-.06.14l0,.39h.57l.06-.19.09.21.7-.11.08-.16.61.23.07-.16.06-.17a1.16,1.16,0,0,0,0-.18,1.21,1.21,0,0,0,0-.18,2.12,2.12,0,0,0-.11-.21.49.49,0,0,0-.12-.13.17.17,0,0,0-.12,0,.22.22,0,0,0-.13.08l-.08.12c0,.08-.1.15-.14.23l-.1.17v0m-1.18.07.25-.22.08.21Zm1.46-.22h0l0-.06,0-.06,0-.05h0s.09,0,.13.09a.57.57,0,0,1,.08.24Z"/><path class="cls-2" d="M67.88,47.4h0V46.25l-.27.31v1.12c0,.08,0,.12.14.12h.08l1,0,.09-.11.05.12L70,48l0-.06.07-.13.07-.14a.3.3,0,0,0,0-.08v-.24l.05-.4,0,0,.15-.24-.18-.13h0a.1.1,0,0,1,0-.05V46.5l-.14.16v0a.08.08,0,0,0,0,.14h0l-.09.82-.3-.13-.59-.08v0l.12-.16.06-.1v-.1a.2.2,0,0,0-.07-.19.27.27,0,0,0-.21-.09h-.38l-.2.35h0a.2.2,0,0,1,.11,0l.1.07,0,.07v.09"/><path class="cls-2" d="M70.94,47.06l-.06,0h0l0,.18v.25a1,1,0,0,1-.14.37,1.27,1.27,0,0,1-.27.25V48l0-.12a.26.26,0,0,1,0-.13v-.14l.08-.4.06-.3v-.06L71,46.6Z"/><path class="cls-2" d="M71.48,48.41l-.12,0s0,0,0-.06a.19.19,0,0,1,0-.18,1.15,1.15,0,0,1,.12-.25,2.88,2.88,0,0,1,.22-.27.24.24,0,0,1,.1-.1h.07a.28.28,0,0,1,.13.11.88.88,0,0,1,.12.21.68.68,0,0,1,.07.2.38.38,0,0,1,0,.15l-.1.15c0,.07-.13.15-.21.25ZM71.9,48a.26.26,0,0,0-.11-.14,0,0,0,0,0-.05,0l0,0,0,.07v0a.07.07,0,0,0,0,.09h0l.21.08A.44.44,0,0,0,71.9,48Zm.22-.6L72,47.2l-.14.07L71.76,47l.2-.09L72,47l.15-.06.13.28Z"/><path class="cls-2" d="M72.69,48.45a.43.43,0,0,1-.06.22,1.12,1.12,0,0,1-.39.42.52.52,0,0,1-.18.1.38.38,0,0,1-.15,0,.27.27,0,0,1-.1-.16.87.87,0,0,1-.06-.32l.07.06.08,0a.39.39,0,0,0,.26,0,.29.29,0,0,0,.13,0l.14-.1h0V48.3l.26-.14A1.41,1.41,0,0,1,72.69,48.45Z"/><path class="cls-2" d="M73.55,48.11l-.07,0h0l-.12.18-.06.12a.19.19,0,0,1,0,.11.81.81,0,0,1-.55.5l.06-.1.06-.11a.75.75,0,0,1,.07-.12L73,48.6l.16-.37.14-.28V47.9l.4-.19Z"/><path class="cls-2" d="M73.81,48.93a.69.69,0,0,0-.1-.19l.26-.18a.56.56,0,0,1,0,.08.11.11,0,0,1,0,.08.47.47,0,0,1,0,.43l-.07.1-.12.1-.14.11h0l-.51-.31.26-.28.39.24A.55.55,0,0,0,73.81,48.93Z"/><path class="cls-2" d="M73.91,50.29h0l-.06,0h-.07a.53.53,0,0,0-.25,0,.44.44,0,0,1,.18-.12.12.12,0,0,1,0-.16.27.27,0,0,1,.12-.09.3.3,0,0,1,.16-.05.23.23,0,0,1,.14,0c.06,0,.07.07.06.1h0l-.07,0v0h0a.11.11,0,0,0-.08,0h-.08a.19.19,0,0,0,0,.1.43.43,0,0,0,.09.1h.11Z"/><path class="cls-2" d="M75.31,49.43v0l-.17.06-.22.05v.31a.09.09,0,0,1,0,.07.29.29,0,0,1-.12.1h0l-.17.12L74,49.65l.27-.28h.42V49h-.06v-.22a.09.09,0,0,1,0-.07l.12-.1a.38.38,0,0,1,.13-.06H75v.73H75l.1,0,.08,0,0,0v-.1a.13.13,0,0,1,.1,0h.25l0,0a.12.12,0,0,0,0,.14l.06.24Zm-.62.1h-.26l.29.21Z"/><path class="cls-2" d="M75.88,49.78H75.8l-.1.14-.09.11-.08.09a1.48,1.48,0,0,1-.3.26.86.86,0,0,1-.35.09l.08-.08.09-.09.08-.11.1-.11.25-.31.19-.25v0l.44-.09Z"/></svg>