<svg id="Layer_1" data-name="Layer 1" xmlns="http://www.w3.org/2000/svg" viewBox="0 0 51 50"><defs><style>.cls-1,.cls-3{fill:none;stroke:#001a63;stroke-miterlimit:10;}.cls-1{stroke-width:0.5px;}.cls-2{fill:#001a63;}.cls-3{stroke-width:0.1px;}</style></defs><title>Training-lCON</title><polygon class="cls-1" points="36.69 9.17 36.69 9.18 36.7 9.17 36.69 9.17"/><polygon class="cls-2" points="12.95 10.4 13.51 10.43 13.57 10.01 13.01 9.99 12.95 10.4"/><path class="cls-2" d="M15.14,8c0-.12,0-.25-.07-.38a1.9,1.9,0,0,0-.18-.53,1,1,0,0,0-.24-.26,1.14,1.14,0,0,0-.32-.18l-.05.64a.81.81,0,0,1,.35.19l-1.1.74L13,7.85l-.07.56.23.15-1.24,1a1.06,1.06,0,0,1-.21.14.35.35,0,0,1-.17,0,.49.49,0,0,1-.35-.21A1,1,0,0,1,11,9.22a.71.71,0,0,0,0,.14l.06.26a1.14,1.14,0,0,0,.25.53.55.55,0,0,0,.3.21.42.42,0,0,0,.33,0l.14-.09.13-.1,1.33-1.08V8.83l.18.11"/><path class="cls-2" d="M15.75,8.56l.12,0a.5.5,0,0,0,.34,0,.46.46,0,0,0,.17-.21,1.17,1.17,0,0,0,.1-.37,2.49,2.49,0,0,0,0-.54A1.64,1.64,0,0,0,16.32,7a1,1,0,0,0-.24-.31,2.23,2.23,0,0,0-.44-.29L15.52,7l.13.06.15.08.16.1a1.1,1.1,0,0,1,.14.11v0a1.34,1.34,0,0,1,0,.3.79.79,0,0,1-.08.23.8.8,0,0,1-.34.38l-.16.06-.18,0,.4.2"/><polygon class="cls-2" points="18.95 4.35 19.23 4.48 19.47 4.11 18.96 3.86 18.8 4.12 18.52 3.98 18.3 4.35 18.8 4.6 18.95 4.35"/><polygon class="cls-2" points="14.95 9.14 15.26 9.15 15.34 8.72 14.77 8.68 14.72 8.98 14.41 8.95 14.35 9.37 14.9 9.42 14.95 9.14"/><path class="cls-2" d="M19.33,6.2l.1-.23.11.17L20.23,6l1-.19a.87.87,0,0,0,0-.14,1.94,1.94,0,0,0,0-.24l0-.28a.45.45,0,0,0,0-.16,1.15,1.15,0,0,0,0-.16v0l0-.1,0-.13L21,3.85l.09,0,.1-.48-.41-.09-.1,0a.16.16,0,0,1-.08-.06s0,0,0-.06a.13.13,0,0,1,0-.08l-.15.37,0,.08a.17.17,0,0,0,0,.12.14.14,0,0,0,.13.1h0l.38,1.38-.57.14-.68.14-.35-.56L19,5.34l.13.21L18,6l-1-.8-.08.57.56.45-.56.23-.09,0-.09,0-.11,0a.23.23,0,0,1-.12-.1v.06a1.42,1.42,0,0,0,0,.32.54.54,0,0,0,.05.21c0,.12.11.18.2.19a.38.38,0,0,0,.16,0l.16,0,.75-.3,0-.24.18.14"/><path class="cls-2" d="M22.27,4.32a1.19,1.19,0,0,0,0-.24l-.06-.31v0l.08-.12L22,2.88l-.43.69,0,.08.11.54.13.7,0,.24c0,.11,0,.2,0,.25a1.25,1.25,0,0,1,0,.21c0,.08,0,.15,0,.21a1.74,1.74,0,0,0,.31-.58,2.26,2.26,0,0,0,0-.7Z"/><path class="cls-2" d="M24.9,4.39a1.28,1.28,0,0,0-.16-.28.43.43,0,0,0-.33-.22.4.4,0,0,0-.3.19s-.07.1-.11.15a.65.65,0,0,0-.09.16,1.45,1.45,0,0,0-.2.65.51.51,0,0,0,.07.23.38.38,0,0,0,.16.15.37.37,0,0,0,.17,0,1.16,1.16,0,0,0,.29,0h.26a.81.81,0,0,1-.71.45,1.24,1.24,0,0,1-.3,0h0l0,0a2.88,2.88,0,0,0,.18.25l.16.17a.45.45,0,0,0,.29.14.46.46,0,0,0,.31-.17,1.8,1.8,0,0,0,.36-.56,1.55,1.55,0,0,0,.12-.62,1.84,1.84,0,0,0,0-.39A1.52,1.52,0,0,0,24.9,4.39Zm-.46.51h-.06a.22.22,0,0,1-.24-.24.23.23,0,0,1,.07-.17.18.18,0,0,1,.15-.07c.12,0,.21.13.25.48Z"/><polygon class="cls-2" points="29.49 6.77 29.32 6.51 28.92 6.7 29.22 7.18 29.49 7.05 29.66 7.3 30.03 7.11 29.75 6.64 29.49 6.77"/><polygon class="cls-2" points="36.05 7.17 36.13 7.46 36.57 7.4 36.43 6.85 36.13 6.89 36.05 6.6 35.64 6.66 35.76 7.2 36.05 7.17"/><path class="cls-2" d="M31.74,6.21a.1.1,0,0,1,0-.09L31.8,6l.66-1.68-.69.33L31.22,6l-.06,0-1-.38V5l-.58.26v.28l-1.13-.37.08-.48a.38.38,0,0,0,0-.27.38.38,0,0,0-.23-.11,2.86,2.86,0,0,0-.77,0,4.54,4.54,0,0,0-.6.12,1,1,0,0,0-.37.16,1,1,0,0,0-.22.28,2.15,2.15,0,0,0-.21.39l0,.07s0,0,0,.08a.5.5,0,0,0,0,.15l-.13,1.08v.12l.34-.33.11-.15a.56.56,0,0,0,.09-.2V5.86l.05-.73A2.8,2.8,0,0,1,27,4.92l-.11.4L28,6.18l.23-.36.53.11h0l.77.22.2-.14v.2l.76.23.41.16L31,6.49a.2.2,0,0,0,.06.18l.19.09.82.32h0l.89.47.24-.11v.23l1,.52h0l.66.45.23-.07,0,.19.59.41.76.61.13-.06.21-.13L37,9.44l.13-.09.1-.12,0,0,.06-.08L37.37,9l.4-.57,0,.08.43-.23-.19-.37,0-.09a.43.43,0,0,1,0-.11l0-.07,0-.06-.37.12-.08,0a.17.17,0,0,0-.11.06.13.13,0,0,0,0,.16l0,0-.74,1.09L35.68,8.4l.21-.65-.55.11-.08.26-.1-.06-1.33-.81.07,0,.31-.16.17-.12a.36.36,0,0,0,.11-.14.41.41,0,0,0,0-.37.71.71,0,0,0-.31-.31L33.89,6l-.38-.13-.58.44h0a.55.55,0,0,1,.17.14.67.67,0,0,1,.12.19.69.69,0,0,1,0,.13.6.6,0,0,1,0,.18M28.11,5l0,.07v0L28,5.39l-.67-.54a1.06,1.06,0,0,1,.25,0,1.34,1.34,0,0,1,.37,0A.12.12,0,0,1,28.11,5Z"/><path class="cls-2" d="M38.36,8.69l0,.07L38,9.19l-.44.55-.16.19-.16.19-.15.16-.15.14a1.56,1.56,0,0,0,.64-.14,2,2,0,0,0,.54-.44l.14-.16.15-.18.2-.25,0,0h.15l.42-.63Z"/><path class="cls-1" d="M27.46,40.84a8.69,8.69,0,0,0-1.85-2.26,3.62,3.62,0,0,1,.84-.32.21.21,0,0,0,.15-.11.23.23,0,0,0,0-.2l-.33-.63a.24.24,0,0,0-.23-.11,5.68,5.68,0,0,0-1.7.59l-.06,0-.89-.37a.21.21,0,0,0-.25.06l-.48.61a.17.17,0,0,0,0,.17.18.18,0,0,0,.1.14l.45.28a6.37,6.37,0,0,0-1.42,1.87.22.22,0,0,0,0,.16.19.19,0,0,0,.11.12l.76.33.08,0a.21.21,0,0,0,.18-.09,7.93,7.93,0,0,1,1.63-1.77l.06.07a7.13,7.13,0,0,1,1.81,2,.22.22,0,0,0,.18.1l.08,0,.71-.29a.18.18,0,0,0,.12-.12.2.2,0,0,0,0-.17m-4.09-3,.38.15-.38.27-.22-.14Zm-.74,2.82-.39-.17A5.82,5.82,0,0,1,26,37.66l.13.26a7.07,7.07,0,0,0-3.46,2.75m4,.29a8.27,8.27,0,0,0-1.58-1.77L25.4,39A8.57,8.57,0,0,1,27,40.83Z"/><path class="cls-3" d="M22.33,37.64a.24.24,0,0,0,.13,0h0a.32.32,0,0,0,.1.1l.23.11.1,0,.08,0a.25.25,0,0,0,.12-.13l.09-.32a.17.17,0,0,0,0-.1,5,5,0,0,0-.89-2,.23.23,0,0,0-.27,0h0a2.83,2.83,0,0,0-.32-.45.23.23,0,0,0-.22-.07.2.2,0,0,0-.15.17.8.8,0,0,0,0,.35.24.24,0,0,0-.06-.09c-.13-.12-.18-.17-.28-.17H21a1.86,1.86,0,0,0-.33-.66.21.21,0,0,0-.37.16l0,.62a7,7,0,0,0-1-2.27.2.2,0,0,0-.27,0l0,0c-.21-.39-.35-.39-.43-.39a.26.26,0,0,0-.17,0,.24.24,0,0,0-.09.15,4,4,0,0,0-.4-.67.22.22,0,0,0-.27-.07l0,0a2.94,2.94,0,0,0-.25-.64l0-.05a.25.25,0,0,0-.17-.06c-.16,0-.27.15-.37.39a3.5,3.5,0,0,0-.27-.51.21.21,0,0,0-.24-.09l-.06,0a1.65,1.65,0,0,0-.16-.55.21.21,0,0,0-.2-.11.22.22,0,0,0-.18.14l-.15.39a3.78,3.78,0,0,0,.09-1.28.2.2,0,0,0-.19-.18l-.09,0a4.38,4.38,0,0,0,0-.47.22.22,0,0,0-.12-.18.2.2,0,0,0-.21,0,3,3,0,0,0-.4.33,7.24,7.24,0,0,0,0-1.21.21.21,0,0,0-.2-.19h-.06a2,2,0,0,0,0-.35.21.21,0,0,0-.11-.16.18.18,0,0,0-.2,0,1,1,0,0,0-.25.18A6.87,6.87,0,0,0,14.32,26a.22.22,0,0,0-.17-.2h-.07a2.19,2.19,0,0,0,.13-.75.21.21,0,0,0-.12-.17.2.2,0,0,0-.21,0,1.4,1.4,0,0,0-.26.2,3.41,3.41,0,0,0,.27-.82.23.23,0,0,0-.14-.24.29.29,0,0,0-.13,0,4.75,4.75,0,0,0,.17-.49.23.23,0,0,0-.12-.25h-.09a3.3,3.3,0,0,0,.31-.79c0-.24.08-.39.09-.48v0h0c0-.13,0-.15,0-.19a.21.21,0,0,0-.17-.08c-.09,0-.13,0-.17.08a1.61,1.61,0,0,0-.47.13,6,6,0,0,0,.74-1.15.24.24,0,0,0-.08-.26l-.06,0a1.85,1.85,0,0,0,.28-.38.23.23,0,0,0,0-.24.2.2,0,0,0-.23,0c-.05,0-.66.28-1.26.57v0a3,3,0,0,0,1.77-1.95.21.21,0,0,0-.11-.23h0a.21.21,0,0,0,0-.12.21.21,0,0,0-.23-.07l-.75.22c1.16-.61,1.26-2.39,1.26-2.47a.22.22,0,0,0-.15-.21.2.2,0,0,0-.24.08l-.06.09a.22.22,0,0,0-.05-.19.2.2,0,0,0-.24,0,9.37,9.37,0,0,0-1.4,1.14,3.24,3.24,0,0,0-.83-1.11.2.2,0,0,0-.25,0l-.05,0H11a.21.21,0,0,0-.2.15,5.69,5.69,0,0,0-.28,1.77l-.33-.21a.22.22,0,0,0-.22,0,.19.19,0,0,0-.07.21,3.71,3.71,0,0,0,.14.48H10a.21.21,0,0,0-.19.2A3.41,3.41,0,0,0,10,19.59a.11.11,0,0,0-.08,0,.27.27,0,0,0-.13.1c0-.07,0-.12,0-.12a.2.2,0,0,0-.21-.18.22.22,0,0,0-.21.19,5.66,5.66,0,0,0,.27,2.29.84.84,0,0,0-.37-.09.55.55,0,0,0-.28.07.2.2,0,0,0-.09.27,1.77,1.77,0,0,0,.15.27l-.05,0a.2.2,0,0,0-.11.25A5.24,5.24,0,0,0,9.56,24l-.68-.16a.24.24,0,0,0-.21.08.21.21,0,0,0,0,.23c0,.08.09.16.14.24a.2.2,0,0,0-.07.24,4.17,4.17,0,0,0,.8,1.21H9a.2.2,0,0,0-.19.11.23.23,0,0,0,0,.23l.11.13-.06,0a.23.23,0,0,0-.06.29,7,7,0,0,0,1.3,1.48L9.26,28a.24.24,0,0,0-.21.11.23.23,0,0,0,0,.24,2.91,2.91,0,0,0,.24.27l-.05,0a.23.23,0,0,0,0,.3,8,8,0,0,0,3.2,2.2l0,0a3.2,3.2,0,0,1-1.06.43h0a.21.21,0,0,0-.23.15.2.2,0,0,0,.11.25.6.6,0,0,0,.2.08l-.05.06a.21.21,0,0,0,0,.24,1.64,1.64,0,0,0,.86.51L11.8,33a.22.22,0,0,0-.16.17.2.2,0,0,0,.09.21,1.53,1.53,0,0,0,.25.16.14.14,0,0,0-.07.08.2.2,0,0,0,.05.26,4.91,4.91,0,0,0,3,1.23l-.63.5a.25.25,0,0,0-.07.23.2.2,0,0,0,.18.15l.34,0s0,0,0,.05a.24.24,0,0,0,.16.23,3.94,3.94,0,0,0,1.19.18h.16a2.12,2.12,0,0,1-.78.56.23.23,0,0,0-.14.2.26.26,0,0,0-.11.14.24.24,0,0,0,.14.26,5.45,5.45,0,0,0,1.86.35h0a5.21,5.21,0,0,0,.7-.06l-.32.37a.21.21,0,0,0,0,.24.21.21,0,0,0,.19.11h0s.44-.08,1-.24a.25.25,0,0,0,0,.21.21.21,0,0,0,.19.14H19a7.85,7.85,0,0,0,2.9-1.26.24.24,0,0,0,.09-.16ZM18.59,34.7l-.16-.12a4.14,4.14,0,0,0,0-.58c.09.26.15.5.2.7m-.33.61.13.1a4.82,4.82,0,0,1-1.77.64,3.78,3.78,0,0,0,1.64-.74m-.6-1.24,0,0a2.23,2.23,0,0,0,0-.33c0,.13.05.25.07.36m-.85-.82-.17-.15,0-.73c.09.32.15.63.2.88m-1-1.95c0,.29.07.63.09,1l-.34-.4c.06-.11.14-.29.25-.56m-1-1.76.07-.09c-.06.4-.17.88-.26,1.24Zm.37,3,.14.17c-.24,0-.57,0-.93,0a10.66,10.66,0,0,1-1.35-.08h.51a8.9,8.9,0,0,0,1.63-.13m-1.12-2.38s0,.07,0,.1l0,0,0-.06m-.31-1.9a1.21,1.21,0,0,1,.18-.36,13.58,13.58,0,0,1-.36,1.56l-.19-.32a7.87,7.87,0,0,0,.36-.86v0m-.11-2.67a10.72,10.72,0,0,1-1.06,2.05l-.15-.37Zm-.6,2.57a1.67,1.67,0,0,0-.08.2l0,0c0-.05.07-.1.1-.16m-.66-3c-.19.26-.36.48-.5.64l0-.15a4.51,4.51,0,0,0,.54-.49m-.61-.31,0-.2a3.56,3.56,0,0,0,.6-.47c-.22.26-.42.5-.58.67m.53,1.52-.13.18v0l.14-.14m.2,2.51.12.19a5.39,5.39,0,0,1-1.76-.81,9.93,9.93,0,0,0,1.64.62m.77-6.63a6.2,6.2,0,0,1-1.56,1.64v-.16l1.15-1.13,0,0a1.27,1.27,0,0,1,.39-.33m-1.61.59v-.25a9.85,9.85,0,0,0,.79-.65c-.29.34-.58.66-.8.9m2-6.21a2,2,0,0,1-.68,1Zm-.79-.2-.4.67,0-.27.45-.4m-.49,1.87h0v0m0,.46.81-.25a5.66,5.66,0,0,1-1,.71ZM13,20.47c-.36.36-.82.79-1.25,1.17l0-.55A13.56,13.56,0,0,1,13,20.47M12,17.3a.88.88,0,0,0,0,.16l-.28-.95a2.3,2.3,0,0,1,.26.79m-.93-.9.72,2.37-.15.44a3.08,3.08,0,0,1-.57-2.81m0,5.13v.21a4.55,4.55,0,0,1-.38-.62,2.9,2.9,0,0,0,.38.33m-.21,1.15v.47a3.2,3.2,0,0,1-1-1.63,2.91,2.91,0,0,0,1,1.18m-1.44-.37a.2.2,0,0,1,.08,0A4.64,4.64,0,0,0,11,23.92l0,.3a12.89,12.89,0,0,1-1.55-2m-.15,2.14.27.06a11.07,11.07,0,0,0,.86,1,5.59,5.59,0,0,1-1.13-1m.09,1.84h.11A9.89,9.89,0,0,0,12,27.77l.07.12a10.14,10.14,0,0,1-2.6-1.66m.68,2.35a4.57,4.57,0,0,0,3,1.25l.23.37a11.25,11.25,0,0,1-3.55-1.65Zm1.11,1.53a27.35,27.35,0,0,0,2.64.87l.2.24a8.21,8.21,0,0,1-2.84-1.11m.89,1.73.39-.2a4.31,4.31,0,0,0,1.37.3h-.19a11.25,11.25,0,0,1-1.57-.1m.4,1.41a18.32,18.32,0,0,0,2.05.14,6,6,0,0,0,1.33-.12l.38.39c-.32,0-.79.07-1.32.07a6.28,6.28,0,0,1-2.56-.42l.12-.06m.62,1a11.82,11.82,0,0,0,2.21.23,5.81,5.81,0,0,0,1.54-.18l.14.14a5.23,5.23,0,0,1-1.8.34h0a4.3,4.3,0,0,1-2.09-.53m2,1.38H15l.21-.17a5.7,5.7,0,0,0,2.33-.65l.14.11a4.49,4.49,0,0,1-2.52.72m1.11,1.43a2.15,2.15,0,0,0,.41-.43,4.88,4.88,0,0,0,2.24-.84l.33.2a4.25,4.25,0,0,1-3,1.07m2.06,1,0,0,.37-.08-.4.11m-.75-.54a4.44,4.44,0,0,0,2.23-1.13l.14.09a4.29,4.29,0,0,1-2.37,1m1.19.42a4.54,4.54,0,0,0,1.76-1.13l.18.11a5.24,5.24,0,0,1-1.94,1m1.27.06a11.6,11.6,0,0,0,1.21-.79l.11.08a11.26,11.26,0,0,1-1.32.71"/><polygon class="cls-1" points="23.37 38.52 24.2 37.96 23.31 37.59 22.83 38.19 23.37 38.52"/><path class="cls-3" d="M26.08,37.42A6,6,0,0,0,22,40.61l.75.32a6.55,6.55,0,0,1,3.71-2.88Z"/><path class="cls-3" d="M25.41,38.69l-.72.49a7.56,7.56,0,0,1,1.87,2l.71-.29a8.19,8.19,0,0,0-1.86-2.24"/><path class="cls-3" d="M12.21,17.27a3,3,0,0,0-1-1.74l.87,3c.24-.27.1-1.3.1-1.3"/><path class="cls-3" d="M11.73,19.6h0l.27-.77-1-3.17c-.89,2.85.64,3.94.64,3.94"/><path class="cls-3" d="M13.7,15.53a12.61,12.61,0,0,0-1.45,1.2l.17,1Z"/><path class="cls-3" d="M14.14,15.6l-1.66,2.47c1.57-.22,1.66-2.47,1.66-2.47"/><path class="cls-3" d="M12.3,18.57l-.37,1.08a5.42,5.42,0,0,0,2-1.58Z"/><path class="cls-3" d="M11.75,20.29s1.93-.49,2.27-2a7.83,7.83,0,0,1-2.2,1.7Z"/><polygon class="cls-3" points="11.61 20.71 12.25 20.29 11.68 20.45 11.61 20.71"/><path class="cls-3" d="M11.54,22.14a18,18,0,0,0,2.27-2.24A21,21,0,0,0,11.61,21Z"/><path class="cls-3" d="M11.45,23.37a14,14,0,0,0,2.21-2.8s-1.93,1.78-2.18,1.89Z"/><path class="cls-3" d="M11.51,24.27a6.08,6.08,0,0,0,2.21-2.39,1.36,1.36,0,0,0-1,.55l-1.22,1.19Z"/><path class="cls-3" d="M13.66,22.34c.24-1.17,0-.06,0-.06s-1.51,2.07-2.12,2.21l.07.84s1.82-1.83,2.05-3"/><path class="cls-3" d="M13.56,23.37a11.21,11.21,0,0,1-2,2.16l.19.7a8.71,8.71,0,0,0,1.76-2.86"/><path class="cls-3" d="M13.66,24.12a12.67,12.67,0,0,1-1.73,2.28l.18.61a9.17,9.17,0,0,0,1.55-2.89"/><path class="cls-3" d="M14,25a2.1,2.1,0,0,0-.42.37l-1.35,1.9.35.85S14,25.92,14,25"/><path class="cls-3" d="M14.09,25.91s-.86,1.59-1.37,2.37l.26.59a21.09,21.09,0,0,0,1.11-3"/><path class="cls-3" d="M13.56,28.19a6.77,6.77,0,0,1-.4.9,7.53,7.53,0,0,0,.5.87,11.21,11.21,0,0,0,.53-2.57,1.38,1.38,0,0,0-.63.8"/><path class="cls-3" d="M13.77,30.16s.42.63.42.63a15.74,15.74,0,0,0,.26-2.86s-.23,1.26-.34,1.56c0,0-.24.73-.34.67"/><path class="cls-3" d="M14.69,31.29A11,11,0,0,0,15.15,29a1.93,1.93,0,0,0-.53.51l-.24,1.46Z"/><path class="cls-3" d="M15.09,31.75a6.54,6.54,0,0,0,.32-2.12l-.54,1.85Z"/><path class="cls-3" d="M15.31,31.88l.86,1a10.76,10.76,0,0,0-.3-2.32,8.14,8.14,0,0,1-.56,1.32"/><path class="cls-3" d="M17.11,33.83a7.43,7.43,0,0,0-.77-2.65l.1,2Z"/><path class="cls-3" d="M17.4,34.14l.56.41a16.26,16.26,0,0,0-.78-3.15s-.07-.07-.24.35a13.36,13.36,0,0,1,.46,2.39"/><path class="cls-3" d="M18.2,34.69l.73.51a9.73,9.73,0,0,0-1.18-3.1,9.26,9.26,0,0,1,.45,2.59"/><path class="cls-3" d="M19.6,35.65s-.64-3.26-1.07-3a9.05,9.05,0,0,1,.62,2.65Z"/><path class="cls-3" d="M19.9,35.76l.5.37A11.4,11.4,0,0,0,19.18,33a8.32,8.32,0,0,1,.72,2.79"/><path class="cls-3" d="M21,36.53a4.54,4.54,0,0,0-.51-2.06l.12,1.85Z"/><path class="cls-3" d="M21.3,36.67l.58.37a6.23,6.23,0,0,0-.67-1.69Z"/><path class="cls-3" d="M21.21,35.35h0v0s-.32-.29,0,0"/><path class="cls-3" d="M21.69,35.4a4.93,4.93,0,0,1,.4,1.72l.39.3a4.61,4.61,0,0,0-.87-2.5.77.77,0,0,0,.08.48"/><path class="cls-3" d="M22.21,35.42a6.74,6.74,0,0,1,.51,2.11l.23.11.1-.31a5,5,0,0,0-.84-1.91"/><path class="cls-3" d="M11.61,19.83a4.33,4.33,0,0,1-1.1-2.25s-.27-.19-.38-.25a8.86,8.86,0,0,0,1.32,2.9Z"/><path class="cls-3" d="M11.3,21.1v-.6a5.22,5.22,0,0,1-1.39-2.43A3.63,3.63,0,0,0,11.3,21"/><path class="cls-3" d="M11.3,22.39V21.34a4.22,4.22,0,0,1-1.25-1.59,4.41,4.41,0,0,0,1.25,2.56"/><path class="cls-3" d="M11.28,23.36l-.1-.94c-1.32-.57-1.87-2.78-1.87-2.78.1,3.08,2,3.75,2,3.75"/><path class="cls-3" d="M11.15,23.79a4.27,4.27,0,0,1-1.48-1.65.66.66,0,0,0-.6-.1,11.05,11.05,0,0,0,2.17,2.76Z"/><path class="cls-3" d="M11.54,25.91l-.23-.85a7.85,7.85,0,0,1-2.24-2.45,9.34,9.34,0,0,0,2.47,3.3"/><path class="cls-3" d="M11.75,26.52l-.14-.29a11.6,11.6,0,0,1-1.94-2l-.86-.19a8,8,0,0,0,2.94,2.45"/><path class="cls-3" d="M12,27.39l-.18-.55s-2.49-1.29-2.92-2.25a5.78,5.78,0,0,0,3.1,2.8"/><path class="cls-3" d="M9,26c.91,1.25,3.6,2.34,3.6,2.34l-.45-.76A10.14,10.14,0,0,1,9.56,26Z"/><path class="cls-3" d="M13.1,29.36l-.45-.69A8,8,0,0,1,9,26.57a6.34,6.34,0,0,0,4.14,2.79"/><path class="cls-3" d="M13.83,30.56l-.58-.93c-2.3-.22-3-1.25-3-1.25l-1-.1c1.05,1.39,4.58,2.28,4.58,2.28"/><path class="cls-3" d="M14,30.79s-3.55-.94-4.57-1.92a8.25,8.25,0,0,0,5.19,2.65Z"/><path class="cls-3" d="M15.15,32.1l-.39-.32a6.33,6.33,0,0,1-2.26-.39,3.24,3.24,0,0,1-1.19.46s.9.47,3.84.25"/><path class="cls-3" d="M15.74,32.88s-.42-.6-.48-.59a12.16,12.16,0,0,1-3.72,0c.68.9,4.2.59,4.2.59"/><path class="cls-3" d="M16.72,33.83,16,33a11.6,11.6,0,0,1-3.48,0,2.42,2.42,0,0,1-.6.23c1.47,1.06,4.85.57,4.85.57"/><path class="cls-3" d="M17.39,34.47,16.94,34c-1.85.58-4.83-.25-4.83-.25a4.88,4.88,0,0,0,5.28.7"/><path class="cls-3" d="M18.05,34.92l-.49-.37a5.37,5.37,0,0,1-2.41.72l-.69.55a4.62,4.62,0,0,0,3.59-.9"/><path class="cls-3" d="M18.77,35.42l-.55-.4c-.47.8-3.25,1.11-3.25,1.11a4.55,4.55,0,0,0,3.8-.71"/><path class="cls-3" d="M16.59,36.45a2.21,2.21,0,0,1-1,.79,4.68,4.68,0,0,0,4-1.27l-.67-.42a4.64,4.64,0,0,1-2.34.9"/><path class="cls-3" d="M20.32,36.42l-.53-.3c-1.48,1.63-4.3,1.3-4.3,1.3a4.41,4.41,0,0,0,4.83-1"/><path class="cls-3" d="M21.07,36.86l-.56-.33a4.12,4.12,0,0,1-2.24,1.29l-.52.59s2.4-.41,3.32-1.55"/><path class="cls-3" d="M19.34,38.16l-.41.36c.93,0,2.84-1.23,2.84-1.23l-.52-.36a15.52,15.52,0,0,1-1.91,1.23"/><path class="cls-3" d="M41.52,23.87a.23.23,0,0,0-.23-.08l-.72.15a5.2,5.2,0,0,0,.71-1.33.21.21,0,0,0-.12-.26l0,0a1.68,1.68,0,0,0,.16-.28.21.21,0,0,0-.1-.28.73.73,0,0,0-.3-.06.85.85,0,0,0-.38.09,5.53,5.53,0,0,0,.28-2.34.24.24,0,0,0-.22-.2.23.23,0,0,0-.23.19.48.48,0,0,1,0,.12.19.19,0,0,0-.13-.1h-.09A3.25,3.25,0,0,0,40.32,18a.21.21,0,0,0-.19-.2H40c.09-.27.14-.46.15-.49a.21.21,0,0,0-.31-.24,2.7,2.7,0,0,0-.35.21,5.45,5.45,0,0,0-.3-1.81.22.22,0,0,0-.21-.15h.09a.12.12,0,0,0,0-.05.23.23,0,0,0-.26,0,3.24,3.24,0,0,0-.86,1.12,11.2,11.2,0,0,0-1.47-1.16.24.24,0,0,0-.25.06.2.2,0,0,0,0,.18l-.06-.08a.24.24,0,0,0-.26-.09.23.23,0,0,0-.15.22c0,.08.1,1.87,1.32,2.49l-.78-.23a.21.21,0,0,0-.24.07A.21.21,0,0,0,36,18h0a.2.2,0,0,0-.11.23,3,3,0,0,0,1.85,2v0c-.62-.29-1.26-.55-1.31-.57a.21.21,0,0,0-.24,0,.22.22,0,0,0,0,.24,1.45,1.45,0,0,0,.29.38l-.06,0a.21.21,0,0,0-.08.26A5.36,5.36,0,0,0,37,21.76a1.29,1.29,0,0,0-.5-.13c0-.09-.08-.09-.18-.09a.23.23,0,0,0-.17.08c0,.05,0,.07,0,.2h0v0a4.19,4.19,0,0,0,.1.5,2.63,2.63,0,0,0,.32.78l-.1,0a.21.21,0,0,0-.12.25,2.43,2.43,0,0,0,.18.49.26.26,0,0,0-.15,0,.22.22,0,0,0-.14.23,3.87,3.87,0,0,0,.28.83,1.68,1.68,0,0,0-.27-.2.22.22,0,0,0-.34.17,2,2,0,0,0,.14.75.11.11,0,0,0-.08,0,.2.2,0,0,0-.17.2,6.06,6.06,0,0,0,.48,1.49,2.41,2.41,0,0,0-.26-.19.22.22,0,0,0-.21,0,.21.21,0,0,0-.11.16,2,2,0,0,0,0,.35H35.6a.22.22,0,0,0-.21.19,7.34,7.34,0,0,0,0,1.22,4.77,4.77,0,0,0-.41-.33.24.24,0,0,0-.23,0,.2.2,0,0,0-.12.18,2,2,0,0,0,0,.47.16.16,0,0,0-.1,0,.2.2,0,0,0-.2.18,4.13,4.13,0,0,0,.09,1.29l-.15-.4a.22.22,0,0,0-.19-.14.25.25,0,0,0-.21.11,1.93,1.93,0,0,0-.16.55l-.06,0a.24.24,0,0,0-.26.09,4.19,4.19,0,0,0-.28.52c-.11-.25-.22-.4-.39-.4a.25.25,0,0,0-.17.06l0,.05a3.55,3.55,0,0,0-.27.65l0,0A.23.23,0,0,0,32,32a4.92,4.92,0,0,0-.42.68.18.18,0,0,0-.09-.15.3.3,0,0,0-.18-.06c-.08,0-.23,0-.45.4l0,0a.21.21,0,0,0-.28,0,7,7,0,0,0-1.05,2.29l0-.62a.22.22,0,0,0-.13-.22.26.26,0,0,0-.25,0,1.84,1.84,0,0,0-.35.67h-.07c-.1,0-.15.05-.3.17a.41.41,0,0,0-.05.09,1,1,0,0,0,0-.35.21.21,0,0,0-.16-.17.23.23,0,0,0-.23.07,2.36,2.36,0,0,0-.33.45h0a.23.23,0,0,0-.28,0,5,5,0,0,0-.92,2,.21.21,0,0,0,0,.11l.1.32a.21.21,0,0,0,.1.11c0,.18.05.6,1.14.82h1v-.1l.87.1.31,0h0a3.15,3.15,0,0,0,1,.21H31a.22.22,0,0,0,.21-.14.2.2,0,0,0,0-.22,10.59,10.59,0,0,0,1.06.25h0a.22.22,0,0,0,.2-.11.22.22,0,0,0,0-.26L32.12,38a6,6,0,0,0,.76.06h0a5.8,5.8,0,0,0,1.93-.35A.22.22,0,0,0,35,37.4a.24.24,0,0,0-.12-.14.2.2,0,0,0-.14-.2,2.1,2.1,0,0,1-.81-.56h-.11A4.21,4.21,0,0,0,35,36.33a.23.23,0,0,0,.16-.23.08.08,0,0,0,0-.05l.36,0a.24.24,0,0,0,.18-.16.21.21,0,0,0-.07-.23l-.65-.5a5.18,5.18,0,0,0,3.11-1.23.2.2,0,0,0,.05-.26.19.19,0,0,0-.07-.08,2.26,2.26,0,0,0,.26-.16.22.22,0,0,0,.09-.21.21.21,0,0,0-.17-.17l-.43-.14a1.74,1.74,0,0,0,.9-.51.19.19,0,0,0,0-.24.17.17,0,0,0-.06-.06.93.93,0,0,0,.22-.08.22.22,0,0,0,.11-.25.21.21,0,0,0-.24-.15h0a3.38,3.38,0,0,1-1.1-.43l0,0a8.46,8.46,0,0,0,3.32-2.2.22.22,0,0,0,0-.3l0,0a3.08,3.08,0,0,0,.25-.27.21.21,0,0,0,0-.24.23.23,0,0,0-.22-.11l-.82.08a7.21,7.21,0,0,0,1.34-1.48.22.22,0,0,0-.06-.29l-.06,0,.11-.13a.21.21,0,0,0,0-.23.2.2,0,0,0-.19-.11h-.59a4.08,4.08,0,0,0,.85-1.24.19.19,0,0,0-.08-.24l.16-.25a.21.21,0,0,0,0-.23m-.91-1.57.09,0a12.73,12.73,0,0,1-1.61,2l0-.3a4.72,4.72,0,0,0,1.49-1.63m-.48-.85a3.31,3.31,0,0,1-1,1.64v-.45a3,3,0,0,0,1-1.19m-.64-.32a5.42,5.42,0,0,1-.39.63v-.29a2.5,2.5,0,0,0,.39-.34M39,16.4a3,3,0,0,1-.59,2.81l-.16-.44Zm-.64,6.42c-.23-.24-.53-.56-.82-.9.33.28.63.53.81.65ZM38,17.3a1.94,1.94,0,0,1,.26-.79l-.28.95a.78.78,0,0,1,0-.16m-.46,1v0h0m0-1.47,0,.27-.42-.67.47.4m-1.29-.2.71,1a2.11,2.11,0,0,1-.71-1m.46,1.88.84.25.17.46a5.86,5.86,0,0,1-1-.71m1.51,2.59,0,.55c-.45-.38-.93-.81-1.3-1.16.45.2,1,.44,1.26.61m-1,1.48,0,0,1.2,1.12v.17a6.17,6.17,0,0,1-1.62-1.65,1.34,1.34,0,0,1,.4.34m.59,4-.13-.18a1,1,0,0,0,.15.14Zm1.36,1.71a5.72,5.72,0,0,1-1.82.81l.13-.19a9.63,9.63,0,0,0,1.69-.62m-1.57-3.1a3.83,3.83,0,0,0,.56.49l0,.15a7,7,0,0,1-.52-.64m0-1a3.06,3.06,0,0,0,.62.47v.21c-.17-.18-.39-.41-.61-.68m-.09,3.1-.15.36a10,10,0,0,1-1.09-2.05Zm-.52,1,0,0a1.67,1.67,0,0,1-.08-.2c0,.06.07.11.1.16m-.84-.06v0a6.93,6.93,0,0,0,.38.85l-.21.32A13.91,13.91,0,0,1,36,27.88a1,1,0,0,1,.18.35m-.28,2a.08.08,0,0,0,0,0s0-.07,0-.1l0,.06m-.82-.66.2,1.15A11.62,11.62,0,0,1,35,29.45l.07.08m-.38,3a9.52,9.52,0,0,0,1.69.13h.52a11.1,11.1,0,0,1-1.39.08c-.38,0-.72,0-1,0l.14-.17m-.65-1.22a3.93,3.93,0,0,0,.26.56l-.36.4c0-.33.06-.67.1-1m-.81,1.07,0,.73-.17.15c.05-.25.12-.57.21-.88m-1,1.34c0,.13,0,.24,0,.33l0,0c0-.11,0-.24.07-.36m-.69,1.6a4.06,4.06,0,0,0,1.7.74,5.2,5.2,0,0,1-1.84-.64ZM31.41,34a4,4,0,0,0,0,.58l-.18.12.21-.7m-3,3.2a14.68,14.68,0,0,0,1.25.79,14.24,14.24,0,0,1-1.37-.71ZM29,36.9l.19-.11A4.75,4.75,0,0,0,31,37.91a5.37,5.37,0,0,1-2-1m2.05,1,.38.09,0,0L31,37.92m-1.26-1.47.15-.08a4.6,4.6,0,0,0,2.3,1.12,4.35,4.35,0,0,1-2.45-1m.73-.45.33-.2a5.28,5.28,0,0,0,2.32.84,2.45,2.45,0,0,0,.43.42A4.46,4.46,0,0,1,30.51,36m4.23-.37a4.72,4.72,0,0,1-2.61-.72l.14-.1a6.3,6.3,0,0,0,2.42.65l.22.17h-.17m-.13-.83h.09a5.66,5.66,0,0,1-1.87-.34l.15-.14a6.22,6.22,0,0,0,1.59.18,13.92,13.92,0,0,0,2.3-.22,4.73,4.73,0,0,1-2.17.52M35,33.72c-.55,0-1,0-1.37-.07l.4-.39a6.31,6.31,0,0,0,1.37.12,19.41,19.41,0,0,0,2.12-.14l.13.06a6.91,6.91,0,0,1-2.65.42m2.94-1.89a12.16,12.16,0,0,1-1.63.1H36.1a4.64,4.64,0,0,0,1.42-.3l.4.2m-2-.62.21-.24c.3-.08,1.55-.42,2.73-.87a8.73,8.73,0,0,1-2.94,1.11m4.41-2.67a12.22,12.22,0,0,1-3.68,1.66l.24-.38A4.78,4.78,0,0,0,40,28.57Zm.28-2.31h.11A10.6,10.6,0,0,1,38,27.89l.07-.12a10,10,0,0,0,2.57-1.54m-1-.8c.43-.44.76-.83.88-1l.28-.06a6.43,6.43,0,0,1-1.16,1"/><path class="cls-3" d="M37.82,17.27a2.92,2.92,0,0,1,1-1.74l-.9,3c-.25-.26-.1-1.29-.1-1.29"/><path class="cls-3" d="M38.46,19.6H38.3L38,18.83l1-3.17c.92,2.85-.66,3.94-.66,3.94"/><path class="cls-3" d="M36.28,15.53a13.62,13.62,0,0,1,1.49,1.2l-.17,1Z"/><path class="cls-3" d="M35.81,15.6l1.73,2.47c-1.62-.22-1.73-2.47-1.73-2.47"/><path class="cls-3" d="M37.73,18.56l.38,1.09a5.73,5.73,0,0,1-2-1.58Z"/><path class="cls-3" d="M38.3,20.29s-2-.49-2.36-2A8.45,8.45,0,0,0,38.22,20Z"/><polygon class="cls-3" points="38.43 20.71 37.77 20.29 38.36 20.45 38.43 20.71"/><path class="cls-3" d="M38.51,22.13a17.85,17.85,0,0,1-2.35-2.24A24.72,24.72,0,0,1,38.44,21Z"/><path class="cls-3" d="M38.6,23.37a14.21,14.21,0,0,1-2.29-2.81s2,1.78,2.26,1.89Z"/><path class="cls-3" d="M38.67,24.27a6.31,6.31,0,0,1-2.29-2.39,1.45,1.45,0,0,1,1,.54l1.26,1.19Z"/><path class="cls-3" d="M36.31,22.33c-.24-1.16,0,0,0,0s1.57,2.07,2.2,2.2l-.08.85s-1.87-1.84-2.12-3"/><path class="cls-3" d="M36.41,23.37a12.11,12.11,0,0,0,2,2.16l-.19.69a8.83,8.83,0,0,1-1.83-2.85"/><path class="cls-3" d="M36.31,24.12A13.3,13.3,0,0,0,38.1,26.4l-.18.6a9.17,9.17,0,0,1-1.61-2.88"/><path class="cls-3" d="M36,25a1.74,1.74,0,0,1,.43.37l1.41,1.89-.36.85S35.93,25.92,36,25"/><path class="cls-3" d="M35.87,25.9s.89,1.59,1.42,2.37l-.27.59a20.22,20.22,0,0,1-1.15-3"/><path class="cls-3" d="M36.41,28.18a6,6,0,0,0,.43.9,8.4,8.4,0,0,1-.53.87,10.58,10.58,0,0,1-.54-2.57,1.37,1.37,0,0,1,.64.8"/><path class="cls-3" d="M36.2,30.15s-.44.63-.44.63a14.85,14.85,0,0,1-.26-2.86s.23,1.26.34,1.56c0,0,.26.73.36.67"/><path class="cls-3" d="M35.24,31.28A10.36,10.36,0,0,1,34.78,29a1.93,1.93,0,0,1,.54.51l.25,1.47Z"/><path class="cls-3" d="M34.83,31.74a6.27,6.27,0,0,1-.32-2.12l.55,1.85Z"/><path class="cls-3" d="M34.6,31.87l-.89,1A10.27,10.27,0,0,1,34,30.55a9.33,9.33,0,0,0,.58,1.32"/><path class="cls-3" d="M32.74,33.82a7.28,7.28,0,0,1,.8-2.65l-.1,2Z"/><path class="cls-3" d="M32.45,34.13l-.59.41a15.4,15.4,0,0,1,.81-3.15s.07-.07.24.35a12.53,12.53,0,0,0-.46,2.39"/><path class="cls-3" d="M31.61,34.68l-.76.51a9.55,9.55,0,0,1,1.23-3.1,9.06,9.06,0,0,0-.47,2.59"/><path class="cls-3" d="M30.16,35.64s.67-3.26,1.11-3a8.82,8.82,0,0,0-.64,2.65Z"/><path class="cls-3" d="M29.85,35.75l-.52.37A11.25,11.25,0,0,1,30.6,33a7.9,7.9,0,0,0-.75,2.79"/><path class="cls-3" d="M28.69,36.52a4.37,4.37,0,0,1,.53-2.06l-.13,1.85Z"/><path class="cls-3" d="M28.4,36.65l-.6.37a6.41,6.41,0,0,1,.69-1.68Z"/><path class="cls-3" d="M28.5,35.34h0v0s.32-.29,0,0"/><path class="cls-3" d="M28,35.39a4.66,4.66,0,0,0-.41,1.72l-.42.3a4.54,4.54,0,0,1,.91-2.5.77.77,0,0,1-.08.48"/><path class="cls-3" d="M27.46,35.41a6.37,6.37,0,0,0-.53,2.11l-.24.11-.1-.32a4.89,4.89,0,0,1,.87-1.9"/><path class="cls-3" d="M38.43,19.82a4.29,4.29,0,0,0,1.15-2.25,3.68,3.68,0,0,1,.4-.24,8.8,8.8,0,0,1-1.38,2.89Z"/><path class="cls-3" d="M38.67,21.1v-.6a5.11,5.11,0,0,0,1.44-2.43A3.58,3.58,0,0,1,38.67,21"/><path class="cls-3" d="M38.88,22.38V21.33a4.16,4.16,0,0,0,1.29-1.59,4.38,4.38,0,0,1-1.29,2.57"/><path class="cls-3" d="M38.88,23.45V22.5c1.31-.7,1.64-2.95,1.64-2.95.22,3.06-1.64,3.92-1.64,3.92"/><path class="cls-3" d="M38.91,23.79a4.42,4.42,0,0,0,1.53-1.66.75.75,0,0,1,.63-.1,10.93,10.93,0,0,1-2.25,2.76Z"/><path class="cls-3" d="M38.51,25.9l.24-.85a8.06,8.06,0,0,0,2.32-2.44,9.34,9.34,0,0,1-2.56,3.29"/><path class="cls-3" d="M38.3,26.51l.13-.29a11.28,11.28,0,0,0,2-2l.9-.19a8.14,8.14,0,0,1-3,2.45"/><path class="cls-3" d="M38,27.38l.19-.55s2.58-1.29,3-2.25A5.82,5.82,0,0,1,38,27.38"/><path class="cls-3" d="M41.18,26c-.93,1.25-3.72,2.33-3.72,2.33l.46-.75A10.47,10.47,0,0,0,40.56,26Z"/><path class="cls-3" d="M36.9,29.35l.46-.68a8.51,8.51,0,0,0,3.82-2.11,6.55,6.55,0,0,1-4.28,2.79"/><path class="cls-3" d="M36.14,30.55l.6-.93c2.38-.22,3.14-1.25,3.14-1.25l1-.1c-1.09,1.39-4.74,2.28-4.74,2.28"/><path class="cls-3" d="M36,30.78s3.68-.94,4.73-1.92a8.57,8.57,0,0,1-5.37,2.65Z"/><path class="cls-3" d="M34.77,32.09l.4-.32a6.85,6.85,0,0,0,2.35-.39,3.35,3.35,0,0,0,1.23.46s-.94.47-4,.25"/><path class="cls-3" d="M34.16,32.87a3.82,3.82,0,0,1,.5-.59,13,13,0,0,0,3.85,0c-.71.9-4.35.59-4.35.59"/><path class="cls-3" d="M33.12,33.55l.88-.71a12.37,12.37,0,0,0,3.58.38,3.06,3.06,0,0,0,.6.3c-1.62.89-5.06,0-5.06,0"/><path class="cls-3" d="M32.45,34.46l.46-.45c1.92.58,5-.25,5-.25a5.23,5.23,0,0,1-5.47.7"/><path class="cls-3" d="M31.76,34.91l.52-.37a5.6,5.6,0,0,0,2.49.71l.72.55a4.92,4.92,0,0,1-3.73-.89"/><path class="cls-3" d="M31,35.41l.56-.4c.48.8,3.37,1.11,3.37,1.11A4.87,4.87,0,0,1,31,35.41"/><path class="cls-3" d="M33.28,36.43a2.3,2.3,0,0,0,1,.8s-2.63.42-4.15-1.28l.69-.41a4.87,4.87,0,0,0,2.43.89"/><path class="cls-3" d="M29.42,36.41,30,36.1c1.52,1.63,4.45,1.31,4.45,1.31a4.67,4.67,0,0,1-5-1"/><path class="cls-3" d="M28.64,36.85l.58-.33a4.33,4.33,0,0,0,2.32,1.29l.54.58S29.6,38,28.64,36.85"/><path class="cls-3" d="M30.43,38.15l.42.35c-1,0-2.94-1.22-2.94-1.22l.54-.37a15.26,15.26,0,0,0,2,1.24"/><path class="cls-3" d="M27.17,37.62a4.7,4.7,0,0,0,2.21.89s-1.66-.71-1.87-1.17Z"/><path class="cls-3" d="M26.86,37.79a3.07,3.07,0,0,0,1.78.77s-1.95-.21-2-.77Z"/><path class="cls-3" d="M31.56,22.1l-1.26-.83a6.42,6.42,0,0,0,.12-.88l1-.29-1-.23a4.91,4.91,0,0,0-.1-.77l2.6-1.6L30,18a4.37,4.37,0,0,0-.45-.78l.62-.93-1,.47a4.25,4.25,0,0,0-.57-.55l1.2-2.69-2.2,2a4.77,4.77,0,0,0-.66-.26V13.75l-.72,1.41a5.93,5.93,0,0,0-.59-.07L25,12l-.4,3.11a5.1,5.1,0,0,0-.7.16l-.85-1.39.15,1.65a5.13,5.13,0,0,0-.65.36l-2.47-2.37,1.65,3a3.17,3.17,0,0,0-.34.39l-1.48-.37.93,1.19c-.07.13-.13.27-.19.4L17,17.61l3.31,1.75c0,.09,0,.18,0,.27l-2.1.79,2.12.41a2.25,2.25,0,0,0,.06.36l-2.18,1.46,2.49-.35,0,0,.18.36h0L20.36,24l1.12-.48c.11.13.22.25.34.37l-.29.49.54-.27a5.08,5.08,0,0,0,7.2-.67l1.05.43-.65-1a4.2,4.2,0,0,0,.36-.7Z"/><path class="cls-2" d="M11,15.42l5,2.49s.11,3.93,4.83,6.11c0,0,2.14,1.26,2.84-.44,0,0,.47-1.8-1.3-1,0,0-.16-1.15,1.46-1.3,0,0,.35-1.06,1.85-.82,0,0,1.26.29,1.37,2.45a1.44,1.44,0,0,0,2.09,1.22S33.86,22.33,34,18l5.12-2.91a12.84,12.84,0,0,1-2.74,5h1.75a10.48,10.48,0,0,1-4.52,4.13l1.58.44a7.5,7.5,0,0,1-5.46,1.5l1,1.34-5.58,3.31-5.57-3.31.83-1.06s-3.81,0-5.51-1.58l1.66-.64s-3.58-1.2-4.77-3.92h1.72A10.72,10.72,0,0,1,11,15.42"/><path class="cls-1" d="M24.13,21.6s.09-.54,1.28-.44c0,0-.37.05-.41.13s.15.34,0,.52c0,0-.27.08-.58-.33a2,2,0,0,1-.29.23Z"/><path class="cls-1" d="M33.53,30s-.1-.81-1.31-.81c0,0-1,.24-3.22-1.43,0,0-2.2-1.37-3.86-.17-1.66-1.2-3.87.17-3.87.17-2.2,1.67-3.22,1.43-3.22,1.43-1.21,0-1.3.81-1.3.81-.44.5-.21.74-.21.74l3.64,5.75A5.86,5.86,0,0,1,25,35.33h.22a6,6,0,0,1,4.9,1.13l3.63-5.75s.23-.24-.2-.74"/><path class="cls-3" d="M29.23,28.11a5.89,5.89,0,0,0,2.85,1.25c1.31,0,1,.61,1,.61l-3.3,5.53C27,33.71,25.2,34.38,25.2,34.38V27.82c1.51-1.47,4,.29,4,.29m-3,2.41h-.43v.21h.43Zm5.28.42.09-.15-.56-.34L31,30.6Zm-.95,1.55.09-.15L30.13,32l-.09.15Zm0-2.23.06-.16-.62-.22L30,30Zm-.86,3.61.07-.15-.6-.26-.07.15Zm-.09-2.06.05-.16-.61-.22-.06.16Zm-.23-2,.06-.16-.61-.23-.06.16Zm-.68,3.51,0-.16L28.17,33l0,.16Zm-.27-2,.06-.16L28,31l-.06.16Zm-.1-2,0-.17-.63-.15,0,.17ZM27.54,33l0-.17-.64-.14,0,.17Zm-.09-2.09,0-.17-.64-.15,0,.17Zm-.25-1.71,0-.16-.63-.15,0,.16Zm-.75,3.52v-.16l-.65-.07v.17Zm-.82-3.95h.42V29h-.42Z"/><path class="cls-1" d="M33.57,30.44,30,36.11c-2.74-1.6-4.58-1.17-4.9-1.07-.33-.1-2.16-.53-4.91,1.07l-3.52-5.67-.07,0,3.56,5.74,0,0C23,34.6,24.79,35,25.11,35.12h.06c.32-.1,2.13-.52,4.87,1.09l0,0,3.57-5.74Z"/><path class="cls-3" d="M20.3,35.9a7.81,7.81,0,0,1,4.81-1h.06a7.77,7.77,0,0,1,4.8,1l0,0,3.46-5.68-.07,0L30,35.8l-.08,0L33.35,30l-.07,0-3.46,5.77a7.72,7.72,0,0,0-4.68-.93,7.77,7.77,0,0,0-4.69.93L17,30l-.07,0,3.45,5.77-.08,0-3.42-5.61-.08,0,3.47,5.68Z"/><path class="cls-1" d="M25.11,34.67v0h0l0,0c.2-.09,1.2-.44,3.51.42l0-.08c-2.32-.86-3.33-.53-3.57-.42-.25-.11-1.26-.44-3.57.42l0,.08c2.3-.86,3.3-.51,3.51-.42"/><path class="cls-3" d="M21,28.11a5.89,5.89,0,0,1-2.85,1.25c-1.3,0-1,.61-1,.61l3.3,5.53c2.7-1.79,4.54-1.12,4.54-1.12V27.82c-1.51-1.47-4,.29-4,.29m3,2.41h.43v.21h-.43Zm-5.18.42-.09-.15.56-.34.08.15Zm.95,1.55-.09-.15.56-.34.09.15Zm0-2.23-.06-.16.61-.22.06.16Zm.85,3.61-.06-.15.59-.26.07.15Zm.1-2.06-.06-.16.61-.22.06.16Zm.22-2-.06-.16.62-.23.05.16Zm.69,3.51,0-.16.64-.14,0,.16Zm.26-2-.05-.16.61-.23.06.16Zm.1-2,0-.17.64-.15,0,.17ZM22.73,33l0-.17.64-.14,0,.17Zm.09-2.09,0-.17.63-.15,0,.17Zm.26-1.71,0-.16.64-.15,0,.16Zm.75,3.52,0-.16.65-.07,0,.17Zm.94-3.95h-.43V29h.43Z"/><path class="cls-1" d="M43.91,9.83l-5,4.18a20,20,0,0,1-13.5,34.5A20,20,0,0,1,11.72,14.14L6.61,10.09a23.93,23.93,0,1,0,37.3-.26"/><path class="cls-1" d="M44.25,10.34s5,5.7,4.83,15.56a37.35,37.35,0,0,1-1,6.12C47,35.23,44.73,41.66,35.59,46.48c0,0,12-6.75,12.42-19.24a23.83,23.83,0,0,0-2.87-11.95Z"/><path class="cls-1" d="M39.44,14.68c5.76,5.46,5.9,13.77,5.9,13.77a19.28,19.28,0,0,1-2.89,10.47,20,20,0,0,1-17.11,9.71A16,16,0,0,0,37.16,45.3a21,21,0,0,0,9.3-15.94,20.74,20.74,0,0,0-2.93-12.67L39,14.2Z"/><path class="cls-1" d="M5.61,28.7A19.76,19.76,0,1,0,25.37,8.78,19.85,19.85,0,0,0,5.61,28.7"/><path class="cls-1" d="M45.12,28.7a20,20,0,0,1-19.88,20A19.94,19.94,0,1,1,45.12,28.7Z"/><path class="cls-1" d="M49.39,24.92a24,24,0,1,1-24-24A24,24,0,0,1,49.39,24.92Z"/><line class="cls-1" x1="45.13" y1="15.14" x2="43.57" y2="16.74"/><path class="cls-1" d="M26.55,48.87a24.18,24.18,0,0,1-25-26.46A24,24,0,0,1,6.82,9.83"/><path class="cls-1" d="M16.56,46.43a19.72,19.72,0,0,0,10,2"/><path class="cls-1" d="M6.48,10.34S1.51,16,1.65,25.9a37.35,37.35,0,0,0,1,6.12C3.69,35.23,6,41.66,15.14,46.48c0,0-12-6.75-12.42-19.24A23.83,23.83,0,0,1,5.59,15.29Z"/><path class="cls-1" d="M25.39,48.63A16,16,0,0,1,13.57,45.3a21,21,0,0,1-9.3-15.94A20.74,20.74,0,0,1,7.2,16.69l4.57-2.49"/><line class="cls-1" x1="5.6" y1="15.14" x2="7.16" y2="16.74"/><path class="cls-2" d="M18.75,44.9l-.19,0a.45.45,0,0,1-.18-.07.51.51,0,0,1-.25-.29.73.73,0,0,1,0-.44,1.51,1.51,0,0,1,.32-.63l.2-.24.12-.11a1.68,1.68,0,0,0-.15.4.56.56,0,0,0,.06.48.37.37,0,0,0,.15.13,1.07,1.07,0,0,0,.29.1l1.83.43,0-.32.57-.35,0,.81.71.17-.18.75L21,45.43l0-.25-.23.19Zm.74.65.39.54-.44.25-.38-.54Z"/><path class="cls-2" d="M23.64,44.27a1.59,1.59,0,0,1,0,.43,2,2,0,0,1-.22.62,3.93,3.93,0,0,1-.21.41L22,45.59l.08-.76,1.05.11a1.09,1.09,0,0,0-.2-.51l.51-.56A1.46,1.46,0,0,1,23.64,44.27Zm-1.17,1.85.25.26.28-.2.43.5L23,47l-.25-.27-.28.21-.45-.5Z"/><path class="cls-2" d="M25,45a1.41,1.41,0,0,1,.07.45,2.42,2.42,0,0,1-.44,1.14,1.44,1.44,0,0,1-.32.33.48.48,0,0,1-.3.11c-.09,0-.2-.08-.34-.21a3.15,3.15,0,0,1-.4-.59l.21.07.19,0a1,1,0,0,0,.58-.18,1.44,1.44,0,0,0,.22-.19,2.34,2.34,0,0,0,.19-.3l0,0c0-.09-.06-.15-.08-.2s-.07-.12-.1-.19a1.18,1.18,0,0,0-.11-.18.61.61,0,0,0-.1-.14l.45-.48A3.35,3.35,0,0,1,25,45Z"/><path class="cls-2" d="M28.34,45.77l-1,0-.14-.24-.15.25-.94,0h-.2a.33.33,0,0,1-.19,0c-.1,0-.14-.14-.15-.28a1.23,1.23,0,0,1,0-.27,2.59,2.59,0,0,1,.11-.36l0-.06a.39.39,0,0,0,.1.16.34.34,0,0,0,.12.06h.21l.72,0-.45-.73.31-.6.83,1.3.71,0Z"/><path class="cls-2" d="M28.28,45.75,28.17,45l1-.14L29,44.56l.4-.53.33.74.72-.11.11.77-1.08.15-.11-.22-.14.26Zm1.09-2.18-.31-.19-.22.26-.54-.38.31-.39.3.21.23-.28.56.37Z"/><path class="cls-2" d="M31.46,42.93l-.11,0,.24.79.05.16,0,.12v0a1.81,1.81,0,0,1,0,.19.65.65,0,0,1,0,.19l0,.34c0,.12,0,.22,0,.28a1.19,1.19,0,0,1,0,.17l-1.16.26-.17-.76,1-.21-.51-1.66h0a.18.18,0,0,1-.16-.12.24.24,0,0,1,0-.14l0-.1.16-.44a.3.3,0,0,0,0,.09.35.35,0,0,0,.05.08l.11.06.11,0,.49.09Z"/><path class="cls-2" d="M32.6,42.47l-.08.16,0,0,.13.36.08.27c0,.11.07.19.08.23a2.29,2.29,0,0,1,.12.83,1.9,1.9,0,0,1-.26.73c0-.07,0-.15,0-.24s0-.17-.07-.25,0-.15-.09-.28l-.09-.27-.29-.8-.22-.62,0-.1.38-.89Z"/></svg>