<svg id="Layer_1" data-name="Layer 1" xmlns="http://www.w3.org/2000/svg" viewBox="0 0 17 17"><defs><style>.cls-1{fill:#fff;}.cls-2{fill:none;stroke:#fff;stroke-miterlimit:10;stroke-width:0.25px;}</style></defs><title>icons</title><path class="cls-1" d="M6.23,11.15A2.53,2.53,0,0,1,3.92,9.41,2.58,2.58,0,0,0,5,9.37,2.55,2.55,0,0,1,3,6.88a2.58,2.58,0,0,0,1.13.31,2.49,2.49,0,0,1-.76-3.32,7.1,7.1,0,0,0,5.13,2.6c0-.15,0-.28,0-.42a2.49,2.49,0,0,1,4.18-2,.27.27,0,0,0,.3.08,5.07,5.07,0,0,0,1.29-.5l.12-.06a2.74,2.74,0,0,1-1,1.37l.44-.08.46-.13.45-.16a4.5,4.5,0,0,1-1,1.12.44.44,0,0,0-.18.4,7.23,7.23,0,0,1-1.68,4.69A6.55,6.55,0,0,1,8,13.12a7.12,7.12,0,0,1-5.4-.9l-.05,0A5.12,5.12,0,0,0,6.23,11.15Z"/><circle class="cls-2" cx="8.63" cy="8.35" r="8.07"/></svg>