<?xml version="1.0" encoding="utf-8"?>
<!-- Generator: Adobe Illustrator 23.0.3, SVG Export Plug-In . SVG Version: 6.00 Build 0)  -->
<svg version="1.1" id="Layer_1" xmlns="http://www.w3.org/2000/svg" xmlns:xlink="http://www.w3.org/1999/xlink" x="0px" y="0px"
	 viewBox="0 0 103 103" style="enable-background:new 0 0 103 103;" xml:space="preserve">
<style type="text/css">
	.st0{fill:none;stroke:#FFFFFF;stroke-miterlimit:10;}
	.st1{fill:none;stroke:#FFFFFF;stroke-width:0.5;stroke-miterlimit:10;}
	.st2{fill:#FFFFFF;}
	.st3{fill:#FFFFFF;stroke:#FFFFFF;stroke-width:0.5;stroke-miterlimit:10;}
</style>
<title>Result-ICON</title>
<path class="st0" d="M51.2,101.2L51.2,101.2c27.6,0,50-22.4,50-50v0c0-27.6-22.4-50-50-50h0c-27.6,0-50,22.4-50,50v0
	C1.2,78.9,23.6,101.2,51.2,101.2z"/>
<path class="st1" d="M63.9,48.8"/>
<polygon class="st2" points="56.4,47.3 64.5,53.1 74.9,36.9 71.4,34.6 63.3,46.2 59.9,43.9 "/>
<path class="st3" d="M33.2,65.1"/>
<path class="st1" d="M54.9,62.7"/>
<g>
	<path class="st1" d="M104.6,68.5"/>
	<polygon class="st0" points="76.6,71.4 76.6,83.6 24.2,83.6 24.2,19 36.5,19 36.5,23.9 64.4,23.9 64.4,19 76.6,19 76.6,28.5 	"/>
</g>
<path class="st0" d="M67,38v-8.6H31.4v35.7H67V52.7"/>
<rect x="31.5" y="68.3" class="st0" width="35.7" height="3.7"/>
<rect x="31.5" y="74.9" class="st0" width="35.7" height="3.7"/>
<line class="st3" x1="36.7" y1="36.1" x2="39.8" y2="36.1"/>
<line class="st3" x1="36.7" y1="38.6" x2="47.1" y2="38.6"/>
<line class="st3" x1="36.7" y1="40.9" x2="45.4" y2="40.9"/>
<line class="st3" x1="36.7" y1="43.1" x2="49.5" y2="43.1"/>
</svg>
