<svg id="Layer_1" data-name="Layer 1" xmlns="http://www.w3.org/2000/svg" viewBox="0 0 104 104"><defs><style>.cls-1{fill:#000576;stroke:#fff;stroke-miterlimit:10;stroke-width:1.5px;}.cls-2{fill:#fff;}</style></defs><title>Medical Information</title><path class="cls-1" d="M52,2h0a50,50,0,0,1,50,50h0a50,50,0,0,1-50,50h0A50,50,0,0,1,2,52H2A50,50,0,0,1,52,2Z"/><path class="cls-2" d="M82.22,50.49c.11-.48.17-1,.24-1.47a12.67,12.67,0,0,1,.44-2.24c1.26-3.8,2.62-7.65,3.94-11.36l.56-1.58a9.92,9.92,0,0,0,.46-5A6.26,6.26,0,0,0,86.71,26c-1.62-2-3.88-3.15-6.45-4.36a1.56,1.56,0,0,0-.67-.15,2.26,2.26,0,0,0-2,1.75,1.52,1.52,0,0,0,.23,1.2,2.06,2.06,0,0,0,1.36.92,1.37,1.37,0,0,0,.29,0,5.63,5.63,0,0,0,1.49-.3l.41-.12a2.24,2.24,0,0,1,.51-.07,2,2,0,0,1,1.52.7,7.94,7.94,0,0,1,2,3.92,9.83,9.83,0,0,1-.78,5.14,47.83,47.83,0,0,0-1.55,5.47,48.41,48.41,0,0,1-1.66,5.77c-.14.36-.55.5-1.07.69-.15,0-.4.14-.5.19s-.21.32-.32.48a3.9,3.9,0,0,0-.62,1.14c0,.2-.11.4-.16.6a10.52,10.52,0,0,1-1.49,3.7,4.24,4.24,0,0,1-3.39,1.88,3.92,3.92,0,0,1-3.31-2,4.18,4.18,0,0,1-.5-2.33,4.32,4.32,0,0,0-.24-1.66c-.07-.16-.12-.34-.18-.52a1.58,1.58,0,0,0-.29-.65l-.47-.37A5.39,5.39,0,0,1,67,45.13c-.3-.82-.6-1.64-.89-2.47l-1-3c-.88-2.54-1.8-5.18-2.61-7.8a5.66,5.66,0,0,1,2.35-6.37,2.14,2.14,0,0,1,1.24-.43,2.33,2.33,0,0,1,.86.18,4.27,4.27,0,0,0,1.52.3l.32,0a2,2,0,0,0,1.37-.75,2.16,2.16,0,0,0,.39-1.53,1.65,1.65,0,0,0-1.66-1.61,2.59,2.59,0,0,0-.47.05c-2.33.47-4.75,1.1-6.37,3.15a8.83,8.83,0,0,0-1.65,8.45c.3,1,.65,2,1,3,.44,1.27.89,2.59,1.26,3.91.26.92.59,1.84.92,2.73A19.23,19.23,0,0,1,65,48.62a11.43,11.43,0,0,0,2.79,6.71C68.9,56.71,70.21,58,72.17,58h.5l0,.5A29.34,29.34,0,0,1,49.28,86.61a29.93,29.93,0,0,1-6,.62A29.43,29.43,0,0,1,14.44,62.92c-.89-4.88.14-12.67,2.3-17.38,3.59-7.82,9.78-13.19,18.4-16a1,1,0,0,0,.75-1.21,1,1,0,0,0-1-.9,1.15,1.15,0,0,0-.31,0c-11.52,2.91-23.39,15-22.71,31.76a31.63,31.63,0,0,0,28.26,30,35,35,0,0,0,3.66.2,30,30,0,0,0,17.1-5.27c8.81-6,13.57-14.59,14.16-25.65l0-.4.4-.06A6.79,6.79,0,0,0,79.32,56,11,11,0,0,0,82.22,50.49Z"/><path class="cls-2" d="M45.58,38.49V71.63a1.81,1.81,0,0,1-1.8,1.8h0a1.81,1.81,0,0,1-1.8-1.8V38.49a1.81,1.81,0,0,1,1.8-1.8h0A1.8,1.8,0,0,1,45.58,38.49Z"/><path class="cls-2" d="M43.78,25a2.34,2.34,0,0,1,1.74.73,2.37,2.37,0,0,1,.73,1.74,2.47,2.47,0,0,1-.72,1.74,2.38,2.38,0,0,1-3.49,0,2.42,2.42,0,0,1-.74-1.74,2.33,2.33,0,0,1,.75-1.75A2.43,2.43,0,0,1,43.78,25Z"/></svg>