<?xml version="1.0" encoding="UTF-8"?><svg id="Layer_1" xmlns="http://www.w3.org/2000/svg" viewBox="0 0 51 50"><defs><style>.cls-1,.cls-2,.cls-3,.cls-4,.cls-5{fill:none;}.cls-2{stroke:#dbdbdb;stroke-width:3px;}.cls-2,.cls-3,.cls-6,.cls-4,.cls-5{stroke-miterlimit:10;}.cls-7,.cls-8{fill:#001a63;}.cls-9{fill:#fff;}.cls-10,.cls-6{fill:#dbdbdb;}.cls-3,.cls-6{stroke-width:.1px;}.cls-3,.cls-6,.cls-4,.cls-5{stroke:#001a63;}.cls-8{font-family:Arial-BoldMT, Arial;font-size:5px;font-weight:700;}.cls-4{stroke-width:.2px;}.cls-5{stroke-width:.5px;}</style></defs><path class="cls-5" d="m44,9.7l-5,4.2c8,7.6,8.3,20.3.7,28.3-3.7,3.9-8.8,6.2-14.2,6.2-11,0-19.9-9.2-19.8-20.2,0-5.4,2.3-10.5,6.1-14.2l-5.1-4C-1.5,20.4.2,35.4,10.6,43.6c10.4,8.2,25.4,6.5,33.6-3.9,7-8.8,6.9-21.3-.2-30"/><path class="cls-5" d="m44.4,10.2s5,5.7,4.8,15.6c-.2,2.1-.5,4.1-1,6.1-1.1,3.2-3.4,9.6-12.5,14.5,0,0,12-6.8,12.4-19.2,0-4.2-.9-8.3-2.9-12l-.8-5Z"/><path class="cls-5" d="m39.6,14.6c5.8,5.4,5.9,13.8,5.9,13.8,0,3.7-.9,7.3-2.9,10.5-3.6,6-10.1,9.7-17.1,9.7,4.2.5,8.5-.7,11.8-3.3,5.4-3.6,8.8-9.5,9.3-15.9.4-4.4-.6-8.9-2.9-12.7l-4.6-2.5.5.4Z"/><path class="cls-5" d="m5.7,28.6c0,10.9,9,19.7,19.9,19.6,10.9,0,19.7-9,19.6-19.9,0-10.9-8.9-19.6-19.7-19.6S5.7,17.6,5.7,28.6"/><path class="cls-5" d="m45.2,28.6c0,11-8.9,19.9-19.9,19.9S5.3,39.6,5.3,28.6,14.2,8.6,25.2,8.6s20,8.9,20,20h0Z"/><path class="cls-5" d="m49.5,24.8c0,13.3-10.7,24-24,24S1.5,38.1,1.5,24.8,12.2.8,25.5.8s24,10.7,24,24Z"/><line class="cls-5" x1="45.2" y1="15" x2="43.7" y2="16.6"/><path class="cls-5" d="m26.7,48.8c-13.4.5-24.6-9.9-25.1-23.3,0-1.1,0-2.2.1-3.2.5-4.6,2.3-9,5.3-12.6"/><path class="cls-5" d="m16.7,46.3c3.1,1.5,6.5,2.2,10,2"/><path class="cls-5" d="m6.6,10.2S1.6,15.9,1.8,25.8c.2,2.1.5,4.1,1,6.1,1.1,3.2,3.4,9.6,12.5,14.5,0,0-12-6.8-12.4-19.2,0-4.2.9-8.3,2.9-12l.8-5Z"/><path class="cls-5" d="m25.5,48.5c-4.2.5-8.5-.7-11.8-3.3-5.4-3.6-8.8-9.5-9.3-15.9-.4-4.5.6-8.9,2.9-12.7l4.6-2.5"/><line class="cls-5" x1="5.7" y1="15" x2="7.3" y2="16.6"/><circle class="cls-2" cx="25.4" cy="27.3" r="5.5"/><polygon class="cls-7" points="25.6 20.2 25.2 20.2 25.1 19.5 25.6 19.5 25.6 20.2"/><polygon class="cls-7" points="26.1 20.3 25.7 20.2 25.7 19.5 26.2 19.5 26.1 20.3"/><polygon class="cls-7" points="26.7 20.3 26.3 20.3 26.4 19.5 26.8 19.6 26.7 20.3"/><polygon class="cls-7" points="27.2 20.5 26.8 20.4 27 19.6 27.4 19.8 27.2 20.5"/><polygon class="cls-7" points="27.7 20.6 27.4 20.5 27.5 19.8 28 19.9 27.7 20.6"/><polygon class="cls-7" points="28.2 20.8 27.9 20.7 28.1 20 28.6 20.2 28.2 20.8"/><polygon class="cls-7" points="28.7 21.1 28.4 20.9 28.7 20.2 29.1 20.4 28.7 21.1"/><polygon class="cls-7" points="29.2 21.4 28.9 21.2 29.2 20.5 29.6 20.8 29.2 21.4"/><polygon class="cls-7" points="29.7 21.7 29.3 21.5 29.7 20.8 30.1 21.1 29.7 21.7"/><polygon class="cls-7" points="30.1 22 29.8 21.8 30.2 21.2 30.6 21.5 30.1 22"/><polygon class="cls-7" points="30.5 22.4 30.2 22.2 30.7 21.6 31 21.9 30.5 22.4"/><polygon class="cls-7" points="30.8 22.8 30.6 22.6 31.1 22 31.4 22.4 30.8 22.8"/><polygon class="cls-7" points="31.2 23.3 30.9 23 31.5 22.5 31.8 22.9 31.2 23.3"/><polygon class="cls-7" points="31.5 23.8 31.3 23.4 31.9 23 32.1 23.4 31.5 23.8"/><polygon class="cls-7" points="31.7 24.2 31.5 23.9 32.2 23.5 32.4 23.9 31.7 24.2"/><polygon class="cls-7" points="31.9 24.7 31.8 24.4 32.5 24.1 32.6 24.5 31.9 24.7"/><polygon class="cls-7" points="32.1 25.3 32 24.9 32.7 24.6 32.8 25.1 32.1 25.3"/><polygon class="cls-7" points="32.3 25.8 32.2 25.4 32.9 25.2 33 25.7 32.3 25.8"/><polygon class="cls-7" points="32.3 26.4 32.3 26 33 25.8 33.1 26.3 32.3 26.4"/><polygon class="cls-7" points="32.4 26.9 32.4 26.5 33.1 26.4 33.1 26.9 32.4 26.9"/><polygon class="cls-7" points="32.4 27.5 32.4 27.1 33.1 27 33.1 27.5 32.4 27.5"/><polygon class="cls-7" points="32.4 28 32.4 27.6 33.1 27.6 33.1 28.1 32.4 28"/><polygon class="cls-7" points="32.3 28.6 32.3 28.2 33.1 28.3 33 28.7 32.3 28.6"/><polygon class="cls-7" points="32.2 29.1 32.3 28.7 33 28.9 32.9 29.3 32.2 29.1"/><polygon class="cls-7" points="32 29.6 32.1 29.3 32.8 29.4 32.7 29.9 32 29.6"/><polygon class="cls-7" points="31.8 30.1 31.9 29.8 32.6 30 32.5 30.5 31.8 30.1"/><polygon class="cls-7" points="31.5 30.6 31.7 30.3 32.4 30.6 32.2 31 31.5 30.6"/><polygon class="cls-7" points="31.3 31.1 31.5 30.8 32.1 31.1 31.9 31.5 31.3 31.1"/><polygon class="cls-7" points="30.9 31.6 31.2 31.3 31.8 31.7 31.5 32 30.9 31.6"/><polygon class="cls-7" points="30.6 32 30.8 31.7 31.4 32.1 31.1 32.5 30.6 32"/><polygon class="cls-7" points="30.2 32.4 30.5 32.1 31 32.6 30.7 32.9 30.2 32.4"/><polygon class="cls-7" points="29.8 32.7 30.1 32.5 30.6 33 30.2 33.3 29.8 32.7"/><polygon class="cls-7" points="29.3 33.1 29.7 32.8 30.1 33.4 29.7 33.7 29.3 33.1"/><polygon class="cls-7" points="28.9 33.4 29.2 33.2 29.6 33.8 29.2 34 28.9 33.4"/><polygon class="cls-7" points="28.4 33.6 28.7 33.5 29.1 34.1 28.7 34.3 28.4 33.6"/><polygon class="cls-7" points="27.9 33.8 28.2 33.7 28.6 34.4 28.1 34.5 27.9 33.8"/><polygon class="cls-7" points="27.4 34 27.7 33.9 28 34.6 27.5 34.7 27.4 34"/><polygon class="cls-7" points="26.8 34.2 27.2 34.1 27.4 34.8 27 34.9 26.8 34.2"/><polygon class="cls-7" points="26.3 34.2 26.7 34.2 26.8 34.9 26.4 35 26.3 34.2"/><polygon class="cls-7" points="25.7 34.3 26.1 34.3 26.2 35 25.7 35 25.7 34.3"/><polygon class="cls-7" points="25.2 34.3 25.6 34.3 25.6 35 25.1 35 25.2 34.3"/><polygon class="cls-7" points="24.6 34.3 25 34.3 25 35 24.5 35 24.6 34.3"/><polygon class="cls-7" points="24.1 34.2 24.5 34.2 24.4 35 23.9 34.9 24.1 34.2"/><polygon class="cls-7" points="23.5 34.1 23.9 34.2 23.8 34.9 23.3 34.8 23.5 34.1"/><polygon class="cls-7" points="23 33.9 23.4 34 23.2 34.7 22.7 34.6 23 33.9"/><polygon class="cls-7" points="22.5 33.7 22.8 33.8 22.6 34.5 22.2 34.4 22.5 33.7"/><polygon class="cls-7" points="22 33.5 22.3 33.6 22 34.3 21.6 34.1 22 33.5"/><polygon class="cls-7" points="21.5 33.2 21.9 33.4 21.5 34 21.1 33.8 21.5 33.2"/><polygon class="cls-7" points="21.1 32.8 21.4 33.1 21 33.7 20.6 33.4 21.1 32.8"/><polygon class="cls-7" points="20.7 32.5 20.9 32.7 20.5 33.3 20.1 33 20.7 32.5"/><polygon class="cls-7" points="20.3 32.1 20.5 32.4 20 32.9 19.7 32.6 20.3 32.1"/><polygon class="cls-7" points="19.9 31.7 20.1 32 19.6 32.5 19.3 32.1 19.9 31.7"/><polygon class="cls-7" points="19.6 31.3 19.8 31.6 19.2 32 18.9 31.7 19.6 31.3"/><polygon class="cls-7" points="19.3 30.8 19.5 31.1 18.9 31.5 18.6 31.1 19.3 30.8"/><polygon class="cls-7" points="19 30.3 19.2 30.6 18.5 31 18.3 30.6 19 30.3"/><polygon class="cls-7" points="18.8 29.8 18.9 30.1 18.3 30.5 18.1 30 18.8 29.8"/><polygon class="cls-7" points="18.6 29.3 18.7 29.6 18 29.9 17.9 29.4 18.6 29.3"/><polygon class="cls-7" points="18.5 28.7 18.6 29.1 17.9 29.3 17.7 28.9 18.5 28.7"/><polygon class="cls-7" points="18.4 28.2 18.4 28.6 17.7 28.7 17.6 28.3 18.4 28.2"/><polygon class="cls-7" points="18.3 27.6 18.4 28 17.6 28.1 17.6 27.6 18.3 27.6"/><polygon class="cls-7" points="18.3 27.1 18.3 27.5 17.6 27.5 17.6 27 18.3 27.1"/><polygon class="cls-7" points="18.4 26.5 18.3 26.9 17.6 26.9 17.6 26.4 18.4 26.5"/><polygon class="cls-7" points="18.4 26 18.4 26.4 17.6 26.3 17.7 25.8 18.4 26"/><polygon class="cls-7" points="18.6 25.4 18.5 25.8 17.7 25.7 17.9 25.2 18.6 25.4"/><polygon class="cls-7" points="18.7 24.9 18.6 25.3 17.9 25.1 18 24.6 18.7 24.9"/><polygon class="cls-7" points="18.9 24.4 18.8 24.7 18.1 24.5 18.3 24.1 18.9 24.4"/><polygon class="cls-7" points="19.2 23.9 19 24.2 18.3 23.9 18.5 23.5 19.2 23.9"/><polygon class="cls-7" points="19.5 23.4 19.3 23.8 18.6 23.4 18.9 23 19.5 23.4"/><polygon class="cls-7" points="19.8 23 19.6 23.3 18.9 22.9 19.2 22.5 19.8 23"/><polygon class="cls-7" points="20.1 22.6 19.9 22.8 19.3 22.4 19.6 22 20.1 22.6"/><polygon class="cls-7" points="20.5 22.2 20.3 22.4 19.7 21.9 20 21.6 20.5 22.2"/><polygon class="cls-7" points="20.9 21.8 20.7 22 20.1 21.5 20.5 21.2 20.9 21.8"/><polygon class="cls-7" points="21.4 21.5 21.1 21.7 20.6 21.1 21 20.8 21.4 21.5"/><polygon class="cls-7" points="21.9 21.2 21.5 21.4 21.1 20.8 21.5 20.5 21.9 21.2"/><polygon class="cls-7" points="22.3 20.9 22 21.1 21.6 20.4 22 20.2 22.3 20.9"/><polygon class="cls-7" points="22.8 20.7 22.5 20.8 22.2 20.2 22.6 20 22.8 20.7"/><polygon class="cls-7" points="23.4 20.5 23 20.6 22.7 19.9 23.2 19.8 23.4 20.5"/><polygon class="cls-7" points="23.9 20.4 23.5 20.5 23.3 19.8 23.8 19.6 23.9 20.4"/><polygon class="cls-7" points="24.5 20.3 24.1 20.3 23.9 19.6 24.4 19.5 24.5 20.3"/><polygon class="cls-7" points="25 20.2 24.6 20.3 24.5 19.5 25 19.5 25 20.2"/><polygon class="cls-7" points="25.6 20.2 25.2 20.2 25.1 19.5 25.6 19.5 25.6 20.2"/><polygon class="cls-7" points="28.2 19.8 28.6 20 28.9 19.3 28.5 19.2 28.2 19.8"/><polygon class="cls-7" points="28.8 20.1 29.2 20.3 29.5 19.6 29.1 19.4 28.8 20.1"/><polygon class="cls-7" points="29.4 20.4 29.7 20.6 30.1 20 29.7 19.7 29.4 20.4"/><polygon class="cls-7" points="29.9 20.7 30.2 21 30.7 20.4 30.3 20.1 29.9 20.7"/><polygon class="cls-7" points="30.4 21.1 30.7 21.4 31.2 20.8 30.8 20.5 30.4 21.1"/><polygon class="cls-7" points="30.9 21.5 31.1 21.8 31.7 21.3 31.4 21 30.9 21.5"/><polygon class="cls-7" points="31.3 22 31.6 22.3 32.1 21.8 31.8 21.5 31.3 22"/><polygon class="cls-7" points="31.7 22.4 31.9 22.8 32.5 22.4 32.3 22 31.7 22.4"/><polygon class="cls-7" points="32 22.9 32.3 23.3 32.9 22.9 32.7 22.5 32 22.9"/><polygon class="cls-7" points="32.4 23.5 32.6 23.8 33.2 23.5 33 23.1 32.4 23.5"/><polygon class="cls-7" points="32.6 24 32.8 24.4 33.5 24.2 33.3 23.7 32.6 24"/><polygon class="cls-7" points="32.9 24.6 33 25 33.7 24.8 33.6 24.4 32.9 24.6"/><polygon class="cls-7" points="33.1 25.2 33.2 25.6 33.9 25.5 33.8 25 33.1 25.2"/><polygon class="cls-7" points="33.2 25.8 33.3 26.2 34 26.1 33.9 25.7 33.2 25.8"/><polygon class="cls-7" points="33.3 26.5 33.3 26.9 34.1 26.8 34 26.4 33.3 26.5"/><polygon class="cls-7" points="33.3 27.1 33.3 27.5 34.1 27.5 34.1 27 33.3 27.1"/><polygon class="cls-7" points="33.3 27.7 33.3 28.1 34 28.2 34.1 27.7 33.3 27.7"/><polygon class="cls-7" points="33.3 28.3 33.2 28.7 33.9 28.9 34 28.4 33.3 28.3"/><polygon class="cls-7" points="33.2 28.9 33.1 29.3 33.8 29.5 33.9 29.1 33.2 28.9"/><polygon class="cls-7" points="33 29.5 32.9 29.9 33.6 30.2 33.7 29.7 33 29.5"/><polygon class="cls-7" points="32.8 30.1 32.6 30.5 33.3 30.8 33.5 30.4 32.8 30.1"/><polygon class="cls-7" points="32.6 30.7 32.4 31.1 33 31.4 33.2 31 32.6 30.7"/><polygon class="cls-7" points="32.3 31.3 32 31.6 32.7 32 32.9 31.6 32.3 31.3"/><polygon class="cls-7" points="31.9 31.8 31.7 32.1 32.3 32.6 32.5 32.2 31.9 31.8"/><polygon class="cls-7" points="31.6 32.3 31.3 32.6 31.8 33.1 32.1 32.7 31.6 32.3"/><polygon class="cls-7" points="31.1 32.8 30.9 33.1 31.4 33.6 31.7 33.3 31.1 32.8"/><polygon class="cls-7" points="30.7 33.2 30.4 33.5 30.8 34 31.2 33.7 30.7 33.2"/><polygon class="cls-7" points="30.2 33.6 29.9 33.8 30.3 34.5 30.7 34.2 30.2 33.6"/><polygon class="cls-7" points="29.7 34 29.4 34.2 29.7 34.8 30.1 34.6 29.7 34"/><polygon class="cls-7" points="29.2 34.3 28.8 34.5 29.1 35.1 29.5 34.9 29.2 34.3"/><polygon class="cls-7" points="28.6 34.6 28.2 34.7 28.5 35.4 28.9 35.2 28.6 34.6"/><polygon class="cls-7" points="28 34.8 27.6 34.9 27.8 35.6 28.3 35.5 28 34.8"/><polygon class="cls-7" points="27.4 35 27 35.1 27.2 35.8 27.6 35.7 27.4 35"/><polygon class="cls-7" points="26.8 35.1 26.4 35.2 26.5 35.9 27 35.8 26.8 35.1"/><polygon class="cls-7" points="26.2 35.2 25.8 35.2 25.8 36 26.3 35.9 26.2 35.2"/><polygon class="cls-7" points="25.6 35.2 25.2 35.2 25.1 36 25.6 36 25.6 35.2"/><polygon class="cls-7" points="24.9 35.2 24.5 35.2 24.5 35.9 24.9 36 24.9 35.2"/><polygon class="cls-7" points="24.3 35.2 23.9 35.1 23.8 35.8 24.2 35.9 24.3 35.2"/><polygon class="cls-7" points="23.7 35.1 23.3 35 23.1 35.7 23.6 35.8 23.7 35.1"/><polygon class="cls-7" points="23.1 34.9 22.7 34.8 22.5 35.5 22.9 35.6 23.1 34.9"/><polygon class="cls-7" points="22.5 34.7 22.1 34.6 21.8 35.2 22.3 35.4 22.5 34.7"/><polygon class="cls-7" points="21.9 34.5 21.6 34.3 21.2 34.9 21.6 35.1 21.9 34.5"/><polygon class="cls-7" points="21.4 34.2 21 34 20.6 34.6 21 34.8 21.4 34.2"/><polygon class="cls-7" points="20.8 33.8 20.5 33.6 20.1 34.2 20.4 34.5 20.8 33.8"/><polygon class="cls-7" points="20.3 33.5 20 33.2 19.5 33.7 19.9 34 20.3 33.5"/><polygon class="cls-7" points="19.9 33.1 19.6 32.8 19.1 33.3 19.4 33.6 19.9 33.1"/><polygon class="cls-7" points="19.4 32.6 19.2 32.3 18.6 32.7 18.9 33.1 19.4 32.6"/><polygon class="cls-7" points="19 32.1 18.8 31.8 18.2 32.2 18.5 32.6 19 32.1"/><polygon class="cls-7" points="18.7 31.6 18.5 31.3 17.8 31.6 18.1 32 18.7 31.6"/><polygon class="cls-7" points="18.4 31.1 18.2 30.7 17.5 31 17.7 31.4 18.4 31.1"/><polygon class="cls-7" points="18.1 30.5 17.9 30.1 17.2 30.4 17.4 30.8 18.1 30.5"/><polygon class="cls-7" points="17.9 29.9 17.7 29.5 17 29.7 17.2 30.2 17.9 29.9"/><polygon class="cls-7" points="17.7 29.3 17.6 28.9 16.9 29.1 17 29.5 17.7 29.3"/><polygon class="cls-7" points="17.5 28.7 17.5 28.3 16.7 28.4 16.8 28.9 17.5 28.7"/><polygon class="cls-7" points="17.4 28.1 17.4 27.7 16.7 27.7 16.7 28.2 17.4 28.1"/><polygon class="cls-7" points="17.4 27.5 17.4 27.1 16.7 27 16.7 27.5 17.4 27.5"/><polygon class="cls-7" points="17.4 26.9 17.4 26.5 16.7 26.4 16.7 26.8 17.4 26.9"/><polygon class="cls-7" points="17.5 26.2 17.5 25.8 16.8 25.7 16.7 26.1 17.5 26.2"/><polygon class="cls-7" points="17.6 25.6 17.7 25.2 17 25 16.9 25.5 17.6 25.6"/><polygon class="cls-7" points="17.7 25 17.9 24.6 17.2 24.4 17 24.8 17.7 25"/><polygon class="cls-7" points="17.9 24.4 18.1 24 17.4 23.7 17.2 24.2 17.9 24.4"/><polygon class="cls-7" points="18.2 23.8 18.4 23.5 17.7 23.1 17.5 23.5 18.2 23.8"/><polygon class="cls-7" points="18.5 23.3 18.7 22.9 18.1 22.5 17.8 22.9 18.5 23.3"/><polygon class="cls-7" points="18.8 22.8 19 22.4 18.5 22 18.2 22.4 18.8 22.8"/><polygon class="cls-7" points="19.2 22.3 19.4 22 18.9 21.5 18.6 21.8 19.2 22.3"/><polygon class="cls-7" points="19.6 21.8 19.9 21.5 19.4 21 19.1 21.3 19.6 21.8"/><polygon class="cls-7" points="20 21.4 20.3 21.1 19.9 20.5 19.5 20.8 20 21.4"/><polygon class="cls-7" points="20.5 21 20.8 20.7 20.4 20.1 20.1 20.4 20.5 21"/><polygon class="cls-7" points="21 20.6 21.4 20.4 21 19.7 20.6 20 21 20.6"/><polygon class="cls-7" points="21.6 20.3 21.9 20.1 21.6 19.4 21.2 19.6 21.6 20.3"/><polygon class="cls-7" points="22.1 20 22.5 19.8 22.3 19.2 21.8 19.3 22.1 20"/><polygon class="cls-7" points="29.6 19.4 29.2 19.2 29.5 18.5 30 18.7 29.6 19.4"/><polygon class="cls-7" points="30.2 19.8 29.8 19.6 30.2 18.8 30.7 19.1 30.2 19.8"/><polygon class="cls-7" points="30.8 20.2 30.4 19.9 30.9 19.2 31.3 19.5 30.8 20.2"/><polygon class="cls-7" points="31.3 20.6 30.9 20.3 31.5 19.7 31.9 20 31.3 20.6"/><polygon class="cls-7" points="31.8 21.1 31.5 20.8 32 20.2 32.4 20.5 31.8 21.1"/><polygon class="cls-7" points="32.2 21.6 32 21.3 32.6 20.7 32.9 21.1 32.2 21.6"/><polygon class="cls-7" points="32.7 22.2 32.4 21.8 33.1 21.3 33.4 21.7 32.7 22.2"/><polygon class="cls-7" points="33 22.8 32.8 22.4 33.5 21.9 33.8 22.4 33 22.8"/><polygon class="cls-7" points="33.4 23.5 33.2 23.1 33.6 22.8 34.1 22.9 34.1 22.9 33.8 23.3 33.4 23.5"/><polygon class="cls-7" points="33.9 24.7 33.8 24.3 34.2 24.1 34.6 24.2 34.6 24.2 34.4 24.6 33.9 24.7"/><polygon class="cls-7" points="33.7 24.1 33.5 23.7 33.9 23.4 34.3 23.5 34.3 23.5 34.1 23.9 33.7 24.1"/><polygon class="cls-7" points="33.7 30.2 33.8 29.8 34.3 29.9 34.6 30.3 34.6 30.3 34.1 30.4 33.7 30.2"/><polygon class="cls-7" points="33.1 31.5 33.3 31.1 33.7 31.3 34 31.7 34 31.7 33.5 31.7 33.1 31.5"/><polygon class="cls-7" points="33.5 30.9 33.6 30.5 34.1 30.6 34.3 30.9 34.3 30.9 33.9 31.1 33.5 30.9"/><polygon class="cls-7" points="34 25.4 33.9 24.9 34.7 24.7 34.9 25.2 34 25.4"/><polygon class="cls-7" points="34.2 26.1 34.1 25.6 34.9 25.4 35 26 34.2 26.1"/><polygon class="cls-7" points="34.2 26.8 34.2 26.3 35 26.2 35.1 26.7 34.2 26.8"/><polygon class="cls-7" points="34.2 27.4 34.2 27 35.1 27 35.1 27.5 34.2 27.4"/><polygon class="cls-7" points="34.2 28.1 34.2 27.7 35.1 27.7 35 28.3 34.2 28.1"/><polygon class="cls-7" points="34.1 28.8 34.2 28.4 35 28.5 34.9 29 34.1 28.8"/><polygon class="cls-7" points="33.9 29.5 34 29.1 34.9 29.2 34.7 29.8 33.9 29.5"/><polygon class="cls-7" points="32.8 32 33 31.7 33.8 32.1 33.5 32.5 32.8 32"/><polygon class="cls-7" points="32.4 32.6 32.7 32.2 33.4 32.7 33.1 33.1 32.4 32.6"/><polygon class="cls-7" points="32 33.1 32.2 32.8 32.9 33.3 32.6 33.7 32 33.1"/><polygon class="cls-7" points="31.5 33.6 31.8 33.3 32.4 33.9 32 34.3 31.5 33.6"/><polygon class="cls-7" points="30.9 34.1 31.3 33.8 31.9 34.4 31.5 34.8 30.9 34.1"/><polygon class="cls-7" points="30.4 34.5 30.8 34.3 31.3 34.9 30.9 35.2 30.4 34.5"/><polygon class="cls-7" points="29.8 34.9 30.2 34.7 30.7 35.4 30.2 35.6 29.8 34.9"/><polygon class="cls-7" points="27.2 35.9 27.7 35.8 27.9 36.6 27.4 36.7 27.2 35.9"/><polygon class="cls-7" points="26.5 36 27 35.9 27.2 36.8 26.6 36.9 26.5 36"/><polygon class="cls-7" points="25.8 36.1 26.3 36 26.4 36.9 25.9 36.9 25.8 36.1"/><polygon class="cls-7" points="25.1 36.1 25.6 36.1 25.6 36.9 25.1 36.9 25.1 36.1"/><polygon class="cls-7" points="24.4 36 24.9 36.1 24.9 36.9 24.3 36.9 24.4 36"/><polygon class="cls-7" points="23.8 35.9 24.2 36 24.1 36.9 23.6 36.8 23.8 35.9"/><polygon class="cls-7" points="23.1 35.8 23.5 35.9 23.4 36.7 22.8 36.6 23.1 35.8"/><polygon class="cls-7" points="20.5 34.7 20.9 34.9 20.5 35.6 20.1 35.4 20.5 34.7"/><polygon class="cls-7" points="20 34.3 20.3 34.5 19.9 35.2 19.4 34.9 20 34.3"/><polygon class="cls-7" points="19.4 33.8 19.8 34.1 19.3 34.8 18.9 34.4 19.4 33.8"/><polygon class="cls-7" points="18.9 33.3 19.3 33.6 18.7 34.3 18.3 33.9 18.9 33.3"/><polygon class="cls-7" points="18.5 32.8 18.8 33.1 18.2 33.7 17.8 33.3 18.5 32.8"/><polygon class="cls-7" points="18.1 32.2 18.3 32.6 17.7 33.1 17.4 32.7 18.1 32.2"/><polygon class="cls-7" points="17.7 31.7 17.9 32 17.2 32.5 16.9 32.1 17.7 31.7"/><polygon class="cls-7" points="16.7 29.1 16.8 29.5 16 29.8 15.9 29.2 16.7 29.1"/><polygon class="cls-7" points="16.6 28.4 16.7 28.8 15.8 29 15.7 28.5 16.6 28.4"/><polygon class="cls-7" points="16.5 27.7 16.6 28.1 15.7 28.3 15.7 27.7 16.5 27.7"/><polygon class="cls-7" points="16.5 27 16.5 27.4 15.7 27.5 15.7 27 16.5 27"/><polygon class="cls-7" points="16.6 26.3 16.5 26.7 15.7 26.7 15.7 26.2 16.6 26.3"/><polygon class="cls-7" points="16.7 25.6 16.6 26.1 15.7 26 15.8 25.4 16.7 25.6"/><polygon class="cls-7" points="16.8 24.9 16.7 25.4 15.9 25.2 16 24.7 16.8 24.9"/><polygon class="cls-7" points="17.9 22.4 17.7 22.8 16.9 22.4 17.2 21.9 17.9 22.4"/><polygon class="cls-7" points="18.3 21.8 18.1 22.2 17.4 21.7 17.7 21.3 18.3 21.8"/><polygon class="cls-7" points="18.8 21.3 18.5 21.6 17.8 21.1 18.2 20.7 18.8 21.3"/><polygon class="cls-7" points="19.3 20.8 18.9 21.1 18.3 20.5 18.7 20.2 19.3 20.8"/><polygon class="cls-7" points="19.8 20.3 19.4 20.6 18.9 20 19.3 19.7 19.8 20.3"/><polygon class="cls-7" points="20.3 19.9 20 20.2 19.4 19.5 19.9 19.2 20.3 19.9"/><polygon class="cls-7" points="20.9 19.6 20.5 19.8 20.1 19.1 20.5 18.8 20.9 19.6"/><polygon class="cls-7" points="21.5 19.2 21.1 19.4 20.7 18.7 21.2 18.4 21.5 19.2"/><polygon class="cls-7" points="22.1 19 21.7 19.1 21.4 18.4 21.6 18.5 22.1 18.7 22.1 19"/><polygon class="cls-7" points="28.6 19 29 19.2 29.4 18.4 29.1 18.5 28.7 18.7 28.6 19"/><polygon class="cls-7" points="31.4 19.4 31 19.1 31.5 18.3 32 18.7 31.4 19.4"/><polygon class="cls-7" points="32 19.9 31.6 19.6 32.2 18.8 32.6 19.2 32 19.9"/><polygon class="cls-7" points="32.5 20.4 32.2 20.1 32.8 19.4 33.2 19.8 32.5 20.4"/><polygon class="cls-7" points="33 21 32.7 20.6 33.4 20 33.8 20.4 33 21"/><polygon class="cls-7" points="33.5 21.6 33.2 21.2 33.9 20.6 34.3 21.1 33.5 21.6"/><polygon class="cls-7" points="35.1 25.9 35.1 25.4 36 25.2 36.1 25.8 35.1 25.9"/><polygon class="cls-7" points="35.2 26.7 35.2 26.2 36.1 26.1 36.2 26.7 35.2 26.7"/><polygon class="cls-7" points="35.2 27.5 35.2 27 36.2 26.9 36.2 27.5 35.2 27.5"/><polygon class="cls-7" points="35.2 28.3 35.2 27.7 36.2 27.8 36.1 28.4 35.2 28.3"/><polygon class="cls-7" points="35.1 29 35.1 28.5 36.1 28.6 36 29.2 35.1 29"/><polygon class="cls-7" points="33.2 33.2 33.5 32.8 34.3 33.3 33.9 33.8 33.2 33.2"/><polygon class="cls-7" points="32.7 33.8 33 33.4 33.8 34 33.4 34.5 32.7 33.8"/><polygon class="cls-7" points="32.2 34.4 32.5 34 33.2 34.7 32.8 35.1 32.2 34.4"/><polygon class="cls-7" points="31.6 34.9 32 34.6 32.6 35.3 32.2 35.6 31.6 34.9"/><polygon class="cls-7" points="31 35.4 31.4 35.1 32 35.8 31.5 36.1 31 35.4"/><polygon class="cls-7" points="26.7 37 27.2 36.9 27.3 37.9 26.8 37.9 26.7 37"/><polygon class="cls-7" points="25.9 37.1 26.4 37 26.5 38 25.9 38 25.9 37.1"/><polygon class="cls-7" points="25.1 37.1 25.6 37.1 25.7 38 25.1 38 25.1 37.1"/><polygon class="cls-7" points="24.3 37 24.8 37.1 24.8 38 24.2 38 24.3 37"/><polygon class="cls-7" points="23.6 36.9 24.1 37 24 37.9 23.4 37.9 23.6 36.9"/><polygon class="cls-7" points="19.4 35.1 19.8 35.4 19.3 36.1 18.8 35.8 19.4 35.1"/><polygon class="cls-7" points="18.8 34.6 19.2 34.9 18.6 35.6 18.1 35.3 18.8 34.6"/><polygon class="cls-7" points="18.2 34 18.6 34.4 17.9 35.1 17.5 34.7 18.2 34"/><polygon class="cls-7" points="17.7 33.4 18 33.8 17.3 34.5 17 34 17.7 33.4"/><polygon class="cls-7" points="17.2 32.8 17.5 33.2 16.8 33.8 16.4 33.3 17.2 32.8"/><polygon class="cls-7" points="15.6 28.5 15.7 29 14.7 29.2 14.6 28.6 15.6 28.5"/><polygon class="cls-7" points="15.5 27.7 15.6 28.3 14.6 28.4 14.6 27.8 15.5 27.7"/><polygon class="cls-7" points="15.5 27 15.5 27.5 14.6 27.5 14.6 26.9 15.5 27"/><polygon class="cls-7" points="15.6 26.2 15.5 26.7 14.6 26.7 14.6 26.1 15.6 26.2"/><polygon class="cls-7" points="15.7 25.4 15.6 25.9 14.6 25.8 14.7 25.2 15.7 25.4"/><polygon class="cls-7" points="17.5 21.2 17.2 21.6 16.4 21.1 16.8 20.6 17.5 21.2"/><polygon class="cls-7" points="18 20.6 17.7 21 17 20.4 17.3 20 18 20.6"/><polygon class="cls-7" points="18.6 20.1 18.2 20.4 17.5 19.8 17.9 19.4 18.6 20.1"/><polygon class="cls-7" points="19.2 19.6 18.8 19.9 18.1 19.2 18.6 18.8 19.2 19.6"/><polygon class="cls-7" points="19.8 19.1 19.4 19.4 18.8 18.7 19.3 18.3 19.8 19.1"/><polygon class="cls-7" points="32.7 19 32.3 18.6 32.8 18 33.3 18.4 32.7 19"/><polygon class="cls-7" points="33.4 19.6 33 19.2 33.5 18.6 34 19.1 33.4 19.6"/><polygon class="cls-7" points="33.9 20.2 33.6 19.8 34.1 19.3 34.6 19.8 33.9 20.2"/><polygon class="cls-7" points="36.4 26.6 36.3 26.1 37.1 26 37.2 26.6 36.4 26.6"/><polygon class="cls-7" points="36.4 27.5 36.4 26.9 37.2 26.9 37.2 27.5 36.4 27.5"/><polygon class="cls-7" points="36.3 28.4 36.4 27.8 37.2 27.8 37.1 28.5 36.3 28.4"/><polygon class="cls-7" points="33.6 34.6 33.9 34.2 34.6 34.6 34.1 35.1 33.6 34.6"/><polygon class="cls-7" points="33 35.2 33.4 34.8 34 35.3 33.5 35.8 33 35.2"/><polygon class="cls-7" points="32.3 35.8 32.7 35.4 33.3 36 32.8 36.4 32.3 35.8"/><polygon class="cls-7" points="26 38.2 26.5 38.2 26.6 39 26 39 26 38.2"/><polygon class="cls-7" points="25.1 38.2 25.6 38.2 25.7 39 25 39 25.1 38.2"/><polygon class="cls-7" points="24.2 38.2 24.8 38.2 24.8 39 24.1 39 24.2 38.2"/><polygon class="cls-7" points="18 35.4 18.4 35.8 17.9 36.4 17.4 36 18 35.4"/><polygon class="cls-7" points="17.4 34.8 17.8 35.2 17.2 35.8 16.8 35.3 17.4 34.8"/><polygon class="cls-7" points="16.8 34.2 17.2 34.6 16.6 35.1 16.2 34.6 16.8 34.2"/><polygon class="cls-7" points="14.3 27.8 14.4 28.3 13.6 28.5 13.6 27.8 14.3 27.8"/><polygon class="cls-7" points="14.3 26.9 14.3 27.5 13.5 27.5 13.5 26.9 14.3 26.9"/><polygon class="cls-7" points="14.4 26.1 14.3 26.6 13.6 26.6 13.6 26 14.4 26.1"/><polygon class="cls-7" points="17.2 19.8 16.8 20.2 16.2 19.8 16.6 19.3 17.2 19.8"/><polygon class="cls-7" points="17.8 19.2 17.4 19.6 16.8 19.1 17.2 18.6 17.8 19.2"/><polygon class="cls-7" points="18.4 18.6 18 19 17.4 18.4 17.9 18 18.4 18.6"/><polygon class="cls-7" points="34.1 18.9 33.7 18.4 34.3 17.7 34.8 18.3 34.1 18.9"/><polygon class="cls-7" points="37.5 27.5 37.5 26.9 38.4 26.8 38.4 27.6 37.5 27.5"/><polygon class="cls-7" points="33.8 36 34.2 35.6 34.9 36.2 34.4 36.7 33.8 36"/><polygon class="cls-7" points="25.1 39.4 25.7 39.4 25.7 40.3 25 40.3 25.1 39.4"/><polygon class="cls-7" points="16.5 35.6 17 36 16.4 36.7 15.9 36.1 16.5 35.6"/><polygon class="cls-7" points="13.3 26.8 13.2 27.5 12.4 27.5 12.4 26.7 13.3 26.8"/><polygon class="cls-7" points="17 18.5 16.6 18.9 15.9 18.3 16.4 17.8 17 18.5"/><polygon class="cls-7" points="29.2 35.2 29.6 35 29.8 35.4 29.8 35.9 29.8 35.9 29.4 35.6 29.2 35.2"/><polygon class="cls-7" points="27.9 35.7 28.3 35.6 28.5 36 28.3 36.5 28.3 36.5 28 36.2 27.9 35.7"/><polygon class="cls-7" points="28.5 35.5 28.9 35.3 29.2 35.7 29.1 36.2 29.1 36.2 28.7 35.9 28.5 35.5"/><polygon class="cls-7" points="22.4 35.6 22.8 35.7 22.7 36.2 22.4 36.4 22.4 36.4 22.2 36 22.4 35.6"/><polygon class="cls-7" points="21.2 35 21.6 35.2 21.4 35.7 21 35.9 21 35.9 20.9 35.4 21.2 35"/><polygon class="cls-7" points="21.8 35.3 22.2 35.5 22 35.9 21.7 36.2 21.7 36.2 21.6 35.8 21.8 35.3"/><polygon class="cls-7" points="17.4 31 17.6 31.4 17.2 31.7 16.7 31.6 16.7 31.6 16.9 31.2 17.4 31"/><polygon class="cls-7" points="16.9 29.7 17 30.2 16.6 30.3 16.1 30.2 16.1 30.2 16.4 29.9 16.9 29.7"/><polygon class="cls-7" points="17.1 30.4 17.3 30.8 16.8 31 16.4 30.9 16.4 30.9 16.6 30.6 17.1 30.4"/><polygon class="cls-7" points="17 24.3 16.9 24.7 16.4 24.6 16.1 24.2 16.1 24.2 16.6 24.1 17 24.3"/><polygon class="cls-7" points="17.6 23 17.4 23.4 16.9 23.2 16.7 22.8 16.7 22.8 17.2 22.8 17.6 23"/><polygon class="cls-7" points="17.3 23.6 17.1 24 16.6 23.9 16.4 23.5 16.4 23.5 16.8 23.4 17.3 23.6"/><path class="cls-7" d="m25.7,14.4c0-.2-.2-.4-.4-.4h0c-.2,0-.4.2-.4.4s.2.4.4.4h0c.3,0,.4,0,.4-.4Z"/><path class="cls-7" d="m24.2,14.5h0v.2c0,.1.1.1.2.1s.2-.1.2-.2h0c0-.1-.1-.2-.2-.2q-.1,0-.2,0Z"/><path class="cls-7" d="m26.2,14.4c-.1,0-.2.1-.2.2s.1.2.2.2.2-.1.2-.2c0,0,0-.2-.2-.2Z"/><path class="cls-7" d="m25.4,15.1c-.1,0-.2.1-.2.2s.1.2.2.2.2-.1.2-.2-.1-.2-.2-.2Z"/><path class="cls-7" d="m27.2,17.6c-.1,0-.2.1-.2.2s.1.2.2.2.2-.1.2-.2c0-.1-.1-.2-.2-.2Z"/><circle class="cls-7" cx="27.5" cy="17.2" r=".2"/><circle class="cls-7" cx="27.7" cy="16.5" r=".2"/><circle class="cls-7" cx="27.7" cy="15.7" r=".2"/><circle class="cls-7" cx="27" cy="14.6" r=".2"/><circle class="cls-7" cx="27.6" cy="15" r=".2"/><circle class="cls-7" cx="25.4" cy="16.1" r=".1"/><circle class="cls-7" cx="25.4" cy="16.8" r=".2"/><circle class="cls-7" cx="25.4" cy="17.5" r=".2"/><circle class="cls-7" cx="23.7" cy="14.6" r=".2"/><circle class="cls-7" cx="23.2" cy="15" r=".2"/><circle class="cls-7" cx="22.9" cy="15.7" r=".2"/><circle class="cls-7" cx="23.1" cy="16.5" r=".2"/><circle class="cls-7" cx="23.3" cy="17.2" r=".2"/><circle class="cls-7" cx="23.5" cy="17.7" r=".2"/><circle class="cls-7" cx="22.1" cy="18.1" r=".2"/><circle class="cls-7" cx="21.6" cy="17.5" r=".2"/><circle class="cls-7" cx="21.1" cy="16.2" r=".2"/><circle class="cls-7" cx="21.3" cy="16.9" r=".2"/><circle class="cls-7" cx="21.4" cy="15.6" r=".2"/><circle class="cls-7" cx="22" cy="15.4" r=".2"/><circle class="cls-7" cx="28.6" cy="18.1" r=".2"/><circle class="cls-7" cx="29.1" cy="17.5" r=".2"/><circle class="cls-7" cx="29.5" cy="16.9" r=".2"/><circle class="cls-7" cx="29.7" cy="16.2" r=".2"/><circle class="cls-7" cx="29.3" cy="15.6" r=".2"/><circle class="cls-7" cx="28.6" cy="15.4" r=".2"/><circle class="cls-7" cx="27.2" cy="18.8" r=".4"/><circle class="cls-7" cx="26.3" cy="18.7" r=".4"/><circle class="cls-7" cx="25.4" cy="18.6" r=".4"/><circle class="cls-7" cx="24.4" cy="18.7" r=".4"/><circle class="cls-7" cx="23.4" cy="18.8" r=".4"/><path class="cls-7" d="m22.7,19.5h0c.2-.1.3-.3.3-.5s-.1-.1-.2-.2-.2-.1-.3,0h-.1l.3.7Z"/><path class="cls-7" d="m28.4,18.8q-.1,0,0,0c-.2-.1-.5,0-.6.1v.2c0,.1.1.2.2.3h.1l.3-.6Z"/><path class="cls-4" d="m30.1,16.2s-.1-1.6-2.1-1.4c.1.2.5,1.4-.7,3.3,1.2-1.9.7-3.2.7-3.3h0s-.4-1.1-2-.8l-.3-.2.3-1-.7-.8-.7.8.3,1-.3.3s-1.4-.5-2,.7c0,0-1.8-.3-2,1.3-.1.4,0,.9.2,1.3s.6.9,1.3,1.2c.3-.1,3.1-1.4,6.3,0-3.1-1.4-6-.1-6.3,0h0l.5,1s2.4-1,5.3,0l.5-1c.1,0,1.8-1.1,1.7-2.4Zm-8.3.7c0-.1-.1-.1-.1-.2-.5-1.1.8-.9.8-.9,0,0-1.3-.1-.8.9q0,.1.1.2c.2.3.9,1.3,1,1.4,0,0-.8-1.1-1-1.4Zm.9-2.1s-.6,1.3.6,3.4c-1.3-2.1-.6-3.4-.6-3.4Zm2.1,3.1c.4-1.4.3-2.1.1-2.6-.3-.6-1.2-.6-1.4.1-.3.9.6,2.5.6,2.5,0,0-.9-1.6-.6-2.5.2-.7,1.1-.7,1.4-.1.2.5.3,1.2-.1,2.6Zm1.9.1c.6-1.3.7-2,.6-2.5-.2-.7-1.1-.8-1.4-.2-.5.9.1,2.6.1,2.6,0,0-.6-1.7-.1-2.6.3-.6,1.3-.5,1.4.2,0,.4,0,1.2-.6,2.5Zm2.4-1.3c0,.1-.1.1-.1.2-.2.3-.9,1.3-1,1.4.1-.1.8-1.1,1-1.4,0,0,0-.1.1-.2.5-1.1-.8-.9-.8-.9,0,0,1.3-.1.8.9Z"/><rect class="cls-9" x="23.4" y="26.6" width="5.4" height="1.4"/><rect class="cls-10" x="21.9" y="25.2" width="6.9" height="1.4"/><rect class="cls-10" x="21.9" y="28" width="6.9" height="1.4"/><path class="cls-3" d="m21.9,25.2v1.4h0v1.4h0v1.5h7v-1.4h0v-1.5h0v-1.5h-7Zm.1,0h6.8v1.3h-5.4l-1.4-1.3Zm1.5,1.5h5.3v1.3h-5.3v-1.3Zm5.3,2.7h-6.8l1.4-1.3h5.4v1.3Z"/><polygon class="cls-6" points="22 25.2 23.5 26.6 23.5 27.9 22 29.3 22 25.2"/><path id="SVGID_1_" class="cls-1" d="m11,11.2S25.6-.1,36.9,11.2"/><text class="cls-8" transform="translate(0 0)"><tspan x="0" y="0"> </tspan></text><polygon class="cls-7" points="13.6 5.8 13.6 5.3 13.1 5.3 13.1 5.7 12.7 5.7 12.7 6.2 13.2 6.2 13.2 5.8 13.6 5.8"/><polygon class="cls-7" points="16.9 7.7 16.4 7.6 16.4 8 16 8 16 8.5 16.5 8.6 16.5 8.2 16.9 8.2 16.9 7.7"/><path class="cls-7" d="m16.8,7.3l-.3-.5c-.1-.3-.2-.4-.3-.5,0-.1-.2-.2-.4-.3v.6c.2,0,.3,0,.3.1,0,0,.1.1.2.2l-1,.5h0s-.3.1-.3.1c0,0-.1,0-.2,0,0,0-.2-.2-.3-.3l-.9-1.1c0,.1,0,.3,0,.4,0,0,0,.2,0,.2,0,0,0,0,0,0s0,0,0,0h0c0,.2-.1.3-.1.4,0,.1,0,.2,0,.2,0,0,0,.2,0,.5,0,.2,0,.4,0,.4,0,0,0,0,0,0,0,0,.1,0,.2,0h.3c0-.1,0-.1.1-.1,0,0,0,0,.1-.2,0,0,0-.2,0-.4.2.2.3.4.5.5.1,0,.2.1.3,0,0,0,.1,0,.1,0h.1q0,0,0,0l1.3-.6Zm-2.7,0s0,0,0,0c0,0,0,0-.1,0,0,0,0,0,0,0,0,0,0,0,0,0,0,0,0,0,0-.1,0,0,0-.1.1-.2,0,0,0,0,0-.1l.2.2c0,0,0,.1,0,.2Z"/><path class="cls-7" d="m18.1,7.8c.1,0,.2-.1.3-.3,0-.2.2-.3.2-.5,0-.2,0-.3,0-.4l-.2-.7c0-.2-.1-.3-.2-.4-.1-.1-.2-.2-.4-.3v.6c.2,0,.3.1.4.2,0,0,.1.1.2.2,0,.1,0,.3-.2.6-.1.2-.2.4-.3.5,0,0-.2.2-.3.2,0,0-.2,0-.3,0s-.2,0-.4,0v.2c.3,0,.5.1.7.1.2,0,.3,0,.4,0Z"/><path class="cls-7" d="m18.4,4.6c.1.2.2.4.3.6,0,.2.1.3.2.5,0,.2.1.3.1.4,0,.1,0,.3,0,.5h.1c0-.2,0-.4,0-.5,0-.1,0-.2,0-.4,0-.2,0-.3-.2-.5,0-.2-.2-.5-.3-.7l-.4-.7c0,.2,0,.3,0,.5,0,.1,0,.2,0,.3,0,0,0,0,0,.2Z"/><path class="cls-7" d="m19.8,5.9c0,.1,0,.2.2.2,0,0,.1,0,.2,0l1-.2-.2-.7c0-.3-.2-.6-.3-.8-.1-.2-.3-.4-.5-.5v.7c.1,0,.3.1.3.2.1.1.2.3.3.5l-.8.2c0,0-.1,0-.2,0s0,0-.1,0h0c0,.1,0,.2,0,.3,0,0,0,.1,0,.2Z"/><path class="cls-7" d="m22.4,4.9c0,.1-.2.2-.2.3,0,0-.2.1-.3.2v.7c.4,0,.6,0,.7-.1.1,0,.3-.1.4-.2,0-.3,0-.4,0-.5h0c0-.1,0-.2,0-.3,0,0,0-.1-.2-.2,0-.2.1-.4.1-.6,0-.2,0-.4,0-.5h.2c0,0,0-.2,0-.2,0-.1,0-.2,0-.3-.2,0-.3,0-.4,0,0,0,0,0,0-.2h0c0,0,0,.2,0,.3,0,0,0,.2,0,.3,0,0,0,0,0,0,0,0,0,0,.1,0,0,.2,0,.3,0,.4,0,.2,0,.4,0,.5-.2-.2-.3-.4-.4-.4,0,0-.2-.2-.3-.3-.1-.1-.3-.3-.5-.4-.2-.1-.3-.2-.4-.2,0,0,0,0,0,0,0,0,0,0,0,.2,0,.2,0,.3,0,.5,0,.1,0,.2.1.2,0,0,.1,0,.2.1.1,0,.2,0,.2,0,0,0,0,0,0,0,0,0,0,0,0-.1.1,0,.2.2.3.2,0,0,.2.2.4.4Zm.2.2v.2c0,0,0,0,0,.1,0,0-.1,0-.2,0,0,0,.1-.1.2-.2,0,0,0,0,.1-.2Z"/><path class="cls-7" d="m22.2,7l.5-.2s0,0,0,0c0,0,0,0,0-.1,0,0-.1,0-.2,0,0,0,0,0-.2,0,0,0-.1,0-.1,0,0,0,0,0,0,0,0,0,0,0,0,0,0,0,0,0,.2,0,0,0,0,0,0,0,0,0,0,0,0,0,0,0,0,0,0,0,0,0,0,0,0,0,0,0-.2,0-.3.2,0,0,0,0,0,0,0,0,0,0,0,0,0,0,0,0,0,0,0,0,0,0,.1,0,0,0,0,0-.1,0,0,0,0,0,0,.1Z"/><path class="cls-7" d="m23.9,4.3c0,.2,0,.4,0,.5,0,.2,0,.3,0,.4,0,.1,0,.3,0,.5h.1c0-.1.1-.3.2-.4,0-.1,0-.2,0-.4,0-.2,0-.3,0-.5,0-.2,0-.5-.1-.8l-.2-.8c0,.2-.1.3-.2.4,0,.1,0,.2,0,.2,0,0,0,0,0,.2,0,.2.1.5.1.6Z"/><polygon class="cls-7" points="27.8 3.9 27.3 3.6 26.9 4 27.4 4.4 27.8 3.9"/><path class="cls-7" d="m27.5,6.7c.2,0,.3,0,.4-.1.1,0,.2-.2.2-.3s0-.3.1-.5v-.5c0-.2,0-.4,0-.5,0,0,0-.2-.2-.4l-.3.6c0,.2.1.4.2.5,0,0,0,.2,0,.3,0,.2-.1.3-.3.4-.2,0-.4.1-.7,0-.3,0-.5-.1-.7-.2-.2-.1-.2-.3-.2-.4,0-.1,0-.2.1-.4s.2-.3.4-.5h-.1c-.2.2-.4.4-.5.6,0,.2-.1.4-.2.6,0,.2,0,.5.2.6.2.2.5.3.8.3.2,0,.4,0,.6,0Z"/><path class="cls-7" d="m32,4.9s0,0,0,0c0,0-.1,0-.2,0,0,0,0,0-.1-.1,0,0,0-.1,0-.1,0,0,0,0,0,0,0,0,0,0,0,0,0,0,0,0,.1.1,0,0,0,0,0,0,0,0,0,0,0,0,0,0,0,0,0,0,0,0,0,0,0,0,0,0-.2,0-.3,0,0,0,0,0,0,0,0,0,0,0,0,0,0,0,0,0,0,0,0,0,0,0,0,.1,0,0-.1,0-.1,0,0,0,0,0-.1,0h.5s0,0,0,0Z"/><polygon class="cls-7" points="34.2 5.8 34.4 6.1 34.8 5.8 34.5 5.4 34.2 5.7 34 5.4 33.6 5.7 33.8 6.1 34.2 5.8"/><polygon class="cls-7" points="34.6 5.1 34.3 4.7 33.9 5.1 34.2 5.5 34.6 5.1"/><path class="cls-7" d="m36,6.7c0,0,.1-.1.2-.2s.1-.1.2-.2c0-.1-.1-.2-.2-.3,0,0,0-.1,0-.2,0,0,0,0,0,0h0c-.2,0-.3,0-.4.2,0,0-.1.1-.2.2v.2c0,0-.4,1.5-.4,1.5l-.8-.4v-.3c.2-.1.2-.2.2-.3,0,0,0-.2,0-.3l-.3.2s0,0,0,0c0,0,0,0,0,0,0,0,0,0,0,.2,0,0,0,.2,0,.2,0,0-.1,0-.2-.1,0,0-.1,0-.1-.1,0-.1.1-.2.2-.3,0,0,0,0,0,0,0,0,0,0,0-.1h-.1c0,0,0,0-.1,0,0,0,0,0,0,0,0,.2-.2.2-.3.3,0,0-.2,0-.4,0h-.3c0-.1-.1-.2-.1-.3,0,0,0-.1,0-.2,0,0,0-.1,0-.2,0,0,0-.1,0-.1h-.1c0,.1-.2.3-.4.3-.1,0-.3,0-.4,0h-.2c0-.3.1-.5.1-.6,0-.1,0-.3,0-.5l-.3.5c0,.1,0,.2,0,.2,0,0,0,.2,0,.3l-1-.3h0c0-.4,0-.6,0-.8,0-.2-.1-.3-.2-.3-.1,0-.3,0-.5.2-.2.2-.3.4-.3.6,0,.2,0,.3,0,.4,0,.1.2.2.3.2,0,0,0,0,.2,0-.2.2-.4.3-.6.3-.2,0-.3,0-.5,0-.1,0-.2,0-.3-.1,0,0-.2-.2-.3-.3h-.1c.3.4.4.6.6.7.1.1.3.2.4.2.2,0,.5,0,.7-.2.2-.2.3-.3.4-.5l1.2.4h0s.1,0,.1,0c.1,0,.2,0,.3,0,.1,0,.2,0,.4-.1,0,.1,0,.2,0,.3,0,0,0,.1.2.2l.3.2c.1,0,.2,0,.3,0,0,0,.2,0,.3,0,0,0,.2.2.3.2,0,0,.1,0,.2.1h0s1.1.7,1.1.7l.3-.5.5-1.4h0Zm-6-1.1c0,0,0-.1,0-.2,0,0,0,0,0-.1,0,0,0,0,.1,0,.1,0,.2.2.2.4h0c0,0-.2,0-.2-.1Z"/><path class="cls-7" d="m36.7,6.7c-.1,0-.2.1-.2.2,0,0,0,0,0,.2,0,.2-.2.4-.2.6,0,.2-.2.3-.2.5,0,.2-.2.3-.2.4,0,.1-.2.2-.3.4h0c.2,0,.3,0,.4-.2,0,0,.2-.2.2-.3,0-.1.2-.3.3-.4.1-.2.2-.4.3-.7l.3-.8c-.2,0-.3.2-.4.2Z"/><polygon class="cls-7" points="17.5 41.6 17.2 41.4 17 41.7 17.4 41.9 17.5 41.6 17.8 41.8 17.9 41.4 17.6 41.3 17.5 41.6"/><polygon class="cls-7" points="18.8 44.3 18.6 44.2 18.4 44.5 18.7 44.7 18.9 44.4 19.1 44.6 19.3 44.2 19 44 18.8 44.3"/><path class="cls-7" d="m19.1,42.7v.4c0,0,0,.1,0,.2,0,0,0,.1,0,.2h-1s0,0-.1,0c0,0,0-.2-.1-.3l-.2-1.1c0,0,0,.2-.1.2,0,0,0,.1,0,.2s0,0,0,0c0,0,0,0,0,0h0c0,.1-.1.1-.2.2,0,0-.1,0-.2.1,0,0,0,.1-.2.3,0,.2-.1.3-.1.3s0,0,0,0c0,0,0,0,.2,0h.2s0,0,0,0c0,0,0,0,.2,0,0,0,.1-.1.2-.2,0,.2,0,.4.1.5,0,0,.1.2.2.2,0,0,0,0,.1,0h1.2v-.5c0-.2,0-.4,0-.5,0-.1,0-.2-.2-.3Zm-1.5.3s0,0,0,0c0,0,0,0-.1,0,0,0,0,0,0,0s0,0,0,0c0,0,0,0,0,0,0,0,0,0,.2,0,0,0,0,0,0,0v.2s0,0,0,0Z"/><path class="cls-7" d="m20.6,42.8v.5c0,0,0,.1,0,.2,0,0,0,.1,0,.2,0,0,0,.2-.3.4-.1.1-.2.2-.3.3,0,0-.2,0-.2,0s-.1,0-.2,0c0,0-.1,0-.3-.1h0c.2.3.4.4.5.4.1,0,.2,0,.3,0s.2,0,.3-.1c.1,0,.2-.2.3-.3,0-.1.1-.2.1-.3v-.5c0-.1,0-.3,0-.4,0-.1-.1-.2-.2-.3Z"/><path class="cls-7" d="m21.4,42.4v-.6c-.2.1-.2.2-.3.3,0,0,0,.1,0,.2s0,0,0,.1c0,.2,0,.3,0,.5,0,.1,0,.3,0,.4,0,.1,0,.2,0,.3s0,.2,0,.4h.1c0-.1.1-.2.1-.3,0,0,0-.2,0-.3s0-.3,0-.4c0-.2,0-.4,0-.6Z"/><path class="cls-7" d="m22.5,42.2v.5c0,0,0,.1.1.2,0,.1.1.2.1.4h-.6s0,0-.1,0c0,0,0,0,0,0h0c0,0,0,.1,0,.2,0,0,0,.1,0,.2,0,0,0,.2,0,.2,0,0,0,0,.2,0h.8v-.6c0-.3,0-.5,0-.7,0-.2-.2-.3-.3-.4Z"/><path class="cls-7" d="m24.2,41.8h0c0,0,0,.1,0,.2,0,0,0,.1,0,.2s0,0,0,0c0,0,0,0,0,0,0,.1,0,.2,0,.3,0,.2,0,.3-.1.4-.1-.2-.2-.3-.3-.4,0,0-.1-.2-.2-.2,0-.1-.2-.2-.3-.3-.1-.1-.2-.2-.3-.2s0,0,0,0c0,0,0,0,0,.1,0,.1,0,.3,0,.4,0,0,0,.2,0,.2,0,0,0,0,.2.1,0,0,.1,0,.2,0s0,0,0,0c0,0,0,0,0,0,0,0,.1.1.2.2,0,0,.2.2.3.4,0,.1-.1.2-.2.2,0,0-.1,0-.3.2v.5c.2,0,.4,0,.5,0,.1,0,.2,0,.4-.1,0-.2,0-.3,0-.4h0c0,0,0-.1,0-.2,0,0,0,0-.1-.2,0-.1.1-.3.2-.4,0-.1,0-.3,0-.4h.1s0-.1,0-.1c0,0,0-.2,0-.2-.2,0-.3,0-.3-.1,0,0,0,0,0-.1Zm-.3,1.8s-.1,0-.2,0c0,0,.1,0,.1-.1,0,0,0,0,.1-.1h0c0,.2-.1.2-.2.2Z"/><path class="cls-7" d="m23.8,44.6c0,0,0,0,0,0,0,0,0,0,0,0,0,0,0,0,0,0s0,0,.1,0c0,0,0,0,0,0,0,0,0,0,0,0s0,0,0,0c0,0,0,0,0,0,0,0-.1,0-.2.2,0,0,0,0,0,0,0,0,0,0,0,0s0,0,0,0c0,0,0,0,0,0,0,0,0,0,0,0,0,0,0,0,0,0h.4c0-.1,0-.1,0-.1s0,0,0,0c0,0-.1,0-.1,0,0,0,0,0-.1,0Z"/><path class="cls-7" d="m25.2,42.4v-.6c-.2.1-.2.2-.3.3,0,0,0,.1,0,.2s0,0,0,.1c0,.2,0,.3,0,.5,0,.1,0,.3,0,.4,0,.1,0,.2,0,.3s0,.2,0,.4h.1c0-.1.1-.2.1-.3,0,0,0-.2,0-.3s0-.3,0-.4c0-.2,0-.4,0-.6Z"/><path class="cls-7" d="m28.1,42.8l-.2.5c0,.2.1.3.2.3,0,0,0,.1,0,.2,0,.1,0,.2-.2.3-.1,0-.3.1-.5.1s-.4,0-.5-.1c-.1,0-.2-.2-.2-.3s0-.2,0-.3c0,0,.1-.2.2-.4h-.1c-.2.2-.3.4-.3.5,0,.1,0,.3,0,.4s0,.3.2.4c.2.1.4.2.7.2s.3,0,.4,0c.1,0,.2,0,.3-.1,0,0,.1-.1.2-.2,0,0,0-.2,0-.4v-.4c0-.2,0-.3,0-.4,0,0,0-.2-.2-.3Z"/><polygon class="cls-7" points="27.1 42.6 27.6 42.8 27.8 42.4 27.4 42.2 27.1 42.6"/><path class="cls-7" d="m30.4,42.6h.4c0-.1,0-.1,0-.1,0,0,0,0,0,0,0,0-.1,0-.1,0,0,0,0,0-.1,0s0,0,0,0c0,0,0,0,0,0,0,0,0,0,0,0s0,0,.1,0c0,0,0,0,0,0,0,0,0,0,0,0s0,0,0,0c0,0,0,0,0,0,0,0-.1,0-.2.2,0,0,0,0,0,0,0,0,0,0,0,0s0,0,0,0c0,0,0,0,0,0,0,0,0,0,0,0s0,0,0,0Z"/><polygon class="cls-7" points="32.6 41.8 32.2 41.6 32.1 42 32.4 42.2 32.6 41.8"/><polygon class="cls-7" points="32.3 42.7 32.5 42.4 32.7 42.6 32.9 42.2 32.6 42 32.4 42.3 32.2 42.2 32 42.5 32.3 42.7"/><path class="cls-7" d="m33.8,42.4c0,0,0-.1,0-.2,0,0,0-.1,0-.2,0,0-.2,0-.2-.1,0,0,0,0,0-.1,0,0,0,0,0,0h0c0,0-.1.2-.1.3,0,0,0,.1,0,.2h.1c0,0,.2,1.3.2,1.3h-.6v-.2c0,0,0-.2,0-.2,0,0,0-.1,0-.2v.2c-.2,0-.2,0-.2,0,0,0,0,0,0,0s0,0,0,.1c0,0,0,.1,0,.2,0,0-.1,0-.2,0,0,0-.1,0-.1,0,0-.1,0-.2,0-.3s0,0,0,0c0,0,0,0,0,0h0c0,0,0,0,0,.1,0,0,0,0,0,0,0,.1,0,.2-.1.3,0,0-.2,0-.3,0h-.2c0,0,0,0-.1,0,0,0,0,0,0-.1s0-.1,0-.2c0,0,0,0,0-.1h-.1c0,.2,0,.3-.2.4,0,0-.2.1-.3.1h-.1c0-.2,0-.4,0-.5,0-.1,0-.2-.2-.3v.4c0,0,0,.1,0,.2,0,0,0,.1,0,.2h-.8c0-.3,0-.4,0-.6,0-.1-.1-.2-.2-.2s-.2,0-.3.3c0,.2-.1.3-.1.5s0,.2.1.3c0,0,.2.1.3.1s0,0,.1,0c-.1.2-.3.3-.4.4-.1,0-.2,0-.3,0s-.2,0-.2,0c0,0-.2,0-.3-.2h0c.2.3.4.4.5.5.1,0,.2,0,.3,0,.2,0,.3,0,.5-.3.1-.2.2-.3.2-.5h1.1c0,0,.2,0,.2,0,0,0,.2-.1.2-.2,0,0,0,.2.1.2,0,0,.1,0,.2,0h.3c.1,0,.2,0,.2,0,0,0,.1,0,.2,0,0,0,.2,0,.3,0,0,0,.1,0,.2,0h0s1,0,1,0v-.5l-.2-1.1h0Zm-4.1,1.1c0,0-.1,0-.2,0,0,0,0,0,0-.1s0,0,0,0c0,0,0,0,0,0,.1,0,.2,0,.2.3h0Z"/><path class="cls-7" d="m34.5,42.4v-.6c-.2.1-.2.2-.3.3,0,0,0,.1,0,.2s0,0,0,.1c0,.2,0,.3,0,.5,0,.1,0,.3,0,.4,0,.1,0,.2,0,.3s0,.2,0,.4h.1c0-.1.1-.2.1-.3,0,0,0-.2,0-.3s0-.3,0-.4c0-.2,0-.4,0-.6Z"/><polygon class="cls-7" points="21 28.9 21 28.4 20.4 28 21 28 20.9 27.5 19.2 27.6 19.3 28.1 19.8 28 19.9 28.1 19.3 28.5 19.3 29 20.4 28.4 21 28.9"/><path class="cls-7" d="m22.4,31.2l-.9.6h0s.7-.8.7-.8l-.2-.3-.9.6h0s.7-.8.7-.8l-.3-.3h0s-.2-.4-.2-.4l-1,.4c-.2,0-.3,0-.4,0,0-.2,0-.2.2-.3l1-.4-.2-.4-.9.3c-.5.2-.7.5-.5.9.2.4.5.5,1,.3l.8-.3-1.1,1.3.3.3.9-.5h0s-.7.8-.7.8l.3.3,1.5-.8-.3-.3Z"/><path class="cls-7" d="m23,31.6l-1.3,1.2.4.2.2-.2.4.2v.2c0,0,.3.2.3.2l.5-1.7-.4-.2Zm-.3,1.1h-.2c0-.1.4-.6.4-.6l-.2.6Z"/><polygon class="cls-7" points="23.3 33.7 23.8 33.8 24.3 32.2 23.9 32.1 23.3 33.7"/><polygon class="cls-7" points="24.4 32.7 24.8 32.8 24.6 34 25 34.1 25.2 32.8 25.6 32.9 25.7 32.4 24.4 32.3 24.4 32.7"/><path class="cls-7" d="m26.9,32.2l-.6.2.4,1.6h.4c0-.1-.1-.6-.1-.6h.2c.4-.2.5-.4.4-.8,0-.3-.3-.5-.7-.4Zm.2.7h-.2s0-.3,0-.3h.1c0,0,.2,0,.3,0,0,.1,0,.2-.1.2Z"/><path class="cls-7" d="m28,31.7c-.4.2-.4.7-.2,1.1.3.5.7.6,1.1.4.3-.2.4-.6.1-1.1-.2-.4-.7-.6-1.1-.4Zm.7,1.2c-.2.1-.4,0-.5-.3-.1-.2-.2-.4,0-.5.2-.1.4,0,.5.3.1.2.2.5,0,.5Z"/><polygon class="cls-7" points="29.9 31.9 29 31 28.7 31.3 29.9 32.5 30.6 31.7 30.4 31.4 29.9 31.9"/><polygon class="cls-7" points="29.4 30.5 30.9 31.4 31.1 31 29.7 30.1 29.4 30.5"/><path class="cls-7" d="m31.2,29.1v.4c0,0,0,.2,0,.3,0,.2-.3.2-.5,0-.3-.1-.4-.3-.4-.4,0-.1.2-.2.3-.1v-.4c-.3-.1-.6,0-.7.4-.1.4,0,.7.6.9.5.2.9,0,1.1-.4.1-.3,0-.7-.4-.8Z"/><polygon class="cls-7" points="31.6 27.7 31.6 28.4 31.3 28.3 31.3 27.8 30.9 27.8 30.9 28.3 30.6 28.3 30.7 27.6 30.3 27.6 30.2 28.7 31.9 28.8 32 27.7 31.6 27.7"/><path class="cls-7" d="m20.1,25s.2-.1.3-.2c0,0,0-.1,0-.2.2-.1.3-.2.3-.2,0,0,0,0,0-.1,0,0,0-.1,0-.2-.1,0-.2,0-.3.2,0,0,0,0,0,.1,0,0,0,.1,0,.1,0,0,0,0-.1,0,0,0-.1,0-.2,0,0,0,0,.1,0,.2,0,0,0,.2,0,.2Z"/><path class="cls-7" d="m20.6,25.4c0,0-.1,0-.2,0,0,0,0,0-.2-.2,0,0,0,0,0,0,0,0,0,0,0,0,0,0,0,.1.1.2,0,.1.2.2.2.2,0,0,.2,0,.2,0,0,0,.2,0,.2-.2.2-.3.3-.5.5-.7,0,0,0-.1,0-.2,0,0,0,0,.1,0,0,0,0,0,.1,0,0,0,0,0,0,0,0,0,.2-.2.2-.3.2-.2.4-.3.6-.5,0-.2-.2-.4-.2-.4,0-.1-.2-.2-.5-.3,0,.1,0,.2,0,.3.1,0,.2,0,.3.1-.2.1-.3.2-.5.4,0,0,0,0,0,0,0,0,0,0,0,0,0,0,0,0,0,0,0,0,0,0,0,0,0,0-.1.1-.2.2h0s0,0,0,0h0c0,0-.1,0-.2,0,0,0,0,0,0,0s0,0,0,0c0,0,0,0-.1-.1,0,.1,0,.3,0,.3,0,.1.2.2.2.2-.2.3-.3.4-.6.8,0,0,0,0-.1.1Z"/><path class="cls-7" d="m22.5,24.2s-.2,0-.2,0c0,0,0,.2,0,.2,0,0,.2,0,.2,0,0,0,0-.1,0-.2,0,0,.1,0,.2,0,0,0,0-.1,0-.3,0,0-.1,0-.2,0,0,0,0,0,0,0,0,0,0,0,0,0Z"/><path class="cls-7" d="m24.7,22.7s0,0,0-.2c0-.1,0-.2,0-.2,0-.2,0-.2-.1-.4,0-.1.1-.2.2-.3,0,0-.1,0-.2,0-.1,0-.2,0-.2,0,0,0,0,0,0,0,0,0,0,0,0,0,0,0-.2.3-.1.4,0,0,0,0,.1,0,0,0,0,.1.1.3,0,.2,0,.3.1.3,0,0,0,0,0,0,0,0-.1,0-.2,0,0,0,0,0,0,0,0,0,0,0,0,0,0,0,0,0,0,0,0,0,0,0,0,0,0,0,0,0,0,0,0,0-.2,0-.4-.1-.1,0-.3-.2-.4-.2.2-.2.4-.2.6-.4,0-.1,0-.3,0-.3,0,0-.7.2-.9.5,0,0,0,.3,0,.5.2,0,.4.1.6.2-.2,0-.3.1-.4.2,0,0,0,0,0,0,0,0,0,0,0,0,0,0,0,0,0,0,0,0,0,0,0,0,0,0,0,0,0,0-.2-.3-.3-.4-.5-.3,0,0-.1.2-.1.4,0,.2,0,.3,0,.4,0,0,.1,0,.2,0,0,0,.2,0,.2,0,0,0,0,.2-.1.3,0,.1-.1.2-.2.2,0,0,0,0-.1,0,0,0,0,0-.1,0,0,0,0,0,0,0,0,0,0,0,0,0,0,0,.2,0,.3,0,0,0,.2,0,.2,0,0,0,.1-.1.1-.3,0-.1,0-.2,0-.4,0,0,0,0,.1,0,.1,0,.2-.1.4-.2,0,0,0-.1,0-.2,0,0,.1,0,.2.1,0,0,0,0,.1,0,.1,0,.2,0,.3,0,0,0,0,0,0,0Zm-1.7.3c0,0-.2,0-.2,0,0,0,0,0,0,0,0,0,0,0,0,0,0,0,0,0,0,0,0,0,0,0,.1,0,0,0,0,0,0,0,0,0,0,0,0,0Z"/><path class="cls-7" d="m25.4,22.2c0-.2-.1-.8-.1-.8,0,0-.2.3-.2.4,0,.4.1.6.2.9,0-.1.1-.3.1-.5Z"/><path class="cls-7" d="m26.7,22.6c0,0,.1-.1.1-.1,0,0,0,.1,0,.2,0,0,0,.1.1.1,0,0,.1,0,.2,0,.1,0,.2,0,.3,0,.1,0,.2,0,.3.1.5.2.7.3,1.1.7.1-.1.2-.2.3-.3,0,0,0-.2,0-.3,0-.1,0-.2-.1-.3,0,0-.2,0-.4-.1-.2,0-.5,0-.5,0,0,0,.2-.2.2-.2,0,0,0,0,0,0,0,0,0,0,0,0,0,0,0,0,0,0,0,0,0,0,.2,0,0,0,.1,0,.1,0,0,0-.2-.4-.2-.4,0,0-.1,0-.2,0,0,0-.1,0-.1.1,0,0,0,0,0,0,0,0,0,0,0,0,0,0,0,.1,0,.3,0,.2,0,.3-.1.3,0,0,0,0-.1,0,0,0,0,0,0,0,0,0,0,0,0,0,0,0,0,0,0,0,0,0,0,0,0,0,0,0,0,0,0,0,0,0-.1,0-.2,0,0,0,0,0,0,0,0,0,0,0,0,0,0,0,0,0,0,0,0,0,0,0,0,0,0,0-.1,0-.2,0,0,0,0,0,0,0,0,0,0,0-.1,0,0,0-.1,0-.1,0,0,0,0-.2,0-.4,0-.2,0-.4,0-.5,0,0,0,0,0,0,0,.1-.1.2-.2.3,0,0,0,0,0,0,0,0-.2,0-.3.1,0,0-.1,0-.2.1,0,0,0,.2-.1.3.2,0,.3,0,.5.2,0,0,0,0,.1,0Zm2.1.5s0,0,0,.1c0,0,0,.1,0,.2-.3-.2-.4-.3-.7-.4.2,0,.4,0,.5,0Zm-2.1-.9c0,0,.1,0,.2-.1,0,.1,0,.2,0,.3-.1,0-.2,0-.3,0,0,0,0,0,.1,0Z"/><path class="cls-7" d="m26.5,21.4c0,0,.2.2.2.2,0,0,0,0,.1,0,0,0,0,0,.1,0,0,0-.1-.1-.2-.2-.1,0-.2,0-.2,0,0,0-.2-.2-.2-.2,0,0-.2.2-.2.2,0,0,.2.2.2.1,0,0,.1-.1.2-.1Z"/><path class="cls-7" d="m28.8,23.9c0,0,0-.1,0-.1,0,0,0,0,0,0,0,0,0,0,0,0,0,0,0,.2,0,.3,0,.1.1.2.1.3,0,0,.2,0,.3,0,.1,0,.2,0,.3-.1,0,0,0,0,0,0,0,0,0,0,0,.1,0,0,0,0,.1.2h0s0,0,.1.1c0,0,0,0,0,0,0,0,0,0,0,0,0,0,0,0,0,0,0,0,0,0,0,.1,0,0,0,0,0,0,0,0,0,0,0,0,0,0,0,0,0,0,0,0,0,0,0,0,0,0,0,0,0,.1,0,0,0,0,0,0,0,0,0,0,0,0,.1.2.2.2.3.4,0,0,.1,0,.2,0,0,0,.1,0,.2,0,.1,0,.2,0,.3-.2,0,0-.1,0-.2,0,0,0-.2,0-.2,0,0,0,0,0,0,0,0,0,0,0,0,0,0,0,0,0,0,0,0,0,0-.1-.1-.2,0,0,0,0,0,0,0,0,0,0,.2,0,0,0,.1,0,.2,0,0,0,0,0,0,0,0,0-.2-.1-.4,0,0,0,0,0-.1,0,0-.1-.1-.2-.2-.3,0,0,0,0,0,0,.2,0,.3,0,.3-.1,0,0,0,0,0,0,0,0,0,0-.2,0,0,0-.1,0-.2,0,0,0,0,0-.1,0,0,0-.1-.1-.2-.2h0s0,0,0,0c0,0-.1-.2-.1-.3,0-.1,0-.3,0-.3,0,0,0,0-.2,0,0,0-.1,0-.1,0,0,0,0,0,0,.1,0,0,0,.2,0,.2,0,0-.2,0-.3,0-.2,0-.3,0-.4-.1,0,0,0,0,0-.2Z"/><path class="cls-7" d="m31.4,24.7c0,0,.1,0,.1,0,0,0,0-.3,0-.3,0,0,0,0-.1,0,0,0-.1,0-.1,0,0,0,0,0,0,.1,0,0,0,.1,0,.1,0,0,0,0,.1,0Z"/><path class="cls-7" d="m31.1,24.8c0,0,0,.3,0,.3,0,0,0,0,.1,0,0,0,.1,0,.2,0,0-.1,0-.2,0-.4,0,0,0,0-.1,0,0,0,0,0,0,0,0,0,0-.2,0-.3,0,0,0,0-.1,0,0,0-.1,0-.2,0,0,0,0,.3,0,.3,0,0,.2,0,.2,0Z"/></svg>