<svg xmlns="http://www.w3.org/2000/svg" id="Layer_1" data-name="Layer 1" viewBox="0 0 104 104">
  <defs>
    <style>.cls-1{fill:#000576;stroke:#fff;stroke-miterlimit:10;stroke-width:1.5px;}.cls-2,.cls-3{fill:none;stroke:#fff;stroke-miterlimit:10;}.cls-3{fill:#fff;stroke-width:0.75px;}</style>
  </defs>
  <path class="cls-1" d="M52,102h0a50,50,0,0,0,50-50h0A50,50,0,0,0,52,2h0A50,50,0,0,0,2,52H2A50,50,0,0,0,52,102Z"/>
  <path class="cls-2" d="M28.67,65.64a5.3,5.3,0,1,0-9-3.83"/>
  <path xmlns="http://www.w3.org/2000/svg" class="cls-1" d="M52,102h0a50,50,0,0,0,50-50h0A50,50,0,0,0,52,2h0A50,50,0,0,0,2,52H2A50,50,0,0,0,52,102Z"/>
  <path class="cls-2" d="M28.67,65.64a5.31,5.31,0,0,1-9-3.83"/>
  <path class="cls-2" d="M43.93,72.83a5.3,5.3,0,1,0,1.5,3.69,5.28,5.28,0,0,0-1.5-3.69"/>
  <path class="cls-2" d="M61.32,56.06a4.09,4.09,0,0,1-3.15,6.69,4.06,4.06,0,0,1-2.75-1.06"/>
  <path class="cls-2" d="M61.32,56.06a4.09,4.09,0,0,0-7.24,2.61,4,4,0,0,0,1.34,3"/>
  <path class="cls-2" d="M84.25,37.18a5.31,5.31,0,1,0-8.53,4.21"/>
  <path class="cls-2" d="M84.25,37.18a5.31,5.31,0,0,1-5.31,5.31,5.24,5.24,0,0,1-3.22-1.1"/>
  <line class="cls-2" x1="19.69" y1="61.81" x2="11.36" y2="61.81"/>
  <line class="cls-2" x1="36.1" y1="73.07" x2="28.67" y2="65.64"/>
  <line class="cls-2" x1="28.67" y1="65.64" x2="28.67" y2="65.64"/>
  <line class="cls-2" x1="75.72" y1="41.39" x2="75.72" y2="41.39"/>
  <line class="cls-2" x1="61.04" y1="56.08" x2="75.72" y2="41.39"/>
  <line class="cls-2" x1="92.64" y1="37.18" x2="84.25" y2="37.18"/>
  <line class="cls-2" x1="43.93" y1="72.83" x2="43.92" y2="72.84"/>
  <line class="cls-2" x1="43.93" y1="72.83" x2="55.39" y2="61.38"/>
  <rect class="cls-2" x="33.88" y="22.17" width="36.5" height="44.63"/>
  <line class="cls-3" x1="37.36" y1="30.35" x2="45.54" y2="30.35"/>
  <line class="cls-3" x1="37.36" y1="34.57" x2="52.83" y2="34.57"/>
</svg>