<svg id="Layer_1" data-name="Layer 1" xmlns="http://www.w3.org/2000/svg" viewBox="0 0 17 17"><defs><style>.cls-1{fill:none;stroke:#fff;stroke-miterlimit:10;stroke-width:0.25px;}.cls-2{fill:#fff;}</style></defs><title>facebook</title><circle class="cls-1" cx="8.52" cy="8.55" r="8.07"/><path class="cls-2" d="M10.16,2.33l1,0,.63.06v2H10.46c-.53,0-.92.22-.94.88,0,.48,0,1.53,0,1.59H11.7c-.11.77-.21,1.51-.32,2.25H9.49l-.05,5.62H7.11l0-5.63H5.25l0-2.24H7.18V6.74c0-.46,0-.91,0-1.36a5.07,5.07,0,0,1,.07-.86,2.57,2.57,0,0,1,1-1.67A2.9,2.9,0,0,1,10,2.33Z"/></svg>