<svg id="Layer_1" data-name="Layer 1" xmlns="http://www.w3.org/2000/svg" viewBox="0 0 221 221"><defs><style>.cls-1{fill:#000576;}.cls-2{fill:none;stroke:#001a63;stroke-miterlimit:10;stroke-width:1.5px;}</style></defs><path class="cls-1" d="M75.18,200.51l.5,1,1-.32.82,1.84-1.44.48-.49-1-1,.33L73.66,201Zm7.4-2.56-.93.81-1,.77-.2.16-.71.08a6.7,6.7,0,0,1-.88,0,8.62,8.62,0,0,1-1.46-.13,5.13,5.13,0,0,1-1.25-.36,2.63,2.63,0,0,1-1.48-1.55,2.82,2.82,0,0,1,.07-2.17,9.82,9.82,0,0,1,2.73-3.23l-.13.18c-.21.3-.37.57-.5.79s-.26.49-.38.75a3,3,0,0,0-.29,2,1.89,1.89,0,0,0,.46.75,2.45,2.45,0,0,0,.78.56,4,4,0,0,0,1.9.26,3.65,3.65,0,0,0,.77-.12l.55-.16a5.09,5.09,0,0,0-.82-.88,5.26,5.26,0,0,0-1.24-.73l1.88-1.61,4.58,2a3.24,3.24,0,0,0-.14-1.66l2-1.13a3.55,3.55,0,0,1,.15,1.3,3.63,3.63,0,0,1-.27,1.26,6.13,6.13,0,0,1-1.2,1.6c-.33.34-.66.66-1,.95l-1.76-.77Zm4.36-5.86L86,190.26l1.47-.5.88,1.84Z"/><path class="cls-1" d="M95,201.6,92,200.76l-.21-.8-.65.56-2.83-.82c-.21-.06-.41-.11-.59-.18a1.23,1.23,0,0,1-.53-.3.88.88,0,0,1-.17-1,3.17,3.17,0,0,1,.32-.73,5.34,5.34,0,0,1,.68-.93l.13-.14a1,1,0,0,0,.15.55,1,1,0,0,0,.28.3l.29.13.33.11,2.15.62-.64-2.51,1.49-1.42,1.2,4.51,2.15.62Z"/><path class="cls-1" d="M100.12,198.12l0,.49c0,.21,0,.43-.06.63a2,2,0,0,0,0,.49.71.71,0,0,0,.12.33,1.21,1.21,0,0,0,.17.25c.06.07.2.19.4.39l1.19,1.13-1.69,1.69-1.76-1.69-.35.29-3.3-.6.41-2.28,3,.54.53-5.17c-.33-.16-.47-.35-.44-.55a.74.74,0,0,1,.14-.26,3.15,3.15,0,0,1,.3-.31l1-1.05a.77.77,0,0,0,0,.52,2,2,0,0,0,.56.46l1.31.85-1,1.53-.26-.17Z"/><path class="cls-1" d="M106.4,196.14l-.41.35,0,.17,0,1.13c0,.21,0,.5-.06.86s0,.6-.05.74a6.58,6.58,0,0,1-.63,2.41,5.73,5.73,0,0,1-1.59,1.75c0-.22.08-.46.12-.73s.07-.54.1-.76,0-.49.06-.89.06-.68.07-.87l.1-2.54.08-2v-.32l2.13-2Z"/><path class="cls-1" d="M117.69,202.44l-1.76.05-.62,0a3.65,3.65,0,0,0-2,.57,1.47,1.47,0,0,0-.78,1.26c0,.69.47,1.25,1.38,1.7a7.18,7.18,0,0,0,3.35.61l.73,0,.52-.08c.39-.05.77-.1,1.12-.17l.81-.17-.72.58a9.86,9.86,0,0,0-.74.8c-.25.27-.44.5-.59.64a1.6,1.6,0,0,1-.31.28,1.08,1.08,0,0,1-.32.11,9,9,0,0,1-1.88.24,5.18,5.18,0,0,1-3.43-.92,3.57,3.57,0,0,1-1.3-2.83,5.51,5.51,0,0,1,1.65-3.91l-.42-.37-.36-.42a1.67,1.67,0,0,1-.4-.94,3.16,3.16,0,0,1,.39-1.36,4.63,4.63,0,0,1,1.13-1.47,2,2,0,0,1,2.92,0,3.73,3.73,0,0,1,1.08,1.71l-.43-.24a3.31,3.31,0,0,0-1.6-.34,2.64,2.64,0,0,0-2.16,1.25l.12.14.54.52a2.33,2.33,0,0,0,.28.19l.53.3,4-.11Z"/><path class="cls-1" d="M126.65,202.49l-2.92.37-.51.06c-.65.09-1-.13-1.07-.62l-.06-.44,0-.3-.79-6.22,1.65-2.19.82,6.49a4.07,4.07,0,0,0,.08.48.55.55,0,0,0,.1.22.27.27,0,0,0,.19.11,3.38,3.38,0,0,0,.46,0l1.81-.23Z"/><path class="cls-1" d="M126.37,202.58l-.48-2.27,5.9-1.24,0-.18-.06-.29-.13-.42-.07-.18-.34.68-1.06.22-.46.09-.66.11a1.32,1.32,0,0,1-.39-.16,1.43,1.43,0,0,1-.65-1,3.45,3.45,0,0,1,.19-1.91c.38-1,.89-1.61,1.48-1.73a1.46,1.46,0,0,1,1.27.4,5,5,0,0,1,1.15,1.37,5.83,5.83,0,0,1,.68,1.74,6.23,6.23,0,0,1,.12,1.41,13.9,13.9,0,0,1-.28,2.07Zm3-9.08-1.81-1,.91-1.26,1.79,1Zm1.1,2.49a.83.83,0,0,0-.61-.12.81.81,0,0,0-.48.3.56.56,0,0,0-.13.47.26.26,0,0,0,.3.2l.33-.06.37-.07.66-.14A1.25,1.25,0,0,0,130.5,196Z"/><path class="cls-1" d="M142.81,198.2l-2.88.92-.62-.55-.23.83-2.8.9a6.12,6.12,0,0,1-.59.17,1.37,1.37,0,0,1-.61.05c-.32-.05-.54-.3-.67-.71a2.9,2.9,0,0,1-.14-.78,5.28,5.28,0,0,1,0-1.15l0-.19a.9.9,0,0,0,.42.37,1,1,0,0,0,.41.09,1.53,1.53,0,0,0,.3-.05,2.06,2.06,0,0,0,.34-.09l2.13-.69L136,195.6l.46-2,3.5,3.08,2.13-.68Z"/><path class="cls-1" d="M144.37,190.22H144l1.13,2.21.24.43.18.32,0,.09a4.52,4.52,0,0,1,.19.54,2.68,2.68,0,0,1,.08.56l.07,1c0,.37,0,.67,0,.87,0,0,0,.22,0,.5l-3.4,1.44-.9-2.14,2.84-1.2-2.4-4.59H142a.51.51,0,0,1-.55-.27.7.7,0,0,1,0-.43l.06-.31.27-1.4a1.13,1.13,0,0,0,.13.27.66.66,0,0,0,.19.18.7.7,0,0,0,.35.12h1.9Z"/><path class="cls-1" d="M147.65,188.17l-.16.51.08.16.56,1c.11.18.24.44.41.75l.36.66a6.53,6.53,0,0,1,.76,2.37,5.55,5.55,0,0,1-.41,2.32c-.08-.2-.17-.42-.28-.67s-.23-.49-.33-.7-.23-.43-.42-.78l-.41-.77-1.27-2.2-1-1.7-.17-.27.71-2.85Z"/><polygon class="cls-2" points="36.4 168.35 111.59 41.91 182.01 168.68 36.4 168.35"/><path class="cls-2" d="M194.29,41.8l-22.88,19a90.62,90.62,0,0,1,28.35,66c0,50-40.12,90.48-89.61,90.48s-89.6-40.51-89.6-90.48A90.63,90.63,0,0,1,48.27,61.35L25.07,43A108.53,108.53,0,1,0,194.29,41.8"/><path class="cls-2" d="M156.52,208s54.6-30.59,56.35-87.28c0,0,1.86-27.57-13-54.18l-4-22.45"/><path class="cls-2" d="M174,63.79c26.14,24.75,26.76,62.46,26.76,62.46,0,29.11-13.1,47.51-13.1,47.51-27.69,46.11-76.86,44.09-77.6,44,33.37,3.36,53.6-15.08,53.6-15.08,41.86-28.78,42.21-72.3,42.21-72.3,2.43-35.37-13.31-57.49-13.31-57.49l-20.74-11.3Z"/><path class="cls-2" d="M20.55,127.4c0,49.91,40.12,90.38,89.6,90.38s89.61-40.47,89.61-90.38S159.64,37,110.15,37s-89.6,40.46-89.6,90.38"/><path class="cls-2" d="M199.76,127.4c0,49.91-40.7,90.47-90.19,90.47S20,176.34,20.55,127.4C21.07,77.49,60.67,37,110.15,37S199.76,77.48,199.76,127.4Z"/><path class="cls-2" d="M219.12,110.25A108.67,108.67,0,1,1,110.45,1.51,108.71,108.71,0,0,1,219.12,110.25Z"/><line class="cls-2" x1="199.81" y1="65.87" x2="192.72" y2="73.14"/><path class="cls-2" d="M115.51,218.87C49.86,222.06-4.68,164.26,2.24,98.84A108.65,108.65,0,0,1,26,41.8"/><path class="cls-2" d="M70.23,207.81a89.12,89.12,0,0,0,45.27,9.29"/><path class="cls-2" d="M63.79,208S9.19,177.44,7.44,120.75c0,0-1.86-27.57,13-54.18l4-22.45"/><path class="cls-2" d="M110.26,217.78c-33.37,3.36-53.61-15.08-53.61-15.08-41.85-28.78-42.2-72.3-42.2-72.3C12,95,27.76,72.91,27.76,72.91L48.5,61.61"/><line class="cls-2" x1="20.5" y1="65.87" x2="27.59" y2="73.14"/><path class="cls-1" d="M47.12,49.92l-.42.47a4.15,4.15,0,0,1-.48.43,1.69,1.69,0,0,1-1.24.27,2.66,2.66,0,0,1-1.33-.64,5.69,5.69,0,0,1-1.16-1.55,6.34,6.34,0,0,1-.7-1.84,5.27,5.27,0,0,0,.93,1.07,2,2,0,0,0,1.52.58,1.18,1.18,0,0,0,.6-.23,3.24,3.24,0,0,0,.72-.67l4.13-4.65a3.7,3.7,0,0,0-1.77-.44l-.55-2.42a4.58,4.58,0,0,1,2.61,1,6.9,6.9,0,0,1,1.29,1.79c.17.29.29.53.37.7s.18.39.31.65ZM45.36,43.2l-1.16.17,0,1.12-2.16.2L42,43.06l1.19-.15,0-1.17,2.18-.24Z"/><path class="cls-1" d="M57.19,39.81l-2.3,2.07-.41.36c-.52.47-1,.48-1.33.07L52.82,42l-.23-.24L48,36.56l.06-3L52.85,39a4.19,4.19,0,0,0,.36.39.59.59,0,0,0,.23.13.26.26,0,0,0,.23,0,2.82,2.82,0,0,0,.38-.3l1.43-1.28Z"/><path class="cls-1" d="M56.47,40.37l-1.55-2,2.51-1.92-.87-.63.28-2.16L59,35.24l1.9-1.45,1.55,2L59.59,38l-.67-.47v1Zm3.15-.44,1.19.08L61,38.89l2.16.22-.26,1.63-1.18-.09L61.5,41.8l-2.2-.19Z"/><path class="cls-1" d="M67.73,32.52l-2.86,1.81a2.82,2.82,0,0,1-.7.37.64.64,0,0,1-.71-.22v.75L61.7,36.34l-1.37-2.16,2.09-1.33L59.23,27.8l.51-3,3.81,6,.35.53c.1.14.19.24.27.24a.66.66,0,0,0,.4-.14l.22-.14,1.57-1Z"/><path class="cls-1" d="M76.68,28.07l-2.8,1.37L74,31.26l-5-.36-.13,1-1.94,1-1.12-2.3,2.58-1.27a5.05,5.05,0,0,1-.08-1.12A6.69,6.69,0,0,1,68.43,27a3.61,3.61,0,0,1,.77-1.49,4.37,4.37,0,0,1,1.37-1.08,1.68,1.68,0,0,1,1-.2.75.75,0,0,1,.31.15,1.67,1.67,0,0,1,.28.44l.22.4.83,1.71,2.31-1.14Zm-4.86-.83L71.7,27c-.19-.38-.53-.46-1-.22a2,2,0,0,0-.77.59,2.77,2.77,0,0,0-.41,1l3,.26Z"/><path class="cls-1" d="M86.34,24.91l-4.9,1.63-.64-.61-.36.95-4.67,1.56L75,26l4.49-1.5A3.66,3.66,0,0,0,79,24a1.84,1.84,0,0,0-.45-.29,2.25,2.25,0,0,0-.82-.19,2.64,2.64,0,0,0-.86.1l-.12,0,.33-2.82a15.18,15.18,0,0,1,1.38-.73,10.06,10.06,0,0,1,1.17-.49,2.44,2.44,0,0,1,1.7-.05,1.6,1.6,0,0,1,1,1.05,2,2,0,0,1,.09.7,7.19,7.19,0,0,1-.13.81,12.45,12.45,0,0,1-.36,1.31l-.1.3,3.71-1.24Z"/><path class="cls-1" d="M88.75,17l-.34-.06.79,2.62.16.52.13.39,0,.11c0,.24.08.45.1.62a2.22,2.22,0,0,1,0,.62L89.49,23c0,.41-.09.73-.12.95,0,.05-.05.23-.11.54l-3.79.84-.56-2.5,3.18-.7L86.41,16.6h-.1a.53.53,0,0,1-.51-.4.68.68,0,0,1,.07-.47L86,15.4l.53-1.46a2.87,2.87,0,0,0,.08.32,1.21,1.21,0,0,0,.17.24.9.9,0,0,0,.34.2l.39.09,1.59.31Z"/><path class="cls-1" d="M93.1,15.84l-.32.48,0,.19.27,1.22c0,.23.1.54.18.93s.13.65.16.81a7.64,7.64,0,0,1,0,2.74,6.18,6.18,0,0,1-1.12,2.31c0-.24,0-.5-.08-.8s-.08-.6-.12-.85-.1-.53-.18-1-.14-.75-.18-.95l-.6-2.74-.48-2.12-.08-.34L92.2,13Z"/><path class="cls-1" d="M152.33,23.85a6.85,6.85,0,0,1-.38,2,9.13,9.13,0,0,1-1.26,2.17L150,29a8.49,8.49,0,0,1-2.28.33,5.07,5.07,0,0,1-1.93-.27,2.8,2.8,0,0,1-1.69-1.58,3.21,3.21,0,0,1,0-2.44,12,12,0,0,1,2.69-3.82,16.43,16.43,0,0,0-1.1,2.32,2.82,2.82,0,0,0-.08,2,2.18,2.18,0,0,0,1.37,1.24,4,4,0,0,0,1.58.18,5.68,5.68,0,0,0,1.81-.46,7.33,7.33,0,0,0,.13-1.87,6.14,6.14,0,0,0-.3-1.77l2-1.16A7.9,7.9,0,0,1,152.33,23.85Zm-3.21-2.77-1.05-1.92,1.52-.68,1,1.94Z"/><path class="cls-1" d="M159.25,30.75l-2.36-1.14,0,0a6.18,6.18,0,0,1-1.33,1.27,6.86,6.86,0,0,1-1.64.89,1.76,1.76,0,0,1-1.41.07,1.71,1.71,0,0,1-.73-1,6.38,6.38,0,0,1-.27-.87c-.06-.26-.12-.68-.19-1.2l0-.23.15.12a4.72,4.72,0,0,0,1,.66,2.87,2.87,0,0,0,1.77.27,3.93,3.93,0,0,0,.77-.21,3.4,3.4,0,0,0,.7-.43l-.88-.43a9.58,9.58,0,0,1-1-.55,2.21,2.21,0,0,1-.49-.48,1.82,1.82,0,0,1-.11-1.72,5.54,5.54,0,0,1,1.81-2,4.63,4.63,0,0,1,.61-.41c.21-.12.43-.25.65-.35a1.55,1.55,0,0,1,1.36-.14c.44.2.71.76.82,1.64a6.06,6.06,0,0,1-.32,2.75s2.33,1.13,2.33,1.13Zm-2.86-6a.74.74,0,0,0-.65,0,1,1,0,0,0-.53.5c-.18.35-.05.62.37.83l.41.2.6.29C156.89,25.61,156.83,25,156.39,24.79Z"/><path class="cls-1" d="M158.43,30.34l1.33-2.19,2.7,1.64.27-1,2.12-.53-.72,2.58,2,1.24-1.34,2.19-3.05-1.86.19-.79-.91.35Zm8-3.48a5.4,5.4,0,0,0-.65-.29l-.6-.14a2.43,2.43,0,0,0-.8-.05,5.38,5.38,0,0,0-.93.21A3.67,3.67,0,0,1,164,26a2.21,2.21,0,0,1,.67-.33.85.85,0,0,1-.15-1.15,2.27,2.27,0,0,1,.83-.64,2.9,2.9,0,0,1,1.16-.37,2,2,0,0,1,1,.31c.42.26.57.48.46.67a1.6,1.6,0,0,1-.41.31l-.46.28a3.2,3.2,0,0,0-.26-.28,1.64,1.64,0,0,0-.33-.28,1.42,1.42,0,0,0-1.14-.17,2.16,2.16,0,0,0,.4.76,2.91,2.91,0,0,0,.71.66,2.51,2.51,0,0,0,.83.28Z"/><path class="cls-1" d="M169.11,37.43l.21-.94-1.07.31-4.16-3.06,1.52-2.06,4.1,3,.46-2.06,2-.55-.79,3.82.17.13L170,38.1l-.18-.13Z"/><path class="cls-1" d="M173.37,37.66l.66-2,2-.36L174.91,39l1.33,1.2a3.69,3.69,0,0,0,.46-1.76l2.42-.54a4.29,4.29,0,0,1-.32,1.4,4.18,4.18,0,0,1-.74,1.22,4.24,4.24,0,0,1-.83.72l-1,.54-.82.45c-.09.05-.27.12-.52.23l-2.43-2.17.32-.91-1.11.2-2.23-2,1.66-2Zm4-3-.16-1.16H176.1l-.19-2.16,1.63-.05.14,1.19h1.17l.23,2.18Zm1-2.93-.26-2.18,1.67-.06.24,2.17Z"/><path class="cls-1" d="M101.61,18.84a4.14,4.14,0,0,1,.66,1.41,6.44,6.44,0,0,1,.16,2,8.34,8.34,0,0,1-.42,2.09,4.94,4.94,0,0,1-.69,1.4,1.54,1.54,0,0,1-.85.63,1.83,1.83,0,0,1-1.32-.31,11.28,11.28,0,0,1-1.9-1.46H98a2.29,2.29,0,0,0,.64,0,3.59,3.59,0,0,0,2.2-2,7.38,7.38,0,0,0,.31-1.14v-.29l-.45-.45-.61-.61a3.71,3.71,0,0,0-.5-.47l-.45-.32.95-2A11.49,11.49,0,0,1,101.61,18.84Z"/><path class="cls-1" d="M106.59,20.88a8.09,8.09,0,0,1-1.19.16,2.66,2.66,0,0,1-.69,0,1.47,1.47,0,0,1-.72-.5,1.45,1.45,0,0,1-.39-.85,5.22,5.22,0,0,1,.34-2.65,2.12,2.12,0,0,1,.26-.71c.11-.24.24-.45.35-.66a1.65,1.65,0,0,1,1.08-.93,1.8,1.8,0,0,1,1.46.66,7.64,7.64,0,0,1,.79,1A8.1,8.1,0,0,1,109,19.29a6.93,6.93,0,0,1-1.19,5,2,2,0,0,1-1.13.88,1.77,1.77,0,0,1-1.27-.61,4.58,4.58,0,0,1-.75-.56l-.87-.87-.16-.19h.19a5,5,0,0,0,1.22,0,2.89,2.89,0,0,0,1.64-.82,3.49,3.49,0,0,0,.52-.63,2.46,2.46,0,0,0,.4-.77Zm-.82-4.1a.76.76,0,0,0-.56.37,1.19,1.19,0,0,0-.16.74c0,.4.35.56.82.48H107C106.67,17.18,106.27,16.7,105.77,16.78Z"/><path class="cls-1" d="M113.73,17.65h0a5.91,5.91,0,0,0-.4-1.06c-.16-.29-.4-.6-.63-.95l-.21-.21-1.35,1.77a2,2,0,0,1,.39.43l.4.55c.15.2.29.4.42.61s.24.42.35.64v.15a7.31,7.31,0,0,1-.53,1.09,3.76,3.76,0,0,1-.69.69,4.07,4.07,0,0,1-.9.58,3.9,3.9,0,0,1-1,.24,3.64,3.64,0,0,1-.66,0h-.74a9.52,9.52,0,0,0,1.56,1.8,2.06,2.06,0,0,0,1.21.6c.56,0,1.14-.47,1.7-1.32a9.85,9.85,0,0,0,1.19-2.86h7.35l.74-.76,4,3.22,1-1.53L135,23.58l.4-.42.61-.77.68-.9A3.16,3.16,0,0,0,137,21a.75.75,0,0,1,.24-.61h0V20l.13-.55.72-2.65.26.24,1.41-1.56-1.25-1.14-.29-.26a1,1,0,0,1-.21-.37,1.4,1.4,0,0,1,0-.29v-.32l-1.24,1-.29.21a.76.76,0,0,0-.32.37.55.55,0,0,0,.26.61h0l-1.37,5.5-7.17-2,.32-1.93V16.3a2.35,2.35,0,0,0,0-.53,1,1,0,0,0-.11-.34,1.76,1.76,0,0,0-1-.42,4.16,4.16,0,0,0-1.79,0,4,4,0,0,0-1.54.79,9.24,9.24,0,0,0-.87.9,6.47,6.47,0,0,0-.58,1m4.23.4-.24,1.56-2.41-1.88a2.63,2.63,0,0,1,1-.58,1.89,1.89,0,0,1,1,0,.67.67,0,0,1,.74.79Z"/><path class="cls-1" d="M142.93,18.08l-.5.34v.19L142,19.8a3.41,3.41,0,0,1-.37.9,7.31,7.31,0,0,0-.29.79,7.93,7.93,0,0,1-1.48,2.38,6.47,6.47,0,0,1-2.25,1.35l.37-.74.37-.8a3.61,3.61,0,0,1,.37-.92,8,8,0,0,0,.34-.9l1-2.65.77-2.06v-.34l2.91-1.49Z"/></svg>