<svg id="Layer_1" data-name="Layer 1" xmlns="http://www.w3.org/2000/svg" viewBox="0 0 50 51"><defs><style>.cls-1,.cls-3{fill:none;stroke:#001a63;stroke-miterlimit:10;}.cls-1{stroke-width:0.5px;}.cls-2,.cls-4{fill:#001a63;}.cls-3{stroke-width:0.05px;}.cls-4{fill-rule:evenodd;}</style></defs><title>Drugs-icon</title><path class="cls-1" d="M43.5,10.89l-5,4.18A20,20,0,0,1,25,49.57,20,20,0,0,1,11.31,15.2l-5.12-4a23.93,23.93,0,1,0,37.31-.26"/><path class="cls-1" d="M43.84,11.4s5,5.7,4.83,15.56a39.63,39.63,0,0,1-1,6.12c-1.06,3.21-3.37,9.64-12.52,14.46,0,0,12-6.75,12.42-19.24a23.76,23.76,0,0,0-2.86-11.95Z"/><path class="cls-1" d="M39,15.74c5.77,5.45,5.9,13.77,5.9,13.77A19.28,19.28,0,0,1,42,40a19.91,19.91,0,0,1-17.1,9.7,16,16,0,0,0,11.82-3.32,21,21,0,0,0,9.3-15.94,20.79,20.79,0,0,0-2.93-12.67l-4.58-2.49Z"/><path class="cls-1" d="M5.2,29.76A19.75,19.75,0,1,0,25,9.84,19.83,19.83,0,0,0,5.2,29.76"/><path class="cls-1" d="M44.7,29.76A20,20,0,0,1,24.82,49.7,19.93,19.93,0,1,1,44.7,29.76Z"/><path class="cls-1" d="M49,26A24,24,0,1,1,25,2,24,24,0,0,1,49,26Z"/><line class="cls-1" x1="44.72" y1="16.2" x2="43.15" y2="17.8"/><path class="cls-1" d="M26.13,49.93a24.18,24.18,0,0,1-25-26.46A24.06,24.06,0,0,1,6.4,10.89"/><path class="cls-1" d="M16.15,47.49a19.81,19.81,0,0,0,10,2"/><path class="cls-1" d="M6.06,11.4S1.1,17.1,1.23,27a39.63,39.63,0,0,0,1,6.12c1.07,3.21,3.37,9.64,12.52,14.46,0,0-12-6.75-12.42-19.24A23.88,23.88,0,0,1,5.17,16.35Z"/><path class="cls-1" d="M25,49.68a16,16,0,0,1-11.81-3.32A21,21,0,0,1,3.85,30.42,20.76,20.76,0,0,1,6.79,17.75l4.57-2.49"/><line class="cls-1" x1="5.19" y1="16.2" x2="6.75" y2="17.8"/><polygon class="cls-2" points="13.3 12.42 12.93 12.34 12.73 12.84 13.4 13 13.54 12.66 13.91 12.73 14.1 12.25 13.43 12.08 13.3 12.42"/><path class="cls-2" d="M15.55,9c0-.15,0-.31,0-.46a1.89,1.89,0,0,0-.09-.67,1,1,0,0,0-.24-.36,1.13,1.13,0,0,0-.34-.28L14.68,8a1.14,1.14,0,0,1,.43.36L12.39,9.61l0,.84a2.36,2.36,0,0,1,.46-.18,2.46,2.46,0,0,1,.41,0,1.59,1.59,0,0,1-.08.18.89.89,0,0,1-.13.23,1.41,1.41,0,0,1-.47.45.9.9,0,0,1-.32.09.73.73,0,0,1-.3,0,1,1,0,0,1-.47-.5c0-.09-.08-.17-.11-.26a2.45,2.45,0,0,1-.11-.3l0-.07a3.42,3.42,0,0,0,.27,1.4,1,1,0,0,0,.56.48.89.89,0,0,0,.73-.07,2,2,0,0,0,.36-.25,4,4,0,0,0,.35-.36l.18-.24.13-.21v-1"/><path class="cls-2" d="M14.05,6.84a.31.31,0,0,0,.19,0,.69.69,0,0,0,0,.47,1,1,0,0,1,.13-.28,1.7,1.7,0,0,1,.19-.2,1.44,1.44,0,0,1,.34-.21l0-.37-.12.1-.11,0a1.59,1.59,0,0,1-.3.06.79.79,0,0,1-.28,0,.33.33,0,0,1,.11-.15.42.42,0,0,1,.17-.1.62.62,0,0,1,.25,0l0-.16s0,0,0-.09V5.83c0-.06-.11-.07-.27,0a.75.75,0,0,0-.28.2.88.88,0,0,0-.13.35.75.75,0,0,0,0,.33A.29.29,0,0,0,14.05,6.84Z"/><polygon class="cls-2" points="19.24 5.58 18.64 5.24 18.32 5.66 18.93 5.99 19.24 5.58"/><path class="cls-2" d="M19.05,8l.15-.27.12.21h.05l2.4-.34.28,0a.25.25,0,0,0,.12-.08.64.64,0,0,0,.13-.12,1.38,1.38,0,0,1,.31-.22A1.27,1.27,0,0,1,23,7.1a2.34,2.34,0,0,1,.62.05l.44-.77h-.32l-.33,0A2.87,2.87,0,0,1,23,6.25l-.32-.11-.13,0A.22.22,0,0,0,22.65,6s0,0,0-.1h0V5.83L22.56,5l.09,0,.22-.57-.41-.13a.85.85,0,0,1-.28-.12A.19.19,0,0,1,22.11,4V4l-.25.4a1.17,1.17,0,0,0-.08.13.13.13,0,0,0,0,.1c0,.06,0,.11.14.13l0,0,.12.94-.21,0h-.27a.42.42,0,0,0-.29.14,6.3,6.3,0,0,0-.44.59.6.6,0,0,1,.23-.06,1.36,1.36,0,0,1,.69.19l.16.08.12,0-.07,0-.07.07-2.35.3-.38-.72-.4.56.16.28-2,.5a.41.41,0,0,1-.15,0,.1.1,0,0,1-.07,0l-.05-.07s0-.08-.05-.15l-.65-2.11-.43.83.63,2,0,.1,0,.14q.08.24.39.15l.17-.06"/><polygon class="cls-2" points="22.05 8.3 22.61 8.71 22.97 8.33 22.42 7.92 22.05 8.3"/><path class="cls-2" d="M25.38,5.2l-.11-.9L24.59,5V5.8l0,.85a2.91,2.91,0,0,1,0,.3v.3c0,.07,0,.16,0,.26s0,.17,0,.24a1.79,1.79,0,0,0,.5-.62,2,2,0,0,0,.16-.82V6.05a2.78,2.78,0,0,0,0-.29V5.33Z"/><polygon class="cls-2" points="28.56 6.17 28.12 5.63 27.67 5.9 28.12 6.44 28.56 6.17"/><path class="cls-2" d="M31.58,8.8l.31-.23,1.1,1,.29-.23c.11-.09.21-.17.29-.25a.92.92,0,0,0,.26-.32,1.18,1.18,0,0,0,.05-.39,2.48,2.48,0,0,0,0-.49,1.14,1.14,0,0,0-.14-.37.46.46,0,0,0-.22-.2.55.55,0,0,0-.35,0l-.3.13-.5.3L32,8l-.06.05-.74-.28-1.06-.32-.81-.15a2.36,2.36,0,0,0-.2-.85l-.56.44a1.83,1.83,0,0,1,.19.52A2.46,2.46,0,0,1,28.8,8a1.86,1.86,0,0,1-.56.22,1.27,1.27,0,0,1-.51,0,.71.71,0,0,1-.5-.31.77.77,0,0,1-.09-.61,4.53,4.53,0,0,1,.22-.75,3.36,3.36,0,0,0-.64,1.28A1,1,0,0,0,27.49,9a1.92,1.92,0,0,0,.63,0,1.5,1.5,0,0,0,.29-.06A1,1,0,0,0,29,8.47l.17-.36m4.09.68-.68-.65,0,0,.12-.07L32.92,8l.14,0h0s0,0,0,0,.17.15.2.32A1.13,1.13,0,0,1,33.26,8.79Z"/><path class="cls-2" d="M35.7,6.58l.18,0,.21.06.25-.27-.16,0-.11,0a.93.93,0,0,1-.26-.18.54.54,0,0,1-.16-.22.36.36,0,0,1,.18,0A.41.41,0,0,1,36,6a.41.41,0,0,1,.11.07l.1.08.13-.1,0,0,.07-.07c0-.06,0-.12-.18-.19A.7.7,0,0,0,36,5.65a.92.92,0,0,0-.35.15.69.69,0,0,0-.23.22.26.26,0,0,0,.1.35.72.72,0,0,0-.35.32.83.83,0,0,1,.29-.1A.84.84,0,0,1,35.7,6.58Z"/><path class="cls-2" d="M36.12,9.64V9.57L36,9.1a3.38,3.38,0,0,0,.48-.16,3,3,0,0,0,.36-.18l0,.1.57-.26-.25-.5c-.07-.13-.09-.23,0-.31l.07-.09-.39.1-.15,0c-.11,0-.17.07-.19.11a.15.15,0,0,0,0,.09.58.58,0,0,0,0,.13l-.1.09-.15.11-.22.13-.16.07V8.51c0-.15-.06-.32-.09-.5s0-.25-.1-.43-.1-.32-.14-.42a.32.32,0,0,0-.1-.15.2.2,0,0,0-.13,0,1.34,1.34,0,0,0-.27.17.83.83,0,0,0-.23.24.41.41,0,0,0,0,.16,1.37,1.37,0,0,0,0,.32.58.58,0,0,0,0,.16.07.07,0,0,0,0,0s.07,0,.14,0h0l.14.35.1.26,0,.1h-.06l-.2.07-.19,0-.4.08-.13,0-.5.68,1.55.81.33-.29.08-.06a.87.87,0,0,0,.22-.25.39.39,0,0,0,0-.17Zm-1.2-.28.17,0a.9.9,0,0,0,.16,0l.25-.06h0l.12.52Z"/><path class="cls-2" d="M37.77,9l-.05.1-.31.58L37,10.4l-.15.25-.15.26-.15.21-.14.2a1.93,1.93,0,0,0,.75-.28,2.22,2.22,0,0,0,.55-.63l.13-.22A2.35,2.35,0,0,0,38,9.94l.19-.33,0,0,.17,0,.37-.83Z"/><path class="cls-3" d="M26.13,36.34a4,4,0,0,0-.86-1,1.42,1.42,0,0,1,.39-.15s.05,0,.07,0a.14.14,0,0,0,0-.09l-.16-.29a.11.11,0,0,0-.1-.06,2.63,2.63,0,0,0-.79.28s0,0,0,0l-.41-.17a.08.08,0,0,0-.11,0l-.23.28a.1.1,0,0,0,0,.07s0,.06.05.07l.21.13a3,3,0,0,0-.66.87.09.09,0,0,0,0,.07.1.1,0,0,0,.05.06l.35.15h0a.1.1,0,0,0,.08,0,3.85,3.85,0,0,1,.76-.82l0,0a3.46,3.46,0,0,1,.84.92.1.1,0,0,0,.08,0h0l.33-.13a.1.1,0,0,0,.05-.06A.11.11,0,0,0,26.13,36.34ZM24.23,35l.18.07-.18.12-.1-.06Zm-.34,1.31-.18-.08a2.66,2.66,0,0,1,1.72-1.32l.06.12A3.35,3.35,0,0,0,23.89,36.27Zm1.86.13a3.73,3.73,0,0,0-.74-.82l.16-.11a3.94,3.94,0,0,1,.73.87Z"/><path class="cls-3" d="M23.76,34.84l.06,0h0a.1.1,0,0,0,.05,0L24,35h.09a.1.1,0,0,0,.05-.06l.05-.14v0a2.45,2.45,0,0,0-.41-.93.1.1,0,0,0-.13,0h0a1.37,1.37,0,0,0-.15-.21.1.1,0,0,0-.1,0,.08.08,0,0,0-.07.08.26.26,0,0,0,0,.16.05.05,0,0,0,0,0c-.07-.06-.09-.08-.13-.08h0a.65.65,0,0,0-.15-.3.12.12,0,0,0-.11,0,.1.1,0,0,0-.06.1l0,.29a3.39,3.39,0,0,0-.47-1.06.1.1,0,0,0-.13,0v0c-.1-.19-.17-.19-.2-.19l-.09,0a.16.16,0,0,0,0,.07,2.29,2.29,0,0,0-.18-.31.1.1,0,0,0-.13,0h0a1.27,1.27,0,0,0-.11-.3l0,0a.11.11,0,0,0-.07,0c-.08,0-.13.07-.18.18,0-.08-.08-.17-.12-.24a.14.14,0,0,0-.12,0l0,0a.74.74,0,0,0-.07-.26.11.11,0,0,0-.09-.05.13.13,0,0,0-.09.07l-.06.18a2.44,2.44,0,0,0,0-.59.11.11,0,0,0-.09-.09h0a1.77,1.77,0,0,0,0-.22.08.08,0,0,0-.06-.08.09.09,0,0,0-.1,0,1.57,1.57,0,0,0-.18.16,2.76,2.76,0,0,0,0-.57c0-.05,0-.08-.09-.09h0a.48.48,0,0,0,0-.17.1.1,0,0,0-.14-.07.44.44,0,0,0-.12.08,2.81,2.81,0,0,0,.22-.69.09.09,0,0,0-.08-.09h0A1.22,1.22,0,0,0,20,29a.09.09,0,0,0-.06-.08.08.08,0,0,0-.09,0,.36.36,0,0,0-.12.09,2.69,2.69,0,0,0,.12-.38.1.1,0,0,0-.06-.11.09.09,0,0,0-.07,0,1.27,1.27,0,0,0,.08-.23.11.11,0,0,0-.05-.12h0a1.54,1.54,0,0,0,.14-.37,2.19,2.19,0,0,0,0-.22v0h0c0-.06,0-.07,0-.09a.11.11,0,0,0-.08,0s-.06,0-.08,0a.85.85,0,0,0-.22.07,2.72,2.72,0,0,0,.34-.54.1.1,0,0,0,0-.12h0a.7.7,0,0,0,.13-.18.1.1,0,0,0-.13-.13s-.31.13-.58.27h0A1.38,1.38,0,0,0,20,25.9a.1.1,0,0,0-.05-.11h0a.08.08,0,0,0,0-.05.09.09,0,0,0-.1,0l-.35.11a1.47,1.47,0,0,0,.58-1.15.08.08,0,0,0-.06-.1.11.11,0,0,0-.12,0l0,0a.1.1,0,0,0,0-.09.09.09,0,0,0-.11,0,4.6,4.6,0,0,0-.65.53,1.48,1.48,0,0,0-.39-.52.08.08,0,0,0-.11,0l0,0h0a.1.1,0,0,0-.09.07,2.62,2.62,0,0,0-.14.84l-.15-.1a.11.11,0,0,0-.11,0,.09.09,0,0,0,0,.1,1.53,1.53,0,0,0,.06.22h0a.09.09,0,0,0-.09.09,1.52,1.52,0,0,0,.11.69s0,0,0,0a.06.06,0,0,0-.06.05.28.28,0,0,1,0-.06.11.11,0,0,0-.11-.09.09.09,0,0,0-.09.09,2.87,2.87,0,0,0,.12,1.09.39.39,0,0,0-.17,0,.28.28,0,0,0-.13,0,.1.1,0,0,0,0,.13s0,.05.07.13h0a.1.1,0,0,0,0,.12,2.44,2.44,0,0,0,.32.62l-.33-.07a.1.1,0,0,0-.1,0,.14.14,0,0,0,0,.11.75.75,0,0,1,.07.12.09.09,0,0,0,0,.11,1.67,1.67,0,0,0,.38.57h-.26a.1.1,0,0,0-.09.06.12.12,0,0,0,0,.1l.05.06h0a.09.09,0,0,0,0,.13,2.6,2.6,0,0,0,.59.68l-.36,0a.1.1,0,0,0-.1.05.09.09,0,0,0,0,.11l.11.12s0,0,0,0a.09.09,0,0,0,0,.13,3.7,3.7,0,0,0,1.48,1h0a1.34,1.34,0,0,1-.49.2h0a.1.1,0,0,0-.06.19l.1,0,0,0a.09.09,0,0,0,0,.11.7.7,0,0,0,.4.23l-.19.07a.11.11,0,0,0-.08.08.14.14,0,0,0,0,.1L19,33l0,0a.1.1,0,0,0,0,.12,2.26,2.26,0,0,0,1.38.57l-.29.23a.08.08,0,0,0,0,.1.11.11,0,0,0,.08.08h.15v0a.1.1,0,0,0,.07.11,2,2,0,0,0,.55.08h.08a1.05,1.05,0,0,1-.35.25.1.1,0,0,0-.06.09.1.1,0,0,0-.05.06.09.09,0,0,0,.06.11,2.26,2.26,0,0,0,.83.16h0a1.69,1.69,0,0,0,.33,0l-.15.17a.13.13,0,0,0,0,.12.11.11,0,0,0,.09,0h0s.21,0,.46-.11a.1.1,0,0,0,.07.16h0a3.6,3.6,0,0,0,1.35-.59.08.08,0,0,0,0-.07ZM22,33.5l-.08,0a2.53,2.53,0,0,0,0-.27C22,33.3,22,33.41,22,33.5Zm-.16.28.06,0a2.4,2.4,0,0,1-.82.3A1.73,1.73,0,0,0,21.86,33.78Zm-.28-.57v0a1,1,0,0,0,0-.15Zm-.39-.38-.08-.07v-.34C21.14,32.57,21.17,32.71,21.19,32.83Zm-.45-.91c0,.14,0,.3,0,.45l-.16-.18A2.77,2.77,0,0,0,20.74,31.92Zm-.47-.81,0,0a3.19,3.19,0,0,1-.12.57Zm.17,1.38.07.08h-.43a5.78,5.78,0,0,1-.63,0h.24A4.22,4.22,0,0,0,20.44,32.49Zm-.52-1.1v0h0Zm-.14-.88a.67.67,0,0,1,.08-.17,6.36,6.36,0,0,1-.16.73l-.09-.16c0-.06.08-.17.17-.39Zm-.05-1.24a5,5,0,0,1-.49.95l-.07-.17Zm-.28,1.19,0,.09h0S19.44,30.49,19.45,30.46Zm-.3-1.39-.23.3,0-.07Zm-.29-.14v-.1a1.2,1.2,0,0,0,.28-.21C19,28.74,18.94,28.85,18.86,28.93Zm.25.7-.06.09v0A.19.19,0,0,0,19.11,29.63Zm.09,1.16.06.09a2.47,2.47,0,0,1-.82-.37A3.75,3.75,0,0,0,19.2,30.79Zm.33-3.07a3,3,0,0,1-.72.77v-.08l.53-.52h0A.52.52,0,0,1,19.53,27.72Zm-.72.28v-.12a4.28,4.28,0,0,0,.36-.3C19.05,27.74,18.92,27.89,18.81,28Zm1-2.88a1,1,0,0,1-.32.47ZM19.39,25l-.18.31,0-.13Zm-.23.87h0Zm0,.21.38-.12a2.49,2.49,0,0,1-.46.33Zm.26.8c-.16.16-.38.36-.58.54l0-.26A5.81,5.81,0,0,1,19.44,26.91ZM19,25.44s0,0,0,.07l-.13-.44A1.07,1.07,0,0,1,19,25.44ZM18.53,25l.33,1.1-.07.21A1.48,1.48,0,0,1,18.53,25Zm0,2.34v.14a2.45,2.45,0,0,1-.18-.29A1.19,1.19,0,0,0,18.51,27.36Zm0,.55v.2a1.44,1.44,0,0,1-.46-.75A1.45,1.45,0,0,0,18.47,27.91Zm-.7-.18,0,0a2.3,2.3,0,0,0,.66.76l0,.14A5.22,5.22,0,0,1,17.77,27.73Zm-.07,1,.13,0c.05.07.2.25.39.46A3,3,0,0,1,17.7,28.73Zm.07.89h0a5,5,0,0,0,1.15.71l0,.06A4.73,4.73,0,0,1,17.77,29.62Zm.32,1.05a2.1,2.1,0,0,0,1.39.57l.11.18a5.29,5.29,0,0,1-1.65-.77Zm.51.7c.53.21,1.09.37,1.22.41l.1.11A3.83,3.83,0,0,1,18.6,31.37Zm.41.8.18-.09a2.07,2.07,0,0,0,.64.14h-.09A4.35,4.35,0,0,1,19,32.17Zm.19.66c.12,0,.53.06.95.06a3.24,3.24,0,0,0,.61,0l.18.18c-.15,0-.37,0-.61,0h0a3.11,3.11,0,0,1-1.19-.19Zm.28.45a6.2,6.2,0,0,0,1,.1,3,3,0,0,0,.71-.08l.07.06a2.43,2.43,0,0,1-.84.16h0A2,2,0,0,1,19.48,33.28Zm1,.66h-.08l.1-.08a2.6,2.6,0,0,0,1.08-.3l.06,0A2.12,2.12,0,0,1,20.44,33.94Zm.51.66a.84.84,0,0,0,.19-.2,2.34,2.34,0,0,0,1-.38l.15.09A2,2,0,0,1,21,34.6Zm1,.45h0l.17,0Zm-.35-.25a2.11,2.11,0,0,0,1-.52l.06,0A1.94,1.94,0,0,1,21.56,34.8Zm.55.19a2,2,0,0,0,.81-.52l.09.05A2.23,2.23,0,0,1,22.11,35Zm.59,0c.19-.12.43-.27.56-.37l0,0C23.15,34.79,22.92,34.93,22.7,35Z"/><polygon class="cls-3" points="24.23 35.27 24.62 35.01 24.2 34.84 23.98 35.12 24.23 35.27"/><path class="cls-3" d="M25.49,34.76a2.81,2.81,0,0,0-1.92,1.48l.35.15a3.1,3.1,0,0,1,1.72-1.34Z"/><path class="cls-3" d="M25.18,35.35l-.34.22a3.5,3.5,0,0,1,.87,1l.33-.13A3.83,3.83,0,0,0,25.18,35.35Z"/><path class="cls-3" d="M19.06,25.43a1.38,1.38,0,0,0-.45-.81L19,26C19.12,25.9,19.06,25.43,19.06,25.43Z"/><path class="cls-3" d="M18.82,26.48h0l.13-.36-.45-1.47C18.11,26,18.82,26.48,18.82,26.48Z"/><path class="cls-3" d="M19.75,24.62a5.58,5.58,0,0,0-.67.56l.07.44Z"/><path class="cls-3" d="M20,24.65l-.77,1.15C19.91,25.7,20,24.65,20,24.65Z"/><path class="cls-3" d="M19.1,26l-.17.5a2.49,2.49,0,0,0,.91-.73Z"/><path class="cls-3" d="M18.84,26.83s.9-.23,1.06-.95a3.86,3.86,0,0,1-1,.79Z"/><polygon class="cls-3" points="18.78 27.02 19.08 26.83 18.81 26.9 18.78 27.02"/><path class="cls-3" d="M18.75,27.68a8.4,8.4,0,0,0,1.05-1,10.92,10.92,0,0,0-1,.5Z"/><path class="cls-3" d="M18.71,28.25a6.73,6.73,0,0,0,1-1.3s-.89.83-1,.88Z"/><path class="cls-3" d="M18.71,28.67a2.89,2.89,0,0,0,1-1.11.63.63,0,0,0-.46.26l-.56.55Z"/><path class="cls-3" d="M19.73,27.77c.11-.54,0,0,0,0s-.7,1-1,1l0,.39A4.24,4.24,0,0,0,19.73,27.77Z"/><path class="cls-3" d="M19.69,28.25a5.24,5.24,0,0,1-.91,1l.09.33A4.22,4.22,0,0,0,19.69,28.25Z"/><path class="cls-3" d="M19.73,28.6a6.37,6.37,0,0,1-.8,1.06l.08.28A4.17,4.17,0,0,0,19.73,28.6Z"/><path class="cls-3" d="M19.88,29a1,1,0,0,0-.19.17l-.63.88.16.39A4,4,0,0,0,19.88,29Z"/><path class="cls-3" d="M19.93,29.43s-.4.73-.64,1.1l.12.27A9.26,9.26,0,0,0,19.93,29.43Z"/><path class="cls-3" d="M19.69,30.48a3.7,3.7,0,0,1-.19.42,3.18,3.18,0,0,0,.23.4A4.64,4.64,0,0,0,20,30.11.62.62,0,0,0,19.69,30.48Z"/><path class="cls-3" d="M19.78,31.4s.2.29.2.29a8.07,8.07,0,0,0,.12-1.33s-.11.59-.16.73S19.83,31.42,19.78,31.4Z"/><path class="cls-3" d="M20.21,31.92a5.15,5.15,0,0,0,.21-1.07s-.2.13-.24.23l-.12.68Z"/><path class="cls-3" d="M20.39,32.14a3.09,3.09,0,0,0,.15-1l-.25.86Z"/><path class="cls-3" d="M20.5,32.19l.4.47a5.2,5.2,0,0,0-.14-1.08A4,4,0,0,1,20.5,32.19Z"/><path class="cls-3" d="M21.33,33.1A3.33,3.33,0,0,0,21,31.87l.05.93Z"/><path class="cls-3" d="M21.46,33.24l.26.19A7.3,7.3,0,0,0,21.36,32s0,0-.11.17A5.52,5.52,0,0,1,21.46,33.24Z"/><path class="cls-3" d="M21.84,33.5l.33.23a4.69,4.69,0,0,0-.54-1.44A4.42,4.42,0,0,1,21.84,33.5Z"/><path class="cls-3" d="M22.49,33.94s-.3-1.51-.5-1.38a4.18,4.18,0,0,1,.29,1.23Z"/><path class="cls-3" d="M22.63,34l.22.17a5.36,5.36,0,0,0-.56-1.46A3.84,3.84,0,0,1,22.63,34Z"/><path class="cls-3" d="M23.14,34.35a2.09,2.09,0,0,0-.23-1l.05.86Z"/><path class="cls-3" d="M23.27,34.41l.27.17a2.84,2.84,0,0,0-.31-.78Z"/><path class="cls-3" d="M23.23,33.8h0v0S23.08,33.65,23.23,33.8Z"/><path class="cls-3" d="M23.45,33.83a2.41,2.41,0,0,1,.19.79l.18.14a2.08,2.08,0,0,0-.41-1.16A.54.54,0,0,0,23.45,33.83Z"/><path class="cls-3" d="M23.69,33.83a3.2,3.2,0,0,1,.24,1l.11,0,0-.14A2.34,2.34,0,0,0,23.69,33.83Z"/><path class="cls-3" d="M18.78,26.61a2,2,0,0,1-.51-1l-.18-.12a4,4,0,0,0,.62,1.34Z"/><path class="cls-3" d="M18.68,27.16v-.24A2.33,2.33,0,0,1,18,25.8,1.64,1.64,0,0,0,18.68,27.16Z"/><path class="cls-3" d="M18.61,27.76v-.45a2,2,0,0,1-.58-.74A2.08,2.08,0,0,0,18.61,27.76Z"/><path class="cls-3" d="M18.57,28.3v-.45c-.59-.32-.73-1.37-.73-1.37C17.74,27.9,18.57,28.3,18.57,28.3Z"/><path class="cls-3" d="M18.57,28.45a2.06,2.06,0,0,1-.69-.77.32.32,0,0,0-.28-.05,5.27,5.27,0,0,0,1,1.28Z"/><path class="cls-3" d="M18.75,29.43l-.11-.4a3.65,3.65,0,0,1-1-1.13A4.38,4.38,0,0,0,18.75,29.43Z"/><path class="cls-3" d="M18.84,29.71l-.06-.13a5.34,5.34,0,0,1-.9-.92l-.4-.09A3.64,3.64,0,0,0,18.84,29.71Z"/><path class="cls-3" d="M19,30.11l-.09-.25s-1.15-.6-1.35-1A2.63,2.63,0,0,0,19,30.11Z"/><path class="cls-3" d="M17.55,29.52a4.82,4.82,0,0,0,1.67,1.08L19,30.25a4.54,4.54,0,0,1-1.18-.73Z"/><path class="cls-3" d="M19.47,31l-.21-.32a3.75,3.75,0,0,1-1.71-1A2.94,2.94,0,0,0,19.47,31Z"/><path class="cls-3" d="M19.81,31.58l-.27-.43a1.89,1.89,0,0,1-1.4-.58l-.45,0A5,5,0,0,0,19.81,31.58Z"/><path class="cls-3" d="M19.88,31.69a7.31,7.31,0,0,1-2.12-.89A3.83,3.83,0,0,0,20.17,32Z"/><path class="cls-3" d="M20.42,32.29l-.18-.14a3,3,0,0,1-1-.18,1.49,1.49,0,0,1-.55.21A3.78,3.78,0,0,0,20.42,32.29Z"/><path class="cls-3" d="M20.7,32.66a1.89,1.89,0,0,0-.23-.28,5.52,5.52,0,0,1-1.72,0C19.06,32.8,20.7,32.66,20.7,32.66Z"/><path class="cls-3" d="M21.15,33.1l-.36-.37a5.47,5.47,0,0,1-1.61,0,1.19,1.19,0,0,1-.28.1A4.06,4.06,0,0,0,21.15,33.1Z"/><path class="cls-3" d="M21.46,33.39l-.21-.21A5,5,0,0,1,19,33.07,2.26,2.26,0,0,0,21.46,33.39Z"/><path class="cls-3" d="M21.77,33.6l-.23-.17a2.47,2.47,0,0,1-1.12.33L20.1,34A2.15,2.15,0,0,0,21.77,33.6Z"/><path class="cls-3" d="M22.1,33.83l-.26-.18c-.21.37-1.5.51-1.5.51A2.09,2.09,0,0,0,22.1,33.83Z"/><path class="cls-3" d="M21.09,34.31a1.06,1.06,0,0,1-.46.37,2.18,2.18,0,0,0,1.86-.59l-.32-.19A2.17,2.17,0,0,1,21.09,34.31Z"/><path class="cls-3" d="M22.82,34.3l-.25-.14a2.61,2.61,0,0,1-2,.6A2,2,0,0,0,22.82,34.3Z"/><path class="cls-3" d="M23.16,34.5l-.25-.15a1.91,1.91,0,0,1-1,.6l-.24.27A3,3,0,0,0,23.16,34.5Z"/><path class="cls-3" d="M22.36,35.1l-.19.17a3.46,3.46,0,0,0,1.32-.57l-.24-.17A6.51,6.51,0,0,1,22.36,35.1Z"/><path class="cls-3" d="M32.64,28.51a.09.09,0,0,0-.1,0l-.33.07a2.86,2.86,0,0,0,.33-.62.1.1,0,0,0-.06-.12h0a.4.4,0,0,0,.07-.13.11.11,0,0,0-.05-.13.28.28,0,0,0-.13,0,.44.44,0,0,0-.18,0,2.59,2.59,0,0,0,.13-1.08.11.11,0,0,0-.1-.09.11.11,0,0,0-.11.09.18.18,0,0,1,0,.05.07.07,0,0,0-.06,0h0a1.46,1.46,0,0,0,.11-.68A.09.09,0,0,0,32,25.7h0l.07-.22a.08.08,0,0,0,0-.1.11.11,0,0,0-.11,0l-.16.1a2.37,2.37,0,0,0-.14-.84.1.1,0,0,0-.09-.07h0a0,0,0,0,0,0,0,.09.09,0,0,0-.12,0,1.74,1.74,0,0,0-.4.52,5.29,5.29,0,0,0-.67-.53.1.1,0,0,0-.12,0,.16.16,0,0,0,0,.09l0,0a.11.11,0,0,0-.12,0,.1.1,0,0,0-.07.1,1.43,1.43,0,0,0,.61,1.15l-.36-.11a.11.11,0,0,0-.12,0,.08.08,0,0,0,0,.05h0a.1.1,0,0,0-.05.11,1.39,1.39,0,0,0,.85.91h0l-.61-.26a.09.09,0,0,0-.11,0,.09.09,0,0,0,0,.11.92.92,0,0,0,.13.18h0a.1.1,0,0,0,0,.12,2.52,2.52,0,0,0,.35.53,1.12,1.12,0,0,0-.23-.06s0,0-.08,0a.11.11,0,0,0-.08,0s0,0,0,.09h0a1.85,1.85,0,0,0,0,.23,1.2,1.2,0,0,0,.15.36h0a.1.1,0,0,0-.06.12,2,2,0,0,0,.08.22H30.2a.09.09,0,0,0-.07.1,1.78,1.78,0,0,0,.13.39.47.47,0,0,0-.13-.1.09.09,0,0,0-.1,0A.08.08,0,0,0,30,29a1,1,0,0,0,.06.35h0a.12.12,0,0,0-.08.09,3.3,3.3,0,0,0,.23.69L30,30h-.1a.1.1,0,0,0-.05.08.85.85,0,0,0,0,.16h0a.11.11,0,0,0-.1.09,3.7,3.7,0,0,0,0,.56l-.19-.15a.14.14,0,0,0-.11,0,.11.11,0,0,0,0,.09.86.86,0,0,0,0,.22h0a.11.11,0,0,0-.1.08,2.12,2.12,0,0,0,.05.6,1.46,1.46,0,0,1-.07-.19.11.11,0,0,0-.09-.06.12.12,0,0,0-.1.05.85.85,0,0,0-.07.25h0a.11.11,0,0,0-.12,0,1.36,1.36,0,0,0-.13.24c-.05-.12-.1-.18-.18-.18a.11.11,0,0,0-.08,0,0,0,0,0,0,0,0,1,1,0,0,0-.13.3l0,0a.1.1,0,0,0-.12,0,2,2,0,0,0-.2.32.09.09,0,0,0,0-.08l-.08,0s-.11,0-.21.18l0,0a.11.11,0,0,0-.13,0,3.11,3.11,0,0,0-.48,1l0-.28a.1.1,0,0,0-.06-.1.11.11,0,0,0-.12,0,.82.82,0,0,0-.16.31h0c-.05,0-.07,0-.14.08l0,0a.56.56,0,0,0,0-.17.11.11,0,0,0-.08-.08.1.1,0,0,0-.1,0,1.77,1.77,0,0,0-.16.22h0a.13.13,0,0,0-.13,0,2.27,2.27,0,0,0-.42.93,0,0,0,0,0,0,.05l0,.15,0,0c0,.08,0,.28.53.38h.48v-.08l.39,0,.13,0h0a1.58,1.58,0,0,0,.43.09h0a.11.11,0,0,0,.09-.06.12.12,0,0,0,0-.1l.47.11h0a.11.11,0,0,0,.09-.05.11.11,0,0,0,0-.11L28.19,35l.34,0h0a2.64,2.64,0,0,0,.86-.15.09.09,0,0,0,.06-.12.06.06,0,0,0-.05-.06.09.09,0,0,0-.06-.09,1,1,0,0,1-.36-.25h.09a1.88,1.88,0,0,0,.57-.09.1.1,0,0,0,.07-.1s0,0,0,0h.16A.11.11,0,0,0,30,34a.1.1,0,0,0,0-.11l-.29-.22a2.43,2.43,0,0,0,1.43-.57.11.11,0,0,0,0-.12l0,0a.35.35,0,0,0,.12-.07.08.08,0,0,0,0-.1.08.08,0,0,0-.07-.08l-.2-.06a.75.75,0,0,0,.41-.23.09.09,0,0,0,0-.11l0,0c.07,0,.1,0,.1,0a.08.08,0,0,0,.05-.11.09.09,0,0,0-.11-.07h0a1.5,1.5,0,0,1-.51-.2h0a3.8,3.8,0,0,0,1.52-1,.1.1,0,0,0,0-.14h0a.69.69,0,0,0,.11-.13.09.09,0,0,0,0-.11.12.12,0,0,0-.1,0l-.38,0a3.39,3.39,0,0,0,.62-.68.1.1,0,0,0,0-.13h0l0-.06a.09.09,0,0,0,0-.11.11.11,0,0,0-.09,0h-.27a2.12,2.12,0,0,0,.4-.57.1.1,0,0,0,0-.12.41.41,0,0,0,.07-.11A.09.09,0,0,0,32.64,28.51Zm-.41-.76,0,0a5.21,5.21,0,0,1-.74.91V28.5A2.12,2.12,0,0,0,32.23,27.75Zm-.21-.4a1.54,1.54,0,0,1-.48.76V27.9A1.42,1.42,0,0,0,32,27.35Zm-.34-.14a2.77,2.77,0,0,1-.18.28v-.13ZM31.48,25a1.4,1.4,0,0,1-.28,1.3l-.07-.2Zm-.3,3-.38-.42a4.32,4.32,0,0,0,.38.3ZM31,25.44a1.34,1.34,0,0,1,.12-.37l-.13.44A.17.17,0,0,0,31,25.44Zm-.21.45h0Zm0-.68,0,.13L30.59,25Zm-.6-.09.33.47A1,1,0,0,1,30.2,25.12Zm.22.87.39.12.07.21A2.2,2.2,0,0,1,30.42,26Zm.7,1.2v.26l-.6-.54C30.74,27,31,27.11,31.12,27.19Zm-.49.69h0l.55.53v.07a2.82,2.82,0,0,1-.75-.76A.54.54,0,0,1,30.63,27.88Zm.31,1.83-.06-.08.06.06Zm.63.79a2.65,2.65,0,0,1-.85.38l.06-.09A4.89,4.89,0,0,0,31.57,30.5Zm-.73-1.43a2.53,2.53,0,0,0,.26.23l0,.07Zm0-.46a1.47,1.47,0,0,0,.29.22v.1Zm0,1.44-.07.17a6.17,6.17,0,0,1-.51-.95Zm-.24.48v0l0-.09Zm-.39,0v0c.09.22.15.33.18.39l-.09.15a4.43,4.43,0,0,1-.17-.72A.6.6,0,0,1,30.18,30.5Zm-.13.91v0Zm-.38-.3.09.53a5.23,5.23,0,0,1-.12-.57Zm-.18,1.37a3.81,3.81,0,0,0,.79.07h.24a4.11,4.11,0,0,1-.65,0h-.44Zm-.3-.56a1.7,1.7,0,0,0,.12.26l-.16.19C29.16,32.21,29.17,32.05,29.19,31.92Zm-.37.5,0,.33-.08.07A2.59,2.59,0,0,1,28.82,32.42Zm-.47.62a1,1,0,0,0,0,.15h0A1.24,1.24,0,0,1,28.35,33Zm-.32.74a2,2,0,0,0,.78.34,2.22,2.22,0,0,1-.85-.3ZM28,33.17c0,.1,0,.19,0,.27l-.08.06C27.89,33.4,27.92,33.29,28,33.17Zm-1.38,1.48a4.18,4.18,0,0,0,.58.37,6.27,6.27,0,0,1-.64-.33Zm.26-.13.09-.05a2.16,2.16,0,0,0,.84.52A2.64,2.64,0,0,1,26.84,34.52Zm.95.47L28,35v0Zm-.59-.68.07,0a2.13,2.13,0,0,0,1.07.51A2,2,0,0,1,27.2,34.31Zm.34-.21L27.7,34a2.37,2.37,0,0,0,1.07.39,1.26,1.26,0,0,0,.2.19A2.08,2.08,0,0,1,27.54,34.1Zm2-.17a2.22,2.22,0,0,1-1.21-.33l.07-.05a2.8,2.8,0,0,0,1.12.3l.1.08Zm0-.42h0a2.63,2.63,0,0,1-.87-.15l.07-.07a2.7,2.7,0,0,0,.74.08,6.48,6.48,0,0,0,1.06-.1A2.17,2.17,0,0,1,29.49,33.51Zm.12-.47L29,33l.18-.19a2.78,2.78,0,0,0,.64.06,7.24,7.24,0,0,0,1-.07l.06,0A3.07,3.07,0,0,1,29.61,33ZM31,32.17a4.67,4.67,0,0,1-.76,0h-.09a2.14,2.14,0,0,0,.66-.14ZM30,31.88l.1-.11a10.83,10.83,0,0,0,1.26-.4A3.91,3.91,0,0,1,30,31.88Zm2-1.23a5.48,5.48,0,0,1-1.7.76l.11-.17a2.26,2.26,0,0,0,1.45-.58Zm.16-1h0a4.93,4.93,0,0,1-1.25.76l0-.05A4.84,4.84,0,0,0,32.24,29.62Zm-.44-.41c.2-.21.35-.39.41-.46l.13,0A3.15,3.15,0,0,1,31.8,29.21Z"/><path class="cls-3" d="M30.93,25.43a1.37,1.37,0,0,1,.46-.81L31,26C30.86,25.9,30.93,25.43,30.93,25.43Z"/><path class="cls-3" d="M31.18,26.48h0L31,26.12l.47-1.47C31.92,26,31.18,26.48,31.18,26.48Z"/><path class="cls-3" d="M30.22,24.62a6,6,0,0,1,.69.56l-.08.44Z"/><path class="cls-3" d="M30,24.65l.8,1.15C30.05,25.69,30,24.65,30,24.65Z"/><path class="cls-3" d="M30.89,26l.18.51a2.59,2.59,0,0,1-.95-.73Z"/><path class="cls-3" d="M31.15,26.82s-.93-.22-1.09-.94a3.91,3.91,0,0,0,1.06.79Z"/><polygon class="cls-3" points="31.22 27.02 30.91 26.82 31.18 26.9 31.22 27.02"/><path class="cls-3" d="M31.25,27.68a8.35,8.35,0,0,1-1.09-1,11.61,11.61,0,0,1,1.06.5Z"/><path class="cls-3" d="M31.29,28.25A6.89,6.89,0,0,1,30.23,27s.93.83,1.05.88Z"/><path class="cls-3" d="M31.29,28.67a2.92,2.92,0,0,1-1.06-1.11.68.68,0,0,1,.48.25l.58.55Z"/><path class="cls-3" d="M30.23,27.77c-.11-.54,0,0,0,0s.73,1,1,1l0,.39A4.32,4.32,0,0,1,30.23,27.77Z"/><path class="cls-3" d="M30.28,28.25a5.28,5.28,0,0,0,.94,1l-.09.32A4,4,0,0,1,30.28,28.25Z"/><path class="cls-3" d="M30.23,28.6a5.86,5.86,0,0,0,.83,1l-.08.28A4.29,4.29,0,0,1,30.23,28.6Z"/><path class="cls-3" d="M30.08,29a.83.83,0,0,1,.2.17l.65.87-.17.4S30.05,29.43,30.08,29Z"/><path class="cls-3" d="M30,29.42s.41.74.66,1.1l-.13.28A8.93,8.93,0,0,1,30,29.42Z"/><path class="cls-3" d="M30.28,30.48a3.7,3.7,0,0,0,.19.42,3.26,3.26,0,0,1-.24.4A5,5,0,0,1,30,30.11.66.66,0,0,1,30.28,30.48Z"/><path class="cls-3" d="M30.18,31.39s-.2.3-.2.3a7.06,7.06,0,0,1-.12-1.33,6.29,6.29,0,0,0,.16.72S30.13,31.42,30.18,31.39Z"/><path class="cls-3" d="M29.74,31.92a5,5,0,0,1-.22-1.08.85.85,0,0,1,.25.24l.12.68Z"/><path class="cls-3" d="M29.55,32.13a2.93,2.93,0,0,1-.16-1l.26.85Z"/><path class="cls-3" d="M29.44,32.19l-.41.46a5,5,0,0,1,.14-1.07A3.56,3.56,0,0,0,29.44,32.19Z"/><path class="cls-3" d="M28.58,33.09A3.26,3.26,0,0,1,29,31.86l-.05.94Z"/><path class="cls-3" d="M28.44,33.24l-.27.19A7.31,7.31,0,0,1,28.54,32s0,0,.12.16A5.43,5.43,0,0,0,28.44,33.24Z"/><path class="cls-3" d="M28.05,33.49l-.35.24a4.43,4.43,0,0,1,.57-1.44A4.22,4.22,0,0,0,28.05,33.49Z"/><path class="cls-3" d="M27.38,33.94s.31-1.52.51-1.38a4.08,4.08,0,0,0-.29,1.22Z"/><path class="cls-3" d="M27.23,34l-.23.17a5.12,5.12,0,0,1,.58-1.46A3.78,3.78,0,0,0,27.23,34Z"/><path class="cls-3" d="M26.7,34.34a2.08,2.08,0,0,1,.24-1l-.05.86Z"/><path class="cls-3" d="M26.56,34.41l-.27.17a2.82,2.82,0,0,1,.32-.78Z"/><path class="cls-3" d="M26.61,33.8h0v0S26.76,33.64,26.61,33.8Z"/><path class="cls-3" d="M26.38,33.82a2.18,2.18,0,0,0-.19.8l-.19.14a2,2,0,0,1,.42-1.16A.37.37,0,0,1,26.38,33.82Z"/><path class="cls-3" d="M26.13,33.83a3.06,3.06,0,0,0-.25,1l-.11,0,0-.15A2.23,2.23,0,0,1,26.13,33.83Z"/><path class="cls-3" d="M31.22,26.61a2,2,0,0,0,.53-1l.18-.12a4,4,0,0,1-.64,1.34Z"/><path class="cls-3" d="M31.32,27.16v-.24A2.39,2.39,0,0,0,32,25.8,1.66,1.66,0,0,1,31.32,27.16Z"/><path class="cls-3" d="M31.39,27.76v-.45a1.92,1.92,0,0,0,.6-.74A2,2,0,0,1,31.39,27.76Z"/><path class="cls-3" d="M31.44,28.3v-.45c.6-.33.75-1.37.75-1.37A1.73,1.73,0,0,1,31.44,28.3Z"/><path class="cls-3" d="M31.44,28.45a2.1,2.1,0,0,0,.71-.77.34.34,0,0,1,.29-.05,5,5,0,0,1-1,1.28Z"/><path class="cls-3" d="M31.25,29.42l.11-.39a3.69,3.69,0,0,0,1.08-1.13A4.35,4.35,0,0,1,31.25,29.42Z"/><path class="cls-3" d="M31.15,29.71l.07-.14a5.38,5.38,0,0,0,.93-.91l.41-.09A3.84,3.84,0,0,1,31.15,29.71Z"/><path class="cls-3" d="M31,30.11l.09-.25s1.2-.6,1.4-1.05A2.67,2.67,0,0,1,31,30.11Z"/><path class="cls-3" d="M32.49,29.52a5,5,0,0,1-1.73,1.08l.22-.35a5.06,5.06,0,0,0,1.22-.73Z"/><path class="cls-3" d="M30.5,31l.22-.32a4,4,0,0,0,1.77-1A3,3,0,0,1,30.5,31Z"/><path class="cls-3" d="M30.15,31.58l.28-.43a2,2,0,0,0,1.45-.58l.47-.05A5.25,5.25,0,0,1,30.15,31.58Z"/><path class="cls-3" d="M30.08,31.69a7.64,7.64,0,0,0,2.19-.89A4,4,0,0,1,29.78,32Z"/><path class="cls-3" d="M29.52,32.29l.18-.15A3.21,3.21,0,0,0,30.79,32a1.55,1.55,0,0,0,.57.21A4.07,4.07,0,0,1,29.52,32.29Z"/><path class="cls-3" d="M29.23,32.65s.21-.28.24-.27a5.93,5.93,0,0,0,1.78,0C30.92,32.8,29.23,32.65,29.23,32.65Z"/><path class="cls-3" d="M28.76,33.09l.37-.37a5.88,5.88,0,0,0,1.67,0,1.71,1.71,0,0,0,.29.11A4.3,4.3,0,0,1,28.76,33.09Z"/><path class="cls-3" d="M28.44,33.39l.22-.21A5.31,5.31,0,0,0,31,33.06,2.43,2.43,0,0,1,28.44,33.39Z"/><path class="cls-3" d="M28.12,33.6l.24-.17a2.78,2.78,0,0,0,1.16.33l.33.25A2.32,2.32,0,0,1,28.12,33.6Z"/><path class="cls-3" d="M27.78,33.83l.26-.19c.23.37,1.57.52,1.57.52A2.28,2.28,0,0,1,27.78,33.83Z"/><path class="cls-3" d="M28.83,34.3a1.05,1.05,0,0,0,.47.37,2.3,2.3,0,0,1-1.92-.59l.32-.19A2.22,2.22,0,0,0,28.83,34.3Z"/><path class="cls-3" d="M27,34.29l.25-.14a2.75,2.75,0,0,0,2.06.61A2.17,2.17,0,0,1,27,34.29Z"/><path class="cls-3" d="M26.68,34.49l.26-.15a2,2,0,0,0,1.08.6l.25.27A3.2,3.2,0,0,1,26.68,34.49Z"/><path class="cls-3" d="M27.5,35.1l.2.16a3.65,3.65,0,0,1-1.36-.57l.25-.16A7.62,7.62,0,0,0,27.5,35.1Z"/><path class="cls-3" d="M26,34.85a2.13,2.13,0,0,0,1,.41s-.77-.32-.87-.54Z"/><path class="cls-3" d="M25.85,34.93a1.41,1.41,0,0,0,.83.36s-.91-.1-.93-.36Z"/><path class="cls-2" d="M20.36,28.31,22,29.1a2.42,2.42,0,0,0,1.6,1.95s.71.4.94-.14c0,0,.16-.58-.43-.31,0,0-.05-.37.48-.41,0,0,.12-.34.62-.27,0,0,.41.1.45.79a.48.48,0,0,0,.69.39,2.52,2.52,0,0,0,1.61-2l1.7-.93a4.18,4.18,0,0,1-.91,1.59h.58a3.46,3.46,0,0,1-1.5,1.32l.53.13a2.54,2.54,0,0,1-1.82.48l.35.43L25.08,33.2l-1.85-1.06.28-.34a3.4,3.4,0,0,1-1.83-.5l.55-.2a2.85,2.85,0,0,1-1.58-1.3h.57A2.76,2.76,0,0,1,20.36,28.31Z"/><path class="cls-4" d="M34.49,35.94l.61-.57-.61-8a3.42,3.42,0,0,1,3.25-4,4.18,4.18,0,0,1,3,1.25l.24-.1-8.21-6.43S31.79,22,28.55,20l-.87.2s3.76,2.53,5.44-.82l4.42,3.21s-3.9,1-3.93,4.39Z"/><path class="cls-4" d="M15.51,35.94l-.61-.57.61-8a3.42,3.42,0,0,0-3.25-4,4.18,4.18,0,0,0-3,1.25L9,24.52l8.21-6.43s1,3.89,4.21,1.95l.87.2s-3.76,2.53-5.44-.82l-4.42,3.21s3.9,1,3.93,4.39Z"/><path class="cls-4" d="M27.32,43.79a7.22,7.22,0,0,0-2.84,2.12,7.22,7.22,0,0,0-2.84-2.12s-2.45-.5-3.46-.82c0,0,.48.86,3.18,1.65,0,0,2.95,1.32,3.12,3.23.17-1.91,3.12-3.23,3.12-3.23,2.7-.79,3.18-1.65,3.18-1.65C29.77,43.29,27.32,43.79,27.32,43.79Z"/><path class="cls-4" d="M30.56,17.58v-.45a1.9,1.9,0,0,0,0-1.37v-.45A2.06,2.06,0,0,1,30.56,17.58Z"/><path class="cls-4" d="M30.56,15.31v.45a2.26,2.26,0,0,0-.11-.22v-.37a1.34,1.34,0,0,1,.11.14Z"/><path class="cls-4" d="M30.56,17.13v.45a1.74,1.74,0,0,1-.11.18v-.38c0-.09.08-.17.11-.25Z"/><path class="cls-4" d="M30.45,15.17v.37A1.8,1.8,0,0,0,30,15v-.25a1.82,1.82,0,0,1,.49.42Z"/><path class="cls-4" d="M30.45,17.38v.38a3.74,3.74,0,0,1-.49.61v-.26a3.11,3.11,0,0,0,.49-.73Z"/><path class="cls-4" d="M30,17.21v-.47H30a.25.25,0,1,1,0,.49Z"/><path class="cls-4" d="M30,16.36V16a.27.27,0,0,1,.18-.07.26.26,0,0,1,.25.26.25.25,0,0,1-.25.25.23.23,0,0,1-.18-.07Z"/><path class="cls-4" d="M30,15.54a.36.36,0,0,0,0-.1.3.3,0,0,0,0-.1Z"/><path class="cls-4" d="M30,14.75V15l-.24-.15v-.23l.24.13Z"/><path class="cls-4" d="M30,15.34v.2a.26.26,0,0,1-.24.15h0v-.51h0a.25.25,0,0,1,.24.16Z"/><path class="cls-4" d="M30,16v.37a.25.25,0,0,1-.08-.18A.27.27,0,0,1,30,16Z"/><path class="cls-4" d="M30,16.74v.47a.25.25,0,0,1-.18-.23.25.25,0,0,1,.18-.24Z"/><path class="cls-4" d="M30,18.11v.26a2.61,2.61,0,0,1-.24.23v-.24a2.83,2.83,0,0,0,.24-.25Z"/><path class="cls-4" d="M29.72,18v-.46a.24.24,0,0,1,.16.22.27.27,0,0,1-.16.24Z"/><path class="cls-4" d="M29.72,16.36v0Z"/><path class="cls-4" d="M29.72,14.62v.23l-.27-.12v-.21l.27.1Z"/><path class="cls-4" d="M29.72,15.18v.51a.25.25,0,0,1-.25-.25.26.26,0,0,1,.25-.26Z"/><path class="cls-4" d="M29.72,16.2v.16a2.09,2.09,0,0,1-.27.77v-.46a.69.69,0,0,0,0-.62v-.3a.57.57,0,0,1,.27.45Z"/><path class="cls-4" d="M29.72,17.49V18h-.09a.27.27,0,0,1-.18-.07v-.34a.23.23,0,0,1,.18-.08.15.15,0,0,1,.09,0Z"/><path class="cls-4" d="M29.72,18.36v.24l-.27.23v-.22a3.2,3.2,0,0,0,.27-.25Z"/><path class="cls-4" d="M29.45,14.52v.21l-.08,0V14.5l.08,0Z"/><path class="cls-4" d="M29.45,15.75v.3a.3.3,0,0,0-.08-.08V15.7l.08.05Z"/><path class="cls-4" d="M29.45,16.67v.46l-.08.13v-.41a1.42,1.42,0,0,0,.08-.18Z"/><path class="cls-4" d="M29.45,17.55v.34a.24.24,0,0,1-.07-.18.2.2,0,0,1,.07-.16Z"/><path class="cls-4" d="M29.45,18.61v.22l-.08.06v-.22l.08-.06Z"/><path class="cls-4" d="M29.37,14.5v.21l-.08,0v-.2l.08,0Z"/><path class="cls-4" d="M29.37,15.7V16l-.08-.06v-.24l.08,0Z"/><path class="cls-4" d="M29.37,16.85v.41l-.08.13V17c0-.06.05-.12.08-.17Z"/><path class="cls-4" d="M29.37,18.67v.22l-.08.07v-.22l.08-.07Z"/><path class="cls-4" d="M29.29,14.48v.2a2.74,2.74,0,0,0-.5-.07v-.18a2.73,2.73,0,0,1,.5.05Z"/><path class="cls-4" d="M29.29,15.67v.24a1.07,1.07,0,0,0-.5-.09v-.23a1.74,1.74,0,0,1,.5.08Z"/><path class="cls-4" d="M29.29,17v.37a6.39,6.39,0,0,1-.5.66v-.3a5.34,5.34,0,0,0,.5-.73Z"/><path class="cls-4" d="M29.29,18.74V19l-.38.26-.12.26V19l.14.05a3.32,3.32,0,0,0,.36-.26Z"/><path class="cls-4" d="M28.79,18.49v-.12a.2.2,0,0,1,.19-.14.2.2,0,0,1,0,.4.2.2,0,0,1-.19-.14Z"/><path class="cls-4" d="M28.79,15.24V15a.27.27,0,0,1,.22-.14.26.26,0,1,1,0,.52A.27.27,0,0,1,28.79,15.24Z"/><path class="cls-4" d="M28.79,14.43v.18h-.24v-.16l.24,0Z"/><path class="cls-4" d="M28.79,15v.24a.21.21,0,0,1,0-.12.27.27,0,0,1,0-.12Z"/><path class="cls-4" d="M28.79,15.59h-.14a2.35,2.35,0,0,0-.1-.58v1.45a2.84,2.84,0,0,0,.1-.64h.14v-.23Z"/><path class="cls-4" d="M28.79,17.75v.3l-.24.28v-.28c.09-.11.17-.2.24-.3Z"/><path class="cls-4" d="M28.79,18.37v.12a.19.19,0,0,1,0-.12Z"/><path class="cls-4" d="M28.79,19v.53l-.24.52v-.69a.19.19,0,0,1,.09.05l.09-.18-.18-.08v-.24l.24.09Z"/><path class="cls-4" d="M28.55,14.45v.16l-.12,0a2.52,2.52,0,0,1,.12.39v1.45a3.64,3.64,0,0,1-.25.77v-.59a3,3,0,0,0,0-1.74V14.4a.56.56,0,0,0,.05.08l.2,0Z"/><path class="cls-4" d="M28.55,18.05v.28a3.08,3.08,0,0,1-.25.27v-.26l.25-.29Z"/><path class="cls-4" d="M28.55,18.86v.24L28.3,19v-.23l.25.09Z"/><path class="cls-4" d="M28.55,19.31V20l-.22.49h0V19.29h.09a.38.38,0,0,1,.16,0Z"/><path class="cls-4" d="M28.3,14.4v.51a2.31,2.31,0,0,0-.1-.28.9.9,0,0,1-.05-.09v-.38l.15.24Z"/><path class="cls-4" d="M28.3,16.65v.59l-.15.35v-.48c.06-.16.11-.31.15-.46Z"/><path class="cls-4" d="M28.3,18.34v.26l-.12.13.12,0V19L28.15,19v-.44l.15-.17Z"/><path class="cls-4" d="M28.3,19.29v1.19l-.15-.05v-.18l.05,0,.06-.12-.11,0v-.75a.34.34,0,0,1,.15-.06Z"/><path class="cls-4" d="M28.15,14.16v.38a1.88,1.88,0,0,0-.28-.37v-.31a2.68,2.68,0,0,1,.28.3Z"/><path class="cls-4" d="M28.15,15.45v0a.26.26,0,0,1-.26.25h0v-.52h0a.26.26,0,0,1,.26.24Z"/><path class="cls-4" d="M28.15,17.11v.48l-.28.52v-.42a6.1,6.1,0,0,0,.28-.58Z"/><path class="cls-4" d="M28.15,18.51V19l-.28-.1v-.22l.13,0,.15-.16Z"/><path class="cls-4" d="M28.15,19.35v.75a.44.44,0,0,1,0-.75Z"/><path class="cls-4" d="M28.15,20.25v.18l-.28-.08v-.19l.28.09Z"/><path class="cls-4" d="M27.87,16.62v-.51a.26.26,0,0,1,.26.25.26.26,0,0,1-.26.26Z"/><path class="cls-4" d="M27.87,14.77v-.13a.13.13,0,0,1,0,.06A.17.17,0,0,1,27.87,14.77Z"/><path class="cls-4" d="M27.87,13.86v.31a.71.71,0,0,0-.15-.15v-.27l.15.11Z"/><path class="cls-4" d="M27.87,14.64v.13a.23.23,0,0,1-.15.17v-.47a.23.23,0,0,1,.15.17Z"/><path class="cls-4" d="M27.87,15.21v.52a.26.26,0,0,1-.15-.07v-.38a.26.26,0,0,1,.15-.07Z"/><path class="cls-4" d="M27.87,16.11v.51a.27.27,0,0,1-.15-.05v-.42a.37.37,0,0,1,.15,0Z"/><path class="cls-4" d="M27.87,17.69v.42l-.15.25V18c.05-.09.11-.17.15-.26Z"/><path class="cls-4" d="M27.87,18.63v.22l-.15,0v-.22l.15,0Z"/><path class="cls-4" d="M27.87,20.16v.19l-.15-.05v-.19l.15.05Z"/><path class="cls-4" d="M27.72,19.46v-.24a.43.43,0,0,1,0,.12.5.5,0,0,1,0,.12Z"/><path class="cls-4" d="M27.72,17.55v-.42a.22.22,0,0,1,.13.21A.23.23,0,0,1,27.72,17.55Z"/><path class="cls-4" d="M27.72,13.75V14a1.45,1.45,0,0,0-.26-.17V13.6a1.35,1.35,0,0,1,.26.15Z"/><path class="cls-4" d="M27.72,14.47v.47l-.09,0a.24.24,0,0,1-.17-.06v-.39a.24.24,0,0,1,.17-.06l.09,0Z"/><path class="cls-4" d="M27.72,15.28v.38a.27.27,0,0,1,0-.38Z"/><path class="cls-4" d="M27.72,16.15v.42a.27.27,0,0,1-.1-.21.28.28,0,0,1,.1-.21Z"/><path class="cls-4" d="M27.72,17.13v.42a.2.2,0,0,1-.11,0,.25.25,0,0,1-.15-.06v-.37a.25.25,0,0,1,.15,0,.2.2,0,0,1,.11,0Z"/><path class="cls-4" d="M27.72,18v.41l-.12.2.12,0v.22l-.26-.07v-.38c.09-.14.18-.27.26-.41Z"/><path class="cls-4" d="M27.72,19.22v.24a.47.47,0,0,1-.26.29v-.83a.46.46,0,0,1,.26.3Z"/><path class="cls-4" d="M27.72,20.11v.19l-.26-.07V20l.26.08Z"/><path class="cls-4" d="M27.46,16.07v0Z"/><path class="cls-4" d="M27.46,13.6v.25a1.15,1.15,0,0,0-.23-.1v-.23l.23.08Z"/><path class="cls-4" d="M27.46,14.51v.39a.25.25,0,0,1-.09-.2.25.25,0,0,1,.09-.19Z"/><path class="cls-4" d="M27.46,15.77v.3a4.41,4.41,0,0,1-.23,1.17v-.8a2.48,2.48,0,0,0,0-1.12v-.38a1.73,1.73,0,0,1,.23.83Z"/><path class="cls-4" d="M27.46,17.15a.25.25,0,0,0-.09.19.21.21,0,0,0,.09.18v-.37Z"/><path class="cls-4" d="M27.46,18.36v.38l-.23-.06v-.22l.13,0a1.47,1.47,0,0,0,.1-.13Z"/><path class="cls-4" d="M27.46,18.92v.83a.53.53,0,0,1-.17,0h-.06V18.9h.06a.51.51,0,0,1,.17,0Z"/><path class="cls-4" d="M27.46,20v.2l-.23-.05V20l.23.07Z"/><path class="cls-4" d="M27.23,18.27v-.39h0a.19.19,0,0,1,.19.2.18.18,0,0,1-.19.19Z"/><path class="cls-4" d="M27.23,13.52v.23L27,13.68v-.22l.28.06Z"/><path class="cls-4" d="M27.23,14.94v.38a.88.88,0,0,0-.28-.43v-.23a.93.93,0,0,1,.28.28Z"/><path class="cls-4" d="M27.23,16.44v.8a3.89,3.89,0,0,1-.28.62v-.48a5.41,5.41,0,0,0,.28-.94Z"/><path class="cls-4" d="M27.23,17.88v.39a.19.19,0,0,1-.2-.19.2.2,0,0,1,.2-.2Z"/><path class="cls-4" d="M27.23,18.46v.22L27,18.62V18.4l.28.06Z"/><path class="cls-4" d="M27.23,18.9v.88a.48.48,0,0,1-.28-.15v-.58a.39.39,0,0,1,.28-.15Z"/><path class="cls-4" d="M27.23,20v.22a2.8,2.8,0,0,0-.28-.06V19.9l.28.06Z"/><path class="cls-4" d="M27,14.43v-.51h0a.26.26,0,0,1,0,.51Z"/><path class="cls-4" d="M27,13.46v.22a2.44,2.44,0,0,0-.54,0v-.22a2.44,2.44,0,0,1,.54,0Z"/><path class="cls-4" d="M27,13.92v.51a.26.26,0,0,1,0-.51Z"/><path class="cls-4" d="M27,14.66v.23a.76.76,0,0,0-.47-.17h-.07v-.19h.07a1,1,0,0,1,.47.12Z"/><path class="cls-4" d="M27,17.38v.48a2.31,2.31,0,0,1-.36.48l.36.06v.22l-.54-.1v-.23a.38.38,0,0,1,.08-.09,3.31,3.31,0,0,0,.46-.82Z"/><path class="cls-4" d="M27,19.05v.58a.44.44,0,0,1-.11-.29.42.42,0,0,1,.11-.29Z"/><path class="cls-4" d="M27,19.9v.22l-.54-.1v-.23a5.17,5.17,0,0,1,.54.11Z"/><path class="cls-4" d="M26.41,19.49v-.8a.45.45,0,0,1,.24.4A.47.47,0,0,1,26.41,19.49Z"/><path class="cls-4" d="M26.41,13.46v.22l-.27,0V13.5l.27,0Z"/><path class="cls-4" d="M26.41,14.54v.19h-.13l-.14,0v-.19l.27-.05Z"/><path class="cls-4" d="M26.41,18.29v.23l-.27,0v-.2l.25,0,0,0Z"/><path class="cls-4" d="M26.41,18.69v.8a.5.5,0,0,1-.21.05h-.06v-.88h.06a.5.5,0,0,1,.21.05Z"/><path class="cls-4" d="M26.41,19.79V20l-.27,0v-.23l.27,0Z"/><path class="cls-4" d="M26.14,14.4v-.52a.26.26,0,0,1,0,.52Z"/><path class="cls-4" d="M26.14,13.5v.21l-.3.06-.1-.09v-.26l.15.13.25-.05Z"/><path class="cls-4" d="M26.14,13.88v.52a.26.26,0,1,1,0-.52Z"/><path class="cls-4" d="M26.14,14.59v.19a.89.89,0,0,0-.4.31v-.28a1,1,0,0,1,.4-.22Z"/><path class="cls-4" d="M26.14,18.29v.2l-.4,0v-.76a5.35,5.35,0,0,0,.18.56v0l.21,0Z"/><path class="cls-4" d="M26.14,18.65v.88a.45.45,0,0,1-.39-.44.46.46,0,0,1,.39-.44Z"/><path class="cls-4" d="M26.14,19.75V20l-.4,0v-.23l.4,0Z"/><polygon class="cls-4" points="25.74 12.45 25.74 11.81 25.87 11.96 25.74 12.45"/><polygon class="cls-4" points="25.74 11.81 25.74 12.45 25.51 13.23 25.74 13.42 25.74 13.68 25.25 13.27 25.61 11.97 25.04 11.4 25.04 11.04 25.74 11.81 25.74 11.81"/><path class="cls-4" d="M25.74,14.81v.28c-.45.6-.24,1.78,0,2.6v.76H25v-.19l.69,0c-.56-1.54-.59-2.89,0-3.45Z"/><path class="cls-4" d="M25.74,19.71v.23c-.24,0-.46,0-.7,0v-.23c.24,0,.46,0,.7,0Z"/><path class="cls-4" d="M25,19.46v-.9a.46.46,0,0,1,.42.45.44.44,0,0,1-.42.45Z"/><path class="cls-4" d="M25,17.93a.26.26,0,0,0,.25-.26A.28.28,0,0,0,25,17.4v.53Z"/><path class="cls-4" d="M25,17a.21.21,0,0,0,.19-.21.21.21,0,0,0-.19-.2V17Z"/><path class="cls-4" d="M25,16.17A.18.18,0,0,0,25.2,16a.17.17,0,0,0-.16-.17v.34Z"/><path class="cls-4" d="M25,15.24a.26.26,0,0,0,0-.51v.51Z"/><path class="cls-4" d="M25,14.48a.47.47,0,0,0,.44-.46.45.45,0,0,0-.44-.46Z"/><polygon class="cls-4" points="25.04 11.04 25.04 11.4 25.01 11.36 24.45 11.97 24.8 13.27 24.4 13.61 24.4 13.35 24.54 13.23 24.4 12.72 24.4 11.72 25.01 11.01 25.01 11 25.04 11.04 25.04 11.04"/><path class="cls-4" d="M25,13.56h0a.46.46,0,0,0,0,.92h0v-.92Z"/><path class="cls-4" d="M25,14.73v.51h0a.25.25,0,0,1-.25-.25.26.26,0,0,1,.25-.26Z"/><path class="cls-4" d="M25,15.83v.34h0a.17.17,0,0,1-.16-.17.16.16,0,0,1,.16-.17Z"/><path class="cls-4" d="M25,16.58V17h0a.22.22,0,0,1-.2-.21.21.21,0,0,1,.2-.2Z"/><path class="cls-4" d="M25,17.4v.53h0a.27.27,0,0,1,0-.54Z"/><path class="cls-4" d="M25,18.24v.19h0c-.2,0-.41,0-.62,0v-.2Z"/><path class="cls-4" d="M25,18.56v.9h0a.45.45,0,0,1,0-.9Z"/><path class="cls-4" d="M25,19.68v.23l-.64,0v-.23l.64,0Z"/><path class="cls-4" d="M24.4,18.05c.46-1.38.49-2.58,0-3.15v.31a3.45,3.45,0,0,1,0,2.18Z"/><polygon class="cls-4" points="24.4 11.72 24.4 12.72 24.18 11.96 24.4 11.72 24.4 11.72"/><path class="cls-4" d="M24.4,13.35v.26l-.19.16-.52-.09v-.21a2.72,2.72,0,0,1,.47.08l.24-.2Z"/><path class="cls-4" d="M24.4,14.9v.31a.92.92,0,0,0-.62-.47h-.09v-.18a1,1,0,0,1,.71.35Z"/><path class="cls-4" d="M24.4,17.39v.66a1.8,1.8,0,0,1-.08.21h.08v.2c-.24,0-.48,0-.71.06v-.2l.44,0v0c.07-.21.17-.51.26-.86Z"/><path class="cls-4" d="M24.4,19.71v.23c-.24,0-.47,0-.71.07V19.8c.24,0,.47-.07.71-.09Z"/><path class="cls-4" d="M23.69,19.51v-.84a.45.45,0,0,1,.16,0,.45.45,0,1,1,0,.9.45.45,0,0,1-.16,0Z"/><path class="cls-4" d="M23.69,14.26V14a.26.26,0,1,1,0,.24Z"/><path class="cls-4" d="M23.69,13.47v.21a2,2,0,0,0-.79.05V13.5a2.28,2.28,0,0,1,.79,0Z"/><path class="cls-4" d="M23.69,14v.24a.26.26,0,0,1,0-.24Z"/><path class="cls-4" d="M23.69,14.55v.18h-.11a.75.75,0,0,0-.68.43v-.31a.86.86,0,0,1,.68-.3Z"/><path class="cls-4" d="M23.69,18.31v.2c-.27,0-.53.09-.79.15v-.21a5.54,5.54,0,0,1,.56-.11,2.82,2.82,0,0,1-.56-.92v-.67a3.93,3.93,0,0,0,.67,1.45l.1.11Z"/><path class="cls-4" d="M23.69,18.67v.84a.45.45,0,0,1,0-.84Z"/><path class="cls-4" d="M23.69,19.8V20l-.79.16V20c.26-.07.53-.12.79-.17Z"/><path class="cls-4" d="M22.9,19.76v-.85a.44.44,0,0,1,.31.43.43.43,0,0,1-.31.42Z"/><path class="cls-4" d="M22.9,18.26a.21.21,0,0,0,.13-.18.21.21,0,0,0-.13-.19v.37Z"/><path class="cls-4" d="M22.9,14.32V14a.23.23,0,0,1,.2-.11.26.26,0,1,1,0,.51.23.23,0,0,1-.2-.11Z"/><path class="cls-4" d="M22.9,13.5v.23a1.17,1.17,0,0,0-.26.1v-.25l.26-.08Z"/><path class="cls-4" d="M22.9,14v.29a.25.25,0,0,1,0-.15.24.24,0,0,1,0-.14Z"/><path class="cls-4" d="M22.9,14.84v.31a2.42,2.42,0,0,0,0,1.6v.67a4.39,4.39,0,0,1-.26-1v-1a1.31,1.31,0,0,1,.26-.6Z"/><path class="cls-4" d="M22.9,17.89v.37h-.07a.2.2,0,0,1-.19-.14V18a.2.2,0,0,1,.19-.14Z"/><path class="cls-4" d="M22.9,18.45v.21l-.26.06v-.3l.05.07.21,0Z"/><path class="cls-4" d="M22.9,18.91v.85l-.13,0a.28.28,0,0,1-.13,0v-.85l.13,0,.13,0Z"/><path class="cls-4" d="M22.9,20v.2l-.26.07V20L22.9,20Z"/><path class="cls-4" d="M22.64,17.48a.26.26,0,0,0,0-.28v.28Z"/><path class="cls-4" d="M22.64,14.86a.3.3,0,0,0,.05-.16.27.27,0,0,0-.05-.15Z"/><path class="cls-4" d="M22.64,13.58v.25a1.44,1.44,0,0,0-.31.19v-.27a1.87,1.87,0,0,1,.31-.17Z"/><path class="cls-4" d="M22.64,14.55v.31a.27.27,0,0,1-.21.1l-.1,0v-.47l.1,0a.27.27,0,0,1,.21.1Z"/><path class="cls-4" d="M22.64,15.44v1a2.91,2.91,0,0,1,0-1Z"/><path class="cls-4" d="M22.64,17.2v.28a.26.26,0,0,1-.19.1l-.12,0v-.42l.12,0a.26.26,0,0,1,.19.1Z"/><path class="cls-4" d="M22.64,18v.11a.11.11,0,0,1,0-.05.13.13,0,0,1,0-.06Z"/><path class="cls-4" d="M22.64,18.42,22.33,18v.41l.13.2-.13,0v.22l.31-.09v-.3Z"/><path class="cls-4" d="M22.64,18.91v.85a.45.45,0,0,1-.31-.3v-.24a.46.46,0,0,1,.31-.31Z"/><path class="cls-4" d="M22.64,20v.21l-.31.08v-.2l.31-.09Z"/><path class="cls-4" d="M22.33,16.57v-.42a.26.26,0,0,1,.11.21.25.25,0,0,1-.11.21Z"/><path class="cls-4" d="M22.33,15.66v-.38a.25.25,0,0,1,0,.38Z"/><path class="cls-4" d="M22.33,13.75V14a2,2,0,0,0-.37.44V14.1a1.73,1.73,0,0,1,.37-.35Z"/><path class="cls-4" d="M22.33,14.47v.47a.26.26,0,0,1-.15-.24.24.24,0,0,1,.15-.23Z"/><path class="cls-4" d="M22.33,15.28v.38a.24.24,0,0,1-.16.07.25.25,0,0,1-.21-.11v-.31a.27.27,0,0,1,.21-.1.24.24,0,0,1,.16.07Z"/><path class="cls-4" d="M22.33,16.15v.42a.24.24,0,0,1-.14.05.26.26,0,0,1-.23-.14v-.24a.25.25,0,0,1,.23-.13.33.33,0,0,1,.14,0Z"/><path class="cls-4" d="M22.33,17.13v.42a.24.24,0,0,1-.12-.21.23.23,0,0,1,.12-.21Z"/><path class="cls-4" d="M22.33,18a6.14,6.14,0,0,1-.37-.72v.46c.11.23.24.45.37.67V18Z"/><path class="cls-4" d="M22.33,18.59v.22l-.37.12v-.37l.1.11.27-.08Z"/><path class="cls-4" d="M22.33,19.22v.24a.49.49,0,0,1,0-.12.45.45,0,0,1,0-.12Z"/><path class="cls-4" d="M22.33,20.12v.2l-.37.13v-.21l.37-.12Z"/><path class="cls-4" d="M22,20.06v-.67a.47.47,0,0,1,.15.34A.45.45,0,0,1,22,20.06Z"/><path class="cls-4" d="M22,14.1v.36l-.1.17a2.33,2.33,0,0,0-.11.28V14.4q.11-.17.21-.3Z"/><path class="cls-4" d="M22,15.31v.31a.25.25,0,0,1-.05-.15.3.3,0,0,1,.05-.16Z"/><path class="cls-4" d="M22,16.24v.24a.21.21,0,0,1,0-.12.27.27,0,0,1,0-.12Z"/><path class="cls-4" d="M22,17.23v.46l-.21-.45v-.59c.06.19.13.38.21.58Z"/><path class="cls-4" d="M22,18.56v.37l-.21.07v-.23l.13,0-.13-.13v-.26l.21.22Z"/><path class="cls-4" d="M22,19.39v.67a.37.37,0,0,1-.16.09q0,.12.06.12l.1,0v.21l-.16.05-.05-.09V19.29a.41.41,0,0,1,.21.1Z"/><path class="cls-4" d="M21.75,14.4v.51a3.12,3.12,0,0,0,0,1.74v.59a4.3,4.3,0,0,1-.2-.57V14.85c0-.08.05-.15.08-.22h-.08v-.16l.16,0,0-.08Z"/><path class="cls-4" d="M21.75,18.34v.26l-.2-.22v-.27c.07.07.13.15.2.23Z"/><path class="cls-4" d="M21.75,18.77V19l-.2.08v-.24l.2-.07Z"/><path class="cls-4" d="M21.75,19.29v1.12l-.2-.39v-.73h.2Z"/><path class="cls-4" d="M21.55,14.46v.16h-.23v-.18l.23,0Z"/><path class="cls-4" d="M21.55,14.85v1.82a3.51,3.51,0,0,1-.14-.84h-.09v-.23h.09a2.76,2.76,0,0,1,.14-.75Z"/><path class="cls-4" d="M21.55,18.11v.27l-.23-.27v-.29l.23.29Z"/><path class="cls-4" d="M21.55,18.84v.24l-.23.1a.82.82,0,0,1,.09.18.61.61,0,0,1,.14-.07V20l-.23-.46v-.63l.23-.09Z"/><path class="cls-4" d="M21.32,14.43v.18a1,1,0,0,0-.24,0v-.19Z"/><path class="cls-4" d="M21.32,15.59v.23h-.24V15.6Z"/><path class="cls-4" d="M21.32,17.82v.29a2.17,2.17,0,0,1-.24-.29V17.5l.24.32Z"/><path class="cls-4" d="M21.32,18.93v.63l-.17-.34-.07,0V19l0,0,.2-.07Z"/><path class="cls-4" d="M21.08,18.63v-.4a.2.2,0,1,1,0,.4Z"/><path class="cls-4" d="M21.08,15.37v-.5a.25.25,0,0,1,.22.25A.26.26,0,0,1,21.08,15.37Z"/><path class="cls-4" d="M21.08,14.44v.19l-.26,0v-.2l.26,0Z"/><path class="cls-4" d="M21.08,14.87v.5h0a.26.26,0,0,1-.22-.13V15a.29.29,0,0,1,.22-.13Z"/><path class="cls-4" d="M21.08,15.6v.22a.91.91,0,0,0-.26.06v-.22a1.67,1.67,0,0,1,.26-.06Z"/><path class="cls-4" d="M21.08,17.5v.32c-.1-.12-.18-.24-.26-.35v-.36c.07.12.16.25.26.39Z"/><path class="cls-4" d="M21.08,18.23v.4a.2.2,0,0,1,0-.4Z"/><path class="cls-4" d="M21.08,19v.2L20.82,19v-.22l.26.2Z"/><path class="cls-4" d="M20.82,14.47v.2l-.08,0v-.2l.08,0Z"/><path class="cls-4" d="M20.82,15v.26a.23.23,0,0,1,0-.26Z"/><path class="cls-4" d="M20.82,15.66v.22l-.08,0v-.24a.11.11,0,0,1,.08,0Z"/><path class="cls-4" d="M20.82,17.11v.36l-.08-.13V17l.08.16Z"/><path class="cls-4" d="M20.82,18.78V19l-.08-.07v-.21l.08.06Z"/><path class="cls-4" d="M20.74,14.49v.2l-.13,0v-.21l.13,0Z"/><path class="cls-4" d="M20.74,15.69v.24a.3.3,0,0,0-.13.12v-.3a.52.52,0,0,1,.13-.06Z"/><path class="cls-4" d="M20.74,17v.39a2.39,2.39,0,0,1-.13-.21v-.46a1.38,1.38,0,0,0,.13.28Z"/><path class="cls-4" d="M20.74,18.72v.21l-.13-.1v-.22l.13.11Z"/><path class="cls-4" d="M20.61,17.89v-.34a.24.24,0,0,1,.07.16A.29.29,0,0,1,20.61,17.89Z"/><path class="cls-4" d="M20.61,14.52v.21l-.22.1V14.6l.22-.08Z"/><path class="cls-4" d="M20.61,15.75v.3a.69.69,0,0,0,0,.62v.46a2.61,2.61,0,0,1-.22-.51V16a.53.53,0,0,1,.22-.25Z"/><path class="cls-4" d="M20.61,17.55v.34a.29.29,0,0,1-.18.07h0v-.49h0a.25.25,0,0,1,.18.08Z"/><path class="cls-4" d="M20.61,18.61v.22l-.22-.18v-.24a2.09,2.09,0,0,0,.22.2Z"/><path class="cls-4" d="M20.39,15.69v-.5a.25.25,0,0,1,.2.25A.27.27,0,0,1,20.39,15.69Z"/><path class="cls-4" d="M20.39,14.6v.23l-.24.13v-.24l.24-.12Z"/><path class="cls-4" d="M20.39,15.19v.5h-.06a.29.29,0,0,1-.18-.07v-.36a.25.25,0,0,1,.18-.08Z"/><path class="cls-4" d="M20.39,16v.62a.87.87,0,0,1,0-.62Z"/><path class="cls-4" d="M20.39,17.47V18a.25.25,0,0,1-.21-.25.25.25,0,0,1,.21-.24Z"/><path class="cls-4" d="M20.39,18.41v.24l-.24-.22v-.26l.24.24Z"/><path class="cls-4" d="M20.15,17.19v-.43a.24.24,0,0,1,.12.22.22.22,0,0,1-.12.21Z"/><path class="cls-4" d="M20.15,16.29v-.23a.27.27,0,0,1,0,.12A.2.2,0,0,1,20.15,16.29Z"/><path class="cls-4" d="M20.15,14.72V15a1.83,1.83,0,0,0-.5.5v-.35a1.92,1.92,0,0,1,.5-.39Z"/><path class="cls-4" d="M20.15,15.26a.23.23,0,0,0-.07.18.26.26,0,0,0,.07.18v-.36Z"/><path class="cls-4" d="M20.15,16.06v.23a.26.26,0,0,1-.23.14.25.25,0,0,1-.25-.25.26.26,0,0,1,.25-.26.26.26,0,0,1,.23.14Z"/><path class="cls-4" d="M20.15,16.76v.43a.24.24,0,0,1-.12,0,.25.25,0,0,1,0-.49.24.24,0,0,1,.12,0Z"/><path class="cls-4" d="M20.15,18.17v.26a5.07,5.07,0,0,1-.5-.59v-.36a3.33,3.33,0,0,0,.5.69Z"/><path class="cls-4" d="M19.65,15.11v.35l-.11.19v-.41l.11-.13Z"/><path class="cls-4" d="M19.65,17.48v.36l-.11-.17v-.41c0,.07.07.14.11.22Z"/><path class="cls-4" d="M19.54,15.24v.41a1.92,1.92,0,0,0,0,1.61v.41a2.1,2.1,0,0,1,0-2.43Z"/><path class="cls-2" d="M25.58,28.24h3.05l-.06-.18s-.31-.08,0-.53a.72.72,0,0,1-.42-.77,1.5,1.5,0,0,1-.68-1.25l0-.35a.53.53,0,0,1-.1-.44v0c0-.34,0-.29,0-.29s-.51,0-.63.16-.5.23-.57-.16c0,0-.7.1-.49-.29a.9.9,0,0,1,.23-.16s.14-.05.27-.31l.35-.28s.2,0,.48-.49l.27,0a2.21,2.21,0,0,0,.6.42,2.17,2.17,0,0,0-.37-.7,1.27,1.27,0,0,1-.4-1.09,1,1,0,0,0-.12-.37l-.87-.32H24.39a1.58,1.58,0,0,1-.66.23,1,1,0,0,0-.56.65,8.13,8.13,0,0,1-.7,1.52l-.51.73a6.94,6.94,0,0,1-1.28,1.57v.05l3.67.46s.34,0,.35.21a.36.36,0,0,0,.18.2s0,.27.11.34l.17.43.09.69Z"/><path class="cls-2" d="M27.51,22a.06.06,0,0,1-.06,0,0,0,0,0,1-.05,0s0-.06.05-.06A.06.06,0,0,1,27.51,22Z"/><rect class="cls-2" x="27.51" y="21.8" width="0.15" height="0.12"/><polygon class="cls-2" points="27.45 21.77 27.37 21.8 27.26 21.59 27.35 21.56 27.45 21.77"/><path class="cls-2" d="M28.87,22.19h0l-.55-.77h0l-.14-.19-.29,0,.14.22.22,0h0l-.29.3h-.13l0,.2-.16.09-.11.07.08.1s.2.34.34.6h0a.31.31,0,0,1,.09.19v.06l.06,0a.16.16,0,0,0,.12,0c.18,0,.44-.27.62-.49h0A.65.65,0,0,0,28.87,22.19Z"/><polygon class="cls-2" points="27.45 21.35 27.56 21.52 27.7 21.51 27.82 21.59 27.89 21.51 27.7 21.27 27.66 21.31 27.45 21.35"/><path class="cls-2" d="M27.33,21.23a.55.55,0,0,1,.44-.24,1.44,1.44,0,0,1-.37.28Z"/><polygon class="cls-2" points="14.98 39.79 15.14 39.92 15.36 39.73 15.08 39.49 14.93 39.62 14.77 39.49 14.57 39.67 14.84 39.92 14.98 39.79"/><path class="cls-2" d="M15.75,39.85l-.25.33a.59.59,0,0,1,.14.26H14.39l-.1,0a.36.36,0,0,1-.1-.25.56.56,0,0,1,0-.23.76.76,0,0,0-.16.28.8.8,0,0,0-.07.31.4.4,0,0,0,.07.24.36.36,0,0,0,.18.12h1.49a1.17,1.17,0,0,1,0-.11l0-.12a1,1,0,0,0,.09-.35.68.68,0,0,0-.05-.23A.67.67,0,0,0,15.75,39.85Z"/><path class="cls-2" d="M16.24,41a1.09,1.09,0,0,0,.26-.35,1.29,1.29,0,0,0,.06-.44V40a.66.66,0,0,0,0-.15v-.24l.07-.07-.08-.48-.35.41v.05l0,.36,0,.46a1.18,1.18,0,0,0,0,.16v.3S16.24,40.93,16.24,41Z"/><path class="cls-2" d="M17.26,40.09l-.24.27.06.07s0,0,.06.09.05.07.06.1l.06.11,0,0-.1.16A.44.44,0,0,1,17,41a.56.56,0,0,1-.32.11h-.11l-.12,0a2.42,2.42,0,0,0,.24.31.41.41,0,0,0,.2.1.27.27,0,0,0,.17-.07.59.59,0,0,0,.17-.18,1,1,0,0,0,.16-.31,1,1,0,0,0,.06-.32.59.59,0,0,0,0-.25A1.77,1.77,0,0,0,17.26,40.09Z"/><polygon class="cls-2" points="21.33 39.52 21.04 39.28 20.83 39.47 21.12 39.71 21.33 39.52"/><path class="cls-2" d="M23.23,40.47l0,0a.09.09,0,0,1,0-.06.15.15,0,0,1,0-.08s0-.08,0-.12v-.09l0-.45.05,0,.14-.31L23,39.24c-.06,0-.1,0-.11-.06a.12.12,0,0,1,0-.09l-.14.22,0,.06a.17.17,0,0,0,0,.05s0,.07.1.08l.07.94h-1l.1-.16h0l-.22,0-.15,0-.21-.07L21.11,40l-.2-.11a.57.57,0,0,0-.21-.06.25.25,0,0,0-.16.07l-.12.12a.45.45,0,0,1-.07.07.33.33,0,0,1-.06.08h.21l.1,0,.12.06.11.07.11.05.06,0H18.84l-.44-.72-.2.32.25.4h-.54l-.06,0a.15.15,0,0,1-.06-.09v0a.93.93,0,0,0-.07.19.39.39,0,0,0,0,.15c0,.07,0,.13.08.15a.19.19,0,0,0,.1,0h.66l.08-.13.08.13h2.17l.05,0,.08-.06a.48.48,0,0,1,.24-.13l.17,0h.08a.22.22,0,0,0,.08.15.23.23,0,0,0,.1.07h1.23l.05-.06.37.24.25-.35-.25-.17Z"/><path class="cls-2" d="M24.22,39.58l-.08-.48-.35.41v.05l0,.36,0,.46v.16a1,1,0,0,1,0,.16v.14a.57.57,0,0,0,0,.13,1.09,1.09,0,0,0,.26-.35,1.29,1.29,0,0,0,.06-.44V40a.86.86,0,0,1,0-.15v-.24Z"/><polygon class="cls-2" points="25.88 39.2 26.04 39.33 26.26 39.14 25.97 38.9 25.82 39.03 25.67 38.9 25.46 39.09 25.74 39.33 25.88 39.2"/><path class="cls-2" d="M30.78,39.63a.25.25,0,0,0-.21-.11c-.11,0-.22.08-.33.25a.59.59,0,0,0-.11.33.25.25,0,0,0,.08.2s.05,0,.07,0h.4l.09-.11v.2h-1.5l.1-.16h0l-.22,0-.16,0-.2-.07L28.52,40l-.2-.11a.57.57,0,0,0-.21-.06.23.23,0,0,0-.16.07l-.12.12a.45.45,0,0,1-.07.07l-.07.08h.21l.11,0,.12.06.1.07.12.05.06,0H26.22L26,39.6l-.31.25,0,.07-.43.23a.22.22,0,0,0-.12.13l-.15.43.73.1.12-.2.06.25h2.3l.06,0,.07-.06a.5.5,0,0,1,.25-.13l.16,0h.09a.21.21,0,0,0,.07.15.3.3,0,0,0,.1.07h1.78a2.08,2.08,0,0,0,.12-.35,1.22,1.22,0,0,0,0-.26,1,1,0,0,0,0-.33A.9.9,0,0,0,30.78,39.63ZM30.6,40h-.13a.05.05,0,0,1,0,0,.09.09,0,0,1,0-.08.15.15,0,0,1,.09,0,.16.16,0,0,1,.11.05.17.17,0,0,1,0,.12Zm-5.17.37.37-.2.05.26Z"/><polygon class="cls-2" points="30.77 39.18 30.49 38.94 30.28 39.13 30.57 39.37 30.77 39.18"/><path class="cls-2" d="M36,40.23a1.33,1.33,0,0,0-.11-.24.56.56,0,0,0-.14-.16.23.23,0,0,0-.15,0,.24.24,0,0,0-.17.08.68.68,0,0,0-.12.12l-.2.24-.14.19,0,0H34l0,0,0,0-.06-.07-.6-.63.77-.19.19-.37L33,39.37l-.18.36v.1a.09.09,0,0,0,0,.07l0,0,.15.13,0-.06.41.44h-1.8s0,0,0,0a.05.05,0,0,1,0,0V39.1l-.35.36v1.26c0,.09.06.14.18.14H33.7l.06-.11.11.11h1l.12-.17.75.31a1.81,1.81,0,0,0,.1-.17l.1-.18a.46.46,0,0,0,.07-.21A.76.76,0,0,0,36,40.23Zm-.71.11,0,0,.05-.06.08-.07,0,0h0a.2.2,0,0,1,.16.13.51.51,0,0,1,.07.28Z"/></svg>