<svg id="Layer_1" data-name="Layer 1" xmlns="http://www.w3.org/2000/svg" viewBox="0 0 17 17"><defs><style>.cls-1{fill:#fff;}.cls-2{fill:none;stroke:#fff;stroke-miterlimit:10;stroke-width:0.25px;}</style></defs><title>icons</title><path class="cls-1" d="M8.57,3.69H9.93c.28,0,.56,0,.83,0A3.34,3.34,0,0,1,12,4a2.53,2.53,0,0,1,1.35,1.43,3.76,3.76,0,0,1,.21.88,8.44,8.44,0,0,1,0,.87c0,1,0,1.94,0,2.9l0,.84A3.35,3.35,0,0,1,13.36,12a2.57,2.57,0,0,1-1.7,1.59,3.05,3.05,0,0,1-.67.13c-.29,0-.58,0-.88,0H6.68q-.34,0-.69-.06a3,3,0,0,1-1.14-.39A2.52,2.52,0,0,1,3.79,12a3.32,3.32,0,0,1-.21-.88,8.44,8.44,0,0,1,0-.87c0-1,0-1.94,0-2.91l0-.83a3.77,3.77,0,0,1,.21-1A2.51,2.51,0,0,1,4.84,4.17a2.63,2.63,0,0,1,.73-.31,2.83,2.83,0,0,1,.58-.11c.42,0,.85,0,1.27,0s.77,0,1.15,0Zm0,.92H7.52c-.4,0-.8,0-1.2.05a2.36,2.36,0,0,0-.71.15,1.65,1.65,0,0,0-1,.9,2.67,2.67,0,0,0-.19.89c0,.3,0,.59,0,.89,0,.92,0,1.84,0,2.76a7.87,7.87,0,0,0,0,.84,3,3,0,0,0,.13.59,1.68,1.68,0,0,0,.69.86,2,2,0,0,0,.83.27,5.63,5.63,0,0,0,.59,0l1,0H9c.57,0,1.14,0,1.7,0a3,3,0,0,0,.66-.1,1.67,1.67,0,0,0,1.18-1.11,2.36,2.36,0,0,0,.14-.74c0-.31,0-.63,0-.94V7.64c0-.38,0-.77,0-1.16a2.9,2.9,0,0,0-.15-.71,1.62,1.62,0,0,0-.91-.94,2.25,2.25,0,0,0-.88-.19l-.83,0C9.45,4.6,9,4.61,8.57,4.61Z"/><path class="cls-1" d="M8.57,6.15A2.59,2.59,0,1,1,6,8.73,2.59,2.59,0,0,1,8.57,6.15Zm0,.9a1.69,1.69,0,1,0,1.68,1.69A1.68,1.68,0,0,0,8.57,7.05Z"/><path class="cls-1" d="M11.26,5.44a.61.61,0,0,1,.61.61.62.62,0,0,1-.61.6.61.61,0,0,1,0-1.21Z"/><circle class="cls-2" cx="8.57" cy="8.73" r="8.07"/></svg>