<svg id="Layer_1" data-name="Layer 1" xmlns="http://www.w3.org/2000/svg" viewBox="0 0 104 104"><defs><style>.cls-1{fill:#000576;}.cls-2{fill:none;stroke-width:0.5px;}.cls-2,.cls-4{stroke:#fff;stroke-miterlimit:10;}.cls-3,.cls-4{fill:#fff;}.cls-4{stroke-width:0.25px;}</style></defs><rect class="cls-1" x="2.46" y="2.24" width="100" height="100" rx="50"/><polyline class="cls-2" points="28.11 49.43 21.19 51.76 19 64.44"/><circle class="cls-2" cx="51.72" cy="41.72" r="9.99"/><polyline class="cls-2" points="57.05 51.27 64.95 53.93 67.45 68.39"/><polyline class="cls-2" points="45.9 51.03 38 53.69 35.5 68.16"/><circle class="cls-2" cx="31.5" cy="40.63" r="8.12"/><rect class="cls-3" x="55" y="56.29" width="32" height="17"/><path class="cls-1" d="M63.64,65a2.53,2.53,0,0,1-.77,1.86A2.45,2.45,0,0,1,61,67.6H58.64v-1H61a1.52,1.52,0,0,0,1.13-.48A1.54,1.54,0,0,0,62.59,65V63.48H59.7v1l-1.05,1.06V62.44h5Z"/><path class="cls-1" d="M66,67.6H65V60.65l1-1Z"/><path class="cls-1" d="M70.78,67.6h-.86a2.67,2.67,0,0,1-2.64,2.57H66.17l1.08-1.06h0a1.6,1.6,0,0,0,1.6-1.61v-4l1.05-1.06v4.12h.85Z"/><path class="cls-1" d="M76.45,65a2.68,2.68,0,0,1-2.66,2.65H70.66v-1h.78V62.44h5Zm-1.07,0V63.48H72.49v3.08h1.28a1.53,1.53,0,0,0,1.14-.48A1.51,1.51,0,0,0,75.38,65Zm-.51-4.61-.76.75-.73-.75.73-.74Z"/><path class="cls-1" d="M81.36,64.93a2.4,2.4,0,0,1-.9,2,3.17,3.17,0,0,1-2.11.68l-1.06-1.06a8.69,8.69,0,0,0,2-.13,1.39,1.39,0,0,0,1.07-1.48V60.65l1-1Zm-2.42-5.6H77.57v-.42h.25c0-.91.3-1.36.9-1.36h.22V58c-.46,0-.69.17-.69.49v.45h.69Zm.18,6.75H78.07V60.65l1.05-1Z"/><path class="cls-1" d="M83.76,67.6H82.71V60.65l1.05-1Z"/><line class="cls-4" x1="55" y1="74" x2="87" y2="74"/><path class="cls-1" d="M69.88,72.14v-2h.45v2Z"/><path class="cls-1" d="M71,72.14V70.58h.44v.22a.29.29,0,0,1,.07-.17.25.25,0,0,1,.16,0h.22a.4.4,0,0,1,.31.13.42.42,0,0,1,.13.32v1.11h-.44V71a.19.19,0,0,0-.07-.16.18.18,0,0,0-.15-.07.24.24,0,0,0-.23.23v1.11Z"/><path class="cls-1" d="M74.12,72.14h-.45v-.22a.2.2,0,0,1-.22.22h-.22a.42.42,0,0,1-.32-.13.46.46,0,0,1-.13-.31V71a.46.46,0,0,1,.13-.32.44.44,0,0,1,.32-.13h.44v-.45h.45Zm-.45-1.34h-.22a.22.22,0,0,0-.22.23v.67a.22.22,0,0,0,.06.15.26.26,0,0,0,.16.07.24.24,0,0,0,.16-.07.22.22,0,0,0,.06-.15Z"/><path class="cls-1" d="M74.56,70.36v-.23H75v.23Zm0,1.78V70.58H75v1.56Z"/><path class="cls-1" d="M76.35,70.58h.44v.8a.75.75,0,0,1-.76.76h-.57V70.58h.44v1.34h.23a.21.21,0,0,0,.15-.07.19.19,0,0,0,.07-.15Z"/><path class="cls-1" d="M77.24,70.36v-.23h.45v.23Zm0,1.78V70.58h.45v1.56Z"/><path class="cls-1" d="M79.47,72.14H79v-.22a.22.22,0,0,1-.23.22h-.22a.44.44,0,0,1-.32-.13.46.46,0,0,1-.13-.31V71a.43.43,0,0,1,.14-.32.4.4,0,0,1,.31-.13H79v-.45h.44ZM79,70.8H78.8a.18.18,0,0,0-.15.07.19.19,0,0,0-.07.16v.67a.22.22,0,0,0,.06.15.26.26,0,0,0,.16.07.22.22,0,0,0,.16-.07A.23.23,0,0,0,79,71.7Z"/><path class="cls-1" d="M81.25,70.58v1.56h-.44v-.22c0,.15-.09.22-.22.22h-.23a.44.44,0,0,1-.44-.44V70.58h.44V71.7a.19.19,0,0,0,.07.15.22.22,0,0,0,.16.07.21.21,0,0,0,.15-.07.19.19,0,0,0,.07-.15V70.58Z"/><path class="cls-1" d="M82.59,71.25V71a.22.22,0,0,0-.22-.23h-.22c-.14,0-.21.08-.23.23H81.7q0-.45.45-.45h.44a.44.44,0,0,1,.32.13A.42.42,0,0,1,83,71v1.11h-.45v-.22a.2.2,0,0,1-.22.22h-.22a.42.42,0,0,1-.32-.13.42.42,0,0,1-.13-.31h0a.42.42,0,0,1,.13-.31.42.42,0,0,1,.32-.13Zm0,.22h-.22a.21.21,0,0,0-.16.07.2.2,0,0,0-.06.15h0a.22.22,0,0,0,.06.15.24.24,0,0,0,.16.07.26.26,0,0,0,.16-.07.22.22,0,0,0,.06-.15Z"/><path class="cls-1" d="M83.48,72.14v-2h.45v2Z"/></svg>