<svg id="Layer_1" data-name="Layer 1" xmlns="http://www.w3.org/2000/svg" viewBox="0 0 50 51"><defs><style>.cls-1{fill:none;stroke:#001a63;stroke-miterlimit:10;stroke-width:0.5px;}.cls-2{fill:#001a63;}.cls-3{fill:#fff;}</style></defs><title>correctional-icons</title><path class="cls-1" d="M43.5,10.89l-5,4.18A20,20,0,0,1,25,49.57,20,20,0,0,1,11.31,15.2l-5.12-4a23.93,23.93,0,1,0,37.31-.26"/><path class="cls-1" d="M43.84,11.4s5,5.7,4.83,15.56a39.63,39.63,0,0,1-1,6.12c-1.06,3.21-3.37,9.64-12.52,14.46,0,0,12-6.75,12.42-19.24a23.76,23.76,0,0,0-2.86-11.95Z"/><path class="cls-1" d="M39,15.74c5.77,5.45,5.9,13.77,5.9,13.77A19.28,19.28,0,0,1,42,40a19.91,19.91,0,0,1-17.1,9.7,16,16,0,0,0,11.82-3.32,21,21,0,0,0,9.3-15.94,20.79,20.79,0,0,0-2.93-12.67l-4.58-2.49Z"/><path class="cls-1" d="M5.2,29.76A19.75,19.75,0,1,0,25,9.84,19.83,19.83,0,0,0,5.2,29.76"/><path class="cls-1" d="M44.7,29.76A20,20,0,0,1,24.82,49.7,19.93,19.93,0,1,1,44.7,29.76Z"/><path class="cls-1" d="M49,26A24,24,0,1,1,25,2,24,24,0,0,1,49,26Z"/><line class="cls-1" x1="44.72" y1="16.2" x2="43.15" y2="17.8"/><path class="cls-1" d="M26.13,49.93a24.18,24.18,0,0,1-25-26.46A24.06,24.06,0,0,1,6.4,10.89"/><path class="cls-1" d="M16.15,47.49a19.81,19.81,0,0,0,10,2"/><path class="cls-1" d="M6.06,11.4S1.1,17.1,1.23,27a39.63,39.63,0,0,0,1,6.12c1.07,3.21,3.37,9.64,12.52,14.46,0,0-12-6.75-12.42-19.24A23.88,23.88,0,0,1,5.17,16.35Z"/><path class="cls-1" d="M25,49.68a16,16,0,0,1-11.81-3.32A21,21,0,0,1,3.85,30.42,20.76,20.76,0,0,1,6.79,17.75l4.57-2.49"/><line class="cls-1" x1="5.19" y1="16.2" x2="6.75" y2="17.8"/><path class="cls-2" d="M9.25,11.65l-.07-.15-.07-.15a.14.14,0,0,1,0-.14c.06-.06.2-.05.43,0l.1,0,.13.05.14.08a.28.28,0,0,1,.1.09.13.13,0,0,1,0,.06l0,0,.1.17.09.17,0,0-.53.5.34.34.08.07.08.08,0,.07a1.4,1.4,0,0,0,.09.18l.09.21.05.11-.07-.07-.21-.19L10.06,13l-.18-.16L9.8,12.8a3,3,0,0,1-.28-.48,1.91,1.91,0,0,1-.09-.2s0,0,0-.06h0Zm.53-.08a.4.4,0,0,0-.13,0,.26.26,0,0,0-.18,0,.1.1,0,0,0,0,.08.88.88,0,0,0,.06.17l.05.11,0,0,.33-.31Z"/><path class="cls-2" d="M11,11.37l-.32.28-.06,0c-.07.07-.15.05-.22,0l-.07-.07,0-.06-.94-1.1L9.3,9.9l1,1.15.08.08,0,0h0l.06,0,.2-.17Z"/><path class="cls-2" d="M11.81,10.76l-.88.68L10.6,11l.73-.56-.59-.24v.07l-.19-.06h0a.16.16,0,0,1-.08-.06l0,0,0,0v0l-.18-.45.52-.85.17.47-.33.56.86.35.1,0,.06,0,.05,0,.41-.31.32.42-.45.35-.16-.06Z"/><path class="cls-2" d="M13.39,9.39l-.15,0-.12.06a.39.39,0,0,0-.15.32V9.9A.11.11,0,0,1,13,10l-.07,0,0,0-.57.37L12,10l.8-.51a.47.47,0,0,1-.12,0l-.17,0-.2,0a.23.23,0,0,0-.11,0l-.06.07s0-.09,0-.12V9.11A.18.18,0,0,1,12.15,9a.29.29,0,0,1,.18,0l.21,0,.24,0H13l.16,0a.46.46,0,0,0,.16-.07Z"/><path class="cls-2" d="M14,7.64l-.05,0c0,.07,0,.15,0,.25s0,.19,0,.29l.23.16,0,0,.06.05s.07,0,.08.08a1.35,1.35,0,0,1,.08.21v.06l.08.28-.65.36-.23-.52V8.8l0-.23a.45.45,0,0,1,0-.11V8.31l0,0-.14-.08-.19-.08v0s0,.06,0,.07h0l-.08-.05L13,8.06A.31.31,0,0,1,12.94,8a.83.83,0,0,1-.07-.21.69.69,0,0,1,0-.2s0,0,0-.06a.18.18,0,0,1,.09,0,1.72,1.72,0,0,1,.22.12l.22.14.25.17,0,0c0-.05,0-.08,0-.11s0-.08,0-.15,0-.1,0-.12a.46.46,0,0,1,0-.09l-.07,0,0-.05a.46.46,0,0,1,0-.14V7.2l0-.22,0,.07a.26.26,0,0,0,.15.12l.28.1Zm-.06.8V8.6s0,.06,0,.09,0,.06,0,.09l.32-.18Z"/><path class="cls-2" d="M14.49,7.2v.11l0,0,.12.23a1.94,1.94,0,0,1,.1.17c0,.08.06.13.08.16a2.2,2.2,0,0,1,.21.53,1.49,1.49,0,0,1,0,.48L15,8.76l-.08-.16-.1-.18c0-.09-.07-.14-.09-.18l-.29-.51-.22-.4,0-.06V6.68Z"/><path class="cls-2" d="M15.56,6.49l-.33-.19L15.29,6l.32.19Zm1.36,1.4-.41.18-.12-.13v.18L16,8.29l-.08,0h-.09c-.06,0-.1-.07-.14-.16A.58.58,0,0,1,15.63,8a2.17,2.17,0,0,1-.05-.25v0a.3.3,0,0,0,.08.08l.07,0h0l0,0,.3-.13-.38-.4,0-.43.69.71.29-.13Z"/><path class="cls-2" d="M16.81,7.94l-.19-.5L17,7.28l-.12-.18L17,6.72l.28.47.31-.12.19.5-.46.18-.09-.14,0,.18Zm.47.17.17.11L17.5,8l.32.21-.07.28-.18-.11-.05.19-.32-.21Z"/><path class="cls-2" d="M19,7.17l-.63.2-.14-.08-.05.14-.56.18L17.5,7.1l.31-.1a1,1,0,0,1,0-.17,2.29,2.29,0,0,1,0-.25c.05-.36.12-.56.22-.59s.12,0,.19.07a.72.72,0,0,1,.16.27s0,.09,0,.15a1.15,1.15,0,0,1,0,.16v.15l.42-.13ZM17.88,5.69l-.31-.22.09-.28.31.23Zm.4,1V6.64a.23.23,0,0,0-.06-.11.09.09,0,0,0-.09,0,.14.14,0,0,0-.06.08.7.7,0,0,0,0,.16l.16.11Z"/><path class="cls-2" d="M18.92,7.21l-.13-.52.42-.11-.1-.2L19.23,6l.24.49.32-.08.13.51-.48.13-.07-.15,0,.18Zm.17-1.48-.3-.24.1-.27.3.24Z"/><path class="cls-2" d="M20,5.34l-.15-.12-.08.18-.28-.26.11-.26.16.13.08-.18.28.24Zm.25.48a.94.94,0,0,1,.1.28,1.82,1.82,0,0,1,0,.45c0,.11,0,.21,0,.3L19.81,7l-.12-.52.47-.1a.82.82,0,0,0-.19-.3l.1-.46A.76.76,0,0,1,20.22,5.82Z"/><path class="cls-2" d="M21,6.73l-.16,0-.1,0a.36.36,0,0,1-.1-.11.45.45,0,0,1-.07-.18,1.62,1.62,0,0,1,0-.54l0-.14,0-.14c0-.11.08-.17.13-.18s.13,0,.21.15l.13.21.11.29a2.05,2.05,0,0,1,.11.82,1.76,1.76,0,0,1-.11.49c0,.1-.08.15-.14.16s-.1,0-.17-.09l-.11-.12-.13-.18,0,0h.18A.27.27,0,0,0,21,7l.07-.12a1.57,1.57,0,0,0,0-.16Zm-.18-.84a.08.08,0,0,0-.07.07.25.25,0,0,0,0,.15c0,.08.05.11.12.1h.06l.09,0C20.93,6,20.86,5.87,20.8,5.89Z"/><path class="cls-2" d="M23.13,6.42l-.55.06-.08-.31-.06.27-.59-.06,0-.56A.3.3,0,0,1,22,5.64l.31-.32,0-.09.2-.35.27,1,.34,0Zm-.72-1.88-.14-.15-.09.18-.25-.29L22.06,4l.14.15L22.3,4l.26.28Zm-.06,1-.26.28.34,0Z"/><path class="cls-2" d="M23,6.43l0-.53.43,0-.05-.21.18-.34.14.53.33,0,0,.53-.5,0,0-.15-.07.16Zm.4.3.13.15.11-.17.24.3-.15.25-.13-.16-.11.17L23.26,7Z"/><path class="cls-2" d="M25.42,6.09l-.15,0h-.13a.37.37,0,0,0-.3.18l-.06.08a.05.05,0,0,1,0,0l-.08,0h-.74V5.82h.94l-.1-.06a.49.49,0,0,1-.13-.11.92.92,0,0,0-.16-.12.2.2,0,0,0-.11,0,.13.13,0,0,0-.08,0l0-.1.05-.1.09-.14c.05-.07.09-.1.13-.1s.09,0,.17.08l.16.13.2.14.16.1.15.05a.55.55,0,0,0,.18,0Z"/><path class="cls-2" d="M27.15,6.42h-.39a.26.26,0,0,1-.1,0,.38.38,0,0,1-.09-.29v-.2l0,0-.07.17a.87.87,0,0,1-.09.17.29.29,0,0,1-.08.1.65.65,0,0,1-.35,0,2.23,2.23,0,0,1-.36,0,1.56,1.56,0,0,0,.28-.16l.2-.14a1.12,1.12,0,0,0,.2-.18,2.6,2.6,0,0,0-.09-.47A2.52,2.52,0,0,0,26,4.94S26,5,26,5s0,0-.05-.08l0-.11a1,1,0,0,1-.05-.21.86.86,0,0,1,.08-.22L26,4.26s.05-.08.07-.07a.07.07,0,0,1,.06,0l.07.16a2.56,2.56,0,0,1,.09.26c0,.12.07.27.1.46a5.34,5.34,0,0,1,.09.53v0l0,0,.05,0,.06-.08a.08.08,0,0,0,0-.06V5.33l0-.74L27,4.16,26.86,5.6v.1a.28.28,0,0,0,0,.14s0,0,.08,0h.24Z"/><path class="cls-2" d="M27.88,6.52l0-.19-.11.17L27,6.42l.06-.53.7.08-.07-.42.21-.31.14.76h0L28,6.53h-.16Z"/><path class="cls-2" d="M28.07,6l.07,0,.41-.3a4.09,4.09,0,0,1,.37-.24L29,5.34h.08a.25.25,0,0,1,.08,0l.09.09a1.59,1.59,0,0,1,.12.27.86.86,0,0,1,0,.27.84.84,0,0,1,0,.12,2.13,2.13,0,0,1-.09.21,2.24,2.24,0,0,1-.1.21l-.09.16L28,6.52h0L28.06,6Zm1-.12c0-.09-.1-.14-.16-.15s-.1,0-.19.07l-.15.1L28.47,6,28.35,6l.8.13A.75.75,0,0,0,29.06,5.87Z"/><path class="cls-2" d="M29.66,7.58h-.11l-.07,0a.54.54,0,0,0-.24.19.74.74,0,0,1,.14-.28c-.07,0-.09-.1-.07-.2a.62.62,0,0,1,.09-.19A.66.66,0,0,1,29.55,7a.19.19,0,0,1,.15,0c.07,0,.09,0,.09.09a.16.16,0,0,0,0,.06l0,0,0,.1-.05,0-.05,0H29.5a.18.18,0,0,0-.07,0,.21.21,0,0,0,.08.11.23.23,0,0,0,.12.06h.05l.07,0Z"/><path class="cls-2" d="M30.76,5.56l0,0-.15.19a2,2,0,0,1-.2.21l.06.28v0l0,.09a.33.33,0,0,1,0,.1,1.19,1.19,0,0,1-.08.21l0,.06L30.23,7l-.73-.17.18-.54.05,0,.18-.14L30,6l.08-.08,0,0,0-.05L30,5.66l-.09-.19,0,0a.07.07,0,0,1-.06,0s0,0,0,0,0,0,0-.09l0-.2a.31.31,0,0,1,0-.1.69.69,0,0,1,.09-.21A1,1,0,0,1,30,4.74s0,0,.05,0,0,0,.05.07a1.85,1.85,0,0,1,.09.23l.07.26.06.29v.05l.07-.09a.65.65,0,0,0,.09-.13l.06-.1,0-.08a.17.17,0,0,1,0-.07V5.08A.28.28,0,0,1,30.61,5l.07-.06.16-.15,0,.07a.28.28,0,0,0,0,.19l.14.26Zm-.58.55,0,0-.1.09L30,6.28l-.07,0,.35.08Z"/><path class="cls-2" d="M31.43,5.58l-.07.07v0l-.06.25s0,.11-.05.2,0,.13,0,.16a2.48,2.48,0,0,1-.2.54,1.45,1.45,0,0,1-.31.37s0-.1,0-.16a1.67,1.67,0,0,0,.05-.18s0-.1.05-.19,0-.16.05-.2L31,5.91l.1-.44V5.4l.4-.43Z"/><path class="cls-2" d="M32,7.45l-.08,0-.08,0a.26.26,0,0,1-.08-.19.78.78,0,0,1,0-.3A2,2,0,0,1,32,6.53a2.22,2.22,0,0,1,.24-.3,2.38,2.38,0,0,0-.12.27.62.62,0,0,0,0,.32.15.15,0,0,0,.06.09.33.33,0,0,0,.12.06l.81.28a1,1,0,0,0,0-.35l.32-.34a.92.92,0,0,1,0,.29,1.27,1.27,0,0,1-.06.28,2.65,2.65,0,0,1-.21.4L33,7.66,33,7.78Zm.9-1-.07-.19-.15.11-.11-.36.23-.17.06.2L33,6l.11.36Z"/><path class="cls-2" d="M33.85,8.15,33.45,8l-.06,0c-.09,0-.11-.11-.07-.21l0-.1,0-.06.55-1.34.43-.32-.57,1.4a.51.51,0,0,0,0,.11.07.07,0,0,0,0,0s0,0,0,0l.06,0,.24.1Z"/><path class="cls-2" d="M34.53,8.46l0-.19-.16.13-.65-.3L34,7.62l.64.28.06-.41.3-.24-.1.77h0l-.22.49h0Z"/><path class="cls-2" d="M35.19,8.19l.09-.41.3-.22-.13.76.22.11a1,1,0,0,0,0-.35l.37-.29a1,1,0,0,1,0,.28,1.16,1.16,0,0,1-.1.28l0,.08-.06.09.3.15-.24.48L35.59,9l0-.2-.13.15-.4-.21,0-.19L35,8.67l-.36-.19L34.84,8Z"/><path class="cls-2" d="M36.54,9.53l0-.19-.17.11-.62-.35.27-.47.61.36.1-.41.32-.2-.18.75h0l-.27.47,0,0Z"/><path class="cls-2" d="M37.22,9.32l.12-.4.33-.19-.21.74.21.14a.9.9,0,0,0,.08-.35l.4-.25a1.31,1.31,0,0,1-.06.27,1.69,1.69,0,0,1-.13.27.86.86,0,0,1-.14.18,2.12,2.12,0,0,1-.16.16l-.13.13-.09.08-.38-.25.06-.18-.18.1-.35-.22.28-.45Z"/><path class="cls-2" d="M39,9.18a.45.45,0,0,0-.17,0,.48.48,0,0,0-.29.07.7.7,0,0,1,.23-.2c0-.06,0-.12,0-.21a.82.82,0,0,1,.16-.14.52.52,0,0,1,.2-.1.17.17,0,0,1,.14,0c.06,0,.08.08,0,.12l-.08.07-.08.06,0-.05s0,0,0,0a.17.17,0,0,0-.17,0,.31.31,0,0,0,0,.13A.22.22,0,0,0,39,9a.23.23,0,0,0,.11,0Z"/><path class="cls-2" d="M38.52,10.84l-.3-.2h0a1.67,1.67,0,0,1-.28.25,2.28,2.28,0,0,1-.3.17c-.1,0-.18,0-.22,0s-.06-.09-.06-.19,0-.12,0-.16a1.59,1.59,0,0,1,0-.23v0a.44.44,0,0,0,.11.12.32.32,0,0,0,.26.05l.13,0,.13-.09L38,10.44c-.06,0-.11-.07-.12-.1a.19.19,0,0,1,0-.09.27.27,0,0,1,0-.15.51.51,0,0,1,.07-.17,1.45,1.45,0,0,1,.4-.37l.12-.08.12-.07c.1-.05.17-.06.22,0s.06.14,0,.3a1.5,1.5,0,0,1-.21.52,3.06,3.06,0,0,1,.29.21Zm-.09-1.11s-.06,0-.1,0a.36.36,0,0,0-.11.1q-.07.11,0,.15l.06,0,.07.05C38.46,9.89,38.48,9.77,38.43,9.73Z"/><path class="cls-2" d="M39.6,11.7l-.34-.27-.29.21-.14-.78-.18.09-.23-.18.33-.42.31.24.18-.13.21-.11a.65.65,0,0,1,.27,0,.5.5,0,0,1,.24.09.19.19,0,0,1,.07.13.13.13,0,0,1,0,.06l-.06.09-.06.08-.25.31.28.22Zm-.06-.82,0,0c.05-.07.05-.13,0-.18a.21.21,0,0,0-.12-.05.59.59,0,0,0-.19.05l.08.48Z"/><path class="cls-2" d="M39.82,11.9l-.33-.28.34-.41.33.28Z"/><path class="cls-2" d="M41.25,11.11v0l-.36.44-.07.09-.05.07,0,0a.38.38,0,0,1-.09.09l-.1.08-.18.14-.16.11-.09.06-.41-.36.36-.4.33.3.75-.93v0a.11.11,0,0,1,0-.11l.08-.06.06,0,.26-.13,0,.05,0,0s0,.05,0,.07v.06l.06.24Z"/><path class="cls-2" d="M41.76,11.46l-.1,0,0,0-.17.2-.13.15-.12.13a2.12,2.12,0,0,1-.42.37,1.69,1.69,0,0,1-.45.19l.12-.12.12-.13.14-.15.13-.15.38-.45.3-.34,0-.05.55-.19Z"/><polygon class="cls-2" points="44 32.56 35.28 32.05 34.73 31.84 42.05 29.04 34.02 30.41 41.67 25.98 33.72 28.61 40.91 23.01 33.26 26.38 32.77 26.38 38.68 20.25 31.41 25.39 35.95 18.04 30.28 25.39 33.18 16.08 27.84 25.39 26.95 25.39 30.7 13.43 25 22.95 19.3 13.43 23.05 25.39 22.16 25.39 16.82 16.08 19.72 25.39 14.05 18.04 18.59 25.39 11.32 20.25 17.23 26.38 16.74 26.38 9.09 23.01 16.28 28.61 8.33 25.98 15.98 30.41 7.96 29.04 15.27 31.84 14.72 32.05 6 32.56 13.42 33.16 24.97 33.41 24.97 33.41 25 33.41 25.03 33.41 25.03 33.41 36.58 33.16 44 32.56"/><path class="cls-3" d="M36.79,34.69H25.69L25.06,34h-.82l-.63.66H12.51l3.4-8.81.52-.24a4.88,4.88,0,0,1,1.4-.56,2.79,2.79,0,0,1,2.68-1.49,8.88,8.88,0,0,1,4.14,1.34,8.85,8.85,0,0,1,4.14-1.34,2.79,2.79,0,0,1,2.68,1.49,5.12,5.12,0,0,1,1.41.56l.51.24Z"/><path class="cls-2" d="M24.84,32V25.21h0a6.76,6.76,0,0,1,3.66-1.36h.14a3,3,0,0,1,2.61,1.35l2.16,6.46v0c-.06.1-.55.28-4-.91h0a7.09,7.09,0,0,0-.95-.06,5,5,0,0,0-3.49,1.17Zm.11-6.7v6.43a5.28,5.28,0,0,1,3.48-1.1,7.69,7.69,0,0,1,1,.06c3.1,1.05,3.75,1,3.89,1l-2.13-6.37A2.9,2.9,0,0,0,28.66,24h-.13A6.8,6.8,0,0,0,25,25.26Z"/><path class="cls-2" d="M36.79,34.69H25.69L25.06,34h-.82l-.63.66H12.51l3.4-8.81.52-.24a4.88,4.88,0,0,1,1.4-.56,2.79,2.79,0,0,1,2.68-1.49,8.88,8.88,0,0,1,4.14,1.34,8.85,8.85,0,0,1,4.14-1.34,2.79,2.79,0,0,1,2.68,1.49,5.12,5.12,0,0,1,1.41.56l.51.24Zm-11-.11H36.63L33.3,26l-.47-.22a4.84,4.84,0,0,0-1.4-.56h0v0a2.62,2.62,0,0,0-2.59-1.46A8.82,8.82,0,0,0,24.68,25l0,0,0,0a8.82,8.82,0,0,0-4.11-1.34,2.62,2.62,0,0,0-2.59,1.46v0h0a5,5,0,0,0-1.39.55L16,26l-3.33,8.61H23.56l.63-.66h.92Z"/><path class="cls-2" d="M24.46,32l-.1-.09a5,5,0,0,0-3.49-1.17,6.32,6.32,0,0,0-1,.07,14.92,14.92,0,0,1-3.76,1h0c-.19,0-.25,0-.27-.07v0L18,25.2a3,3,0,0,1,2.61-1.36h.14a6.76,6.76,0,0,1,3.66,1.36h0Zm-3.59-1.37a5.3,5.3,0,0,1,3.48,1.1V25.26A6.8,6.8,0,0,0,20.77,24h-.13a2.89,2.89,0,0,0-2.51,1.3L16,31.61a.44.44,0,0,0,.15,0h0a15,15,0,0,0,3.74-1A5.3,5.3,0,0,1,20.87,30.59Z"/><path class="cls-2" d="M33.51,32.09a12.4,12.4,0,0,1-2.86-.6,6.56,6.56,0,0,0-2.17-.44,5,5,0,0,0-2.5.45l-.05-.1a5.17,5.17,0,0,1,2.56-.46,6,6,0,0,1,2.19.45,11.64,11.64,0,0,0,3.06.57l-1.82-5.3.1,0,1.87,5.43h-.07A1.42,1.42,0,0,1,33.51,32.09Z"/><polygon class="cls-2" points="31.91 26.66 31.47 25.36 32.78 25.86 32.83 25.98 32.72 26.02 32.7 25.95 31.66 25.56 32.02 26.62 31.91 26.66"/><path class="cls-2" d="M24.65,32.57l0-.07a3.41,3.41,0,0,0-1.28-1l.05-.1a3.63,3.63,0,0,1,1.28,1,3.63,3.63,0,0,1,1.28-1l.05.1a3.41,3.41,0,0,0-1.28,1Z"/><path class="cls-2" d="M35.8,33.81H25.64v-.05a.94.94,0,0,0-.95-.74h-.06a.94.94,0,0,0-.95.74v.05H13.5l3-7.83.11,0-2.92,7.67h9.91a1,1,0,0,1,1-.78h.18a1,1,0,0,1,1,.78h9.91L32.72,26l.11,0Z"/><path class="cls-2" d="M25.5,34.24v0a1.39,1.39,0,0,0-.84-.89,1.39,1.39,0,0,0-.84.89v0h-.05l-10.66-.07L16.17,26s0-.14,0-.26h.11a2.06,2.06,0,0,0,0,.26v0l-3,8,10.45.06a1.46,1.46,0,0,1,.92-.92h0a1.46,1.46,0,0,1,.92.92L36,34.06l-3-8a2.06,2.06,0,0,0,0-.26h.11c0,.12,0,.23,0,.26l3.08,8.13h-.09Z"/><polygon class="cls-2" points="17.38 26.66 17.28 26.62 17.64 25.56 16.6 25.95 16.58 26.02 16.47 25.98 16.52 25.86 17.83 25.36 17.38 26.66"/><path class="cls-2" d="M15.79,32.09a1.42,1.42,0,0,1-.31,0h-.07l1.87-5.43.1,0L15.56,32a11.14,11.14,0,0,0,3.06-.58,6.4,6.4,0,0,1,2.2-.44,5.15,5.15,0,0,1,2.55.46l-.05.1a5,5,0,0,0-2.5-.45,6.44,6.44,0,0,0-2.16.44A12.66,12.66,0,0,1,15.79,32.09Z"/><path class="cls-2" d="M13.5,41.06h-.77l-.06-.27-.14.21-.79-.1.16-.45A.24.24,0,0,1,12,40.3l.47-.23V40l.33-.27.2.9h.48Zm-.94-.76-.41.2.47.07Zm.26-.86-.18-.14-.15.14-.3-.26.22-.2.17.14.17-.14.31.26Z"/><path class="cls-2" d="M13.36,41.06v-.44H14l-.06-.18.29-.27.14.45h.46v.44h-.68l0-.13-.11.13Zm.53.27.17.14.15-.14.31.26-.23.2-.17-.14-.17.14-.31-.26Z"/><path class="cls-2" d="M16.72,40.86l-.2,0h-.18a.64.64,0,0,0-.42.15l-.08.06-.06,0H14.65v-.44H16l-.14,0a.88.88,0,0,1-.18-.1l-.21-.1-.15,0-.13,0,.08-.08a.59.59,0,0,1,.08-.08l.12-.12a.26.26,0,0,1,.18-.08.56.56,0,0,1,.23.07l.22.11.27.11.23.09.2,0a1,1,0,0,0,.24,0Z"/><path class="cls-2" d="M19.17,41.06h-.55a.31.31,0,0,1-.13,0,.26.26,0,0,1-.15-.24l0-.14v0l0,0-.08.15-.11.15A.28.28,0,0,1,18,41a1.24,1.24,0,0,1-.48,0l-.49,0a2.39,2.39,0,0,0,.37-.15l.26-.12.27-.16a1.61,1.61,0,0,0-.16-.39,2.42,2.42,0,0,0-.27-.36s0,.07-.08.07a.13.13,0,0,1-.08-.07l0-.09a.46.46,0,0,1-.08-.17.41.41,0,0,1,.08-.19l.07-.11a.12.12,0,0,1,.09-.06.13.13,0,0,1,.08,0,.81.81,0,0,1,.11.13,1.91,1.91,0,0,1,.15.21c0,.1.12.22.18.37s.12.3.16.44v0l0,0,.07,0,.08-.07s0,0,0-.06v-.73l.38-.37v1.29a.16.16,0,0,0,0,.11.25.25,0,0,0,.12,0h.32Z"/><path class="cls-2" d="M20.23,41.06l-.08-.15-.13.15H19v-.44h1l-.16-.34.24-.28.31.62h0v.44h-.21Z"/><path class="cls-2" d="M20.39,40.61l.09,0,.49-.3.44-.24.15-.07.1,0,.13,0,.13.07a1.14,1.14,0,0,1,.23.2.43.43,0,0,1,.08.21.22.22,0,0,1,0,.11,1.2,1.2,0,0,1-.07.19l-.09.18-.08.14H20.38v-.45Zm1.33-.23a.4.4,0,0,0-.25-.1.6.6,0,0,0-.24.08l-.19.1-.11.07-.14.09h1.12A.57.57,0,0,0,21.72,40.38Z"/><path class="cls-2" d="M23.88,39.84l-.06,0a1.5,1.5,0,0,1-.14.19c-.06.06-.13.14-.2.2l.17.21,0,0,0,.06a.23.23,0,0,1,0,.09.41.41,0,0,1-.05.18l0,.06-.09.23h-1l.07-.47.06-.05.19-.15.09-.08.08-.08,0,0,0,0-.12-.11-.17-.14,0,0s0,0-.07,0h0l-.06-.07a.65.65,0,0,1-.11-.15.16.16,0,0,1,0-.09.55.55,0,0,1,.05-.18.86.86,0,0,1,.1-.16.07.07,0,0,1,.06,0,.19.19,0,0,1,.1,0l.18.18a1.3,1.3,0,0,1,.17.19l.19.22,0,0,.07-.08.07-.12.06-.1s0,0,0-.07l-.06-.05s0,0,0,0a.16.16,0,0,1,.07-.11l.07-.06.17-.16v.07a.17.17,0,0,0,.1.14l.27.19Zm-.61.55,0,0-.12.09-.08.06-.08.06h.5Z"/><path class="cls-2" d="M24.73,39.71l-.08.07v0l0,.22v.16a1,1,0,0,1,0,.15,1.23,1.23,0,0,1-.07.47,1.1,1.1,0,0,1-.28.36V41a.76.76,0,0,0,0-.15s0-.09,0-.17v-.16l0-.49,0-.37v-.06l.38-.43Z"/><path class="cls-2" d="M26.21,41.06H26a.34.34,0,0,1-.2-.13.43.43,0,0,1-.07-.25.85.85,0,0,1,.07-.33,1.39,1.39,0,0,1,.17-.3.88.88,0,0,0,0,.24.32.32,0,0,0,.11.27.28.28,0,0,0,.11.05l.18,0H27.5a.58.58,0,0,0-.16-.28l.27-.35a.77.77,0,0,1,.14.21.79.79,0,0,1,.05.24,1.13,1.13,0,0,1-.09.38s0,.09-.06.12l0,.12Zm.74-1-.18-.13-.15.13-.3-.26.22-.19.17.13.17-.13.31.25Z"/><path class="cls-2" d="M29,41.06h-.69c-.13,0-.2-.05-.2-.15V39.57l.38-.37v1.34l0,.05,0,0H29Z"/><path class="cls-2" d="M30,41.06,30,40.91l-.13.15h-1v-.44h1l-.16-.34.24-.28.31.62h0v.44H30Z"/><path class="cls-2" d="M30.71,40.62l-.16-.34.24-.28.31.62h.34a.61.61,0,0,0-.15-.28l.27-.35a.54.54,0,0,1,.13.22.52.52,0,0,1,0,.24v.08a.81.81,0,0,1,0,.09h.47v.44h-.48l-.1-.15-.06.15h-.63l-.07-.15-.13.15h-.56v-.44Z"/><path class="cls-2" d="M33.24,41.06l-.07-.15-.13.15h-1v-.44h1l-.17-.34.25-.28.31.62h0v.44h-.22Z"/><path class="cls-2" d="M33.92,40.62l-.16-.34L34,40l.31.62h.34a.58.58,0,0,0-.16-.28l.28-.35a.74.74,0,0,1,.13.21.79.79,0,0,1,.05.25.52.52,0,0,1,0,.18s0,.08-.06.19a.94.94,0,0,0-.06.15l0,.09h-.62l-.07-.15-.13.15h-.57v-.44Z"/><path class="cls-2" d="M35.79,39.73a1,1,0,0,0-.23,0,.67.67,0,0,0-.28.19.44.44,0,0,1,.11-.25c-.09,0-.14-.07-.14-.15a.36.36,0,0,1,.08-.17.46.46,0,0,1,.14-.16.39.39,0,0,1,.2,0c.1,0,.14,0,.14.06a.27.27,0,0,1,0,.08l-.05.08-.08,0h-.07a.28.28,0,0,0-.2.08.37.37,0,0,0,.14.08l.18,0,.16,0Z"/><path class="cls-2" d="M36.59,41.06h-.5a1.88,1.88,0,0,1-.12.3,1.71,1.71,0,0,1-.21.26.35.35,0,0,1-.24.12.4.4,0,0,1-.21-.1l-.11-.12a1,1,0,0,1-.14-.17l0,0h0l.22,0a.63.63,0,0,0,.33-.09.35.35,0,0,0,.11-.09l.09-.12h-.41a.28.28,0,0,1-.12,0,.23.23,0,0,1-.12-.1.33.33,0,0,1-.05-.16.89.89,0,0,1,.15-.44.41.41,0,0,1,.07-.11l.08-.1a.31.31,0,0,1,.22-.13.35.35,0,0,1,.28.19,1.11,1.11,0,0,1,.18.46h.49Zm-1-.71a.13.13,0,0,0-.11,0,.16.16,0,0,0-.05.11c0,.07.05.11.13.11h.22C35.76,40.44,35.69,40.35,35.6,40.35Z"/><path class="cls-2" d="M37.39,40.24v.09s0,.08,0,.12a.22.22,0,0,0,0,.09.09.09,0,0,0,0,.06l0,0,.1.06.27.18-.27.37L37.19,41l-.06.07h-.68v-.44h.62l-.08-1c-.07,0-.11,0-.11-.08a.14.14,0,0,1,0-.06l.05-.07.15-.23a.13.13,0,0,0,0,.1l.13.07.28.11-.14.33-.06,0Z"/><path class="cls-2" d="M38.59,39.71l-.08.07v0l0,.22v.16a1,1,0,0,1,0,.15,1.21,1.21,0,0,1-.08.47,1,1,0,0,1-.28.36.61.61,0,0,0,0-.14.76.76,0,0,0,0-.15s0-.09,0-.17a.67.67,0,0,0,0-.16l0-.49,0-.37v-.06l.38-.43Z"/></svg>